# Alias OBJ Model File
# Exported from SketchUp, (c) 2000-2012 Trimble Navigation Limited
# File units = meters

mtllib COM055.mtl

g Mesh1 Group1 COM055 Model

usemtl Translucent_Glass_Blue
v 18.6158 5.49729 -0.418756
vt -2.21865 37.8791
vn 0 0 -1
v 19.5088 4.60429 -0.418756
vt -37.3761 2.72165
v 18.6158 4.60429 -0.418756
vt -2.21865 2.72165
f 1/1/1 2/2/1 3/3/1

v 19.5088 5.49729 -0.418756
vt -37.3761 37.8791
f 2/2/1 1/1/1 4/4/1

vn -0 -0 1
f 3/3/2 2/2/2 1/1/2

usemtl FrontColor
v 19.5684 4.53516 -0.418756
vt -39.7244 0
f 2/2/1 5/5/1 3/3/1

v 19.5684 5.54416 -0.418756
vt -39.7244 39.7244
f 5/5/1 2/2/1 6/6/1

usemtl BackColor
f 6/6/2 2/2/2 5/5/2

usemtl FrontColor
f 6/6/1 2/2/1 4/4/1

usemtl BackColor
f 4/4/2 2/2/2 6/6/2

usemtl Translucent_Glass_Blue
f 4/4/2 1/1/2 2/2/2

usemtl FrontColor
v 18.5594 5.54416 -0.418756
vt 0 39.7244
f 1/1/1 7/7/1 4/4/1

f 3/3/1 7/7/1 1/1/1

v 18.5594 4.53516 -0.418756
vt 0 0
f 3/3/1 8/8/1 7/7/1

f 8/8/1 3/3/1 5/5/1

usemtl BackColor
f 5/5/2 3/3/2 8/8/2

f 3/3/2 5/5/2 2/2/2

usemtl _7
vt 7.16568 5.98036
vn 0 1 -0
v 19.5088 4.60429 0.00548389
vt 7.45722 5.89322
vt 7.45722 5.98036
f 3/9/3 9/10/3 2/11/3

v 18.6158 4.60429 0.00548389
vt 7.16568 5.89322
f 9/10/3 3/9/3 10/12/3

usemtl BackColor
vt 2.21865 3.55271e-015
vn -0 -1 0
vt 2.21865 16.7024
vt 37.3761 0
f 10/13/4 3/14/4 9/15/4

usemtl _7
vn 1 0 -0
v 18.6158 5.49729 0.00548389
vt 6.87413 5.89322
f 3/9/5 11/16/5 10/12/5

vt 6.87413 5.98036
f 11/16/5 3/9/5 1/17/5

usemtl BackColor
vt 3.55271e-015 2.72165
vn -1 -0 0
vt 3.55271e-015 37.8791
vt 16.7024 2.72165
f 10/18/6 11/19/6 3/20/6

usemtl FrontColor
v 18.5594 5.54416 0.00548389
vt -1.17909e-031 39.7244
vn -2.79481e-017 0 1
vt 2.21865 2.72165
vt 2.21865 37.8791
f 12/21/7 10/22/7 11/23/7

v 18.5594 4.53516 0.00548389
vt -1.17909e-031 0
f 13/24/7 10/22/7 12/21/7

vt 37.3761 2.72165
f 10/22/7 13/24/7 9/25/7

usemtl BackColor
vn 2.79481e-017 -0 -1
f 12/21/8 10/22/8 13/24/8

f 11/23/8 10/22/8 12/21/8

usemtl Translucent_Glass_Blue
vn -5.05257e-017 5.05257e-017 1
v 19.5088 5.49729 0.00548389
vt 37.3761 37.8791
f 10/22/9 14/26/9 11/23/9

f 14/26/9 10/22/9 9/25/9

vn 5.05257e-017 -5.05257e-017 -1
f 9/25/10 10/22/10 14/26/10

usemtl BackColor
f 9/25/8 13/24/8 10/22/8

usemtl FrontColor
v 19.5684 4.53516 0.00548389
vt 39.7244 0
f 15/27/7 9/25/7 13/24/7

v 19.5684 5.54416 0.00548389
vt 39.7244 39.7244
f 9/25/7 15/27/7 16/28/7

usemtl BackColor
f 13/24/8 9/25/8 15/27/8

f 16/28/8 15/27/8 9/25/8

usemtl FrontColor
f 9/25/7 16/28/7 14/26/7

usemtl BackColor
f 14/26/8 16/28/8 9/25/8

usemtl FrontColor
f 14/26/7 16/28/7 11/23/7

usemtl BackColor
f 11/23/8 16/28/8 14/26/8

usemtl FrontColor
f 12/21/7 11/23/7 16/28/7

usemtl BackColor
f 16/28/8 11/23/8 12/21/8

usemtl Translucent_Glass_Blue
f 11/23/10 14/26/10 10/22/10

usemtl _7
vt -1.93512 5.89322
vn 0 -1 -0
vt -2.22666 5.98036
vt -2.22666 5.89322
f 11/29/11 4/30/11 14/31/11

vt -1.93512 5.98036
f 4/30/11 11/29/11 1/32/11

usemtl BackColor
vt -2.21865 16.7024
vn -0 1 0
vt -2.21865 3.55271e-015
vt -37.3761 16.7024
f 1/33/12 11/34/12 4/35/12

vt 16.7024 37.8791
f 1/36/6 3/20/6 11/19/6

f 1/1/2 7/7/2 3/3/2

f 4/4/2 7/7/2 1/1/2

usemtl FrontColor
f 6/6/1 4/4/1 7/7/1

usemtl BackColor
f 7/7/2 4/4/2 6/6/2

f 7/7/2 8/8/2 3/3/2

vt -37.3761 3.55271e-015
f 14/37/12 4/35/12 11/34/12

usemtl _7
vn -1 0 -0
vt 7.74877 5.89322
vt 7.74877 5.98036
f 2/11/13 14/38/13 4/39/13

f 14/38/13 2/11/13 9/10/13

usemtl BackColor
vt 0 2.72165
vn 1 -0 0
vt -16.7024 2.72165
vt -3.55271e-015 37.8791
f 9/40/14 2/41/14 14/42/14

vt 37.3761 16.7024
f 2/43/4 9/15/4 3/14/4

vt -16.7024 37.8791
f 4/44/14 14/42/14 2/41/14

g Mesh2 Group1 COM055 Model

l 1 4

l 3 1

l 2 3

l 4 2

l 4 14

l 11 14

l 1 11

l 10 11

l 9 10

l 2 9

l 14 9

l 3 10

g Mesh3 Group1 COM055 Model

l 13 12

l 15 13

l 16 15

l 12 16

g Mesh4 Group1 COM055 Model

l 7 6

l 8 7

l 5 8

l 6 5

g Mesh5 COM055 Model

usemtl _Tile_Ceramic_Natural_15
v 20.4344 3.441 -0.418756
vt 23.3606 8.43305
vn -3.40844e-016 1 2.84976e-016
v 18.5714 3.441 -7.01621
vt 22.0393 13.1121
v 18.5714 3.441 -0.418756
vt 22.0393 8.43305
f 17/45/15 18/46/15 19/47/15

v 19.4973 3.441 -7.89748
vt 22.696 13.7371
f 18/46/15 17/45/15 20/48/15

usemtl BackColor
vt 0.471767 16.7024
vn 3.40844e-016 -1 -2.84976e-016
vt 0.471767 276.445
vt 73.8197 16.7024
f 19/49/16 18/50/16 17/51/16

usemtl Color_D03
v 18.5714 6.444 -0.418756
vt 16.7024 118.228
vt 16.7024 0
vt 276.445 5.68434e-014
f 21/52/5 19/53/5 18/54/5

v 18.5714 4.53516 -0.418756
vt 16.7024 43.0772
f 21/52/5 22/55/5 19/53/5

v 18.5714 5.54416 -0.418756
vt 16.7024 82.8016
f 22/55/5 21/52/5 23/56/5

usemtl BackColor
f 23/56/6 21/52/6 22/55/6

usemtl Color_D03
vt -0.471767 118.228
vn -5.64991e-017 2.22659e-017 -1
vt -39.7244 82.8016
vt -0.471767 82.8016
f 21/57/17 6/58/17 23/59/17

v 20.4344 6.444 -0.418756
vt -73.8197 118.228
f 24/60/17 6/58/17 21/57/17

vt -39.7244 43.0772
f 24/60/17 5/61/17 6/58/17

vt -73.8197 2.80498e-014
f 17/62/17 5/61/17 24/60/17

vt -0.471767 43.0772
f 17/62/17 22/63/17 5/61/17

vt -0.471767 -3.71893e-016
f 22/63/17 17/62/17 19/64/17

usemtl BackColor
vn 5.64991e-017 -2.22659e-017 1
f 19/64/18 17/62/18 22/63/18

f 5/61/18 22/63/18 17/62/18

f 24/60/18 5/61/18 17/62/18

f 6/58/18 5/61/18 24/60/18

f 21/57/18 6/58/18 24/60/18

f 23/59/18 6/58/18 21/57/18

usemtl Color_D03
v 20.4344 6.444 -6.91288
vt -272.377 118.228
vn -1 -8.10042e-018 -4.44655e-016
vt -16.7024 2.78237e-014
vt -16.7024 118.228
f 25/65/19 17/66/19 24/67/19

v 20.4344 3.441 -6.91288
vt -272.377 8.46672e-014
f 17/66/19 25/65/19 26/68/19

usemtl BackColor
vn 1 8.10042e-018 4.44655e-016
f 24/67/20 17/66/20 25/65/20

f 26/68/20 25/65/20 17/66/20

usemtl Color_D03
vt -146.404 118.228
vn -0.724355 -3.70199e-016 0.689427
v 20.2269 5.656 -7.13092
vt -158.255 87.2047
vt -146.404 -4.04747e-015
f 25/69/21 27/70/21 26/71/21

v 19.4973 6.444 -7.89748
vt -199.919 118.228
f 27/70/21 25/69/21 28/72/21

usemtl BackColor
vn 0.724355 3.70199e-016 -0.689427
f 26/71/22 27/70/22 25/69/22

usemtl Color_D03
v 20.2269 3.441 -7.13092
vt -158.255 -4.04747e-015
f 29/73/21 26/71/21 27/70/21

usemtl _Tile_Ceramic_Natural_15
vt 23.2135 13.1935
vt 23.3606 13.0388
f 29/74/15 17/45/15 26/75/15

v 19.565 3.441 -7.82639
vt 22.744 13.6867
f 30/76/15 17/45/15 29/74/15

f 20/48/15 17/45/15 30/76/15

usemtl BackColor
vt 36.9252 311.14
f 20/77/16 17/51/16 18/50/16

vt 39.5892 308.341
f 30/78/16 17/51/16 20/77/16

vt 65.6495 280.961
f 29/79/16 17/51/16 30/78/16

vt 73.8197 272.377
f 26/80/16 17/51/16 29/79/16

f 27/70/22 26/71/22 29/73/22

usemtl Color_D03
vt -196.055 2.43742e-014
vt -199.919 2.43742e-014
f 30/81/21 28/72/21 20/82/21

v 19.565 5.656 -7.82639
vt -196.055 87.2047
f 31/83/21 28/72/21 30/81/21

f 27/70/21 28/72/21 31/83/21

usemtl BackColor
f 28/72/22 25/69/22 27/70/22

f 31/83/22 28/72/22 27/70/22

f 30/81/22 28/72/22 31/83/22

f 20/82/22 28/72/22 30/81/22

usemtl Color_D03
v 18.5714 6.444 -7.01621
vt 190.93 118.228
vn 0.689427 -6.7918e-018 0.724355
vt 241.256 1.12329e-013
vt 241.256 118.228
f 32/84/23 20/85/23 28/86/23

vt 190.93 5.54856e-014
f 20/85/23 32/84/23 18/87/23

usemtl BackColor
vn -0.689427 6.7918e-018 -0.724355
f 18/87/24 32/84/24 20/85/24

usemtl Color_D03
vt 276.445 118.228
f 21/52/5 18/54/5 32/88/5

usemtl BackColor
f 18/54/6 19/53/6 21/52/6

f 19/53/6 22/55/6 21/52/6

f 32/88/6 18/54/6 21/52/6

f 28/86/24 20/85/24 32/84/24

g Mesh6 COM055 Model

l 30 29

l 20 30

l 20 18

l 20 28

l 28 32

l 28 25

l 24 25

l 17 24

l 17 19

l 17 26

l 29 26

l 27 29

l 31 27

l 31 30

l 26 25

l 19 18

l 19 22

l 22 23

l 5 22

l 6 5

l 23 6

l 23 21

l 21 32

l 24 21

l 18 32

