# Alias OBJ Model File
# Exported from SketchUp, (c) 2000-2012 Trimble Navigation Limited
# File units = meters

mtllib COM008.mtl

g Mesh1 Group1 COM008 Model

usemtl Translucent_Glass_Blue
v 37.7714 5.38078 -26.7461
vt -26.3284 26.4246
vn -1 0 -0
v 37.7714 4.73778 -26.1031
vt -1.01342 1.10966
v 37.7714 5.38078 -26.1031
vt -1.01342 26.4246
f 1/1/1 2/2/1 3/3/1

v 37.7714 4.73778 -26.7461
vt -26.3284 1.10966
f 2/2/1 1/1/1 4/4/1

vn 1 -0 0
f 3/3/2 2/2/2 1/1/2

usemtl _7
vt 14.9468 6.8675
vn 0 0 1
v 38.0564 5.38078 -26.1031
vt 15.0398 6.99958
vt 14.9468 6.99958
f 2/5/3 5/6/3 3/7/3

v 38.0564 4.73778 -26.1031
vt 15.0398 6.8675
f 5/6/3 2/5/3 6/8/3

vt -9.80928 11.0681
vn -0 -0 -1
vt -9.71621 11.0681
vt -9.80928 10.9361
f 6/9/4 2/10/4 5/11/4

vn 0 -1 -0
v 38.0564 4.73778 -26.7461
vt -9.80928 11.2002
f 2/10/5 7/12/5 6/9/5

vt -9.71621 11.2002
f 7/12/5 2/10/5 4/13/5

vn -0 1 0
f 4/13/6 2/10/6 7/12/6

usemtl Translucent_Glass_Blue
f 4/4/2 1/1/2 2/2/2

usemtl _7
vt -9.71621 6.99958
vn 0 0 -1
vt -9.80928 6.8675
vt -9.71621 6.8675
f 1/14/7 7/15/7 4/16/7

v 38.0564 5.38078 -26.7461
vt -9.80928 6.99958
f 7/15/7 1/14/7 8/17/7

vn -0 -0 1
vt -9.71621 11.3323
f 4/13/8 7/12/8 1/18/8

vt -9.80928 11.3323
f 8/19/8 1/18/8 7/12/8

vt 14.9468 11.2002
vn 0 1 -0
vt 15.0398 11.0681
vt 15.0398 11.2002
f 1/20/9 5/21/9 8/22/9

vt 14.9468 11.0681
f 5/21/9 1/20/9 3/23/9

vt -9.71621 11.4644
vn -0 -1 0
vt -9.80928 11.4644
f 3/24/10 1/18/10 5/25/10

usemtl FrontColor
v 37.7714 5.40459 -26.7724
vt -27.3622 27.3622
f 3/3/1 9/26/1 1/1/1

v 37.7714 5.40459 -26.0774
vt 0 27.3622
f 3/3/1 10/27/1 9/26/1

v 37.7714 4.70959 -26.0774
vt 0 0
f 10/27/1 3/3/1 11/28/1

usemtl BackColor
f 11/28/2 3/3/2 10/27/2

usemtl FrontColor
f 2/2/1 11/28/1 3/3/1

v 37.7714 4.70959 -26.7724
vt -27.3622 0
f 11/28/1 2/2/1 12/29/1

usemtl BackColor
f 12/29/2 2/2/2 11/28/2

usemtl FrontColor
f 12/29/1 2/2/1 4/4/1

usemtl BackColor
f 4/4/2 2/2/2 12/29/2

usemtl FrontColor
f 12/29/1 4/4/1 9/26/1

usemtl BackColor
f 9/26/2 4/4/2 12/29/2

usemtl FrontColor
f 1/1/1 9/26/1 4/4/1

usemtl BackColor
f 1/1/2 9/26/2 3/3/2

f 4/4/2 9/26/2 1/1/2

f 9/26/2 10/27/2 3/3/2

f 3/3/2 11/28/2 2/2/2

usemtl _7
vt -9.71621 10.9361
f 3/30/4 5/11/4 2/10/4

f 8/19/10 5/25/10 1/18/10

usemtl Translucent_Glass_Blue
vt 1.01342 26.4246
vn 1 0 -0
vt 26.3284 1.10966
vt 26.3284 26.4246
f 5/31/11 7/32/11 8/33/11

vt 1.01342 1.10966
f 7/32/11 5/31/11 6/34/11

vn -1 -0 0
f 6/34/12 5/31/12 7/32/12

usemtl FrontColor
v 38.0564 5.40459 -26.0774
f 5/31/11 13/27/11 6/34/11

v 38.0564 5.40459 -26.7724
vt 27.3622 27.3622
f 13/27/11 5/31/11 14/35/11

usemtl BackColor
f 14/35/12 5/31/12 13/27/12

usemtl FrontColor
f 14/35/11 5/31/11 8/33/11

usemtl BackColor
f 8/33/12 5/31/12 14/35/12

usemtl Translucent_Glass_Blue
f 8/33/12 7/32/12 5/31/12

usemtl FrontColor
v 38.0564 4.70959 -26.7724
vt 27.3622 0
f 7/32/11 15/36/11 8/33/11

f 6/34/11 15/36/11 7/32/11

v 38.0564 4.70959 -26.0774
f 6/34/11 16/28/11 15/36/11

f 16/28/11 6/34/11 13/27/11

usemtl BackColor
f 13/27/12 6/34/12 16/28/12

f 6/34/12 13/27/12 5/31/12

f 15/36/12 16/28/12 6/34/12

f 7/32/12 15/36/12 6/34/12

f 8/33/12 15/36/12 7/32/12

usemtl FrontColor
f 14/35/11 8/33/11 15/36/11

usemtl BackColor
f 15/36/12 8/33/12 14/35/12

usemtl _7
f 6/9/6 7/12/6 2/10/6

g Mesh2 Group1 COM008 Model

l 1 3

l 4 1

l 2 4

l 3 2

l 5 3

l 8 5

l 7 8

l 6 7

l 5 6

l 6 2

l 7 4

l 8 1

g Mesh3 Group1 COM008 Model

l 14 13

l 15 14

l 16 15

l 13 16

g Mesh4 Group1 COM008 Model

l 9 12

l 10 9

l 11 10

l 12 11

g Mesh5 COM008 Model

usemtl _Tile_Ceramic_Natural_15
v 35.5087 3.441 -26.0685
vt 34.0516 26.6244
vn 6.67499e-017 1 -1.3913e-016
v 35.5087 3.441 -27.0403
vt 34.0516 27.3136
v 35.5087 3.441 -26.1803
vt 34.0516 26.7036
f 17/37/13 18/38/13 19/39/13

v 35.5087 3.441 -27.4304
vt 34.0516 27.5902
f 18/38/13 17/37/13 20/40/13

usemtl BackColor
vt -1.89715e-030 4.40013
vn -6.67499e-017 -1 1.3913e-016
vt 0 38.2584
vt 2.27374e-013 -2.1116e-045
f 19/41/14 18/42/14 17/43/14

vt 2.27374e-013 53.6174
f 20/44/14 17/43/14 18/42/14

usemtl _Tile_Ceramic_Natural_15
v 37.7714 3.441 -26.0685
vt 35.6563 26.6244
f 20/40/13 17/37/13 21/45/13

usemtl BackColor
vt 89.0816 -8.27295e-031
f 21/46/14 17/43/14 20/44/14

usemtl _Tile_Ceramic_Natural_3
v 35.5087 6.444 -26.0685
vt 82.0768 24.2021
vn 0 1.70862e-017 -1
vt 76.5092 16.8129
vt 82.0768 16.8129
f 22/47/15 21/48/15 17/49/15

v 37.7714 6.444 -26.0685
vt 76.5092 24.2021
f 21/48/15 22/47/15 23/50/15

usemtl BackColor
vt -2.27374e-013 0
vn -0 -1.70862e-017 1
vt -89.0816 0
vt -2.27374e-013 118.228
f 17/51/16 21/52/16 22/53/16

vt -89.0816 118.228
f 23/54/16 22/53/16 21/52/16

usemtl _Tile_Ceramic_Natural_3
vt 76.4874 21.6445
f 23/50/1 10/55/1 21/48/1

v 37.7714 6.444 -26.7525
vt 74.8262 24.2021
f 10/55/1 23/50/1 24/56/1

usemtl BackColor
vt -0.349136 77.3067
vt 0 118.228
f 21/28/2 10/57/2 23/58/2

usemtl _Tile_Ceramic_Natural_3
vt 76.4874 19.9344
f 11/59/1 21/48/1 10/55/1

v 37.7714 3.441 -26.7525
vt 74.8262 16.8129
f 21/48/1 11/59/1 25/60/1

usemtl BackColor
vt -26.9285 0
vt -0.349136 49.9445
f 25/61/2 11/62/2 21/28/2

usemtl _Tile_Ceramic_Natural_3
v 37.7714 4.70959 -26.7525
vt 74.8262 19.9344
f 25/60/1 11/59/1 26/63/1

usemtl BackColor
vt -26.9285 49.9445
f 26/64/2 11/62/2 25/61/2

usemtl _Tile_Ceramic_Natural_3
vt 75.3159 19.9344
v 37.5724 3.441 -26.7525
vt 75.3159 16.8129
f 26/65/3 27/60/3 25/66/3

v 37.5724 6.444 -26.7525
f 27/60/3 26/65/3 28/56/3

usemtl BackColor
vt 89.0816 0
vt 81.247 0
vt 89.0816 49.9445
f 25/67/4 27/68/4 26/69/4

usemtl _Tile_Ceramic_Natural_15
vt 35.5152 27.1095
vt 35.6563 27.1095
f 27/70/13 21/45/13 25/71/13

f 20/40/13 21/45/13 27/70/13

usemtl BackColor
vt 81.247 26.9285
f 27/72/14 21/46/14 20/44/14

vt 89.0816 26.9285
f 25/73/14 21/46/14 27/72/14

usemtl _Tile_Ceramic_Natural_15
v 37.5724 3.441 -27.2735
vt 35.5152 27.479
f 29/74/13 20/40/13 27/70/13

v 37.7714 3.441 -27.4304
vt 35.6563 27.5902
f 20/40/13 29/74/13 30/75/13

usemtl BackColor
vt 89.0816 53.6174
vt 81.247 47.4403
f 30/76/14 29/77/14 20/44/14

usemtl _Tile_Ceramic_Natural_15
v 37.7714 3.441 -27.2735
vt 35.6563 27.479
f 30/75/13 29/74/13 31/78/13

usemtl BackColor
vt 89.0816 47.4403
f 31/79/14 29/77/14 30/76/14

usemtl _Tile_Ceramic_Natural_3
v 37.5724 6.444 -27.2735
vt 73.5442 24.2021
vt 73.0545 16.8129
vt 73.5442 16.8129
f 32/80/15 31/81/15 29/82/15

v 37.7714 6.444 -27.2735
vt 73.0545 24.2021
f 31/81/15 32/80/15 33/83/15

usemtl BackColor
vt -81.247 -8.10573e-016
vt -89.0816 -8.10573e-016
vt -81.247 118.228
f 29/84/16 31/85/16 32/86/16

f 33/54/16 32/86/16 31/85/16

usemtl _Tile_Ceramic_Natural_3
v 37.7714 6.444 -27.4304
vt 73.1581 24.2021
vn -1 -8.10042e-018 -0
f 34/87/17 31/82/17 33/80/17

vt 73.1581 16.8129
f 31/82/17 34/87/17 30/88/17

usemtl BackColor
vt -47.4403 118.228
vn 1 8.10042e-018 0
vt -47.4403 -7.21598e-016
vt -53.6174 118.228
f 33/89/18 31/90/18 34/91/18

vt -53.6174 -7.21598e-016
f 30/92/18 34/91/18 31/90/18

usemtl _Tile_Ceramic_Natural_3
vt 233.596 24.2021
vn 0 -1.70862e-017 1
vt 228.028 16.8129
vt 233.596 16.8129
f 34/93/19 20/94/19 30/95/19

v 35.5087 6.444 -27.4304
vt 228.028 24.2021
f 20/94/19 34/93/19 35/96/19

usemtl BackColor
vt 89.0816 -9.16115e-016
vn -0 1.70862e-017 -1
vt 2.27374e-013 -9.16115e-016
vt 89.0816 118.228
f 30/97/20 20/98/20 34/99/20

vt 2.27374e-013 118.228
f 35/100/20 34/99/20 20/98/20

usemtl _Tile_Ceramic_Natural_3
vn 1 -9.53286e-016 3.58212e-016
v 35.5087 5.656 -27.0403
vt 227.068 22.2632
f 35/96/21 36/101/21 20/94/21

v 35.5087 5.656 -26.1803
vt 224.952 22.2632
f 35/96/21 37/102/21 36/101/21

vt 224.677 24.2021
f 22/103/21 37/102/21 35/96/21

vt 224.952 16.8129
f 22/103/21 19/104/21 37/102/21

vt 224.677 16.8129
f 19/104/21 22/103/21 17/105/21

usemtl BackColor
vt 8.14479e-029 2.16752e-028
vn -1 9.53286e-016 -3.58212e-016
vt 8.14479e-029 118.228
vt 4.40013 2.84217e-014
f 17/106/22 22/107/22 19/108/22

vt 4.40013 87.2047
f 37/109/22 19/108/22 22/107/22

vt 53.6174 118.228
f 35/110/22 37/109/22 22/107/22

vt 38.2584 87.2047
f 36/111/22 37/109/22 35/110/22

vt 53.6174 1.98443e-028
f 20/112/22 36/111/22 35/110/22

usemtl _Tile_Ceramic_Natural_3
vt 227.068 16.8129
f 20/94/21 36/101/21 18/113/21

usemtl BackColor
vt 38.2584 -1.30644e-029
f 18/114/22 36/111/22 20/112/22

usemtl _Tile_Ceramic_Natural_3
f 27/60/17 32/80/17 29/82/17

f 32/80/17 27/60/17 28/56/17

usemtl BackColor
vt -26.9285 118.228
vt -26.9285 -6.58134e-016
f 28/115/18 27/116/18 32/89/18

vt 81.247 118.228
f 28/117/4 26/69/4 27/68/4

usemtl _Tile_Ceramic_Natural_3
v 37.7714 5.40459 -26.7525
vt 75.3159 21.6445
f 28/56/3 26/65/3 38/118/3

usemtl BackColor
vt 89.0816 77.3067
f 38/119/4 26/69/4 28/117/4

usemtl _Tile_Ceramic_Natural_3
vt 75.3159 24.2021
f 28/56/3 38/118/3 24/120/3

usemtl BackColor
f 24/99/4 38/119/4 28/117/4

usemtl _Tile_Ceramic_Natural_3
vt 74.8262 21.6445
f 10/55/1 24/56/1 38/121/1

usemtl BackColor
f 24/115/2 23/58/2 10/57/2

vt -26.9285 77.3067
f 38/122/2 24/115/2 10/57/2

vt -47.4403 -6.58134e-016
f 29/123/18 32/89/18 27/116/18

f 27/72/14 20/44/14 29/77/14

f 10/57/2 21/28/2 11/62/2

g Mesh6 COM008 Model

l 21 17

l 21 25

l 21 23

l 23 24

l 23 22

l 35 22

l 34 35

l 30 34

l 31 30

l 29 31

l 27 29

l 25 27

l 25 26

l 11 26

l 10 11

l 38 10

l 38 24

l 26 38

l 24 28

l 27 28

l 28 32

l 29 32

l 32 33

l 31 33

l 33 34

l 30 20

l 20 18

l 20 35

l 18 19

l 18 36

l 36 37

l 37 19

l 19 17

l 17 22

g Mesh7 Model

v -46.1606 5.65 -333.138
v -47.599 5.65 -333.51
l 39 40

g Mesh8 Model

v -34.4464 9.6 -45.4199
v -34.4276 9.6 -45.4925
l 41 42

