# Alias OBJ Model File
# Exported from SketchUp, (c) 2000-2012 Trimble Navigation Limited
# File units = meters

mtllib DES051.mtl

g Mesh1 DES051 Model

usemtl _Tile_Ceramic_Natural_15
v 14.3879 3.441 -12.403
vt 19.0723 16.9325
vn 1.54841e-016 1 1.02798e-016
v 13.5406 3.441 -14.1096
vt 18.4714 18.1429
v 13.5406 3.441 -13.1627
vt 18.4714 17.4713
f 1/1/1 2/2/1 3/3/1

v 13.5406 3.441 -14.8123
vt 18.4714 18.6412
f 2/2/1 1/1/1 4/4/1

usemtl BackColor
vt -1.76034e-029 29.907
vn -1.54841e-016 -1 -1.02798e-016
vt -1.76034e-029 67.1873
vt 33.3584 5.30976e-031
f 3/5/2 2/6/2 1/7/2

usemtl Color_D03
vt 67.1873 1.13687e-013
vn 1 0 -0
v 13.5406 6.444 -13.1627
vt 29.907 118.228
vt 29.907 1.13687e-013
f 2/8/3 5/9/3 3/10/3

v 13.5406 5.656 -14.1096
vt 67.1873 87.2047
f 5/9/3 2/8/3 6/11/3

usemtl BackColor
vn -1 -0 0
f 3/10/4 5/9/4 2/8/4

usemtl Color_D03
v 14.3879 6.444 -12.403
vt -24.8379 118.228
vn 0.667539 1.29932e-015 -0.744575
vt 19.9641 8.47535e-014
vt 19.9641 118.228
f 7/12/5 3/13/5 5/14/5

vt -24.8379 -2.89333e-014
f 3/13/5 7/12/5 1/15/5

usemtl BackColor
vn -0.667539 -1.29932e-015 0.744575
f 1/15/6 7/12/6 3/13/6

usemtl Color_D03
vt -33.3584 118.228
vn -1.27899e-015 -9.61587e-016 -1
v 16.6456 3.441 -12.403
vt -122.247 5.68434e-014
vt -33.3584 -4.10261e-029
f 7/16/7 8/17/7 1/18/7

v 16.6456 6.444 -12.403
vt -122.247 118.228
f 8/17/7 7/16/7 9/19/7

usemtl BackColor
vn 1.27899e-015 9.61587e-016 1
f 1/18/8 8/17/8 7/16/8

usemtl _Tile_Ceramic_Natural_15
v 16.6456 3.441 -14.869
vt 20.6736 18.6815
vt 20.6736 16.9325
f 10/20/1 1/1/1 8/21/1

v 13.5406 3.441 -14.869
vt 18.4714 18.6815
f 11/22/1 1/1/1 10/20/1

f 4/4/1 1/1/1 11/22/1

usemtl BackColor
vt -1.76034e-029 94.8525
f 4/23/2 1/7/2 2/6/2

vt -8.80169e-030 97.0861
f 11/24/2 1/7/2 4/23/2

vt 122.247 97.0861
f 10/25/2 1/7/2 11/24/2

vt 122.247 7.78921e-030
f 8/26/2 1/7/2 10/25/2

usemtl Color_D03
vt -2.27374e-013 118.228
vn -1 0 -0
vt -97.0861 8.52651e-014
vt 0 5.68434e-014
f 9/27/9 10/28/9 8/29/9

v 16.6456 4.53516 -14.1652
vt -69.3762 43.0772
f 10/28/9 9/27/9 12/30/9

usemtl BackColor
vn 1 -0 0
f 8/29/10 10/28/10 9/27/10

f 12/30/10 9/27/10 10/28/10

usemtl Color_D03
v 16.6456 5.54416 -14.1652
vt -69.3762 82.8016
f 12/30/9 9/27/9 13/31/9

usemtl BackColor
f 13/31/10 9/27/10 12/30/10

usemtl Color_D03
v 16.6456 6.444 -14.869
vt -97.0861 118.228
f 14/32/9 13/31/9 9/27/9

v 16.6456 5.54416 -14.8347
vt -95.7356 82.8016
f 13/31/9 14/32/9 15/33/9

usemtl BackColor
f 9/27/10 13/31/10 14/32/10

f 15/33/10 14/32/10 13/31/10

usemtl Color_D03
v 16.6456 4.53516 -14.8347
vt -95.7356 43.0772
f 15/33/9 14/32/9 16/34/9

usemtl BackColor
f 16/34/10 14/32/10 15/33/10

usemtl Color_D03
f 16/34/9 14/32/9 10/28/9

usemtl BackColor
f 10/28/10 14/32/10 16/34/10

usemtl Color_D03
v 13.5406 6.444 -14.869
vt -7.43336e-029 118.228
vn -7.65647e-031 1.92317e-015 1
vt 122.247 2.71978e-013
vt 122.247 118.228
f 17/35/11 10/36/11 14/37/11

vt -7.43336e-029 2.43557e-013
f 10/36/11 17/35/11 11/38/11

usemtl BackColor
vn 7.65647e-031 -1.92317e-015 -1
f 11/38/12 17/35/12 10/36/12

usemtl Color_D03
vt 97.0861 118.228
v 13.5406 5.656 -14.8123
vt 94.8525 87.2047
vt 97.0861 5.68434e-014
f 17/39/3 18/40/3 11/41/3

f 17/39/3 6/11/3 18/40/3

f 5/9/3 6/11/3 17/39/3

usemtl BackColor
f 6/11/4 2/8/4 5/9/4

f 17/39/4 6/11/4 5/9/4

f 18/40/4 6/11/4 17/39/4

f 11/41/4 18/40/4 17/39/4

usemtl Color_D03
vt 94.8525 1.13687e-013
f 11/41/3 18/40/3 4/42/3

usemtl BackColor
f 4/42/4 18/40/4 11/41/4

f 14/37/12 10/36/12 17/35/12

usemtl Color_D03
f 10/28/9 12/30/9 16/34/9

usemtl BackColor
f 16/34/10 12/30/10 10/28/10

f 9/19/8 7/16/8 8/17/8

f 5/14/6 3/13/6 7/12/6

g Mesh2 DES051 Model

usemtl Translucent_Glass_Blue
v 16.6456 5.48296 -14.8068
vt -94.6359 80.3921
v 16.6456 4.60896 -14.2077
vt -71.0482 45.9826
v 16.6456 5.48296 -14.2077
vt -71.0482 80.3921
f 19/43/9 20/44/9 21/45/9

v 16.6456 4.60542 -14.8068
vt -94.6359 45.8431
f 20/44/9 19/43/9 22/46/9

f 21/45/10 20/44/10 19/43/10

f 22/46/10 19/43/10 20/44/10

g Mesh3 DES051 Model

l 10 8

l 11 10

l 11 4

l 11 17

l 17 14

l 17 5

l 3 5

l 2 3

l 4 2

l 18 4

l 6 18

l 2 6

l 1 3

l 1 8

l 1 7

l 7 9

l 7 5

l 8 9

l 14 9

l 10 14

g Mesh4 DES051 Model

l 16 12

l 15 16

l 13 15

l 12 13

g Mesh5 DES051 Model

l 19 21

l 19 22

l 22 20

l 20 21

