# Alias OBJ Model File
# Exported from SketchUp, (c) 2000-2012 Trimble Navigation Limited
# File units = meters

mtllib DES035.mtl

g Mesh1 Group1 DES035 Model

usemtl FrontColor
v 8.77911 5.54416 -30.3187
vt 0 39.7244
vn -1 0 -0
v 8.77911 5.48296 -30.3606
vt -1.64622 37.3149
v 8.77911 4.53516 -30.3187
vt 0 0
f 1/1/1 2/2/1 3/3/1

v 8.77911 5.54416 -31.3277
vt -39.7244 39.7244
f 2/2/1 1/1/1 4/4/1

usemtl BackColor
vn 1 -0 0
f 3/3/2 2/2/2 1/1/2

usemtl FrontColor
v 8.77911 4.60396 -30.3606
vt -1.64622 2.70857
f 5/5/1 3/3/1 2/2/1

v 8.77911 4.53516 -31.3277
vt -39.7244 0
f 3/3/1 5/5/1 6/6/1

usemtl BackColor
f 6/6/2 5/5/2 3/3/2

usemtl FrontColor
v 8.77911 4.60396 -31.2726
vt -37.5517 2.70857
f 6/6/1 5/5/1 7/7/1

usemtl BackColor
f 7/7/2 5/5/2 6/6/2

usemtl _7
v 9.04946 4.60396 -31.2726
vt -0.339165 13.4809
vn 0 -1 -0
vt -0.2509 13.2936
vt -0.2509 13.4809
f 8/8/3 5/9/3 7/10/3

v 9.04946 4.60396 -30.3606
vt -0.339165 13.2936
f 5/9/3 8/8/3 9/11/3

usemtl BackColor
vt 0 37.5517
vn -0 1 0
vt 0 1.64622
vt -10.6439 37.5517
f 7/12/4 5/13/4 8/14/4

usemtl Translucent_Glass_Blue
v 8.77911 5.48296 -31.2726
vt -37.5517 37.3149
f 5/5/1 10/15/1 7/7/1

f 10/15/1 5/5/1 2/2/1

f 2/2/2 5/5/2 10/15/2

usemtl BackColor
f 2/2/2 3/3/2 5/5/2

usemtl Translucent_Glass_Blue
f 7/7/2 10/15/2 5/5/2

usemtl FrontColor
f 10/15/1 4/4/1 7/7/1

f 2/2/1 4/4/1 10/15/1

usemtl BackColor
f 4/4/2 1/1/2 2/2/2

f 10/15/2 4/4/2 2/2/2

f 7/7/2 4/4/2 10/15/2

usemtl FrontColor
f 6/6/1 7/7/1 4/4/1

usemtl BackColor
f 4/4/2 7/7/2 6/6/2

usemtl _7
vt -0.2509 7.02057
vn 0 0 -1
vt -0.339165 6.84002
vt -0.2509 6.84002
f 10/16/5 8/17/5 7/18/5

v 9.04946 5.48296 -31.2726
vt -0.339165 7.02057
f 8/17/5 10/16/5 11/19/5

usemtl BackColor
vt 0 2.70857
vn -0 -0 1
vt -10.6439 2.70857
vt 0 37.3149
f 7/20/6 8/21/6 10/22/6

vt -10.6439 37.3149
f 11/23/6 10/22/6 8/21/6

usemtl Translucent_Glass_Blue
v 9.04946 5.48296 -30.3606
vt 1.64622 37.3149
vn 1 0 -0
vt 37.5517 2.70857
vt 37.5517 37.3149
f 12/24/7 8/25/7 11/26/7

vt 1.64622 2.70857
f 8/25/7 12/24/7 9/27/7

vn -1 -0 0
f 9/27/8 12/24/8 8/25/8

usemtl FrontColor
v 9.04946 5.54416 -30.3187
f 12/24/7 13/1/7 9/27/7

v 9.04946 5.54416 -31.3277
vt 39.7244 39.7244
f 13/1/7 12/24/7 14/28/7

usemtl BackColor
f 14/28/8 12/24/8 13/1/8

usemtl FrontColor
f 14/28/7 12/24/7 11/26/7

usemtl BackColor
f 11/26/8 12/24/8 14/28/8

usemtl Translucent_Glass_Blue
f 11/26/8 8/25/8 12/24/8

usemtl FrontColor
v 9.04946 4.53516 -31.3277
vt 39.7244 0
f 8/25/7 15/29/7 11/26/7

f 9/27/7 15/29/7 8/25/7

v 9.04946 4.53516 -30.3187
f 9/27/7 16/3/7 15/29/7

f 16/3/7 9/27/7 13/1/7

usemtl BackColor
f 13/1/8 9/27/8 16/3/8

f 9/27/8 13/1/8 12/24/8

f 15/29/8 16/3/8 9/27/8

f 8/25/8 15/29/8 9/27/8

f 11/26/8 15/29/8 8/25/8

usemtl FrontColor
f 14/28/7 11/26/7 15/29/7

usemtl BackColor
f 15/29/8 11/26/8 14/28/8

vt -10.6439 1.64622
f 9/30/4 8/14/4 5/13/4

g Mesh2 Group1 DES035 Model

l 1 4

l 3 1

l 3 6

l 4 6

g Mesh3 Group1 DES035 Model

l 10 2

l 7 10

l 5 7

l 2 5

l 5 9

l 9 8

l 12 9

l 11 12

l 10 11

l 8 11

l 7 8

g Mesh4 Group1 DES035 Model

l 15 16

l 14 15

l 14 13

l 13 16

g Mesh5 DES035 Model

usemtl _Tile_Ceramic_Natural_15
v 11.7399 3.441 -28.9181
vt 17.1943 28.6454
vn 2.28384e-016 1 -1.30124e-016
v 9.23078 3.441 -29.0302
vt 15.4148 28.7248
v 9.23078 3.441 -28.9181
vt 15.4148 28.6454
f 17/31/9 18/32/9 19/33/9

v 11.7399 3.441 -31.5769
vt 17.1943 30.531
f 20/34/9 18/32/9 17/31/9

v 9.04946 3.441 -31.5769
vt 15.2862 30.531
f 21/35/9 18/32/9 20/34/9

v 9.04946 3.441 -29.0302
vt 15.2862 28.7248
f 18/32/9 21/35/9 22/36/9

usemtl BackColor
vt 10.6439 4.41188
vn -2.28384e-016 -1 1.30124e-016
vt 10.6439 104.675
vt 17.7825 4.41188
f 22/37/10 21/38/10 18/39/10

usemtl Color_D03
vt 55.1426 43.0772
vn 1 8.10042e-018 -0
vt 4.41188 5.67572e-014
vt 104.675 5.67572e-014
f 16/40/11 22/41/11 21/42/11

v 9.04946 6.444 -29.0302
vt 4.41188 118.228
f 22/41/11 16/40/11 23/43/11

usemtl BackColor
vn -1 -8.10042e-018 0
f 23/43/12 16/40/12 22/41/12

usemtl Color_D03
vt 55.1426 82.8016
f 13/44/11 23/43/11 16/40/11

v 9.04946 6.444 -31.5769
vt 104.675 118.228
f 23/43/11 13/44/11 24/45/11

usemtl BackColor
f 24/45/12 13/44/12 23/43/12

usemtl Color_D03
vt 94.867 82.8016
f 24/45/11 13/44/11 14/46/11

usemtl BackColor
f 14/46/12 13/44/12 24/45/12

usemtl Color_D03
f 24/45/11 14/46/11 21/42/11

usemtl BackColor
f 21/42/12 14/46/12 24/45/12

usemtl Color_D03
vt 94.867 43.0772
f 15/47/11 21/42/11 14/46/11

f 16/40/11 21/42/11 15/47/11

usemtl BackColor
f 21/42/12 22/41/12 16/40/12

f 15/47/12 21/42/12 16/40/12

f 14/46/12 21/42/12 15/47/12

usemtl Color_D03
vt 10.6439 5.50549e-014
vn 0 -1.70862e-017 1
v 11.7399 6.444 -31.5769
vt 116.565 118.228
vt 10.6439 118.228
f 21/48/13 25/49/13 24/50/13

vt 116.565 5.50549e-014
f 25/49/13 21/48/13 20/51/13

usemtl BackColor
vn -0 1.70862e-017 -1
f 20/51/14 21/48/14 25/49/14

vt 116.565 104.675
f 20/52/10 18/39/10 21/38/10

vt 116.565 -1.08608e-029
f 17/53/10 18/39/10 20/52/10

vt 17.7825 -7.92515e-030
f 19/54/10 18/39/10 17/53/10

usemtl Color_D03
vt 4.41188 5.66994e-014
v 9.23078 6.444 -28.9181
vt 0 118.228
vt 0 5.66994e-014
f 18/55/11 26/56/11 19/57/11

v 9.23078 6.444 -29.0302
f 26/56/11 18/55/11 27/43/11

usemtl BackColor
f 19/57/12 26/56/12 18/55/12

usemtl Color_D03
vt -17.7825 118.228
vn 0 1.70862e-017 -1
vt -116.565 5.68434e-014
vt -17.7825 5.68434e-014
f 26/58/15 17/59/15 19/60/15

v 11.7399 6.444 -28.9181
vt -116.565 118.228
f 17/59/15 26/58/15 28/61/15

usemtl BackColor
vn -0 -1.70862e-017 1
f 19/60/16 17/59/16 26/58/16

f 28/61/16 26/58/16 17/59/16

usemtl Color_D03
vt -5.1932e-014 118.228
vn -1 -6.60122e-016 -4.45521e-016
v 11.7399 5.656 -30.7121
vt -70.6282 87.2047
vt -5.1932e-014 -2.01035e-014
f 28/62/17 29/63/17 17/64/17

vt -104.675 118.228
f 29/63/17 28/62/17 25/65/17

usemtl BackColor
vn 1 6.60122e-016 4.45521e-016
f 17/64/18 29/63/18 28/62/18

usemtl Color_D03
v 11.7399 3.441 -30.7121
vt -70.6282 -7.69469e-014
f 30/66/17 17/64/17 29/63/17

usemtl _Tile_Ceramic_Natural_15
vt 17.1943 29.9177
f 20/34/9 17/31/9 30/67/9

usemtl BackColor
vt 116.565 70.6282
f 30/68/10 17/53/10 20/52/10

f 29/63/18 17/64/18 30/66/18

usemtl _Tile_Ceramic_Natural_15
v 11.7399 3.441 -31.4294
vt 17.1943 30.4264
f 20/34/9 30/67/9 31/69/9

usemtl BackColor
vt 116.565 98.8697
f 31/70/10 30/68/10 20/52/10

usemtl Color_D03
vt -98.8697 -7.69469e-014
vt -104.675 -2.01035e-014
f 31/71/17 25/65/17 20/72/17

v 11.7399 5.656 -31.4294
vt -98.8697 87.2047
f 32/73/17 25/65/17 31/71/17

f 29/63/17 25/65/17 32/73/17

usemtl BackColor
f 25/65/18 28/62/18 29/63/18

f 32/73/18 25/65/18 29/63/18

f 31/71/18 25/65/18 32/73/18

f 20/72/18 25/65/18 31/71/18

f 27/43/12 18/55/12 26/56/12

usemtl Color_D03
vt -17.7825 5.6768e-014
vt -10.6439 118.228
f 18/74/15 23/75/15 27/58/15

vt -10.6439 5.6768e-014
f 23/75/15 18/74/15 22/76/15

usemtl BackColor
f 22/76/16 18/74/16 23/75/16

f 27/58/16 23/75/16 18/74/16

f 24/50/14 25/49/14 21/48/14

f 16/40/12 23/43/12 13/44/12

g Mesh6 DES035 Model

l 22 21

l 18 22

l 19 18

l 19 17

l 19 26

l 26 28

l 26 27

l 27 23

l 18 27

l 22 23

l 23 24

l 21 24

l 20 21

l 20 31

l 20 25

l 25 28

l 25 24

l 17 28

l 30 17

l 31 30

l 31 32

l 29 32

l 29 30

g Mesh7 DES035 Model

l 14 15

l 13 14

l 16 13

l 15 16

