# Alias OBJ Model File
# Exported from SketchUp, (c) 2000-2012 Trimble Navigation Limited
# File units = meters

mtllib DES033.mtl

g Mesh1 Group1 DES033 Model

usemtl FrontColor
v 8.77911 5.54416 -35.9811
vt 0 39.7244
vn -1 0 -0
v 8.77911 5.48296 -36.0229
vt -1.64622 37.3149
v 8.77911 4.53516 -35.9811
vt 0 0
f 1/1/1 2/2/1 3/3/1

v 8.77911 5.54416 -36.9901
vt -39.7244 39.7244
f 2/2/1 1/1/1 4/4/1

usemtl BackColor
vn 1 -0 0
f 3/3/2 2/2/2 1/1/2

usemtl FrontColor
v 8.77911 4.60396 -36.0229
vt -1.64622 2.70857
f 5/5/1 3/3/1 2/2/1

v 8.77911 4.53516 -36.9901
vt -39.7244 0
f 3/3/1 5/5/1 6/6/1

usemtl BackColor
f 6/6/2 5/5/2 3/3/2

usemtl FrontColor
v 8.77911 4.60396 -36.9349
vt -37.5517 2.70857
f 6/6/1 5/5/1 7/7/1

usemtl BackColor
f 7/7/2 5/5/2 6/6/2

usemtl _7
v 9.04946 4.60396 -36.9349
vt -0.339165 13.4809
vn 0 -1 -0
vt -0.2509 13.2936
vt -0.2509 13.4809
f 8/8/3 5/9/3 7/10/3

v 9.04946 4.60396 -36.0229
vt -0.339165 13.2936
f 5/9/3 8/8/3 9/11/3

usemtl BackColor
vt 0 37.5517
vn -0 1 0
vt 0 1.64622
vt -10.6439 37.5517
f 7/12/4 5/13/4 8/14/4

usemtl Translucent_Glass_Blue
v 8.77911 5.48296 -36.9349
vt -37.5517 37.3149
f 5/5/1 10/15/1 7/7/1

f 10/15/1 5/5/1 2/2/1

f 2/2/2 5/5/2 10/15/2

usemtl BackColor
f 2/2/2 3/3/2 5/5/2

usemtl Translucent_Glass_Blue
f 7/7/2 10/15/2 5/5/2

usemtl FrontColor
f 10/15/1 4/4/1 7/7/1

f 2/2/1 4/4/1 10/15/1

usemtl BackColor
f 4/4/2 1/1/2 2/2/2

f 10/15/2 4/4/2 2/2/2

f 7/7/2 4/4/2 10/15/2

usemtl FrontColor
f 6/6/1 7/7/1 4/4/1

usemtl BackColor
f 4/4/2 7/7/2 6/6/2

usemtl _7
vt -0.2509 7.02057
vn 0 0 -1
vt -0.339165 6.84002
vt -0.2509 6.84002
f 10/16/5 8/17/5 7/18/5

v 9.04946 5.48296 -36.9349
vt -0.339165 7.02057
f 8/17/5 10/16/5 11/19/5

usemtl BackColor
vt 0 2.70857
vn -0 -0 1
vt -10.6439 2.70857
vt 0 37.3149
f 7/20/6 8/21/6 10/22/6

vt -10.6439 37.3149
f 11/23/6 10/22/6 8/21/6

usemtl Translucent_Glass_Blue
v 9.04946 5.48296 -36.0229
vt 1.64622 37.3149
vn 1 0 -0
vt 37.5517 2.70857
vt 37.5517 37.3149
f 12/24/7 8/25/7 11/26/7

vt 1.64622 2.70857
f 8/25/7 12/24/7 9/27/7

vn -1 -0 0
f 9/27/8 12/24/8 8/25/8

usemtl FrontColor
v 9.04946 5.54416 -35.9811
f 12/24/7 13/1/7 9/27/7

v 9.04946 5.54416 -36.9901
vt 39.7244 39.7244
f 13/1/7 12/24/7 14/28/7

usemtl BackColor
f 14/28/8 12/24/8 13/1/8

usemtl FrontColor
f 14/28/7 12/24/7 11/26/7

usemtl BackColor
f 11/26/8 12/24/8 14/28/8

usemtl Translucent_Glass_Blue
f 11/26/8 8/25/8 12/24/8

usemtl FrontColor
v 9.04946 4.53516 -36.9901
vt 39.7244 0
f 8/25/7 15/29/7 11/26/7

f 9/27/7 15/29/7 8/25/7

v 9.04946 4.53516 -35.9811
f 9/27/7 16/3/7 15/29/7

f 16/3/7 9/27/7 13/1/7

usemtl BackColor
f 13/1/8 9/27/8 16/3/8

f 9/27/8 13/1/8 12/24/8

f 15/29/8 16/3/8 9/27/8

f 8/25/8 15/29/8 9/27/8

f 11/26/8 15/29/8 8/25/8

usemtl FrontColor
f 14/28/7 11/26/7 15/29/7

usemtl BackColor
f 15/29/8 11/26/8 14/28/8

vt -10.6439 1.64622
f 9/30/4 8/14/4 5/13/4

g Mesh2 Group1 DES033 Model

l 1 4

l 3 1

l 3 6

l 4 6

g Mesh3 Group1 DES033 Model

l 10 2

l 7 10

l 5 7

l 2 5

l 5 9

l 9 8

l 12 9

l 11 12

l 10 11

l 8 11

l 7 8

g Mesh4 Group1 DES033 Model

l 15 16

l 14 15

l 14 13

l 13 16

g Mesh5 DES033 Model

usemtl _Tile_Ceramic_Natural_15
v 11.7399 3.441 -34.4005
vt 17.1943 32.5336
vn 6.57387e-016 1 -6.9912e-017
v 9.04946 3.441 -37.4548
vt 15.2862 34.6997
v 9.04946 3.441 -34.4005
vt 15.2862 32.5336
f 17/31/9 18/32/9 19/33/9

v 11.7399 3.441 -37.4548
vt 17.1943 34.6997
f 18/32/9 17/31/9 20/34/9

usemtl BackColor
vt 10.6439 -6.45024e-030
vn -6.57387e-016 -1 6.9912e-017
vt 10.6439 120.247
vt 116.565 -7.34425e-030
f 19/35/10 18/36/10 17/37/10

usemtl Color_D03
vt 62.2273 43.0772
vt 0 8.52651e-014
vt 120.247 8.52651e-014
f 16/38/7 19/39/7 18/40/7

v 9.04946 6.444 -34.4005
vt 0 118.228
f 19/39/7 16/38/7 21/41/7

usemtl BackColor
f 21/41/8 16/38/8 19/39/8

usemtl Color_D03
vt 62.2273 82.8016
f 13/42/7 21/41/7 16/38/7

v 9.04946 6.444 -37.4548
vt 120.247 118.228
f 21/41/7 13/42/7 22/43/7

usemtl BackColor
f 22/43/8 13/42/8 21/41/8

usemtl Color_D03
vt 101.952 82.8016
f 22/43/7 13/42/7 14/44/7

usemtl BackColor
f 14/44/8 13/42/8 22/43/8

usemtl Color_D03
f 22/43/7 14/44/7 18/40/7

usemtl BackColor
f 18/40/8 14/44/8 22/43/8

usemtl Color_D03
vt 101.952 43.0772
f 15/45/7 18/40/7 14/44/7

f 16/38/7 18/40/7 15/45/7

usemtl BackColor
f 18/40/8 19/39/8 16/38/8

f 15/45/8 18/40/8 16/38/8

f 14/44/8 18/40/8 15/45/8

usemtl Color_D03
vt 10.6439 8.52651e-014
vn 0 0 1
v 11.6624 6.444 -37.4548
vt 113.516 118.228
vt 10.6439 118.228
f 18/46/11 23/47/11 22/48/11

v 11.7399 6.444 -37.4548
vt 116.565 118.228
f 18/46/11 24/49/11 23/47/11

vt 116.565 2.84217e-014
f 24/49/11 18/46/11 20/50/11

usemtl BackColor
vn -0 -0 -1
f 20/50/12 18/46/12 24/49/12

vt 116.565 120.247
f 20/51/10 17/37/10 18/36/10

usemtl _Tile_Ceramic_Natural_15
v 11.7399 3.441 -36.5868
vt 17.1943 34.0842
f 20/34/9 17/31/9 25/52/9

usemtl BackColor
vt 116.565 86.076
f 25/53/10 17/37/10 20/51/10

usemtl Color_D03
vt -86.076 -2.52152e-014
vn -1 -2.16319e-016 -1.39824e-016
vt -1.62986e-014 3.20654e-015
v 11.7399 5.656 -36.5868
vt -86.076 87.2047
f 25/54/13 17/55/13 26/56/13

usemtl BackColor
vn 1 2.16319e-016 1.39824e-016
f 26/56/14 17/55/14 25/54/14

usemtl Color_D03
v 11.7399 6.444 -34.4005
vt -1.62986e-014 118.228
f 27/57/13 26/56/13 17/55/13

vt -120.247 118.228
f 26/56/13 27/57/13 24/58/13

usemtl BackColor
f 17/55/14 26/56/14 27/57/14

f 24/58/14 27/57/14 26/56/14

usemtl Color_D03
v 11.7399 5.656 -37.3369
vt -115.606 87.2047
f 26/56/13 24/58/13 28/59/13

usemtl BackColor
f 28/59/14 24/58/14 26/56/14

usemtl Color_D03
v 11.7399 3.441 -37.3369
vt -115.606 -2.52152e-014
f 28/59/13 24/58/13 29/60/13

usemtl BackColor
f 29/60/14 24/58/14 28/59/14

usemtl Color_D03
vt -120.247 3.20654e-015
f 29/60/13 24/58/13 20/61/13

usemtl BackColor
f 20/61/14 24/58/14 29/60/14

usemtl _Tile_Ceramic_Natural_15
vt 17.1943 34.6161
f 20/34/9 25/52/9 29/62/9

usemtl BackColor
vt 116.565 115.606
f 29/63/10 25/53/10 20/51/10

usemtl Color_D03
vt -10.6439 8.52651e-014
vn 9.16945e-033 1.70862e-017 -1
vt -116.565 118.228
vt -116.565 2.84217e-014
f 19/64/15 27/65/15 17/66/15

vt -10.6439 118.228
f 27/65/15 19/64/15 21/67/15

usemtl BackColor
vn -9.16945e-033 -1.70862e-017 1
f 17/66/16 27/65/16 19/64/16

f 21/67/16 19/64/16 27/65/16

f 23/47/12 24/49/12 18/46/12

f 22/48/12 23/47/12 18/46/12

f 16/38/8 21/41/8 13/42/8

g Mesh6 DES033 Model

l 19 18

l 17 19

l 25 17

l 29 25

l 20 29

l 18 20

l 18 22

l 22 23

l 21 22

l 19 21

l 27 21

l 17 27

l 24 27

l 20 24

l 23 24

l 29 28

l 26 28

l 26 25

g Mesh7 DES033 Model

l 15 16

l 14 15

l 14 13

l 13 16

