# Alias OBJ Model File
# Exported from SketchUp, (c) 2000-2012 Trimble Navigation Limited
# File units = meters

mtllib DES049.mtl

g Mesh1 Group1 DES049 Model

usemtl Translucent_Glass_Blue
v 17.2072 4.60396 -19.6727
vt 37.5517 2.70857
vn 1 0 -0
v 17.2072 5.48296 -18.7607
vt 1.64622 37.3149
v 17.2072 4.60396 -18.7607
vt 1.64622 2.70857
f 1/1/1 2/2/1 3/3/1

v 17.2072 5.48296 -19.6727
vt 37.5517 37.3149
f 2/2/1 1/1/1 4/4/1

vn -1 -0 0
f 3/3/2 2/2/2 1/1/2

usemtl FrontColor
v 17.2072 5.54416 -18.7189
vt 0 39.7244
f 2/2/1 5/5/1 3/3/1

v 17.2072 5.54416 -19.7279
vt 39.7244 39.7244
f 5/5/1 2/2/1 6/6/1

usemtl BackColor
f 6/6/2 2/2/2 5/5/2

usemtl FrontColor
f 6/6/1 2/2/1 4/4/1

usemtl BackColor
f 4/4/2 2/2/2 6/6/2

usemtl Translucent_Glass_Blue
f 4/4/2 1/1/2 2/2/2

usemtl FrontColor
v 17.2072 4.53516 -19.7279
vt 39.7244 0
f 1/1/1 7/7/1 4/4/1

f 3/3/1 7/7/1 1/1/1

v 17.2072 4.53516 -18.7189
vt 0 0
f 3/3/1 8/8/1 7/7/1

f 8/8/1 3/3/1 5/5/1

usemtl BackColor
f 5/5/2 3/3/2 8/8/2

f 3/3/2 5/5/2 2/2/2

usemtl _7
vt 8.23304 6.65269
vn 0 0 -1
v 16.6456 5.48296 -18.7607
vt 8.0497 6.47214
vt 8.23304 6.47214
f 3/9/3 9/10/3 2/11/3

v 16.6456 4.60396 -18.7607
vt 8.0497 6.65269
f 9/10/3 3/9/3 10/12/3

usemtl BackColor
vt -5.68434e-013 2.70857
vn -0 -0 1
vt -22.1094 2.70857
vt -5.68434e-013 37.3149
f 10/13/4 3/14/4 9/15/4

usemtl _7
vn 0 1 -0
v 16.6456 4.60396 -19.6727
vt 8.0497 6.84002
f 3/9/5 11/16/5 10/12/5

vt 8.23304 6.84002
f 11/16/5 3/9/5 1/17/5

usemtl BackColor
vt 5.68434e-013 1.64622
vn -0 -1 0
vt 5.68434e-013 37.5517
vt 22.1094 1.64622
f 10/18/6 11/19/6 3/20/6

usemtl FrontColor
v 16.6456 4.53516 -19.7279
vt -39.7244 0
vn -1 0 -0
vt -1.64622 2.70857
vt -37.5517 2.70857
f 12/21/7 10/22/7 11/23/7

v 16.6456 4.53516 -18.7189
f 13/8/7 10/22/7 12/21/7

vt -1.64622 37.3149
f 10/22/7 13/8/7 9/24/7

usemtl BackColor
vn 1 -0 0
f 12/21/8 10/22/8 13/8/8

f 11/23/8 10/22/8 12/21/8

usemtl Translucent_Glass_Blue
v 16.6456 5.48296 -19.6727
vt -37.5517 37.3149
f 10/22/7 14/25/7 11/23/7

f 14/25/7 10/22/7 9/24/7

f 9/24/8 10/22/8 14/25/8

usemtl BackColor
f 9/24/8 13/8/8 10/22/8

usemtl FrontColor
v 16.6456 5.54416 -18.7189
f 15/5/7 9/24/7 13/8/7

v 16.6456 5.54416 -19.7279
vt -39.7244 39.7244
f 9/24/7 15/5/7 16/26/7

usemtl BackColor
f 13/8/8 9/24/8 15/5/8

f 16/26/8 15/5/8 9/24/8

usemtl FrontColor
f 9/24/7 16/26/7 14/25/7

usemtl BackColor
f 14/25/8 16/26/8 9/24/8

usemtl FrontColor
f 14/25/7 16/26/7 11/23/7

usemtl BackColor
f 11/23/8 16/26/8 14/25/8

usemtl FrontColor
f 12/21/7 11/23/7 16/26/7

usemtl BackColor
f 16/26/8 11/23/8 12/21/8

usemtl Translucent_Glass_Blue
f 11/23/8 14/25/8 10/22/8

usemtl _7
vn 0 0 1
vt 8.23304 7.02057
vt 8.0497 7.02057
f 11/16/9 4/27/9 14/28/9

f 4/27/9 11/16/9 1/17/9

usemtl BackColor
vt 22.1094 2.70857
vn -0 -0 -1
vt 5.68434e-013 2.70857
vt 22.1094 37.3149
f 1/29/10 11/30/10 4/31/10

vt 22.1094 37.5517
f 1/32/6 3/20/6 11/19/6

f 1/1/2 7/7/2 3/3/2

f 4/4/2 7/7/2 1/1/2

usemtl FrontColor
f 6/6/1 4/4/1 7/7/1

usemtl BackColor
f 7/7/2 4/4/2 6/6/2

f 7/7/2 8/8/2 3/3/2

vt 5.68434e-013 37.3149
f 14/33/10 4/31/10 11/30/10

usemtl _7
vt 8.23304 6.28481
vn 0 -1 -0
vt 8.0497 6.28481
f 4/34/11 9/10/11 14/35/11

f 9/10/11 4/34/11 2/11/11

usemtl BackColor
vt -5.68434e-013 37.5517
vn -0 1 0
vt -5.68434e-013 1.64622
vt -22.1094 37.5517
f 14/36/12 9/37/12 4/38/12

vt -22.1094 1.64622
f 2/39/12 4/38/12 9/37/12

vt -22.1094 37.3149
f 2/40/4 9/15/4 3/14/4

g Mesh2 Group1 DES049 Model

l 14 9

l 11 14

l 10 11

l 9 10

l 2 9

l 4 2

l 4 14

l 1 4

l 1 11

l 3 1

l 3 10

l 2 3

g Mesh3 Group1 DES049 Model

l 5 8

l 6 5

l 6 7

l 7 8

g Mesh4 Group1 DES049 Model

l 15 13

l 16 15

l 16 12

l 12 13

g Mesh5 DES049 Model

usemtl _Tile_Ceramic_Natural_15
v 16.6456 3.441 -17.3877
vt 20.6736 20.4677
vn 3.65285e-016 1 -4.27315e-016
v 13.5406 3.441 -18.5088
vt 18.4714 21.2629
v 13.5406 3.441 -17.3877
vt 18.4714 20.4677
f 17/41/13 18/42/13 19/43/13

v 13.5406 3.441 -19.2702
vt 18.4714 21.8028
f 18/42/13 17/41/13 20/44/13

usemtl BackColor
vt -4.15281e-029 -4.85801e-029
vn -3.65285e-016 -1 4.27315e-016
vt -7.26743e-029 44.1392
vt 122.247 -6.76618e-029
f 19/45/14 18/46/14 17/47/14

usemtl Color_D03
vt 44.1392 1.98952e-013
v 13.5406 6.444 -17.3877
vt 2.27374e-013 118.228
vt 0 1.13687e-013
f 18/48/1 21/49/1 19/50/1

v 13.5406 5.656 -18.5088
vt 44.1392 87.2047
f 21/49/1 18/48/1 22/51/1

usemtl BackColor
f 19/50/2 21/49/2 18/48/2

usemtl Color_D03
vt 1.63095e-044 118.228
vn 7.17298e-032 -1.92317e-015 -1
vt -122.247 1.13687e-013
f 21/52/15 17/53/15 19/50/15

v 16.6456 6.444 -17.3877
vt -122.247 118.228
f 17/53/15 21/52/15 23/54/15

usemtl BackColor
vn -7.17298e-032 1.92317e-015 1
f 19/50/16 17/53/16 21/52/16

f 23/54/16 21/52/16 17/53/16

usemtl Color_D03
v 13.6534 6.444 -17.3877
vt -4.44053 118.228
f 23/54/15 21/52/15 24/55/15

usemtl BackColor
f 24/55/16 21/52/16 23/54/16

usemtl Color_D03
vt -52.4084 43.0772
vn -1 -5.72787e-017 3.3637e-032
vt 4.11202e-030 1.06685e-013
vt -2.27374e-013 118.228
f 13/56/17 17/57/17 23/58/17

v 16.6456 3.441 -19.8463
vt -96.7955 4.98413e-014
f 17/57/17 13/56/17 25/59/17

usemtl BackColor
vn 1 5.72787e-017 -3.3637e-032
f 25/59/18 13/56/18 17/57/18

usemtl Color_D03
vt -92.1328 43.0772
f 25/59/17 13/56/17 12/60/17

usemtl BackColor
f 12/60/18 13/56/18 25/59/18

usemtl Color_D03
v 16.6456 6.444 -19.8463
vt -96.7955 118.228
f 12/60/17 26/61/17 25/59/17

vt -92.1328 82.8016
f 16/62/17 26/61/17 12/60/17

vt -52.4084 82.8016
f 15/63/17 26/61/17 16/62/17

f 26/61/17 15/63/17 23/58/17

usemtl BackColor
f 23/58/18 15/63/18 26/61/18

usemtl Color_D03
f 13/56/17 23/58/17 15/63/17

usemtl BackColor
f 23/58/18 17/57/18 13/56/18

f 15/63/18 23/58/18 13/56/18

f 16/62/18 26/61/18 15/63/18

f 12/60/18 26/61/18 16/62/18

f 25/59/18 26/61/18 12/60/18

usemtl Color_D03
v 13.5406 6.444 -19.8463
vt -5.18778e-029 118.228
vn -5.35953e-031 1.92317e-015 1
vt 122.247 2.42998e-013
vt 122.247 118.228
f 27/64/19 25/65/19 26/66/19

v 13.5406 3.441 -19.8463
vt -5.18778e-029 2.14576e-013
f 28/67/19 25/65/19 27/64/19

v 14.3879 3.441 -19.8463
vt 33.3584 1.86155e-013
f 25/65/19 28/67/19 29/68/19

usemtl BackColor
vn 5.35953e-031 -1.92317e-015 -1
f 29/68/20 28/67/20 25/65/20

usemtl _Tile_Ceramic_Natural_15
vt 18.4714 22.2114
vt 19.0723 22.2114
f 28/69/13 17/41/13 29/70/13

f 20/44/13 17/41/13 28/69/13

usemtl BackColor
vt -7.26743e-029 74.1135
f 20/71/14 17/47/14 18/46/14

vt -1.0382e-029 96.7955
f 28/72/14 17/47/14 20/71/14

vt 33.3584 96.7955
f 29/73/14 17/47/14 28/72/14

usemtl _Tile_Ceramic_Natural_15
vt 20.6736 22.2114
f 29/70/13 17/41/13 25/74/13

usemtl BackColor
vt 122.247 96.7955
f 25/75/14 17/47/14 29/73/14

usemtl Color_D03
vt 96.7955 2.84217e-014
v 13.5406 5.656 -19.2702
vt 74.1135 87.2047
vt 74.1135 1.98952e-013
f 28/76/1 30/77/1 20/78/1

vt 96.7955 118.228
f 27/79/1 30/77/1 28/76/1

f 27/79/1 22/51/1 30/77/1

f 21/49/1 22/51/1 27/79/1

usemtl BackColor
f 22/51/2 18/48/2 21/49/2

f 27/79/2 22/51/2 21/49/2

f 30/77/2 22/51/2 27/79/2

f 28/76/2 30/77/2 27/79/2

f 20/78/2 30/77/2 28/76/2

f 27/64/20 25/65/20 28/67/20

f 26/66/20 25/65/20 27/64/20

g Mesh6 DES049 Model

l 29 25

l 28 29

l 28 20

l 28 27

l 27 21

l 27 26

l 25 26

l 25 17

l 19 17

l 18 19

l 20 18

l 30 20

l 22 30

l 18 22

l 19 21

l 24 21

l 24 23

l 17 23

l 26 23

g Mesh7 DES049 Model

l 16 15

l 12 16

l 13 12

l 15 13

