# Alias OBJ Model File
# Exported from SketchUp, (c) 2000-2012 Trimble Navigation Limited
# File units = meters

mtllib DES018.mtl

g Mesh1 Group1 DES018 Model

usemtl FrontColor
v 29.3705 5.54416 -30.2459
vt 0 39.7244
vn -1 0 -0
v 29.3705 5.48296 -30.2877
vt -1.64622 37.3149
v 29.3705 4.53516 -30.2459
vt 0 0
f 1/1/1 2/2/1 3/3/1

v 29.3705 5.54416 -31.2549
vt -39.7244 39.7244
f 2/2/1 1/1/1 4/4/1

usemtl BackColor
vn 1 -0 0
f 3/3/2 2/2/2 1/1/2

usemtl FrontColor
v 29.3705 4.60396 -30.2877
vt -1.64622 2.70857
f 5/5/1 3/3/1 2/2/1

v 29.3705 4.53516 -31.2549
vt -39.7244 0
f 3/3/1 5/5/1 6/6/1

usemtl BackColor
f 6/6/2 5/5/2 3/3/2

usemtl FrontColor
v 29.3705 4.60396 -31.1997
vt -37.5517 2.70857
f 6/6/1 5/5/1 7/7/1

usemtl BackColor
f 7/7/2 5/5/2 6/6/2

usemtl Translucent_Glass_Blue
v 29.3705 5.48296 -31.1997
vt -37.5517 37.3149
f 5/5/1 8/8/1 7/7/1

f 8/8/1 5/5/1 2/2/1

f 2/2/2 5/5/2 8/8/2

usemtl BackColor
f 2/2/2 3/3/2 5/5/2

usemtl _7
vt 8.0497 6.47214
vn 0 0 -1
v 29.8188 4.60396 -30.2877
vt 8.19607 6.65269
vt 8.0497 6.65269
f 2/9/3 9/10/3 5/11/3

v 29.8188 5.48296 -30.2877
vt 8.19607 6.47214
f 9/10/3 2/9/3 10/12/3

usemtl BackColor
vt -6.82121e-013 2.70857
vn -0 -0 1
vt -17.6503 2.70857
vt -6.82121e-013 37.3149
f 5/13/4 9/14/4 2/15/4

usemtl _7
vn 0 1 -0
vt 8.0497 6.84002
f 9/10/5 7/16/5 5/11/5

v 29.8188 4.60396 -31.1997
vt 8.19607 6.84002
f 7/16/5 9/10/5 11/17/5

usemtl BackColor
vt 6.82121e-013 1.64622
vn -0 -1 0
vt 6.82121e-013 37.5517
vt 17.6503 1.64622
f 5/18/6 7/19/6 9/20/6

usemtl Translucent_Glass_Blue
f 7/7/2 8/8/2 5/5/2

usemtl FrontColor
f 8/8/1 4/4/1 7/7/1

f 2/2/1 4/4/1 8/8/1

usemtl BackColor
f 4/4/2 1/1/2 2/2/2

f 8/8/2 4/4/2 2/2/2

f 7/7/2 4/4/2 8/8/2

usemtl FrontColor
f 6/6/1 7/7/1 4/4/1

usemtl BackColor
f 4/4/2 7/7/2 6/6/2

usemtl _7
vn 0 0 1
v 29.8188 5.48296 -31.1997
vt 8.19607 7.02057
vt 8.0497 7.02057
f 7/16/7 12/21/7 8/22/7

f 12/21/7 7/16/7 11/17/7

usemtl BackColor
vt 17.6503 2.70857
vn -0 -0 -1
vt 6.82121e-013 2.70857
vt 17.6503 37.3149
f 11/23/8 7/24/8 12/25/8

vt 17.6503 37.5517
f 11/26/6 9/20/6 7/19/6

usemtl Translucent_Glass_Blue
vt 37.5517 2.70857
vn 1 0 -0
vt 1.64622 37.3149
vt 1.64622 2.70857
f 11/27/9 10/28/9 9/29/9

vt 37.5517 37.3149
f 10/28/9 11/27/9 12/30/9

vn -1 -0 0
f 9/29/10 10/28/10 11/27/10

usemtl BackColor
vt -17.6503 37.3149
f 10/31/4 2/15/4 9/14/4

usemtl _7
vn 0 -1 -0
vt 8.19607 6.28481
f 2/9/11 12/32/11 10/12/11

vt 8.0497 6.28481
f 12/32/11 2/9/11 8/33/11

usemtl BackColor
vt -6.82121e-013 37.5517
vn -0 1 0
vt -6.82121e-013 1.64622
vt -17.6503 37.5517
f 8/34/12 2/35/12 12/36/12

vt -17.6503 1.64622
f 10/37/12 12/36/12 2/35/12

usemtl Translucent_Glass_Blue
f 12/30/10 11/27/10 10/28/10

usemtl FrontColor
v 29.8188 4.53516 -31.2549
vt 39.7244 0
f 11/27/9 13/38/9 12/30/9

f 9/29/9 13/38/9 11/27/9

v 29.8188 4.53516 -30.2459
f 9/29/9 14/3/9 13/38/9

v 29.8188 5.54416 -30.2459
f 14/3/9 9/29/9 15/1/9

usemtl BackColor
f 15/1/10 9/29/10 14/3/10

usemtl FrontColor
f 10/28/9 15/1/9 9/29/9

v 29.8188 5.54416 -31.2549
vt 39.7244 39.7244
f 15/1/9 10/28/9 16/39/9

usemtl BackColor
f 16/39/10 10/28/10 15/1/10

usemtl FrontColor
f 16/39/9 10/28/9 12/30/9

usemtl BackColor
f 12/30/10 10/28/10 16/39/10

usemtl FrontColor
f 16/39/9 12/30/9 13/38/9

usemtl BackColor
f 13/38/10 12/30/10 16/39/10

f 12/30/10 13/38/10 11/27/10

f 11/27/10 13/38/10 9/29/10

f 13/38/10 14/3/10 9/29/10

f 9/29/10 15/1/10 10/28/10

vt 6.82121e-013 37.3149
f 8/40/8 12/25/8 7/24/8

g Mesh2 Group1 DES018 Model

l 4 1

l 6 4

l 3 6

l 1 3

g Mesh3 Group1 DES018 Model

l 2 8

l 5 2

l 7 5

l 8 7

l 12 8

l 12 10

l 11 12

l 9 11

l 10 9

l 10 2

l 9 5

l 11 7

g Mesh4 Group1 DES018 Model

l 14 15

l 13 14

l 16 13

l 15 16

g Mesh5 DES018 Model

usemtl _Tile_Ceramic_Natural_15
v 29.8188 3.441 -29.2739
vt 30.0163 28.8977
vn -7.59956e-016 1 2.9995e-016
v 33.1166 3.441 -32.0812
vt 32.3551 30.8887
v 29.8188 3.441 -32.0812
vt 30.0163 30.8887
f 17/41/13 18/42/13 19/43/13

v 32.1026 3.441 -29.2739
vt 31.636 28.8977
f 18/42/13 17/41/13 20/44/13

usemtl BackColor
vt 17.6503 110.522
vn 7.59956e-016 -1 -2.9995e-016
vt 147.482 110.522
vt 17.6503 -4.02336e-030
f 19/45/14 18/46/14 17/47/14

usemtl Color_D03
vt 147.482 1.42109e-013
v 29.8188 3.451 -32.0812
vt 17.6503 0.393701
vt 17.6503 2.84217e-014
f 18/48/7 21/49/7 19/50/7

v 33.1166 6.444 -32.0812
vt 147.482 118.228
f 21/49/7 18/48/7 22/51/7

usemtl BackColor
f 19/50/8 21/49/8 18/48/8

usemtl Color_D03
v 29.8188 6.444 -32.0812
vt 110.522 118.228
vn 1 5.54722e-032 -2.05727e-015
vt 110.522 2.84217e-014
vt 110.522 0.393701
f 23/52/15 19/53/15 21/54/15

vt 77.9925 82.8016
f 23/52/15 16/55/15 19/53/15

vt 38.2681 82.8016
f 23/52/15 15/56/15 16/55/15

v 29.8188 6.444 -29.2739
vt -3.63114e-014 118.228
f 24/57/15 15/56/15 23/52/15

vt 38.2681 43.0772
f 15/56/15 24/57/15 14/58/15

usemtl BackColor
vn -1 -5.54722e-032 2.05727e-015
f 23/52/16 15/56/16 24/57/16

f 16/55/16 15/56/16 23/52/16

f 19/53/16 16/55/16 23/52/16

usemtl Color_D03
vt 77.9925 43.0772
f 13/59/15 19/53/15 16/55/15

f 14/58/15 19/53/15 13/59/15

vt -3.63114e-014 -9.79101e-031
f 14/58/15 17/60/15 19/53/15

f 17/60/15 14/58/15 24/57/15

usemtl BackColor
f 24/57/16 14/58/16 17/60/16

f 14/58/16 24/57/16 15/56/16

f 19/53/16 17/60/16 14/58/16

f 13/59/16 19/53/16 14/58/16

f 16/55/16 19/53/16 13/59/16

usemtl Color_D03
vt -17.6503 118.228
vn -1.0802e-032 1.70862e-017 -1
vt -107.563 5.68434e-014
vt -17.6503 3.25761e-048
f 24/61/17 20/62/17 17/63/17

v 32.1026 6.444 -29.2739
vt -107.563 118.228
f 20/62/17 24/61/17 25/64/17

usemtl BackColor
vn 1.0802e-032 -1.70862e-017 1
f 17/63/18 20/62/18 24/61/18

vt 107.563 -7.46868e-030
f 20/65/14 17/47/14 18/46/14

usemtl _Tile_Ceramic_Natural_15
v 33.1166 3.441 -30.0961
vt 32.3551 29.4808
f 18/42/13 20/44/13 26/66/13

usemtl BackColor
vt 147.482 32.3697
f 26/67/14 20/65/14 18/46/14

usemtl Color_D03
vt -83.5474 118.228
vn -0.629835 8.16939e-018 -0.776729
vt -134.941 1.1424e-013
vt -83.5474 5.73969e-014
f 25/68/19 26/69/19 20/70/19

v 33.1166 6.444 -30.0961
vt -134.941 118.228
f 26/69/19 25/68/19 27/71/19

usemtl BackColor
vn 0.629835 -8.16939e-018 0.776729
f 20/70/20 26/69/20 25/68/20

f 27/71/20 25/68/20 26/69/20

usemtl Color_D03
vt -32.3697 118.228
vn -1 -4.546e-015 -3.19544e-015
v 33.1166 5.656 -31.2162
vt -76.4686 87.2047
vt -32.3697 -5.56767e-013
f 27/72/21 28/73/21 26/74/21

vt -110.522 118.228
f 28/73/21 27/72/21 22/75/21

usemtl BackColor
vn 1 4.546e-015 3.19544e-015
f 26/74/22 28/73/22 27/72/22

usemtl Color_D03
v 33.1166 3.441 -31.2162
vt -76.4686 -5.56767e-013
f 29/76/21 26/74/21 28/73/21

usemtl _Tile_Ceramic_Natural_15
vt 32.3551 30.2752
f 18/42/13 26/66/13 29/77/13

usemtl BackColor
vt 147.482 76.4686
f 29/78/14 26/67/14 18/46/14

f 28/73/22 26/74/22 29/76/22

usemtl _Tile_Ceramic_Natural_15
v 33.1166 3.441 -31.9457
vt 32.3551 30.7926
f 18/42/13 29/77/13 30/79/13

usemtl BackColor
vt 147.482 105.188
f 30/80/14 29/78/14 18/46/14

usemtl Color_D03
vt -105.188 -5.56767e-013
vt -110.522 -5.28346e-013
f 30/81/21 22/75/21 18/82/21

v 33.1166 5.656 -31.9457
vt -105.188 87.2047
f 31/83/21 22/75/21 30/81/21

f 28/73/21 22/75/21 31/83/21

usemtl BackColor
f 22/75/22 27/72/22 28/73/22

f 31/83/22 22/75/22 28/73/22

f 30/81/22 22/75/22 31/83/22

f 18/82/22 22/75/22 30/81/22

f 22/51/8 18/48/8 21/49/8

usemtl Color_D03
v 29.9823 6.444 -32.0812
vt 24.0837 118.228
f 21/49/7 22/51/7 32/84/7

usemtl BackColor
f 32/84/8 22/51/8 21/49/8

usemtl Color_D03
v 32.784 6.444 -32.0812
vt 134.39 118.228
f 32/84/7 22/51/7 33/85/7

usemtl BackColor
f 33/85/8 22/51/8 32/84/8

usemtl Color_D03
vt 17.6503 118.228
f 23/86/7 21/49/7 32/84/7

usemtl BackColor
f 21/54/16 19/53/16 23/52/16

f 32/84/8 21/49/8 23/86/8

f 25/64/18 24/61/18 20/62/18

g Mesh6 DES018 Model

l 19 18

l 19 17

l 19 21

l 21 23

l 23 24

l 32 23

l 32 33

l 33 22

l 18 22

l 18 30

l 30 29

l 31 30

l 31 28

l 29 28

l 29 26

l 26 20

l 26 27

l 27 25

l 22 27

l 20 25

l 17 20

l 17 24

l 24 25

g Mesh7 DES018 Model

l 15 16

l 14 15

l 13 14

l 16 13

