# Alias OBJ Model File
# Exported from SketchUp, (c) 2000-2012 Trimble Navigation Limited
# File units = meters

mtllib DES014.mtl

g Mesh1 Group1 DES014 Model

usemtl Color_D03
v 41.9546 6.416 -41.0272
vt -16.3522 117.126
vn -0.707107 7.08297e-016 -0.707107
v 41.9115 3.441 -40.9711
vt -13.5669 4.90241e-014
vn -0.866025 1.09279e-015 -0.5
v 41.9115 6.416 -40.9711
vt -13.5669 117.126
f 1/1/1 2/2/2 3/3/2

v 41.9546 3.441 -41.0272
vt -16.3522 4.90241e-014
f 2/2/2 1/1/1 4/4/1

usemtl BackColor
vn 0.866025 -1.09279e-015 0.5
vn 0.707107 -7.08297e-016 0.707107
f 3/3/3 2/2/3 1/1/4

usemtl Color_D03
v 41.8844 3.441 -40.9057
vt -12.5475 5.07974e-014
vn -0.965926 1.40282e-015 -0.258819
vt -15.3327 117.126
vt -15.3327 5.07974e-014
f 5/5/5 3/6/2 2/7/2

v 41.8844 6.416 -40.9057
vt -12.5475 117.126
f 3/6/2 5/5/5 6/8/5

usemtl BackColor
vn 0.965926 -1.40282e-015 0.258819
f 6/8/6 5/5/6 3/6/3

usemtl Color_D03
v 41.8752 3.441 -40.8356
vt -10.578 5.47224e-014
vn -1 1.61725e-015 -0
vt -13.3633 117.126
vt -13.3633 5.47224e-014
f 7/9/7 6/10/5 5/11/5

v 41.8752 6.416 -40.8356
vt -10.578 117.126
f 6/10/5 7/9/7 8/12/7

usemtl BackColor
vn 1 -1.61725e-015 0
f 8/12/8 7/9/8 6/10/6

usemtl Color_D03
v 41.8844 3.441 -40.7655
vt -7.79277 5.91883e-014
vn -0.965926 1.72146e-015 0.258819
vt -10.578 5.91883e-014
f 9/13/9 8/12/7 7/14/7

v 41.8844 6.416 -40.7655
vt -7.79277 117.126
f 8/12/7 9/13/9 10/15/9

usemtl BackColor
vn 0.965926 -1.72146e-015 -0.258819
f 10/15/10 9/13/10 8/12/8

usemtl Color_D03
v 41.9115 3.441 -40.7001
vt -4.38156 6.26588e-014
vn -0.866025 1.70836e-015 0.5
vt -7.1668 117.126
vt -7.1668 6.26588e-014
f 11/16/11 10/17/9 9/18/9

v 41.9115 6.416 -40.7001
vt -4.38156 117.126
f 10/17/9 11/16/11 12/19/11

usemtl BackColor
vn 0.866025 -1.70836e-015 -0.5
f 12/19/12 11/16/12 10/17/10

usemtl Color_D03
v 41.9546 3.441 -40.644
vt -0.576843 6.41071e-014
vn -0.707107 1.57883e-015 0.707107
vt -3.36209 117.126
vt -3.36209 6.41071e-014
f 13/20/13 12/21/11 11/22/11

v 41.9546 6.416 -40.644
vt -0.576843 117.126
f 12/21/11 13/20/13 14/23/13

usemtl BackColor
vn 0.707107 -1.57883e-015 -0.707107
f 14/23/14 13/20/14 12/21/12

usemtl Color_D03
vt 0.576843 6.32969e-014
v 42.0107 6.416 -40.6009
vt 3.36209 117.126
vn -0.5 1.34172e-015 0.866025
vt 0.576843 117.126
f 13/24/13 15/25/15 14/26/13

v 42.0107 3.441 -40.6009
vt 3.36209 3.48752e-014
f 15/25/15 13/24/13 16/27/15

usemtl BackColor
vn 0.5 -1.34172e-015 -0.866025
f 16/27/16 13/24/14 15/25/16

f 14/26/14 15/25/16 13/24/14

usemtl _7
vt 10.5134 11.6979
vn 5.74395e-015 1 -1.59983e-015
vt 10.5134 11.6191
vt 10.5317 11.6103
f 1/28/17 14/29/17 15/30/17

vt 10.4993 11.6863
f 3/31/17 14/29/17 1/28/17

vt 10.4993 11.6307
f 3/31/17 12/32/17 14/29/17

vt 10.4905 11.6729
f 6/33/17 12/32/17 3/31/17

vt 10.4905 11.6441
f 6/33/17 10/34/17 12/32/17

vt 10.4875 11.6585
f 10/34/17 6/33/17 8/35/17

usemtl BackColor
vt -6.72766e-013 10.6693
vn -5.74395e-015 -1 1.59983e-015
vt 0.363547 13.4307
vt 0.363547 7.90788
f 8/36/18 6/37/18 10/38/18

vt 1.42941 5.33465
f 12/39/18 10/38/18 6/37/18

vt 1.42941 16.0039
f 3/40/18 12/39/18 6/37/18

vt 3.12496 3.12496
f 14/41/18 12/39/18 3/40/18

vt 3.12496 18.2136
f 1/42/18 14/41/18 3/40/18

vt 5.33465 1.42941
f 15/43/18 14/41/18 1/42/18

usemtl _7
v 42.0107 6.416 -41.0703
vt 10.5317 11.7067
f 1/28/17 15/30/17 17/44/17

usemtl BackColor
vt 5.33465 19.9092
f 17/45/18 15/43/18 1/42/18

usemtl _7
v 42.0434 6.416 -40.5874
vt 10.5424 11.6075
f 17/44/17 15/30/17 18/46/17

usemtl BackColor
vt 6.62126 0.896481
f 18/47/18 15/43/18 17/45/18

usemtl Color_D03
vt 4.38156 117.126
v 42.0761 6.416 -40.5738
vt 7.1668 117.126
vn -0.258819 1.01316e-015 0.965926
vt 5.77418 117.126
vn -0.382683 1.1876e-015 0.92388
f 15/48/15 19/49/19 18/50/20

v 42.0761 3.441 -40.5738
vt 7.1668 6.08362e-014
f 15/48/15 20/51/19 19/49/19

vt 4.38156 3.24145e-014
f 20/51/19 15/48/15 16/52/15

usemtl BackColor
vn 0.258819 -1.01316e-015 -0.965926
f 16/52/16 15/48/16 20/51/21

f 19/49/21 20/51/21 15/48/16

usemtl Color_D03
vt 7.79277 5.79873e-014
v 42.1462 6.416 -40.5646
vt 10.578 117.126
vn 0 6.15563e-016 1
vt 7.79277 117.126
f 20/53/19 21/54/22 19/55/19

v 42.1462 3.441 -40.5646
vt 10.578 5.79873e-014
f 21/54/22 20/53/19 22/56/22

usemtl BackColor
vn -0 -6.15563e-016 -1
f 22/56/23 20/53/21 21/54/23

f 19/55/21 21/54/23 20/53/21

usemtl _7
v 42.0761 6.416 -41.0974
vt 10.553 11.7123
vt 10.553 11.6047
vt 10.5759 11.6028
f 23/57/17 19/58/17 21/59/17

f 23/57/17 18/46/17 19/58/17

f 17/44/17 18/46/17 23/57/17

usemtl BackColor
vt 7.90788 20.975
f 23/60/18 18/47/18 17/45/18

vt 7.90788 0.363547
f 19/61/18 18/47/18 23/60/18

vn 0.382683 -1.1876e-015 -0.92388
f 18/50/24 19/49/21 15/48/16

vt 10.6693 -1.87381e-013
f 21/62/18 19/61/18 23/60/18

usemtl _7
v 42.1462 6.416 -41.1066
vt 10.5759 11.7142
f 23/57/17 21/59/17 24/63/17

usemtl BackColor
vt 10.6693 21.3386
f 24/64/18 21/62/18 23/60/18

usemtl _7
v 42.2163 6.416 -40.5738
vt 10.5988 11.6047
f 24/63/17 21/59/17 25/65/17

usemtl BackColor
vt 13.4307 0.363547
f 25/66/18 21/62/18 24/64/18

usemtl Color_D03
vt 10.578 5.62875e-014
vt 13.3633 117.126
vn 0.258819 1.76014e-016 0.965926
f 22/67/22 25/68/25 21/54/22

v 42.2163 3.441 -40.5738
vt 13.3633 5.62875e-014
f 25/68/25 22/67/22 26/69/25

usemtl BackColor
vn -0.258819 -1.76014e-016 -0.965926
f 26/69/26 22/67/23 25/68/26

f 21/54/23 25/68/26 22/67/23

usemtl Color_D03
vt 12.5475 5.70845e-014
v 42.2817 6.416 -40.6009
vt 15.3327 117.126
vn 0.5 -2.7553e-016 0.866025
vt 12.5475 117.126
f 26/70/25 27/71/27 25/72/25

v 42.2817 3.441 -40.6009
vt 15.3327 2.86628e-014
f 27/71/27 26/70/25 28/73/27

usemtl BackColor
vn -0.5 2.7553e-016 -0.866025
f 28/73/28 26/70/26 27/71/28

f 25/72/26 27/71/28 26/70/26

usemtl _7
v 42.2163 6.416 -41.0974
vt 10.5988 11.7123
vt 10.6202 11.6103
f 29/74/17 25/65/17 27/75/17

f 24/63/17 25/65/17 29/74/17

usemtl BackColor
vt 13.4307 20.975
f 29/76/18 25/66/18 24/64/18

vt 16.0039 1.42941
f 27/77/18 25/66/18 29/76/18

usemtl _7
v 42.2817 6.416 -41.0703
vt 10.6202 11.7067
f 29/74/17 27/75/17 30/78/17

usemtl BackColor
vt 16.0039 19.9092
f 30/79/18 27/77/18 29/76/18

usemtl _7
v 42.3378 6.416 -40.644
vt 10.6385 11.6191
f 30/78/17 27/75/17 31/80/17

usemtl BackColor
vt 18.2136 3.12496
f 31/81/18 27/77/18 30/79/18

usemtl Color_D03
vt 13.5669 3.26929e-014
vt 16.3522 117.126
vt 13.5669 117.126
f 28/82/27 31/83/4 27/84/27

v 42.3378 3.441 -40.644
vt 16.3522 3.26929e-014
f 31/83/4 28/82/27 32/85/4

usemtl BackColor
f 32/85/1 28/82/28 31/83/1

f 27/84/28 31/83/1 28/82/28

usemtl Color_D03
v 42.3809 3.441 -40.7001
vt 16.3522 3.98188e-014
vt 13.5669 3.98188e-014
f 33/86/3 31/84/4 32/87/4

v 42.3809 6.416 -40.7001
f 31/84/4 33/86/3 34/83/3

usemtl BackColor
f 32/87/1 31/84/1 33/86/2

f 34/83/2 33/86/2 31/84/1

usemtl Color_D03
v 42.408 3.441 -40.7655
vt 15.3327 4.90022e-014
vt 12.5475 4.90022e-014
f 35/88/6 34/72/3 33/89/3

v 42.408 6.416 -40.7655
f 34/72/3 35/88/6 36/71/6

usemtl BackColor
f 33/89/2 34/72/2 35/88/5

f 36/71/5 35/88/5 34/72/2

usemtl Color_D03
v 42.4172 3.441 -40.8356
vt 13.3633 5.85226e-014
vn 1 -1.61725e-015 -0
vt 10.578 5.85226e-014
f 37/90/29 36/54/6 35/91/6

v 42.4172 6.416 -40.8356
f 36/54/6 37/90/29 38/68/29

usemtl BackColor
vn -1 1.61725e-015 0
f 35/91/5 36/54/5 37/90/30

f 38/68/30 37/90/30 36/54/5

usemtl Color_D03
v 42.408 3.441 -40.9057
vt 10.578 6.63882e-014
vt 7.79277 6.63882e-014
f 39/92/10 38/55/29 37/93/29

v 42.408 6.416 -40.9057
f 38/55/29 39/92/10 40/54/10

usemtl BackColor
f 37/93/30 38/55/30 39/92/9

f 40/54/9 39/92/9 38/55/30

usemtl Color_D03
v 42.3809 3.441 -40.9711
vt 7.1668 7.08309e-014
vt 4.38156 7.08309e-014
f 41/94/12 40/48/10 39/95/10

v 42.3809 6.416 -40.9711
f 40/48/10 41/94/12 42/49/12

usemtl BackColor
f 39/95/9 40/48/9 41/94/11

f 42/49/11 41/94/11 40/48/9

usemtl Color_D03
v 42.3378 3.441 -41.0272
vt 3.36209 4.23357e-014
vt 0.576843 7.07574e-014
f 43/96/14 42/26/12 41/97/12

v 42.3378 6.416 -41.0272
f 42/26/12 43/96/14 44/25/14

usemtl BackColor
f 41/97/11 42/26/11 43/96/13

f 44/25/13 43/96/13 42/26/11

usemtl Color_D03
v 42.2817 3.441 -41.0703
vt -0.576843 6.60354e-014
vt -3.36209 3.76137e-014
f 45/98/16 44/21/14 43/99/14

f 44/21/14 45/98/16 30/23/16

usemtl BackColor
f 43/99/13 44/21/13 45/98/15

f 30/23/15 45/98/15 44/21/13

usemtl Color_D03
vt -7.1668 5.75394e-014
f 45/100/16 29/19/21 30/17/16

v 42.2163 3.441 -41.0974
vt -4.38156 5.75394e-014
f 29/19/21 45/100/16 46/101/21

usemtl BackColor
f 46/101/19 45/100/15 29/19/19

f 30/17/15 29/19/19 45/100/15

usemtl Color_D03
vt -10.578 4.69429e-014
vn 0 -6.15563e-016 -1
f 46/102/21 24/15/31 29/12/21

v 42.1462 3.441 -41.1066
vt -7.79277 4.69429e-014
f 24/15/31 46/102/21 47/103/31

usemtl BackColor
vn -0 6.15563e-016 1
f 47/103/32 46/102/19 24/15/32

f 29/12/19 24/15/32 46/102/19

usemtl Color_D03
vt -13.3633 3.63113e-014
f 47/104/31 23/12/26 24/10/31

v 42.0761 3.441 -41.0974
vt -10.578 3.63113e-014
f 23/12/26 47/104/31 48/105/26

usemtl BackColor
f 48/105/25 47/104/32 23/12/25

f 24/10/32 23/12/25 47/104/32

usemtl Color_D03
v 42.0107 3.441 -41.0703
vt -12.5475 5.60228e-014
vt -15.3327 2.7601e-014
f 49/106/28 23/6/26 48/107/26

f 23/6/26 49/106/28 17/8/28

usemtl BackColor
f 48/107/25 23/6/25 49/106/27

f 17/8/27 49/106/27 23/6/25

usemtl Color_D03
vt -16.3522 5.06179e-014
f 49/108/28 1/3/1 17/1/28

vt -13.5669 5.06179e-014
f 1/3/1 49/108/28 4/109/1

usemtl BackColor
f 4/109/4 49/108/27 1/3/4

f 17/1/27 1/3/4 49/108/27

f 4/4/4 1/1/4 2/2/3

usemtl _7
vt 10.6385 11.6979
f 30/78/17 31/80/17 44/110/17

usemtl BackColor
vt 18.2136 18.2136
f 44/111/18 31/81/18 30/79/18

usemtl _7
vt 10.6526 11.6307
f 44/110/17 31/80/17 34/112/17

usemtl BackColor
vt 19.9092 5.33465
f 34/113/18 31/81/18 44/111/18

usemtl _7
vt 10.6526 11.6863
f 44/110/17 34/112/17 42/114/17

usemtl BackColor
vt 19.9092 16.0039
f 42/115/18 34/113/18 44/111/18

usemtl _7
vt 10.6614 11.6441
f 42/114/17 34/112/17 36/116/17

usemtl BackColor
vt 20.975 7.90788
f 36/117/18 34/113/18 42/115/18

usemtl _7
vt 10.6614 11.6729
f 42/114/17 36/116/17 40/118/17

usemtl BackColor
vt 20.975 13.4307
f 40/119/18 36/117/18 42/115/18

usemtl _7
vt 10.6644 11.6585
f 40/118/17 36/116/17 38/120/17

usemtl BackColor
vt 21.3386 10.6693
f 38/121/18 36/117/18 40/119/18

f 11/22/12 12/21/12 13/20/14

f 9/18/10 10/17/10 11/16/12

f 7/14/8 8/12/8 9/13/10

f 5/11/6 6/10/6 7/9/8

f 2/7/3 3/6/3 5/5/6

g Mesh2 Group1 DES014 Model

l 4 2

l 49 4

l 48 49

l 47 48

l 46 47

l 45 46

l 43 45

l 41 43

l 39 41

l 37 39

l 35 37

l 33 35

l 32 33

l 28 32

l 26 28

l 22 26

l 20 22

l 16 20

l 13 16

l 11 13

l 9 11

l 7 9

l 5 7

l 2 5

g Mesh3 Group1 DES014 Model

l 1 3

l 17 1

l 23 17

l 24 23

l 29 24

l 30 29

l 44 30

l 42 44

l 40 42

l 38 40

l 36 38

l 34 36

l 31 34

l 27 31

l 25 27

l 21 25

l 19 21

l 18 19

l 15 18

l 14 15

l 12 14

l 10 12

l 8 10

l 6 8

l 3 6

g Mesh4 Group2 DES014 Model

usemtl FrontColor
v 40.4489 4.53516 -39.8724
vt 0 0
vn 0 0 -1
v 40.5053 4.60429 -39.8724
vt -2.21865 2.72165
v 41.4579 4.53516 -39.8724
vt -39.7244 0
f 50/122/33 51/123/33 52/124/33

v 40.4489 5.54416 -39.8724
vt 0 39.7244
f 51/123/33 50/122/33 53/125/33

usemtl BackColor
vn -0 -0 1
f 52/124/34 51/123/34 50/122/34

usemtl FrontColor
v 41.3983 4.60429 -39.8724
vt -37.3761 2.72165
f 54/126/33 52/124/33 51/123/33

v 41.4579 5.54416 -39.8724
vt -39.7244 39.7244
f 52/124/33 54/126/33 55/127/33

usemtl BackColor
f 55/127/34 54/126/34 52/124/34

usemtl FrontColor
v 41.3983 5.49729 -39.8724
vt -37.3761 37.8791
f 55/127/33 54/126/33 56/128/33

usemtl BackColor
f 56/128/34 54/126/34 55/127/34

usemtl _7
v 41.3983 5.49729 -39.7242
vt 15.5843 7.02351
vn 1 0 -0
vt 15.6327 6.84009
vt 15.6327 7.02351
f 57/129/35 54/130/35 56/131/35

v 41.3983 4.60429 -39.7242
vt 15.5843 6.84009
f 54/130/35 57/129/35 58/132/35

vt -10.4715 14.0539
vn -1 -0 0
vt -10.7631 14.0539
vt -10.4715 14.0843
f 58/133/36 57/134/36 54/135/36

usemtl Translucent_Glass_Blue
vt 37.3761 37.8791
vn 0 0 1
v 40.5053 4.60429 -39.7242
vt 2.21865 2.72165
vt 37.3761 2.72165
f 57/136/37 59/137/37 58/138/37

v 40.5053 5.49729 -39.7242
vt 2.21865 37.8791
f 59/137/37 57/136/37 60/139/37

vn -0 -0 -1
f 58/138/38 59/137/38 57/136/38

usemtl _7
vt -10.18 14.0539
vn 0 -1 -0
f 59/140/39 54/135/39 58/133/39

vt -10.18 14.0843
f 54/135/39 59/140/39 51/141/39

vn -0 1 0
f 51/141/40 59/140/40 54/135/40

vt -10.3538 6.84009
vn -1 0 -0
v 40.5053 5.49729 -39.8724
vt -10.4021 7.02351
vt -10.4021 6.84009
f 59/142/41 61/143/41 51/144/41

vt -10.3538 7.02351
f 61/143/41 59/142/41 60/145/41

vt -9.88846 14.0539
vn 1 -0 0
vt -9.88846 14.0843
f 60/146/42 59/140/42 61/147/42

usemtl Translucent_Glass_Blue
f 60/139/38 57/136/38 59/137/38

usemtl _7
vt 15.7021 14.0539
vn 0 1 -0
vt 15.4106 14.0843
vt 15.4106 14.0539
f 57/148/43 61/149/43 60/150/43

vt 15.7021 14.0843
f 61/149/43 57/148/43 56/151/43

vn -0 -1 0
f 60/150/44 61/149/44 57/148/44

f 56/151/44 57/148/44 61/149/44

vt -10.7631 14.0843
f 56/152/36 54/135/36 57/134/36

usemtl Translucent_Glass_Blue
vt -2.21865 37.8791
f 54/126/33 61/153/33 56/128/33

f 61/153/33 54/126/33 51/123/33

f 51/123/34 54/126/34 61/153/34

usemtl BackColor
f 51/123/34 52/124/34 54/126/34

usemtl Translucent_Glass_Blue
f 56/128/34 61/153/34 54/126/34

usemtl FrontColor
f 61/153/33 53/125/33 56/128/33

f 51/123/33 53/125/33 61/153/33

usemtl BackColor
f 53/125/34 50/122/34 51/123/34

f 61/153/34 53/125/34 51/123/34

f 56/128/34 53/125/34 61/153/34

usemtl FrontColor
f 55/127/33 56/128/33 53/125/33

usemtl BackColor
f 53/125/34 56/128/34 55/127/34

usemtl _7
f 51/141/42 61/147/42 59/140/42

usemtl FrontColor
v 41.4579 5.54416 -39.7242
vt 39.7244 39.7244
f 57/136/37 62/154/37 60/139/37

f 58/138/37 62/154/37 57/136/37

v 41.4579 4.53516 -39.7242
vt 39.7244 0
f 58/138/37 63/155/37 62/154/37

v 40.4489 4.53516 -39.7242
f 63/155/37 58/138/37 64/122/37

usemtl BackColor
f 64/122/38 58/138/38 63/155/38

usemtl FrontColor
f 59/137/37 64/122/37 58/138/37

v 40.4489 5.54416 -39.7242
f 64/122/37 59/137/37 65/125/37

usemtl BackColor
f 65/125/38 59/137/38 64/122/38

usemtl FrontColor
f 65/125/37 59/137/37 60/139/37

usemtl BackColor
f 60/139/38 59/137/38 65/125/38

usemtl FrontColor
f 65/125/37 60/139/37 62/154/37

usemtl BackColor
f 62/154/38 60/139/38 65/125/38

f 60/139/38 62/154/38 57/136/38

f 57/136/38 62/154/38 58/138/38

f 62/154/38 63/155/38 58/138/38

f 58/138/38 64/122/38 59/137/38

usemtl _7
f 58/133/40 54/135/40 59/140/40

g Mesh5 Group2 DES014 Model

l 53 55

l 50 53

l 52 50

l 55 52

g Mesh6 Group2 DES014 Model

l 54 51

l 56 54

l 61 56

l 51 61

l 59 51

l 58 59

l 58 54

l 57 58

l 57 56

l 60 57

l 60 61

l 59 60

g Mesh7 Group2 DES014 Model

l 64 63

l 64 65

l 65 62

l 62 63

g Mesh8 DES014 Model

usemtl _Tile_Ceramic_Natural_15
v 43.1721 3.441 -39.8724
vt 39.4867 36.4143
vn -3.03014e-016 1 1.6845e-017
v 40.4111 3.441 -42.2176
vt 37.5285 38.0777
v 40.4111 3.441 -39.8724
vt 37.5285 36.4143
f 66/156/45 67/157/45 68/158/45

v 40.5852 3.441 -42.2176
vt 37.652 38.0777
f 67/157/45 66/156/45 69/159/45

usemtl BackColor
vt 1.72244e-029 5.8331
vn 3.03014e-016 -1 -1.6845e-017
vt 1.72244e-029 98.1661
vt 108.7 5.8331
f 68/160/46 67/161/46 66/162/46

usemtl Color_D03
vt 98.1661 5.68434e-014
v 40.4111 6.444 -39.8724
vt 5.8331 118.228
vt 5.8331 5.68434e-014
f 67/163/35 70/164/35 68/165/35

v 40.4111 6.444 -40.3075
vt 22.9641 118.228
f 70/164/35 67/163/35 71/166/35

usemtl BackColor
f 68/165/36 70/164/36 67/163/36

usemtl Color_D03
vt -1.48719 43.0772
vt 0 5.68434e-014
vt 0 118.228
f 50/167/33 68/168/33 70/169/33

vt -108.7 8.52651e-014
f 68/168/33 50/167/33 66/170/33

usemtl BackColor
f 66/170/34 50/167/34 68/168/34

usemtl Color_D03
v 43.183 3.441 -39.8724
vt -109.131 8.52651e-014
f 66/170/33 50/167/33 72/171/33

usemtl BackColor
f 72/171/34 50/167/34 66/170/34

usemtl Color_D03
vt -41.2116 43.0772
f 52/172/33 72/171/33 50/167/33

v 43.183 6.444 -39.8724
vt -109.131 118.228
f 72/171/33 52/172/33 73/173/33

usemtl BackColor
f 73/173/34 52/172/34 72/171/34

usemtl Color_D03
vt -41.2116 82.8016
f 73/173/33 52/172/33 55/174/33

usemtl BackColor
f 55/174/34 52/172/34 73/173/34

usemtl Color_D03
f 73/173/33 55/174/33 70/169/33

usemtl BackColor
f 70/169/34 55/174/34 73/173/34

usemtl Color_D03
vt -1.48719 82.8016
f 53/175/33 70/169/33 55/174/33

f 50/167/33 70/169/33 53/175/33

usemtl BackColor
f 70/169/34 68/168/34 50/167/34

f 53/175/34 70/169/34 50/167/34

f 55/174/34 70/169/34 53/175/34

f 50/167/34 72/171/34 52/172/34

usemtl Color_D03
v 43.1255 6.444 -40.2569
vt -4.91452 118.228
vn -0.988975 -1.05413e-017 0.148083
vt 10.3916 8.41183e-014
vt 10.3916 118.228
f 74/176/47 72/177/47 73/178/47

v 43.1255 3.441 -40.2569
vt -4.91452 8.41183e-014
f 72/177/47 74/176/47 75/179/47

usemtl BackColor
vn 0.988975 1.05413e-017 -0.148083
f 73/178/48 72/177/48 74/176/48

f 75/179/48 74/176/48 72/177/48

usemtl Color_D03
v 42.903 6.444 -41.3108
vt -40.8503 118.228
vn -0.978429 -1.14554e-017 0.206583
vt 1.5582 8.40177e-014
vt 1.5582 118.228
f 76/180/49 75/181/49 74/182/49

v 42.903 3.441 -41.3108
vt -40.8503 8.40177e-014
f 75/181/49 76/180/49 77/183/49

usemtl BackColor
vn 0.978429 1.14554e-017 -0.206583
f 74/182/50 75/181/50 76/180/50

f 77/183/50 76/180/50 75/181/50

usemtl Color_D03
v 42.6544 6.444 -42.2176
vt -71.327 118.228
vn -0.964426 -1.2329e-017 0.264354
vt -34.3082 8.38951e-014
vt -34.3082 118.228
f 78/184/51 77/185/51 76/186/51

v 42.6544 3.441 -42.2176
vt -71.327 8.38951e-014
f 77/185/51 78/184/51 79/187/51

usemtl BackColor
vn 0.964426 1.2329e-017 -0.264354
f 76/186/52 77/185/52 78/184/52

f 79/187/52 78/184/52 77/185/52

usemtl Color_D03
vt 88.317 118.228
vn 9.42756e-016 7.62102e-016 1
v 42.6477 3.441 -42.2176
vt 88.0545 1.60078e-013
vt 88.317 1.60078e-013
f 78/188/53 80/189/53 79/190/53

v 41.2512 5.656 -42.2176
vt 33.0721 87.2047
f 80/189/53 78/188/53 81/191/53

usemtl BackColor
vn -9.42756e-016 -7.62102e-016 -1
f 79/190/54 80/189/54 78/188/54

usemtl _Tile_Ceramic_Natural_15
vt 39.1147 38.0777
vt 39.1195 38.0777
f 80/192/45 66/156/45 79/193/45

v 41.2512 3.441 -42.2176
vt 38.1243 38.0777
f 82/194/45 66/156/45 80/192/45

f 69/159/45 66/156/45 82/194/45

usemtl BackColor
vt 6.85434 98.1661
f 69/195/46 66/162/46 67/161/46

vt 33.0721 98.1661
f 82/196/46 66/162/46 69/195/46

vt 88.0545 98.1661
f 80/197/46 66/162/46 82/196/46

vt 88.317 98.1661
f 79/198/46 66/162/46 80/197/46

usemtl _Tile_Ceramic_Natural_15
vt 39.2958 37.4345
f 79/193/45 66/156/45 77/199/45

usemtl BackColor
vt 98.1031 62.4642
f 77/200/46 66/162/46 79/198/46

usemtl _Tile_Ceramic_Natural_15
vt 39.4536 36.687
f 77/199/45 66/156/45 75/201/45

usemtl BackColor
vt 106.864 20.9705
f 75/202/46 66/162/46 77/200/46

usemtl _Tile_Ceramic_Natural_15
vt 39.4944 36.4143
f 75/201/45 66/156/45 72/203/45

usemtl BackColor
vt 109.131 5.8331
f 72/204/46 66/162/46 75/202/46

usemtl Color_D03
vt 33.0721 1.31656e-013
f 81/191/53 82/205/53 80/189/53

usemtl BackColor
f 80/189/54 82/205/54 81/191/54

f 81/191/54 78/188/54 80/189/54

usemtl Color_D03
v 40.5852 5.656 -42.2176
vt 6.85434 87.2047
f 81/191/53 78/188/53 83/206/53

usemtl BackColor
f 83/206/54 78/188/54 81/191/54

usemtl Color_D03
v 40.4111 6.444 -42.2176
vt 9.25468e-014 118.228
f 83/206/53 78/188/53 84/207/53

usemtl BackColor
f 84/207/54 78/188/54 83/206/54

usemtl Color_D03
vt 9.25468e-014 1.31656e-013
f 67/208/53 83/206/53 84/207/53

vt 6.85434 1.31656e-013
f 83/206/53 67/208/53 69/209/53

usemtl BackColor
f 69/209/54 67/208/54 83/206/54

f 84/207/54 83/206/54 67/208/54

usemtl Color_D03
vt 98.1661 118.228
f 71/166/35 67/163/35 84/210/35

usemtl BackColor
f 71/166/36 67/163/36 70/164/36

f 84/210/36 67/163/36 71/166/36

g Mesh9 DES014 Model

l 66 68

l 72 66

l 72 75

l 72 73

l 73 70

l 73 74

l 75 74

l 75 77

l 77 79

l 77 76

l 76 78

l 74 76

l 79 78

l 79 80

l 80 82

l 82 69

l 82 81

l 83 81

l 83 69

l 69 67

l 67 68

l 67 84

l 84 71

l 78 84

l 71 70

l 68 70

g Mesh10 DES014 Model

l 52 55

l 50 52

l 53 50

l 55 53

