# Alias OBJ Model File
# Exported from SketchUp, (c) 2000-2012 Trimble Navigation Limited
# File units = meters

mtllib DES013.mtl

g Mesh1 Group1 DES013 Model

usemtl FrontColor
v 39.1356 4.53516 -39.8724
vt 0 0
vn 0 0 -1
v 39.192 4.60429 -39.8724
vt -2.21865 2.72165
v 40.1446 4.53516 -39.8724
vt -39.7244 0
f 1/1/1 2/2/1 3/3/1

v 39.1356 5.54416 -39.8724
vt 0 39.7244
f 2/2/1 1/1/1 4/4/1

usemtl BackColor
vn -0 -0 1
f 3/3/2 2/2/2 1/1/2

usemtl FrontColor
v 40.085 4.60429 -39.8724
vt -37.3761 2.72165
f 5/5/1 3/3/1 2/2/1

v 40.1446 5.54416 -39.8724
vt -39.7244 39.7244
f 3/3/1 5/5/1 6/6/1

usemtl BackColor
f 6/6/2 5/5/2 3/3/2

usemtl FrontColor
v 40.085 5.49729 -39.8724
vt -37.3761 37.8791
f 6/6/1 5/5/1 7/7/1

usemtl BackColor
f 7/7/2 5/5/2 6/6/2

usemtl _7
v 40.085 5.49729 -39.7242
vt 15.5843 7.02351
vn 1 0 -0
vt 15.6327 6.84009
vt 15.6327 7.02351
f 8/8/3 5/9/3 7/10/3

v 40.085 4.60429 -39.7242
vt 15.5843 6.84009
f 5/9/3 8/8/3 9/11/3

vt -10.4715 14.0539
vn -1 -0 0
vt -10.7631 14.0539
vt -10.4715 14.0843
f 9/12/4 8/13/4 5/14/4

usemtl Translucent_Glass_Blue
vt 37.3761 37.8791
vn 0 0 1
v 39.192 4.60429 -39.7242
vt 2.21865 2.72165
vt 37.3761 2.72165
f 8/15/5 10/16/5 9/17/5

v 39.192 5.49729 -39.7242
vt 2.21865 37.8791
f 10/16/5 8/15/5 11/18/5

vn -0 -0 -1
f 9/17/6 10/16/6 8/15/6

usemtl _7
vt -10.18 14.0539
vn 0 -1 -0
f 10/19/7 5/14/7 9/12/7

vt -10.18 14.0843
f 5/14/7 10/19/7 2/20/7

vn -0 1 0
f 2/20/8 10/19/8 5/14/8

vt -10.3538 6.84009
vn -1 0 -0
v 39.192 5.49729 -39.8724
vt -10.4021 7.02351
vt -10.4021 6.84009
f 10/21/9 12/22/9 2/23/9

vt -10.3538 7.02351
f 12/22/9 10/21/9 11/24/9

vt -9.88846 14.0539
vn 1 -0 0
vt -9.88846 14.0843
f 11/25/10 10/19/10 12/26/10

usemtl Translucent_Glass_Blue
f 11/18/6 8/15/6 10/16/6

usemtl _7
vt 15.7021 14.0539
vn 0 1 -0
vt 15.4106 14.0843
vt 15.4106 14.0539
f 8/27/11 12/28/11 11/29/11

vt 15.7021 14.0843
f 12/28/11 8/27/11 7/30/11

vn -0 -1 0
f 11/29/12 12/28/12 8/27/12

f 7/30/12 8/27/12 12/28/12

vt -10.7631 14.0843
f 7/31/4 5/14/4 8/13/4

usemtl Translucent_Glass_Blue
vt -2.21865 37.8791
f 5/5/1 12/32/1 7/7/1

f 12/32/1 5/5/1 2/2/1

f 2/2/2 5/5/2 12/32/2

usemtl BackColor
f 2/2/2 3/3/2 5/5/2

usemtl Translucent_Glass_Blue
f 7/7/2 12/32/2 5/5/2

usemtl FrontColor
f 12/32/1 4/4/1 7/7/1

f 2/2/1 4/4/1 12/32/1

usemtl BackColor
f 4/4/2 1/1/2 2/2/2

f 12/32/2 4/4/2 2/2/2

f 7/7/2 4/4/2 12/32/2

usemtl FrontColor
f 6/6/1 7/7/1 4/4/1

usemtl BackColor
f 4/4/2 7/7/2 6/6/2

usemtl _7
f 2/20/10 12/26/10 10/19/10

usemtl FrontColor
v 40.1446 5.54416 -39.7242
vt 39.7244 39.7244
f 8/15/5 13/33/5 11/18/5

f 9/17/5 13/33/5 8/15/5

v 40.1446 4.53516 -39.7242
vt 39.7244 0
f 9/17/5 14/34/5 13/33/5

v 39.1356 4.53516 -39.7242
f 14/34/5 9/17/5 15/1/5

usemtl BackColor
f 15/1/6 9/17/6 14/34/6

usemtl FrontColor
f 10/16/5 15/1/5 9/17/5

v 39.1356 5.54416 -39.7242
f 15/1/5 10/16/5 16/4/5

usemtl BackColor
f 16/4/6 10/16/6 15/1/6

usemtl FrontColor
f 16/4/5 10/16/5 11/18/5

usemtl BackColor
f 11/18/6 10/16/6 16/4/6

usemtl FrontColor
f 16/4/5 11/18/5 13/33/5

usemtl BackColor
f 13/33/6 11/18/6 16/4/6

f 11/18/6 13/33/6 8/15/6

f 8/15/6 13/33/6 9/17/6

f 13/33/6 14/34/6 9/17/6

f 9/17/6 15/1/6 10/16/6

usemtl _7
f 9/12/8 5/14/8 10/19/8

g Mesh2 Group1 DES013 Model

l 4 6

l 1 4

l 3 1

l 6 3

g Mesh3 Group1 DES013 Model

l 5 2

l 7 5

l 12 7

l 2 12

l 10 2

l 9 10

l 9 5

l 8 9

l 8 7

l 11 8

l 11 12

l 10 11

g Mesh4 Group1 DES013 Model

l 15 14

l 15 16

l 16 13

l 13 14

g Mesh5 DES013 Model

usemtl _Tile_Ceramic_Natural_15
v 40.2367 3.441 -39.8724
vt 37.4048 36.4143
v 37.9139 3.441 -42.2176
vt 35.7574 38.0777
v 37.9139 3.441 -39.8724
vt 35.7574 36.4143
f 17/35/11 18/36/11 19/37/11

v 39.4493 3.441 -42.2176
vt 36.8463 38.0777
f 18/36/11 17/35/11 20/38/11

usemtl BackColor
vt 0 5.8331
vt 0 98.1661
vt 91.4506 5.8331
f 19/39/12 18/40/12 17/41/12

usemtl Color_D03
vt 98.1661 0
v 37.9139 6.444 -39.8724
vt 5.8331 118.228
vt 5.8331 0
f 18/42/3 21/43/3 19/44/3

v 37.9139 6.444 -42.2176
vt 98.1661 118.228
f 21/43/3 18/42/3 22/45/3

usemtl BackColor
f 19/44/4 21/43/4 18/42/4

usemtl Color_D03
vt -48.0984 43.0772
vt 0 118.228
f 1/46/1 19/1/1 21/47/1

vt -91.4506 0
f 19/1/1 1/46/1 17/48/1

usemtl BackColor
f 17/48/2 1/46/2 19/1/2

usemtl Color_D03
vt -87.8228 43.0772
f 3/49/1 17/48/1 1/46/1

v 40.2367 6.444 -39.8724
vt -91.4506 118.228
f 17/48/1 3/49/1 23/50/1

usemtl BackColor
f 23/50/2 3/49/2 17/48/2

usemtl Color_D03
vt -87.8228 82.8016
f 23/50/1 3/49/1 6/51/1

usemtl BackColor
f 6/51/2 3/49/2 23/50/2

usemtl Color_D03
f 23/50/1 6/51/1 21/47/1

usemtl BackColor
f 21/47/2 6/51/2 23/50/2

usemtl Color_D03
vt -48.0984 82.8016
f 4/52/1 21/47/1 6/51/1

f 1/46/1 21/47/1 4/52/1

usemtl BackColor
f 21/47/2 19/1/2 1/46/2

f 4/52/2 21/47/2 1/46/2

f 6/51/2 21/47/2 4/52/2

f 1/46/2 17/48/2 3/49/2

usemtl Color_D03
v 40.2367 6.444 -40.3654
vt -25.2448 118.228
vt -5.8331 0
vt -5.8331 118.228
f 24/53/9 17/54/9 23/55/9

v 40.2367 3.441 -42.2176
vt -98.1661 0
f 17/54/9 24/53/9 25/56/9

usemtl BackColor
f 23/55/10 17/54/10 24/53/10

f 25/56/10 24/53/10 17/54/10

usemtl Color_D03
v 40.2367 6.444 -42.2176
vt -98.1661 118.228
f 25/56/9 24/53/9 26/57/9

usemtl BackColor
f 26/57/10 24/53/10 25/56/10

usemtl Color_D03
vt 91.4506 118.228
vn 1.32079e-015 -1.77009e-015 1
v 40.0937 3.441 -42.2176
vt 85.8169 -1.73762e-013
vt 91.4506 -1.73762e-013
f 26/58/13 27/59/13 25/60/13

v 40.0937 5.656 -42.2176
vt 85.8169 87.2047
f 27/59/13 26/58/13 28/61/13

usemtl BackColor
vn -1.32079e-015 1.77009e-015 -1
f 25/60/14 27/59/14 26/58/14

usemtl _Tile_Ceramic_Natural_15
vt 37.3034 38.0777
vt 37.4048 38.0777
f 27/62/11 17/35/11 25/63/11

f 20/38/11 17/35/11 27/62/11

usemtl BackColor
vt 60.4475 98.1661
f 20/64/12 17/41/12 18/40/12

vt 85.8169 98.1661
f 27/65/12 17/41/12 20/64/12

vt 91.4506 98.1661
f 25/66/12 17/41/12 27/65/12

usemtl Color_D03
v 39.4493 5.656 -42.2176
vt 60.4475 87.2047
vt 1.29657e-013 -1.73762e-013
vt 60.4475 -1.73762e-013
f 29/67/13 18/68/13 20/69/13

vt 1.29657e-013 118.228
f 18/68/13 29/67/13 22/70/13

usemtl BackColor
f 20/69/14 18/68/14 29/67/14

f 22/70/14 29/67/14 18/68/14

usemtl Color_D03
f 22/70/13 29/67/13 26/58/13

usemtl BackColor
f 26/58/14 29/67/14 22/70/14

usemtl Color_D03
f 28/61/13 26/58/13 29/67/13

usemtl BackColor
f 28/61/14 26/58/14 27/59/14

f 29/67/14 26/58/14 28/61/14

f 22/45/4 18/42/4 21/43/4

g Mesh6 DES013 Model

l 17 19

l 17 25

l 17 23

l 24 23

l 24 26

l 25 26

l 25 27

l 27 20

l 27 28

l 29 28

l 29 20

l 20 18

l 19 18

l 19 21

l 21 22

l 23 21

l 18 22

l 26 22

g Mesh7 DES013 Model

l 4 6

l 1 4

l 3 1

l 6 3

