# Alias OBJ Model File
# Exported from SketchUp, (c) 2000-2012 Trimble Navigation Limited
# File units = meters

mtllib DES029.mtl

g Mesh1 Group1 DES029 Model

usemtl FrontColor
v 7.10263 4.53516 -46.2626
vt 39.7244 0
vn 0 0 1
v 7.04298 4.60429 -46.2626
vt 37.3761 2.72165
v 6.09363 4.53516 -46.2626
vt 0 0
f 1/1/1 2/2/1 3/3/1

v 7.10263 5.54416 -46.2626
vt 39.7244 39.7244
f 2/2/1 1/1/1 4/4/1

usemtl BackColor
vn -0 -0 -1
f 3/3/2 2/2/2 1/1/2

usemtl FrontColor
v 6.14998 4.60429 -46.2626
vt 2.21865 2.72165
f 5/5/1 3/3/1 2/2/1

v 6.09363 5.54416 -46.2626
vt 0 39.7244
f 3/3/1 5/5/1 6/6/1

usemtl BackColor
f 6/6/2 5/5/2 3/3/2

usemtl FrontColor
v 6.14998 5.49729 -46.2626
vt 2.21865 37.8791
f 6/6/1 5/5/1 7/7/1

usemtl BackColor
f 7/7/2 5/5/2 6/6/2

usemtl Translucent_Glass_Blue
v 7.04298 5.49729 -46.2626
vt 37.3761 37.8791
f 5/5/1 8/8/1 7/7/1

f 8/8/1 5/5/1 2/2/1

f 2/2/2 5/5/2 8/8/2

usemtl BackColor
f 2/2/2 3/3/2 5/5/2

usemtl _7
vt 15.8119 15.3969
vn 0 1 -0
v 6.14998 4.60429 -46.8063
vt 15.5204 15.5086
vt 15.5204 15.3969
f 2/9/3 9/10/3 5/11/3

v 7.04298 4.60429 -46.8063
vt 15.8119 15.5086
f 9/10/3 2/9/3 10/12/3

usemtl BackColor
vt 2.21865 0
vn -0 -1 0
vt 2.21865 21.4039
vt 37.3761 0
f 5/13/4 9/14/4 2/15/4

usemtl _7
vt 17.8965 6.84009
vn 1 0 -0
vt 17.719 7.02351
vt 17.719 6.84009
f 9/16/5 7/17/5 5/18/5

v 6.14998 5.49729 -46.8063
vt 17.8965 7.02351
f 7/17/5 9/16/5 11/19/5

usemtl BackColor
vt 0 2.72165
vn -1 -0 0
vt 0 37.8791
vt 21.4039 2.72165
f 5/20/6 7/21/6 9/22/6

usemtl Translucent_Glass_Blue
f 7/7/2 8/8/2 5/5/2

usemtl FrontColor
f 8/8/1 4/4/1 7/7/1

f 2/2/1 4/4/1 8/8/1

usemtl BackColor
f 4/4/2 1/1/2 2/2/2

f 8/8/2 4/4/2 2/2/2

f 7/7/2 4/4/2 8/8/2

usemtl FrontColor
f 6/6/1 7/7/1 4/4/1

usemtl BackColor
f 4/4/2 7/7/2 6/6/2

usemtl _7
vt -10.2898 15.3969
vn 0 -1 -0
v 7.04298 5.49729 -46.8063
vt -10.5814 15.5086
vt -10.5814 15.3969
f 7/23/7 12/24/7 8/25/7

vt -10.2898 15.5086
f 12/24/7 7/23/7 11/26/7

usemtl BackColor
vt -2.21865 21.4039
vn -0 1 0
vt -2.21865 0
vt -37.3761 21.4039
f 11/27/8 7/28/8 12/29/8

vt 21.4039 37.8791
f 11/30/6 9/22/6 7/21/6

usemtl FrontColor
vt -2.21865 2.72165
vn 0 0 -1
v 6.09363 5.54416 -46.8063
vt -2.21865 37.8791
f 9/31/9 13/6/9 11/32/9

v 6.09363 4.53516 -46.8063
f 9/31/9 14/3/9 13/6/9

v 7.10263 4.53516 -46.8063
vt -39.7244 0
f 14/3/9 9/31/9 15/33/9

usemtl BackColor
vn -0 -0 1
f 15/33/10 9/31/10 14/3/10

usemtl FrontColor
vt -37.3761 2.72165
f 10/34/9 15/33/9 9/31/9

v 7.10263 5.54416 -46.8063
vt -39.7244 39.7244
f 15/33/9 10/34/9 16/35/9

usemtl BackColor
f 16/35/10 10/34/10 15/33/10

usemtl FrontColor
vt -37.3761 37.8791
f 16/35/9 10/34/9 12/36/9

usemtl BackColor
f 12/36/10 10/34/10 16/35/10

usemtl _7
vt -12.4884 6.84009
vn -1 0 -0
vt -12.6659 7.02351
vt -12.6659 6.84009
f 2/37/11 12/38/11 10/39/11

vt -12.4884 7.02351
f 12/38/11 2/37/11 8/40/11

usemtl BackColor
vn 1 -0 0
vt -21.4039 37.8791
f 8/21/12 2/20/12 12/41/12

vt -21.4039 2.72165
f 10/42/12 12/41/12 2/20/12

usemtl Translucent_Glass_Blue
f 10/34/9 11/32/9 12/36/9

f 11/32/9 10/34/9 9/31/9

f 9/31/10 10/34/10 11/32/10

usemtl BackColor
vt 37.3761 21.4039
f 10/43/4 2/15/4 9/14/4

f 9/31/10 15/33/10 10/34/10

usemtl Translucent_Glass_Blue
f 12/36/10 11/32/10 10/34/10

usemtl FrontColor
f 11/32/9 13/6/9 12/36/9

usemtl BackColor
f 11/32/10 13/6/10 9/31/10

f 12/36/10 13/6/10 11/32/10

usemtl FrontColor
f 16/35/9 12/36/9 13/6/9

usemtl BackColor
f 13/6/10 12/36/10 16/35/10

f 13/6/10 14/3/10 9/31/10

vt -37.3761 0
f 8/44/8 12/29/8 7/28/8

g Mesh2 Group1 DES029 Model

l 4 6

l 4 1

l 1 3

l 3 6

g Mesh3 Group1 DES029 Model

l 7 8

l 5 7

l 2 5

l 8 2

l 12 8

l 11 12

l 11 7

l 9 11

l 9 5

l 10 9

l 10 2

l 12 10

g Mesh4 Group1 DES029 Model

l 14 13

l 15 14

l 16 15

l 16 13

g Mesh5 DES029 Model

usemtl _Tile_Ceramic_Natural_15
v 6.48519 3.441 -43.3698
vt 13.4676 38.8948
vn -1.54289e-016 1 -4.73107e-016
v 4.42513 3.441 -45.9366
vt 12.0065 40.7152
v 4.42513 3.441 -43.3698
vt 12.0065 38.8948
f 17/45/13 18/46/13 19/47/13

v 4.81767 3.441 -45.9366
vt 12.2849 40.7152
f 18/46/13 17/45/13 20/48/13

usemtl BackColor
vt 4.38515e-030 2.27374e-013
vn 1.54289e-016 -1 4.73107e-016
vt 0 101.058
vt 81.1045 -3.44193e-029
f 19/49/14 18/50/14 17/51/14

usemtl Color_D03
vt 101.058 -1.86494e-048
vn 1 8.10042e-018 -2.27818e-033
v 4.42513 6.444 -43.3698
vt 2.27374e-013 118.228
vt 2.27374e-013 2.84217e-014
f 18/52/15 21/53/15 19/54/15

v 4.42513 6.444 -45.9366
vt 101.058 118.228
f 21/53/15 18/52/15 22/55/15

usemtl BackColor
vn -1 -8.10042e-018 2.27818e-033
f 19/54/16 21/53/16 18/52/16

usemtl Color_D03
vt 1.35995e-028 118.228
vn 5.98111e-016 -8.63792e-016 -1
vt -81.1045 8.52651e-014
vt 1.35995e-028 2.84217e-014
f 21/56/17 17/57/17 19/58/17

v 6.48519 5.656 -43.3698
vt -81.1045 87.2047
f 17/57/17 21/56/17 23/59/17

usemtl BackColor
vn -5.98111e-016 8.63792e-016 1
f 19/58/18 17/57/18 21/56/18

f 23/59/18 21/56/18 17/57/18

usemtl Color_D03
v 7.20317 5.656 -43.3698
vt -109.371 87.2047
f 23/59/17 21/56/17 24/60/17

usemtl BackColor
f 24/60/18 21/56/18 23/59/18

usemtl Color_D03
v 7.29918 6.444 -43.3698
vt -113.152 118.228
f 25/61/17 24/60/17 21/56/17

v 7.20317 3.441 -43.3698
vt -109.371 8.52651e-014
f 25/61/17 26/62/17 24/60/17

v 7.29918 3.441 -43.3698
vt -113.152 2.84217e-014
f 26/62/17 25/61/17 27/63/17

usemtl BackColor
f 27/63/18 25/61/18 26/62/18

usemtl Color_D03
v 7.29918 6.444 -46.0224
vt -104.433 118.228
vt -2.27374e-013 2.84217e-014
vt -2.27374e-013 118.228
f 28/64/11 27/65/11 25/66/11

v 7.29918 3.441 -46.2626
vt -113.892 0
f 27/65/11 28/64/11 29/67/11

usemtl BackColor
f 25/66/12 27/65/12 28/64/12

f 29/67/12 28/64/12 27/65/12

usemtl Color_D03
v 7.29918 6.444 -46.2626
vt -113.892 118.228
f 29/67/11 28/64/11 30/68/11

usemtl BackColor
f 30/68/12 28/64/12 29/67/12

usemtl Color_D03
vt 105.413 43.0772
vt 113.152 0
vt 113.152 118.228
f 1/69/1 29/70/1 30/71/1

v 4.81767 3.441 -46.2626
vt 15.454 0
f 29/70/1 1/69/1 31/72/1

usemtl BackColor
f 31/72/2 1/69/2 29/70/2

usemtl Color_D03
vt 65.6887 43.0772
f 3/73/1 31/72/1 1/69/1

v 4.81767 6.444 -46.2626
vt 15.454 118.228
f 31/72/1 3/73/1 32/74/1

usemtl BackColor
f 32/74/2 3/73/2 31/72/2

usemtl Color_D03
vt 65.6887 82.8016
f 32/74/1 3/73/1 6/75/1

usemtl BackColor
f 6/75/2 3/73/2 32/74/2

usemtl Color_D03
f 32/74/1 6/75/1 30/71/1

usemtl BackColor
f 30/71/2 6/75/2 32/74/2

usemtl Color_D03
vt 105.413 82.8016
f 4/76/1 30/71/1 6/75/1

f 1/69/1 30/71/1 4/76/1

usemtl BackColor
f 30/71/2 29/70/2 1/69/2

f 4/76/2 30/71/2 1/69/2

f 6/75/2 30/71/2 4/76/2

f 1/69/2 31/72/2 3/73/2

usemtl Color_D03
v 4.81767 6.444 -45.9366
vt 113.892 0
vt 113.892 118.228
f 33/55/5 31/77/5 32/78/5

vt 101.058 0
f 31/77/5 33/55/5 20/79/5

usemtl BackColor
f 20/79/6 33/55/6 31/77/6

usemtl Color_D03
vn 1.4713e-014 -1.70862e-017 1
vt 1.48686e-012 -1.72669e-015
vt 15.454 -1.72669e-015
f 33/74/19 18/80/19 20/81/19

vt 1.48686e-012 118.228
f 18/80/19 33/74/19 22/82/19

usemtl BackColor
vn -1.4713e-014 1.70862e-017 -1
f 20/81/20 18/80/20 33/74/20

vt 15.454 101.058
f 20/83/14 17/51/14 18/50/14

usemtl _Tile_Ceramic_Natural_15
vt 12.2849 40.9464
f 20/48/13 17/45/13 31/84/13

usemtl BackColor
vt 15.454 113.892
f 31/85/14 17/51/14 20/83/14

usemtl _Tile_Ceramic_Natural_15
vt 14.0449 40.9464
f 31/84/13 17/45/13 29/86/13

usemtl BackColor
vt 113.152 113.892
f 29/87/14 17/51/14 31/85/14

usemtl _Tile_Ceramic_Natural_15
vt 13.9768 38.8948
f 29/86/13 17/45/13 26/88/13

usemtl BackColor
vt 109.371 -3.2356e-029
f 26/89/14 17/51/14 29/87/14

usemtl _Tile_Ceramic_Natural_15
vt 14.0449 38.8948
f 29/86/13 26/88/13 27/90/13

usemtl BackColor
vt 113.152 2.27374e-013
f 27/91/14 26/89/14 29/87/14

f 22/82/20 33/74/20 18/80/20

f 22/55/16 18/52/16 21/53/16

f 32/78/6 31/77/6 33/55/6

f 24/60/18 26/62/18 25/61/18

f 21/56/18 24/60/18 25/61/18

g Mesh6 DES029 Model

l 27 26

l 27 29

l 27 25

l 25 21

l 25 28

l 28 30

l 30 32

l 29 30

l 29 31

l 20 31

l 18 20

l 18 19

l 18 22

l 22 33

l 22 21

l 19 21

l 17 19

l 26 17

l 24 26

l 23 24

l 17 23

l 20 33

l 33 32

l 31 32

g Mesh7 DES029 Model

l 4 1

l 6 4

l 3 6

l 1 3

