# Alias OBJ Model File
# Exported from SketchUp, (c) 2000-2012 Trimble Navigation Limited
# File units = meters

mtllib DES045.mtl

g Mesh1 Group1 DES045 Model

usemtl Translucent_Glass_Blue
v 17.2072 4.60396 -35.8908
vt 37.5517 2.70857
vn 1 0 -0
v 17.2072 5.48296 -34.9788
vt 1.64622 37.3149
v 17.2072 4.60396 -34.9788
vt 1.64622 2.70857
f 1/1/1 2/2/1 3/3/1

v 17.2072 5.48296 -35.8908
vt 37.5517 37.3149
f 2/2/1 1/1/1 4/4/1

vn -1 -0 0
f 3/3/2 2/2/2 1/1/2

usemtl FrontColor
v 17.2072 5.54416 -34.937
vt 0 39.7244
f 2/2/1 5/5/1 3/3/1

v 17.2072 5.54416 -35.946
vt 39.7244 39.7244
f 5/5/1 2/2/1 6/6/1

usemtl BackColor
f 6/6/2 2/2/2 5/5/2

usemtl FrontColor
f 6/6/1 2/2/1 4/4/1

usemtl BackColor
f 4/4/2 2/2/2 6/6/2

usemtl Translucent_Glass_Blue
f 4/4/2 1/1/2 2/2/2

usemtl FrontColor
v 17.2072 4.53516 -35.946
vt 39.7244 0
f 1/1/1 7/7/1 4/4/1

f 3/3/1 7/7/1 1/1/1

v 17.2072 4.53516 -34.937
vt 0 0
f 3/3/1 8/8/1 7/7/1

f 8/8/1 3/3/1 5/5/1

usemtl BackColor
f 5/5/2 3/3/2 8/8/2

f 3/3/2 5/5/2 2/2/2

usemtl _7
vt 8.23304 6.65269
vn 0 0 -1
v 16.6456 5.48296 -34.9788
vt 8.0497 6.47214
vt 8.23304 6.47214
f 3/9/3 9/10/3 2/11/3

v 16.6456 4.60396 -34.9788
vt 8.0497 6.65269
f 9/10/3 3/9/3 10/12/3

usemtl BackColor
vt -5.68434e-013 2.70857
vn -0 -0 1
vt -22.1094 2.70857
vt -5.68434e-013 37.3149
f 10/13/4 3/14/4 9/15/4

usemtl _7
vn 0 1 -0
v 16.6456 4.60396 -35.8908
vt 8.0497 6.84002
f 3/9/5 11/16/5 10/12/5

vt 8.23304 6.84002
f 11/16/5 3/9/5 1/17/5

usemtl BackColor
vt 5.68434e-013 1.64622
vn -0 -1 0
vt 5.68434e-013 37.5517
vt 22.1094 1.64622
f 10/18/6 11/19/6 3/20/6

usemtl FrontColor
v 16.6456 4.53516 -35.946
vt -39.7244 0
vn -1 0 -0
vt -1.64622 2.70857
vt -37.5517 2.70857
f 12/21/7 10/22/7 11/23/7

v 16.6456 4.53516 -34.937
f 13/8/7 10/22/7 12/21/7

vt -1.64622 37.3149
f 10/22/7 13/8/7 9/24/7

usemtl BackColor
vn 1 -0 0
f 12/21/8 10/22/8 13/8/8

f 11/23/8 10/22/8 12/21/8

usemtl Translucent_Glass_Blue
v 16.6456 5.48296 -35.8908
vt -37.5517 37.3149
f 10/22/7 14/25/7 11/23/7

f 14/25/7 10/22/7 9/24/7

f 9/24/8 10/22/8 14/25/8

usemtl BackColor
f 9/24/8 13/8/8 10/22/8

usemtl FrontColor
v 16.6456 5.54416 -34.937
f 15/5/7 9/24/7 13/8/7

v 16.6456 5.54416 -35.946
vt -39.7244 39.7244
f 9/24/7 15/5/7 16/26/7

usemtl BackColor
f 13/8/8 9/24/8 15/5/8

f 16/26/8 15/5/8 9/24/8

usemtl FrontColor
f 9/24/7 16/26/7 14/25/7

usemtl BackColor
f 14/25/8 16/26/8 9/24/8

usemtl FrontColor
f 14/25/7 16/26/7 11/23/7

usemtl BackColor
f 11/23/8 16/26/8 14/25/8

usemtl FrontColor
f 12/21/7 11/23/7 16/26/7

usemtl BackColor
f 16/26/8 11/23/8 12/21/8

usemtl Translucent_Glass_Blue
f 11/23/8 14/25/8 10/22/8

usemtl _7
vn 0 0 1
vt 8.23304 7.02057
vt 8.0497 7.02057
f 11/16/9 4/27/9 14/28/9

f 4/27/9 11/16/9 1/17/9

usemtl BackColor
vt 22.1094 2.70857
vn -0 -0 -1
vt 5.68434e-013 2.70857
vt 22.1094 37.3149
f 1/29/10 11/30/10 4/31/10

vt 22.1094 37.5517
f 1/32/6 3/20/6 11/19/6

f 1/1/2 7/7/2 3/3/2

f 4/4/2 7/7/2 1/1/2

usemtl FrontColor
f 6/6/1 4/4/1 7/7/1

usemtl BackColor
f 7/7/2 4/4/2 6/6/2

f 7/7/2 8/8/2 3/3/2

vt 5.68434e-013 37.3149
f 14/33/10 4/31/10 11/30/10

usemtl _7
vt 8.23304 6.28481
vn 0 -1 -0
vt 8.0497 6.28481
f 4/34/11 9/10/11 14/35/11

f 9/10/11 4/34/11 2/11/11

usemtl BackColor
vt -5.68434e-013 37.5517
vn -0 1 0
vt -5.68434e-013 1.64622
vt -22.1094 37.5517
f 14/36/12 9/37/12 4/38/12

vt -22.1094 1.64622
f 2/39/12 4/38/12 9/37/12

vt -22.1094 37.3149
f 2/40/4 9/15/4 3/14/4

g Mesh2 Group1 DES045 Model

l 14 9

l 11 14

l 10 11

l 9 10

l 2 9

l 4 2

l 4 14

l 1 4

l 1 11

l 3 1

l 3 10

l 2 3

g Mesh3 Group1 DES045 Model

l 5 8

l 6 5

l 6 7

l 7 8

g Mesh4 Group1 DES045 Model

l 15 13

l 16 15

l 16 12

l 12 13

g Mesh5 DES045 Model

usemtl _Tile_Ceramic_Natural_15
v 16.6456 3.441 -34.6585
vt 20.6736 32.7166
vn 5.98178e-016 1 -8.25423e-016
v 13.5406 3.441 -34.7503
vt 18.4714 32.7817
v 13.5406 3.441 -34.6585
vt 18.4714 32.7166
f 17/41/13 18/42/13 19/43/13

v 13.5406 3.441 -35.4331
vt 18.4714 33.2659
f 18/42/13 17/41/13 20/44/13

usemtl BackColor
vt -3.40025e-029 -4.69199e-029
vn -5.98178e-016 -1 8.25423e-016
vt 1.13687e-013 3.61504
vt 122.247 -8.38192e-029
f 19/45/14 18/46/14 17/47/14

usemtl Color_D03
vt 3.61504 1.7053e-013
vn 1 3.75371e-016 -4.75842e-016
v 13.5406 6.444 -34.6585
vt 0 118.228
vt 0 5.68434e-014
f 18/48/15 21/49/15 19/50/15

v 13.5406 5.656 -34.7503
vt 3.61504 87.2047
f 21/49/15 18/48/15 22/51/15

usemtl BackColor
vn -1 -3.75371e-016 4.75842e-016
f 19/50/16 21/49/16 18/48/16

usemtl Color_D03
v 16.6456 6.444 -34.6585
vt -122.247 118.228
f 23/52/3 19/50/3 21/49/3

vt -122.247 2.84217e-014
f 19/50/3 23/52/3 17/53/3

usemtl BackColor
f 17/53/4 23/52/4 19/50/4

usemtl Color_D03
vt -10.9625 82.8016
vt 0 2.84217e-014
f 23/49/7 15/54/7 17/55/7

v 16.6456 6.444 -37.0192
vt -92.9408 118.228
f 15/54/7 23/49/7 24/56/7

usemtl BackColor
f 17/55/8 15/54/8 23/49/8

usemtl Color_D03
vt -10.9625 43.0772
f 13/57/7 17/55/7 15/54/7

v 16.6456 3.441 -37.0192
vt -92.9408 0
f 17/55/7 13/57/7 25/58/7

usemtl BackColor
f 25/58/8 13/57/8 17/55/8

usemtl Color_D03
vt -50.6869 43.0772
f 25/58/7 13/57/7 12/59/7

usemtl BackColor
f 12/59/8 13/57/8 25/58/8

usemtl Color_D03
f 25/58/7 12/59/7 24/56/7

usemtl BackColor
f 24/56/8 12/59/8 25/58/8

usemtl Color_D03
vt -50.6869 82.8016
f 16/60/7 24/56/7 12/59/7

f 15/54/7 24/56/7 16/60/7

usemtl BackColor
f 24/56/8 23/49/8 15/54/8

f 16/60/8 24/56/8 15/54/8

f 12/59/8 24/56/8 16/60/8

usemtl Color_D03
vt 122.247 118.228
v 13.5406 3.441 -37.0192
vt 122.247 0
f 24/61/9 26/8/9 25/62/9

v 13.5406 3.451 -37.0192
vt 0 0.393701
f 26/8/9 24/61/9 27/63/9

usemtl BackColor
f 25/62/10 26/8/10 24/61/10

usemtl _Tile_Ceramic_Natural_15
vt 20.6736 34.3908
vt 18.4714 34.3908
f 20/44/13 25/64/13 26/65/13

f 25/64/13 20/44/13 17/41/13

usemtl BackColor
vt 0 92.9408
vt 122.247 92.9408
vt 1.13687e-013 30.4961
f 26/66/14 25/67/14 20/68/14

f 17/47/14 20/68/14 25/67/14

f 20/68/14 17/47/14 18/46/14

usemtl Color_D03
vt 92.9408 -1.66009e-029
v 13.5406 5.656 -35.4331
vt 30.4961 87.2047
vt 30.4961 1.7053e-013
f 26/69/15 28/70/15 20/71/15

v 13.5406 6.444 -37.0192
vt 92.9408 118.228
f 29/72/15 28/70/15 26/69/15

f 29/72/15 22/51/15 28/70/15

f 21/49/15 22/51/15 29/72/15

usemtl BackColor
f 22/51/16 18/48/16 21/49/16

f 29/72/16 22/51/16 21/49/16

f 28/70/16 22/51/16 29/72/16

f 26/69/16 28/70/16 29/72/16

f 20/71/16 28/70/16 26/69/16

usemtl Color_D03
vt 92.9408 0.393701
f 29/72/15 26/69/15 27/73/15

usemtl BackColor
f 27/73/16 26/69/16 29/72/16

f 27/63/10 24/61/10 26/8/10

usemtl Color_D03
f 27/63/9 24/61/9 29/49/9

usemtl BackColor
f 29/49/10 24/61/10 27/63/10

usemtl Color_D03
v 16.3983 6.444 -37.0192
vt 112.51 118.228
f 29/49/9 24/61/9 30/74/9

usemtl BackColor
f 30/74/10 24/61/10 29/49/10

usemtl Color_D03
v 14.2843 6.444 -37.0192
vt 29.282 118.228
f 29/49/9 30/74/9 31/75/9

usemtl BackColor
f 31/75/10 30/74/10 29/49/10

f 15/54/8 17/55/8 13/57/8

f 21/49/4 19/50/4 23/52/4

usemtl Color_D03
v 13.7736 6.444 -34.6585
vt -9.17369 118.228
f 23/52/3 21/49/3 32/76/3

usemtl BackColor
f 32/76/4 21/49/4 23/52/4

usemtl Color_D03
v 16.5187 6.444 -34.6585
vt -117.249 118.228
f 23/52/3 32/76/3 33/77/3

usemtl BackColor
f 33/77/4 32/76/4 23/52/4

g Mesh6 DES045 Model

l 17 25

l 19 17

l 18 19

l 20 18

l 26 20

l 26 25

l 26 27

l 27 29

l 31 29

l 30 31

l 30 24

l 25 24

l 23 24

l 33 23

l 32 33

l 32 21

l 19 21

l 29 21

l 17 23

l 20 28

l 28 22

l 22 18

g Mesh7 DES045 Model

l 16 15

l 12 16

l 13 12

l 15 13

