# Alias OBJ Model File
# Exported from SketchUp, (c) 2000-2012 Trimble Navigation Limited
# File units = meters

mtllib DES021.mtl

g Mesh1 Group1 DES021 Model

usemtl FrontColor
v 29.3705 5.54416 -37.6297
vt 0 39.7244
vn -1 0 -0
v 29.3705 5.48296 -37.6715
vt -1.64622 37.3149
v 29.3705 4.53516 -37.6297
vt 0 0
f 1/1/1 2/2/1 3/3/1

v 29.3705 5.54416 -38.6387
vt -39.7244 39.7244
f 2/2/1 1/1/1 4/4/1

usemtl BackColor
vn 1 -0 0
f 3/3/2 2/2/2 1/1/2

usemtl FrontColor
v 29.3705 4.60396 -37.6715
vt -1.64622 2.70857
f 5/5/1 3/3/1 2/2/1

v 29.3705 4.53516 -38.6387
vt -39.7244 0
f 3/3/1 5/5/1 6/6/1

usemtl BackColor
f 6/6/2 5/5/2 3/3/2

usemtl FrontColor
v 29.3705 4.60396 -38.5835
vt -37.5517 2.70857
f 6/6/1 5/5/1 7/7/1

usemtl BackColor
f 7/7/2 5/5/2 6/6/2

usemtl Translucent_Glass_Blue
v 29.3705 5.48296 -38.5835
vt -37.5517 37.3149
f 5/5/1 8/8/1 7/7/1

f 8/8/1 5/5/1 2/2/1

f 2/2/2 5/5/2 8/8/2

usemtl BackColor
f 2/2/2 3/3/2 5/5/2

usemtl _7
vt 8.0497 6.47214
vn 0 0 -1
v 29.8188 4.60396 -37.6715
vt 8.19607 6.65269
vt 8.0497 6.65269
f 2/9/3 9/10/3 5/11/3

v 29.8188 5.48296 -37.6715
vt 8.19607 6.47214
f 9/10/3 2/9/3 10/12/3

usemtl BackColor
vt -6.82121e-013 2.70857
vn -0 -0 1
vt -17.6503 2.70857
vt -6.82121e-013 37.3149
f 5/13/4 9/14/4 2/15/4

usemtl _7
vn 0 1 -0
vt 8.0497 6.84002
f 9/10/5 7/16/5 5/11/5

v 29.8188 4.60396 -38.5835
vt 8.19607 6.84002
f 7/16/5 9/10/5 11/17/5

usemtl BackColor
vt 6.82121e-013 1.64622
vn -0 -1 0
vt 6.82121e-013 37.5517
vt 17.6503 1.64622
f 5/18/6 7/19/6 9/20/6

usemtl Translucent_Glass_Blue
f 7/7/2 8/8/2 5/5/2

usemtl FrontColor
f 8/8/1 4/4/1 7/7/1

f 2/2/1 4/4/1 8/8/1

usemtl BackColor
f 4/4/2 1/1/2 2/2/2

f 8/8/2 4/4/2 2/2/2

f 7/7/2 4/4/2 8/8/2

usemtl FrontColor
f 6/6/1 7/7/1 4/4/1

usemtl BackColor
f 4/4/2 7/7/2 6/6/2

usemtl _7
vn 0 0 1
v 29.8188 5.48296 -38.5835
vt 8.19607 7.02057
vt 8.0497 7.02057
f 7/16/7 12/21/7 8/22/7

f 12/21/7 7/16/7 11/17/7

usemtl BackColor
vt 17.6503 2.70857
vn -0 -0 -1
vt 6.82121e-013 2.70857
vt 17.6503 37.3149
f 11/23/8 7/24/8 12/25/8

vt 17.6503 37.5517
f 11/26/6 9/20/6 7/19/6

usemtl Translucent_Glass_Blue
vt 37.5517 2.70857
vn 1 0 -0
vt 1.64622 37.3149
vt 1.64622 2.70857
f 11/27/9 10/28/9 9/29/9

vt 37.5517 37.3149
f 10/28/9 11/27/9 12/30/9

vn -1 -0 0
f 9/29/10 10/28/10 11/27/10

usemtl BackColor
vt -17.6503 37.3149
f 10/31/4 2/15/4 9/14/4

usemtl _7
vn 0 -1 -0
vt 8.19607 6.28481
f 2/9/11 12/32/11 10/12/11

vt 8.0497 6.28481
f 12/32/11 2/9/11 8/33/11

usemtl BackColor
vt -6.82121e-013 37.5517
vn -0 1 0
vt -6.82121e-013 1.64622
vt -17.6503 37.5517
f 8/34/12 2/35/12 12/36/12

vt -17.6503 1.64622
f 10/37/12 12/36/12 2/35/12

usemtl Translucent_Glass_Blue
f 12/30/10 11/27/10 10/28/10

usemtl FrontColor
v 29.8188 4.53516 -38.6387
vt 39.7244 0
f 11/27/9 13/38/9 12/30/9

f 9/29/9 13/38/9 11/27/9

v 29.8188 4.53516 -37.6297
f 9/29/9 14/3/9 13/38/9

v 29.8188 5.54416 -37.6297
f 14/3/9 9/29/9 15/1/9

usemtl BackColor
f 15/1/10 9/29/10 14/3/10

usemtl FrontColor
f 10/28/9 15/1/9 9/29/9

v 29.8188 5.54416 -38.6387
vt 39.7244 39.7244
f 15/1/9 10/28/9 16/39/9

usemtl BackColor
f 16/39/10 10/28/10 15/1/10

usemtl FrontColor
f 16/39/9 10/28/9 12/30/9

usemtl BackColor
f 12/30/10 10/28/10 16/39/10

usemtl FrontColor
f 16/39/9 12/30/9 13/38/9

usemtl BackColor
f 13/38/10 12/30/10 16/39/10

f 12/30/10 13/38/10 11/27/10

f 11/27/10 13/38/10 9/29/10

f 13/38/10 14/3/10 9/29/10

f 9/29/10 15/1/10 10/28/10

vt 6.82121e-013 37.3149
f 8/40/8 12/25/8 7/24/8

g Mesh2 Group1 DES021 Model

l 4 1

l 6 4

l 3 6

l 1 3

g Mesh3 Group1 DES021 Model

l 2 8

l 5 2

l 7 5

l 8 7

l 12 8

l 12 10

l 11 12

l 9 11

l 10 9

l 10 2

l 9 5

l 11 7

g Mesh4 Group1 DES021 Model

l 14 15

l 13 14

l 16 13

l 15 16

g Mesh5 DES021 Model

usemtl _Tile_Ceramic_Natural_15
v 33.1166 3.441 -37.0866
vt 32.3551 34.4386
vn -8.97318e-016 1 2.177e-016
v 29.8188 3.441 -39.3899
vt 30.0163 36.0721
v 29.8188 3.441 -37.0866
vt 30.0163 34.4386
f 17/41/13 18/42/13 19/43/13

v 33.1166 3.441 -39.3899
vt 32.3551 36.0721
f 18/42/13 17/41/13 20/44/13

usemtl BackColor
vt 17.6503 -3.44791e-030
vn 8.97318e-016 -1 -2.177e-016
vt 17.6503 90.6777
vt 147.482 2.12696e-030
f 19/45/14 18/46/14 17/47/14

usemtl Color_D03
vt 90.6777 2.82787e-014
vn 1 8.10042e-018 2.53897e-033
v 29.8188 3.451 -37.0866
vt 4.48136e-032 0.393701
vt 4.48136e-032 -1.42975e-016
f 18/48/15 21/49/15 19/50/15

vt 21.3814 43.0772
f 21/49/15 18/48/15 14/51/15

usemtl BackColor
vn -1 -8.10042e-018 -2.53897e-033
f 19/50/16 21/49/16 18/48/16

usemtl Color_D03
vt -17.6503 0.393701
vn -1.87018e-032 1.70862e-017 -1
vt -147.482 1.42109e-013
vt -17.6503 5.64001e-048
f 21/52/17 17/53/17 19/54/17

v 33.1166 6.444 -37.0866
vt -147.482 118.228
f 17/53/17 21/52/17 22/55/17

usemtl BackColor
vn 1.87018e-032 -1.70862e-017 1
f 19/54/18 17/53/18 21/52/18

f 22/55/18 21/52/18 17/53/18

usemtl Color_D03
v 29.8188 6.444 -37.0866
vt -17.6503 118.228
f 22/55/17 21/52/17 23/56/17

usemtl BackColor
f 23/56/18 21/52/18 22/55/18

usemtl Color_D03
vt 4.48136e-032 118.228
f 21/49/15 14/51/15 23/57/15

usemtl BackColor
f 14/51/16 18/48/16 21/49/16

usemtl Color_D03
vt 61.1058 43.0772
f 14/51/15 18/48/15 13/58/15

usemtl BackColor
f 13/58/16 18/48/16 14/51/16

usemtl Color_D03
vt 61.1058 82.8016
f 13/58/15 18/48/15 16/59/15

usemtl BackColor
f 16/59/16 18/48/16 13/58/16

usemtl Color_D03
v 29.8188 6.444 -39.3899
vt 90.6777 118.228
f 24/60/15 16/59/15 18/48/15

vt 21.3814 82.8016
f 24/60/15 15/61/15 16/59/15

f 23/57/15 15/61/15 24/60/15

f 15/61/15 23/57/15 14/51/15

usemtl BackColor
f 24/60/16 15/61/16 23/57/16

f 16/59/16 15/61/16 24/60/16

f 18/48/16 16/59/16 24/60/16

usemtl Color_D03
vt 147.482 1.40559e-013
vn 1.49614e-032 -1.70862e-017 1
vt 17.6503 118.228
vt 17.6503 2.68724e-014
f 20/62/19 24/63/19 18/64/19

v 33.1166 6.444 -39.3899
vt 147.482 118.228
f 24/63/19 20/62/19 25/65/19

usemtl BackColor
vn -1.49614e-032 1.70862e-017 -1
f 18/64/20 24/63/20 20/62/20

f 25/65/20 20/62/20 24/63/20

usemtl Color_D03
v 33.1166 3.441 -37.9424
vt -33.69 -1.79345e-014
vn -1 -8.92456e-016 6.32388e-016
vt -90.6777 118.228
vt -90.6777 1.04872e-014
f 26/66/21 25/67/21 20/68/21

v 33.1166 5.656 -37.9424
vt -33.69 87.2047
f 27/69/21 25/67/21 26/66/21

v 33.1166 5.656 -37.221
vt -5.29007 87.2047
f 28/70/21 25/67/21 27/69/21

vt 9.3266e-014 118.228
f 28/70/21 22/71/21 25/67/21

vt 9.3266e-014 1.04872e-014
f 22/71/21 28/70/21 17/72/21

usemtl BackColor
vn 1 8.92456e-016 -6.32388e-016
f 17/72/22 28/70/22 22/71/22

usemtl Color_D03
v 33.1166 3.441 -37.221
vt -5.29007 -1.79345e-014
f 29/73/21 17/72/21 28/70/21

usemtl _Tile_Ceramic_Natural_15
vt 32.3551 34.5339
f 20/44/13 17/41/13 29/74/13

usemtl BackColor
vt 147.482 90.6777
f 20/75/14 17/47/14 18/46/14

vt 147.482 5.29007
f 29/76/14 17/47/14 20/75/14

f 28/70/22 17/72/22 29/73/22

usemtl _Tile_Ceramic_Natural_15
vt 32.3551 35.0455
f 20/44/13 29/74/13 26/77/13

usemtl BackColor
vt 147.482 33.69
f 26/78/14 29/76/14 20/75/14

f 20/68/22 25/67/22 26/66/22

f 26/66/22 25/67/22 27/69/22

f 27/69/22 25/67/22 28/70/22

f 25/67/22 22/71/22 28/70/22

f 14/51/16 23/57/16 15/61/16

f 23/57/16 14/51/16 21/49/16

g Mesh6 DES021 Model

l 18 19

l 18 20

l 18 24

l 24 25

l 24 23

l 21 23

l 19 21

l 19 17

l 29 17

l 26 29

l 20 26

l 20 25

l 25 22

l 17 22

l 23 22

l 26 27

l 27 28

l 28 29

g Mesh7 DES021 Model

l 14 15

l 13 14

l 16 13

l 15 16

