# Alias OBJ Model File
# Exported from SketchUp, (c) 2000-2012 Trimble Navigation Limited
# File units = meters

mtllib DES012.mtl

g Mesh1 Group1 DES012 Model

usemtl FrontColor
v 37.7714 5.54416 -38.6927
vt 0 39.7244
vn -1 0 -0
v 37.7714 5.49729 -38.7523
vt -2.34828 37.8791
v 37.7714 4.53516 -38.6927
vt 0 0
f 1/1/1 2/2/1 3/3/1

v 37.7714 5.54416 -39.7017
vt -39.7244 39.7244
f 2/2/1 1/1/1 4/4/1

usemtl BackColor
vn 1 -0 0
f 3/3/2 2/2/2 1/1/2

usemtl FrontColor
v 37.7714 4.60429 -38.7523
vt -2.34828 2.72165
f 5/5/1 3/3/1 2/2/1

v 37.7714 4.53516 -39.7017
vt -39.7244 0
f 3/3/1 5/5/1 6/6/1

usemtl BackColor
f 6/6/2 5/5/2 3/3/2

usemtl FrontColor
v 37.7714 4.60429 -39.6453
vt -37.5058 2.72165
f 6/6/1 5/5/1 7/7/1

usemtl BackColor
f 7/7/2 5/5/2 6/6/2

usemtl Translucent_Glass_Blue
v 37.7714 5.49729 -39.6453
vt -37.5058 37.8791
f 5/5/1 8/8/1 7/7/1

f 8/8/1 5/5/1 2/2/1

f 2/2/2 5/5/2 8/8/2

usemtl BackColor
f 2/2/2 3/3/2 5/5/2

usemtl FrontColor
vt 0 2.72165
vn 0 0 1
v 38.0564 5.49729 -38.7523
vt 11.2234 37.8791
vt 0 37.8791
f 5/9/3 9/10/3 2/11/3

v 38.0564 4.60429 -38.7523
vt 11.2234 2.72165
f 9/10/3 5/9/3 10/12/3

usemtl _7
vt -8.19217 6.99587
vn -0 -0 -1
vt -8.0991 6.99587
vt -8.19217 6.81244
f 10/13/4 5/14/4 9/15/4

usemtl FrontColor
vt 0 2.34828
vn 0 -1 -0
v 38.0564 4.60429 -39.6453
vt -11.2234 37.5058
vt -11.2234 2.34828
f 5/16/5 11/17/5 10/18/5

vt 0 37.5058
f 11/17/5 5/16/5 7/19/5

usemtl _7
vt -8.0991 7.17929
vn -0 1 0
vt -8.19217 7.17929
f 7/20/6 5/14/6 11/21/6

usemtl Translucent_Glass_Blue
f 7/7/2 8/8/2 5/5/2

usemtl FrontColor
f 8/8/1 4/4/1 7/7/1

f 2/2/1 4/4/1 8/8/1

usemtl BackColor
f 4/4/2 1/1/2 2/2/2

f 8/8/2 4/4/2 2/2/2

f 7/7/2 4/4/2 8/8/2

usemtl FrontColor
f 6/6/1 7/7/1 4/4/1

usemtl BackColor
f 4/4/2 7/7/2 6/6/2

usemtl FrontColor
vn 0 0 -1
vt -11.2234 2.72165
f 8/11/7 11/22/7 7/9/7

v 38.0564 5.49729 -39.6453
vt -11.2234 37.8791
f 11/22/7 8/11/7 12/23/7

usemtl _7
vn -0 -0 1
vt -8.0991 7.36272
f 7/20/8 11/21/8 8/24/8

vt -8.19217 7.36272
f 12/25/8 8/24/8 11/21/8

usemtl FrontColor
vn 0 1 -0
vt 11.2234 2.34828
vt 11.2234 37.5058
f 8/19/9 9/26/9 12/27/9

f 9/26/9 8/19/9 2/16/9

usemtl _7
vt -8.0991 7.54615
vn -0 -1 0
vt -8.19217 7.54615
f 2/28/10 8/24/10 9/29/10

f 12/25/10 9/29/10 8/24/10

usemtl Translucent_Glass_Blue
vt 2.34828 37.8791
vn 1 0 -0
vt 37.5058 2.72165
vt 37.5058 37.8791
f 9/30/11 11/31/11 12/32/11

vt 2.34828 2.72165
f 11/31/11 9/30/11 10/33/11

vn -1 -0 0
f 10/33/12 9/30/12 11/31/12

usemtl FrontColor
v 38.0564 5.54416 -38.6927
f 9/30/11 13/1/11 10/33/11

v 38.0564 5.54416 -39.7017
vt 39.7244 39.7244
f 13/1/11 9/30/11 14/34/11

usemtl BackColor
f 14/34/12 9/30/12 13/1/12

usemtl FrontColor
f 14/34/11 9/30/11 12/32/11

usemtl BackColor
f 12/32/12 9/30/12 14/34/12

usemtl Translucent_Glass_Blue
f 12/32/12 11/31/12 9/30/12

usemtl FrontColor
v 38.0564 4.53516 -39.7017
vt 39.7244 0
f 11/31/11 15/35/11 12/32/11

f 10/33/11 15/35/11 11/31/11

v 38.0564 4.53516 -38.6927
f 10/33/11 16/3/11 15/35/11

f 16/3/11 10/33/11 13/1/11

usemtl BackColor
f 13/1/12 10/33/12 16/3/12

f 10/33/12 13/1/12 9/30/12

f 15/35/12 16/3/12 10/33/12

f 11/31/12 15/35/12 10/33/12

f 12/32/12 15/35/12 11/31/12

usemtl FrontColor
f 14/34/11 12/32/11 15/35/11

usemtl BackColor
f 15/35/12 12/32/12 14/34/12

usemtl _7
f 10/13/6 11/21/6 5/14/6

vt -8.0991 6.81244
f 2/36/4 9/15/4 5/14/4

g Mesh2 Group1 DES012 Model

l 4 1

l 6 4

l 3 6

l 1 3

g Mesh3 Group1 DES012 Model

l 8 2

l 7 8

l 5 7

l 2 5

l 9 2

l 9 10

l 12 9

l 12 8

l 11 12

l 11 7

l 10 11

l 10 5

g Mesh4 Group1 DES012 Model

l 13 14

l 13 16

l 16 15

l 15 14

g Mesh5 DES012 Model

usemtl Color_D03
v 35.3132 3.441 -42.2176
vt 121.584 -3.7712e-016
vn 0.752146 -5.16703e-018 0.658997
v 34.6724 6.444 -41.4863
vt 83.3023 118.228
v 34.6724 3.441 -41.4863
vt 83.3023 -3.7712e-016
f 17/37/13 18/38/13 19/39/13

v 35.3132 6.444 -42.2176
vt 121.584 118.228
f 18/38/13 17/37/13 20/40/13

usemtl BackColor
vn -0.752146 5.16703e-018 -0.658997
f 19/39/14 18/38/14 17/37/14

usemtl Color_D03
vt 110.753 118.228
vn 1 -1.79928e-015 9.89972e-016
v 34.6724 5.656 -39.7097
vt 40.8097 87.2047
vt 110.753 6.2094e-028
f 18/41/15 21/42/15 19/43/15

v 34.6724 5.656 -38.9464
vt 10.7579 87.2047
f 18/41/15 22/44/15 21/42/15

v 34.6724 6.444 -38.6732
vt 4.50187e-028 118.228
f 23/45/15 22/44/15 18/41/15

v 34.6724 3.441 -38.9464
vt 10.7579 -1.91624e-029
f 23/45/15 24/46/15 22/44/15

v 34.6724 3.441 -38.6732
vt 4.50187e-028 8.18217e-028
f 24/46/15 23/45/15 25/47/15

usemtl BackColor
vn -1 1.79928e-015 -9.89972e-016
f 25/47/16 23/45/16 24/46/16

usemtl Color_D03
vt -4.54747e-013 118.228
v 37.7714 3.441 -38.6732
vt -122.007 0
vt -4.54747e-013 0
f 23/48/7 26/49/7 25/50/7

v 37.7714 6.444 -38.6732
vt -122.007 118.228
f 26/49/7 23/48/7 27/51/7

usemtl BackColor
f 25/50/8 26/49/8 23/48/8

usemtl _Tile_Ceramic_Natural_15
vt 33.4585 37.559
vt 33.4585 35.5638
vt 35.6563 35.5638
f 19/52/9 25/53/9 26/54/9

v 34.6724 3.441 -39.7097
vt 33.4585 36.299
f 28/55/9 25/53/9 19/52/9

vt 33.4585 35.7576
f 25/53/9 28/55/9 24/56/9

usemtl BackColor
vt 0 10.7579
vt 0 40.8097
vt 4.54747e-013 0
f 24/57/10 28/58/10 25/59/10

vt 4.54747e-013 110.753
f 19/60/10 25/59/10 28/58/10

vt 122.007 0
f 26/61/10 25/59/10 19/60/10

usemtl _Tile_Ceramic_Natural_15
vt 33.9129 38.0777
f 19/52/9 26/54/9 17/62/9

usemtl BackColor
vt 25.2278 139.547
f 17/63/10 26/61/10 19/60/10

usemtl _Tile_Ceramic_Natural_15
v 37.7714 3.441 -42.2176
vt 35.6563 38.0777
f 17/62/9 26/54/9 29/64/9

usemtl BackColor
vt 122.007 139.547
f 29/65/10 26/61/10 17/63/10

usemtl Color_D03
vt -0.768262 43.0772
vt -139.547 0
f 26/3/1 3/66/1 29/67/1

vt -0.768262 82.8016
f 3/66/1 26/3/1 1/68/1

usemtl BackColor
f 29/67/2 3/66/2 26/3/2

usemtl Color_D03
vt -40.4927 43.0772
f 29/67/1 3/66/1 6/69/1

usemtl BackColor
f 6/69/2 3/66/2 29/67/2

usemtl Color_D03
v 37.7714 6.444 -42.2176
vt -139.547 118.228
f 29/67/1 6/69/1 30/70/1

usemtl BackColor
f 30/70/2 6/69/2 29/67/2

usemtl Color_D03
vt -40.4927 82.8016
f 4/71/1 30/70/1 6/69/1

f 1/68/1 30/70/1 4/71/1

vt 0 118.228
f 1/68/1 27/72/1 30/70/1

f 27/72/1 1/68/1 26/3/1

usemtl BackColor
f 26/3/2 1/68/2 27/72/2

f 1/68/2 26/3/2 3/66/2

f 30/70/2 27/72/2 1/68/2

f 4/71/2 30/70/2 1/68/2

f 6/69/2 30/70/2 4/71/2

f 27/51/8 23/48/8 26/49/8

usemtl Color_D03
v 37.3592 6.444 -38.6732
vt -105.782 118.228
f 27/51/7 23/48/7 31/73/7

usemtl BackColor
f 31/73/8 23/48/8 27/51/8

usemtl Color_D03
vt 122.007 118.228
vt 25.2278 0
f 30/74/3 17/75/3 29/61/3

vt 25.2278 118.228
f 17/75/3 30/74/3 20/76/3

usemtl BackColor
f 29/61/4 17/75/4 30/74/4

f 20/76/4 30/74/4 17/75/4

f 20/40/14 17/37/14 18/38/14

usemtl Color_D03
vt 40.8097 -7.26917e-029
f 19/43/15 21/42/15 28/77/15

usemtl BackColor
f 28/77/16 21/42/16 19/43/16

f 19/43/16 21/42/16 18/41/16

f 21/42/16 22/44/16 18/41/16

f 18/41/16 22/44/16 23/45/16

f 22/44/16 24/46/16 23/45/16

g Mesh6 DES012 Model

l 17 19

l 17 20

l 29 17

l 29 30

l 26 29

l 26 25

l 26 27

l 31 27

l 31 23

l 23 18

l 25 23

l 25 24

l 24 22

l 24 28

l 21 28

l 22 21

l 28 19

l 19 18

l 20 18

l 30 20

l 27 30

g Mesh7 DES012 Model

l 4 1

l 6 4

l 3 6

l 1 3

