# Alias OBJ Model File
# Exported from SketchUp, (c) 2000-2012 Trimble Navigation Limited
# File units = meters

mtllib DES040.mtl

g Mesh1 Group1 DES040 Model

usemtl FrontColor
v 8.77911 5.54416 -15.0848
vt 0 39.7244
vn -1 0 -0
v 8.77911 5.48296 -15.1266
vt -1.64622 37.3149
v 8.77911 4.53516 -15.0848
vt 0 0
f 1/1/1 2/2/1 3/3/1

v 8.77911 5.54416 -16.0938
vt -39.7244 39.7244
f 2/2/1 1/1/1 4/4/1

usemtl BackColor
vn 1 -0 0
f 3/3/2 2/2/2 1/1/2

usemtl FrontColor
v 8.77911 4.60396 -15.1266
vt -1.64622 2.70857
f 5/5/1 3/3/1 2/2/1

v 8.77911 4.53516 -16.0938
vt -39.7244 0
f 3/3/1 5/5/1 6/6/1

usemtl BackColor
f 6/6/2 5/5/2 3/3/2

usemtl FrontColor
v 8.77911 4.60396 -16.0386
vt -37.5517 2.70857
f 6/6/1 5/5/1 7/7/1

usemtl BackColor
f 7/7/2 5/5/2 6/6/2

usemtl _7
v 9.04946 4.60396 -16.0386
vt -0.339165 13.4809
vn 0 -1 -0
vt -0.2509 13.2936
vt -0.2509 13.4809
f 8/8/3 5/9/3 7/10/3

v 9.04946 4.60396 -15.1266
vt -0.339165 13.2936
f 5/9/3 8/8/3 9/11/3

usemtl BackColor
vt 0 37.5517
vn -0 1 0
vt 0 1.64622
vt -10.6439 37.5517
f 7/12/4 5/13/4 8/14/4

usemtl Translucent_Glass_Blue
v 8.77911 5.48296 -16.0386
vt -37.5517 37.3149
f 5/5/1 10/15/1 7/7/1

f 10/15/1 5/5/1 2/2/1

f 2/2/2 5/5/2 10/15/2

usemtl BackColor
f 2/2/2 3/3/2 5/5/2

usemtl Translucent_Glass_Blue
f 7/7/2 10/15/2 5/5/2

usemtl FrontColor
f 10/15/1 4/4/1 7/7/1

f 2/2/1 4/4/1 10/15/1

usemtl BackColor
f 4/4/2 1/1/2 2/2/2

f 10/15/2 4/4/2 2/2/2

f 7/7/2 4/4/2 10/15/2

usemtl FrontColor
f 6/6/1 7/7/1 4/4/1

usemtl BackColor
f 4/4/2 7/7/2 6/6/2

usemtl _7
vt -0.2509 7.02057
vn 0 0 -1
vt -0.339165 6.84002
vt -0.2509 6.84002
f 10/16/5 8/17/5 7/18/5

v 9.04946 5.48296 -16.0386
vt -0.339165 7.02057
f 8/17/5 10/16/5 11/19/5

usemtl BackColor
vt 0 2.70857
vn -0 -0 1
vt -10.6439 2.70857
vt 0 37.3149
f 7/20/6 8/21/6 10/22/6

vt -10.6439 37.3149
f 11/23/6 10/22/6 8/21/6

usemtl Translucent_Glass_Blue
v 9.04946 5.48296 -15.1266
vt 1.64622 37.3149
vn 1 0 -0
vt 37.5517 2.70857
vt 37.5517 37.3149
f 12/24/7 8/25/7 11/26/7

vt 1.64622 2.70857
f 8/25/7 12/24/7 9/27/7

vn -1 -0 0
f 9/27/8 12/24/8 8/25/8

usemtl FrontColor
v 9.04946 5.54416 -15.0848
f 12/24/7 13/1/7 9/27/7

v 9.04946 5.54416 -16.0938
vt 39.7244 39.7244
f 13/1/7 12/24/7 14/28/7

usemtl BackColor
f 14/28/8 12/24/8 13/1/8

usemtl FrontColor
f 14/28/7 12/24/7 11/26/7

usemtl BackColor
f 11/26/8 12/24/8 14/28/8

usemtl Translucent_Glass_Blue
f 11/26/8 8/25/8 12/24/8

usemtl FrontColor
v 9.04946 4.53516 -16.0938
vt 39.7244 0
f 8/25/7 15/29/7 11/26/7

f 9/27/7 15/29/7 8/25/7

v 9.04946 4.53516 -15.0848
f 9/27/7 16/3/7 15/29/7

f 16/3/7 9/27/7 13/1/7

usemtl BackColor
f 13/1/8 9/27/8 16/3/8

f 9/27/8 13/1/8 12/24/8

f 15/29/8 16/3/8 9/27/8

f 8/25/8 15/29/8 9/27/8

f 11/26/8 15/29/8 8/25/8

usemtl FrontColor
f 14/28/7 11/26/7 15/29/7

usemtl BackColor
f 15/29/8 11/26/8 14/28/8

vt -10.6439 1.64622
f 9/30/4 8/14/4 5/13/4

g Mesh2 Group1 DES040 Model

l 1 4

l 3 1

l 3 6

l 4 6

g Mesh3 Group1 DES040 Model

l 10 2

l 7 10

l 5 7

l 2 5

l 5 9

l 9 8

l 12 9

l 11 12

l 10 11

l 8 11

l 7 8

g Mesh4 Group1 DES040 Model

l 15 16

l 14 15

l 14 13

l 13 16

g Mesh5 DES040 Model

usemtl _Tile_Ceramic_Natural_15
v 11.7399 3.441 -14.924
vt 17.1943 18.7204
vn 1.26503e-016 1 6.82751e-017
v 9.04946 3.441 -17.3228
vt 15.2862 20.4218
v 9.04946 3.441 -14.924
vt 15.2862 18.7204
f 17/31/9 18/32/9 19/33/9

v 11.7399 3.441 -15.1554
vt 17.1943 18.8845
f 18/32/9 17/31/9 20/34/9

usemtl BackColor
vt 10.6439 2.03243e-030
vn -1.26503e-016 -1 -6.82751e-017
vt 10.6439 94.4439
vt 116.565 2.94727e-030
f 19/35/10 18/36/10 17/37/10

usemtl Color_D03
vt 6.33333 43.0772
vn 1 8.10042e-018 -0
vt 0 2.83355e-014
vt 94.4439 2.83355e-014
f 16/38/11 19/39/11 18/40/11

v 9.04946 6.444 -14.924
vt 0 118.228
f 19/39/11 16/38/11 21/41/11

usemtl BackColor
vn -1 -8.10042e-018 0
f 21/41/12 16/38/12 19/39/12

usemtl Color_D03
vt 6.33333 82.8016
f 13/42/11 21/41/11 16/38/11

v 9.04946 6.444 -17.3228
vt 94.4439 118.228
f 21/41/11 13/42/11 22/43/11

usemtl BackColor
f 22/43/12 13/42/12 21/41/12

usemtl Color_D03
vt 46.0577 82.8016
f 22/43/11 13/42/11 14/44/11

usemtl BackColor
f 14/44/12 13/42/12 22/43/12

usemtl Color_D03
f 22/43/11 14/44/11 18/40/11

usemtl BackColor
f 18/40/12 14/44/12 22/43/12

usemtl Color_D03
vt 46.0577 43.0772
f 15/45/11 18/40/11 14/44/11

f 16/38/11 18/40/11 15/45/11

usemtl BackColor
f 18/40/12 19/39/12 16/38/12

f 15/45/12 18/40/12 16/38/12

f 14/44/12 18/40/12 15/45/12

usemtl Color_D03
vt 10.6439 2.6808e-014
vn 0 -1.70862e-017 1
v 11.7399 6.444 -17.3228
vt 116.565 118.228
vt 10.6439 118.228
f 18/46/13 23/47/13 22/48/13

v 11.7399 3.441 -17.3228
vt 116.565 2.6808e-014
f 23/47/13 18/46/13 24/49/13

usemtl BackColor
vn -0 1.70862e-017 -1
f 24/49/14 18/46/14 23/47/14

usemtl _Tile_Ceramic_Natural_15
v 11.7399 3.441 -15.8838
vt 17.1943 19.4012
vt 17.1943 20.4218
f 18/32/9 25/50/9 24/51/9

f 25/50/9 18/32/9 20/34/9

usemtl BackColor
vt 116.565 94.4439
vt 116.565 37.7893
f 24/52/10 25/53/10 18/36/10

usemtl Color_D03
vt -37.7893 2.64216e-014
vn -1 2.26669e-016 -1.3655e-016
vt -94.4439 118.228
vt -94.4439 5.48433e-014
f 25/54/15 23/55/15 24/56/15

v 11.7399 5.656 -15.8838
vt -37.7893 87.2047
f 26/57/15 23/55/15 25/54/15

v 11.7399 5.656 -15.1554
vt -9.10971 87.2047
f 27/58/15 23/55/15 26/57/15

v 11.7399 6.444 -14.924
vt -1.59169e-014 118.228
f 27/58/15 28/59/15 23/55/15

vt -1.59169e-014 5.48433e-014
f 28/59/15 27/58/15 17/60/15

usemtl BackColor
vn 1 -2.26669e-016 1.3655e-016
f 17/60/16 27/58/16 28/59/16

usemtl Color_D03
vt -9.10971 2.64216e-014
f 20/61/15 17/60/15 27/58/15

usemtl BackColor
vt 116.565 9.10971
f 20/62/10 17/37/10 18/36/10

f 27/58/16 17/60/16 20/61/16

f 20/62/10 18/36/10 25/53/10

f 23/55/16 28/59/16 27/58/16

f 26/57/16 23/55/16 27/58/16

f 25/54/16 23/55/16 26/57/16

f 24/56/16 23/55/16 25/54/16

usemtl Color_D03
vt -116.565 2.84217e-014
vn 0 1.70862e-017 -1
vt -10.6439 118.228
vt -116.565 118.228
f 17/63/17 21/64/17 28/65/17

vt -10.6439 2.84217e-014
f 21/64/17 17/63/17 19/66/17

usemtl BackColor
vn -0 -1.70862e-017 1
f 19/66/18 17/63/18 21/64/18

f 28/65/18 21/64/18 17/63/18

f 22/48/14 23/47/14 18/46/14

f 16/38/12 21/41/12 13/42/12

g Mesh6 DES040 Model

l 19 18

l 17 19

l 20 17

l 25 20

l 24 25

l 24 18

l 24 23

l 23 28

l 23 22

l 18 22

l 21 22

l 19 21

l 28 21

l 17 28

l 25 26

l 27 26

l 27 20

g Mesh7 DES040 Model

l 13 14

l 16 13

l 15 16

l 14 15

