# Alias OBJ Model File
# Exported from SketchUp, (c) 2000-2012 Trimble Navigation Limited
# File units = meters

mtllib DES047.mtl

g Mesh1 Group1 DES047 Model

usemtl Translucent_Glass_Blue
v 17.2072 4.60396 -31.1369
vt 37.5517 2.70857
vn 1 0 -0
v 17.2072 5.48296 -30.2249
vt 1.64622 37.3149
v 17.2072 4.60396 -30.2249
vt 1.64622 2.70857
f 1/1/1 2/2/1 3/3/1

v 17.2072 5.48296 -31.1369
vt 37.5517 37.3149
f 2/2/1 1/1/1 4/4/1

vn -1 -0 0
f 3/3/2 2/2/2 1/1/2

usemtl FrontColor
v 17.2072 5.54416 -30.1831
vt 0 39.7244
f 2/2/1 5/5/1 3/3/1

v 17.2072 5.54416 -31.1921
vt 39.7244 39.7244
f 5/5/1 2/2/1 6/6/1

usemtl BackColor
f 6/6/2 2/2/2 5/5/2

usemtl FrontColor
f 6/6/1 2/2/1 4/4/1

usemtl BackColor
f 4/4/2 2/2/2 6/6/2

usemtl Translucent_Glass_Blue
f 4/4/2 1/1/2 2/2/2

usemtl FrontColor
v 17.2072 4.53516 -31.1921
vt 39.7244 0
f 1/1/1 7/7/1 4/4/1

f 3/3/1 7/7/1 1/1/1

v 17.2072 4.53516 -30.1831
vt 0 0
f 3/3/1 8/8/1 7/7/1

f 8/8/1 3/3/1 5/5/1

usemtl BackColor
f 5/5/2 3/3/2 8/8/2

f 3/3/2 5/5/2 2/2/2

usemtl _7
vt 8.23304 6.65269
vn 0 0 -1
v 16.6456 5.48296 -30.2249
vt 8.0497 6.47214
vt 8.23304 6.47214
f 3/9/3 9/10/3 2/11/3

v 16.6456 4.60396 -30.2249
vt 8.0497 6.65269
f 9/10/3 3/9/3 10/12/3

usemtl BackColor
vt -5.68434e-013 2.70857
vn -0 -0 1
vt -22.1094 2.70857
vt -5.68434e-013 37.3149
f 10/13/4 3/14/4 9/15/4

usemtl _7
vn 0 1 -0
v 16.6456 4.60396 -31.1369
vt 8.0497 6.84002
f 3/9/5 11/16/5 10/12/5

vt 8.23304 6.84002
f 11/16/5 3/9/5 1/17/5

usemtl BackColor
vt 5.68434e-013 1.64622
vn -0 -1 0
vt 5.68434e-013 37.5517
vt 22.1094 1.64622
f 10/18/6 11/19/6 3/20/6

usemtl FrontColor
v 16.6456 4.53516 -31.1921
vt -39.7244 0
vn -1 0 -0
vt -1.64622 2.70857
vt -37.5517 2.70857
f 12/21/7 10/22/7 11/23/7

v 16.6456 4.53516 -30.1831
f 13/8/7 10/22/7 12/21/7

vt -1.64622 37.3149
f 10/22/7 13/8/7 9/24/7

usemtl BackColor
vn 1 -0 0
f 12/21/8 10/22/8 13/8/8

f 11/23/8 10/22/8 12/21/8

usemtl Translucent_Glass_Blue
v 16.6456 5.48296 -31.1369
vt -37.5517 37.3149
f 10/22/7 14/25/7 11/23/7

f 14/25/7 10/22/7 9/24/7

f 9/24/8 10/22/8 14/25/8

usemtl BackColor
f 9/24/8 13/8/8 10/22/8

usemtl FrontColor
v 16.6456 5.54416 -30.1831
f 15/5/7 9/24/7 13/8/7

v 16.6456 5.54416 -31.1921
vt -39.7244 39.7244
f 9/24/7 15/5/7 16/26/7

usemtl BackColor
f 13/8/8 9/24/8 15/5/8

f 16/26/8 15/5/8 9/24/8

usemtl FrontColor
f 9/24/7 16/26/7 14/25/7

usemtl BackColor
f 14/25/8 16/26/8 9/24/8

usemtl FrontColor
f 14/25/7 16/26/7 11/23/7

usemtl BackColor
f 11/23/8 16/26/8 14/25/8

usemtl FrontColor
f 12/21/7 11/23/7 16/26/7

usemtl BackColor
f 16/26/8 11/23/8 12/21/8

usemtl Translucent_Glass_Blue
f 11/23/8 14/25/8 10/22/8

usemtl _7
vn 0 0 1
vt 8.23304 7.02057
vt 8.0497 7.02057
f 11/16/9 4/27/9 14/28/9

f 4/27/9 11/16/9 1/17/9

usemtl BackColor
vt 22.1094 2.70857
vn -0 -0 -1
vt 5.68434e-013 2.70857
vt 22.1094 37.3149
f 1/29/10 11/30/10 4/31/10

vt 22.1094 37.5517
f 1/32/6 3/20/6 11/19/6

f 1/1/2 7/7/2 3/3/2

f 4/4/2 7/7/2 1/1/2

usemtl FrontColor
f 6/6/1 4/4/1 7/7/1

usemtl BackColor
f 7/7/2 4/4/2 6/6/2

f 7/7/2 8/8/2 3/3/2

vt 5.68434e-013 37.3149
f 14/33/10 4/31/10 11/30/10

usemtl _7
vt 8.23304 6.28481
vn 0 -1 -0
vt 8.0497 6.28481
f 4/34/11 9/10/11 14/35/11

f 9/10/11 4/34/11 2/11/11

usemtl BackColor
vt -5.68434e-013 37.5517
vn -0 1 0
vt -5.68434e-013 1.64622
vt -22.1094 37.5517
f 14/36/12 9/37/12 4/38/12

vt -22.1094 1.64622
f 2/39/12 4/38/12 9/37/12

vt -22.1094 37.3149
f 2/40/4 9/15/4 3/14/4

g Mesh2 Group1 DES047 Model

l 14 9

l 11 14

l 10 11

l 9 10

l 2 9

l 4 2

l 4 14

l 1 4

l 1 11

l 3 1

l 3 10

l 2 3

g Mesh3 Group1 DES047 Model

l 5 8

l 6 5

l 6 7

l 7 8

g Mesh4 Group1 DES047 Model

l 15 13

l 16 15

l 16 12

l 12 13

g Mesh5 DES047 Model

usemtl _Tile_Ceramic_Natural_15
v 14.4106 3.441 -29.2739
vt 19.0884 28.8977
vn 7.00453e-016 1 -5.46692e-016
v 13.5406 3.441 -31.2725
vt 18.4714 30.3152
v 13.5406 3.441 -30.1439
vt 18.4714 29.5147
f 17/41/13 18/42/13 19/43/13

v 13.5406 3.441 -31.9637
vt 18.4714 30.8054
f 18/42/13 17/41/13 20/44/13

usemtl BackColor
vt -7.96323e-029 34.2535
vn -7.00453e-016 -1 5.46692e-016
vt 1.13687e-013 78.6863
vt 34.2535 -7.52685e-029
f 19/45/14 18/46/14 17/47/14

usemtl Color_D03
vt 78.6863 1.42109e-013
vn 1 3.83893e-016 5.26935e-016
v 13.5406 3.451 -30.1439
vt 34.2535 0.393701
vt 34.2535 1.13687e-013
f 18/48/15 21/49/15 19/50/15

v 13.5406 6.444 -30.1439
vt 34.2535 118.228
f 21/49/15 18/48/15 22/51/15

usemtl BackColor
vn -1 -3.83893e-016 -5.26935e-016
f 19/50/16 21/49/16 18/48/16

usemtl Color_D03
vt 24.2209 0.393701
vn 0.707107 1.78096e-017 -0.707107
vt -24.2209 1.13255e-013
vt 24.2209 1.13255e-013
f 21/52/17 17/53/17 19/54/17

v 14.4106 6.444 -29.2739
vt -24.2209 118.228
f 17/53/17 21/52/17 23/55/17

usemtl BackColor
vn -0.707107 -1.78096e-017 0.707107
f 19/54/18 17/53/18 21/52/18

f 23/55/18 21/52/18 17/53/18

usemtl Color_D03
vt 24.2209 118.228
f 23/55/17 21/52/17 22/56/17

usemtl BackColor
f 22/56/18 21/52/18 23/55/18

f 22/51/16 18/48/16 21/49/16

usemtl Color_D03
v 13.5406 5.656 -31.2725
vt 78.6863 87.2047
f 22/51/15 18/48/15 24/57/15

usemtl BackColor
f 24/57/16 18/48/16 22/51/16

usemtl Color_D03
v 13.5406 6.444 -32.0812
vt 110.522 118.228
f 22/51/15 24/57/15 25/58/15

usemtl BackColor
f 25/58/16 24/57/16 22/51/16

usemtl Color_D03
v 13.5406 5.656 -31.9637
vt 105.898 87.2047
f 25/58/15 24/57/15 26/59/15

usemtl BackColor
f 26/59/16 24/57/16 25/58/16

usemtl Color_D03
v 13.5406 3.441 -32.0812
vt 110.522 2.23572e-029
f 25/58/15 26/59/15 27/60/15

usemtl BackColor
f 27/60/16 26/59/16 25/58/16

usemtl Color_D03
vt 105.898 1.42109e-013
f 27/60/15 26/59/15 20/61/15

usemtl BackColor
f 20/61/16 26/59/16 27/60/16

usemtl _Tile_Ceramic_Natural_15
v 16.6456 3.441 -32.0812
vt 20.6736 30.8887
vt 18.4714 30.8887
f 20/44/13 28/62/13 27/63/13

f 28/62/13 20/44/13 17/41/13

usemtl BackColor
vt 0 110.522
vt 122.247 110.522
vt 1.13687e-013 105.898
f 27/64/14 28/65/14 20/66/14

usemtl Color_D03
v 16.6456 6.444 -32.0812
vt 122.247 118.228
vn 0 -1.70862e-017 1
vt 0 -1.8884e-015
vt 122.247 -1.8884e-015
f 29/67/19 27/68/19 28/69/19

vt 0 118.228
f 27/68/19 29/67/19 25/70/19

usemtl BackColor
vn -0 1.70862e-017 -1
f 28/69/20 27/68/20 29/67/20

f 25/70/20 29/67/20 27/68/20

usemtl Color_D03
vt -110.522 0
vt -75.5179 43.0772
vt -110.522 118.228
f 28/71/7 12/72/7 29/73/7

vt -35.7935 43.0772
f 28/71/7 13/74/7 12/72/7

v 16.6456 3.441 -29.2739
vt 0 5.68434e-014
f 30/75/7 13/74/7 28/71/7

vt -35.7935 82.8016
f 13/74/7 30/75/7 15/76/7

usemtl BackColor
f 28/71/8 13/74/8 30/75/8

f 12/72/8 13/74/8 28/71/8

f 29/73/8 12/72/8 28/71/8

usemtl Color_D03
vt -75.5179 82.8016
f 16/77/7 29/73/7 12/72/7

f 15/76/7 29/73/7 16/77/7

v 16.6456 6.444 -29.2739
f 15/76/7 31/70/7 29/73/7

f 31/70/7 15/76/7 30/75/7

usemtl BackColor
f 30/75/8 15/76/8 31/70/8

f 15/76/8 30/75/8 13/74/8

f 29/73/8 31/70/8 15/76/8

f 16/77/8 29/73/8 15/76/8

f 12/72/8 29/73/8 16/77/8

usemtl Color_D03
vt -34.2535 1.13687e-013
vn 1.10376e-032 1.70862e-017 -1
vt -122.247 118.228
vt -122.247 5.68434e-014
f 17/78/21 31/79/21 30/80/21

vt -34.2535 118.228
f 31/79/21 17/78/21 23/81/21

usemtl BackColor
vn -1.10376e-032 -1.70862e-017 1
f 30/80/22 31/79/22 17/78/22

f 23/81/22 17/78/22 31/79/22

usemtl _Tile_Ceramic_Natural_15
vt 20.6736 28.8977
f 28/62/13 17/41/13 30/82/13

usemtl BackColor
f 17/47/14 20/66/14 28/65/14

f 20/66/14 17/47/14 18/46/14

vt 122.247 -7.78881e-029
f 30/83/14 17/47/14 28/65/14

g Mesh6 DES047 Model

l 30 28

l 17 30

l 17 19

l 17 23

l 23 22

l 23 31

l 30 31

l 31 29

l 28 29

l 28 27

l 27 20

l 27 25

l 25 22

l 29 25

l 21 22

l 19 21

l 18 19

l 20 18

l 26 20

l 26 24

l 18 24

g Mesh7 DES047 Model

l 16 15

l 16 12

l 12 13

l 15 13

