# Alias OBJ Model File
# Exported from SketchUp, (c) 2000-2012 Trimble Navigation Limited
# File units = meters

mtllib DES031.mtl

g Mesh1 Group2 Group1 Model

usemtl FrontColor
v 6.95368 4.53516 -38.7835
vt 0 0
vn 0 0 -1
v 7.01004 4.60429 -38.7835
vt -2.21865 2.72165
v 7.96268 4.53516 -38.7835
vt -39.7244 0
f 1/1/1 2/2/1 3/3/1

v 6.95368 5.54416 -38.7835
vt 0 39.7244
f 2/2/1 1/1/1 4/4/1

usemtl BackColor
vn -0 -0 1
f 3/3/2 2/2/2 1/1/2

usemtl FrontColor
v 7.90304 4.60429 -38.7835
vt -37.3761 2.72165
f 5/5/1 3/3/1 2/2/1

v 7.96268 5.54416 -38.7835
vt -39.7244 39.7244
f 3/3/1 5/5/1 6/6/1

usemtl BackColor
f 6/6/2 5/5/2 3/3/2

usemtl FrontColor
v 7.90304 5.49729 -38.7835
vt -37.3761 37.8791
f 6/6/1 5/5/1 7/7/1

usemtl BackColor
f 7/7/2 5/5/2 6/6/2

usemtl _7
v 7.90304 5.49729 -38.4887
vt 15.181 7.02351
vn 1 0 -0
vt 15.2772 6.84009
vt 15.2772 7.02351
f 8/8/3 5/9/3 7/10/3

v 7.90304 4.60429 -38.4887
vt 15.181 6.84009
f 5/9/3 8/8/3 9/11/3

vt 0.558164 13.8001
vn -1 -0 0
vt 0.266619 13.8001
vt 0.558164 13.8606
f 9/12/4 8/13/4 5/14/4

usemtl FrontColor
vt 37.3761 2.72165
vn 0 0 1
v 7.96268 5.54416 -38.4887
vt 39.7244 39.7244
vt 37.3761 37.8791
f 9/15/5 10/16/5 8/17/5

v 7.96268 4.53516 -38.4887
vt 39.7244 0
f 9/15/5 11/18/5 10/16/5

v 6.95368 4.53516 -38.4887
f 11/18/5 9/15/5 12/1/5

usemtl BackColor
vn -0 -0 -1
f 12/1/6 9/15/6 11/18/6

usemtl FrontColor
v 7.01004 4.60429 -38.4887
vt 2.21865 2.72165
f 13/19/5 12/1/5 9/15/5

v 6.95368 5.54416 -38.4887
f 12/1/5 13/19/5 14/4/5

usemtl BackColor
f 14/4/6 13/19/6 12/1/6

usemtl FrontColor
v 7.01004 5.49729 -38.4887
vt 2.21865 37.8791
f 14/4/5 13/19/5 15/20/5

usemtl BackColor
f 15/20/6 13/19/6 14/4/6

usemtl _7
v 7.01004 5.49729 -38.7835
vt -10.0466 7.02351
vn -1 0 -0
vt -9.95041 6.84009
vt -9.95041 7.02351
f 16/21/7 13/22/7 15/23/7

vt -10.0466 6.84009
f 13/22/7 16/21/7 2/24/7

vt 1.14125 13.8001
vn 1 -0 0
vt 0.849708 13.8001
vt 1.14125 13.8606
f 15/25/8 13/26/8 16/27/8

usemtl Translucent_Glass_Blue
f 13/19/5 8/17/5 15/20/5

f 8/17/5 13/19/5 9/15/5

f 9/15/6 13/19/6 8/17/6

usemtl BackColor
f 9/15/6 12/1/6 13/19/6

usemtl _7
vn 0 -1 -0
f 13/26/9 5/14/9 9/12/9

vt 0.849708 13.8606
f 5/14/9 13/26/9 2/28/9

vn -0 1 0
f 2/28/10 13/26/10 5/14/10

f 2/28/8 16/27/8 13/26/8

usemtl FrontColor
vt -2.21865 37.8791
f 2/2/1 4/4/1 16/29/1

usemtl BackColor
f 4/4/2 1/1/2 2/2/2

f 16/29/2 4/4/2 2/2/2

usemtl FrontColor
f 16/29/1 4/4/1 7/7/1

usemtl BackColor
f 7/7/2 4/4/2 16/29/2

usemtl FrontColor
f 6/6/1 7/7/1 4/4/1

usemtl BackColor
f 4/4/2 7/7/2 6/6/2

usemtl _7
vt 4.38085 13.8606
vn 0 1 -0
vt 4.67239 13.8001
vt 4.67239 13.8606
f 16/30/11 8/31/11 7/32/11

vt 4.38085 13.8001
f 8/31/11 16/30/11 15/33/11

vt -0.0249249 13.8001
vn -0 -1 0
vt -0.0249249 13.8606
f 15/34/12 16/35/12 8/13/12

vt 0.266619 13.8606
f 7/36/12 8/13/12 16/35/12

f 7/36/4 5/14/4 8/13/4

usemtl Translucent_Glass_Blue
f 5/5/1 16/29/1 7/7/1

f 16/29/1 5/5/1 2/2/1

f 2/2/2 5/5/2 16/29/2

usemtl BackColor
f 2/2/2 3/3/2 5/5/2

usemtl Translucent_Glass_Blue
f 7/7/2 16/29/2 5/5/2

usemtl FrontColor
f 8/17/5 10/16/5 15/20/5

usemtl BackColor
f 8/17/6 10/16/6 9/15/6

f 15/20/6 10/16/6 8/17/6

usemtl FrontColor
f 14/4/5 15/20/5 10/16/5

usemtl BackColor
f 10/16/6 15/20/6 14/4/6

usemtl Translucent_Glass_Blue
f 15/20/6 8/17/6 13/19/6

usemtl BackColor
f 10/16/6 11/18/6 9/15/6

usemtl _7
f 9/12/10 5/14/10 13/26/10

g Mesh2 Group2 Group1 Model

l 8 7

l 8 9

l 15 8

l 15 16

l 13 15

l 13 2

l 9 13

l 9 5

l 5 2

l 5 7

l 16 7

l 2 16

g Mesh3 Group2 Group1 Model

l 6 3

l 4 6

l 1 4

l 3 1

g Mesh4 Group2 Group1 Model

l 10 14

l 10 11

l 11 12

l 12 14

g Mesh5 Group1 Model

usemtl _Tile_Ceramic_Natural_15
v 8.90911 3.441 -38.7835
vt 15.1867 35.6421
vn 1.7852e-015 1 -1.62589e-015
v 6.67854 3.441 -42.2176
vt 13.6047 38.0777
v 6.67854 3.441 -38.7835
vt 13.6047 35.6421
f 17/37/13 18/38/13 19/39/13

v 6.81603 3.441 -42.2176
vt 13.7022 38.0777
f 18/38/13 17/37/13 20/40/13

usemtl BackColor
vt -7.1034e-028 11.6042
vn -1.7852e-015 -1 1.62589e-015
vt -5.07386e-029 146.808
vt 87.8176 11.6042
f 19/41/14 18/42/14 17/43/14

usemtl Color_D03
vt 146.808 2.84217e-014
v 6.67854 6.444 -38.7835
vt 11.6042 118.228
vt 11.6042 3.97904e-013
f 18/44/3 21/45/3 19/46/3

v 6.67854 6.444 -41.9184
vt 135.026 118.228
f 21/45/3 18/44/3 22/47/3

usemtl BackColor
f 19/46/4 21/45/4 18/44/4

usemtl Color_D03
vt 8.34205e-031 118.228
vn 7.1888e-032 1.70862e-017 -1
vt -10.8324 43.0772
vt 8.34205e-031 3.97706e-013
f 21/48/15 1/49/15 19/50/15

vt -10.8324 82.8016
f 1/49/15 21/48/15 4/51/15

usemtl BackColor
vn -7.1888e-032 -1.70862e-017 1
f 19/50/16 1/49/16 21/48/16

usemtl Color_D03
vt -50.5568 43.0772
f 3/52/15 19/50/15 1/49/15

vt -87.8176 2.82234e-014
f 3/52/15 17/53/15 19/50/15

v 8.90911 6.444 -38.7835
vt -87.8176 118.228
f 17/53/15 3/52/15 23/54/15

usemtl BackColor
f 23/54/16 3/52/16 17/53/16

usemtl Color_D03
vt -50.5568 82.8016
f 23/54/15 3/52/15 6/55/15

usemtl BackColor
f 6/55/16 3/52/16 23/54/16

usemtl Color_D03
f 6/55/15 21/48/15 23/54/15

f 4/51/15 21/48/15 6/55/15

usemtl BackColor
f 4/51/16 21/48/16 1/49/16

f 6/55/16 21/48/16 4/51/16

f 23/54/16 21/48/16 6/55/16

f 19/50/16 17/53/16 3/52/16

f 1/49/16 19/50/16 3/52/16

usemtl Color_D03
v 8.90911 6.444 -42.2176
vt -146.808 118.228
vn -1 -8.10042e-018 -0
vt -11.6042 2.77104e-014
vt -11.6042 118.228
f 24/56/17 17/57/17 23/58/17

v 8.90911 3.441 -42.2176
vt -146.808 2.77104e-014
f 17/57/17 24/56/17 25/59/17

usemtl BackColor
vn 1 8.10042e-018 0
f 23/58/18 17/57/18 24/56/18

f 25/59/18 24/56/18 17/57/18

usemtl Color_D03
v 7.5836 5.656 -42.2176
vt 35.6324 87.2047
vn -1.83033e-015 -2.70374e-015 1
vt 87.8176 -3.68509e-013
vt 87.8176 118.228
f 26/60/19 25/61/19 24/62/19

v 7.5836 3.441 -42.2176
vt 35.6324 -3.96931e-013
f 25/61/19 26/60/19 27/63/19

usemtl BackColor
vn 1.83033e-015 2.70374e-015 -1
f 27/63/20 26/60/20 25/61/20

f 24/62/20 25/61/20 26/60/20

usemtl Color_D03
v 6.81603 5.656 -42.2176
vt 5.41297 87.2047
f 26/60/19 24/62/19 28/64/19

usemtl BackColor
f 28/64/20 24/62/20 26/60/20

usemtl Color_D03
v 6.67854 6.444 -42.2176
vt -2.68708e-013 118.228
f 29/65/19 28/64/19 24/62/19

vt -2.68708e-013 -3.68509e-013
f 18/66/19 28/64/19 29/65/19

vt 5.41297 -3.96931e-013
f 28/64/19 18/66/19 20/67/19

usemtl BackColor
f 20/67/20 18/66/20 28/64/20

vt 5.41297 146.808
f 20/68/14 17/43/14 18/42/14

usemtl _Tile_Ceramic_Natural_15
vt 14.2466 38.0777
f 20/40/13 17/37/13 27/69/13

usemtl BackColor
vt 35.6324 146.808
f 27/70/14 17/43/14 20/68/14

usemtl _Tile_Ceramic_Natural_15
vt 15.1867 38.0777
f 27/69/13 17/37/13 25/71/13

usemtl BackColor
vt 87.8176 146.808
f 25/72/14 17/43/14 27/70/14

f 29/65/20 28/64/20 18/66/20

f 24/62/20 28/64/20 29/65/20

usemtl Color_D03
vt 146.808 118.228
f 22/47/3 18/44/3 29/73/3

usemtl BackColor
f 22/47/4 18/44/4 21/45/4

f 29/73/4 18/44/4 22/47/4

g Mesh6 Group1 Model

l 19 18

l 17 19

l 25 17

l 27 25

l 20 27

l 18 20

l 18 29

l 22 29

l 21 22

l 19 21

l 23 21

l 17 23

l 24 23

l 25 24

l 29 24

l 20 28

l 26 28

l 27 26

g Mesh7 Group1 Model

l 6 4

l 3 6

l 1 3

l 4 1

