# Alias OBJ Model File
# Exported from SketchUp, (c) 2000-2012 Trimble Navigation Limited
# File units = meters

mtllib DES037.mtl

g Mesh1 Group1 DES037 Model

usemtl FrontColor
v 8.77911 5.54416 -24.9943
vt 0 39.7244
vn -1 0 -0
v 8.77911 5.48296 -25.0361
vt -1.64622 37.3149
v 8.77911 4.53516 -24.9943
vt 0 0
f 1/1/1 2/2/1 3/3/1

v 8.77911 5.54416 -26.0033
vt -39.7244 39.7244
f 2/2/1 1/1/1 4/4/1

usemtl BackColor
vn 1 -0 0
f 3/3/2 2/2/2 1/1/2

usemtl FrontColor
v 8.77911 4.60396 -25.0361
vt -1.64622 2.70857
f 5/5/1 3/3/1 2/2/1

v 8.77911 4.53516 -26.0033
vt -39.7244 0
f 3/3/1 5/5/1 6/6/1

usemtl BackColor
f 6/6/2 5/5/2 3/3/2

usemtl FrontColor
v 8.77911 4.60396 -25.9481
vt -37.5517 2.70857
f 6/6/1 5/5/1 7/7/1

usemtl BackColor
f 7/7/2 5/5/2 6/6/2

usemtl _7
v 9.04946 4.60396 -25.9481
vt -0.339165 13.4809
vn 0 -1 -0
vt -0.2509 13.2936
vt -0.2509 13.4809
f 8/8/3 5/9/3 7/10/3

v 9.04946 4.60396 -25.0361
vt -0.339165 13.2936
f 5/9/3 8/8/3 9/11/3

usemtl BackColor
vt 0 37.5517
vn -0 1 0
vt 0 1.64622
vt -10.6439 37.5517
f 7/12/4 5/13/4 8/14/4

usemtl Translucent_Glass_Blue
v 8.77911 5.48296 -25.9481
vt -37.5517 37.3149
f 5/5/1 10/15/1 7/7/1

f 10/15/1 5/5/1 2/2/1

f 2/2/2 5/5/2 10/15/2

usemtl BackColor
f 2/2/2 3/3/2 5/5/2

usemtl Translucent_Glass_Blue
f 7/7/2 10/15/2 5/5/2

usemtl FrontColor
f 10/15/1 4/4/1 7/7/1

f 2/2/1 4/4/1 10/15/1

usemtl BackColor
f 4/4/2 1/1/2 2/2/2

f 10/15/2 4/4/2 2/2/2

f 7/7/2 4/4/2 10/15/2

usemtl FrontColor
f 6/6/1 7/7/1 4/4/1

usemtl BackColor
f 4/4/2 7/7/2 6/6/2

usemtl _7
vt -0.2509 7.02057
vn 0 0 -1
vt -0.339165 6.84002
vt -0.2509 6.84002
f 10/16/5 8/17/5 7/18/5

v 9.04946 5.48296 -25.9481
vt -0.339165 7.02057
f 8/17/5 10/16/5 11/19/5

usemtl BackColor
vt 0 2.70857
vn -0 -0 1
vt -10.6439 2.70857
vt 0 37.3149
f 7/20/6 8/21/6 10/22/6

vt -10.6439 37.3149
f 11/23/6 10/22/6 8/21/6

usemtl Translucent_Glass_Blue
v 9.04946 5.48296 -25.0361
vt 1.64622 37.3149
vn 1 0 -0
vt 37.5517 2.70857
vt 37.5517 37.3149
f 12/24/7 8/25/7 11/26/7

vt 1.64622 2.70857
f 8/25/7 12/24/7 9/27/7

vn -1 -0 0
f 9/27/8 12/24/8 8/25/8

usemtl FrontColor
v 9.04946 5.54416 -24.9943
f 12/24/7 13/1/7 9/27/7

v 9.04946 5.54416 -26.0033
vt 39.7244 39.7244
f 13/1/7 12/24/7 14/28/7

usemtl BackColor
f 14/28/8 12/24/8 13/1/8

usemtl FrontColor
f 14/28/7 12/24/7 11/26/7

usemtl BackColor
f 11/26/8 12/24/8 14/28/8

usemtl Translucent_Glass_Blue
f 11/26/8 8/25/8 12/24/8

usemtl FrontColor
v 9.04946 4.53516 -26.0033
vt 39.7244 0
f 8/25/7 15/29/7 11/26/7

f 9/27/7 15/29/7 8/25/7

v 9.04946 4.53516 -24.9943
f 9/27/7 16/3/7 15/29/7

f 16/3/7 9/27/7 13/1/7

usemtl BackColor
f 13/1/8 9/27/8 16/3/8

f 9/27/8 13/1/8 12/24/8

f 15/29/8 16/3/8 9/27/8

f 8/25/8 15/29/8 9/27/8

f 11/26/8 15/29/8 8/25/8

usemtl FrontColor
f 14/28/7 11/26/7 15/29/7

usemtl BackColor
f 15/29/8 11/26/8 14/28/8

vt -10.6439 1.64622
f 9/30/4 8/14/4 5/13/4

g Mesh2 Group1 DES037 Model

l 1 4

l 3 1

l 3 6

l 4 6

g Mesh3 Group1 DES037 Model

l 10 2

l 7 10

l 5 7

l 2 5

l 5 9

l 9 8

l 12 9

l 11 12

l 10 11

l 8 11

l 7 8

g Mesh4 Group1 DES037 Model

l 15 16

l 14 15

l 14 13

l 13 16

g Mesh5 DES037 Model

usemtl _Tile_Ceramic_Natural_15
v 11.7399 3.441 -22.8188
vt 17.1943 24.3196
vn 7.49655e-016 1 9.1288e-017
v 9.27446 3.441 -22.9265
vt 15.4458 24.396
v 9.27446 3.441 -22.8188
vt 15.4458 24.3196
f 17/31/9 18/32/9 19/33/9

v 11.7399 3.441 -26.153
vt 17.1943 26.6843
f 20/34/9 18/32/9 17/31/9

v 9.04946 3.441 -26.153
vt 15.2862 26.6843
f 21/35/9 18/32/9 20/34/9

v 9.04946 3.441 -22.9265
vt 15.2862 24.396
f 18/32/9 21/35/9 22/36/9

usemtl BackColor
vt 10.6439 4.23759
vn -7.49655e-016 -1 -9.1288e-017
vt 10.6439 131.268
vt 19.5022 4.23759
f 22/37/10 21/38/10 18/39/10

usemtl Color_D03
vt 131.268 1.13601e-013
vn 1 8.10042e-018 1.81238e-033
v 9.04946 6.444 -22.9265
vt 4.23759 118.228
vt 4.23759 8.51789e-014
f 21/40/11 23/41/11 22/42/11

vt 85.6474 43.0772
f 23/41/11 21/40/11 16/43/11

usemtl BackColor
vn -1 -8.10042e-018 -1.81238e-033
f 22/42/12 23/41/12 21/40/12

usemtl Color_D03
vt -10.6439 118.228
vn 0 1.70862e-017 -1
vt -19.5022 8.51927e-014
vt -10.6439 8.51927e-014
f 23/44/13 18/45/13 22/46/13

v 9.27446 6.444 -22.9265
vt -19.5022 118.228
f 18/45/13 23/44/13 24/47/13

usemtl BackColor
vn -0 -1.70862e-017 1
f 22/46/14 18/45/14 23/44/14

f 24/47/14 23/44/14 18/45/14

usemtl Color_D03
v 9.27446 6.444 -22.8188
vt 0 118.228
vn 1 8.10042e-018 -0
vt 4.23759 8.51072e-014
f 25/48/15 18/49/15 24/41/15

vt 0 8.51072e-014
f 18/49/15 25/48/15 19/50/15

usemtl BackColor
vn -1 -8.10042e-018 0
f 19/50/16 25/48/16 18/49/16

usemtl Color_D03
v 11.7399 6.444 -22.8188
vt -116.565 118.228
vn 1.00063e-032 1.70862e-017 -1
vt -19.5022 8.52651e-014
f 26/51/17 19/52/17 25/47/17

vt -116.565 2.84217e-014
f 19/52/17 26/51/17 17/53/17

usemtl BackColor
vn -1.00063e-032 -1.70862e-017 1
f 17/53/18 26/51/18 19/52/18

usemtl Color_D03
v 11.7399 6.444 -26.153
vt -131.268 118.228
vn -1 -2.13364e-016 -1.35184e-016
vt -1.57576e-014 3.55099e-015
vt -1.57576e-014 118.228
f 27/54/19 17/55/19 26/56/19

v 11.7399 5.656 -25.3209
vt -98.5067 87.2047
f 17/55/19 27/54/19 28/57/19

usemtl BackColor
vn 1 2.13364e-016 1.35184e-016
f 26/56/20 17/55/20 27/54/20

f 28/57/20 27/54/20 17/55/20

usemtl Color_D03
v 11.7399 5.656 -26.053
vt -127.33 87.2047
f 28/57/19 27/54/19 29/58/19

usemtl BackColor
f 29/58/20 27/54/20 28/57/20

usemtl Color_D03
v 11.7399 3.441 -26.053
vt -127.33 -2.48707e-014
f 29/58/19 27/54/19 30/59/19

usemtl BackColor
f 30/59/20 27/54/20 29/58/20

usemtl Color_D03
vt -131.268 3.19727e-014
f 30/59/19 27/54/19 20/60/19

usemtl BackColor
f 20/60/20 27/54/20 30/59/20

usemtl Color_D03
vt 116.565 118.228
vn -9.16945e-033 -1.70862e-017 1
vt 10.6439 1.11444e-013
vt 116.565 5.46005e-014
f 27/61/21 21/62/21 20/63/21

v 9.04946 6.444 -26.153
vt 10.6439 118.228
f 21/62/21 27/61/21 31/64/21

usemtl BackColor
vn 9.16945e-033 1.70862e-017 -1
f 20/63/22 21/62/22 27/61/22

vt 116.565 131.268
f 20/65/10 18/39/10 21/38/10

vt 116.565 1.05716e-029
f 17/66/10 18/39/10 20/65/10

vt 19.5022 9.11831e-030
f 19/67/10 18/39/10 17/66/10

usemtl _Tile_Ceramic_Natural_15
v 11.7399 3.441 -25.3209
vt 17.1943 26.0941
f 20/34/9 17/31/9 32/68/9

usemtl BackColor
vt 116.565 98.5067
f 32/69/10 17/66/10 20/65/10

usemtl Color_D03
vt -98.5067 -2.48707e-014
f 32/70/19 17/55/19 28/57/19

usemtl BackColor
f 28/57/20 17/55/20 32/70/20

usemtl _Tile_Ceramic_Natural_15
vt 17.1943 26.6134
f 20/34/9 32/68/9 30/71/9

usemtl BackColor
vt 116.565 127.33
f 30/72/10 32/69/10 20/65/10

f 31/64/22 27/61/22 21/62/22

usemtl Color_D03
vt 131.268 118.228
vt 125.372 82.8016
f 31/73/11 14/74/11 21/40/11

vt 85.6474 82.8016
f 31/73/11 13/75/11 14/74/11

f 23/41/11 13/75/11 31/73/11

f 13/75/11 23/41/11 16/43/11

usemtl BackColor
f 31/73/12 13/75/12 23/41/12

f 14/74/12 13/75/12 31/73/12

f 21/40/12 14/74/12 31/73/12

usemtl Color_D03
vt 125.372 43.0772
f 15/76/11 21/40/11 14/74/11

f 16/43/11 21/40/11 15/76/11

usemtl BackColor
f 16/43/12 21/40/12 23/41/12

f 15/76/12 21/40/12 16/43/12

f 14/74/12 21/40/12 15/76/12

f 16/43/12 23/41/12 13/75/12

f 25/47/18 19/52/18 26/51/18

f 24/41/16 18/49/16 25/48/16

g Mesh6 DES037 Model

l 22 21

l 18 22

l 19 18

l 19 17

l 19 25

l 25 24

l 25 26

l 17 26

l 32 17

l 30 32

l 20 30

l 20 21

l 20 27

l 27 31

l 27 26

l 21 31

l 23 31

l 22 23

l 24 23

l 18 24

l 29 30

l 28 29

l 32 28

g Mesh7 DES037 Model

l 13 14

l 16 13

l 15 16

l 14 15

