# Alias OBJ Model File
# Exported from SketchUp, (c) 2000-2012 Trimble Navigation Limited
# File units = meters

mtllib DES043.mtl

g Mesh1 Group1 DES043 Model

usemtl FrontColor
v 8.77911 5.54416 -8.55644
vt 0 39.7244
vn -1 0 -0
v 8.77911 5.48296 -8.59825
vt -1.64622 37.3149
v 8.77911 4.53516 -8.55644
vt 0 0
f 1/1/1 2/2/1 3/3/1

v 8.77911 5.54416 -9.56544
vt -39.7244 39.7244
f 2/2/1 1/1/1 4/4/1

usemtl BackColor
vn 1 -0 0
f 3/3/2 2/2/2 1/1/2

usemtl FrontColor
v 8.77911 4.60396 -8.59825
vt -1.64622 2.70857
f 5/5/1 3/3/1 2/2/1

v 8.77911 4.53516 -9.56544
vt -39.7244 0
f 3/3/1 5/5/1 6/6/1

usemtl BackColor
f 6/6/2 5/5/2 3/3/2

usemtl FrontColor
v 8.77911 4.60396 -9.51025
vt -37.5517 2.70857
f 6/6/1 5/5/1 7/7/1

usemtl BackColor
f 7/7/2 5/5/2 6/6/2

usemtl _7
v 9.04946 4.60396 -9.51025
vt -0.339165 13.4809
vn 0 -1 -0
vt -0.2509 13.2936
vt -0.2509 13.4809
f 8/8/3 5/9/3 7/10/3

v 9.04946 4.60396 -8.59825
vt -0.339165 13.2936
f 5/9/3 8/8/3 9/11/3

usemtl BackColor
vt 0 37.5517
vn -0 1 0
vt 0 1.64622
vt -10.6439 37.5517
f 7/12/4 5/13/4 8/14/4

usemtl Translucent_Glass_Blue
v 8.77911 5.48296 -9.51025
vt -37.5517 37.3149
f 5/5/1 10/15/1 7/7/1

f 10/15/1 5/5/1 2/2/1

f 2/2/2 5/5/2 10/15/2

usemtl BackColor
f 2/2/2 3/3/2 5/5/2

usemtl Translucent_Glass_Blue
f 7/7/2 10/15/2 5/5/2

usemtl FrontColor
f 10/15/1 4/4/1 7/7/1

f 2/2/1 4/4/1 10/15/1

usemtl BackColor
f 4/4/2 1/1/2 2/2/2

f 10/15/2 4/4/2 2/2/2

f 7/7/2 4/4/2 10/15/2

usemtl FrontColor
f 6/6/1 7/7/1 4/4/1

usemtl BackColor
f 4/4/2 7/7/2 6/6/2

usemtl _7
vt -0.2509 7.02057
vn 0 0 -1
vt -0.339165 6.84002
vt -0.2509 6.84002
f 10/16/5 8/17/5 7/18/5

v 9.04946 5.48296 -9.51025
vt -0.339165 7.02057
f 8/17/5 10/16/5 11/19/5

usemtl BackColor
vt 0 2.70857
vn -0 -0 1
vt -10.6439 2.70857
vt 0 37.3149
f 7/20/6 8/21/6 10/22/6

vt -10.6439 37.3149
f 11/23/6 10/22/6 8/21/6

usemtl Translucent_Glass_Blue
v 9.04946 5.48296 -8.59825
vt 1.64622 37.3149
vn 1 0 -0
vt 37.5517 2.70857
vt 37.5517 37.3149
f 12/24/7 8/25/7 11/26/7

vt 1.64622 2.70857
f 8/25/7 12/24/7 9/27/7

vn -1 -0 0
f 9/27/8 12/24/8 8/25/8

usemtl FrontColor
v 9.04946 5.54416 -8.55644
f 12/24/7 13/1/7 9/27/7

v 9.04946 5.54416 -9.56544
vt 39.7244 39.7244
f 13/1/7 12/24/7 14/28/7

usemtl BackColor
f 14/28/8 12/24/8 13/1/8

usemtl FrontColor
f 14/28/7 12/24/7 11/26/7

usemtl BackColor
f 11/26/8 12/24/8 14/28/8

usemtl Translucent_Glass_Blue
f 11/26/8 8/25/8 12/24/8

usemtl FrontColor
v 9.04946 4.53516 -9.56544
vt 39.7244 0
f 8/25/7 15/29/7 11/26/7

f 9/27/7 15/29/7 8/25/7

v 9.04946 4.53516 -8.55644
f 9/27/7 16/3/7 15/29/7

f 16/3/7 9/27/7 13/1/7

usemtl BackColor
f 13/1/8 9/27/8 16/3/8

f 9/27/8 13/1/8 12/24/8

f 15/29/8 16/3/8 9/27/8

f 8/25/8 15/29/8 9/27/8

f 11/26/8 15/29/8 8/25/8

usemtl FrontColor
f 14/28/7 11/26/7 15/29/7

usemtl BackColor
f 15/29/8 11/26/8 14/28/8

vt -10.6439 1.64622
f 9/30/4 8/14/4 5/13/4

g Mesh2 Group1 DES043 Model

l 1 4

l 3 1

l 3 6

l 4 6

g Mesh3 Group1 DES043 Model

l 10 2

l 7 10

l 5 7

l 2 5

l 5 9

l 9 8

l 12 9

l 11 12

l 10 11

l 8 11

l 7 8

g Mesh4 Group1 DES043 Model

l 15 16

l 14 15

l 14 13

l 13 16

g Mesh5 DES043 Model

usemtl _Tile_Ceramic_Natural_15
v 11.7399 3.441 -7.06419
vt 17.1943 13.1461
vn 3.98507e-016 1 1.14502e-016
v 9.42443 3.441 -7.29019
vt 15.5521 13.3064
v 9.42443 3.441 -7.06419
vt 15.5521 13.1461
f 17/31/9 18/32/9 19/33/9

v 11.7399 3.441 -9.69769
vt 17.1943 15.0139
f 20/34/9 18/32/9 17/31/9

v 9.04946 3.441 -9.69769
vt 15.2862 15.0139
f 21/35/9 18/32/9 20/34/9

v 9.04946 3.441 -7.29019
vt 15.2862 13.3064
f 18/32/9 21/35/9 22/36/9

usemtl BackColor
vt 10.6439 8.89764
vn -3.98507e-016 -1 -1.14502e-016
vt 10.6439 103.681
vt 25.4065 8.89764
f 22/37/10 21/38/10 18/39/10

usemtl Color_D03
vt 58.7499 43.0772
vn 1 8.10042e-018 -0
vt 8.89764 5.67572e-014
vt 103.681 5.67572e-014
f 16/40/11 22/41/11 21/42/11

v 9.04946 6.444 -7.29019
vt 8.89764 118.228
f 22/41/11 16/40/11 23/43/11

usemtl BackColor
vn -1 -8.10042e-018 0
f 23/43/12 16/40/12 22/41/12

usemtl Color_D03
vt 58.7499 82.8016
f 13/44/11 23/43/11 16/40/11

v 9.04946 6.444 -9.69769
vt 103.681 118.228
f 23/43/11 13/44/11 24/45/11

usemtl BackColor
f 24/45/12 13/44/12 23/43/12

usemtl Color_D03
vt 98.4743 82.8016
f 24/45/11 13/44/11 14/46/11

usemtl BackColor
f 14/46/12 13/44/12 24/45/12

usemtl Color_D03
f 24/45/11 14/46/11 21/42/11

usemtl BackColor
f 21/42/12 14/46/12 24/45/12

usemtl Color_D03
vt 98.4743 43.0772
f 15/47/11 21/42/11 14/46/11

f 16/40/11 21/42/11 15/47/11

usemtl BackColor
f 21/42/12 22/41/12 16/40/12

f 15/47/12 21/42/12 16/40/12

f 14/46/12 21/42/12 15/47/12

usemtl Color_D03
vt 10.6439 5.50719e-014
vn -4.58473e-033 -1.70862e-017 1
v 11.7399 6.444 -9.69769
vt 116.565 118.228
vt 10.6439 118.228
f 21/48/13 25/49/13 24/50/13

vt 116.565 2.66502e-014
f 25/49/13 21/48/13 20/51/13

usemtl BackColor
vn 4.58473e-033 1.70862e-017 -1
f 20/51/14 21/48/14 25/49/14

vt 116.565 103.681
f 20/52/10 18/39/10 21/38/10

vt 116.565 5.31884e-030
f 17/53/10 18/39/10 20/52/10

vt 25.4065 7.66799e-030
f 19/54/10 18/39/10 17/53/10

usemtl Color_D03
vt 8.89764 5.66376e-014
v 9.42443 6.444 -7.06419
vt 0 118.228
vt 0 5.66376e-014
f 18/55/11 26/56/11 19/57/11

v 9.42443 6.444 -7.29019
f 26/56/11 18/55/11 27/43/11

usemtl BackColor
f 19/57/12 26/56/12 18/55/12

usemtl Color_D03
v 11.7399 6.444 -7.06419
vt -116.565 118.228
vn 1.06544e-032 1.70862e-017 -1
vt -25.4065 5.68434e-014
vt -25.4065 118.228
f 28/58/15 19/59/15 26/60/15

vt -116.565 -2.12198e-047
f 19/59/15 28/58/15 17/61/15

usemtl BackColor
vn -1.06544e-032 -1.70862e-017 1
f 17/61/16 28/58/16 19/59/16

usemtl Color_D03
vt -103.681 118.228
f 25/62/1 17/3/1 28/56/1

v 11.7399 5.656 -9.05799
vt -78.4961 87.2047
f 17/3/1 25/62/1 29/63/1

usemtl BackColor
f 28/56/2 17/3/2 25/62/2

f 29/63/2 25/62/2 17/3/2

usemtl Color_D03
v 11.7399 5.656 -9.62793
vt -100.935 87.2047
f 29/63/1 25/62/1 30/64/1

usemtl BackColor
f 30/64/2 25/62/2 29/63/2

usemtl Color_D03
v 11.7399 3.441 -9.62793
vt -100.935 2.84217e-014
f 30/64/1 25/62/1 31/65/1

usemtl BackColor
f 31/65/2 25/62/2 30/64/2

usemtl Color_D03
vt -103.681 2.84217e-014
f 31/65/1 25/62/1 20/66/1

usemtl BackColor
f 20/66/2 25/62/2 31/65/2

usemtl _Tile_Ceramic_Natural_15
v 11.7399 3.441 -9.05799
vt 17.1943 14.5602
vt 17.1943 14.9644
f 20/34/9 32/67/9 31/68/9

f 20/34/9 17/31/9 32/67/9

usemtl BackColor
vt 116.565 78.4961
f 32/69/10 17/53/10 20/52/10

usemtl Color_D03
vt -78.4961 2.84217e-014
f 32/70/1 17/3/1 29/63/1

usemtl BackColor
f 29/63/2 17/3/2 32/70/2

vt 116.565 100.935
f 31/71/10 32/69/10 20/52/10

f 26/60/16 19/59/16 28/58/16

f 27/43/12 18/55/12 26/56/12

usemtl Color_D03
vt -10.6439 118.228
f 18/59/5 23/72/5 27/60/5

vt -10.6439 5.68434e-014
f 23/72/5 18/59/5 22/73/5

usemtl BackColor
f 22/73/6 18/59/6 23/72/6

f 27/60/6 23/72/6 18/59/6

f 24/50/14 25/49/14 21/48/14

f 16/40/12 23/43/12 13/44/12

g Mesh6 DES043 Model

l 20 31

l 20 21

l 20 25

l 25 28

l 25 24

l 21 24

l 22 21

l 22 18

l 22 23

l 23 27

l 23 24

l 18 27

l 19 18

l 19 17

l 19 26

l 26 27

l 26 28

l 17 28

l 32 17

l 31 32

l 30 31

l 29 30

l 32 29

g Mesh7 DES043 Model

l 13 14

l 16 13

l 15 16

l 14 15

