# Alias OBJ Model File
# Exported from SketchUp, (c) 2000-2012 Trimble Navigation Limited
# File units = meters

mtllib DES032.mtl

g Mesh1 DES032 Model

usemtl _Tile_Ceramic_Natural_15
v 11.7399 3.441 -37.5569
vt 17.1943 34.7722
vn 5.67528e-016 1 -7.22354e-017
v 9.04946 3.441 -42.2176
vt 15.2862 38.0777
v 9.04946 3.441 -37.5569
vt 15.2862 34.7722
f 1/1/1 2/2/1 3/3/1

v 10.8486 3.441 -42.2176
vt 16.5622 38.0777
f 2/2/1 1/1/1 4/4/1

usemtl BackColor
vt 1.13687e-012 -6.15916e-030
vn -5.67528e-016 -1 7.22354e-017
vt 1.13687e-012 183.493
vt 105.921 -1.05014e-029
f 3/5/2 2/6/2 1/7/2

usemtl Color_D03
v 9.04946 4.53516 -37.613
vt 2.2096 43.0772
vn 1 0 -0
vt 0 8.52651e-014
vt 183.493 8.52651e-014
f 5/8/3 3/9/3 2/10/3

v 9.04946 6.444 -37.5569
vt 0 118.228
f 3/9/3 5/8/3 6/11/3

usemtl BackColor
vn -1 -0 0
f 6/11/4 5/8/4 3/9/4

usemtl Color_D03
v 9.04946 5.54416 -37.613
vt 2.2096 82.8016
f 7/12/3 6/11/3 5/8/3

v 9.04946 6.444 -42.2176
vt 183.493 118.228
f 6/11/3 7/12/3 8/13/3

usemtl BackColor
f 8/13/4 7/12/4 6/11/4

usemtl Color_D03
v 9.04946 5.54416 -38.4254
vt 34.1928 82.8016
f 8/13/3 7/12/3 9/14/3

usemtl BackColor
f 9/14/4 7/12/4 8/13/4

usemtl FrontColor
v 9.04946 5.48296 -37.6667
vt 4.32268 80.3921
f 7/12/3 10/15/3 9/14/3

v 9.04946 4.60396 -37.6667
vt 4.32268 45.7858
f 10/15/3 7/12/3 11/16/3

usemtl BackColor
f 9/14/4 10/15/4 7/12/4

usemtl FrontColor
v 9.04946 5.48296 -38.3791
vt 32.371 80.3921
f 9/14/3 10/15/3 12/17/3

usemtl BackColor
f 12/17/4 10/15/4 9/14/4

usemtl Translucent_Glass_Blue
v 9.04946 4.60396 -38.3791
vt 32.371 45.7858
f 10/15/3 13/18/3 12/17/3

f 13/18/3 10/15/3 11/16/3

f 11/16/4 10/15/4 13/18/4

usemtl BackColor
f 11/16/4 7/12/4 10/15/4

usemtl FrontColor
f 5/8/3 11/16/3 7/12/3

v 9.04946 4.53516 -38.4254
vt 34.1928 43.0772
f 11/16/3 5/8/3 14/19/3

usemtl BackColor
f 7/12/4 11/16/4 5/8/4

f 14/19/4 5/8/4 11/16/4

usemtl Color_D03
f 5/8/3 2/10/3 14/19/3

usemtl BackColor
f 2/10/4 3/9/4 5/8/4

f 14/19/4 2/10/4 5/8/4

usemtl Color_D03
f 14/19/3 2/10/3 9/14/3

usemtl BackColor
f 9/14/4 2/10/4 14/19/4

usemtl Color_D03
f 8/13/3 9/14/3 2/10/3

usemtl BackColor
f 2/10/4 9/14/4 8/13/4

usemtl Color_D03
vt 1.13687e-012 8.21299e-014
vn -1.3712e-032 -1.70862e-017 1
v 10.8486 6.444 -42.2176
vt 70.8309 118.228
vt 1.13687e-012 118.228
f 2/20/5 15/21/5 8/22/5

vt 70.8309 2.52865e-014
f 15/21/5 2/20/5 4/23/5

usemtl BackColor
vn 1.3712e-032 1.70862e-017 -1
f 4/23/6 2/20/6 15/21/6

vt 70.8309 183.493
f 4/24/2 1/7/2 2/6/2

usemtl _Tile_Ceramic_Natural_15
v 11.7399 3.441 -41.2591
vt 17.1943 37.3979
f 4/4/1 1/1/1 16/25/1

usemtl BackColor
vt 105.921 145.756
f 16/26/2 1/7/2 4/24/2

usemtl _Tile_Ceramic_Natural_15
v 11.7399 3.441 -37.7209
vt 17.1943 34.8885
f 16/25/1 1/1/1 17/27/1

usemtl BackColor
vt 105.921 6.45543
f 17/28/2 1/7/2 16/26/2

usemtl Color_D03
vt -6.45543 -2.25932e-014
vn -1 -2.13303e-016 1.22204e-016
vt 1.2944e-014 6.26719e-014
v 11.7399 5.656 -37.7209
vt -6.45543 87.2047
f 17/29/7 1/30/7 18/31/7

usemtl BackColor
vn 1 2.13303e-016 -1.22204e-016
f 18/31/8 1/30/8 17/29/8

usemtl Color_D03
v 11.7399 6.444 -37.5569
vt 1.2944e-014 118.228
f 19/32/7 18/31/7 1/30/7

v 11.7399 6.444 -41.2591
vt -145.756 118.228
f 18/31/7 19/32/7 20/33/7

usemtl BackColor
f 1/30/8 18/31/8 19/32/8

f 20/33/8 19/32/8 18/31/8

usemtl Color_D03
v 11.7399 5.656 -38.432
vt -34.4525 87.2047
f 18/31/7 20/33/7 21/34/7

usemtl BackColor
f 21/34/8 20/33/8 18/31/8

usemtl Color_D03
v 11.7399 3.441 -38.432
vt -34.4525 -2.25932e-014
f 21/34/7 20/33/7 22/35/7

usemtl BackColor
f 22/35/8 20/33/8 21/34/8

usemtl Color_D03
vt -145.756 5.82847e-015
f 22/35/7 20/33/7 16/36/7

usemtl BackColor
f 16/36/8 20/33/8 22/35/8

usemtl Color_D03
vt -86.1421 118.228
vn -0.732319 -1.75671e-017 0.680962
vt -34.6122 2.53155e-014
vt -34.6122 118.228
f 15/37/9 16/38/9 20/39/9

vt -86.1421 2.53155e-014
f 16/38/9 15/37/9 4/40/9

usemtl BackColor
vn 0.732319 1.75671e-017 -0.680962
f 20/39/10 16/38/10 15/37/10

f 4/40/10 15/37/10 16/38/10

usemtl _Tile_Ceramic_Natural_15
vt 17.1943 35.3928
f 16/25/1 17/27/1 22/41/1

usemtl BackColor
vt 105.921 34.4525
f 22/42/2 17/28/2 16/26/2

usemtl Color_D03
vt -105.921 8.52651e-014
vn 0 0 -1
vt -1.13687e-012 118.228
vt -105.921 118.228
f 1/43/11 6/44/11 19/45/11

vt -1.13687e-012 8.52651e-014
f 6/44/11 1/43/11 3/46/11

usemtl BackColor
vn -0 -0 1
f 3/46/12 1/43/12 6/44/12

f 19/45/12 6/44/12 1/43/12

usemtl Color_D03
v 11.6624 6.444 -37.5569
vt -102.872 118.228
f 19/45/11 6/44/11 23/47/11

usemtl BackColor
f 23/47/12 6/44/12 19/45/12

f 8/22/6 15/21/6 2/20/6

usemtl FrontColor
f 9/14/3 12/17/3 14/19/3

usemtl BackColor
f 14/19/4 12/17/4 9/14/4

usemtl FrontColor
f 13/18/3 14/19/3 12/17/3

f 11/16/3 14/19/3 13/18/3

usemtl BackColor
f 13/18/4 14/19/4 11/16/4

f 12/17/4 14/19/4 13/18/4

usemtl Translucent_Glass_Blue
f 12/17/4 13/18/4 10/15/4

usemtl BackColor
f 5/8/4 6/11/4 7/12/4

g Mesh2 DES032 Model

l 3 2

l 3 1

l 3 6

l 6 23

l 6 8

l 15 8

l 4 15

l 4 16

l 4 2

l 2 8

l 16 22

l 16 20

l 20 19

l 15 20

l 1 19

l 17 1

l 22 17

l 21 22

l 18 21

l 17 18

l 23 19

g Mesh3 DES032 Model

l 14 9

l 5 14

l 7 5

l 7 9

g Mesh4 DES032 Model

l 13 12

l 11 13

l 10 11

l 10 12

