# Alias OBJ Model File
# Exported from SketchUp, (c) 2000-2012 Trimble Navigation Limited
# File units = meters

mtllib DES019.mtl

g Mesh1 Group1 DES019 Model

usemtl FrontColor
v 29.3705 5.54416 -33.379
vt 0 39.7244
vn -1 0 -0
v 29.3705 5.48296 -33.4209
vt -1.64622 37.3149
v 29.3705 4.53516 -33.379
vt 0 0
f 1/1/1 2/2/1 3/3/1

v 29.3705 5.54416 -34.388
vt -39.7244 39.7244
f 2/2/1 1/1/1 4/4/1

usemtl BackColor
vn 1 -0 0
f 3/3/2 2/2/2 1/1/2

usemtl FrontColor
v 29.3705 4.60396 -33.4209
vt -1.64622 2.70857
f 5/5/1 3/3/1 2/2/1

v 29.3705 4.53516 -34.388
vt -39.7244 0
f 3/3/1 5/5/1 6/6/1

usemtl BackColor
f 6/6/2 5/5/2 3/3/2

usemtl FrontColor
v 29.3705 4.60396 -34.3329
vt -37.5517 2.70857
f 6/6/1 5/5/1 7/7/1

usemtl BackColor
f 7/7/2 5/5/2 6/6/2

usemtl Translucent_Glass_Blue
v 29.3705 5.48296 -34.3329
vt -37.5517 37.3149
f 5/5/1 8/8/1 7/7/1

f 8/8/1 5/5/1 2/2/1

f 2/2/2 5/5/2 8/8/2

usemtl BackColor
f 2/2/2 3/3/2 5/5/2

usemtl _7
vt 8.0497 6.47214
vn 0 0 -1
v 29.8188 4.60396 -33.4209
vt 8.19607 6.65269
vt 8.0497 6.65269
f 2/9/3 9/10/3 5/11/3

v 29.8188 5.48296 -33.4209
vt 8.19607 6.47214
f 9/10/3 2/9/3 10/12/3

usemtl BackColor
vt -6.82121e-013 2.70857
vn -0 -0 1
vt -17.6503 2.70857
vt -6.82121e-013 37.3149
f 5/13/4 9/14/4 2/15/4

usemtl _7
vn 0 1 -0
vt 8.0497 6.84002
f 9/10/5 7/16/5 5/11/5

v 29.8188 4.60396 -34.3329
vt 8.19607 6.84002
f 7/16/5 9/10/5 11/17/5

usemtl BackColor
vt 6.82121e-013 1.64622
vn -0 -1 0
vt 6.82121e-013 37.5517
vt 17.6503 1.64622
f 5/18/6 7/19/6 9/20/6

usemtl Translucent_Glass_Blue
f 7/7/2 8/8/2 5/5/2

usemtl FrontColor
f 8/8/1 4/4/1 7/7/1

f 2/2/1 4/4/1 8/8/1

usemtl BackColor
f 4/4/2 1/1/2 2/2/2

f 8/8/2 4/4/2 2/2/2

f 7/7/2 4/4/2 8/8/2

usemtl FrontColor
f 6/6/1 7/7/1 4/4/1

usemtl BackColor
f 4/4/2 7/7/2 6/6/2

usemtl _7
vn 0 0 1
v 29.8188 5.48296 -34.3329
vt 8.19607 7.02057
vt 8.0497 7.02057
f 7/16/7 12/21/7 8/22/7

f 12/21/7 7/16/7 11/17/7

usemtl BackColor
vt 17.6503 2.70857
vn -0 -0 -1
vt 6.82121e-013 2.70857
vt 17.6503 37.3149
f 11/23/8 7/24/8 12/25/8

vt 17.6503 37.5517
f 11/26/6 9/20/6 7/19/6

usemtl Translucent_Glass_Blue
vt 37.5517 2.70857
vn 1 0 -0
vt 1.64622 37.3149
vt 1.64622 2.70857
f 11/27/9 10/28/9 9/29/9

vt 37.5517 37.3149
f 10/28/9 11/27/9 12/30/9

vn -1 -0 0
f 9/29/10 10/28/10 11/27/10

usemtl BackColor
vt -17.6503 37.3149
f 10/31/4 2/15/4 9/14/4

usemtl _7
vn 0 -1 -0
vt 8.19607 6.28481
f 2/9/11 12/32/11 10/12/11

vt 8.0497 6.28481
f 12/32/11 2/9/11 8/33/11

usemtl BackColor
vt -6.82121e-013 37.5517
vn -0 1 0
vt -6.82121e-013 1.64622
vt -17.6503 37.5517
f 8/34/12 2/35/12 12/36/12

vt -17.6503 1.64622
f 10/37/12 12/36/12 2/35/12

usemtl Translucent_Glass_Blue
f 12/30/10 11/27/10 10/28/10

usemtl FrontColor
v 29.8188 4.53516 -34.388
vt 39.7244 0
f 11/27/9 13/38/9 12/30/9

f 9/29/9 13/38/9 11/27/9

v 29.8188 4.53516 -33.379
f 9/29/9 14/3/9 13/38/9

v 29.8188 5.54416 -33.379
f 14/3/9 9/29/9 15/1/9

usemtl BackColor
f 15/1/10 9/29/10 14/3/10

usemtl FrontColor
f 10/28/9 15/1/9 9/29/9

v 29.8188 5.54416 -34.388
vt 39.7244 39.7244
f 15/1/9 10/28/9 16/39/9

usemtl BackColor
f 16/39/10 10/28/10 15/1/10

usemtl FrontColor
f 16/39/9 10/28/9 12/30/9

usemtl BackColor
f 12/30/10 10/28/10 16/39/10

usemtl FrontColor
f 16/39/9 12/30/9 13/38/9

usemtl BackColor
f 13/38/10 12/30/10 16/39/10

f 12/30/10 13/38/10 11/27/10

f 11/27/10 13/38/10 9/29/10

f 13/38/10 14/3/10 9/29/10

f 9/29/10 15/1/10 10/28/10

vt 6.82121e-013 37.3149
f 8/40/8 12/25/8 7/24/8

g Mesh2 Group1 DES019 Model

l 4 1

l 6 4

l 3 6

l 1 3

g Mesh3 Group1 DES019 Model

l 2 8

l 5 2

l 7 5

l 8 7

l 12 8

l 12 10

l 11 12

l 9 11

l 10 9

l 10 2

l 9 5

l 11 7

g Mesh4 Group1 DES019 Model

l 14 15

l 13 14

l 16 13

l 15 16

g Mesh5 DES019 Model

usemtl _Tile_Ceramic_Natural_15
v 33.1166 3.441 -32.1693
vt 32.3551 30.9512
vn -7.47431e-016 1 2.02415e-016
v 29.8188 3.441 -34.5801
vt 30.0163 32.661
v 29.8188 3.441 -32.1693
vt 30.0163 30.9512
f 17/41/13 18/42/13 19/43/13

v 33.1166 3.441 -34.5801
vt 32.3551 32.661
f 18/42/13 17/41/13 20/44/13

usemtl BackColor
vt 17.6503 -2.67034e-030
vn 7.47431e-016 -1 -2.02415e-016
vt 17.6503 94.9113
vt 147.482 6.45213e-030
f 19/45/14 18/46/14 17/47/14

usemtl Color_D03
vt 94.9113 5.68434e-014
v 29.8188 3.451 -32.1693
vt 0 0.393701
f 18/48/9 21/49/9 19/3/9

vt 47.6259 43.0772
f 21/49/9 18/48/9 14/50/9

usemtl BackColor
f 19/3/10 21/49/10 18/48/10

usemtl Color_D03
vt -17.6503 0.393701
vt -147.482 1.42109e-013
vt -17.6503 0
f 21/51/3 17/52/3 19/53/3

v 33.1166 6.444 -32.1693
vt -147.482 118.228
f 17/52/3 21/51/3 22/54/3

usemtl BackColor
f 19/53/4 17/52/4 21/51/4

f 22/54/4 21/51/4 17/52/4

usemtl Color_D03
v 29.9823 6.444 -32.1693
vt -24.0837 118.228
f 22/54/3 21/51/3 23/55/3

usemtl BackColor
f 23/55/4 21/51/4 22/54/4

usemtl Color_D03
v 29.8188 6.444 -32.1693
vt -17.6503 118.228
f 23/55/3 21/51/3 24/56/3

usemtl BackColor
f 24/56/4 21/51/4 23/55/4

usemtl Color_D03
vt 0 118.228
f 21/49/9 14/50/9 24/57/9

usemtl BackColor
f 14/50/10 18/48/10 21/49/10

usemtl Color_D03
vt 87.3503 43.0772
f 14/50/9 18/48/9 13/58/9

usemtl BackColor
f 13/58/10 18/48/10 14/50/10

usemtl Color_D03
vt 87.3503 82.8016
f 13/58/9 18/48/9 16/59/9

usemtl BackColor
f 16/59/10 18/48/10 13/58/10

usemtl Color_D03
v 29.8188 6.444 -34.5801
vt 94.9113 118.228
f 25/60/9 16/59/9 18/48/9

vt 47.6259 82.8016
f 25/60/9 15/61/9 16/59/9

f 24/57/9 15/61/9 25/60/9

f 15/61/9 24/57/9 14/50/9

usemtl BackColor
f 25/60/10 15/61/10 24/57/10

f 16/59/10 15/61/10 25/60/10

f 18/48/10 16/59/10 25/60/10

usemtl Color_D03
v 29.8188 3.451 -34.5801
vt 94.9113 0.393701
f 25/60/9 18/48/9 26/62/9

usemtl BackColor
f 26/62/10 18/48/10 25/60/10

usemtl Color_D03
vt 147.482 1.42109e-013
vt 17.6503 0.393701
vt 17.6503 5.68434e-014
f 20/63/7 26/64/7 18/65/7

v 33.1166 6.444 -34.5801
vt 147.482 118.228
f 26/64/7 20/63/7 27/66/7

usemtl BackColor
f 18/65/8 26/64/8 20/63/8

f 27/66/8 20/63/8 26/64/8

usemtl Color_D03
v 33.1166 3.441 -34.327
vt -84.9455 -1.9874e-014
vn -1 -9.05606e-016 -5.5005e-016
vt -94.9113 118.228
vt -94.9113 8.54772e-015
f 28/67/15 27/68/15 20/69/15

v 33.1166 5.656 -34.327
vt -84.9455 87.2047
f 29/70/15 27/68/15 28/67/15

v 33.1166 5.656 -33.645
vt -58.0959 87.2047
f 30/71/15 27/68/15 29/70/15

vt -8.11226e-014 118.228
f 30/71/15 22/72/15 27/68/15

vt -8.11226e-014 8.54772e-015
f 22/72/15 30/71/15 17/73/15

usemtl BackColor
vn 1 9.05606e-016 5.5005e-016
f 17/73/16 30/71/16 22/72/16

usemtl Color_D03
v 33.1166 3.441 -33.645
vt -58.0959 -1.9874e-014
f 31/74/15 17/73/15 30/71/15

usemtl _Tile_Ceramic_Natural_15
vt 32.3551 31.9978
f 20/44/13 17/41/13 31/75/13

usemtl BackColor
vt 147.482 94.9113
f 20/76/14 17/47/14 18/46/14

vt 147.482 58.0959
f 31/77/14 17/47/14 20/76/14

f 30/71/16 17/73/16 31/74/16

usemtl _Tile_Ceramic_Natural_15
vt 32.3551 32.4814
f 20/44/13 31/75/13 28/78/13

usemtl BackColor
vt 147.482 84.9455
f 28/79/14 31/77/14 20/76/14

f 20/69/16 27/68/16 28/67/16

f 28/67/16 27/68/16 29/70/16

f 29/70/16 27/68/16 30/71/16

f 27/68/16 22/72/16 30/71/16

usemtl Color_D03
v 29.9823 6.444 -34.5801
vt 24.0837 118.228
f 26/64/7 27/66/7 32/80/7

usemtl BackColor
f 32/80/8 27/66/8 26/64/8

usemtl Color_D03
v 32.9667 6.444 -34.5801
vt 141.58 118.228
f 32/80/7 27/66/7 33/81/7

usemtl BackColor
f 33/81/8 27/66/8 32/80/8

usemtl Color_D03
vt 17.6503 118.228
f 25/82/7 26/64/7 32/80/7

usemtl BackColor
f 32/80/8 26/64/8 25/82/8

f 14/50/10 24/57/10 15/61/10

f 24/57/10 14/50/10 21/49/10

g Mesh6 DES019 Model

l 18 19

l 18 20

l 18 26

l 26 25

l 32 25

l 32 33

l 33 27

l 20 27

l 20 28

l 28 31

l 29 28

l 29 30

l 31 30

l 31 17

l 19 17

l 19 21

l 21 24

l 25 24

l 23 24

l 23 22

l 17 22

l 27 22

g Mesh7 DES019 Model

l 16 13

l 15 16

l 14 15

l 13 14

