# Alias OBJ Model File
# Exported from SketchUp, (c) 2000-2012 Trimble Navigation Limited
# File units = meters

mtllib DES010.mtl

g Mesh1 Group1 DES010 Model

usemtl FrontColor
v 37.7714 5.54416 -32.9956
vt 0 39.7244
vn -1 0 -0
v 37.7714 5.49729 -33.0552
vt -2.34828 37.8791
v 37.7714 4.53516 -32.9956
vt 0 0
f 1/1/1 2/2/1 3/3/1

v 37.7714 5.54416 -34.0046
vt -39.7244 39.7244
f 2/2/1 1/1/1 4/4/1

usemtl BackColor
vn 1 -0 0
f 3/3/2 2/2/2 1/1/2

usemtl FrontColor
v 37.7714 4.60429 -33.0552
vt -2.34828 2.72165
f 5/5/1 3/3/1 2/2/1

v 37.7714 4.53516 -34.0046
vt -39.7244 0
f 3/3/1 5/5/1 6/6/1

usemtl BackColor
f 6/6/2 5/5/2 3/3/2

usemtl FrontColor
v 37.7714 4.60429 -33.9482
vt -37.5058 2.72165
f 6/6/1 5/5/1 7/7/1

usemtl BackColor
f 7/7/2 5/5/2 6/6/2

usemtl Translucent_Glass_Blue
v 37.7714 5.49729 -33.9482
vt -37.5058 37.8791
f 5/5/1 8/8/1 7/7/1

f 8/8/1 5/5/1 2/2/1

f 2/2/2 5/5/2 8/8/2

usemtl BackColor
f 2/2/2 3/3/2 5/5/2

usemtl FrontColor
vt 0 2.72165
vn 0 0 1
v 38.0564 5.49729 -33.0552
vt 11.2234 37.8791
vt 0 37.8791
f 5/9/3 9/10/3 2/11/3

v 38.0564 4.60429 -33.0552
vt 11.2234 2.72165
f 9/10/3 5/9/3 10/12/3

usemtl _7
vt -8.19217 6.99587
vn -0 -0 -1
vt -8.0991 6.99587
vt -8.19217 6.81244
f 10/13/4 5/14/4 9/15/4

usemtl FrontColor
vt 0 2.34828
vn 0 -1 -0
v 38.0564 4.60429 -33.9482
vt -11.2234 37.5058
vt -11.2234 2.34828
f 5/16/5 11/17/5 10/18/5

vt 0 37.5058
f 11/17/5 5/16/5 7/19/5

usemtl _7
vt -8.0991 7.17929
vn -0 1 0
vt -8.19217 7.17929
f 7/20/6 5/14/6 11/21/6

usemtl Translucent_Glass_Blue
f 7/7/2 8/8/2 5/5/2

usemtl FrontColor
f 8/8/1 4/4/1 7/7/1

f 2/2/1 4/4/1 8/8/1

usemtl BackColor
f 4/4/2 1/1/2 2/2/2

f 8/8/2 4/4/2 2/2/2

f 7/7/2 4/4/2 8/8/2

usemtl FrontColor
f 6/6/1 7/7/1 4/4/1

usemtl BackColor
f 4/4/2 7/7/2 6/6/2

usemtl FrontColor
vn 0 0 -1
vt -11.2234 2.72165
f 8/11/7 11/22/7 7/9/7

v 38.0564 5.49729 -33.9482
vt -11.2234 37.8791
f 11/22/7 8/11/7 12/23/7

usemtl _7
vn -0 -0 1
vt -8.0991 7.36272
f 7/20/8 11/21/8 8/24/8

vt -8.19217 7.36272
f 12/25/8 8/24/8 11/21/8

usemtl FrontColor
vn 0 1 -0
vt 11.2234 2.34828
vt 11.2234 37.5058
f 8/19/9 9/26/9 12/27/9

f 9/26/9 8/19/9 2/16/9

usemtl _7
vt -8.0991 7.54615
vn -0 -1 0
vt -8.19217 7.54615
f 2/28/10 8/24/10 9/29/10

f 12/25/10 9/29/10 8/24/10

usemtl Translucent_Glass_Blue
vt 2.34828 37.8791
vn 1 0 -0
vt 37.5058 2.72165
vt 37.5058 37.8791
f 9/30/11 11/31/11 12/32/11

vt 2.34828 2.72165
f 11/31/11 9/30/11 10/33/11

vn -1 -0 0
f 10/33/12 9/30/12 11/31/12

usemtl FrontColor
v 38.0564 5.54416 -32.9956
f 9/30/11 13/1/11 10/33/11

v 38.0564 5.54416 -34.0046
vt 39.7244 39.7244
f 13/1/11 9/30/11 14/34/11

usemtl BackColor
f 14/34/12 9/30/12 13/1/12

usemtl FrontColor
f 14/34/11 9/30/11 12/32/11

usemtl BackColor
f 12/32/12 9/30/12 14/34/12

usemtl Translucent_Glass_Blue
f 12/32/12 11/31/12 9/30/12

usemtl FrontColor
v 38.0564 4.53516 -34.0046
vt 39.7244 0
f 11/31/11 15/35/11 12/32/11

f 10/33/11 15/35/11 11/31/11

v 38.0564 4.53516 -32.9956
f 10/33/11 16/3/11 15/35/11

f 16/3/11 10/33/11 13/1/11

usemtl BackColor
f 13/1/12 10/33/12 16/3/12

f 10/33/12 13/1/12 9/30/12

f 15/35/12 16/3/12 10/33/12

f 11/31/12 15/35/12 10/33/12

f 12/32/12 15/35/12 11/31/12

usemtl FrontColor
f 14/34/11 12/32/11 15/35/11

usemtl BackColor
f 15/35/12 12/32/12 14/34/12

usemtl _7
f 10/13/6 11/21/6 5/14/6

vt -8.0991 6.81244
f 2/36/4 9/15/4 5/14/4

g Mesh2 Group1 DES010 Model

l 4 1

l 6 4

l 3 6

l 1 3

g Mesh3 Group1 DES010 Model

l 8 2

l 7 8

l 5 7

l 2 5

l 9 2

l 9 10

l 12 9

l 12 8

l 11 12

l 11 7

l 10 11

l 10 5

g Mesh4 Group1 DES010 Model

l 13 14

l 13 16

l 16 15

l 15 14

g Mesh5 DES010 Model

usemtl Color_D03
v 37.7714 6.444 -35.6167
vt 122.007 118.228
v 34.6724 3.441 -35.6167
v 37.7714 3.441 -35.6167
vt 122.007 0
f 17/37/3 18/3/3 19/38/3

v 34.6724 6.444 -35.6167
vt 0 118.228
f 18/3/3 17/37/3 20/39/3

usemtl BackColor
f 19/38/4 18/3/4 17/37/4

usemtl _Tile_Ceramic_Natural_15
vt 33.4585 33.3962
v 37.7714 3.441 -32.7993
vt 35.6563 31.398
vt 35.6563 33.3962
f 18/40/9 21/41/9 19/42/9

v 34.6724 3.441 -33.7931
vt 33.4585 32.1028
f 22/43/9 21/41/9 18/40/9

v 34.6724 3.441 -33.0405
vt 33.4585 31.5691
f 23/44/9 21/41/9 22/43/9

v 34.6724 3.441 -32.7993
vt 33.4585 31.398
f 21/41/9 23/44/9 24/45/9

usemtl BackColor
vt 0 9.4981
f 24/3/10 23/46/10 21/38/10

usemtl Color_D03
vt 9.4981 0
v 34.6724 6.444 -32.7993
f 23/47/11 25/39/11 24/3/11

v 34.6724 5.656 -33.0405
vt 9.4981 87.2047
f 25/39/11 23/47/11 26/48/11

usemtl BackColor
f 24/3/12 25/39/12 23/47/12

usemtl Color_D03
vt -122.007 0
f 25/39/7 21/49/7 24/3/7

v 37.7714 6.444 -32.7993
vt -122.007 118.228
f 21/49/7 25/39/7 27/50/7

usemtl BackColor
f 24/3/8 21/49/8 25/39/8

f 27/50/8 25/39/8 21/49/8

usemtl Color_D03
v 37.4975 6.444 -32.7993
vt -111.224 118.228
f 27/50/7 25/39/7 28/51/7

usemtl BackColor
f 28/51/8 25/39/8 27/50/8

usemtl Color_D03
vt -7.72873 82.8016
f 27/39/1 1/52/1 21/3/1

vt -110.923 118.228
f 1/52/1 27/39/1 17/53/1

usemtl BackColor
f 21/3/2 1/52/2 27/39/2

usemtl Color_D03
vt -7.72873 43.0772
f 3/54/1 21/3/1 1/52/1

vt -110.923 0
f 21/3/1 3/54/1 19/55/1

usemtl BackColor
f 19/55/2 3/54/2 21/3/2

usemtl Color_D03
vt -47.4531 43.0772
f 19/55/1 3/54/1 6/56/1

usemtl BackColor
f 6/56/2 3/54/2 19/55/2

usemtl Color_D03
f 19/55/1 6/56/1 17/53/1

usemtl BackColor
f 17/53/2 6/56/2 19/55/2

usemtl Color_D03
vt -47.4531 82.8016
f 4/57/1 17/53/1 6/56/1

f 1/52/1 17/53/1 4/57/1

usemtl BackColor
f 17/53/2 27/39/2 1/52/2

f 4/57/2 17/53/2 1/52/2

f 6/56/2 17/53/2 4/57/2

f 1/52/2 21/3/2 3/54/2

vt 122.007 110.923
vt 0 110.923
f 19/58/10 21/38/10 18/59/10

vt 0 39.1273
f 18/59/10 21/38/10 22/60/10

f 22/60/10 21/38/10 23/46/10

usemtl Color_D03
vt 110.923 0
v 34.6724 5.656 -33.7931
vt 39.1273 87.2047
vt 39.1273 0
f 18/61/11 29/62/11 22/63/11

vt 110.923 118.228
f 20/64/11 29/62/11 18/61/11

f 20/64/11 26/48/11 29/62/11

f 25/39/11 26/48/11 20/64/11

usemtl BackColor
f 26/48/12 23/47/12 25/39/12

f 20/64/12 26/48/12 25/39/12

f 29/62/12 26/48/12 20/64/12

f 18/61/12 29/62/12 20/64/12

f 22/63/12 29/62/12 18/61/12

f 20/39/4 17/37/4 18/3/4

usemtl Color_D03
v 37.6471 6.444 -35.6167
vt 117.114 118.228
f 20/39/3 17/37/3 30/65/3

usemtl BackColor
f 30/65/4 17/37/4 20/39/4

g Mesh6 DES010 Model

l 18 19

l 18 20

l 22 18

l 23 22

l 24 23

l 21 24

l 21 27

l 21 19

l 19 17

l 30 17

l 20 30

l 25 20

l 24 25

l 28 25

l 28 27

l 27 17

l 26 23

l 26 29

l 22 29

g Mesh7 DES010 Model

l 6 4

l 3 6

l 1 3

l 4 1

g Mesh8 Model

v -46.1606 5.65 -333.138
v -47.599 5.65 -333.51
l 31 32

g Mesh9 Model

v -34.4464 9.6 -45.4199
v -34.4276 9.6 -45.4925
l 33 34

