# Alias OBJ Model File
# Exported from SketchUp, (c) 2000-2012 Trimble Navigation Limited
# File units = meters

mtllib LAB024.mtl

g Mesh1 DES024 Model

usemtl _Tile_Ceramic_Natural_15
v 23.4784 3.441 -41.0124
vt 25.5195 37.2228
vn 3.36349e-017 1 -5.51153e-016
v 23.3597 3.441 -44.5277
vt 25.4353 39.716
v 23.3597 3.441 -41.0124
vt 25.4353 37.2228
f 1/1/1 2/2/1 3/3/1

v 24.8916 3.441 -44.4934
vt 26.5217 39.6916
f 2/2/1 1/1/1 4/4/1

usemtl BackColor
vt -3.82384e-030 -6.26588e-029
vn -3.36349e-017 -1 5.51153e-016
vt -2.86788e-030 138.399
vt 4.66948 -6.27454e-029
f 3/5/2 2/6/2 1/7/2

usemtl Color_D03
vt 138.399 8.52651e-014
vn 1 0 -0
v 23.3597 6.444 -41.0124
vt 0 118.228
vt 0 1.13687e-013
f 2/8/3 5/9/3 3/10/3

v 23.3597 6.444 -41.1194
vt 4.21406 118.228
f 5/9/3 2/8/3 6/11/3

usemtl BackColor
vn -1 -0 0
f 3/10/4 5/9/4 2/8/4

usemtl Color_D03
vn 0 0 -1
vt -4.66948 1.13687e-013
f 5/9/5 1/12/5 3/10/5

v 23.4784 5.656 -41.0124
vt -4.66948 87.2047
f 1/12/5 5/9/5 7/13/5

usemtl BackColor
vn -0 -0 1
f 3/10/6 1/12/6 5/9/6

f 7/13/6 5/9/6 1/12/6

usemtl Color_D03
v 24.169 5.656 -41.0124
vt -31.8621 87.2047
f 7/13/5 5/9/5 8/14/5

usemtl BackColor
f 8/14/6 5/9/6 7/13/6

usemtl Color_D03
v 28.202 6.444 -41.0124
vt -190.64 118.228
f 9/15/5 8/14/5 5/9/5

v 28.202 3.441 -41.0124
vt -190.64 1.13687e-013
f 10/16/5 8/14/5 9/15/5

v 24.169 3.441 -41.0124
vt -31.8621 1.13687e-013
f 8/14/5 10/16/5 11/17/5

usemtl BackColor
f 11/17/6 10/16/6 8/14/6

usemtl _Tile_Ceramic_Natural_15
vt 26.0093 37.2228
vt 28.8696 37.2228
f 4/4/1 11/18/1 10/19/1

f 4/4/1 1/1/1 11/18/1

usemtl BackColor
vt 60.3075 137.047
f 4/20/2 1/7/2 2/6/2

vt 31.8621 -6.32495e-029
f 11/21/2 1/7/2 4/20/2

vt 190.64 -6.61929e-029
f 10/22/2 11/21/2 4/20/2

usemtl _Tile_Ceramic_Natural_15
v 26.4755 3.441 -44.3867
vt 27.6451 39.616
f 4/4/1 10/19/1 12/23/1

usemtl BackColor
vt 122.668 132.849
f 12/24/2 10/22/2 4/20/2

usemtl _Tile_Ceramic_Natural_15
v 28.0531 3.441 -44.2092
vt 28.764 39.4901
f 12/23/1 10/19/1 13/25/1

usemtl BackColor
vt 184.779 125.862
f 13/26/2 10/22/2 12/24/2

usemtl _Tile_Ceramic_Natural_15
v 28.202 3.441 -44.1857
vt 28.8696 39.4734
f 13/25/1 10/19/1 14/27/1

usemtl BackColor
vt 190.64 124.935
f 14/28/2 10/22/2 13/26/2

usemtl Color_D03
vt 3.51309e-031 1.12143e-013
vn -1 -8.10042e-018 1.84279e-033
v 28.202 6.444 -44.1857
vt -124.935 118.228
vt -124.935 8.37209e-014
f 10/29/7 15/30/7 14/31/7

vt 3.51309e-031 118.228
f 15/30/7 10/29/7 9/32/7

usemtl BackColor
vn 1 8.10042e-018 -1.84279e-033
f 9/32/8 10/29/8 15/30/8

f 9/15/6 8/14/6 10/16/6

f 5/9/6 8/14/6 9/15/6

f 14/31/8 15/30/8 10/29/8

usemtl Color_D03
v 28.0531 6.444 -44.2092
vt 162.85 118.228
vn -0.134036 -1.80177e-017 0.990976
vt 168.785 8.24862e-014
vn -0.156205 -1.81417e-017 0.987725
vt 168.785 118.228
f 16/33/9 14/34/10 15/35/10

vt 162.85 2.56428e-014
f 14/34/10 16/33/9 13/36/9

usemtl BackColor
vn 0.134036 1.80177e-017 -0.990976
vn 0.156205 1.81417e-017 -0.987725
f 13/36/11 16/33/11 14/34/12

usemtl Color_D03
v 26.4755 6.444 -44.3867
vt 107.047 118.228
vn -0.0895071 -1.77426e-017 0.995986
vt 169.549 2.58154e-014
vt 169.549 118.228
f 17/37/13 13/38/9 16/39/9

vt 107.047 -2.60634e-015
f 13/38/9 17/37/13 12/40/13

usemtl BackColor
vn 0.0895071 1.77426e-017 -0.995986
f 12/40/14 17/37/14 13/38/11

usemtl Color_D03
vt 113.468 118.228
vt 50.9658 -2.47671e-015
vn -0.0447985 6.26935e-018 0.998996
vt 113.468 -2.47671e-015
f 17/41/13 4/42/15 12/43/13

v 24.8916 6.444 -44.4934
vt 50.9658 118.228
f 4/42/15 17/41/13 18/44/15

usemtl BackColor
vn 0.0447985 -6.26935e-018 -0.998996
f 12/43/14 4/42/16 17/41/14

f 18/44/16 17/41/14 4/42/16

usemtl Color_D03
v 24.787 4.53516 -44.4957
vt 53.1049 43.0772
vn -0.0224049 3.01272e-017 0.999749
vt 57.2218 4.16853e-015
vt 57.2218 118.228
f 19/45/17 4/46/15 18/47/15

vt -3.10082 8.94337e-014
f 4/46/15 19/45/17 2/48/17

usemtl BackColor
vn 0.0224049 -3.01272e-017 -0.999749
f 2/48/18 19/45/18 4/46/16

usemtl Color_D03
v 23.3597 4.53516 -44.5277
vt -3.10082 43.0772
f 2/48/17 19/45/17 20/49/17

usemtl BackColor
f 20/49/18 19/45/18 2/48/18

usemtl Translucent_Glass_Blue
vn -0.0224049 8.98403e-020 0.999749
v 23.3597 5.54416 -44.5277
vt -3.10082 82.8016
f 19/45/19 21/50/19 20/49/19

v 24.787 5.54416 -44.4957
vt 53.1049 82.8016
f 21/50/19 19/45/19 22/51/19

vn 0.0224049 -8.98403e-020 -0.999749
f 20/49/20 21/50/20 19/45/20

usemtl Color_D03
v 23.3597 6.444 -44.5277
vt 138.399 118.228
vt 138.399 43.0772
vt 138.399 82.8016
f 23/52/3 20/53/3 21/54/3

f 23/52/3 2/8/3 20/53/3

f 6/11/3 2/8/3 23/52/3

usemtl BackColor
f 6/11/4 2/8/4 5/9/4

f 23/52/4 2/8/4 6/11/4

f 20/53/4 2/8/4 23/52/4

f 21/54/4 20/53/4 23/52/4

usemtl Color_D03
vt -3.10082 118.228
f 21/50/17 18/47/15 23/55/17

f 22/51/17 18/47/15 21/50/17

f 19/45/17 18/47/15 22/51/17

usemtl BackColor
f 18/47/16 4/46/16 19/45/18

f 22/51/18 18/47/16 19/45/18

f 21/50/18 18/47/16 22/51/18

f 23/55/18 18/47/16 21/50/18

usemtl Translucent_Glass_Blue
f 22/51/20 19/45/20 21/50/20

usemtl BackColor
f 16/39/11 13/38/11 17/37/14

f 15/35/12 14/34/12 16/33/11

g Mesh2 DES024 Model

l 3 1

l 3 2

l 3 5

l 5 9

l 6 5

l 6 23

l 21 23

l 20 21

l 20 19

l 2 20

l 4 2

l 12 4

l 13 12

l 14 13

l 10 14

l 11 10

l 1 11

l 7 1

l 7 8

l 11 8

l 10 9

l 9 15

l 14 15

l 15 16

l 16 17

l 17 18

l 18 23

l 22 19

l 22 21

