# Alias OBJ Model File
# Exported from SketchUp, (c) 2000-2012 Trimble Navigation Limited
# File units = meters

mtllib LAB004.mtl

g Mesh1 LAB004 Model

usemtl Color_D03
v 43.1492 6.444 -14.8264
vt -105.473 118.228
vn -0.988975 -5.48094e-018 -0.148083
v 43.1041 3.441 -14.5248
vt -93.4656 2.83476e-013
v 43.1041 6.444 -14.5248
vt -93.4656 118.228
f 1/1/1 2/2/1 3/3/1

v 43.1492 3.441 -14.8264
vt -105.473 5.61023e-014
f 2/2/1 1/1/1 4/4/1

usemtl BackColor
vn 0.988975 5.48094e-018 0.148083
f 3/3/2 2/2/2 1/1/2

usemtl Color_D03
v 42.9023 3.441 -13.569
vt -62.8747 1.4154e-013
vn -0.978429 -4.39597e-018 -0.206583
vt -101.335 118.228
vt -101.335 2.83648e-013
f 5/5/3 3/6/3 2/7/3

v 42.9023 6.444 -13.569
vt -62.8747 118.228
f 3/6/3 5/5/3 6/8/3

usemtl BackColor
vn 0.978429 4.39597e-018 0.206583
f 6/8/4 5/5/4 3/6/4

usemtl Color_D03
v 42.8815 3.441 -13.4708
vt -58.9261 2.83648e-013
f 7/9/3 6/8/3 5/5/3

v 42.8815 6.444 -13.4708
vt -58.9261 118.228
f 6/8/3 7/9/3 8/10/3

usemtl BackColor
f 8/10/4 7/9/4 6/8/4

usemtl Color_D03
v 42.6663 3.441 -12.6855
vt -34.4537 2.83803e-013
vn -0.964426 -3.29546e-018 -0.264354
vt -66.5121 118.228
vt -66.5121 2.83803e-013
f 9/11/5 8/12/5 7/13/5

v 42.6663 6.444 -12.6855
vt -34.4537 118.228
f 8/12/5 9/11/5 10/14/5

usemtl BackColor
vn 0.964426 3.29546e-018 0.264354
f 10/14/6 9/11/6 8/12/6

usemtl Color_D03
vt -111.232 2.8294e-013
vn 0.521171 1.88039e-017 -0.853452
v 41.2196 6.444 -13.569
vt -44.4952 118.228
vt -111.232 118.228
f 9/15/7 11/16/7 10/17/7

v 41.2196 3.441 -13.569
vt -44.4952 8.39879e-014
f 11/16/7 9/15/7 12/18/7

usemtl BackColor
vn -0.521171 -1.88039e-017 0.853452
f 12/18/8 9/15/8 11/16/8

usemtl _Tile_Ceramic_Natural_15
vt 39.4704 18.6512
vn -1.22604e-015 1 -1.47535e-015
vt 38.1019 17.7594
vt 39.1279 17.1329
f 4/19/9 12/20/9 9/21/9

v 39.3559 3.441 -14.8264
vt 36.7801 18.6512
f 13/22/9 12/20/9 4/19/9

v 39.3559 3.441 -13.569
vt 36.7801 17.7594
f 13/22/9 14/23/9 12/20/9

v 39.3559 3.441 -14.5754
vt 36.7801 18.4733
f 15/24/9 14/23/9 13/22/9

v 39.3559 3.441 -13.8443
vt 36.7801 17.9547
f 14/23/9 15/24/9 16/25/9

usemtl BackColor
vt 3.4846e-029 45.6219
vn 1.22604e-015 -1 1.47535e-015
vt 0 74.4063
vt 2.27374e-013 34.7813
f 16/26/10 15/27/10 14/28/10

vt 2.27374e-013 84.2866
f 13/29/10 14/28/10 15/27/10

vt 73.3752 34.7813
f 12/30/10 14/28/10 13/29/10

usemtl Color_D03
v 39.3559 6.444 -13.569
vt -2.27374e-013 118.228
vn 0 0 -1
vt -73.3752 8.52651e-014
vt -2.27374e-013 2.84217e-014
f 17/31/11 12/32/11 14/33/11

vt -73.3752 118.228
f 12/32/11 17/31/11 11/34/11

usemtl BackColor
vn -0 -0 1
f 14/33/12 12/32/12 17/31/12

f 11/34/12 17/31/12 12/32/12

usemtl Color_D03
vt 45.6219 2.84217e-014
vn 1 -9.6151e-016 -3.80994e-017
vt 34.7813 118.228
vt 34.7813 2.84217e-014
f 16/35/13 17/36/13 14/37/13

v 39.3559 5.54416 -13.8443
vt 45.6219 82.8016
f 17/36/13 16/35/13 18/38/13

usemtl BackColor
vn -1 9.6151e-016 3.80994e-017
f 14/37/14 17/36/14 16/35/14

f 18/38/14 16/35/14 17/36/14

usemtl Color_D03
v 39.3559 6.444 -14.8264
vt 84.2866 118.228
f 17/36/13 18/38/13 19/39/13

usemtl BackColor
f 19/39/14 18/38/14 17/36/14

usemtl Color_D03
v 39.3559 5.54416 -14.5754
vt 74.4063 82.8016
f 19/39/13 18/38/13 20/40/13

usemtl BackColor
f 20/40/14 18/38/14 19/39/14

usemtl Color_D03
vt 84.2866 2.2171e-028
f 19/39/13 20/40/13 13/41/13

usemtl BackColor
f 13/41/14 20/40/14 19/39/14

usemtl Color_D03
vt 74.4063 2.72573e-030
f 13/41/13 20/40/13 15/42/13

usemtl BackColor
f 15/42/14 20/40/14 13/41/14

usemtl Color_D03
vt 149.346 5.68434e-014
vn 0 0 1
vt 2.27374e-013 118.228
vt 2.27374e-013 0
f 4/43/15 19/44/15 13/45/15

v 43.1492 3.451 -14.8264
vt 149.346 0.393701
f 19/44/15 4/43/15 21/46/15

usemtl BackColor
vn -0 -0 -1
f 13/45/16 19/44/16 4/43/16

f 21/46/16 4/43/16 19/44/16

usemtl Color_D03
vt -105.473 0.393701
f 4/4/1 1/1/1 21/47/1

usemtl BackColor
f 4/4/2 1/1/2 2/2/2

f 21/47/2 1/1/2 4/4/2

usemtl Color_D03
vt 149.346 118.228
f 19/44/15 21/46/15 1/48/15

usemtl BackColor
f 1/48/16 21/46/16 19/44/16

usemtl _Tile_Ceramic_Natural_15
vt 39.2953 17.7594
vt 39.4384 18.4373
f 4/19/9 5/49/9 2/50/9

vt 39.2806 17.6899
f 4/19/9 7/51/9 5/49/9

f 4/19/9 9/21/9 7/51/9

usemtl BackColor
vt 130.332 -1.83571e-028
vt 149.346 84.2866
f 9/52/10 12/30/10 4/53/10

f 4/53/10 12/30/10 13/29/10

vt 138.807 30.9179
f 7/54/10 9/52/10 4/53/10

f 7/13/6 8/12/6 9/11/6

vt 139.622 34.7813
f 5/55/10 7/54/10 4/53/10

f 5/5/4 6/8/4 7/9/4

vt 147.568 72.4116
f 2/56/10 5/55/10 4/53/10

f 2/7/4 3/6/4 5/5/4

f 10/17/8 11/16/8 9/15/8

g Mesh2 LAB004 Model

l 2 4

l 2 3

l 5 2

l 5 6

l 7 5

l 7 8

l 9 7

l 9 10

l 12 9

l 12 11

l 14 12

l 14 17

l 16 14

l 15 16

l 13 15

l 13 4

l 13 19

l 19 17

l 1 19

l 3 1

l 6 3

l 8 6

l 10 8

l 11 10

l 17 11

l 21 1

l 4 21

l 20 15

l 20 18

l 16 18

g Mesh3 Model

v -46.1606 5.65 -333.138
v -47.599 5.65 -333.51
l 22 23

g Mesh4 Model

v -34.4464 9.6 -45.4199
v -34.4276 9.6 -45.4925
l 24 25

