# Alias OBJ Model File
# Exported from SketchUp, (c) 2000-2012 Trimble Navigation Limited
# File units = meters

mtllib LAB026.mtl

g Mesh1 DES026 Model

usemtl _Tile_Ceramic_Natural_15
v 15.7097 3.441 -41.0124
vt 20.0098 37.2228
vn 1.26693e-016 1 -6.1014e-016
v 13.5406 3.441 -43.2559
vt 18.4714 38.814
v 13.5406 3.441 -41.0124
vt 18.4714 37.2228
f 1/1/1 2/2/1 3/3/1

v 13.8927 3.441 -43.2559
vt 18.7211 38.814
f 2/2/1 1/1/1 4/4/1

usemtl BackColor
vt -1.44033e-029 -6.93649e-029
vn -1.26693e-016 -1 6.1014e-016
vt -1.80041e-029 88.3297
vt 85.4003 -7.59664e-029
f 3/5/2 2/6/2 1/7/2

usemtl Color_D03
vt 88.3297 1.42109e-013
vn 1 8.10042e-018 2.60646e-033
v 13.5406 6.444 -41.0124
vt 0 118.228
vt 0 1.13687e-013
f 2/8/3 5/9/3 3/10/3

v 13.5406 6.444 -43.2559
vt 88.3297 118.228
f 5/9/3 2/8/3 6/11/3

usemtl BackColor
vn -1 -8.10042e-018 -2.60646e-033
f 3/10/4 5/9/4 2/8/4

usemtl Color_D03
vn 0 0 -1
vt -85.4003 1.13687e-013
f 5/9/5 1/12/5 3/10/5

v 15.7097 5.656 -41.0124
vt -85.4003 87.2047
f 1/12/5 5/9/5 7/13/5

usemtl BackColor
vn -0 -0 1
f 3/10/6 1/12/6 5/9/6

f 7/13/6 5/9/6 1/12/6

usemtl Color_D03
v 16.4863 5.656 -41.0124
vt -115.975 87.2047
f 7/13/5 5/9/5 8/14/5

usemtl BackColor
f 8/14/6 5/9/6 7/13/6

usemtl Color_D03
v 18.35 6.444 -41.0124
vt -189.35 118.228
f 9/15/5 8/14/5 5/9/5

v 18.35 3.441 -41.0124
vt -189.35 1.13687e-013
f 10/16/5 8/14/5 9/15/5

v 16.4863 3.441 -41.0124
vt -115.975 1.13687e-013
f 8/14/5 10/16/5 11/17/5

usemtl BackColor
f 11/17/6 10/16/6 8/14/6

usemtl _Tile_Ceramic_Natural_15
v 16.6456 3.441 -43.8913
vt 20.6736 39.2647
vt 20.5606 37.2228
vt 21.8824 37.2228
f 12/18/1 11/19/1 10/20/1

f 12/18/1 1/1/1 11/19/1

v 15.4322 3.441 -43.6433
vt 19.813 39.0887
f 13/21/1 1/1/1 12/18/1

f 4/4/1 1/1/1 13/21/1

usemtl BackColor
vt 13.8618 88.3297
f 4/22/2 1/7/2 2/6/2

vt 74.475 103.579
f 13/23/2 1/7/2 4/22/2

vt 122.247 113.346
f 12/24/2 1/7/2 13/23/2

vt 115.975 -7.83298e-029
f 11/25/2 1/7/2 12/24/2

vt 189.35 -8.40017e-029
f 10/26/2 11/25/2 12/24/2

usemtl _Tile_Ceramic_Natural_15
v 17.2072 3.441 -43.996
vt 21.0718 39.3389
f 12/18/1 10/20/1 14/27/1

usemtl BackColor
vt 144.356 117.466
f 14/28/2 10/26/2 12/24/2

usemtl _Tile_Ceramic_Natural_15
v 18.35 3.441 -44.1767
vt 21.8824 39.4671
f 14/27/1 10/20/1 15/29/1

usemtl BackColor
vt 189.35 124.581
f 15/30/2 10/26/2 14/28/2

usemtl Color_D03
vt 3.49921e-031 1.12153e-013
vn -1 -8.10042e-018 1.84801e-033
v 18.35 6.444 -44.1767
vt -124.581 118.228
vt -124.581 8.37313e-014
f 10/31/7 16/32/7 15/33/7

vt 3.49921e-031 118.228
f 16/32/7 10/31/7 9/34/7

usemtl BackColor
vn 1 8.10042e-018 -1.84801e-033
f 9/34/8 10/31/8 16/32/8

f 9/15/6 8/14/6 10/16/6

f 5/9/6 8/14/6 9/15/6

f 15/33/8 16/32/8 10/31/8

usemtl Color_D03
v 17.2072 4.53516 -43.996
vt 160.933 43.0772
vn 0.156205 -2.70182e-018 0.987725
vt 206.486 8.50126e-014
vt 206.486 118.228
f 17/35/9 15/36/9 16/37/9

vt 160.933 -2.52551e-016
f 15/36/9 17/35/9 14/38/9

usemtl BackColor
vn -0.156205 2.70182e-018 -0.987725
f 14/38/10 17/35/10 15/36/10

usemtl Color_D03
vt 163.431 43.0772
vn 0.183184 2.43559e-016 0.983079
vt 140.941 2.16851e-014
vt 163.431 2.16851e-014
f 17/39/11 12/40/11 14/41/11

v 16.6456 4.53516 -43.8913
vt 140.941 43.0772
f 12/40/11 17/39/11 18/42/11

usemtl BackColor
vn -0.183184 -2.43559e-016 -0.983079
f 14/41/12 12/40/12 17/39/12

f 18/42/12 17/39/12 12/40/12

usemtl Translucent_Glass_Blue
vn 0.183184 -1.76039e-018 0.983079
v 16.6456 5.54416 -43.8913
vt 140.941 82.8016
f 17/39/13 19/43/13 18/42/13

v 17.2072 5.54416 -43.996
vt 163.431 82.8016
f 19/43/13 17/39/13 20/44/13

vn -0.183184 1.76039e-018 -0.983079
f 18/42/14 19/43/14 17/39/14

v 15.4322 5.54416 -43.6433
vt 93.7125 82.8016
vn 0.222198 3.53192e-016 0.975002
vt 142.472 43.0772
vn 0.200297 4.98772e-018 0.979735
vt 142.472 82.8016
f 21/45/15 18/46/16 19/47/16

v 15.4322 4.53516 -43.6433
vt 93.7125 43.0772
f 18/46/16 21/45/15 22/48/15

vn -0.222198 -3.53192e-016 -0.975002
vn -0.200297 -4.98772e-018 -0.979735
f 22/48/17 21/45/17 18/46/18

v 14.283 5.54416 -43.3541
vt 50.8415 82.8016
vn 0.243987 7.01218e-016 0.969779
vt 97.4963 43.0772
vt 97.4963 82.8016
f 23/49/19 22/50/15 21/51/15

v 14.283 4.53516 -43.3541
vt 50.8415 43.0772
f 22/50/15 23/49/19 24/52/19

vn -0.243987 -7.01218e-016 -0.969779
f 24/52/20 23/49/20 22/50/17

usemtl Color_D03
v 13.8927 6.444 -43.2559
vt 34.9942 118.228
vn 0.243987 2.39819e-017 0.969779
f 25/53/21 24/52/21 23/49/21

vt 34.9942 5.88166e-014
f 24/52/21 25/53/21 4/54/21

usemtl BackColor
vn -0.243987 -2.39819e-017 -0.969779
f 4/54/22 25/53/22 24/52/22

usemtl Color_D03
vt 13.8618 118.228
vn -1.05098e-031 -1.70862e-017 1
vt -9.28328e-030 1.40599e-013
vt 13.8618 5.53342e-014
f 25/55/23 2/56/23 4/57/23

vt -9.28328e-030 118.228
f 2/56/23 25/55/23 6/58/23

usemtl BackColor
vn 1.05098e-031 1.70862e-017 -1
f 4/57/24 2/56/24 25/55/24

f 6/58/24 25/55/24 2/56/24

f 6/11/4 2/8/4 5/9/4

f 23/49/22 24/52/22 25/53/22

usemtl Color_D03
v 15.4322 6.444 -43.6433
vt 97.4963 118.228
vn 0.222198 1.75327e-016 0.975002
f 25/53/21 23/49/21 26/59/25

usemtl BackColor
vn -0.222198 -1.75327e-016 -0.975002
f 26/59/26 23/49/22 25/53/22

usemtl Color_D03
f 26/59/25 23/49/21 21/51/25

usemtl BackColor
f 21/51/26 23/49/22 26/59/26

usemtl Translucent_Glass_Blue
f 21/51/17 22/50/17 23/49/20

usemtl _7
vt -4.6481 6.90399
vn 0 -1 -0
v 15.4353 5.54416 -44.2172
vt -5.07091 7.03314
vt -5.03439 6.91752
f 23/60/27 27/61/27 21/62/27

v 14.283 5.54416 -43.9434
vt -4.68459 7.02282
f 27/61/27 23/60/27 28/63/27

usemtl BackColor
vt -29.2303 115.395
vn -0 1 0
vt -29.2303 92.1963
vt -74.595 126.173
f 28/64/28 23/65/28 27/66/28

vt -74.475 103.579
f 21/67/28 27/66/28 23/65/28

usemtl _7
vt -5.43871 6.92027
f 21/62/27 27/61/27 19/68/27

usemtl BackColor
vt -122.247 113.346
f 19/69/28 27/66/28 21/67/28

usemtl _7
v 16.9921 5.54416 -44.5179
vt -5.58856 7.03314
f 19/68/27 27/61/27 29/70/27

usemtl BackColor
vt -135.885 138.014
f 29/71/28 27/66/28 19/69/28

usemtl _7
vt -5.6252 6.91949
f 19/68/27 29/70/27 20/72/27

usemtl BackColor
vt -144.356 117.466
f 20/73/28 29/71/28 19/69/28

usemtl _7
v 17.2072 5.54416 -44.5501
vt -5.65952 7.03124
f 20/72/27 29/70/27 30/74/27

usemtl BackColor
vt -144.356 139.281
f 30/75/28 29/71/28 20/73/28

usemtl Translucent_Glass_Blue
f 20/44/14 17/39/14 19/43/14

usemtl Color_D03
vt 160.933 82.8016
f 17/35/9 16/37/9 20/76/9

usemtl BackColor
f 16/37/10 15/36/10 17/35/10

f 20/76/10 16/37/10 17/35/10

usemtl Color_D03
v 17.2072 6.444 -43.996
vt 160.933 118.228
f 20/76/9 16/37/9 31/77/9

usemtl BackColor
f 31/77/10 16/37/10 20/76/10

usemtl Color_D03
vt 163.431 118.228
vn 0.183184 -2.94533e-016 0.983079
f 31/78/29 19/43/29 20/44/29

v 16.6456 6.444 -43.8913
vt 140.941 118.228
f 19/43/29 31/78/29 32/79/29

usemtl BackColor
vn -0.183184 2.94533e-016 -0.983079
f 20/44/30 19/43/30 31/78/30

f 32/79/30 31/78/30 19/43/30

usemtl Color_D03
vt 142.472 118.228
vn 0.200297 3.26583e-016 0.979735
f 32/80/31 21/45/25 19/47/31

vt 93.7125 118.228
f 21/45/25 32/80/31 26/81/25

usemtl BackColor
vn -0.200297 -3.26583e-016 -0.979735
f 19/47/32 21/45/26 32/80/32

usemtl Translucent_Glass_Blue
f 19/47/18 18/46/18 21/45/17

usemtl BackColor
f 26/81/26 32/80/32 21/45/26

usemtl Color_D03
v 14.283 6.444 -43.3541
vt 50.8415 118.228
f 25/53/21 26/59/25 33/82/21

usemtl BackColor
f 33/82/22 26/59/26 25/53/22

usemtl Color_D03
vn 0.222198 -1.14783e-016 0.975002
f 4/54/21 22/50/33 24/52/21

vt 97.4963 3.03949e-014
f 22/50/33 4/54/21 13/83/33

usemtl BackColor
vn -0.222198 1.14783e-016 -0.975002
f 13/83/34 4/54/22 22/50/34

f 24/52/22 22/50/34 4/54/22

usemtl Color_D03
vt 93.7125 6.47877e-015
vn 0.200297 -2.5349e-016 0.979735
f 13/84/33 18/46/35 22/48/33

vt 142.472 -2.19429e-014
f 18/46/35 13/84/33 12/85/35

usemtl BackColor
vn -0.200297 2.5349e-016 -0.979735
f 12/85/36 13/84/34 18/46/36

f 22/48/34 18/46/36 13/84/34

g Mesh2 DES026 Model

l 3 1

l 2 3

l 4 2

l 13 4

l 12 13

l 14 12

l 15 14

l 10 15

l 11 10

l 1 11

l 1 7

l 7 8

l 8 11

l 10 9

l 5 9

l 3 5

l 6 5

l 2 6

l 25 6

l 4 25

l 33 25

l 26 33

l 32 26

l 19 32

l 18 19

l 12 18

l 18 22

l 17 18

l 14 17

l 20 17

l 20 31

l 20 19

l 30 20

l 30 29

l 29 27

l 27 28

l 28 23

l 21 23

l 21 19

l 23 24

l 22 24

l 16 31

l 9 16

l 15 16

l 31 32

