# Alias OBJ Model File
# Exported from SketchUp, (c) 2000-2012 Trimble Navigation Limited
# File units = meters

mtllib AUL028.mtl

g Mesh1 DES028 Model

usemtl Color_D03
v 16.7445 3.701 -73.1963
vt 159.684 9.84252
vn -0.000328946 2.53183e-012 1
v 16.488 3.701 -73.1964
vt 149.582 9.84252
v 16.538 3.701 -73.1964
vt 151.551 9.84252
f 1/1/1 2/2/1 3/3/1

v 16.7445 4.351 -73.1963
vt 159.684 35.4331
f 2/2/1 1/1/1 4/4/1

usemtl _7
vt 5.39141 0.760201
vn 0.000328946 -2.53183e-012 -1
vt 5.37508 0.760201
vt 5.45885 0.760201
f 3/5/2 2/6/2 1/7/2

usemtl _Tile_Ceramic_Natural_14
vt 11.6936 51.9124
vn 1.8546e-013 1 3.25612e-013
v 16.5352 3.701 -64.914
vt 11.7271 46.0383
vt 11.729 51.9123
f 2/8/3 5/9/3 3/10/3

v 15.5385 3.701 -73.1967
vt 11.0202 51.9126
f 6/11/3 5/9/3 2/8/3

v 15.523 3.701 -73.1967
vt 11.0092 51.9126
f 7/12/3 5/9/3 6/11/3

v 15.4853 3.701 -65.0144
vt 10.9825 46.1095
f 8/13/3 5/9/3 7/12/3

v 15.4852 3.701 -64.9144
vt 10.9824 46.0386
f 5/9/3 8/13/3 9/14/3

usemtl _7
vt 5.05558 13.3337
vn -1.8546e-013 -1 -3.25612e-013
vt 5.05559 13.3542
vt 5.39838 13.3336
f 9/15/4 8/16/4 5/17/4

v 15.4853 5.801 -65.0144
vt 21.2274 1.19155
vn 1 -2.53897e-014 0.000328946
vt 21.1947 0.760201
vt 21.2274 0.760201
f 10/18/5 9/19/5 8/20/5

v 15.4852 5.801 -64.9144
vt 21.1947 1.19155
f 9/19/5 10/18/5 11/21/5

vn -1 2.53897e-014 -0.000328946
f 11/21/6 10/18/6 9/19/6

usemtl Color_D03
vt -110.213 3.95061
vn 1.0377e-013 -1 3.17343e-016
v 16.5352 5.801 -64.914
vt -151.551 1.36131e-011
vt -110.212 0.0135982
f 10/22/7 12/23/7 11/24/7

v 16.5353 5.801 -65.014
vt -151.552 3.93701
f 12/23/7 10/22/7 13/25/7

usemtl _7
vt -5.05558 13.3337
vn -1.0377e-013 1 -3.17343e-016
vt -5.39838 13.3336
vt -5.05559 13.3542
f 11/26/8 12/27/8 10/28/8

vt -5.39839 13.3542
f 13/29/8 10/28/8 12/27/8

usemtl Color_D03
vt -110.212 92.5197
vn 0.000328946 -1.50594e-014 -1
v 12.6858 6.701 -65.0153
vt 0.00131146 127.953
vt -151.551 92.5197
f 10/30/9 14/31/9 13/32/9

vt -110.212 9.84252
f 8/33/9 14/31/9 10/30/9

v 12.6858 3.701 -65.0153
vt 0.00131146 9.84252
f 14/31/9 8/33/9 15/34/9

usemtl _7
vt -4.13466 0.760201
vn -0.000328946 1.50594e-014 1
vt -5.04861 0.760201
vt -4.13466 1.37641
f 15/35/10 8/36/10 14/37/10

usemtl _Tile_Ceramic_Natural_14
v 12.6864 3.701 -66.6515
vt 8.99744 47.2705
vt 8.99706 46.1101
f 8/13/3 16/38/3 15/39/3

v 12.6865 3.701 -66.859
vt 8.99749 47.4177
f 16/38/3 8/13/3 17/40/3

usemtl _7
vt 4.14164 13.3544
vt 4.14182 13.6905
f 15/41/4 16/42/4 8/16/4

usemtl Color_D03
v 12.6865 6.701 -66.8605
vt 76.6325 127.953
vn 1 5.56832e-014 0.000328946
vt 3.98686 9.84252
vt 68.4031 9.84252
f 18/43/11 15/44/11 16/45/11

vt 3.98686 127.953
f 15/44/11 18/43/11 14/46/11

usemtl _7
vt 21.2274 1.37641
vn -1 -5.56832e-014 -0.000328946
vt 21.8298 1.37641
f 14/47/12 18/48/12 15/20/12

vt 21.7616 0.760201
f 16/49/12 15/20/12 18/48/12

usemtl Color_D03
vt 76.5722 9.84252
f 18/43/11 16/45/11 17/50/11

usemtl _7
vt 21.8293 0.760201
f 17/51/12 16/49/12 18/48/12

vt 4.14184 13.7331
f 17/52/4 8/16/4 16/42/4

usemtl _Tile_Ceramic_Natural_14
v 12.7406 3.701 -66.8766
vt 9.03588 47.4302
f 17/40/3 8/13/3 19/53/3

usemtl _7
vt 4.15951 13.7367
f 19/54/4 8/16/4 17/52/4

usemtl _Tile_Ceramic_Natural_14
v 12.7893 3.701 -66.9061
vt 9.07044 47.4511
f 19/53/3 8/13/3 20/55/3

usemtl _7
vt 4.17542 13.7428
f 20/56/4 8/16/4 19/54/4

usemtl _Tile_Ceramic_Natural_14
v 12.8301 3.701 -66.9458
vt 9.09939 47.4793
f 20/55/3 8/13/3 21/57/3

usemtl _7
vt 4.18875 13.7509
f 21/58/4 8/16/4 20/56/4

usemtl _Tile_Ceramic_Natural_14
v 12.8609 3.701 -66.9937
vt 9.12121 47.5132
f 21/57/3 8/13/3 22/59/3

usemtl _7
vt 4.19879 13.7608
f 22/60/4 8/16/4 21/58/4

usemtl _Tile_Ceramic_Natural_14
v 12.88 3.701 -67.0473
vt 9.13478 47.5513
f 22/59/3 8/13/3 23/61/3

usemtl _7
vt 4.20504 13.7718
f 23/62/4 8/16/4 22/60/4

usemtl _Tile_Ceramic_Natural_14
v 12.8865 3.701 -67.1038
vt 9.13939 47.5914
f 23/61/3 8/13/3 24/63/3

usemtl _7
vt 4.20716 13.7834
f 24/64/4 8/16/4 23/62/4

usemtl _Tile_Ceramic_Natural_14
v 13.1839 3.701 -72.8575
vt 9.35031 51.672
f 24/63/3 8/13/3 25/65/3

usemtl _7
vt 4.30426 14.9652
f 25/66/4 8/16/4 24/64/4

usemtl _Tile_Ceramic_Natural_14
v 13.184 3.701 -73.1975
vt 9.35039 51.9131
f 25/65/3 8/13/3 26/67/3

usemtl _7
vt 4.30429 15.0351
f 26/68/4 8/16/4 25/66/4

usemtl _Tile_Ceramic_Natural_14
v 13.1841 3.701 -73.4575
vt 9.35045 52.0975
f 26/67/3 8/13/3 27/69/3

usemtl _7
vt 4.30432 15.0885
f 27/70/4 8/16/4 26/68/4

usemtl _Tile_Ceramic_Natural_14
v 15.5233 3.701 -74.1767
vt 11.0094 52.6076
f 28/71/3 27/69/3 8/13/3

v 12.8033 3.701 -74.1776
vt 9.08034 52.6082
f 29/72/3 27/69/3 28/71/3

v 12.803 3.701 -73.4576
vt 9.08017 52.0976
f 27/69/3 29/72/3 30/73/3

usemtl _7
vt 4.1799 15.0885
vt 4.17998 15.2364
f 30/74/4 29/75/4 27/70/4

usemtl Color_D03
vt 364.71 9.84252
vn 1 -2.84708e-016 0.000328946
v 12.803 6.701 -73.4576
vt 336.364 127.953
vt 336.364 9.84252
f 29/76/13 31/77/13 30/78/13

v 12.8033 6.701 -74.1776
vt 364.71 127.953
f 31/77/13 29/76/13 32/79/13

usemtl _7
vt 23.9836 0.760201
vn -1 2.84708e-016 -0.000328946
vt 23.9836 1.37641
vt 24.2187 0.760201
f 30/80/14 31/81/14 29/82/14

vt 24.2187 1.37641
f 32/83/14 29/82/14 31/81/14

usemtl Color_D03
vt 111.59 9.84244
vn -0.000328521 -2.23627e-007 1
vt 4.5035 127.953
vt 4.5035 9.84244
f 28/84/15 32/85/15 29/86/15

v 15.5233 4.351 -74.1767
vt 111.59 35.433
f 32/85/15 28/84/15 33/87/15

usemtl _7
vt 4.17202 0.760198
vn 0.000328521 2.23627e-007 -1
vt 4.17202 1.37641
vt 5.06004 0.760198
f 29/88/16 32/89/16 28/90/16

vt 5.06004 0.893711
f 33/91/16 28/90/16 32/89/16

usemtl Color_D03
vt -364.71 9.84252
vn -1 4.19036e-013 -0.000328946
v 15.523 4.351 -73.1967
vt -326.127 35.4331
vt -364.71 35.4331
f 28/92/17 34/93/17 33/94/17

vt -326.127 9.84252
f 34/93/17 28/92/17 7/95/17

usemtl _7
vt -23.8987 0.760201
vn 1 -4.19036e-013 0.000328946
vt -24.2187 0.760201
vt -23.8987 0.893714
f 7/96/18 28/97/18 34/98/18

usemtl _Tile_Ceramic_Natural_14
f 28/71/3 8/13/3 7/12/3

usemtl _7
vt 5.068 15.2362
f 8/16/4 27/70/4 28/99/4

f 28/99/4 27/70/4 29/75/4

vt 5.06789 15.0349
f 7/100/4 8/16/4 28/99/4

f 7/100/4 5/17/4 8/16/4

vt 5.07295 15.0349
f 6/101/4 5/17/4 7/100/4

vt 5.38294 15.0349
f 2/102/4 5/17/4 6/101/4

vt 5.39927 15.0349
f 3/103/4 5/17/4 2/102/4

usemtl _Tile_Ceramic_Natural_14
v 16.5353 3.701 -65.014
vt 11.7271 46.1092
f 3/10/3 5/9/3 35/104/3

usemtl _7
vt 5.39839 13.3542
f 35/105/4 5/17/4 3/103/4

usemtl Color_D03
vt -0.049852 92.5197
vn -1 4.40176e-014 -0.000328946
vt -3.98686 9.84252
vt -0.049852 9.84252
f 12/106/19 35/107/19 5/108/19

vt -3.98686 92.5197
f 35/107/19 12/106/19 13/109/19

usemtl _7
vt -21.1947 0.760201
vn 1 -4.40176e-014 0.000328946
vt -21.2274 0.760201
vt -21.1947 1.19155
f 5/110/20 35/111/20 12/112/20

vt -21.2274 1.19155
f 13/113/20 12/112/20 35/111/20

usemtl Color_D03
v 16.7419 6.701 -65.014
vt -159.684 127.953
vt -151.551 9.84252
f 36/114/9 35/115/9 13/32/9

v 16.7419 3.701 -65.014
vt -159.684 9.84252
f 35/115/9 36/114/9 37/116/9

usemtl _7
vt -5.45885 0.760201
vt -5.45885 1.37641
vt -5.39141 0.760201
f 37/117/10 36/118/10 35/119/10

usemtl Color_D03
v 16.7447 6.701 -73.5163
vt -338.726 127.953
vn -1 -2.79558e-014 -0.000328946
vt -3.98686 127.953
f 38/120/21 37/107/21 36/121/21

v 16.7426 3.701 -67.1563
vt -88.3322 9.84252
f 37/107/21 38/120/21 39/122/21

usemtl BackColor
vn 1 2.79558e-014 0.000328946
f 36/121/22 37/107/22 38/120/22

f 39/122/22 38/120/22 37/107/22

usemtl Color_D03
f 39/122/21 38/120/21 4/93/21

usemtl BackColor
f 4/93/22 38/120/22 39/122/22

usemtl Color_D03
v 16.7446 4.351 -73.4663
vt -336.757 35.4331
f 4/93/21 38/120/21 40/123/21

usemtl BackColor
f 40/123/22 38/120/22 4/93/22

usemtl Color_D03
v 16.7447 4.351 -73.5163
vt -338.726 35.4331
f 40/123/21 38/120/21 41/124/21

usemtl BackColor
f 41/124/22 38/120/22 40/123/22

usemtl Color_D03
v 15.8031 4.351 -73.5666
vt 122.726 340.654
vn -1.58311e-015 1 -4.58008e-015
vt 159.795 336.705
vt 159.795 338.673
f 42/125/23 40/126/23 41/127/23

vt 159.791 326.075
f 42/125/23 4/128/23 40/126/23

vt 111.697 326.091
f 42/125/23 34/129/23 4/128/23

vt 111.71 364.673
f 34/129/23 42/125/23 33/130/23

usemtl _7
vn 1.58311e-015 -1 4.58008e-015
vt 5.15935 15.1109
f 33/99/24 42/131/24 34/100/24

usemtl Color_D03
v 15.7033 4.351 -74.1767
vt 118.797 364.671
f 33/130/23 42/125/23 43/132/23

usemtl _7
vt 5.12677 15.2362
f 43/133/24 42/131/24 33/99/24

usemtl Color_D03
v 15.8033 4.351 -74.1766
vt 122.734 364.67
f 44/134/23 43/132/23 42/125/23

usemtl _7
vt 5.15941 15.2362
f 42/131/24 43/133/24 44/135/24

usemtl Color_D03
v 15.8033 6.701 -74.1766
vt 122.614 127.953
vt 118.677 35.433
vt 122.614 35.433
f 45/136/15 43/137/15 44/138/15

f 43/137/15 45/136/15 33/87/15

usemtl _7
vt 5.15146 0.893711
vt 5.11881 0.893711
vt 5.15146 1.37641
f 44/139/16 43/140/16 45/141/16

f 33/91/16 45/141/16 43/140/16

usemtl Color_D03
f 32/85/15 33/87/15 45/136/15

usemtl _7
f 45/141/16 33/91/16 32/89/16

vt 5.46672 15.0348
f 4/142/24 34/100/24 42/131/24

usemtl Color_D03
vt 111.59 9.84252
vt 111.59 35.4331
f 7/143/1 4/4/1 34/144/1

vt 112.2 9.84252
f 6/145/1 4/4/1 7/143/1

f 2/2/1 4/4/1 6/145/1

usemtl _7
vt 5.45885 0.893714
f 4/146/2 1/7/2 2/6/2

usemtl Color_D03
v 16.7445 3.701 -73.1663
vt -324.946 9.84252
f 46/147/21 4/93/21 1/95/21

f 39/122/21 4/93/21 46/147/21

usemtl BackColor
f 46/147/22 4/93/22 39/122/22

f 1/95/22 4/93/22 46/147/22

usemtl _Tile_Ceramic_Natural_14
vt 11.8756 51.9123
vt 11.8742 47.6286
vt 11.8756 51.891
f 1/148/3 39/149/3 46/150/3

f 3/10/3 39/149/3 1/148/3

vt 11.8737 46.1092
f 3/10/3 37/151/3 39/149/3

f 3/10/3 35/104/3 37/151/3

usemtl _7
vt 5.46584 13.3541
f 37/152/4 35/105/4 3/103/4

vt 5.46607 13.7942
f 39/153/4 37/152/4 3/103/4

f 1/142/4 39/153/4 3/103/4

vt 5.46671 15.0287
f 46/154/4 39/153/4 1/142/4

vt 5.06509 0.760201
f 6/155/2 4/146/2 2/6/2

vt 5.06003 0.760201
f 7/156/2 4/146/2 6/155/2

vt 5.06003 0.893714
f 34/157/2 4/146/2 7/156/2

vt 5.46674 15.0903
f 40/158/24 4/142/24 42/131/24

vt 5.46675 15.1006
f 41/159/24 40/158/24 42/131/24

usemtl Color_D03
v 16.8645 4.351 -73.5663
vt 164.516 340.64
f 42/125/23 41/127/23 47/160/23

usemtl _7
vt 5.50589 15.1108
f 47/161/24 41/159/24 42/131/24

usemtl Color_D03
v 16.8645 4.351 -73.5163
vt 164.516 338.672
f 47/160/23 41/127/23 48/162/23

usemtl _7
vt 5.50589 15.1006
f 48/163/24 41/159/24 47/161/24

vt -24.2187 0.893714
f 33/164/18 34/98/18 28/97/18

vt -5.39141 1.19155
f 13/165/10 35/119/10 36/118/10

usemtl Color_D03
f 13/32/9 14/31/9 36/114/9

usemtl _7
vt -5.04861 1.19155
f 13/165/10 14/37/10 10/166/10

f 36/118/10 14/37/10 13/165/10

f 10/166/10 14/37/10 8/36/10

f 8/20/6 9/19/6 10/18/6

usemtl Color_D03
v 13.1841 6.701 -73.4575
vn 1 8.25027e-015 0.000328946
vt 326.127 9.84252
f 49/77/25 26/167/25 27/78/25

v 13.1839 6.701 -72.8575
vt 312.742 127.953
f 50/168/25 26/167/25 49/77/25

vt 312.742 9.84252
f 26/167/25 50/168/25 25/169/25

usemtl _7
vt 23.7877 0.760201
vn -1 -8.25027e-015 -0.000328946
vt 23.7877 1.37641
vt 23.8987 0.760201
f 25/170/26 50/171/26 26/172/26

usemtl Color_D03
vt 19.5069 127.953
vn -0.000328946 6.63029e-016 1
v 12.6884 3.701 -72.8577
vt -0.00131146 9.84252
vt 19.5069 9.84252
f 50/173/27 51/174/27 25/175/27

v 12.6884 6.701 -72.8577
vt -0.00131146 127.953
f 51/174/27 50/173/27 52/176/27

usemtl _7
vt 4.29643 0.760201
vn 0.000328946 -6.63029e-016 -1
vt 4.13466 0.760201
vt 4.29643 1.37641
f 25/177/28 51/178/28 50/179/28

usemtl _Tile_Ceramic_Natural_14
vt 8.99889 51.6721
v 12.7407 3.701 -67.3312
vt 9.03598 47.7526
f 51/180/3 53/181/3 25/65/3

v 12.6867 3.701 -67.5085
vt 8.99764 47.8783
f 54/182/3 53/181/3 51/180/3

v 12.6866 3.701 -67.3489
vt 8.9976 47.7652
f 53/181/3 54/182/3 55/183/3

usemtl _7
vt 4.14189 13.8337
vt 4.14191 13.8665
vt 4.15956 13.8301
f 55/184/4 54/185/4 53/186/4

usemtl Color_D03
vn 1 -1.61507e-015 0.000328946
vt 95.8595 9.84252
vt 102.143 9.84252
f 52/168/29 55/187/29 54/188/29

v 12.6866 6.701 -67.3473
vt 95.7992 127.953
f 56/189/29 55/187/29 52/168/29

v 12.6866 3.701 -67.3473
vt 95.7992 9.84252
f 55/187/29 56/189/29 57/190/29

usemtl _7
vt 21.9887 0.760201
vn -1 1.61507e-015 -0.000328946
vt 21.9887 1.37641
vt 21.9892 0.760201
f 57/191/30 56/192/30 55/193/30

usemtl _Color_C03_3
v 12.7013 6.701 -67.3454
vt 11.9217 127.953
vn 0.259137 -5.38956e-016 -0.965841
vt 12.5056 9.84252
vn 0.130852 -4.58337e-016 -0.991402
vt 12.5056 127.953
f 58/194/31 57/195/32 56/196/32

v 12.7013 3.451 -67.3454
vt 11.9217 4.35326e-014
f 59/197/31 57/195/32 58/194/31

v 12.6866 3.451 -67.3473
vt 12.5056 4.35326e-014
f 57/195/32 59/197/31 60/198/32

usemtl _7
vt -1.22918 0.70885
vn -0.130852 4.58337e-016 0.991402
vt -1.23402 0.70885
vn -0.259137 5.38956e-016 0.965841
vt -1.22918 0.760201
f 60/199/33 59/200/34 57/201/33

vt -1.23402 1.37641
f 58/202/34 57/201/33 59/200/34

vt -1.22918 1.37641
f 56/203/33 57/201/33 58/202/34

usemtl _Color_C03_3
vt 36.0979 127.953
v 12.7616 3.451 -67.3204
vt 33.5285 5.41124e-014
vn 0.500285 -6.12356e-016 -0.865861
vt 36.0979 5.41124e-014
f 58/204/31 61/205/35 59/206/31

v 12.7616 6.701 -67.3204
vt 33.5285 127.953
f 61/205/35 58/204/31 62/207/35

usemtl _7
vt 4.59012 0.70885
vt 4.56881 0.70885
vn -0.500285 6.12356e-016 0.865861
vt 4.59012 1.37641
f 59/208/34 61/209/36 58/210/34

vt 4.56881 1.37641
f 62/211/36 58/210/34 61/209/36

usemtl _Color_C03_3
vt 55.3323 127.953
v 12.8134 3.451 -67.2806
vt 52.7629 4.64739e-014
vn 0.707339 -5.85074e-016 -0.706874
vt 55.3323 4.64739e-014
f 62/212/35 63/213/37 61/214/35

v 12.8134 6.701 -67.2806
vt 52.7629 127.953
f 63/213/37 62/212/35 64/215/37

usemtl _7
vt 10.0809 0.70885
vt 10.0596 0.70885
vn -0.707339 5.85074e-016 0.706874
vt 10.0809 1.37641
f 61/216/36 63/217/38 62/218/36

vt 10.0596 1.37641
f 64/219/38 62/218/36 63/217/38

usemtl _Color_C03_3
v 12.8531 6.701 -67.2289
vt 68.3141 127.953
vn 0.86619 -5.1792e-016 -0.499715
vt 70.8835 3.37538e-014
vt 70.8835 127.953
f 65/220/39 63/221/37 64/222/37

v 12.8531 3.451 -67.2289
vt 68.3141 3.37538e-014
f 63/221/37 65/220/39 66/223/39

usemtl _7
vt 14.8641 0.70885
vn -0.86619 5.1792e-016 0.499715
vt 14.8641 1.37641
vt 14.8854 0.70885
f 66/224/40 65/225/40 63/226/38

usemtl _Color_C03_3
vt 81.6916 127.953
v 12.878 3.451 -67.1686
vt 79.1221 1.92675e-014
vn 0.966011 -3.78626e-016 -0.258501
vt 81.6916 1.92675e-014
f 65/227/39 67/228/41 66/229/39

v 12.878 6.701 -67.1686
vt 79.1221 127.953
f 67/228/41 65/227/39 68/230/41

usemtl _7
vt 18.6549 1.37641
vn -0.966011 3.78626e-016 0.258501
vt 18.6762 1.37641
vt 18.6549 0.70885
f 68/231/42 65/232/40 67/233/42

vt 18.6762 0.70885
f 66/234/40 67/233/42 65/232/40

usemtl _Color_C03_3
v 12.8865 6.701 -67.1038
vt 84.4506 127.953
vn 1 -2.84659e-016 0.000328946
vt 87.0201 5.33743e-015
vt 87.0201 127.953
f 69/235/43 67/236/41 68/237/41

vt 84.4506 9.84252
f 24/238/43 67/236/41 69/235/43

v 12.8865 3.451 -67.1038
vt 84.4506 8.57989e-013
f 67/236/41 24/238/43 70/239/43

usemtl _7
vt 21.1736 0.70885
vn -1 2.84659e-016 -0.000328946
vt 21.1736 0.760201
vt 21.1949 0.70885
f 70/240/44 24/241/44 67/242/42

usemtl _Color_C03_3
vt 86.5058 9.84252
v 12.878 3.451 -67.0391
vt 83.9364 8.51671e-013
vn 0.965841 -1.71338e-016 0.259137
vt 86.5058 8.51671e-013
f 24/243/43 71/244/45 70/245/43

vt 86.5058 127.953
f 69/246/43 71/244/45 24/243/43

v 12.878 6.701 -67.0391
vt 83.9364 127.953
f 71/244/45 69/246/43 72/247/45

usemtl _7
vt 22.2487 1.37641
vn -0.965841 1.71338e-016 -0.259137
vt 22.27 1.37641
vt 22.2487 0.70885
f 72/248/46 69/249/44 71/250/46

vt 22.27 0.760201
f 24/251/44 71/250/46 69/249/44

vt 22.27 0.70885
f 70/252/44 71/250/46 24/251/44

vt 21.1736 1.37641
f 69/253/44 67/242/42 24/241/44

vt 21.1949 1.37641
f 68/254/42 67/242/42 69/253/44

usemtl _Color_C03_3
v 12.853 6.701 -66.9789
vt 77.6145 127.953
vn 0.865861 2.47907e-017 0.500285
vt 80.1839 8.51264e-013
vt 80.1839 127.953
f 73/255/47 71/256/45 72/257/45

v 12.853 3.451 -66.9789
vt 77.6145 8.79686e-013
f 71/256/45 73/255/47 74/258/47

usemtl _7
vt 21.8069 0.70885
vn -0.865861 -2.47907e-017 -0.500285
vt 21.8069 1.37641
vt 21.8282 0.70885
f 74/259/48 73/260/48 71/261/46

usemtl _Color_C03_3
vt 68.4852 127.953
v 12.8133 3.451 -66.9271
vt 65.9158 8.85702e-013
vn 0.706874 1.82435e-016 0.707339
vt 68.4852 8.85702e-013
f 73/262/47 75/263/49 74/264/47

v 12.8133 6.701 -66.9271
vt 65.9158 127.953
f 75/263/49 73/262/47 76/265/49

usemtl _7
vt 19.8782 1.37641
vn -0.706874 -1.82435e-016 -0.707339
vt 19.8995 1.37641
vt 19.8782 0.70885
f 76/266/50 73/267/48 75/268/50

vt 19.8995 0.70885
f 74/269/48 75/268/50 73/267/48

usemtl _Color_C03_3
vt 52.2068 127.953
v 12.7615 3.451 -66.8874
vt 49.6374 8.96466e-013
vn 0.499715 3.27647e-016 0.86619
vt 52.2068 8.96466e-013
f 76/270/49 77/271/51 75/272/49

v 12.7615 6.701 -66.8874
vt 49.6374 127.953
f 77/271/51 76/270/49 78/273/51

usemtl _7
vt 16.6155 0.70885
vt 16.5942 0.70885
vn -0.499715 -3.27647e-016 -0.86619
vt 16.6155 1.37641
f 75/274/50 77/275/52 76/276/50

vt 16.5942 1.37641
f 78/277/52 76/276/50 77/275/52

usemtl _Color_C03_3
vt 32.4582 127.953
v 12.7012 3.451 -66.8624
vt 29.8888 9.08799e-013
vn 0.258501 5.97903e-016 0.966011
vt 32.4582 9.08799e-013
f 78/278/51 79/279/53 77/280/51

v 12.7012 6.701 -66.8624
vt 29.8888 127.953
f 79/279/53 78/278/51 80/281/53

usemtl _7
vt 12.1998 0.70885
vt 12.1785 0.70885
vn -0.258501 -5.97903e-016 -0.966011
vt 12.1998 1.37641
f 77/282/52 79/283/54 78/284/52

vt 12.1785 1.37641
f 80/285/54 78/284/52 79/283/54

usemtl _Color_C03_3
vt 10.5852 127.953
v 12.6865 3.451 -66.8605
vt 10.0012 9.41333e-013
vn 0.1302 7.9313e-016 0.991488
vt 10.5852 9.41333e-013
f 80/286/53 81/287/55 79/288/53

v 12.6865 3.701 -66.8605
vt 10.0012 9.84252
f 81/287/55 80/286/53 82/289/55

usemtl _7
vt 6.95349 0.70885
vt 6.94865 0.70885
vn -0.1302 -7.9313e-016 -0.991488
vt 6.95349 1.37641
f 79/290/54 81/291/56 80/292/54

vt 6.94865 0.760201
f 82/293/56 80/292/54 81/291/56

usemtl _Color_C03_3
vt 10.0012 127.953
f 82/289/55 80/286/53 18/294/55

usemtl _7
vt 6.94865 1.37641
f 18/295/56 80/292/54 82/293/56

usemtl Color_D03
vt 76.6325 9.84252
f 18/43/11 17/50/11 82/296/11

usemtl _7
vt 21.8298 0.760201
f 82/297/12 17/51/12 18/48/12

vt 21.8282 1.37641
f 72/298/46 71/261/46 73/260/48

vt 14.8854 1.37641
f 64/299/38 63/226/38 65/225/40

f 52/171/30 55/193/30 56/192/30

vt 22.0413 0.760201
f 54/300/30 55/193/30 52/171/30

usemtl Color_D03
f 52/168/29 54/188/29 51/169/29

usemtl _7
f 51/170/30 54/300/30 52/171/30

vt 4.14248 14.9653
f 51/301/4 53/186/4 54/185/4

f 25/66/4 53/186/4 51/301/4

usemtl _Tile_Ceramic_Natural_14
v 12.7895 3.701 -67.3017
vt 9.07053 47.7317
f 25/65/3 53/181/3 83/302/3

usemtl _7
vt 4.17547 13.8241
f 83/303/4 53/186/4 25/66/4

usemtl _Tile_Ceramic_Natural_14
v 12.8302 3.701 -67.262
vt 9.09946 47.7035
f 25/65/3 83/302/3 84/304/3

usemtl _7
vt 4.18878 13.8159
f 84/305/4 83/303/4 25/66/4

usemtl _Tile_Ceramic_Natural_14
v 12.861 3.701 -67.2141
vt 9.12126 47.6695
f 25/65/3 84/304/3 85/306/3

usemtl _7
vt 4.19882 13.8061
f 85/307/4 84/305/4 25/66/4

usemtl _Tile_Ceramic_Natural_14
v 12.8801 3.701 -67.1604
vt 9.1348 47.6315
f 25/65/3 85/306/3 86/308/3

usemtl _7
vt 4.20505 13.795
f 86/309/4 85/307/4 25/66/4

usemtl _Tile_Ceramic_Natural_14
f 25/65/3 86/308/3 24/63/3

usemtl _7
f 24/64/4 86/309/4 25/66/4

vt 4.13466 1.37641
f 52/310/28 50/179/28 51/178/28

f 49/81/26 26/172/26 50/171/26

f 27/80/26 26/172/26 49/81/26

g Mesh2 DES028 Model

l 46 1

l 39 46

l 37 39

l 35 37

l 5 35

l 9 5

l 9 8

l 9 11

l 10 11

l 8 10

l 8 15

l 15 16

l 15 14

l 14 36

l 18 14

l 18 80

l 82 18

l 81 82

l 81 79

l 79 77

l 77 75

l 75 74

l 74 71

l 71 70

l 70 67

l 67 66

l 66 63

l 63 61

l 61 59

l 59 60

l 60 57

l 57 56

l 57 55

l 55 54

l 53 55

l 83 53

l 84 83

l 85 84

l 86 85

l 24 86

l 23 24

l 22 23

l 21 22

l 20 21

l 19 20

l 17 19

l 16 17

l 17 82

l 54 51

l 25 51

l 26 25

l 27 26

l 30 27

l 29 30

l 28 29

l 7 28

l 7 34

l 7 6

l 6 2

l 2 3

l 3 1

l 1 4

l 34 4

l 34 33

l 33 43

l 28 33

l 43 44

l 44 42

l 44 45

l 32 45

l 29 32

l 31 32

l 30 31

l 42 47

l 48 47

l 48 41

l 41 40

l 41 38

l 38 36

l 37 36

l 40 4

l 27 49

l 50 49

l 25 50

l 52 50

l 51 52

l 52 56

l 58 56

l 62 58

l 64 62

l 65 64

l 68 65

l 69 68

l 72 69

l 73 72

l 76 73

l 78 76

l 80 78

l 13 10

l 13 12

l 35 13

l 5 12

l 12 11

