# Alias OBJ Model File
# Exported from SketchUp, (c) 2000-2012 Trimble Navigation Limited
# File units = meters

mtllib COM014.mtl

g Mesh1 COM014 Model

usemtl _Tile_Ceramic_Natural_14
v 23.4849 3.701 -39.3157
vt 16.6559 27.8834
vn -4.41176e-016 1 -2.72453e-015
v 22.5349 3.701 -39.386
vt 15.9822 27.9333
v 22.5349 3.701 -39.316
vt 15.9822 27.8837
f 1/1/1 2/2/1 3/3/1

v 23.4849 3.701 -39.3857
vt 16.6559 27.9331
f 4/4/1 2/2/1 1/1/1

v 23.6531 3.701 -43.2456
vt 16.7753 30.6706
f 5/5/1 2/2/1 4/4/1

v 22.0031 3.701 -43.2462
vt 15.605 30.671
f 6/6/1 2/2/1 5/5/1

v 21.9681 3.701 -43.2462
vt 15.5802 30.671
f 7/7/1 2/2/1 6/6/1

v 21.9281 3.701 -43.2462
vt 15.5518 30.671
f 8/8/1 2/2/1 7/7/1

v 21.9281 3.701 -43.1962
vt 15.5518 30.6356
f 9/9/1 2/2/1 8/8/1

v 21.9281 3.701 -43.1262
vt 15.5518 30.5859
f 10/10/1 2/2/1 9/9/1

v 21.8381 3.701 -43.1262
vt 15.488 30.586
f 11/11/1 2/2/1 10/10/1

v 21.8377 3.701 -42.0362
vt 15.4877 29.8129
f 12/12/1 2/2/1 11/11/1

v 21.8371 3.701 -40.2362
vt 15.4873 28.5363
f 13/13/1 2/2/1 12/12/1

v 21.8368 3.701 -39.3862
vt 15.4871 27.9335
f 2/2/1 13/13/1 14/14/1

usemtl _7
vt 7.12923 8.09009
vn 4.41176e-016 -1 2.72453e-015
vt 7.12932 8.26469
vt 7.35713 8.09005
f 14/15/2 13/16/2 2/17/2

usemtl Color_D03
vt 36.2418 8.52502e-014
vn 1 -1.63659e-014 0.000328946
v 21.8368 6.701 -39.3862
vt 2.77725 118.11
vt 2.77725 1.13672e-013
f 13/18/3 15/19/3 14/20/3

v 21.8371 6.701 -40.2362
vt 36.2418 118.11
f 15/19/3 13/18/3 16/21/3

usemtl _7
vt 12.861 0.760201
vn -1 1.63659e-014 -0.000328946
vt 12.861 1.37641
vt 13.1386 0.760201
f 14/22/4 15/23/4 13/24/4

usemtl Color_D03
vt 0.000913565 118.11
vn 0.000328946 -1.54058e-014 -1
vt -27.4813 9.80702e-013
vt 0.000913565 1.56473e-013
f 15/25/5 2/26/5 14/27/5

v 22.5349 6.701 -39.386
vt -27.4813 118.11
f 2/26/5 15/25/5 17/28/5

usemtl _7
vt -7.125 0.760201
vn -0.000328946 1.54058e-014 1
vt -7.3529 0.760201
vt -7.125 1.37641
f 14/29/6 2/30/6 15/31/6

vt -7.3529 1.37641
f 17/32/6 15/31/6 2/30/6

vt 13.1386 1.37641
f 16/33/4 13/24/4 15/23/4

vt 7.12952 8.63442
f 12/34/2 2/17/2 13/16/2

vt 7.12963 8.85831
f 11/35/2 2/17/2 12/34/2

vt 7.15902 8.8583
f 10/36/2 2/17/2 11/35/2

vt 7.15902 8.87268
f 9/37/2 2/17/2 10/36/2

vt 7.15903 8.88295
f 8/38/2 2/17/2 9/37/2

vt 7.17209 8.88295
f 7/39/2 2/17/2 8/38/2

vt 7.18352 8.88294
f 6/40/2 2/17/2 7/39/2

vt 7.7222 8.88283
f 5/41/2 2/17/2 6/40/2

vt 7.66728 8.08998
f 4/42/2 2/17/2 5/41/2

vt 7.66727 8.07561
f 1/43/2 2/17/2 4/42/2

vt 7.35712 8.07567
f 3/44/2 2/17/2 1/43/2

usemtl _Tile_Ceramic_Natural_14
v 23.8368 3.701 -39.3855
vt 16.9056 27.933
f 5/5/1 4/4/1 18/45/1

usemtl _7
vt 7.78219 8.08996
f 18/46/2 4/42/2 5/41/2

usemtl Color_D03
v 23.4849 6.701 -39.3857
vt -64.8829 118.11
vn 0.000328946 -7.70577e-015 -1
vt -78.7392 1.06666e-013
vt -64.8829 1.06666e-013
f 19/47/7 18/48/7 4/49/7

v 23.8368 6.701 -39.3855
vt -78.7392 118.11
f 18/48/7 19/47/7 20/50/7

usemtl _7
vt -7.66305 0.760201
vn -0.000328946 7.70577e-015 1
vt -7.77796 0.760201
vt -7.66305 1.37641
f 4/51/8 18/52/8 19/53/8

vt -7.77796 1.37641
f 20/54/8 19/53/8 18/52/8

usemtl Color_D03
v 23.8375 6.701 -41.2656
vt -76.7936 118.11
vn -1 2.97461e-014 -0.000328946
vt -2.77725 2.42745e-012
vt -2.77725 118.11
f 21/55/9 18/56/9 20/57/9

v 23.8371 3.701 -40.3256
vt -39.7854 3.25168e-012
f 18/56/9 21/55/9 22/58/9

usemtl _7
vt -12.861 1.37641
vn 1 -2.97461e-014 0.000328946
vt -12.861 0.760201
vt -13.4748 1.37641
f 20/59/10 18/60/10 21/61/10

vt -13.1679 0.760201
f 22/62/10 21/61/10 18/60/10

usemtl Color_D03
v 23.8373 3.701 -40.6876
vt -54.0374 2.39903e-012
f 22/58/9 21/55/9 23/63/9

usemtl _7
vt -13.2861 0.760201
f 23/64/10 21/61/10 22/62/10

usemtl Color_D03
v 23.8375 3.701 -41.2656
vt -76.7936 2.37061e-012
f 23/63/9 21/55/9 24/65/9

usemtl _7
vt -13.4748 0.760201
f 24/66/10 21/61/10 23/64/10

vt -7.77796 1.37643
vn 0.000328946 -1.66335e-006 -1
v 23.8875 3.701 -41.2655
vt -7.79428 0.760215
vt -7.77796 0.760215
f 21/67/11 25/68/11 24/69/11

v 23.9375 3.701 -41.2655
vt -7.8106 0.760215
f 25/68/11 21/67/11 26/70/11

vn -0.000328946 1.66335e-006 1
f 24/69/12 25/68/12 21/67/12

usemtl _Tile_Ceramic_Natural_14
vt 16.9415 29.2663
v 23.8378 3.701 -42.2155
vt 16.9062 29.9401
vt 16.906 29.2664
f 25/71/1 27/72/1 24/73/1

v 23.8878 3.701 -42.2155
vt 16.9417 29.9401
f 27/72/1 25/71/1 28/74/1

usemtl _7
vt 7.78239 8.47612
vt 7.78249 8.67125
vt 7.79871 8.47612
f 24/75/2 27/76/2 25/77/2

usemtl _Tile_Ceramic_Natural_14
v 23.8381 3.701 -43.1255
vt 16.9064 30.5855
f 29/78/1 24/73/1 27/72/1

vt 16.9058 28.5997
f 29/78/1 22/79/1 24/73/1

v 23.7281 3.701 -43.1256
vt 16.8284 30.5855
f 30/80/1 22/79/1 29/78/1

f 30/80/1 18/45/1 22/79/1

v 23.6881 3.701 -43.2456
vt 16.8001 30.6706
f 31/81/1 18/45/1 30/80/1

f 5/5/1 18/45/1 31/81/1

usemtl _7
vt 7.73363 8.88283
f 31/82/2 18/46/2 5/41/2

vt 7.74668 8.85818
f 30/83/2 18/46/2 31/82/2

vt 7.78229 8.28304
f 22/84/2 18/46/2 30/83/2

vt 7.78259 8.85817
f 29/85/2 22/84/2 30/83/2

f 24/75/2 22/84/2 29/85/2

usemtl _Tile_Ceramic_Natural_14
vt 16.9059 28.8564
f 24/73/1 22/79/1 23/86/1

usemtl _7
vt 7.78233 8.3574
f 23/87/2 22/84/2 24/75/2

f 27/76/2 24/75/2 29/85/2

usemtl Color_D03
vt -114.195 1.54423e-012
vn -1 1.9251e-014 -0.000328946
v 23.8381 6.701 -43.1255
vt -150.021 118.11
vt -150.021 1.54423e-012
f 27/88/13 32/89/13 29/90/13

v 23.8378 6.701 -42.2155
vt -114.195 118.11
f 32/89/13 27/88/13 33/91/13

usemtl _7
vt -13.785 1.37641
vn 1 -1.9251e-014 0.000328946
vt -13.785 0.760201
vt -14.0821 1.37641
f 33/92/14 27/93/14 32/94/14

usemtl Color_D03
vt 80.7077 9.36114e-013
vn -0.000328946 7.69975e-015 1
vt 78.7392 118.11
vt 78.7392 9.07692e-013
f 28/95/15 33/96/15 27/97/15

v 23.9378 6.701 -42.2155
vt 82.6763 118.11
f 33/96/15 28/95/15 34/98/15

usemtl _7
vt 7.77796 0.760201
vn 0.000328946 -7.69975e-015 -1
vt 7.77796 1.37641
vt 7.79428 0.760201
f 27/99/16 33/100/16 28/101/16

vt 7.8106 1.37641
f 34/102/16 28/101/16 33/100/16

usemtl Color_D03
v 23.9378 3.701 -42.2155
vt 82.6763 9.07692e-013
f 34/98/15 28/95/15 35/103/15

usemtl _7
vt 7.8106 0.760201
f 35/104/16 28/101/16 34/102/16

usemtl _Tile_Ceramic_Natural_14
vt 16.9769 29.2663
vt 16.9771 29.9401
f 28/74/1 26/105/1 35/106/1

f 28/74/1 25/71/1 26/105/1

usemtl _7
vt 7.79881 8.67125
f 28/107/2 25/77/2 27/76/2

vt 7.81504 8.47612
f 26/108/2 25/77/2 28/107/2

f 26/70/12 21/67/12 25/68/12

v 23.9375 6.701 -41.2655
vt -7.8106 1.37643
f 26/70/11 21/67/11 36/109/11

f 36/109/12 21/67/12 26/70/12

vt 7.81514 8.67125
f 35/110/2 26/108/2 28/107/2

usemtl _Tile_Ceramic_Natural_14
v 23.9375 3.701 -41.3055
vt 16.9769 29.2947
f 35/106/1 26/105/1 37/111/1

usemtl _7
vt 7.81504 8.48433
f 37/112/2 26/108/2 35/110/2

usemtl _Tile_Ceramic_Natural_14
v 23.9377 3.701 -42.1405
vt 16.9771 29.8869
f 35/106/1 37/111/1 38/113/1

usemtl _7
vt 7.81513 8.65584
f 38/114/2 37/112/2 35/110/2

usemtl _Tile_Ceramic_Natural_14
v 23.9378 3.701 -42.1755
vt 16.9771 29.9117
f 35/106/1 38/113/1 39/115/1

usemtl _7
vt 7.81513 8.66303
f 39/116/2 38/114/2 35/110/2

vt -14.0821 0.760201
f 29/117/14 32/94/14 27/93/14

usemtl Color_D03
v 23.7281 6.701 -43.1256
vt 74.4085 118.11
vn -0.000328946 -7.69437e-015 1
vt 78.7392 -1.1259e-012
f 40/118/17 29/119/17 32/96/17

vt 74.4085 -1.15432e-012
f 29/119/17 40/118/17 30/120/17

usemtl _7
vt 7.74204 0.760201
vn 0.000328946 7.69437e-015 -1
vt 7.74204 1.37641
f 30/121/18 40/122/18 29/99/18

usemtl Color_D03
v 23.7281 6.701 -43.2456
vt -154.746 118.11
vn -1 -1.68793e-014 -0.000328946
vt -150.021 -1.25596e-012
f 41/123/19 30/124/19 40/89/19

v 23.7281 3.701 -43.1956
vt -152.777 -1.25596e-012
f 30/124/19 41/123/19 42/125/19

usemtl _7
vn 1 1.68793e-014 0.000328946
vt -14.1212 1.37641
f 40/94/20 30/117/20 41/126/20

vt -14.1049 0.760201
f 42/127/20 41/126/20 30/117/20

usemtl Color_D03
v 23.7281 3.701 -43.2456
vt -154.746 -1.19912e-012
f 42/125/19 41/123/19 43/128/19

usemtl _7
vt -14.1212 0.760201
f 43/129/20 41/126/20 42/127/20

usemtl _Tile_Ceramic_Natural_14
vt 16.8284 30.6706
vt 16.8284 30.6352
f 43/130/1 30/80/1 42/131/1

f 30/80/1 43/130/1 31/81/1

usemtl _7
vt 7.74669 8.88283
f 31/82/2 43/132/2 30/83/2

vt 7.74668 8.87256
f 42/133/2 30/83/2 43/132/2

f 32/100/18 29/99/18 40/122/18

usemtl Color_D03
v 21.9281 6.701 -43.2462
vt 154.746 118.11
vn 1 -3.14104e-014 0.000328946
vt 152.777 1.3969e-013
vt 154.746 1.3969e-013
f 44/134/21 9/135/21 8/136/21

v 21.9281 6.701 -43.1262
vt 150.021 118.11
f 45/137/21 9/135/21 44/134/21

vt 150.021 1.3969e-013
f 9/135/21 45/137/21 10/138/21

usemtl _7
vt 14.0821 0.760201
vn -1 3.14104e-014 -0.000328946
vt 14.0821 1.37641
vt 14.1049 0.760201
f 10/139/22 45/140/22 9/141/22

usemtl Color_D03
vt 3.54239 118.11
vn -0.000328946 1.1555e-014 1
vt -0.000913566 1.76192e-012
vt 3.54239 1.76192e-012
f 45/142/23 11/143/23 10/144/23

v 21.8381 6.701 -43.1262
vt -0.000913566 118.11
f 11/143/23 45/142/23 46/145/23

usemtl _7
vt 7.15438 0.760201
vn 0.000328946 -1.1555e-014 -1
vt 7.125 0.760201
vt 7.15438 1.37641
f 10/146/24 11/147/24 45/148/24

vt 7.125 1.37641
f 46/149/24 45/148/24 11/147/24

usemtl Color_D03
vn 1 -1.34744e-014 0.000328946
vt 107.108 5.68311e-014
vt 150.021 2.84094e-014
f 46/137/25 12/150/25 11/151/25

v 21.8377 6.701 -42.0362
vt 107.108 118.11
f 12/150/25 46/137/25 47/152/25

usemtl _7
vt 13.7262 1.37641
vn -1 1.34744e-014 -0.000328946
vt 13.7262 0.760201
f 47/153/26 46/140/26 12/154/26

f 11/139/26 12/154/26 46/140/26

vt 14.1212 1.37641
f 44/155/22 9/141/22 45/140/22

vt 14.1212 0.760201
f 8/156/22 9/141/22 44/155/22

g Mesh2 COM014 Model

l 8 7

l 8 9

l 8 44

l 44 45

l 10 45

l 9 10

l 11 10

l 11 12

l 11 46

l 46 47

l 46 45

l 12 47

l 12 13

l 13 14

l 13 16

l 16 15

l 14 15

l 14 2

l 2 3

l 2 17

l 15 17

l 3 1

l 1 4

l 4 18

l 4 19

l 19 20

l 18 20

l 22 18

l 23 22

l 24 23

l 25 24

l 25 26

l 37 26

l 38 37

l 39 38

l 35 39

l 28 35

l 28 27

l 29 27

l 30 29

l 42 30

l 42 43

l 31 43

l 5 31

l 6 5

l 7 6

l 43 41

l 41 40

l 30 40

l 40 32

l 29 32

l 32 33

l 27 33

l 34 33

l 35 34

l 26 36

l 36 21

l 24 21

l 21 20

