# Alias OBJ Model File
# Exported from SketchUp, (c) 2000-2012 Trimble Navigation Limited
# File units = meters

mtllib COM034.mtl

g Mesh1 CUA034 Model

usemtl _Tile_Ceramic_Natural_14
v 11.8368 3.701 -39.3695
vt 8.39492 27.9216
vn 3.04943e-014 1 2.40058e-014
v 9.83705 3.701 -40.0272
vt 6.97663 28.3881
v 9.83683 3.701 -39.3702
vt 6.97648 27.9221
f 1/1/1 2/2/1 3/3/1

v 9.83715 3.701 -40.3502
vt 6.97671 28.6171
f 2/2/1 1/1/1 4/4/1

usemtl _7
vt 3.2115 8.0868
vn -3.04943e-014 -1 -2.40058e-014
vt 3.21157 8.22175
vt 3.86446 8.08666
f 3/5/2 2/6/2 1/7/2

usemtl Color_D03
v 9.83748 6.701 -41.3302
vt 77.1925 118.11
vn 1 -2.84708e-016 0.000328946
vt 0.0265405 2.70012e-011
vt 25.893 2.69728e-011
f 5/8/3 3/9/3 2/10/3

v 9.83683 6.701 -39.3702
vt 0.0265405 118.11
f 3/9/3 5/8/3 6/11/3

usemtl _7
vt 12.8545 1.37641
vn -1 2.84708e-016 -0.000328946
vt 13.4944 1.37641
vt 12.8545 0.760201
f 6/12/4 5/13/4 3/14/4

vt 13.069 0.760201
f 2/15/4 3/14/4 5/13/4

usemtl Color_D03
vt 38.6095 2.78254e-011
f 5/8/3 2/10/3 4/16/3

usemtl _7
vt 13.1745 0.760201
f 4/17/4 2/15/4 5/13/4

vt 3.21161 8.2881
f 4/18/2 1/7/2 2/6/2

usemtl _Tile_Ceramic_Natural_14
v 9.83748 3.701 -41.3302
vt 6.97693 29.3122
f 4/4/1 1/1/1 7/19/1

usemtl _7
vt 3.21171 8.48939
f 7/20/2 1/7/2 4/18/2

usemtl _Tile_Ceramic_Natural_14
v 9.83779 3.701 -42.2802
vt 6.97716 29.9859
f 7/19/1 1/1/1 8/21/1

usemtl _7
vt 3.21181 8.68452
f 8/22/2 1/7/2 7/20/2

usemtl _Tile_Ceramic_Natural_14
v 9.83805 3.701 -43.0695
vt 6.97734 30.5458
f 8/21/1 1/1/1 9/23/1

usemtl _7
vt 3.2119 8.84667
f 9/24/2 1/7/2 8/22/2

usemtl _Tile_Ceramic_Natural_14
v 10.0402 3.701 -43.0695
vt 7.12069 30.5458
f 9/23/1 1/1/1 10/25/1

usemtl _7
vt 3.27789 8.84667
f 10/26/2 1/7/2 9/24/2

usemtl _Tile_Ceramic_Natural_14
v 11.6102 3.701 -43.0695
vt 8.23416 30.5457
f 10/25/1 1/1/1 11/27/1

usemtl _7
vt 3.79046 8.84666
f 11/28/2 1/7/2 10/26/2

usemtl _Tile_Ceramic_Natural_14
v 11.6102 3.701 -43.0695
vt 8.23416 30.5458
f 11/27/1 1/1/1 12/29/1

usemtl _7
vt 3.79046 8.84667
f 12/30/2 1/7/2 11/28/2

usemtl _Tile_Ceramic_Natural_14
v 11.718 3.701 -43.0695
vt 8.31067 30.5458
f 12/29/1 1/1/1 13/31/1

usemtl _7
vt 3.82568 8.84667
f 13/32/2 1/7/2 12/30/2

usemtl _Tile_Ceramic_Natural_14
v 11.8371 3.701 -40.2395
vt 8.39512 28.5386
f 13/31/1 1/1/1 14/33/1

usemtl _7
vt 3.86455 8.26536
f 14/34/2 1/7/2 13/32/2

usemtl _Tile_Ceramic_Natural_14
v 11.8371 3.701 -40.1595
vt 8.3951 28.4819
f 14/33/1 1/1/1 15/35/1

usemtl _7
vt 3.86454 8.24893
f 15/36/2 1/7/2 14/34/2

usemtl Color_D03
vt -0.0265405 2.78478e-011
v 11.8371 6.701 -40.1595
vt -31.1289 118.11
vt -31.1289 2.69668e-011
f 1/37/4 16/38/4 15/39/4

v 11.8368 6.701 -39.3695
vt -0.0265405 118.11
f 16/38/4 1/37/4 17/40/4

usemtl _7
vt -12.8545 1.37641
vt -12.8545 0.760201
vt -13.1124 1.37641
f 17/41/3 1/42/3 16/43/3

usemtl Color_D03
vt -80.6833 2.78249e-011
vn 0.000328946 -5.42711e-016 -1
vt -1.94311 118.11
vt -80.6833 118.11
f 1/44/5 6/45/5 17/46/5

vt -1.94311 2.70006e-011
f 6/45/5 1/44/5 3/47/5

usemtl _7
vt -3.20727 0.760201
vn -0.000328946 5.42711e-016 1
vt -3.86023 0.760201
vt -3.20727 1.37641
f 3/48/6 1/49/6 6/50/6

vt -3.86023 1.37641
f 17/51/6 6/50/6 1/49/6

vt -13.1124 0.760201
f 15/52/3 16/43/3 1/42/3

usemtl _Tile_Ceramic_Natural_14
v 11.8371 3.701 -40.1995
vt 8.39511 28.5103
f 14/33/1 15/35/1 18/53/1

usemtl _7
vt 3.86455 8.25715
f 18/54/2 15/36/2 14/34/2

usemtl _Tile_Ceramic_Natural_14
v 11.8371 3.701 -40.2345
vt 8.39512 28.5351
f 14/33/1 18/53/1 19/55/1

usemtl _7
vt 3.86455 8.26434
f 19/56/2 18/54/2 14/34/2

usemtl _Tile_Ceramic_Natural_14
v 11.838 3.701 -43.0695
vt 8.39578 30.5457
f 13/31/1 14/33/1 20/57/1

usemtl _7
vt 3.86485 8.84666
f 20/58/2 14/34/2 13/32/2

usemtl _Tile_Ceramic_Natural_14
v 11.8377 3.701 -41.9195
vt 8.39551 29.7301
f 20/57/1 14/33/1 21/59/1

usemtl _7
vt 3.86473 8.61044
f 21/60/2 14/34/2 20/58/2

usemtl _Tile_Ceramic_Natural_14
v 11.8377 3.701 -41.8845
vt 8.3955 29.7053
f 21/59/1 14/33/1 22/61/1

usemtl _7
vt 3.86473 8.60325
f 22/62/2 14/34/2 21/60/2

usemtl _Tile_Ceramic_Natural_14
v 11.8377 3.701 -41.9595
vt 8.39552 29.7585
f 20/57/1 21/59/1 23/63/1

usemtl _7
vt 3.86474 8.61866
f 23/64/2 21/60/2 20/58/2

usemtl _Tile_Ceramic_Natural_14
v 11.8379 3.701 -42.6667
vt 8.39569 30.2601
f 20/57/1 23/63/1 24/65/1

usemtl _7
vt 3.86481 8.76393
f 24/66/2 23/64/2 20/58/2

usemtl Color_D03
vt -101.995 2.75359e-011
vn -1 8.04366e-015 -0.000328946
v 11.838 6.701 -43.0695
vt -145.696 118.11
vt -129.839 2.75359e-011
f 23/67/7 25/68/7 24/69/7

v 11.8377 6.701 -41.9595
vt -101.995 118.11
f 25/68/7 23/67/7 26/70/7

usemtl BackColor
vn 1 -8.04366e-015 0.000328946
f 26/70/8 23/67/8 25/68/8

f 24/69/8 25/68/8 23/67/8

usemtl Color_D03
v 11.838 3.701 -42.8307
vt -136.296 2.75359e-011
f 24/69/7 25/68/7 27/71/7

usemtl BackColor
f 27/71/8 25/68/8 24/69/8

usemtl Color_D03
vt -145.696 2.75359e-011
f 27/71/7 25/68/7 20/72/7

usemtl BackColor
f 20/72/8 25/68/8 27/71/8

usemtl Color_D03
vt 80.7283 118.11
vn -1.97368e-005 8.01161e-015 1
vt 71.7568 2.80824e-011
vt 80.7283 2.8054e-011
f 25/73/9 11/74/9 20/75/9

v 11.6102 6.031 -43.0695
vt 71.7568 91.7323
f 11/74/9 25/73/9 28/76/9

usemtl BackColor
vn 1.97368e-005 -8.01161e-015 -1
f 20/75/10 11/74/10 25/73/10

f 28/76/10 25/73/10 11/74/10

usemtl Color_D03
v 10.0402 6.031 -43.0695
vt 9.94575 91.7323
f 28/76/9 25/73/9 29/77/9

usemtl BackColor
f 29/77/10 25/73/10 28/76/10

usemtl Color_D03
v 9.83805 6.701 -43.0695
vt 1.98815 118.11
f 30/78/9 29/77/9 25/73/9

vt 1.98815 2.85087e-011
f 9/79/9 29/77/9 30/78/9

vt 9.94575 2.84519e-011
f 29/77/9 9/79/9 10/80/9

usemtl BackColor
f 10/80/10 9/79/10 29/77/10

f 30/78/10 29/77/10 9/79/10

f 25/73/10 29/77/10 30/78/10

usemtl Color_D03
v 9.83779 6.701 -42.2802
vt 114.593 118.11
vn 1 -1.61375e-015 0.000328946
vt 145.671 2.73448e-011
vt 145.671 118.11
f 31/81/11 9/82/11 30/83/11

vt 114.593 2.69185e-011
f 9/82/11 31/81/11 8/84/11

usemtl _7
vt 13.8046 0.760201
vn -1 1.61375e-015 -0.000328946
vt 13.8046 1.37641
vt 14.0623 0.760201
f 8/85/12 31/86/12 9/87/12

vt 14.0623 1.37641
f 30/88/12 9/87/12 31/86/12

usemtl _Tile_Ceramic_Natural_14
vt 8.39572 30.3764
f 20/57/1 24/65/1 27/89/1

usemtl _7
vt 3.86483 8.79762
f 27/90/2 24/66/2 20/58/2

usemtl _Tile_Ceramic_Natural_14
v 9.78779 3.701 -42.2802
vt 6.94169 29.9859
f 32/91/1 7/19/1 8/21/1

v 9.78748 3.701 -41.3302
vt 6.94147 29.3122
f 7/19/1 32/91/1 33/92/1

usemtl _7
vt 3.19539 8.4894
vt 3.19549 8.68453
f 33/93/2 32/94/2 7/20/2

f 8/22/2 7/20/2 32/94/2

usemtl Color_D03
vt 77.1925 2.69443e-011
f 5/8/3 4/16/3 7/95/3

usemtl _7
vt 13.4944 0.760201
f 7/96/4 4/17/4 5/13/4

g Mesh2 CUA034 Model

l 20 27

l 20 13

l 11 20

l 10 11

l 9 10

l 9 8

l 9 30

l 30 31

l 25 30

l 25 20

l 26 25

l 23 26

l 23 21

l 24 23

l 27 24

l 21 22

l 22 14

l 14 19

l 19 18

l 18 15

l 15 1

l 15 16

l 16 17

l 1 17

l 1 3

l 3 2

l 3 6

l 6 5

l 17 6

l 7 5

l 7 33

l 4 7

l 2 4

l 33 32

l 8 32

l 8 31

l 29 10

l 28 29

l 11 28

l 13 12

