# Alias OBJ Model File
# Exported from SketchUp, (c) 2000-2012 Trimble Navigation Limited
# File units = meters

mtllib COM026.mtl

g Mesh1 COM026 Model

usemtl Color_D03
v 27.7953 5.71353 -67.0763
vt 430.489 79.2335
vn 5.3879e-014 -5.30255e-013 1
v 27.0116 5.71353 -67.0763
vt 399.638 79.2335
v 27.7587 5.71353 -67.0763
vt 429.051 79.2335
f 1/1/1 2/2/1 3/3/1

v 24.8829 5.71353 -67.0763
vt 315.831 79.2335
f 2/2/1 1/1/1 4/4/1

vn -5.3879e-014 5.30255e-013 -1
f 3/3/2 2/2/2 1/1/2

f 4/4/2 1/1/2 2/2/2

v 24.1359 5.71353 -67.0763
vt 286.418 79.2335
f 4/4/1 1/1/1 5/5/1

f 5/5/2 1/1/2 4/4/2

v 23.8457 5.71353 -67.0763
vt 274.994 79.2335
f 6/6/1 5/5/1 1/1/1

v 23.8457 3.701 -67.0763
vt 274.994 -9.66508e-011
f 7/7/1 5/5/1 6/6/1

v 24.1359 3.701 -67.0763
vt 286.418 -9.7134e-011
f 5/5/1 7/7/1 8/8/1

f 8/8/2 7/7/2 5/5/2

usemtl _Tile_Ceramic_Natural_14
vt 16.9118 47.5718
vn 1.38756e-013 1 1.68884e-013
v 27.7953 3.701 -65.0148
vt 19.713 46.1098
vt 17.1176 47.5718
f 7/9/3 9/10/3 8/11/3

v 23.0986 3.701 -67.0763
vt 16.382 47.5718
f 10/12/3 9/10/3 7/9/3

v 22.3939 3.701 -65.0148
vt 15.8822 46.1098
f 10/12/3 11/13/3 9/10/3

v 21.6075 3.701 -65.0148
vt 15.3244 46.1098
f 10/12/3 12/14/3 11/13/3

v 21.4381 3.701 -65.0148
vt 15.2043 46.1098
f 10/12/3 13/15/3 12/14/3

v 21.3113 3.701 -65.0148
vt 15.1144 46.1098
f 10/12/3 14/16/3 13/15/3

v 21.2932 3.701 -67.0682
vt 15.1015 47.5661
f 10/12/3 15/17/3 14/16/3

v 21.2923 3.701 -67.0748
vt 15.1009 47.5708
f 10/12/3 16/18/3 15/17/3

v 21.2921 3.701 -67.0763
vt 15.1008 47.5718
f 16/18/3 10/12/3 17/19/3

usemtl _7
vt 6.9514 13.7778
vn -1.38756e-013 -1 -1.68884e-013
vt 7.54117 13.7778
vt 6.95146 13.7775
f 17/20/4 10/21/4 16/22/4

usemtl Color_D03
vt 245.581 -9.66508e-011
v 21.2921 6.701 -67.0763
vt 174.46 118.11
vt 174.46 -1.00573e-010
f 10/23/1 18/24/1 17/25/1

v 23.0986 5.71353 -67.0763
vt 245.581 79.2335
f 18/24/1 10/23/1 19/26/1

f 17/25/2 18/24/2 10/23/2

usemtl _Color_C03_3
v 21.2923 6.701 -67.0748
vt 178.912 118.11
vn 0.991642 -1.03787e-014 -0.129019
vt 178.97 9.22986e-012
vt 178.97 118.11
f 20/27/5 17/28/5 18/29/5

vt 178.912 2.06759e-012
f 20/27/5 16/30/5 17/28/5

v 21.2932 6.701 -67.0682
vt 178.647 118.11
f 21/31/5 16/30/5 20/27/5

vt 178.647 1.03562e-010
f 16/30/5 21/31/5 15/32/5

usemtl _7
vt 20.8163 0.760201
vn -0.991642 1.03787e-014 0.129019
vt 20.8163 1.37641
vt 20.8185 0.760201
f 15/33/6 21/34/6 16/35/6

v 21.2712 3.701 -67.0153
vt -22.8681 0.760201
vn -0.923299 -2.61529e-014 -0.384081
vt -22.8868 1.37641
vt -22.8868 0.760201
f 22/36/7 21/37/7 15/38/7

v 21.2435 6.701 -66.9487
vt -22.8446 1.37641
f 22/36/7 23/39/7 21/37/7

v 21.2435 3.701 -66.9487
vt -22.8446 0.760201
f 23/39/7 22/36/7 24/40/7

usemtl _Color_C03_3
vt -249.225 9.63052e-011
vn 0.923299 2.61529e-014 0.384081
vt -252.066 5.60885e-011
vt -249.225 118.11
f 24/41/8 22/42/8 23/43/8

usemtl _Tile_Ceramic_Natural_14
vt 15.0663 47.4813
vt 15.086 47.5286
f 24/44/3 14/16/3 22/45/3

v 21.1407 3.701 -66.8701
vt 14.9934 47.4256
f 25/46/3 14/16/3 24/44/3

v 21.0124 3.701 -66.8534
vt 14.9024 47.4137
f 26/47/3 14/16/3 25/46/3

v 20.8929 3.701 -66.9031
vt 14.8177 47.449
f 27/48/3 14/16/3 26/47/3

v 20.8143 3.701 -67.0058
vt 14.7619 47.5219
f 28/49/3 14/16/3 27/48/3

v 20.7273 3.701 -67.0763
vt 14.7002 47.5718
f 29/50/3 14/16/3 28/49/3

v 20.5034 3.701 -65.0148
vt 14.5414 46.1098
f 29/50/3 30/51/3 14/16/3

v 19.9803 3.701 -67.0763
vt 14.1704 47.5718
f 31/52/3 30/51/3 29/50/3

v 18.9275 3.701 -65.0148
vt 13.4238 46.1098
f 31/52/3 32/53/3 30/51/3

v 16.9174 3.701 -61.9163
vt 11.9982 43.9123
f 31/52/3 33/54/3 32/53/3

v 16.8625 3.701 -67.0763
vt 11.9592 47.5718
f 34/55/3 33/54/3 31/52/3

v 16.8608 3.701 -61.9163
vt 11.958 43.9123
f 33/54/3 34/55/3 35/56/3

usemtl _7
vt 5.50468 12.7179
vt 5.50524 13.7778
vt 5.52316 12.7179
f 35/57/4 34/58/4 33/59/4

usemtl Color_D03
vt 203.176 2.24247e-011
vn 1 -5.39341e-015 0.000328946
v 16.8608 6.701 -61.9163
vt 0.0267637 118.11
vt 0.0267637 4.74358e-011
f 34/60/9 36/61/9 35/62/9

v 16.8625 6.701 -67.0763
vt 203.176 118.11
f 36/61/9 34/60/9 37/63/9

vn -1 5.39341e-015 -0.000328946
f 35/62/10 36/61/10 34/60/10

v 16.9174 6.701 -61.9163
vt -2.22795 118.11
vn 0.000328946 -1.54024e-014 -1
vt 8.80381e-006 4.74362e-011
vt 8.80381e-006 118.11
f 38/64/11 35/65/11 36/66/11

vt -2.22795 4.6612e-011
f 35/65/11 38/64/11 33/67/11

usemtl _7
vt -5.51651 0.760201
vn -0.000328946 1.54024e-014 1
vt -5.51651 1.37641
vt -5.49803 0.760201
f 33/68/12 38/69/12 35/70/12

vt -5.49803 1.37641
f 36/71/12 35/70/12 38/69/12

usemtl Color_D03
f 37/63/10 34/60/10 36/61/10

vt 0.0668253 -1.01388e-010
vn 2.70611e-013 -6.09385e-013 1
v 19.9803 5.71353 -67.0763
vt 122.812 79.2335
vt 0.0668253 118.11
f 34/72/13 39/73/13 37/74/13

vt 122.812 -1.06447e-010
f 39/73/13 34/72/13 31/75/13

vn -2.70611e-013 6.09385e-013 -1
f 31/75/14 34/72/14 39/73/14

usemtl _7
vt 6.5231 13.7778
f 31/76/4 33/59/4 34/58/4

vt 6.1794 13.3543
f 32/77/4 33/59/4 31/76/4

usemtl _Tile_Ceramic_Natural_14
v 18.7174 3.701 -61.9157
vt 13.2748 43.9118
f 32/53/3 33/54/3 40/78/3

usemtl _7
vt 6.11082 12.7177
f 40/79/4 33/59/4 32/77/4

usemtl _Tile_Ceramic_Natural_14
v 18.9274 3.701 -61.9156
vt 13.4237 43.9118
f 32/53/3 40/78/3 41/80/3

usemtl _7
vt 6.17938 12.7177
f 41/81/4 40/79/4 32/77/4

usemtl Color_D03
vt -73.0941 2.143e-011
vn 0.000328946 -2.27969e-017 -1
v 18.9274 6.701 -61.9156
vt -81.3618 118.11
vt -81.3618 1.83888e-011
f 40/82/15 42/83/15 41/84/15

v 18.7174 6.701 -61.9157
vt -73.0941 118.11
f 42/83/15 40/82/15 43/85/15

usemtl _7
vt -6.17273 0.760201
vn -0.000328946 2.27969e-017 1
vt -6.17273 1.37641
vt -6.10417 0.760201
f 41/86/16 42/87/16 40/88/16

usemtl Color_D03
v 18.9275 6.701 -65.0148
vt -122.017 118.11
vn -1 6.7379e-014 -2.22894e-005
vt -0.0018135 2.38709e-011
vt -0.0018135 118.11
f 44/89/17 41/90/17 42/91/17

vt -122.017 1.9835e-011
f 41/90/17 44/89/17 32/92/17

vn 1 -6.7379e-014 2.22894e-005
f 42/91/18 41/90/18 44/89/18

f 32/92/18 44/89/18 41/90/18

v 20.5034 5.71353 -65.0148
vt -143.408 79.2336
vn -1.09563e-007 -4.51752e-007 -1
vt -81.3645 5.51205e-005
vt -81.3645 118.11
f 45/93/19 32/94/19 44/95/19

vt -143.408 5.51205e-005
f 32/94/19 45/93/19 30/96/19

vn 1.09563e-007 4.51752e-007 1
f 30/96/20 45/93/20 32/94/20

f 44/95/20 32/94/20 45/93/20

v 21.3113 5.71353 -65.0148
vt -175.215 79.2336
f 45/93/19 44/95/19 46/97/19

f 46/97/20 44/95/20 45/93/20

v 21.6075 5.71353 -65.0148
vt -186.875 79.2336
f 46/97/19 44/95/19 47/98/19

f 47/98/20 44/95/20 46/97/20

v 22.3803 5.71353 -65.0148
vt -217.3 79.2336
f 47/98/19 44/95/19 48/99/19

f 48/99/20 44/95/20 47/98/20

v 27.7953 6.701 -65.0148
vt -430.489 118.11
f 48/99/19 44/95/19 49/100/19

f 49/100/20 44/95/20 48/99/20

v 22.3939 5.71353 -65.0148
vt -217.835 79.2336
f 49/100/19 50/101/19 48/99/19

vt -217.835 5.51204e-005
f 49/100/19 11/102/19 50/101/19

vt -430.489 5.51205e-005
f 11/102/19 49/100/19 9/103/19

f 9/103/20 49/100/20 11/102/20

vt -122.015 118.11
vn -1 0 -0
v 27.7953 5.71353 -66.1949
vt -168.477 79.2335
vt -122.015 1.08571e-011
f 49/104/21 51/105/21 9/106/21

v 27.7953 6.701 -67.0763
vt -203.176 118.11
f 51/105/21 49/104/21 52/107/21

vn 1 -0 0
f 9/106/22 51/105/22 49/104/22

v 27.7953 3.701 -66.1949
vt -168.477 7.3328e-012
f 53/108/21 9/106/21 51/105/21

usemtl _Tile_Ceramic_Natural_14
v 27.7953 3.701 -67.0763
vt 19.713 47.5718
vt 19.713 46.9468
f 54/109/3 9/10/3 53/110/3

v 27.7587 3.701 -67.0763
vt 19.687 47.5718
f 55/111/3 9/10/3 54/109/3

v 27.0116 3.701 -67.0763
vt 19.1572 47.5718
f 56/112/3 9/10/3 55/111/3

v 24.8829 3.701 -67.0763
vt 17.6475 47.5718
f 57/113/3 9/10/3 56/112/3

f 8/11/3 9/10/3 57/113/3

usemtl _7
vt 7.87981 13.7778
vt 9.07452 13.3543
vt 7.78507 13.7778
f 8/114/4 9/115/4 7/116/4

vt 8.12371 13.7778
f 57/117/4 9/115/4 8/114/4

vt 8.81869 13.7778
f 56/118/4 9/115/4 57/117/4

vt 9.0626 13.7778
f 55/119/4 9/115/4 56/118/4

vt 9.07452 13.7778
f 54/120/4 9/115/4 55/119/4

vt 9.07452 13.5967
f 53/121/4 9/115/4 54/120/4

usemtl Color_D03
f 51/105/22 9/106/22 53/108/22

usemtl _Tile_Ceramic_Natural_14
v 27.7953 3.701 -66.9145
vt 19.713 47.4571
f 54/109/3 53/110/3 58/122/3

usemtl _7
vt 9.07452 13.7445
f 58/123/4 53/121/4 54/120/4

usemtl Color_D03
vt -196.806 5.17275e-012
vt -203.176 4.68958e-012
f 58/124/21 52/107/21 54/125/21

v 27.7953 5.71353 -66.9145
vt -196.806 79.2335
f 59/126/21 52/107/21 58/124/21

f 51/105/21 52/107/21 59/126/21

f 52/107/22 49/104/22 51/105/22

f 59/126/22 52/107/22 51/105/22

f 58/124/22 52/107/22 59/126/22

f 54/125/22 52/107/22 58/124/22

vt -203.176 79.2335
f 54/125/21 52/107/21 1/127/21

f 1/127/22 52/107/22 54/125/22

vt 430.489 118.11
f 6/6/1 1/1/1 52/128/1

f 1/1/2 5/5/2 6/6/2

f 6/6/2 5/5/2 7/7/2

f 52/128/2 1/1/2 6/6/2

f 6/6/1 52/128/1 19/26/1

f 19/26/2 52/128/2 6/6/2

f 18/24/1 19/26/1 52/128/1

f 19/26/2 10/23/2 18/24/2

f 52/128/2 19/26/2 18/24/2

vn -7.58736e-012 -5.68194e-013 1
vt 429.051 -1.09162e-010
vt 430.489 -1.10754e-010
f 1/1/23 55/129/23 54/130/23

f 55/129/23 1/1/23 3/3/23

vn 7.58736e-012 5.68194e-013 -1
f 54/130/24 55/129/24 1/1/24

f 3/3/24 1/1/24 55/129/24

vt 315.831 -9.7134e-011
vt 399.638 -1.01454e-010
f 2/2/1 57/131/1 56/132/1

f 57/131/1 2/2/1 4/4/1

f 56/132/2 57/131/2 2/2/2

f 4/4/2 2/2/2 57/131/2

usemtl _7
f 7/116/4 9/115/4 10/21/4

vt 7.31108 13.3543
f 9/115/4 11/133/4 10/21/4

vt 7.05434 13.3543
f 11/133/4 12/134/4 10/21/4

vt 6.99904 13.3543
f 12/134/4 13/135/4 10/21/4

usemtl Color_D03
vt -180.206 5.51204e-005
vt -186.875 5.51205e-005
f 13/136/19 46/97/19 12/137/19

vt -175.215 5.51205e-005
f 46/97/19 13/136/19 14/138/19

f 14/138/20 13/136/20 46/97/20

usemtl _7
vt 6.95766 13.3543
f 13/135/4 14/139/4 10/21/4

vt 6.95174 13.7761
f 14/139/4 15/140/4 10/21/4

usemtl _Tile_Ceramic_Natural_14
f 22/45/3 14/16/3 15/17/3

usemtl _7
vt 6.94456 13.7652
vt 6.93551 13.7515
f 22/141/4 14/139/4 24/142/4

f 15/140/4 14/139/4 22/141/4

usemtl _Color_C03_3
vt -254.32 9.93179e-011
vt -254.32 118.11
f 15/143/8 21/144/8 22/42/8

f 21/144/8 23/43/8 22/42/8

usemtl _7
vt 6.90196 13.7354
f 24/142/4 14/139/4 25/145/4

vt 6.86006 13.732
f 25/145/4 14/139/4 26/146/4

vt 6.82105 13.7422
f 26/146/4 14/139/4 27/147/4

vt 6.79538 13.7633
f 27/147/4 14/139/4 28/148/4

vt 6.76701 13.7778
f 28/148/4 14/139/4 29/149/4

vt 6.6939 13.3543
f 14/139/4 30/150/4 29/149/4

f 29/149/4 30/150/4 31/76/4

f 30/150/4 32/77/4 31/76/4

usemtl _Tile_Ceramic_Natural_14
v 20.8132 3.701 -67.0142
vt 14.7611 47.5278
f 29/50/3 28/49/3 60/151/3

usemtl _7
vt 6.79503 13.765
f 60/152/4 28/148/4 29/149/4

vt 20.8187 0.760201
vn 0.991637 6.51665e-014 -0.129059
v 20.8143 6.701 -67.0058
vt 20.8159 1.37641
vt 20.8159 0.760201
f 60/153/25 61/154/25 28/155/25

v 20.8053 6.701 -67.075
vt 20.8387 1.37641
f 61/154/25 60/153/25 62/156/25

usemtl _Color_C03_3
vt 178.639 8.88124e-011
vn -0.991637 -6.51665e-014 0.129059
vt 178.639 118.11
vt 178.97 4.47304e-011
f 28/157/26 61/158/26 60/159/26

usemtl _7
v 20.8929 6.701 -66.9031
vt 13.2041 1.37641
vn 0.794257 -7.06247e-015 -0.607581
vt 13.2463 0.760201
vt 13.2463 1.37641
f 63/160/27 28/161/27 61/162/27

vt 13.2041 0.760201
f 28/161/27 63/160/27 27/163/27

usemtl _Color_C03_3
vt 59.5084 9.95037e-011
vn -0.794257 7.06247e-015 0.607581
vt 59.5084 118.11
vt 64.6032 1.02289e-010
f 27/164/28 63/165/28 28/166/28

usemtl _7
v 21.0124 6.701 -66.8534
vt 2.04865 1.37641
vn 0.384063 -2.30361e-014 -0.923307
vt 2.0909 0.760201
vt 2.0909 1.37641
f 64/167/29 27/168/29 63/169/29

vt 2.04865 0.760201
f 27/168/29 64/167/29 26/170/29

usemtl _Color_C03_3
vt -76.2495 1.01902e-010
vn -0.384063 2.30361e-014 0.923307
vt -76.2495 118.11
vt -71.1547 1.03351e-010
f 26/171/30 64/172/30 27/173/30

usemtl _7
vt -9.61912 1.37641
vn -0.129039 -2.9567e-014 -0.99164
vt -9.66137 0.760201
vt -9.61912 0.760201
f 64/174/31 25/175/31 26/176/31

v 21.1407 6.701 -66.8701
vt -9.66137 1.37641
f 25/175/31 64/174/31 65/177/31

usemtl _Color_C03_3
vt -187.165 1.01397e-010
vn 0.129039 2.9567e-014 0.99164
vt -192.259 1.01653e-010
vt -187.165 118.11
f 26/178/32 25/179/32 64/180/32

vt -192.259 118.11
f 65/181/32 64/180/32 25/179/32

usemtl _7
vt -18.7461 1.37641
vn -0.607565 -5.38334e-014 -0.79427
vt -18.7884 0.760201
vt -18.7461 0.760201
f 65/182/33 24/183/33 25/184/33

vt -18.7884 1.37641
f 24/183/33 65/182/33 23/185/33

usemtl _Color_C03_3
vt -252.343 9.94061e-011
vn 0.607565 5.38334e-014 0.79427
vt -257.437 1.0131e-010
vt -252.343 118.11
f 25/186/34 24/187/34 65/188/34

vt -257.437 118.11
f 23/189/34 65/188/34 24/187/34

vt -71.1547 118.11
f 63/190/30 27/173/30 64/172/30

vt 64.6032 118.11
f 61/191/28 28/166/28 63/165/28

vt 181.385 118.11
f 62/192/26 60/159/26 61/158/26

usemtl _7
v 20.8051 3.701 -67.0763
vt 20.8391 0.760201
f 62/156/25 60/153/25 66/193/25

usemtl _Color_C03_3
vt 181.436 2.49773e-011
f 66/194/26 60/159/26 62/192/26

usemtl _Tile_Ceramic_Natural_14
vt 14.7554 47.5718
f 29/50/3 60/151/3 66/195/3

usemtl _7
vt 6.79239 13.7778
f 66/196/4 60/152/4 29/149/4

usemtl Color_D03
vt 155.286 -6.47295e-011
vn -8.47335e-012 -4.99322e-013 1
v 20.7273 5.71353 -67.0763
vt 152.225 79.2335
vt 152.225 -8.40847e-011
f 66/197/35 67/198/35 29/199/35

v 20.8645 5.71353 -67.0763
vt 157.625 79.2335
f 67/198/35 66/197/35 68/200/35

vn 8.47335e-012 4.99322e-013 -1
f 29/199/36 67/198/36 66/197/36

f 68/200/36 66/197/36 67/198/36

v 20.8645 3.701 -67.0763
vt 157.625 -8.55058e-011
f 68/200/35 66/197/35 69/201/35

f 69/201/36 66/197/36 68/200/36

v 20.8051 5.71353 -67.0763
vt 155.286 79.2335
f 67/198/35 68/200/35 70/202/35

f 70/202/36 68/200/36 67/198/36

v 20.8051 6.701 -67.0763
vt 155.286 118.11
f 71/203/13 67/198/13 70/202/13

f 67/198/13 71/203/13 39/73/13

f 70/202/14 67/198/14 71/203/14

f 39/73/14 71/203/14 67/198/14

f 39/73/13 71/203/13 37/74/13

f 37/74/14 71/203/14 39/73/14

f 37/74/14 39/73/14 34/72/14

usemtl _7
vt 20.8391 1.37641
f 62/156/25 66/193/25 71/204/25

usemtl _Color_C03_3
vt 181.436 118.11
f 71/205/26 66/194/26 62/192/26

usemtl _7
v 20.8027 6.701 -67.095
vt 20.8453 1.37641
f 71/204/25 66/193/25 72/206/25

usemtl _Color_C03_3
vt 182.179 118.11
f 72/207/26 66/194/26 71/205/26

usemtl _7
v 20.8038 3.701 -67.0859
vt 20.8423 0.760201
f 72/206/25 66/193/25 73/208/25

usemtl _Color_C03_3
vt 181.818 4.76294e-011
f 73/209/26 66/194/26 72/207/26

usemtl _7
v 20.7976 3.701 -67.1342
vt 20.8582 0.760201
f 72/206/25 73/208/25 74/210/25

usemtl _Color_C03_3
vt 183.734 9.21378e-011
f 74/211/26 73/209/26 72/207/26

usemtl _7
v 20.8014 6.701 -67.105
vt 20.8486 1.37641
f 72/206/25 74/210/25 75/212/25

usemtl _Color_C03_3
vt 182.576 118.11
f 75/213/26 74/211/26 72/207/26

usemtl _7
v 20.7976 6.701 -67.1336
vt 20.858 1.37641
f 75/212/25 74/210/25 76/214/25

usemtl _Color_C03_3
vt 183.711 118.11
f 76/215/26 74/211/26 75/213/26

usemtl _7
v 20.7976 6.701 -67.1342
vt 20.8582 1.37641
f 76/214/25 74/210/25 77/216/25

usemtl _Color_C03_3
vt 183.734 118.11
f 77/217/26 74/211/26 76/215/26

usemtl _7
f 15/140/4 16/22/4 10/21/4

usemtl Color_D03
f 12/137/20 46/97/20 13/136/20

f 12/137/19 46/97/19 47/98/19

f 47/98/20 46/97/20 12/137/20

f 50/101/20 11/102/20 49/100/20

f 48/99/20 50/101/20 49/100/20

usemtl _7
vt -6.10417 1.37641
f 43/218/16 40/88/16 42/87/16

vt 20.8185 1.37641
f 20/219/6 16/35/6 21/34/6

vt 20.819 0.760201
f 17/220/6 16/35/6 20/219/6

vt 20.819 1.37641
f 18/221/6 17/220/6 20/219/6

g Mesh2 COM026 Model

l 10 19

l 17 10

l 18 17

l 18 52

l 20 18

l 21 20

l 23 21

l 65 23

l 25 65

l 24 25

l 24 23

l 24 22

l 22 15

l 15 16

l 15 21

l 16 17

l 26 25

l 26 27

l 26 64

l 64 65

l 63 64

l 27 63

l 27 28

l 28 61

l 60 28

l 66 60

l 73 66

l 74 73

l 74 77

l 76 75

l 75 72

l 72 71

l 71 62

l 37 71

l 34 37

l 34 31

l 35 34

l 35 33

l 35 36

l 36 38

l 37 36

l 33 38

l 33 40

l 40 41

l 40 43

l 43 42

l 41 42

l 32 41

l 44 32

l 49 44

l 9 49

l 9 11

l 9 53

l 53 58

l 53 51

l 51 59

l 58 59

l 58 54

l 55 54

l 3 55

l 3 2

l 1 3

l 1 52

l 54 1

l 49 52

l 56 2

l 57 56

l 4 57

l 4 5

l 8 5

l 7 8

l 6 7

l 6 19

l 10 7

l 8 57

l 56 55

l 50 11

l 50 48

l 48 47

l 12 47

l 12 13

l 11 12

l 13 14

l 14 46

l 14 30

l 45 30

l 46 45

l 30 32

l 42 44

l 31 39

l 31 29

l 67 29

l 67 39

l 70 67

l 70 71

l 68 70

l 69 68

l 66 69

l 29 66

l 62 61

l 61 63

