# Alias OBJ Model File
# Exported from SketchUp, (c) 2000-2012 Trimble Navigation Limited
# File units = meters

mtllib COM044.mtl

g Mesh1 CUA044 Model

usemtl _Tile_Ceramic_Natural_14
v 11.8259 3.701 -6.02795
vt 8.38714 4.27514
vn 1.60094e-015 1 1.79707e-015
v 10.0265 3.701 -7.97499
vt 7.111 5.65602
v 10.0259 3.701 -6.02854
vt 7.11054 4.27556
f 1/1/1 2/2/1 3/3/1

v 10.0268 3.701 -8.92497
vt 7.11122 6.32977
f 2/2/1 1/1/1 4/4/1

usemtl _7
vt 3.27322 1.23829
vn -1.60094e-015 -1 -1.79707e-015
vt 3.27343 1.6381
vt 3.86088 1.23817
f 3/5/2 2/6/2 1/7/2

usemtl Color_D03
v 10.0265 6.701 -7.97499
vt 76.6564 118.11
vn 1 -2.84708e-016 0.000328946
vt 0.0245979 8.63788e-014
vt 76.6564 2.95354e-014
f 5/8/3 3/9/3 2/10/3

v 10.0259 6.701 -6.02854
vt 0.0245979 118.11
f 3/9/3 5/8/3 6/11/3

usemtl _7
vt 1.96926 1.37641
vn -1 2.84708e-016 -0.000328946
vt 2.60473 1.37641
vt 1.96926 0.760201
f 6/12/4 5/13/4 3/14/4

vt 2.60473 0.760201
f 2/15/4 3/14/4 5/13/4

usemtl Color_D03
v 9.9765 3.701 -7.975
vt -1.94329 -1.68502e-012
vn 0.000328946 2.30938e-014 -1
vt -3.91179 118.11
vt -3.91179 -1.74187e-012
f 7/16/5 5/17/5 2/18/5

v 9.9265 6.701 -7.97502
vt 0.0252158 118.11
f 5/17/5 7/16/5 8/19/5

usemtl _7
vt -3.27257 0.760201
vn -0.000328946 -2.30938e-014 1
vt -3.27257 1.37641
vt -3.25625 0.760201
f 2/20/6 5/21/6 7/22/6

vt -3.23992 1.37641
f 8/23/6 7/22/6 5/21/6

usemtl Color_D03
v 9.9265 3.701 -7.97502
vt 0.0252158 -1.71345e-012
f 8/19/5 7/16/5 9/24/5

usemtl _7
vt -3.23992 0.760201
f 9/25/6 7/22/6 8/23/6

usemtl _Tile_Ceramic_Natural_14
vt 7.07554 5.65603
v 9.92652 3.701 -8.01502
vt 7.04008 5.68441
vt 7.04007 5.65604
f 7/26/1 10/27/1 9/28/1

v 9.92679 3.701 -8.85001
vt 7.04028 6.2766
f 10/27/1 7/26/1 11/29/1

usemtl _7
vt 3.24078 1.6381
vt 3.24078 1.64632
vt 3.2571 1.6381
f 9/30/2 10/31/2 7/32/2

vt 3.24087 1.81783
f 11/33/2 7/32/2 10/31/2

usemtl _Tile_Ceramic_Natural_14
v 9.9268 3.701 -8.88501
vt 7.04029 6.30142
f 11/29/1 7/26/1 12/34/1

usemtl _7
vt 3.24088 1.82502
f 12/35/2 7/32/2 11/33/2

usemtl _Tile_Ceramic_Natural_14
v 9.92682 3.701 -8.92501
vt 7.0403 6.32979
f 12/34/1 7/26/1 13/36/1

usemtl _7
vt 3.24088 1.83323
f 13/37/2 7/32/2 12/35/2

usemtl _Tile_Ceramic_Natural_14
v 9.97682 3.701 -8.925
vt 7.07576 6.32979
f 13/36/1 7/26/1 14/38/1

usemtl _7
vt 3.2572 1.83323
f 14/39/2 7/32/2 13/37/2

usemtl _Tile_Ceramic_Natural_14
f 14/38/1 7/26/1 2/2/1

usemtl _7
f 2/6/2 7/32/2 14/39/2

usemtl _Tile_Ceramic_Natural_14
f 14/38/1 2/2/1 4/4/1

usemtl _7
vt 3.27353 1.83323
f 4/40/2 2/6/2 14/39/2

f 4/40/2 1/7/2 2/6/2

usemtl _Tile_Ceramic_Natural_14
v 10.0271 3.701 -9.91497
vt 7.11145 7.0319
f 4/4/1 1/1/1 15/41/1

usemtl _7
vt 3.27363 2.03658
f 15/42/2 1/7/2 4/40/2

usemtl _Tile_Ceramic_Natural_14
v 10.0671 3.701 -9.91496
vt 7.13982 7.03189
f 15/41/1 1/1/1 16/43/1

usemtl _7
vt 3.28669 2.03657
f 16/44/2 1/7/2 15/42/2

usemtl _Tile_Ceramic_Natural_14
v 11.8271 3.701 -9.91438
vt 8.38804 7.03148
f 16/43/1 1/1/1 17/45/1

usemtl _7
vt 3.86129 2.03646
f 17/46/2 1/7/2 16/44/2

usemtl _Tile_Ceramic_Natural_14
v 11.8262 3.701 -7.13295
vt 8.3874 5.05883
f 17/45/1 1/1/1 18/47/1

usemtl _7
vt 3.86099 1.46514
f 18/48/2 1/7/2 17/46/2

usemtl _Tile_Ceramic_Natural_14
v 11.8262 3.701 -7.05795
vt 8.38738 5.00564
f 18/47/1 1/1/1 19/49/1

usemtl _7
vt 3.86099 1.44973
f 19/50/2 1/7/2 18/48/2

usemtl Color_D03
v 11.8259 6.701 -6.02795
vt -0.0245979 118.11
vt -40.5758 7.81333e-014
vt -0.0245979 1.06555e-013
f 20/51/4 19/52/4 1/53/4

v 11.8262 6.701 -7.05795
vt -40.5758 118.11
f 19/52/4 20/51/4 21/54/4

usemtl _7
vt -1.96926 0.760201
vt -2.30553 0.760201
vt -1.96926 1.37641
f 1/55/3 19/56/3 20/57/3

vt -2.30553 1.37641
f 21/58/3 20/57/3 19/56/3

usemtl Color_D03
vt -74.7779 8.52785e-014
vn 0.000328946 -5.42711e-016 -1
vt -74.7779 118.11
f 1/59/7 6/17/7 20/60/7

vt -3.91179 8.52785e-014
f 6/17/7 1/59/7 3/61/7

usemtl _7
vn -0.000328946 5.42711e-016 1
vt -3.86023 0.760201
f 3/20/8 1/62/8 6/21/8

vt -3.86023 1.37641
f 20/63/8 6/21/8 1/62/8

usemtl _Tile_Ceramic_Natural_14
v 11.8262 3.701 -7.09795
vt 8.38739 5.03401
f 18/47/1 19/49/1 22/64/1

usemtl _7
vt 3.86099 1.45795
f 22/65/2 19/50/2 18/48/2

usemtl _Tile_Ceramic_Natural_14
v 11.8268 3.701 -8.81795
vt 8.38779 6.25386
f 17/45/1 18/47/1 23/66/1

usemtl _7
vt 3.86118 1.81124
f 23/67/2 18/48/2 17/46/2

usemtl _Tile_Ceramic_Natural_14
v 11.8268 3.701 -8.78295
vt 8.38778 6.22904
f 23/66/1 18/47/1 24/68/1

usemtl _7
vt 3.86117 1.80406
f 24/69/2 18/48/2 23/67/2

usemtl _Tile_Ceramic_Natural_14
v 11.8268 3.701 -8.85795
vt 8.3878 6.28223
f 17/45/1 23/66/1 25/70/1

usemtl _7
vt 3.86118 1.81946
f 25/71/2 23/67/2 17/46/2

usemtl _Tile_Ceramic_Natural_14
v 11.8271 3.701 -9.86438
vt 8.38803 6.99601
f 17/45/1 25/70/1 26/72/1

usemtl _7
vt 3.86129 2.02619
f 26/73/2 25/71/2 17/46/2

usemtl Color_D03
v 11.8268 6.701 -8.85795
vt -111.442 118.11
vn -1 1.97221e-014 -0.000328946
vt -151.065 1.47478e-012
vt -111.442 1.5032e-012
f 27/74/9 26/75/9 25/76/9

v 11.8271 6.701 -9.86438
vt -151.065 118.11
f 26/75/9 27/74/9 28/77/9

usemtl _7
vt -2.89319 0.760201
vn 1 -1.97221e-014 0.000328946
vt -3.22177 0.760201
vt -2.89319 1.37641
f 25/78/10 26/79/10 27/80/10

vt -3.22177 1.37641
f 28/81/10 27/80/10 26/79/10

usemtl Color_D03
v 10.0268 6.701 -8.92497
vt 3.91179 118.11
vn -0.000328946 7.7073e-015 1
vt 1.94329 9.35923e-013
vt 3.91179 9.07496e-013
f 29/82/11 14/83/11 4/84/11

v 9.92682 6.701 -8.92501
vt -0.0252158 118.11
f 30/85/11 14/83/11 29/82/11

vt -0.0252158 9.07496e-013
f 14/83/11 30/85/11 13/86/11

usemtl _7
vt 3.23992 0.760201
vn 0.000328946 -7.7073e-015 -1
vt 3.23992 1.37641
vt 3.25625 0.760201
f 13/87/12 30/88/12 14/89/12

vt 3.27257 1.37641
f 29/90/12 14/89/12 30/88/12

vt 3.27257 0.760201
f 4/91/12 14/89/12 29/90/12

g Mesh2 CUA044 Model

l 14 4

l 14 13

l 13 12

l 13 30

l 30 29

l 4 29

l 15 4

l 15 16

l 16 17

l 17 26

l 26 25

l 26 28

l 27 28

l 25 27

l 25 23

l 23 24

l 24 18

l 18 22

l 22 19

l 19 1

l 19 21

l 21 20

l 1 20

l 3 1

l 2 3

l 7 2

l 7 9

l 9 10

l 9 8

l 8 5

l 2 5

l 5 6

l 3 6

l 6 20

l 11 10

l 12 11

