# Alias OBJ Model File
# Exported from SketchUp, (c) 2000-2012 Trimble Navigation Limited
# File units = meters

mtllib CUA002.mtl

g Mesh1 CUA002 Model

usemtl Color_F09
v 20.333 5.731 2.74485
vt -83.4936 79.9213
vn -1 2.84708e-016 -0.000328946
v 20.3327 3.701 3.49485
vt -53.9661 1.63321e-012
v 20.3327 5.731 3.49485
vt -53.9661 79.9213
f 1/1/1 2/2/1 3/3/1

v 20.333 3.701 2.74485
vt -83.4936 7.52135e-013
f 2/2/1 1/1/1 4/4/1

usemtl _7
vt 1.13881 1.17717
vn 1 -2.84708e-016 0.000328946
vt 1.13881 0.760201
vt 0.893948 1.17717
f 3/5/2 2/6/2 1/7/2

usemtl Color_F09
vt 46.2598 1.64933e-012
vn -0.000328946 5.42711e-016 1
v 20.3827 5.731 3.49487
vt 48.2283 79.9213
vt 46.2598 79.9213
f 2/8/3 5/9/3 3/10/3

v 20.3827 3.701 3.49487
vt 48.2283 1.64933e-012
f 5/9/3 2/8/3 6/11/3

usemtl _7
vt 6.65487 0.760201
vn 0.000328946 -5.42711e-016 -1
vt 6.63855 0.760201
vt 6.65487 1.17717
f 6/12/4 2/13/4 5/14/4

usemtl _Tile_Ceramic_Natural_14
vt 14.4204 -2.47862
vn 1.41345e-014 1 -2.0146e-013
v 21.4023 3.701 4.8652
vt 15.1789 -3.4505
vt 14.4558 -2.47863
f 2/15/5 7/16/5 6/17/5

v 19.623 3.701 2.64462
vt 13.917 -1.87561
f 8/18/5 7/16/5 2/15/5

v 19.623 3.701 2.71962
vt 13.917 -1.92881
f 9/19/5 7/16/5 8/18/5

v 19.613 3.701 2.71961
vt 13.9099 -1.9288
f 10/20/5 7/16/5 9/19/5

v 19.613 3.701 2.74461
vt 13.9099 -1.94653
f 11/21/5 7/16/5 10/20/5

v 19.573 3.701 2.7446
vt 13.8815 -1.94652
f 12/22/5 7/16/5 11/21/5

v 19.553 3.701 2.74459
vt 13.8674 -1.94652
f 13/23/5 7/16/5 12/22/5

v 19.158 3.701 2.74446
vt 13.5872 -1.94643
f 14/24/5 7/16/5 13/23/5

v 19.1577 3.701 3.4457
vt 13.5871 -2.44376
f 15/25/5 7/16/5 14/24/5

v 19.1573 3.701 4.86446
vt 13.5867 -3.44997
f 7/16/5 15/25/5 16/26/5

usemtl _7
vt 6.25442 -0.999182
vn -1.41345e-014 -1 2.0146e-013
vt 6.25457 -0.707762
vt 6.98736 -0.999333
f 16/27/6 15/28/6 7/29/6

usemtl Color_D03
vt 55.8859 8.15703e-012
vn 1 1.7654e-013 0.000328946
v 19.1573 6.701 4.86446
vt 0.0290742 118.11
vt 0.0290742 2.12879e-011
f 15/30/7 17/31/7 16/32/7

v 19.158 6.701 2.74446
vt 83.4936 118.11
f 17/31/7 15/30/7 18/33/7

usemtl _7
vt -1.58608 0.760201
vn -1 -1.7654e-013 -0.000328946
vt -1.58608 1.37641
vt -1.12289 0.760201
f 16/34/8 17/35/8 15/36/8

usemtl Color_D03
v 21.4023 6.701 4.8652
vt -88.3858 118.11
vn 0.000328946 -2.04603e-013 -1
vt 9.56381e-006 2.12938e-011
vt 9.56384e-006 118.11
f 19/37/9 16/38/9 17/39/9

vt -88.3858 1.54389e-011
f 16/38/9 19/37/9 7/40/9

usemtl _7
vt -6.98788 0.760201
vn -0.000328946 2.04603e-013 1
vt -6.98788 1.37641
vt -6.25494 0.760201
f 7/41/10 19/42/10 16/43/10

usemtl Color_D03
vt -0.0290742 118.11
vn -1 9.90164e-014 -0.000328946
v 21.4028 3.701 3.1952
vt -65.7771 8.75165e-012
vt -0.0290742 2.41846e-011
f 19/44/11 20/45/11 7/46/11

v 21.4028 6.701 3.1952
vt -65.7771 118.11
f 20/45/11 19/44/11 21/47/11

usemtl _7
vt 1.58608 0.760201
vn 1 -9.90164e-014 0.000328946
vt 1.04086 0.760201
vt 1.58608 1.37641
f 7/48/12 20/49/12 19/50/12

usemtl _Tile_Ceramic_Natural_14
v 20.8078 3.701 3.19501
vt 14.7573 -2.26596
vt 15.1793 -2.2661
f 22/51/5 7/16/5 20/52/5

v 20.503 3.701 2.74491
vt 14.5411 -1.94674
f 23/53/5 7/16/5 22/51/5

v 20.423 3.701 2.74488
vt 14.4844 -1.94672
f 24/54/5 7/16/5 23/53/5

v 20.383 3.701 2.74487
vt 14.456 -1.94671
f 25/55/5 7/16/5 24/54/5

f 6/17/5 7/16/5 25/55/5

usemtl _7
vt 6.6545 -0.71786
vt 6.63818 -0.717857
f 6/56/6 7/29/6 2/57/6

vt 6.65458 -0.563807
f 25/58/6 7/29/6 6/56/6

vt 6.66764 -0.56381
f 24/59/6 7/29/6 25/58/6

vt 6.69376 -0.563815
f 23/60/6 7/29/6 24/59/6

vt 6.79328 -0.656268
f 22/61/6 7/29/6 23/60/6

vt 6.98754 -0.656308
f 20/62/6 7/29/6 22/61/6

usemtl Color_D03
vt 88.3858 118.11
vn -0.000328946 -1.24057e-014 1
vt 64.9606 9.47265e-012
vt 88.3858 -8.16012e-013
f 21/63/13 22/64/13 20/65/13

v 20.8078 6.701 3.19501
vt 64.9606 118.11
f 22/64/13 21/63/13 26/66/13

usemtl _7
vt 6.98788 0.760201
vn 0.000328946 1.24057e-014 -1
vt 6.79363 0.760201
vt 6.98788 1.37641
f 20/67/14 22/68/14 21/69/14

vt 6.79363 1.37641
f 26/70/14 21/69/14 22/68/14

usemtl Color_D03
v 20.808 6.701 2.74501
vt -83.4936 118.11
vn -1 -6.70937e-014 -0.000328946
vt -65.7771 5.93021e-012
f 27/71/15 22/72/15 26/47/15

v 20.808 3.701 2.74501
vt -83.4936 1.75222e-012
f 22/72/15 27/71/15 28/73/15

usemtl _7
vt 1.04086 1.37641
vn 1 6.70937e-014 0.000328946
vt 0.893948 1.37641
f 26/74/16 22/49/16 27/75/16

vt 0.893948 0.760201
f 28/76/16 27/75/16 22/49/16

vt -6.79363 0.760201
vn 0.000328946 6.12065e-014 -1
v 20.423 5.811 2.74488
vt -6.66793 1.1936
vt -6.79363 1.37641
f 28/77/17 29/78/17 27/79/17

vt -6.69405 0.760201
f 23/80/17 29/78/17 28/77/17

vt -6.66793 0.760201
f 29/78/17 23/80/17 24/81/17

usemtl Color_D03
vt -49.8031 -4.37139e-012
vn -0.000328946 -6.12065e-014 1
vt -52.9527 1.00031e-012
vt -49.8031 83.0709
f 24/82/18 23/83/18 29/84/18

vt -64.9606 1.00031e-012
f 28/85/18 29/84/18 23/83/18

vt -64.9606 118.11
f 27/86/18 29/84/18 28/85/18

usemtl _7
vt -6.25494 1.37641
f 29/78/17 18/87/17 27/79/17

v 19.573 5.811 2.7446
vt -6.39043 1.1936
f 30/88/17 18/87/17 29/78/17

vt -6.3839 0.760201
f 13/89/17 18/87/17 30/88/17

f 18/87/17 13/89/17 14/43/17

usemtl Color_D03
vt 9.56383e-006 -3.4619e-012
vt -15.5512 -3.4619e-012
f 14/90/18 13/91/18 18/39/18

usemtl _7
vt 6.3836 -0.563751
vt 6.25465 -0.563725
f 13/92/6 7/29/6 14/93/6

vt 6.39013 -0.563753
f 12/94/6 7/29/6 13/92/6

vt 6.40319 -0.563755
f 11/95/6 7/29/6 12/94/6

vt 6.4032 -0.55862
f 10/96/6 7/29/6 11/95/6

vt 6.40646 -0.558621
f 9/97/6 7/29/6 10/96/6

vt 6.40647 -0.543216
f 8/98/6 7/29/6 9/97/6

f 2/57/6 7/29/6 8/98/6

usemtl _Tile_Ceramic_Natural_14
vt 14.4206 -1.9467
f 4/99/5 8/18/5 2/15/5

v 20.373 3.701 2.64486
vt 14.4489 -1.87579
f 8/18/5 4/99/5 31/100/5

usemtl _7
vt 6.65133 -0.543266
vt 6.63826 -0.563804
f 31/101/6 4/102/6 8/98/6

usemtl _Tile_Ceramic_Natural_14
v 20.373 3.701 2.71986
vt 14.4489 -1.92898
f 31/100/5 4/99/5 32/103/5

usemtl _7
vt 6.65132 -0.558672
f 32/104/6 4/102/6 31/101/6

usemtl _Tile_Ceramic_Natural_14
f 25/55/5 32/103/5 4/99/5

v 20.383 3.701 2.71987
vt 14.456 -1.92898
f 32/103/5 25/55/5 33/105/5

usemtl _7
f 4/102/6 32/104/6 25/58/6

vt 6.65458 -0.558672
f 33/106/6 25/58/6 32/104/6

usemtl Color_F09
vt -83.4936 7.81117e-013
v 20.383 5.731 2.71987
vt -84.4779 79.9213
vt -84.4779 7.52695e-013
f 25/107/1 34/108/1 33/109/1

v 20.383 5.731 2.74487
f 34/108/1 25/107/1 35/1/1

usemtl _7
vt 0.885786 1.17717
f 35/7/2 25/76/2 34/110/2

usemtl Color_F09
vt -48.2283 8.12699e-013
vt -46.2598 79.9213
vt -48.2283 79.9213
f 25/111/4 1/112/4 35/113/4

vt -46.2598 7.84277e-013
f 1/112/4 25/111/4 4/114/4

usemtl _7
vt -6.63855 0.760201
vt -6.65487 0.760201
vt -6.63855 1.17717
f 4/115/3 25/116/3 1/117/3

vt -6.65487 1.17717
f 35/118/3 1/117/3 25/116/3

usemtl Color_F09
vt 16.3386 83.0709
f 30/119/3 1/10/3 35/9/3

v 19.613 5.731 2.74461
vt 17.9134 79.9213
f 30/119/3 36/120/3 1/10/3

vt 16.3386 7.84277e-013
f 12/121/3 36/120/3 30/119/3

vt 17.9134 7.84277e-013
f 36/120/3 12/121/3 11/122/3

usemtl _7
vt 6.40349 0.760201
vt 6.39043 0.760201
vt 6.40349 1.17717
f 11/123/4 12/124/4 36/125/4

vt 6.39043 1.1936
f 30/126/4 36/125/4 12/124/4

vt 6.63855 1.17717
f 1/127/4 36/125/4 30/126/4

f 35/14/4 1/127/4 30/126/4

usemtl Color_F09
vt 46.2873 83.4784
vn 2.84887e-016 1 -5.42617e-016
vt 48.2461 53.9502
vt 48.2558 83.4778
f 1/128/19 5/129/19 35/130/19

vt 46.2776 53.9509
f 5/129/19 1/128/19 3/131/19

usemtl _7
vn -2.84887e-016 -1 5.42617e-016
f 3/57/20 1/102/20 5/56/20

f 35/58/20 5/56/20 1/102/20

f 3/127/4 5/14/4 2/13/4

usemtl Color_F09
vt 49.8031 83.0709
f 35/9/3 29/132/3 30/119/3

vt 48.2283 8.12699e-013
f 25/133/3 29/132/3 35/9/3

vt 49.8031 7.84277e-013
f 29/132/3 25/133/3 24/134/3

usemtl _7
vt 6.66793 0.760201
vt 6.66793 1.1936
f 24/135/4 25/12/4 29/136/4

f 35/14/4 29/136/4 25/12/4

f 30/126/4 29/136/4 35/14/4

usemtl Color_D03
vt -16.3386 83.0709
f 29/84/18 18/39/18 30/137/18

f 27/86/18 18/39/18 29/84/18

f 30/137/18 18/39/18 13/91/18

usemtl _7
vt -6.39043 0.760201
f 30/88/17 12/138/17 13/89/17

usemtl Color_D03
vt -16.3386 -4.37139e-012
f 13/91/18 12/139/18 30/137/18

usemtl _7
v 19.613 5.731 2.71961
f 37/110/1 11/76/1 36/7/1

vt 0.885786 0.760201
f 11/76/1 37/110/1 10/140/1

usemtl Color_F09
vt -83.4936 7.44065e-013
f 36/1/2 11/141/2 37/108/2

vt -84.4779 7.44065e-013
f 10/142/2 37/108/2 11/141/2

usemtl _7
vt -6.40349 1.17717
vt -6.40675 0.760201
vt -6.40349 0.760201
f 37/143/4 9/144/4 10/145/4

v 19.623 5.731 2.71962
vt -6.40675 1.17717
f 9/144/4 37/143/4 38/146/4

usemtl Color_F09
vt -17.9134 7.84812e-013
vt -18.3071 7.84812e-013
vt -17.9134 79.9213
f 10/147/3 9/148/3 37/149/3

vt -18.3071 79.9213
f 38/150/3 37/149/3 9/148/3

usemtl _7
v 19.623 5.731 2.64462
vt 0.8613 1.17717
vn -1 2.97335e-022 -0.000328946
f 39/151/21 9/140/21 38/110/21

vt 0.8613 0.760201
f 9/140/21 39/151/21 8/152/21

usemtl Color_F09
vn 1 -2.97335e-022 0.000328946
vt -84.4779 7.38964e-013
vt -87.4306 79.9213
f 38/108/22 9/153/22 39/154/22

vt -87.4306 7.38964e-013
f 8/155/22 39/154/22 9/153/22

usemtl _7
f 4/76/2 1/7/2 2/6/2

f 2/57/6 8/98/6 4/102/6

f 33/140/2 34/110/2 25/76/2

usemtl Color_F09
vn -1 0 -0.000328946
v 20.373 5.731 2.64486
f 32/153/23 40/154/23 31/155/23

v 20.373 5.731 2.71986
f 40/154/23 32/153/23 41/108/23

usemtl _7
vn 1 -0 0.000328946
f 41/110/24 32/140/24 40/151/24

f 31/152/24 40/151/24 32/140/24

f 14/93/6 7/29/6 15/28/6

usemtl Color_D03
vt 83.4936 1.64846e-012
f 18/33/7 15/30/7 14/156/7

usemtl _7
vt -0.893948 1.37641
f 18/157/8 15/36/8 17/35/8

vt -0.893948 0.760201
f 14/158/8 15/36/8 18/157/8

usemtl _Tile_Ceramic_Natural_14
vt 14.7574 -1.94681
f 28/159/5 23/53/5 22/51/5

usemtl _7
vt 6.79333 -0.563836
f 22/61/6 23/60/6 28/160/6

f 21/74/12 19/50/12 20/49/12

f 17/87/10 16/43/10 19/42/10

g Mesh2 CUA002 Model

l 4 2

l 4 1

l 25 4

l 25 35

l 24 25

l 24 23

l 24 29

l 29 30

l 12 30

l 12 13

l 12 11

l 11 36

l 11 10

l 10 9

l 10 37

l 37 38

l 36 37

l 1 36

l 1 3

l 35 1

l 5 35

l 6 5

l 2 6

l 2 3

l 3 5

l 6 25

l 25 33

l 33 34

l 33 32

l 32 31

l 32 41

l 41 40

l 31 40

l 8 31

l 9 8

l 9 38

l 38 39

l 8 39

l 35 34

l 13 14

l 14 18

l 15 14

l 15 16

l 16 17

l 7 16

l 20 7

l 20 21

l 22 20

l 28 22

l 28 27

l 28 23

l 18 27

l 17 18

l 17 19

l 7 19

l 19 21

l 26 21

l 22 26

l 27 26

