# Alias OBJ Model File
# Exported from SketchUp, (c) 2000-2012 Trimble Navigation Limited
# File units = meters

mtllib CUA047.mtl

g Mesh1 CUA047 Model

usemtl Color_D03
v 10.9539 3.701 -0.0382353
vt 118.132 9.84252
vn 1 -7.9851e-015 0.000328946
v 10.953 6.701 2.74176
vt 8.68278 127.953
v 10.953 3.701 2.74176
vt 8.68278 9.84252
f 1/1/1 2/2/1 3/3/1

v 10.9539 6.701 -0.0382353
vt 118.132 127.953
f 2/2/1 1/1/1 4/4/1

usemtl _7
vt -0.893948 0.760201
vn -1 7.9851e-015 -0.000328946
vt -0.893948 1.37641
vt 0.0136593 0.760201
f 3/5/2 2/6/2 1/7/2

usemtl Color_D03
vt 0.00285617 127.953
vn 0.000328946 -5.42711e-016 -1
v 12.023 3.701 2.74212
vt -42.1231 9.84252
vt 0.00285617 9.84252
f 2/8/3 5/9/3 3/10/3

v 12.023 6.701 2.74212
vt -42.1231 127.953
f 5/9/3 2/8/3 6/11/3

usemtl _7
vt -3.57619 0.760201
vn -0.000328946 5.42711e-016 1
vt -3.92552 0.760201
vt -3.57619 1.37641
f 3/12/4 5/13/4 2/14/4

usemtl _Tile_Ceramic_Natural_14
vt 8.52694 -1.94476
vn -3.65707e-013 1 -6.56939e-013
vt 7.76872 0.0271172
vt 7.76807 -1.94451
f 5/15/5 1/16/5 3/17/5

v 12.6039 3.701 -0.0376925
vt 8.93893 0.0267323
f 1/16/5 5/15/5 7/18/5

usemtl _7
vt 3.5759 -0.56317
vn 3.65707e-013 -1 6.56939e-013
vt 3.5762 0.00785369
vt 3.92523 -0.563242
f 3/19/6 1/20/6 5/21/6

vt 4.11489 0.00774221
f 7/22/6 5/21/6 1/20/6

usemtl _Tile_Ceramic_Natural_14
v 12.6039 3.701 0.0523075
vt 8.93891 -0.0370975
f 7/18/5 5/15/5 8/23/5

usemtl _7
vt 4.11488 -0.0107442
f 8/24/6 5/21/6 7/22/6

usemtl _Tile_Ceramic_Natural_14
v 12.6029 3.701 2.96231
vt 8.93823 -2.10093
f 8/23/5 5/15/5 9/25/5

usemtl _7
vt 4.11456 -0.608471
f 9/26/6 5/21/6 8/24/6

usemtl _Tile_Ceramic_Natural_14
v 12.0229 3.701 2.96212
vt 8.52688 -2.10079
f 9/25/5 5/15/5 10/27/5

usemtl _7
vt 3.92521 -0.608431
f 10/28/6 5/21/6 9/26/6

usemtl Color_D03
vn 1 -1.80888e-014 0.000328946
v 12.0229 6.701 2.96212
vt 0.0213676 127.953
vt 0.0213676 9.84252
f 5/3/7 11/29/7 10/30/7

f 11/29/7 5/3/7 6/2/7

usemtl _7
vt -0.965773 0.760201
vn -1 1.80888e-014 -0.000328946
vt -0.965773 1.37641
f 10/31/8 11/32/8 5/5/8

usemtl Color_D03
v 12.6029 6.701 2.96231
vt -64.9578 127.953
vn 0.000328946 -2.94192e-014 -1
f 12/33/9 10/9/9 11/11/9

vt -64.9578 9.84252
f 10/9/9 12/33/9 9/34/9

usemtl _7
vt -4.11488 0.760201
vn -0.000328946 2.94192e-014 1
vt -4.11488 1.37641
f 9/35/10 12/36/10 10/13/10

usemtl Color_D03
vt -0.0213389 127.953
vn -1 -3.58524e-007 -0.000328504
v 12.6036 5.811 0.862307
vt -82.6985 92.9134
vt -0.0213389 9.8425
f 12/37/11 13/38/11 9/39/11

v 12.6039 6.701 -0.0376925
vt -118.132 127.953
f 13/38/11 12/37/11 14/40/11

usemtl _7
vt 0.965774 0.7602
vn 1 3.58524e-007 0.000328504
vt 0.280172 1.1936
vt 0.965774 1.37641
f 9/41/12 13/42/12 12/43/12

usemtl Color_D03
v 12.6036 3.701 0.862307
vt -82.6985 9.8425
f 15/44/11 9/39/11 13/38/11

usemtl _7
vt 0.280172 0.7602
f 13/42/12 9/41/12 15/45/12

usemtl _Tile_Ceramic_Natural_14
vt 8.93872 -0.611566
f 8/23/5 9/25/5 15/46/5

usemtl _7
vt 4.11479 -0.177122
f 15/47/6 9/26/6 8/24/6

usemtl _Tile_Ceramic_Natural_14
v 12.6036 3.701 0.822307
vt 8.93873 -0.583197
f 8/23/5 15/46/5 16/48/5

usemtl _7
vt 4.11479 -0.168905
f 16/49/6 15/47/6 8/24/6

usemtl _DimGray_
vt -82.6985 9.84252
vn -1 5.56656e-013 -0.000328946
v 12.6036 5.731 0.822307
vt -84.2733 89.7638
vt -84.2733 9.84252
f 15/50/13 17/51/13 16/52/13

f 13/38/13 17/51/13 15/50/13

v 12.6039 5.811 0.0873074
vt -113.21 92.9134
f 17/51/13 13/38/13 18/53/13

usemtl _7
vt 0.28017 0.760201
vn 1 -5.56656e-013 0.000328946
vt 0.267111 1.17717
vt 0.28017 1.1936
f 15/54/14 17/55/14 13/56/14

vt 0.267111 0.760201
f 16/57/14 17/55/14 15/54/14

usemtl _DimGray_
vt -64.9578 89.7638
v 12.6386 3.701 0.822319
vt -66.3357 9.84252
f 17/58/3 19/59/3 16/34/3

v 12.6386 5.731 0.822319
vt -66.3357 89.7638
f 19/59/3 17/58/3 20/60/3

usemtl _7
vt -4.12631 0.760201
vt -4.11488 1.17717
f 16/35/4 19/61/4 17/62/4

usemtl _Tile_Ceramic_Natural_14
vt 8.96355 -0.583205
f 19/63/5 8/23/5 16/48/5

v 12.6389 3.701 0.062319
vt 8.96373 -0.0441978
f 8/23/5 19/63/5 21/64/5

usemtl _7
vt 4.12622 -0.168908
f 16/49/6 8/24/6 19/65/6

vt 4.1263 -0.0128006
f 21/66/6 19/65/6 8/24/6

usemtl _Tile_Ceramic_Natural_14
v 12.6386 3.701 0.812319
vt 8.96356 -0.576113
f 21/64/5 19/63/5 22/67/5

usemtl _7
vt 4.12622 -0.166854
f 22/68/6 19/65/6 21/66/6

usemtl _DimGray_
vn -1 2.84708e-016 -0.000328946
v 12.6386 5.731 0.812319
vt -84.667 89.7638
vt -84.667 9.84252
f 19/52/15 23/69/15 22/70/15

f 23/69/15 19/52/15 20/51/15

usemtl _7
vn 1 -2.84708e-016 0.000328946
vt 0.263846 1.17717
f 20/55/16 19/57/16 23/71/16

vt -4.12631 1.17717
f 20/72/4 17/62/4 19/61/4

vt 0.263846 0.760201
f 22/73/16 23/71/16 19/57/16

usemtl _DimGray_
v 12.7536 5.731 0.812357
vt -70.8633 89.7638
f 24/74/3 22/59/3 23/60/3

v 12.7536 3.701 0.812357
vt -70.8633 9.84252
f 22/59/3 24/74/3 25/75/3

usemtl _7
vt -4.16385 0.760201
vt -4.16385 1.17717
f 25/76/4 24/77/4 22/61/4

f 23/72/4 22/61/4 24/77/4

usemtl _Tile_Ceramic_Natural_14
vt 9.04512 -0.57614
f 25/78/5 21/64/5 22/67/5

v 12.7539 3.701 0.0623568
vt 9.04529 -0.0442247
f 21/64/5 25/78/5 26/79/5

usemtl _7
vt 4.16377 -0.166862
f 22/68/6 21/66/6 25/80/6

vt 4.16385 -0.0128084
f 26/81/6 25/80/6 21/66/6

usemtl _DimGray_
vt 70.8633 9.84252
vn -0.000328946 -1.11913e-012 1
v 12.6389 5.731 0.062319
vt 66.3357 89.7638
vt 66.3357 9.84252
f 26/82/17 27/83/17 21/84/17

v 12.7539 5.731 0.0623568
vt 70.8633 89.7638
f 27/83/17 26/82/17 28/85/17

usemtl _7
vt 4.12631 0.760201
vn 0.000328946 1.11913e-012 -1
vt 4.12631 1.17717
vt 4.16385 0.760201
f 21/86/18 27/87/18 26/88/18

usemtl _DimGray_
v 12.6389 5.811 0.062319
vt 114.173 92.9134
vn 1 -1.15686e-011 -1.26391e-009
vt 114.173 9.84252
vt 114.173 89.7638
f 29/89/19 21/90/19 27/91/19

v 12.6389 5.811 0.0873074
vt 113.189 92.9134
f 30/92/19 21/90/19 29/89/19

v 12.6389 3.701 0.0873074
vt 113.189 9.84252
f 21/90/19 30/92/19 31/93/19

usemtl BackColor
vn -1 1.15686e-011 1.26391e-009
f 31/93/20 30/92/20 21/90/20

usemtl _DimGray_
vt 66.3733 92.9134
vn 4.88316e-010 2.95489e-011 1
v 12.6039 3.701 0.0873074
vt 64.995 9.84252
vt 66.3733 9.84252
f 30/94/21 32/95/21 31/96/21

v 12.6039 5.731 0.0873074
vt 64.995 89.7638
f 32/95/21 30/94/21 33/97/21

usemtl BackColor
vn -4.88316e-010 -2.95489e-011 -1
f 31/96/22 32/95/22 30/94/22

f 33/97/22 30/94/22 32/95/22

usemtl _DimGray_
vt 64.995 92.9134
f 33/97/21 30/94/21 18/98/21

usemtl BackColor
f 18/98/22 30/94/22 33/97/22

usemtl _DimGray_
vt -113.21 89.7638
f 17/51/13 18/53/13 33/99/13

usemtl _7
vt 0.0271503 1.1936
f 18/100/14 13/56/14 17/55/14

usemtl Color_D03
f 13/38/11 14/40/11 18/53/11

usemtl _7
vt -0.0136575 1.37641
f 14/101/12 12/43/12 13/42/12

vt 0.0271521 1.1936
f 18/102/12 14/101/12 13/42/12

usemtl Color_D03
v 12.6039 5.811 0.062319
vt -114.194 92.9134
f 18/53/11 14/40/11 34/103/11

usemtl _7
vt 0.018994 1.1936
f 34/104/12 14/101/12 18/102/12

usemtl Color_D03
v 12.6039 5.811 0.0123075
vt -116.163 92.9134
f 34/103/11 14/40/11 35/105/11

usemtl _7
vt 0.00266635 1.1936
f 35/106/12 14/101/12 34/104/12

usemtl Color_D03
vt -118.132 9.8425
f 7/107/11 35/105/11 14/40/11

v 12.6039 3.701 0.0123075
vt -116.163 9.8425
f 35/105/11 7/107/11 36/108/11

usemtl _7
vt 0.00266635 0.7602
vt -0.0136575 0.7602
f 36/109/12 7/110/12 35/106/12

usemtl _Tile_Ceramic_Natural_14
vt 8.93892 -0.00872869
f 7/18/5 8/23/5 36/111/5

usemtl _7
vt 4.11488 -0.002528
f 36/112/6 8/24/6 7/22/6

usemtl _DimGray_
vt -114.588 9.84246
vn -1 -9.45629e-007 -0.000329894
vt -116.163 92.9133
vt -116.163 9.84246
f 8/113/23 35/114/23 36/115/23

vt -114.194 92.9133
f 35/114/23 8/113/23 34/116/23

usemtl _7
vt 0.0189883 1.1936
vn 1 9.45629e-007 0.000329894
vt 0.0157197 0.760199
vt 0.00266063 1.1936
f 34/117/24 8/118/24 35/119/24

usemtl _DimGray_
v 12.6039 3.451 0.0523075
vt -114.588 -6.14259e-005
f 37/120/23 34/116/23 8/113/23

vt -113.21 92.9133
f 37/120/23 18/121/23 34/116/23

vt -113.21 89.7637
f 37/120/23 33/122/23 18/121/23

vt -113.21 9.84246
f 37/120/23 32/123/23 33/122/23

v 12.6039 3.451 0.0873074
vt -113.21 -6.14259e-005
f 32/123/23 37/120/23 38/124/23

usemtl _7
vt 0.0271464 0.708848
vt 0.0157197 0.708848
vt 0.0271464 0.760199
f 38/125/24 37/126/24 32/127/24

vt 0.0271464 1.17717
f 33/128/24 32/127/24 37/126/24

vt 0.0271464 1.1936
f 18/129/24 33/128/24 37/126/24

vt 0.0271503 1.17717
f 33/130/14 18/100/14 17/55/14

f 34/117/24 18/129/24 37/126/24

f 8/118/24 34/117/24 37/126/24

vt 0.00266063 0.760199
f 36/131/24 35/119/24 8/118/24

f 14/101/12 35/106/12 7/110/12

usemtl Color_D03
vt 64.9578 127.953
vn -0.000328946 -1.5154e-013 1
vt -0.00285617 9.84252
vt 64.9578 9.84252
f 14/132/25 1/133/25 7/134/25

vt -0.00285617 127.953
f 1/133/25 14/132/25 4/135/25

usemtl _7
vt 4.11488 0.760201
vn 0.000328946 1.5154e-013 -1
vt 3.57619 0.760201
vt 4.11488 1.37641
f 7/136/26 1/137/26 14/138/26

vt 3.57619 1.37641
f 4/139/26 14/138/26 1/137/26

vt 0.0136593 1.37641
f 4/140/2 1/7/2 2/6/2

usemtl BackColor
f 29/89/20 21/90/20 30/92/20

f 27/91/20 21/90/20 29/89/20

usemtl _7
vt 4.16385 1.17717
f 28/141/18 26/88/18 27/87/18

usemtl _Tile_Ceramic_Natural_14
v 12.6389 3.701 0.052319
vt 8.96373 -0.0371056
f 8/23/5 21/64/5 39/142/5

usemtl _7
vt 4.1263 -0.0107465
f 39/143/6 21/66/6 8/24/6

vt -3.92552 1.37641
f 11/144/10 10/13/10 12/36/10

f 6/6/8 5/5/8 11/32/8

f 6/144/4 2/14/4 5/13/4

g Mesh2 CUA047 Model

l 1 3

l 1 4

l 7 1

l 7 14

l 36 7

l 36 35

l 8 36

l 39 8

l 39 21

l 26 21

l 26 28

l 25 26

l 25 22

l 25 24

l 23 24

l 22 23

l 22 19

l 19 20

l 16 19

l 16 17

l 15 16

l 15 13

l 9 15

l 9 12

l 9 10

l 10 11

l 5 10

l 5 6

l 5 3

l 3 2

l 4 2

l 4 14

l 12 14

l 12 11

l 11 6

l 2 6

l 13 18

l 18 33

l 18 34

l 18 30

l 31 30

l 31 21

l 32 31

l 38 32

l 37 38

l 37 8

l 32 33

l 17 33

l 17 20

l 20 23

l 21 27

l 27 28

l 29 27

l 30 29

l 34 35

