# Alias OBJ Model File
# Exported from SketchUp, (c) 2000-2012 Trimble Navigation Limited
# File units = meters

mtllib CUA020.mtl

g Mesh1 CUA020 Model

usemtl Color_D03
v 18.9985 3.701 -64.9388
vt 110.755 3.58114e-012
vn 1 0 -0
v 18.9985 6.701 -62.1256
vt 4.54747e-013 118.11
v 18.9985 3.701 -62.1256
vt 0 7.04858e-012
f 1/1/1 2/2/1 3/3/1

v 18.9985 6.701 -64.9388
vt 110.755 118.11
f 2/2/1 1/1/1 4/4/1

vn -1 -0 0
f 3/3/2 2/2/2 1/1/2

vt 1.25872e-040 118.11
vn 2.76795e-028 -3.85019e-015 -1
v 21.3578 3.701 -62.1256
vt -92.8868 1.36993e-011
f 2/5/3 5/6/3 3/3/3

v 21.3578 6.701 -62.1256
vt -92.8868 118.11
f 5/6/3 2/5/3 6/7/3

vn -2.76795e-028 3.85019e-015 1
f 3/3/4 5/6/4 2/5/4

usemtl _Tile_Ceramic_Natural_14
vt 15.1474 44.0607
vn -1.31998e-014 1 -7.31027e-014
vt 13.4741 46.0559
vt 13.4741 44.0607
f 5/8/5 1/9/5 3/10/5

v 20.5034 3.701 -64.9388
vt 14.5414 46.0559
f 1/9/5 5/8/5 7/11/5

usemtl Color_D03
vt 9.30398e-026 -5.15271e-025
vn 1.31998e-014 -1 7.31027e-014
vt 4.72702e-026 110.755
vt 92.8868 -9.11823e-025
f 3/12/6 1/13/6 5/14/6

vt 59.2484 110.755
f 7/15/6 5/14/6 1/13/6

usemtl _Tile_Ceramic_Natural_14
v 20.5034 3.701 -65.0148
vt 14.5414 46.1098
f 7/11/5 5/8/5 8/16/5

usemtl Color_D03
vt 59.2484 113.747
f 8/17/6 5/14/6 7/15/6

usemtl _Tile_Ceramic_Natural_14
v 21.3113 3.701 -64.9388
vt 15.1144 46.0559
f 8/16/5 5/8/5 9/18/5

usemtl Color_D03
vt 91.0554 110.755
f 9/19/6 5/14/6 8/17/6

usemtl _Tile_Ceramic_Natural_14
v 21.3578 3.701 -64.9388
vt 15.1474 46.0559
f 9/18/5 5/8/5 10/20/5

usemtl Color_D03
vt 92.8868 110.755
f 10/21/6 5/14/6 9/19/6

vt -4.54747e-013 118.11
vn -1 0 -0
vt -110.755 2.81375e-012
vt 0 1.36993e-011
f 6/22/7 10/23/7 5/24/7

v 21.3578 6.701 -64.9388
vt -110.755 118.11
f 10/23/7 6/22/7 11/25/7

vn 1 -0 0
f 5/24/8 10/23/8 6/22/8

f 11/25/8 6/22/8 10/23/8

v 21.3113 5.71353 -64.9388
vt 91.0554 79.2335
vn -8.66371e-016 2.9348e-015 1
vt 92.8868 3.13879e-012
vt 92.8868 118.11
f 12/26/9 10/27/9 11/28/9

vt 91.0554 1.5756e-012
f 10/27/9 12/26/9 9/29/9

vn 8.66371e-016 -2.9348e-015 -1
f 9/29/10 12/26/10 10/27/10

f 11/28/10 10/27/10 12/26/10

v 20.5034 5.71353 -64.9388
vt 59.2484 79.2335
f 12/26/9 11/28/9 13/30/9

f 13/30/10 11/28/10 12/26/10

vt -9.59549e-014 118.11
f 4/31/9 13/30/9 11/28/9

vt -9.59549e-014 3.90618e-012
f 1/32/9 13/30/9 4/31/9

vt 59.2484 3.76407e-012
f 13/30/9 1/32/9 7/33/9

f 7/33/10 1/32/10 13/30/10

f 4/31/10 13/30/10 1/32/10

f 11/28/10 13/30/10 4/31/10

f 4/4/2 1/1/2 2/2/2

f 6/7/4 2/5/4 5/6/4

usemtl _Tile_Ceramic_Natural_14
v 21.3113 3.701 -65.0148
vt 15.1144 46.1098
f 14/34/5 8/16/5 9/18/5

usemtl Color_D03
vt 91.0554 113.747
f 9/19/6 8/17/6 14/35/6

g Mesh2 CUA020 Model

l 1 3

l 1 4

l 1 7

l 13 7

l 13 12

l 12 9

l 9 10

l 14 9

l 14 8

l 8 7

l 11 10

l 4 11

l 4 2

l 2 3

l 6 2

l 5 6

l 3 5

l 10 5

l 6 11

