# Alias OBJ Model File
# Exported from SketchUp, (c) 2000-2012 Trimble Navigation Limited
# File units = meters

mtllib DES043.mtl

g Mesh1 ventana2_1 DES043 Model

usemtl Color_000
v 4.51677 5.02261 -8.7754
vt 1.37598 26.4413
vn -1 2.84708e-016 -0.000328946
v 4.51677 4.90361 -8.7964
vt 0.549204 21.7563
v 4.51677 4.90361 -8.7754
vt 1.37598 21.7563
f 1/1/1 2/2/1 3/3/1

v 4.51677 5.02261 -8.7964
vt 0.549204 26.4413
f 2/2/1 1/1/1 4/4/1

usemtl _7
vt 0.0114103 0.113509
vn 1 -2.84708e-016 0.000328946
vt 0.00455428 0.113509
vt 0.0114103 0.137952
f 3/5/2 2/6/2 1/7/2

usemtl Color_000
v 4.51678 4.901 -8.81035
vt 0 21.6535
f 2/2/1 5/8/1 3/3/1

v 4.51678 5.751 -8.81035
vt 1.31747e-044 55.1181
f 5/8/1 2/2/1 6/9/1

usemtl _7
vt 1.09251e-046 0.287566
vt 0 0.112972
f 6/10/2 2/6/2 5/11/2

usemtl Color_000
f 6/9/1 2/2/1 4/4/1

usemtl _7
vt 0.00455428 0.137952
f 4/12/2 2/6/2 6/10/2

f 4/12/2 1/7/2 2/6/2

usemtl Color_000
v 4.51676 5.701 -8.76035
vt 1.9685 53.1496
f 1/1/1 7/13/1 4/4/1

f 3/3/1 7/13/1 1/1/1

v 4.51676 4.401 -8.76035
vt 1.9685 1.9685
f 3/3/1 8/14/1 7/13/1

f 5/8/1 8/14/1 3/3/1

v 4.51678 4.351 -8.81035
vt 0 0
f 9/15/1 8/14/1 5/8/1

v 4.5164 4.351 -7.66035
vt 45.2756 2.84217e-014
f 8/14/1 9/15/1 10/16/1

usemtl _7
vt 0.0163239 0.0102702
f 5/11/2 8/17/2 9/15/2

f 3/5/2 8/17/2 5/11/2

vt 0.0163239 0.277296
f 7/18/2 8/17/2 3/5/2

usemtl M_0128_White
v 4.56676 4.401 -8.76034
vn -0.000328946 5.42711e-016 1
vt 5.11591e-013 53.1496
vt 5.11591e-013 1.9685
f 11/14/3 7/19/3 8/20/3

v 4.56676 5.701 -8.76034
f 7/19/3 11/14/3 12/13/3

usemtl _7
vt 4.24238e-015 0.0102702
vn 0.000328946 -5.42711e-016 -1
vt 4.24238e-015 0.277296
f 8/21/4 7/22/4 11/17/4

f 12/18/4 11/17/4 7/22/4

v 4.56678 5.751 -8.81034
vt 7.54201e-015 0.287566
f 13/23/1 11/17/1 12/18/1

v 4.56678 4.351 -8.81034
vt 7.54201e-015 0
f 14/24/1 11/17/1 13/23/1

v 4.5664 4.351 -7.66034
vt 0.375449 1.48284e-016
f 11/17/1 14/24/1 15/25/1

usemtl M_0128_White
vt 9.09495e-013 55.1181
vt 9.09495e-013 0
f 13/26/2 11/14/2 14/27/2

f 12/13/2 11/14/2 13/26/2

usemtl Translucent_Glass_Blue
v 4.56642 4.401 -7.71034
vt 43.3071 1.9685
vn -1 3.83492e-015 -0.000328946
f 16/28/5 12/13/5 11/14/5

v 4.56642 5.701 -7.71034
vt 43.3071 53.1496
f 12/13/5 16/28/5 17/29/5

vn 1 -3.83492e-015 0.000328946
f 11/14/6 12/13/6 16/28/6

f 17/29/6 16/28/6 12/13/6

usemtl _7
vt 0.359125 0.0102702
v 4.5664 5.701 -7.66034
vt 0.375449 0.277296
vt 0.359125 0.277296
f 16/30/1 18/31/1 17/32/1

v 4.5664 4.401 -7.66034
vt 0.375449 0.0102702
f 16/30/1 19/33/1 18/31/1

f 11/17/1 19/33/1 16/30/1

f 19/33/1 11/17/1 15/25/1

usemtl M_0128_White
vt 45.2756 1.9685
f 15/16/2 11/14/2 19/34/2

f 15/16/2 14/27/2 11/14/2

usemtl _7
vt -0.375449 2.66911e-015
vn -2.84887e-016 -1 5.42617e-016
vt -7.54201e-015 0.0102702
vt -0.375449 0.0102702
f 10/35/7 14/36/7 15/37/7

f 14/36/7 10/35/7 9/15/7

vn 2.84887e-016 1 -5.42617e-016
f 9/15/8 10/35/8 14/36/8

f 10/25/2 9/15/2 8/17/2

usemtl Color_000
v 4.5164 4.401 -7.66035
f 20/34/1 8/14/1 10/16/1

v 4.51642 4.401 -7.71035
f 8/14/1 20/34/1 21/28/1

usemtl _7
f 10/25/2 8/17/2 20/33/2

f 21/30/2 20/33/2 8/17/2

usemtl Color_000
v 4.5164 5.701 -7.66035
vt 45.2756 53.1496
f 21/28/1 20/34/1 22/38/1

usemtl _7
f 22/31/2 20/33/2 21/30/2

usemtl M_0128_White
vt 5.68434e-014 53.1496
f 20/20/3 18/13/3 22/39/3

f 18/13/3 20/20/3 19/14/3

usemtl _7
vt 4.71375e-016 0.277296
f 22/40/4 18/18/4 20/21/4

usemtl M_0128_White
vt -45.2756 1.9685
v 4.51607 5.701 -6.66035
vt -84.6457 5.68434e-014
vt -45.2756 5.68434e-014
f 18/41/7 23/42/7 22/43/7

v 4.56611 5.701 -6.77934
vt -79.9606 1.9685
f 23/42/7 18/41/7 24/44/7

usemtl _7
vt -0.375449 2.96567e-016
vt -0.701926 2.96567e-016
f 22/45/8 23/46/8 18/37/8

usemtl Color_000
v 4.5164 5.751 -7.66035
vt 45.2756 55.1181
vt 84.6457 53.1496
f 25/47/1 22/38/1 23/48/1

usemtl _7
v 4.5664 5.751 -7.66034
vt -0.0163239 0.287566
vt -4.71375e-016 0.277296
vt -4.71375e-016 0.287566
f 26/49/4 22/50/4 25/51/4

vt -0.0163239 0.277296
f 22/50/4 26/49/4 18/52/4

f 25/51/3 22/50/3 26/49/3

usemtl Color_000
v 4.51642 5.701 -7.71035
f 27/29/1 22/38/1 25/47/1

f 21/28/1 22/38/1 27/29/1

usemtl _7
f 27/32/2 22/31/2 21/30/2

vt 0.375449 0.287566
f 25/53/2 22/31/2 27/32/2

vt 0.701926 0.277296
f 23/54/2 22/31/2 25/53/2

usemtl Color_000
v 4.51606 5.751 -6.61035
vt 86.6142 55.1181
f 23/48/1 28/55/1 25/47/1

v 4.51607 5.02261 -6.6464
vt 85.1949 26.4413
f 29/56/1 28/55/1 23/48/1

v 4.51606 5.02261 -6.6254
vt 86.0216 26.4413
f 30/57/1 28/55/1 29/56/1

v 4.51606 4.90361 -6.6254
vt 86.0216 21.7563
f 31/58/1 28/55/1 30/57/1

v 4.51606 4.351 -6.61035
vt 86.6142 8.52651e-014
f 31/58/1 32/59/1 28/55/1

v 4.51607 4.401 -6.66035
vt 84.6457 1.9685
f 33/60/1 32/59/1 31/58/1

f 20/34/1 32/59/1 33/60/1

f 32/59/1 20/34/1 10/16/1

usemtl _7
vt 0.71825 4.44851e-016
f 10/25/2 20/33/2 32/61/2

vt -0.0163239 0.0102702
vt -4.24238e-015 1.48284e-016
vt -4.24238e-015 0.0102702
f 19/62/4 10/63/4 20/64/4

vt -0.0163239 1.48284e-016
f 10/63/4 19/62/4 15/65/4

f 20/64/3 10/63/3 19/62/3

f 15/65/3 19/62/3 10/63/3

v 4.56606 4.351 -6.61034
f 34/61/1 19/33/1 15/25/1

v 4.56607 4.401 -6.66034
vt 0.701926 0.0102702
f 19/33/1 34/61/1 35/66/1

usemtl M_0128_White
f 15/16/2 19/34/2 34/59/2

f 35/60/2 34/59/2 19/34/2

usemtl _7
v 4.56606 5.751 -6.61034
vt 0.71825 0.287566
f 35/66/1 34/61/1 36/67/1

usemtl M_0128_White
f 36/55/2 34/59/2 35/60/2

usemtl _7
vt 1.17844e-014 0.287566
vt 0.0163239 4.44851e-016
vt 0.0163239 0.287566
f 28/68/3 34/69/3 36/70/3

vt 1.10773e-014 4.44851e-016
f 34/69/3 28/68/3 32/71/3

f 32/71/4 28/68/4 34/69/4

vt 0.713337 0.113509
f 28/67/2 32/61/2 31/72/2

f 31/72/2 32/61/2 33/66/2

f 33/66/2 32/61/2 20/33/2

usemtl M_0128_White
vn 2.84915e-016 1 -6.27216e-016
vt 45.2756 5.11591e-013
vt 84.6457 -2.84217e-014
f 35/60/9 20/73/9 33/74/9

f 20/73/9 35/60/9 19/34/9

usemtl _7
vn -2.84915e-016 -1 6.27216e-016
vt 0.375449 2.66911e-015
f 19/33/10 35/66/10 20/75/10

usemtl Translucent_Glass_Blue
vn -1 9.49112e-015 -0.000328946
f 35/60/11 18/38/11 19/34/11

vt 79.9606 53.1496
f 18/38/11 35/60/11 24/76/11

vn 1 -9.49112e-015 0.000328946
f 19/34/12 18/38/12 35/60/12

usemtl M_0128_White
f 18/38/2 19/34/2 16/28/2

usemtl _7
f 19/17/4 20/21/4 18/18/4

usemtl M_0128_White
f 16/28/2 19/34/2 11/14/2

vn 2.84843e-016 1 -4.08333e-016
vt 43.3071 4.54747e-013
f 11/14/13 21/77/13 16/28/13

vt 1.9685 5.11591e-013
f 21/77/13 11/14/13 8/78/13

usemtl _7
vt 0.0163239 2.66911e-015
vn -2.84843e-016 -1 4.08333e-016
vt 0.359125 2.37254e-015
f 8/79/14 11/17/14 21/80/14

f 16/30/14 21/80/14 11/17/14

usemtl M_0128_White
vt -5.40012e-013 53.1496
vt -1.9685 1.9685
vt -4.54747e-013 1.9685
f 27/81/4 16/82/4 21/83/4

vt -1.9685 53.1496
f 16/82/4 27/81/4 17/84/4

usemtl _7
vt -3.771e-015 0.0102702
vt -4.47807e-015 0.277296
f 21/85/3 16/62/3 27/86/3

f 17/52/3 27/86/3 16/62/3

usemtl M_0128_White
vt -43.3071 5.40012e-013
v 4.56643 5.701 -7.73734
vt -42.2441 1.9685
vt -43.3071 1.9685
f 27/87/7 37/88/7 17/89/7

f 27/87/7 12/82/7 37/88/7

vt -1.9685 5.11591e-013
f 12/82/7 27/87/7 7/90/7

usemtl _7
vt -0.0163239 2.66911e-015
vt -0.359125 2.81739e-015
f 7/91/8 27/92/8 12/62/8

usemtl Color_000
f 6/9/1 7/13/1 27/29/1

f 6/9/1 4/4/1 7/13/1

usemtl _7
f 7/18/2 4/12/2 6/10/2

f 4/12/2 7/18/2 1/7/2

f 1/7/2 7/18/2 3/5/2

f 27/32/2 7/18/2 6/10/2

usemtl Color_000
f 27/29/1 25/47/1 6/9/1

usemtl _7
f 6/10/2 25/53/2 27/32/2

usemtl Color_000
v 4.51642 5.751 -7.71035
vt 43.3071 55.1181
f 6/9/1 25/47/1 38/93/1

usemtl _7
vt 0.359125 0.287566
f 38/94/2 25/53/2 6/10/2

vt 0.359125 2.81739e-015
vt 0.375449 2.96567e-016
f 26/33/8 38/95/8 25/96/8

v 4.56642 5.751 -7.71034
f 38/95/8 26/33/8 39/30/8

f 39/30/7 26/33/7 38/95/7

f 13/23/1 26/53/1 39/94/1

vt 0.35031 0.277296
f 37/97/1 26/53/1 13/23/1

f 17/32/1 26/53/1 37/97/1

f 17/32/1 18/31/1 26/53/1

usemtl M_0128_White
f 17/29/2 18/38/2 16/28/2

f 26/47/2 18/38/2 17/29/2

usemtl _7
f 18/52/3 26/49/3 22/50/3

f 18/31/1 36/67/1 26/53/1

vt 0.663075 0.277296
f 24/98/1 36/67/1 18/31/1

v 4.56607 5.701 -6.66034
f 40/54/1 36/67/1 24/98/1

f 35/66/1 36/67/1 40/54/1

usemtl M_0128_White
f 40/48/2 36/55/2 35/60/2

f 24/76/2 36/55/2 40/48/2

f 18/38/2 36/55/2 24/76/2

f 26/47/2 36/55/2 18/38/2

usemtl _7
vt 0.71825 7.41418e-015
vt 0.71825 0.0102702
f 26/33/8 28/99/8 36/100/8

f 28/99/8 26/33/8 25/96/8

f 25/96/7 26/33/7 28/99/7

f 25/96/7 38/95/7 26/33/7

f 36/100/7 28/99/7 26/33/7

f 36/70/4 34/69/4 28/68/4

f 25/53/2 28/67/2 23/54/2

vt 0.706481 0.137952
f 23/54/2 28/67/2 29/101/2

vt 0.713337 0.137952
f 29/101/2 28/67/2 30/102/2

f 30/102/2 28/67/2 31/72/2

usemtl Color_000
v 4.51607 4.90361 -6.6464
vt 85.1949 21.7563
f 30/57/1 41/103/1 31/58/1

f 41/103/1 30/57/1 29/56/1

usemtl _7
vt 0.706481 0.113509
f 31/72/2 41/104/2 30/102/2

usemtl Color_000
f 41/103/1 33/60/1 31/58/1

f 33/60/1 41/103/1 23/48/1

usemtl _7
f 23/54/2 41/104/2 33/66/2

usemtl Color_000
f 23/48/1 41/103/1 29/56/1

usemtl _7
f 29/101/2 41/104/2 23/54/2

f 29/101/2 30/102/2 41/104/2

f 31/72/2 33/66/2 41/104/2

usemtl M_0128_White
vt -5.68434e-014 53.1496
vt 2.84217e-014 1.9685
f 23/105/4 35/82/4 33/106/4

f 35/82/4 23/105/4 40/84/4

usemtl _7
vt 2.35688e-016 0.0102702
f 33/107/3 35/62/3 23/50/3

vt 0.701926 -1.48284e-016
f 33/108/10 20/75/10 35/66/10

f 40/52/3 23/50/3 35/62/3

usemtl M_0128_White
vt -84.6457 1.9685
f 23/42/7 24/44/7 40/109/7

usemtl _7
vt -0.663075 0.0102702
f 24/110/8 18/37/8 23/46/8

usemtl Translucent_Glass_Blue
f 24/76/12 35/60/12 18/38/12

f 24/76/11 35/60/11 40/48/11

f 40/48/12 35/60/12 24/76/12

usemtl _7
vt -0.701926 0.0102702
f 40/111/8 24/110/8 23/46/8

usemtl M_0128_White
vt 42.2441 53.1496
f 37/112/2 26/47/2 17/29/2

f 13/26/2 26/47/2 37/112/2

f 39/93/2 26/47/2 13/26/2

usemtl _7
vt 7.54201e-015 0.0102702
f 13/113/8 38/95/8 39/30/8

vt 0 4.44851e-016
f 38/95/8 13/113/8 6/114/8

f 6/114/7 13/113/7 38/95/7

vt -0.0163239 0
vt -7.07063e-016 0.287566
f 14/115/4 6/116/4 13/49/4

f 9/15/4 6/116/4 14/115/4

f 6/116/4 9/15/4 5/11/4

f 5/11/3 9/15/3 6/116/3

f 14/115/3 6/116/3 9/15/3

f 13/49/3 6/116/3 14/115/3

f 39/30/7 38/95/7 13/113/7

f 13/23/1 12/18/1 37/97/1

usemtl M_0128_White
f 37/112/2 12/13/2 13/26/2

usemtl _7
vt -0.35031 0.0102702
f 37/117/8 12/62/8 27/92/8

usemtl Translucent_Glass_Blue
f 12/13/5 17/29/5 37/112/5

f 37/112/6 17/29/6 12/13/6

usemtl _7
vt -0.359125 0.0102702
f 17/118/8 37/117/8 27/92/8

vt -0.71825 0.0102702
vt -0.71825 6.96933e-015
f 10/35/7 34/119/7 32/120/7

f 34/119/7 10/35/7 15/37/7

f 15/37/8 10/35/8 34/119/8

f 15/37/8 14/36/8 10/35/8

f 32/120/8 34/119/8 10/35/8

f 3/5/2 5/11/2 2/6/2

g Mesh2 ventana2_1 DES043 Model

l 2 3

l 4 2

l 1 4

l 3 1

g Mesh3 ventana2_1 DES043 Model

l 11 16

l 11 8

l 12 11

l 12 7

l 37 12

l 17 37

l 17 27

l 17 16

l 16 21

l 8 21

l 7 8

l 27 7

l 27 21

g Mesh4 ventana2_1 DES043 Model

l 5 6

l 9 5

l 14 9

l 14 13

l 15 14

l 19 15

l 19 20

l 18 19

l 18 22

l 26 18

l 39 26

l 13 39

l 13 6

l 6 38

l 39 38

l 38 25

l 26 25

l 26 36

l 36 28

l 36 34

l 34 32

l 34 15

l 15 10

l 20 10

l 20 33

l 22 20

l 23 22

l 33 23

l 35 33

l 35 40

l 19 35

l 40 23

l 40 24

l 24 18

l 25 22

l 25 28

l 28 32

l 32 10

l 10 9

g Mesh5 ventana2_1 DES043 Model

l 31 30

l 41 31

l 29 41

l 30 29

g Mesh6 DES043 Model

usemtl Color_D03
v 4.86599 3.701 -6.41024
vt 15.0307 9.70259e-013
v 4.86586 6.701 -6.03024
vt 0.0700605 118.11
v 4.86586 3.701 -6.03024
vt 0.0700605 1.74451e-013
f 42/121/2 43/122/2 44/123/2

v 4.86599 6.701 -6.41024
vt 15.0307 118.11
f 43/122/2 42/121/2 45/124/2

usemtl _7
vt 1.96926 0.760201
vt 1.96926 1.37641
vt 2.09332 0.760201
f 44/125/1 43/126/1 42/127/1

usemtl Color_D03
vt -13.772 118.11
v 9.92586 3.701 -6.02857
vt -212.985 9.66376e-013
vt -13.772 1.70568e-013
f 43/128/4 46/129/4 44/130/4

v 9.92586 6.701 -6.02857
vt -212.985 118.11
f 46/129/4 43/128/4 47/131/4

usemtl _7
vt -1.58795 0.760201
vt -3.23992 0.760201
vt -1.58795 1.37641
f 44/132/3 46/133/3 43/134/3

usemtl _Tile_Ceramic_Natural_14
vt 7.03962 4.27558
vt 3.45106 4.54627
vt 3.45097 4.27676
f 46/135/8 42/136/8 44/137/8

v 9.9265 3.701 -7.97502
vt 7.04007 5.65604
f 48/138/8 42/136/8 46/135/8

v 9.92679 3.701 -8.85001
vt 7.04028 6.2766
f 49/139/8 42/136/8 48/138/8

v 9.92686 3.701 -9.06501
vt 7.04033 6.42908
f 50/140/8 42/136/8 49/139/8

v 4.56686 3.701 -9.06677
vt 3.23891 6.43033
f 51/141/8 42/136/8 50/140/8

v 4.56678 3.701 -8.81034
vt 3.23885 6.24847
f 52/142/8 42/136/8 51/141/8

v 4.56606 3.701 -6.61034
vt 3.23834 4.68818
f 53/143/8 42/136/8 52/142/8

v 4.56599 3.701 -6.41034
vt 3.23829 4.54634
f 42/136/8 53/143/8 54/144/8

usemtl _7
vt 1.49069 1.31671
vt 1.49071 1.35779
vt 1.58864 1.31669
f 54/145/7 53/146/7 42/147/7

usemtl Color_D03
vt 22.9047 9.95318e-013
v 4.56599 6.701 -6.41034
vt 15.0307 1.14245e-013
f 53/148/2 55/124/2 54/149/2

v 4.56606 5.751 -6.61034
vt 22.9047 80.7087
f 55/124/2 53/148/2 56/150/2

usemtl _7
vt 2.09332 1.37641
vt 2.15862 0.760201
f 54/127/1 55/151/1 53/152/1

usemtl Color_D03
vt -1.96097 118.11
vt -13.772 9.74495e-013
vt -1.96097 1.21844e-013
f 55/153/4 42/154/4 54/155/4

f 42/154/4 55/153/4 45/128/4

usemtl _7
vt -1.49 0.760201
vt -1.49 1.37641
f 54/156/3 42/132/3 55/157/3

f 45/134/3 55/157/3 42/132/3

f 45/151/1 42/127/1 43/126/1

vt 2.15862 1.18128
f 56/158/1 53/152/1 55/151/1

usemtl Color_D03
v 4.56606 4.351 -6.61034
vt 22.9047 25.5906
f 56/150/2 53/148/2 57/159/2

usemtl _7
vt 2.15862 0.893714
f 57/160/1 53/152/1 56/158/1

usemtl Color_D03
vt 109.519 5.74017e-014
f 52/161/2 57/159/2 53/148/2

v 4.56678 4.351 -8.81034
vt 109.519 25.5906
f 57/159/2 52/161/2 58/162/2

usemtl _7
vt 2.87687 0.760201
f 53/152/1 57/160/1 52/163/1

vt 2.87687 0.893714
f 58/164/1 52/163/1 57/160/1

usemtl Color_D03
vt 119.615 5.74017e-014
f 58/162/2 52/161/2 51/165/2

usemtl _7
vt 2.96058 0.760201
f 51/166/1 52/163/1 58/164/1

vt 1.49098 1.86235
vt 1.49095 1.80968
f 51/167/7 42/147/7 52/168/7

vt 3.2409 1.86199
f 50/169/7 42/147/7 51/167/7

vt 3.24087 1.81783
f 49/170/7 42/147/7 50/169/7

vt 3.24078 1.6381
f 48/171/7 42/147/7 49/170/7

vt 3.24057 1.23829
f 46/172/7 42/147/7 48/171/7

vt 1.58859 1.23864
f 44/173/7 42/147/7 46/172/7

usemtl Color_D03
vt -0.0700605 1.02698e-012
v 9.9265 6.701 -7.97502
vt -76.7018 118.11
vt -76.7018 8.90602e-014
f 46/174/1 59/175/1 48/176/1

vt -0.0700605 118.11
f 59/175/1 46/174/1 47/177/1

usemtl _7
vt -1.96926 1.37641
vt -1.96926 0.760201
vt -2.60473 1.37641
f 47/178/2 46/179/2 59/180/2

vt -3.23992 1.37641
f 47/181/3 43/134/3 46/133/3

vt -2.60473 0.760201
f 48/182/2 59/180/2 46/179/2

usemtl _Tile_Ceramic_Natural_14
v 9.92652 3.701 -8.01502
vt 7.04008 5.68441
f 49/139/8 48/138/8 60/183/8

usemtl _7
vt 3.24078 1.64632
f 60/184/7 48/171/7 49/170/7

usemtl _Tile_Ceramic_Natural_14
v 9.9268 3.701 -8.88501
vt 7.04029 6.30142
f 50/140/8 49/139/8 61/185/8

usemtl _7
vt 3.24088 1.82502
f 61/186/7 49/170/7 50/169/7

usemtl _Tile_Ceramic_Natural_14
v 9.92682 3.701 -8.92501
vt 7.0403 6.32979
f 50/140/8 61/185/8 62/187/8

usemtl _7
vt 3.24088 1.83323
f 62/188/7 61/186/7 50/169/7

usemtl Color_D03
v 9.92682 6.701 -8.92501
vt -114.103 118.11
vt -119.615 6.06385e-014
vt -114.103 6.06385e-014
f 63/189/1 50/190/1 62/191/1

v 9.92686 6.701 -9.06501
vt -119.615 118.11
f 50/190/1 63/189/1 64/192/1

usemtl _7
vt -2.91488 0.760201
vt -2.96058 0.760201
vt -2.91488 1.37641
f 62/193/2 50/194/2 63/195/2

vt -2.96058 1.37641
f 64/196/2 63/195/2 50/194/2

usemtl Color_D03
vt 212.985 118.11
vt 1.96097 1.2176e-013
vt 212.985 6.49161e-014
f 64/197/3 51/198/3 50/199/3

v 4.56686 6.701 -9.06677
vt 1.96097 118.11
f 51/198/3 64/197/3 65/200/3

usemtl _7
vt 3.23992 0.760201
vt 1.49 0.760201
vt 3.23992 1.37641
f 50/201/4 51/202/4 64/203/4

vt 1.49 1.37641
f 65/204/4 64/203/4 51/202/4

usemtl Color_D03
vt 119.615 118.11
v 4.56678 5.751 -8.81034
vt 109.519 80.7087
f 65/205/2 66/206/2 51/165/2

f 65/205/2 56/150/2 66/206/2

f 55/124/2 56/150/2 65/205/2

usemtl _7
vt 2.96058 1.37641
f 65/207/1 56/158/1 55/151/1

vt 2.87687 1.18128
f 66/208/1 56/158/1 65/207/1

f 51/166/1 66/208/1 65/207/1

usemtl Color_D03
f 58/162/2 51/165/2 66/206/2

usemtl _7
f 66/208/1 51/166/1 58/164/1

f 52/168/7 42/147/7 53/146/7

g Mesh7 DES043 Model

l 46 47

l 44 46

l 44 43

l 42 44

l 42 45

l 54 42

l 54 55

l 54 53

l 52 53

l 52 51

l 51 65

l 51 50

l 50 64

l 50 62

l 62 63

l 62 61

l 61 49

l 49 60

l 48 60

l 48 59

l 48 46

l 59 47

l 43 47

l 45 43

l 55 45

l 55 65

l 65 64

l 64 63

g Mesh8 DES043 Model

l 66 56

l 58 66

l 58 57

l 57 56

