# Alias OBJ Model File
# Exported from SketchUp, (c) 2000-2012 Trimble Navigation Limited
# File units = meters

mtllib DES005.mtl

g Mesh1 DES005 Model

usemtl Color_D03
v 23.9459 3.701 -6.02396
vt 2.15133e-005 1.13722e-013
vn 0.000328946 -5.42711e-016 -1
v 28.9959 6.701 -6.0223
vt -198.819 118.11
v 28.9959 3.701 -6.0223
vt -198.819 5.68789e-014
f 1/1/1 2/2/1 3/3/1

v 23.9459 6.701 -6.02396
vt 2.15133e-005 118.11
f 2/2/1 1/1/1 4/4/1

usemtl _7
vt -9.46584 0.760201
vn -0.000328946 5.42711e-016 1
vt -9.46584 1.37641
vt -7.81713 0.760201
f 3/5/2 2/6/2 1/7/2

usemtl Color_D03
vt -0.0654007 118.11
vn -1 1.92363e-016 -0.000328946
v 28.996 5.751 -6.5623
vt -21.3252 80.7087
vt -0.0654007 9.50888e-014
f 2/8/3 5/9/3 3/10/3

v 28.9968 6.701 -9.0123
vt -117.782 118.11
f 5/9/3 2/8/3 6/11/3

usemtl _7
vt -1.96926 0.760201
vn 1 -1.92363e-016 0.000328946
vt -2.14556 1.18128
vt -1.96926 1.37641
f 3/12/4 5/13/4 2/14/4

usemtl Color_D03
v 28.996 4.351 -6.5623
vt -21.3252 25.5906
f 3/10/3 5/9/3 7/15/3

usemtl _7
vt -2.14556 0.893714
f 7/16/4 5/13/4 3/12/4

usemtl Color_D03
v 28.996 3.701 -6.5623
vt -21.3252 9.4774e-013
f 7/15/3 8/17/3 3/10/3

v 28.9968 4.351 -8.7623
vt -107.939 25.5906
f 8/17/3 7/15/3 9/18/3

usemtl _7
vt -2.14556 0.760201
f 3/12/4 8/19/4 7/16/4

usemtl _Tile_Ceramic_Natural_14
v 28.9968 3.701 -9.0123
vt 20.5651 6.3917
vn 2.84887e-016 1 -5.42617e-016
vt 20.5644 4.27114
vt 20.5646 4.65411
f 10/20/5 3/21/5 8/22/5

v 23.9468 3.701 -9.01396
vt 16.9836 6.39288
f 11/23/5 3/21/5 10/20/5

v 23.9468 3.701 -8.88396
vt 16.9835 6.30068
f 12/24/5 3/21/5 11/23/5

v 23.9468 3.701 -8.84396
vt 16.9835 6.27231
f 13/25/5 3/21/5 12/24/5

v 23.9468 3.701 -8.80896
vt 16.9835 6.24749
f 14/26/5 3/21/5 13/25/5

v 23.9465 3.701 -7.97398
vt 16.9833 5.6553
f 15/27/5 3/21/5 14/26/5

v 23.9465 3.701 -7.93398
vt 16.9833 5.62693
f 16/28/5 3/21/5 15/27/5

vt 16.9829 4.27231
f 3/21/5 16/28/5 1/29/5

usemtl _7
vt 7.81778 1.23735
vn -2.84887e-016 -1 5.42617e-016
vt 7.81799 1.62967
vt 9.46649 1.23701
f 1/30/6 16/31/6 3/32/6

usemtl Color_D03
vt 75.2628 8.52651e-014
vn 1 -2.84708e-016 0.000328946
vt 0.0654007 118.11
vt 0.0654007 1.13687e-013
f 16/33/7 4/34/7 1/35/7

v 23.9465 6.701 -7.93398
vt 75.2628 118.11
f 4/34/7 16/33/7 17/36/7

usemtl _7
vt 1.96926 0.760201
vn -1 2.84708e-016 -0.000328946
vt 1.96926 1.37641
vt 2.59283 0.760201
f 1/37/8 4/38/8 16/39/8

vt -7.81713 1.37641
f 4/40/2 1/7/2 2/6/2

vt 2.59283 1.37641
f 17/41/8 16/39/8 4/38/8

vt 7.81799 1.63789
f 15/42/6 3/32/6 16/31/6

vt 7.81808 1.8094
f 14/43/6 3/32/6 15/42/6

vt 7.81808 1.81659
f 13/44/6 3/32/6 14/43/6

vt 7.81809 1.8248
f 12/45/6 3/32/6 13/44/6

vt 7.8181 1.85151
f 11/46/6 3/32/6 12/45/6

vt 9.46681 1.85117
f 10/47/6 3/32/6 11/46/6

vt 9.46655 1.34792
f 8/48/6 3/32/6 10/47/6

usemtl _Tile_Ceramic_Natural_14
v 28.9968 3.701 -8.7623
vt 20.5651 6.2144
f 10/20/5 8/22/5 18/49/5

usemtl _7
vt 9.46679 1.79981
f 18/50/6 8/48/6 10/47/6

usemtl Color_D03
vt -107.939 3.82454e-014
f 8/17/3 9/18/3 18/51/3

usemtl _7
vt -2.86381 0.893714
f 9/52/4 7/16/4 8/19/4

vt -2.86381 0.760201
f 18/53/4 9/52/4 8/19/4

usemtl Color_D03
v 28.9968 5.751 -8.7623
vt -107.939 80.7087
f 18/51/3 9/18/3 19/54/3

usemtl _7
vt -2.86381 1.18128
f 19/55/4 9/52/4 18/53/4

usemtl Color_D03
vt -117.782 8.90897e-013
f 18/51/3 19/54/3 10/56/3

usemtl _7
vt -2.94543 0.760201
f 10/57/4 19/55/4 18/53/4

usemtl Color_D03
f 10/56/3 19/54/3 6/11/3

usemtl _7
vt -2.94543 1.37641
f 6/58/4 19/55/4 10/57/4

usemtl Color_D03
f 5/9/3 6/11/3 19/54/3

usemtl _7
f 6/58/4 2/14/4 5/13/4

f 19/55/4 6/58/4 5/13/4

usemtl Color_D03
v 23.9468 6.701 -9.01396
vt -2.15133e-005 118.11
vt 198.819 9.16573e-013
vt 198.819 118.11
f 20/59/2 10/60/2 6/61/2

vt -2.15133e-005 1.20765e-013
f 10/60/2 20/59/2 11/62/2

usemtl _7
vt 7.81713 0.760201
vt 7.81713 1.37641
vt 9.46584 0.760201
f 11/63/1 20/64/1 10/65/1

usemtl Color_D03
v 23.9468 6.701 -8.88396
vt 112.664 118.11
vt 117.782 5.68434e-014
vt 117.782 118.11
f 21/66/7 11/67/7 20/68/7

vt 112.664 5.68434e-014
f 11/67/7 21/66/7 12/69/7

usemtl _7
vt 2.90298 0.760201
vt 2.90298 1.37641
vt 2.94543 0.760201
f 12/70/8 21/71/8 11/72/8

vt 2.94543 1.37641
f 20/73/8 11/72/8 21/71/8

vt 9.46584 1.37641
f 6/74/1 10/65/1 20/64/1

g Mesh2 DES005 Model

l 10 6

l 18 10

l 8 18

l 3 8

l 3 2

l 1 3

l 1 4

l 16 1

l 16 17

l 16 15

l 15 14

l 14 13

l 13 12

l 12 21

l 11 12

l 11 20

l 11 10

l 20 21

l 20 6

l 2 6

l 4 2

l 17 4

g Mesh3 DES005 Model

l 19 5

l 9 19

l 7 9

l 7 5

