# Alias OBJ Model File
# Exported from SketchUp, (c) 2000-2012 Trimble Navigation Limited
# File units = meters

mtllib DES035.mtl

g Mesh1 ventana1_1 DES035 Model

usemtl Color_000
v 2.77683 5.801 -41.5209
vt 84.6457 -4.54747e-013
vn 4.80478e-017 1 -2.83193e-016
v 2.72683 5.801 -39.4209
vt 1.9685 1.9685
v 2.77683 5.801 -39.4209
vt 1.9685 9.09495e-013
f 1/1/1 2/2/1 3/3/1

v 2.72683 5.801 -41.5209
vt 84.6457 1.9685
f 2/2/1 1/1/1 4/4/1

vn -4.80478e-017 -1 2.83193e-016
f 3/3/2 2/2/2 1/1/2

vt 1.9685 57.0866
vn 3.34514e-012 -2.83193e-016 -1
v 2.77683 6.401 -39.4209
vt 9.09495e-013 80.7087
vt 9.09495e-013 57.0866
f 2/5/3 5/6/3 3/7/3

v 2.72683 6.401 -39.4209
vt 1.9685 80.7087
f 5/6/3 2/5/3 6/8/3

vn -3.34514e-012 2.83193e-016 1
f 3/7/4 5/6/4 2/5/4

v 2.77683 6.451 -39.3709
vt 0 82.6772
vn 1 -4.80478e-017 3.34514e-012
f 7/9/5 3/5/5 5/8/5

v 2.77683 5.751 -39.3709
vt 0 55.1181
f 8/10/5 3/5/5 7/9/5

v 2.77683 5.751 -41.5709
vt 86.6142 55.1181
f 8/10/5 9/11/5 3/5/5

v 2.77683 5.751 -40.5209
vt 45.2756 55.1181
f 9/11/5 8/10/5 10/12/5

vn -1 4.80478e-017 -3.34514e-012
f 10/12/6 8/10/6 9/11/6

usemtl Color_F17
vt 45.2756 1.36424e-012
v 2.72683 5.751 -39.3709
vt 0 1.9685
vt 0 0
f 10/13/1 11/14/1 8/15/1

v 2.72683 5.751 -40.5209
vt 45.2756 1.9685
f 11/14/1 10/13/1 12/16/1

usemtl Color_000
f 8/15/2 11/14/2 10/13/2

vt -1.9685 55.1181
v 2.77683 4.911 -39.3709
vt 0 22.0472
f 11/17/4 13/18/4 8/10/4

v 2.72683 4.911 -39.3709
vt -1.9685 22.0472
f 13/18/4 11/17/4 14/19/4

f 8/10/3 13/18/3 11/17/3

v 2.77683 5.04284 -39.3903
vt 0.762775 27.238
f 13/18/5 15/20/5 8/10/5

v 2.77683 4.90784 -39.3903
vt 0.762775 21.923
f 13/18/5 16/21/5 15/20/5

v 2.77683 4.401 -39.4209
f 13/18/5 17/2/5 16/21/5

v 2.77683 4.351 -39.3709
f 18/15/5 17/2/5 13/18/5

v 2.77683 4.401 -40.4709
vt 43.3071 1.9685
f 18/15/5 19/22/5 17/2/5

v 2.77683 4.401 -40.5209
f 18/15/5 20/16/5 19/22/5

v 2.77683 4.351 -40.5209
vt 45.2756 -2.84217e-014
f 20/16/5 18/15/5 21/23/5

f 21/23/6 18/15/6 20/16/6

usemtl Color_F17
v 2.72683 4.351 -40.5209
vt -45.2756 1.9685
vt -45.2756 1.36424e-012
f 18/15/2 22/24/2 21/25/2

v 2.72683 4.351 -39.3709
f 22/24/2 18/15/2 23/14/2

usemtl Color_000
f 23/14/1 18/15/1 22/24/1

vt -1.9685 0
f 18/15/4 14/19/4 23/26/4

f 14/19/4 18/15/4 13/18/4

f 13/18/3 18/15/3 14/19/3

f 13/18/6 17/2/6 18/15/6

f 16/21/6 17/2/6 13/18/6

v 2.77683 4.90784 -39.4093
vt 1.51081 21.923
f 16/21/5 17/2/5 24/27/5

f 24/27/6 17/2/6 16/21/6

v 2.77683 5.701 -39.4209
vt 1.9685 53.1496
f 25/28/5 24/27/5 17/2/5

v 2.77683 5.04284 -39.4093
vt 1.51081 27.238
f 24/27/5 25/28/5 26/29/5

f 17/2/6 24/27/6 25/28/6

f 26/29/6 25/28/6 24/27/6

f 26/29/5 25/28/5 15/20/5

f 15/20/6 25/28/6 26/29/6

f 8/10/5 15/20/5 25/28/5

f 8/10/6 15/20/6 13/18/6

f 25/28/6 15/20/6 8/10/6

f 8/10/5 25/28/5 10/12/5

f 10/12/6 25/28/6 8/10/6

v 2.77683 5.701 -40.4709
vt 43.3071 53.1496
f 27/30/5 10/12/5 25/28/5

v 2.77683 5.701 -40.5209
vt 45.2756 53.1496
f 27/30/5 28/31/5 10/12/5

f 19/22/5 28/31/5 27/30/5

f 28/31/5 19/22/5 20/16/5

f 20/16/6 19/22/6 28/31/6

f 19/22/6 20/16/6 18/15/6

f 17/2/6 19/22/6 18/15/6

vt 43.3071 4.54747e-013
v 2.72683 4.401 -39.4209
f 19/32/1 29/2/1 17/3/1

v 2.72683 4.401 -40.4709
f 29/2/1 19/32/1 30/22/1

f 17/3/2 29/2/2 19/32/2

vt 9.09495e-013 53.1496
vt 9.09495e-013 1.9685
f 29/2/3 25/33/3 17/34/3

v 2.72683 5.701 -39.4209
f 25/33/3 29/2/3 31/28/3

f 17/34/4 25/33/4 29/2/4

f 31/28/4 29/2/4 25/33/4

usemtl Color_F17
v 2.72683 4.90784 -39.4093
f 31/28/5 32/27/5 29/2/5

v 2.72683 5.04284 -39.4093
f 32/27/5 31/28/5 33/29/5

usemtl Color_000
f 29/2/6 32/27/6 31/28/6

usemtl Color_F17
v 2.72683 4.90784 -39.3903
f 34/21/5 29/2/5 32/27/5

vt -3.04162e-031 22.0472
f 14/35/5 29/2/5 34/21/5

vt -3.04162e-031 0
f 23/36/5 29/2/5 14/35/5

f 23/36/5 30/22/5 29/2/5

v 2.72683 4.401 -40.5209
f 23/36/5 35/16/5 30/22/5

f 35/16/5 23/36/5 22/23/5

usemtl Color_000
f 22/23/6 23/36/6 35/16/6

f 30/22/6 35/16/6 23/36/6

usemtl Color_F17
v 2.72683 5.701 -40.5209
f 36/31/5 30/22/5 35/16/5

v 2.72683 5.701 -40.4709
f 30/22/5 36/31/5 37/30/5

usemtl Color_000
f 35/16/6 30/22/6 36/31/6

f 37/30/6 36/31/6 30/22/6

usemtl Color_F17
f 37/30/5 36/31/5 12/12/5

usemtl Color_000
f 12/12/6 36/31/6 37/30/6

usemtl Color_F17
vt -1.36424e-012 53.1496
vt -1.9685 53.1496
f 28/37/4 12/17/4 36/38/4

vt -1.36424e-012 55.1181
f 12/17/4 28/37/4 10/39/4

usemtl Color_000
f 10/39/3 28/37/3 12/17/3

f 10/12/6 28/31/6 27/30/6

v 2.77683 5.701 -41.5209
vt 84.6457 53.1496
f 10/12/5 28/31/5 38/40/5

f 38/40/6 28/31/6 10/12/6

usemtl Color_F17
v 2.72683 5.701 -41.5209
vt -84.6457 1.9685
vt -84.6457 -4.54747e-013
f 28/25/2 39/41/2 38/42/2

f 39/41/2 28/25/2 36/24/2

usemtl Color_000
f 36/24/1 28/25/1 39/41/1

f 36/38/3 12/17/3 28/37/3

f 12/12/5 36/31/5 39/40/5

f 39/40/6 36/31/6 12/12/6

usemtl Translucent_Glass_Blue
v 2.72683 4.401 -41.5209
f 36/31/5 40/4/5 39/40/5

f 40/4/5 36/31/5 35/16/5

f 35/16/6 36/31/6 40/4/6

usemtl Color_000
vt 1.36424e-012 53.1496
f 28/43/3 35/2/3 36/28/3

vt 1.36424e-012 1.9685
f 35/2/3 28/43/3 20/44/3

f 20/44/4 28/43/4 35/2/4

f 36/28/4 35/2/4 28/43/4

usemtl Color_F17
vt 1.9685 -2.84217e-014
f 20/44/3 22/45/3 35/2/3

vt 1.36424e-012 -2.84217e-014
f 22/45/3 20/44/3 21/46/3

usemtl Color_000
f 21/46/4 20/44/4 22/45/4

v 2.77683 4.351 -41.5709
vt 86.6142 5.68434e-014
f 41/47/5 20/16/5 21/23/5

v 2.77683 4.401 -41.5209
f 20/16/5 41/47/5 42/4/5

f 21/23/6 20/16/6 41/47/6

f 42/4/6 41/47/6 20/16/6

v 2.77683 4.90784 -41.5573
vt 86.0777 21.923
f 42/4/5 41/47/5 43/48/5

f 43/48/6 41/47/6 42/4/6

f 43/48/5 41/47/5 9/11/5

f 9/11/6 41/47/6 43/48/6

usemtl Color_F17
v 2.72683 4.351 -41.5709
vt 1.9685 5.68434e-014
vt -4.54747e-013 55.1181
vt -4.54747e-013 5.68434e-014
f 44/49/3 9/50/3 41/51/3

v 2.72683 5.751 -41.5709
vt 1.9685 55.1181
f 9/50/3 44/49/3 45/52/3

usemtl Color_000
f 41/51/4 9/50/4 44/49/4

f 45/52/4 44/49/4 9/50/4

v 2.72683 4.90784 -41.5573
f 46/48/5 44/47/5 45/11/5

f 40/4/5 44/47/5 46/48/5

f 35/16/5 44/47/5 40/4/5

f 44/47/5 35/16/5 22/23/5

f 22/23/6 35/16/6 44/47/6

f 35/2/4 22/45/4 20/44/4

vn 4.80478e-017 1 -3.73432e-016
f 42/1/7 35/16/7 20/13/7

f 35/16/7 42/1/7 40/4/7

vn -4.80478e-017 -1 3.73432e-016
f 20/13/8 35/16/8 42/1/8

f 40/4/8 42/1/8 35/16/8

vt 4.54747e-013 1.9685
vt -1.9685 1.9685
f 42/53/4 39/38/4 40/54/4

vt 4.54747e-013 53.1496
f 39/38/4 42/53/4 38/55/4

f 38/55/3 42/53/3 39/38/3

v 2.77683 4.90784 -41.5383
vt 85.3297 21.923
f 42/4/5 47/56/5 38/40/5

f 47/56/5 42/4/5 43/48/5

f 38/40/6 47/56/6 42/4/6

v 2.77683 5.04284 -41.5383
vt 85.3297 27.238
f 38/40/5 47/56/5 48/57/5

f 48/57/6 47/56/6 38/40/6

usemtl Color_F17
v 2.72683 4.90784 -41.5383
vt 1.9685 21.923
vt -1.31847e-029 27.238
vt -1.31847e-029 21.923
f 49/58/3 48/59/3 47/60/3

v 2.72683 5.04284 -41.5383
vt 1.9685 27.238
f 48/59/3 49/58/3 50/61/3

usemtl Color_000
f 47/60/4 48/59/4 49/58/4

v 2.77683 5.04284 -41.5573
vt 86.0777 27.238
f 47/56/5 51/62/5 48/57/5

f 51/62/5 47/56/5 43/48/5

f 43/48/6 47/56/6 51/62/6

f 43/48/6 42/4/6 47/56/6

usemtl Color_F17
vt 86.0777 0
vt 85.3297 1.9685
vt 85.3297 0
f 43/63/1 49/64/1 47/65/1

vt 86.0777 1.9685
f 49/64/1 43/63/1 46/66/1

usemtl Color_000
f 47/65/2 49/64/2 43/63/2

f 46/66/2 43/63/2 49/64/2

vt -1.33002e-029 27.238
vt -1.33002e-029 21.923
f 46/58/3 51/67/3 43/68/3

v 2.72683 5.04284 -41.5573
f 51/67/3 46/58/3 52/61/3

f 43/68/4 51/67/4 46/58/4

f 43/48/5 9/11/5 51/62/5

f 51/62/6 9/11/6 43/48/6

f 51/62/5 9/11/5 48/57/5

f 48/57/6 9/11/6 51/62/6

f 48/57/5 9/11/5 38/40/5

f 38/40/6 9/11/6 48/57/6

f 38/40/5 9/11/5 10/12/5

f 10/12/6 9/11/6 38/40/6

usemtl Color_F17
vt 86.6142 -4.54747e-013
f 9/69/1 12/16/1 10/13/1

vt 86.6142 1.9685
f 12/16/1 9/69/1 45/70/1

usemtl Color_000
f 10/13/2 12/16/2 9/69/2

f 12/16/2 10/13/2 11/14/2

usemtl Color_F17
vt -3.04162e-031 55.1181
f 45/11/5 11/71/5 12/12/5

f 11/71/5 45/11/5 2/5/5

usemtl Color_000
f 12/12/6 11/71/6 45/11/6

usemtl Color_F17
f 11/71/5 31/28/5 12/12/5

v 2.72683 5.04284 -39.3903
f 11/71/5 53/20/5 31/28/5

f 14/35/5 53/20/5 11/71/5

f 14/35/5 34/21/5 53/20/5

usemtl Color_000
f 34/21/6 29/2/6 14/35/6

f 32/27/6 29/2/6 34/21/6

f 33/29/5 34/21/5 32/27/5

f 34/21/5 33/29/5 53/20/5

f 32/27/6 34/21/6 33/29/6

usemtl Color_F17
vt 0.762775 1.9685
vt 1.51081 4.54747e-013
vt 1.51081 1.9685
f 34/72/1 24/73/1 32/74/1

vt 0.762775 -4.54747e-013
f 24/73/1 34/72/1 16/75/1

usemtl Color_000
f 16/75/2 34/72/2 24/73/2

usemtl Color_F17
vt -4.54747e-013 27.238
vt -4.54747e-013 21.923
f 34/58/3 15/76/3 16/77/3

f 15/76/3 34/58/3 53/61/3

usemtl Color_000
f 16/77/4 15/76/4 34/58/4

f 16/21/5 26/29/5 15/20/5

f 26/29/5 16/21/5 24/27/5

f 24/27/6 16/21/6 26/29/6

f 15/20/6 26/29/6 16/21/6

f 26/73/1 53/72/1 15/75/1

f 53/72/1 26/73/1 33/74/1

f 15/75/2 53/72/2 26/73/2

f 53/61/4 34/58/4 15/76/4

f 53/20/6 33/29/6 34/21/6

f 33/74/2 26/73/2 53/72/2

usemtl Color_F17
vt -1.9685 27.238
f 33/78/4 24/77/4 26/76/4

vt -1.9685 21.923
f 24/77/4 33/78/4 32/79/4

usemtl Color_000
f 26/76/3 24/77/3 33/78/3

f 32/79/3 33/78/3 24/77/3

f 33/29/6 31/28/6 32/27/6

usemtl Color_F17
f 33/29/5 31/28/5 53/20/5

usemtl Color_000
f 53/20/6 31/28/6 33/29/6

f 31/28/6 53/20/6 11/71/6

f 11/71/6 53/20/6 14/35/6

f 53/20/6 34/21/6 14/35/6

f 14/19/3 11/17/3 13/18/3

f 12/12/6 31/28/6 11/71/6

usemtl Color_F17
f 37/30/5 12/12/5 31/28/5

usemtl Color_000
f 31/28/6 12/12/6 37/30/6

usemtl Translucent_Glass_Blue
f 29/2/5 37/30/5 31/28/5

f 37/30/5 29/2/5 30/22/5

f 30/22/6 29/2/6 37/30/6

usemtl Color_000
f 29/2/6 30/22/6 23/36/6

f 30/22/2 19/32/2 29/2/2

vt -4.54747e-013 1.9685
f 19/80/4 37/38/4 30/54/4

vt -4.54747e-013 53.1496
f 37/38/4 19/80/4 27/81/4

f 27/81/3 19/80/3 37/38/3

f 27/30/6 28/31/6 19/22/6

f 30/54/3 37/38/3 19/80/3

usemtl Color_F17
vt -1.9685 9.09495e-013
vt -43.3071 1.9685
vt -43.3071 4.54747e-013
f 25/82/2 37/83/2 27/84/2

f 37/83/2 25/82/2 31/54/2

usemtl Color_000
f 31/54/1 25/82/1 37/83/1

f 27/84/1 37/83/1 25/82/1

f 25/28/6 10/12/6 27/30/6

usemtl Translucent_Glass_Blue
f 31/28/6 37/30/6 29/2/6

usemtl Color_000
f 14/35/6 29/2/6 23/36/6

f 23/26/3 14/19/3 18/15/3

f 32/74/2 24/73/2 34/72/2

f 15/20/6 16/21/6 13/18/6

f 2/5/6 45/11/6 11/71/6

usemtl Color_F17
vt 84.6457 57.0866
f 45/11/5 4/85/5 2/5/5

v 2.72683 6.451 -41.5709
vt 86.6142 82.6772
f 4/85/5 45/11/5 54/86/5

usemtl Color_000
f 2/5/6 4/85/6 45/11/6

f 4/4/2 1/1/2 2/2/2

vt 4.54747e-013 57.0866
v 2.72683 6.401 -41.5209
vt -1.9685 80.7087
vt -1.9685 57.0866
f 1/87/4 55/88/4 4/89/4

v 2.77683 6.401 -41.5209
vt 4.54747e-013 80.7087
f 55/88/4 1/87/4 56/90/4

f 56/90/3 1/87/3 55/88/3

v 2.77683 6.451 -41.5709
vt 84.6457 80.7087
f 1/85/5 57/86/5 56/91/5

f 1/85/5 9/11/5 57/86/5

f 9/11/5 1/85/5 3/5/5

f 3/5/6 1/85/6 9/11/6

f 57/86/6 9/11/6 1/85/6

usemtl Color_F17
vt -4.54747e-013 82.6772
f 45/52/3 57/92/3 9/50/3

vt 1.9685 82.6772
f 57/92/3 45/52/3 54/93/3

usemtl Color_000
f 9/50/4 57/92/4 45/52/4

f 54/93/4 45/52/4 57/92/4

f 54/86/6 45/11/6 4/85/6

usemtl Color_F17
f 4/85/5 54/86/5 55/91/5

usemtl Color_000
f 55/91/6 54/86/6 4/85/6

usemtl Color_F17
f 55/91/5 54/86/5 6/8/5

usemtl Color_000
f 6/8/6 54/86/6 55/91/6

usemtl Color_F17
v 2.72683 6.451 -39.3709
vt -3.04162e-031 82.6772
f 58/94/5 6/8/5 54/86/5

f 58/94/5 2/5/5 6/8/5

f 11/71/5 2/5/5 58/94/5

usemtl Color_000
f 58/94/6 2/5/6 11/71/6

f 6/8/6 2/5/6 58/94/6

f 6/8/4 2/5/4 5/6/4

usemtl Translucent_Glass_Blue
vn 1 -6.05785e-016 3.35027e-012
f 4/85/9 6/8/9 2/5/9

f 6/8/9 4/85/9 55/91/9

vn -1 6.05785e-016 -3.35027e-012
f 2/5/10 6/8/10 4/85/10

f 55/91/10 4/85/10 6/8/10

usemtl Color_000
f 4/89/3 55/88/3 1/87/3

usemtl Color_F17
f 55/41/2 5/82/2 6/54/2

f 5/82/2 55/41/2 56/42/2

usemtl Color_000
f 6/54/1 5/82/1 55/41/1

f 56/42/1 55/41/1 5/82/1

f 56/91/5 57/86/5 5/8/5

f 56/91/6 57/86/6 1/85/6

f 5/8/6 57/86/6 56/91/6

f 7/9/5 5/8/5 57/86/5

f 5/8/6 3/5/6 7/9/6

f 7/9/6 3/5/6 8/10/6

f 3/5/6 9/11/6 8/10/6

vt -1.9685 82.6772
f 58/95/4 8/10/4 7/9/4

f 8/10/4 58/95/4 11/17/4

f 7/9/3 8/10/3 58/95/3

f 11/17/3 58/95/3 8/10/3

f 57/69/1 58/14/1 7/15/1

f 58/14/1 57/69/1 54/70/1

f 7/15/2 58/14/2 57/69/2

f 54/70/2 57/69/2 58/14/2

f 54/86/6 6/8/6 58/94/6

f 57/86/6 5/8/6 7/9/6

f 45/70/2 9/69/2 12/16/2

f 39/40/5 45/11/5 12/12/5

f 50/57/5 45/11/5 39/40/5

f 52/62/5 45/11/5 50/57/5

f 46/48/5 45/11/5 52/62/5

f 45/11/6 44/47/6 46/48/6

f 46/48/6 44/47/6 40/4/6

f 40/4/6 44/47/6 35/16/6

f 49/56/5 40/4/5 46/48/5

f 40/4/5 49/56/5 39/40/5

f 39/40/6 49/56/6 40/4/6

f 39/40/5 49/56/5 50/57/5

f 50/57/6 49/56/6 39/40/6

f 49/56/5 52/62/5 50/57/5

f 52/62/5 49/56/5 46/48/5

f 46/48/6 49/56/6 52/62/6

f 46/48/6 40/4/6 49/56/6

f 50/57/6 52/62/6 49/56/6

f 50/64/1 51/63/1 52/66/1

f 51/63/1 50/64/1 48/65/1

f 48/65/2 50/64/2 51/63/2

f 50/61/4 49/58/4 48/59/4

f 52/66/2 51/63/2 50/64/2

f 52/61/4 46/58/4 51/67/4

f 52/62/6 45/11/6 46/48/6

f 50/57/6 45/11/6 52/62/6

f 39/40/6 45/11/6 50/57/6

f 12/12/6 45/11/6 39/40/6

f 48/57/6 51/62/6 47/56/6

usemtl Translucent_Glass_Blue
f 39/40/6 40/4/6 36/31/6

usemtl Color_000
f 40/54/3 39/38/3 42/53/3

f 38/42/1 39/41/1 28/25/1

usemtl Color_F17
vt -86.6142 1.9685
f 44/96/2 21/25/2 22/24/2

vt -86.6142 -4.54747e-013
f 21/25/2 44/96/2 41/97/2

usemtl Color_000
f 22/24/1 21/25/1 44/96/1

f 21/25/1 22/24/1 18/15/1

f 41/97/1 44/96/1 21/25/1

g Mesh2 ventana1_1 DES035 Model

l 2 4

l 2 3

l 6 2

l 55 6

l 4 55

l 4 1

l 3 1

l 5 3

l 6 5

l 56 5

l 55 56

l 1 56

g Mesh3 ventana1_1 DES035 Model

l 44 41

l 44 45

l 22 44

l 35 22

l 35 20

l 36 35

l 39 36

l 39 38

l 40 39

l 40 42

l 35 40

l 42 38

l 20 42

l 20 21

l 28 20

l 38 28

l 10 28

l 10 8

l 12 10

l 12 11

l 45 12

l 45 54

l 45 9

l 41 9

l 21 41

l 22 21

l 23 22

l 14 23

l 11 14

l 58 11

l 54 58

l 54 57

l 9 57

l 9 10

l 57 7

l 7 8

l 58 7

l 11 8

l 8 13

l 14 13

l 13 18

l 23 18

l 18 21

l 12 36

l 36 28

g Mesh4 ventana1_1 DES035 Model

l 51 43

l 48 51

l 50 48

l 50 52

l 49 50

l 46 49

l 52 46

l 52 51

l 46 43

l 43 47

l 47 48

l 49 47

g Mesh5 ventana1_1 DES035 Model

l 53 33

l 34 53

l 32 34

l 33 32

l 33 26

l 15 26

l 16 15

l 24 16

l 26 24

l 32 24

l 34 16

l 53 15

g Mesh6 ventana1_1 DES035 Model

l 37 30

l 37 31

l 37 27

l 27 19

l 27 25

l 25 17

l 31 25

l 31 29

l 29 30

l 29 17

l 17 19

l 30 19

g Mesh7 DES035 Model

usemtl Color_D03
v 2.77683 3.701 -39.3709
vt -1.96847 9.84252
vn 0.000328946 -5.42711e-016 -1
v 9.73683 6.701 -39.3686
vt -275.984 127.953
v 9.73683 3.701 -39.3686
vt -275.984 9.84252
f 59/98/11 60/99/11 61/100/11

v 2.77683 4.351 -39.3709
vt -1.96847 35.4331
f 60/99/11 59/98/11 62/101/11

usemtl _7
vt -3.17463 0.760201
vn -0.000328946 5.42711e-016 1
vt -3.17463 1.37641
vt -0.902344 0.760201
f 61/102/12 60/103/12 59/104/12

usemtl Color_D03
v 9.73748 6.701 -41.3302
vt -77.3177 127.953
vn -1 2.84708e-016 -0.000328946
vt -0.090784 9.84252
vt -0.090784 127.953
f 63/105/13 61/106/13 60/107/13

v 9.73748 3.701 -41.3302
vt -77.3177 9.84252
f 61/106/13 63/105/13 64/108/13

usemtl _7
vt -12.854 1.37641
vn 1 -2.84708e-016 0.000328946
vt -12.854 0.760201
vt -13.4944 1.37641
f 60/109/14 61/110/14 63/111/14

vt -13.4944 0.760201
f 64/112/14 63/111/14 61/110/14

usemtl _Tile_Ceramic_Natural_14
v 9.73779 3.701 -42.2802
vt 6.90623 29.9859
vn 9.42234e-016 1 -1.23036e-016
vt 6.90555 27.921
vt 6.90601 29.3122
f 65/113/15 61/114/15 64/115/15

v 3.15779 3.701 -42.2824
vt 2.23957 29.9875
f 66/116/15 61/114/15 65/113/15

v 3.15767 3.701 -41.9324
vt 2.23949 29.7393
f 67/117/15 61/114/15 66/116/15

v 2.77767 3.701 -41.9325
vt 1.96998 29.7393
f 68/118/15 61/114/15 67/117/15

v 2.77756 3.701 -41.5709
vt 1.9699 29.4829
f 69/119/15 61/114/15 68/118/15

vt 1.96938 27.9226
f 61/114/15 69/119/15 59/120/15

usemtl _7
vt 0.906573 8.08696
vn -9.42234e-016 -1 1.23036e-016
vt 0.906809 8.53885
vt 3.17885 8.08649
f 59/121/16 69/122/16 61/123/16

usemtl Color_D03
vt 86.705 9.84252
vt 0.090784 35.4331
vt 0.090784 9.84252
f 69/124/14 62/125/14 59/126/14

v 2.77756 4.351 -41.5709
vt 86.705 35.4331
f 62/125/14 69/124/14 70/127/14

usemtl _7
vt 12.854 0.760201
vt 12.854 0.893714
vt 13.5723 0.760201
f 59/128/13 62/129/13 69/130/13

vt -0.902344 0.893714
f 62/131/12 59/104/12 60/103/12

usemtl Color_D03
v 2.77683 6.451 -39.3709
vt -1.96847 118.11
f 60/99/11 62/101/11 71/132/11

usemtl _7
vt -0.902344 1.32506
f 71/133/12 62/131/12 60/103/12

usemtl Color_D03
v 2.77683 6.701 -39.3709
vt -1.96847 127.953
f 60/99/11 71/132/11 72/134/11

usemtl _7
vt -0.902344 1.37641
f 72/135/12 71/133/12 60/103/12

usemtl Color_D03
v 2.77756 6.451 -41.5709
vt 86.705 118.11
vt 0.090784 127.953
vt 0.090784 118.11
f 73/136/14 72/137/14 71/138/14

v 2.77767 6.701 -41.9325
vt 100.939 127.953
f 72/137/14 73/136/14 74/139/14

usemtl _7
vt 12.854 1.32506
vt 12.854 1.37641
vt 13.5723 1.32506
f 71/140/13 72/141/13 73/142/13

vt 13.6903 1.37641
f 74/143/13 73/142/13 72/141/13

usemtl Color_D03
vt 100.939 9.84252
f 74/139/14 73/136/14 68/144/14

usemtl _7
vt 13.6903 0.760201
f 68/145/13 73/142/13 74/143/13

usemtl Color_D03
f 70/127/14 68/144/14 73/136/14

f 70/127/14 69/124/14 68/144/14

usemtl _7
vt 13.5723 0.893714
f 70/146/13 69/130/13 62/129/13

f 68/145/13 69/130/13 70/146/13

vt 0.906848 8.61311
f 68/147/16 61/123/16 69/122/16

vt 1.03091 8.61308
f 67/148/16 61/123/16 68/147/16

vt 1.03095 8.68498
f 66/149/16 61/123/16 67/148/16

vt 3.17917 8.68453
f 65/150/16 61/123/16 66/149/16

vt 3.17907 8.4894
f 64/151/16 61/123/16 65/150/16

usemtl _Tile_Ceramic_Natural_14
v 9.78748 3.701 -41.3302
vt 6.94147 29.3122
f 65/113/15 64/115/15 75/152/15

usemtl _7
vt 3.19539 8.4894
f 75/153/16 64/151/16 65/150/16

usemtl _Tile_Ceramic_Natural_14
v 9.78779 3.701 -42.2802
vt 6.94169 29.9859
f 65/113/15 75/152/15 76/154/15

usemtl _7
vt 3.19549 8.68453
f 76/155/16 75/153/16 65/150/16

usemtl Color_D03
vt 275.984 9.84243
vn -0.000328714 -7.98431e-007 1
v 9.83779 6.701 -42.2802
vt 279.921 127.953
vt 16.9291 9.84243
f 65/156/17 77/157/17 66/158/17

v 9.83779 3.701 -42.2802
vt 279.921 9.84243
f 65/156/17 78/159/17 77/157/17

v 9.78779 3.451 -42.2802
vt 277.953 -9.15954e-005
f 65/156/17 79/160/17 78/159/17

v 9.73779 3.451 -42.2802
vt 275.984 -9.15949e-005
f 79/160/17 65/156/17 80/161/17

usemtl _7
vt 3.17463 0.708843
vn 0.000328714 7.98431e-007 -1
vt 3.17463 0.760194
vt 3.19095 0.708843
f 80/162/18 65/163/18 79/164/18

vt 3.20728 0.760194
f 78/165/18 79/164/18 65/163/18

usemtl Color_D03
v 9.83779 3.451 -42.2802
vt 279.921 -9.15949e-005
f 78/159/17 79/160/17 81/166/17

usemtl _7
vt 3.20728 0.708843
f 81/167/18 79/164/18 78/165/18

vt 3.20728 1.37641
f 77/168/18 78/165/18 65/163/18

vt 1.02641 0.760194
f 66/169/18 77/168/18 65/163/18

usemtl Color_D03
v 3.15779 6.701 -42.2824
vt 16.9291 127.953
f 66/158/17 77/157/17 82/170/17

usemtl _7
vt 1.02641 1.37641
f 82/171/18 77/168/18 66/169/18

usemtl Color_D03
vt 114.719 127.953
vt 114.719 9.84252
f 82/172/14 67/144/14 66/173/14

v 3.15767 6.701 -41.9324
f 67/144/14 82/172/14 83/139/14

usemtl _7
vt 13.8046 1.37641
f 83/143/13 82/174/13 67/145/13

vt 13.8046 0.760201
f 66/175/13 67/145/13 82/174/13

usemtl Color_D03
vt 1.96847 9.84252
vt 16.9291 9.84252
f 83/170/12 68/176/12 67/177/12

vt 1.96847 127.953
f 68/176/12 83/170/12 74/178/12

usemtl _7
vt 1.02641 0.760201
vt 0.902344 0.760201
f 67/179/11 68/180/11 83/171/11

vt 0.902344 1.37641
f 74/181/11 83/171/11 68/180/11

f 73/142/13 68/145/13 70/146/13

g Mesh8 DES035 Model

l 61 60

l 59 61

l 59 62

l 69 59

l 69 68

l 68 74

l 67 68

l 67 83

l 66 67

l 66 82

l 65 66

l 65 76

l 80 65

l 79 80

l 81 79

l 81 78

l 78 77

l 77 82

l 82 83

l 83 74

l 72 74

l 71 72

l 62 71

l 70 62

l 70 73

l 73 71

l 72 60

l 63 60

l 64 63

l 64 61

l 75 64

l 75 76

