# Alias OBJ Model File
# Exported from SketchUp, (c) 2000-2012 Trimble Navigation Limited
# File units = meters

mtllib DES010.mtl

g Mesh1 DES010 Model

usemtl Color_D03
v 23.9319 3.701 -24.234
vt -3.89707 1.02262e-012
vn 0.000328946 6.64153e-015 -1
v 29.0019 3.701 -24.2323
vt -203.503 8.47001e-014
v 28.8719 3.701 -24.2323
vt -198.385 8.47001e-014
f 1/1/1 2/2/1 3/3/1

v 30.4019 3.701 -24.2318
vt -258.621 9.65773e-013
f 2/2/1 1/1/1 4/4/1

usemtl _7
vt -9.4234 0.760201
vn -0.000328946 -6.64153e-015 1
vt -9.46584 0.760201
vt -7.8106 0.760201
f 3/5/2 2/6/2 1/7/2

usemtl _Tile_Ceramic_Natural_14
v 30.8029 3.701 -27.3133
vt 21.846 19.3711
vn 2.84887e-016 1 -5.42617e-016
vt 20.4765 17.1861
vt 20.5687 17.186
f 5/8/3 3/9/3 2/10/3

v 23.9329 3.701 -27.3155
vt 16.9737 19.3727
f 6/11/3 3/9/3 5/8/3

v 23.9329 3.701 -27.2755
vt 16.9737 19.3443
f 7/12/3 3/9/3 6/11/3

v 23.9328 3.701 -27.2405
vt 16.9736 19.3195
f 8/13/3 3/9/3 7/12/3

v 23.9326 3.701 -26.4055
vt 16.9735 18.7273
f 9/14/3 3/9/3 8/13/3

v 23.9326 3.701 -26.3655
vt 16.9734 18.699
f 10/15/3 3/9/3 9/14/3

vt 16.9729 17.1872
f 3/9/3 10/15/3 1/16/3

usemtl _7
vt 7.81321 4.97776
vn -2.84887e-016 -1 5.42617e-016
vt 7.81344 5.41559
vt 9.42601 4.97743
f 1/17/4 10/18/4 3/19/4

usemtl Color_D03
vt 84.0049 1.7164e-013
vn 1 -2.84708e-016 0.000328946
v 23.9319 6.701 -24.234
vt 0.0850726 118.11
vt 0.0850726 1.02429e-012
f 10/20/5 11/21/5 1/22/5

v 23.9326 6.701 -26.3655
vt 84.0049 118.11
f 11/21/5 10/20/5 12/23/5

usemtl _7
vt 7.91441 0.760201
vn -1 2.84708e-016 -0.000328946
vt 7.91441 1.37641
vt 8.61032 0.760201
f 1/24/6 11/25/6 10/26/6

usemtl Color_D03
v 30.4019 6.701 -24.2318
vt -258.621 118.11
vt -3.89707 118.11
f 13/27/1 1/1/1 11/28/1

f 4/4/1 1/1/1 13/27/1

usemtl _7
vt -9.92291 0.760201
f 4/29/2 1/7/2 2/6/2

vt -9.92291 1.37641
f 13/30/2 1/7/2 4/29/2

vt -7.8106 1.37641
f 11/31/2 1/7/2 13/30/2

usemtl Color_D03
v 30.402 6.701 -24.6118
vt -15.0457 118.11
vt -0.0850726 1.03997e-012
vt -0.0850726 118.11
f 14/32/6 4/33/6 13/34/6

v 30.402 3.701 -24.6118
vt -15.0457 1.58897e-013
f 4/33/6 14/32/6 15/35/6

usemtl _7
vt -7.91441 1.37641
vt -7.91441 0.760201
vt -8.03847 1.37641
f 13/36/5 4/37/5 14/38/5

vt -8.03847 0.760201
f 15/39/5 14/38/5 4/37/5

usemtl Color_D03
vn 0.000328946 -5.42711e-016 -1
v 30.802 3.701 -24.6117
vt -274.37 1.21852e-013
vt -258.621 9.34306e-014
f 14/27/7 16/40/7 15/41/7

v 30.802 6.701 -24.6117
vt -274.37 118.11
f 16/40/7 14/27/7 17/42/7

usemtl _7
vn -0.000328946 5.42711e-016 1
vt -10.0535 0.760201
f 15/29/8 16/43/8 14/30/8

usemtl _Tile_Ceramic_Natural_14
vt 21.5617 17.4552
vt 21.8454 17.4551
f 5/8/3 15/44/3 16/45/3

f 5/8/3 2/10/3 15/44/3

usemtl _7
vt 9.46845 4.97742
vt 10.0564 5.61026
f 2/46/4 3/19/4 5/47/4

vt 7.81354 5.61072
f 5/47/4 3/19/4 6/48/4

vt 7.81353 5.60251
f 6/48/4 3/19/4 7/49/4

vt 7.81353 5.59532
f 7/49/4 3/19/4 8/50/4

vt 7.81344 5.42381
f 8/50/4 3/19/4 9/51/4

f 9/51/4 3/19/4 10/18/4

usemtl Color_D03
v 30.8029 6.701 -27.3133
vt 274.37 118.11
vn -0.000328946 1.80953e-014 1
vt 3.89707 2.31056e-012
vt 274.37 2.19687e-012
f 18/52/9 6/53/9 5/54/9

v 23.8829 3.701 -27.3155
vt 1.92857 2.31056e-012
f 6/53/9 18/52/9 19/55/9

usemtl _7
vt 10.0535 0.760201
vn 0.000328946 -1.80953e-014 -1
vt 7.8106 0.760201
vt 10.0535 1.37641
f 5/56/10 6/57/10 18/58/10

vt 7.79428 0.760201
f 19/59/10 18/58/10 6/57/10

usemtl Color_D03
v 23.8329 3.701 -27.3155
vt -0.039936 2.33898e-012
f 19/55/9 18/52/9 20/60/9

usemtl _7
vt 7.77796 0.760201
f 20/61/10 18/58/10 19/59/10

usemtl Color_D03
v 23.8329 6.701 -27.3155
vt -0.039936 118.11
f 20/60/9 18/52/9 21/62/9

usemtl _7
vt 7.77796 1.37641
f 21/63/10 18/58/10 20/61/10

usemtl Color_D03
v 30.8028 3.701 -27.0917
vt -112.683 -8.64751e-015
vn -1 -1.35107e-016 -0.000328946
vt -121.406 118.11
vt -121.406 -3.70692e-014
f 22/64/11 18/65/11 5/66/11

v 30.8028 4.351 -27.0917
vt -112.683 25.5906
f 23/67/11 18/65/11 22/64/11

v 30.8028 6.451 -27.0917
vt -112.683 108.268
f 24/68/11 18/65/11 23/67/11

v 30.8021 6.451 -24.8917
vt -26.0693 108.268
f 25/69/11 18/65/11 24/68/11

f 25/69/11 17/32/11 18/65/11

vt -15.0457 7.66176e-014
f 17/32/11 25/69/11 16/70/11

usemtl _7
vn 1 1.35107e-016 0.000328946
vt -8.12989 1.32506
f 16/39/12 25/71/12 17/38/12

usemtl Color_D03
v 30.8021 3.701 -24.8917
vt -26.0693 1.97742e-014
f 25/69/11 26/72/11 16/70/11

v 30.8021 4.351 -24.8917
vt -26.0693 25.5906
f 26/72/11 25/69/11 27/73/11

usemtl _7
vt -8.12989 0.760201
f 16/39/12 26/74/12 25/71/12

usemtl _Tile_Ceramic_Natural_14
vt 21.8454 17.6537
f 5/8/3 16/45/3 26/75/3

usemtl _7
vt 10.0561 5.05535
vt 9.92556 5.05538
f 16/76/4 15/77/4 5/47/4

f 15/77/4 2/46/4 5/47/4

usemtl _Tile_Ceramic_Natural_14
vt 21.5616 17.1857
f 15/44/3 2/10/3 4/78/3

usemtl _7
vt 9.92552 4.97732
f 4/79/4 2/46/4 15/77/4

vt 10.0562 5.11286
f 26/80/4 16/76/4 5/47/4

usemtl _Tile_Ceramic_Natural_14
vt 21.846 19.214
f 5/8/3 26/75/3 22/81/3

usemtl _7
vt 10.0564 5.56475
f 22/82/4 26/80/4 5/47/4

usemtl Color_D03
f 26/72/11 23/67/11 22/64/11

f 26/72/11 27/73/11 23/67/11

usemtl _7
vt -8.12989 0.893714
f 27/83/12 25/71/12 26/74/12

vt -8.84814 0.893714
f 23/84/12 27/83/12 26/74/12

vt -8.84814 0.760201
f 22/85/12 23/84/12 26/74/12

vt -8.92047 1.37641
f 22/85/12 18/86/12 23/84/12

vt -8.92047 0.760201
f 5/87/12 18/86/12 22/85/12

vt -8.84814 1.32506
f 23/84/12 18/86/12 24/88/12

f 24/88/12 18/86/12 25/71/12

f 18/86/12 17/38/12 25/71/12

vt -10.0535 1.37641
f 17/89/8 14/30/8 16/43/8

vt 8.61032 1.37641
f 12/90/6 10/26/6 11/25/6

g Mesh2 DES010 Model

l 5 18

l 22 5

l 26 22

l 16 26

l 16 17

l 15 16

l 15 14

l 4 15

l 4 13

l 2 4

l 2 3

l 3 1

l 1 11

l 10 1

l 10 12

l 10 9

l 9 8

l 8 7

l 7 6

l 6 5

l 6 19

l 20 19

l 20 21

l 21 18

l 17 18

l 14 17

l 13 14

l 11 13

l 12 11

g Mesh3 DES010 Model

l 24 25

l 23 24

l 27 23

l 27 25

