# Alias OBJ Model File
# Exported from SketchUp, (c) 2000-2012 Trimble Navigation Limited
# File units = meters

mtllib DES027.mtl

g Mesh1 DES027 Model

usemtl Color_D03
v 18.0865 3.701 -74.1759
vt 279.528 9.84252
vn 1 3.64592e-013 0.000328946
v 18.0861 4.351 -73.1959
vt 240.945 35.4331
v 18.0861 3.701 -73.1959
vt 240.945 9.84252
f 1/1/1 2/2/1 3/3/1

v 18.0865 4.351 -74.1759
vt 279.528 35.4331
f 2/2/1 1/1/1 4/4/1

usemtl _7
vt 23.8987 0.760201
vn -1 -3.64592e-013 -0.000328946
vt 23.8987 0.893714
vt 24.2187 0.760201
f 3/5/2 2/6/2 1/7/2

usemtl Color_D03
vt 48.0941 35.4331
vn -0.000328946 3.73138e-013 1
v 16.8645 3.701 -73.1963
vt -5.25994e-011 9.84252
vt 48.0941 9.84252
f 2/8/3 5/9/3 3/10/3

v 16.8645 4.351 -73.1963
vt -5.60094e-011 35.4331
f 5/9/3 2/8/3 6/11/3

usemtl _7
vt 5.89685 0.760201
vn 0.000328946 -3.73138e-013 -1
vt 5.49803 0.760201
vt 5.89685 0.893714
f 3/12/4 5/13/4 2/14/4

usemtl _Tile_Ceramic_Natural_14
vt 11.9607 51.9123
vn 2.42615e-014 1 1.04692e-012
v 19.9803 3.701 -67.1518
vt 14.1704 47.6254
vt 12.827 51.912
f 5/15/5 7/16/5 3/17/5

v 16.8645 3.701 -73.1663
vt 11.9607 51.891
f 8/18/5 7/16/5 5/15/5

v 16.8626 3.701 -67.1563
vt 11.9593 47.6286
f 9/19/5 7/16/5 8/18/5

v 16.8625 3.701 -67.1518
vt 11.9592 47.6254
f 7/16/5 9/19/5 10/20/5

usemtl _7
vt 5.50524 13.7933
vn -2.42615e-014 -1 -1.04692e-012
vt 5.50524 13.7942
vt 6.5231 13.7933
f 10/21/6 9/22/6 7/23/6

usemtl Color_D03
v 16.8647 6.701 -73.5163
vt 253.543 127.953
vn 1 2.16943e-006 0.000331575
vt 2.97408 9.84252
vt 3.14961 9.84252
f 11/24/7 10/25/7 9/26/7

v 16.8625 6.701 -67.1518
vt 2.97408 127.953
f 10/25/7 11/24/7 12/27/7

vn -1 -2.16943e-006 -0.000331575
f 12/27/8 11/24/8 10/25/8

f 9/26/8 10/25/8 11/24/8

f 11/24/7 9/26/7 6/2/7

f 6/2/8 9/26/8 11/24/8

vt 239.764 9.84252
f 6/2/7 9/26/7 8/28/7

f 8/28/8 9/26/8 6/2/8

usemtl _7
vt 5.50589 15.0287
f 8/29/6 7/23/6 9/22/6

vt 5.50589 15.0348
f 5/30/6 7/23/6 8/29/6

vt 5.90471 15.0347
f 3/31/6 7/23/6 5/30/6

usemtl _Tile_Ceramic_Natural_14
vt 12.8273 52.607
f 3/17/5 7/16/5 1/32/5

usemtl _7
vt 5.90482 15.236
f 1/33/6 7/23/6 3/31/6

usemtl _Tile_Ceramic_Natural_14
v 20.583 3.701 -73.4451
vt 14.5979 52.0887
f 1/32/5 7/16/5 13/34/5

usemtl _7
vt 6.7199 15.0859
f 13/35/6 7/23/6 1/33/6

usemtl _Tile_Ceramic_Natural_14
v 20.5828 3.701 -72.5651
vt 14.5977 51.4646
f 13/34/5 7/16/5 14/36/5

usemtl _7
vt 6.7198 14.9052
f 14/37/6 7/23/6 13/35/6

usemtl _Tile_Ceramic_Natural_14
v 20.7273 3.701 -67.0763
vt 14.7002 47.5718
f 7/16/5 15/38/5 14/36/5

v 19.9803 3.701 -67.0763
vt 14.1704 47.5718
f 15/38/5 7/16/5 16/39/5

usemtl _7
vt 6.5231 13.7778
vt 6.76701 13.7778
f 16/40/6 7/23/6 15/41/6

usemtl Color_D03
v 19.9803 5.71353 -67.1518
vt 2.97408 89.076
vn 1 0 -0
vt 3.18323e-011 9.84252
f 17/42/9 16/43/9 7/25/9

v 19.9803 5.71353 -67.0763
vt 3.63798e-012 89.076
f 16/43/9 17/42/9 18/44/9

vn -1 -0 0
f 18/44/10 17/42/10 16/43/10

usemtl FrontColor
v 20.7273 5.71353 -67.1518
vt -152.158 2.97408
vn 0 -1 -0
vt -122.745 3.63798e-012
vt -122.745 2.97408
f 19/45/11 18/46/11 17/47/11

v 20.7273 5.71353 -67.0763
vt -152.158 0
f 18/46/11 19/45/11 20/48/11

usemtl Color_D03
vn -0 1 0
f 17/47/12 18/46/12 19/45/12

f 20/48/12 19/45/12 18/46/12

vt -2.97408 89.076
vn -1 0 -0
vt -3.91083e-011 9.84252
vt 0 89.076
f 19/49/13 15/50/13 20/51/13

v 20.7273 3.701 -67.1518
vt -2.97408 9.84252
f 15/50/13 19/49/13 21/52/13

usemtl BackColor
vn 1 -0 0
f 20/51/14 15/50/14 19/49/14

f 21/52/14 19/49/14 15/50/14

usemtl Color_D03
vt -152.158 89.076
vn -1.07902e-013 4.85739e-013 -1
v 20.7785 3.701 -67.1518
vt -154.171 9.84252
vt -152.158 9.84252
f 19/53/15 22/54/15 21/55/15

v 20.7785 6.701 -67.1518
vt -154.171 127.953
f 22/54/15 19/53/15 23/56/15

vn 1.07902e-013 -4.85739e-013 1
f 21/55/16 22/54/16 19/53/16

usemtl _Tile_Ceramic_Natural_14
v 20.7803 3.701 -72.565
vt 14.7378 51.4645
vt 14.7002 47.6254
vt 14.7365 47.6254
f 24/57/5 21/58/5 22/59/5

f 14/36/5 21/58/5 24/57/5

f 14/36/5 15/38/5 21/58/5

usemtl _7
f 14/37/6 15/41/6 7/23/6

vt 6.76701 13.7933
f 21/60/6 15/41/6 14/37/6

vt 6.78428 14.9052
f 24/61/6 21/60/6 14/37/6

vt 6.7837 13.7933
f 22/62/6 21/60/6 24/61/6

usemtl Color_D03
vt -3.02479 9.84252
vn -1 6.94933e-015 -0.000328946
v 20.7803 6.701 -72.565
vt -216.142 127.953
vt -216.142 9.84252
f 22/63/17 25/64/17 24/65/17

vt -3.02479 127.953
f 25/64/17 22/63/17 23/66/17

vn 1 -6.94933e-015 0.000328946
f 23/66/18 22/63/18 25/64/18

f 23/56/16 19/53/16 22/54/16

vt -1.11672e-012 127.953
f 23/56/15 19/53/15 12/67/15

f 12/67/16 19/53/16 23/56/16

vt -122.745 89.076
f 17/68/15 12/67/15 19/53/15

vt -122.745 9.84252
f 7/69/15 12/67/15 17/68/15

vt -3.20909e-013 9.84252
f 12/67/15 7/69/15 10/70/15

f 10/70/16 7/69/16 12/67/16

f 17/68/16 12/67/16 7/69/16

f 19/53/16 12/67/16 17/68/16

f 7/25/10 16/43/10 17/42/10

f 24/65/18 25/64/18 22/63/18

vt 154.17 127.953
vn -0.000328946 -3.33041e-013 1
vt 146.394 9.84252
vt 154.17 9.84252
f 25/71/19 14/72/19 24/73/19

v 20.5828 6.701 -72.5651
vt 146.394 127.953
f 14/72/19 25/71/19 26/74/19

usemtl _7
vt 6.77649 0.760201
vn 0.000328946 3.33041e-013 -1
vt 6.71201 0.760201
vt 6.77649 1.37641
f 24/75/20 14/76/20 25/77/20

vt 6.71201 1.37641
f 26/78/20 25/77/20 14/76/20

usemtl Color_D03
v 20.583 6.701 -73.4451
vt -250.787 127.953
vn -1 -3.03257e-014 -0.000328946
f 27/79/21 14/65/21 26/64/21

v 20.5829 3.701 -73.1651
vt -239.764 9.84252
f 14/65/21 27/79/21 28/80/21

usemtl _7
vt -23.6931 1.37641
vn 1 3.03257e-014 0.000328946
vt -23.6931 0.760201
vt -23.9804 1.37641
f 26/81/22 14/82/22 27/83/22

vt -23.8889 0.760201
f 28/84/22 27/83/22 14/82/22

usemtl Color_D03
vt -250.787 9.84252
f 28/80/21 27/79/21 13/85/21

usemtl _7
vt -23.9804 0.760201
f 13/86/22 27/83/22 28/84/22

usemtl Color_D03
v 20.803 6.701 -73.445
vt -155.056 127.953
vn 0.000328946 -2.69518e-013 -1
vt -146.394 9.84252
vt -146.394 127.953
f 29/87/23 13/88/23 27/89/23

v 20.803 3.701 -73.445
vt -155.056 9.84252
f 13/88/23 29/87/23 30/90/23

usemtl _7
vt -6.78383 0.760201
vn -0.000328946 2.69518e-013 1
vt -6.78383 1.37641
vt -6.71201 0.760201
f 30/91/24 29/92/24 13/93/24

usemtl Color_D03
vn -1 3.64439e-014 -0.000328946
v 20.8033 3.701 -74.175
vt -279.528 9.84252
f 29/79/25 31/94/25 30/85/25

v 20.8033 6.701 -74.175
vt -279.528 127.953
f 31/94/25 29/79/25 32/95/25

usemtl _7
vn 1 -3.64439e-014 0.000328946
vt -24.2187 0.760201
f 30/86/26 31/96/26 29/83/26

usemtl _Tile_Ceramic_Natural_14
vt 14.7541 52.6064
vt 14.7539 52.0887
f 31/97/5 13/34/5 30/98/5

f 1/32/5 13/34/5 31/97/5

usemtl _7
vt 6.7918 15.2359
f 31/99/6 13/35/6 1/33/6

vt 6.79172 15.0859
f 30/100/6 13/35/6 31/99/6

usemtl Color_D03
vt 155.056 127.953
vn -0.000328946 2.84595e-013 1
vt 155.056 9.84252
f 32/101/27 1/10/27 31/102/27

f 1/10/27 32/101/27 4/8/27

usemtl _7
vt 6.78383 0.760201
vn 0.000328946 -2.84595e-013 -1
vt 6.78383 1.37641
f 31/103/28 1/12/28 32/104/28

f 4/14/28 32/104/28 1/12/28

usemtl Color_D03
v 17.8065 6.701 -74.176
vt 37.0705 127.953
f 33/105/27 4/8/27 32/101/27

v 17.8065 4.351 -74.176
vt 37.0705 35.4331
f 34/106/27 4/8/27 33/105/27

v 17.9065 4.351 -74.176
vt 41.0075 35.4331
f 4/8/27 34/106/27 35/107/27

usemtl _7
vt 5.83809 0.893714
vt 5.80544 0.893714
f 35/108/28 34/109/28 4/14/28

usemtl Color_D03
vt 37.1624 279.515
vn 3.13411e-015 1 1.79203e-014
vt 48.1734 240.929
vt 41.0994 279.514
f 34/110/29 2/111/29 35/112/29

v 17.8063 4.351 -73.566
vt 37.1545 255.5
f 36/113/29 2/111/29 34/110/29

v 16.8647 4.351 -73.5163
vt 0.0834021 253.543
f 37/114/29 2/111/29 36/113/29

v 16.8646 4.351 -73.4663
vt 0.0827546 251.575
f 38/115/29 2/111/29 37/114/29

vt 0.0792579 240.945
f 2/111/29 38/115/29 6/116/29

usemtl _7
vn -3.13411e-015 -1 -1.79203e-014
vt 5.50592 15.0903
f 6/30/30 38/117/30 2/31/30

usemtl Color_D03
vt 251.575 35.4331
f 11/24/7 6/2/7 38/118/7

f 38/118/8 6/2/8 11/24/8

usemtl FrontColor
vn 9.792e-011 1 -3.96559e-014
v 16.8645 4.351 -73.5163
vt 0.0792579 253.543
f 38/115/31 39/119/31 6/116/31

f 39/119/31 38/115/31 37/114/31

usemtl BackColor
vn -9.792e-011 -1 3.96559e-014
f 6/116/32 39/119/32 38/115/32

f 37/114/32 38/115/32 39/119/32

usemtl Color_D03
vt 253.543 35.4331
f 11/24/7 38/118/7 37/120/7

f 37/120/8 38/118/8 11/24/8

usemtl _7
vt 5.50593 15.1006
f 37/121/30 2/31/30 38/117/30

vt 5.81334 15.1108
f 36/122/30 2/31/30 37/121/30

vt 5.81341 15.2361
f 34/123/30 2/31/30 36/122/30

vt 5.84605 15.2361
f 35/124/30 2/31/30 34/123/30

usemtl Color_D03
vt 48.186 279.512
f 35/112/29 2/111/29 4/125/29

usemtl _7
f 4/33/30 2/31/30 35/124/30

vt 24.2187 0.893714
f 4/126/2 1/7/2 2/6/2

usemtl Color_D03
v 16.8645 4.351 -73.5663
vt 0.0792579 255.512
f 40/127/29 37/114/29 36/113/29

f 37/114/29 40/127/29 39/119/29

usemtl _7
vt 5.50589 15.1006
vt 5.50589 15.1108
f 39/128/30 40/129/30 37/121/30

f 36/122/30 37/121/30 40/129/30

vt 5.49803 0.893714
f 6/130/4 2/14/4 5/13/4

usemtl Color_D03
f 5/3/7 6/2/7 8/28/7

f 8/28/8 6/2/8 5/3/8

usemtl _7
vt 5.80544 1.37641
f 33/131/28 4/14/28 34/109/28

f 32/104/28 4/14/28 33/131/28

vt -24.2187 1.37641
f 32/132/26 29/83/26 31/96/26

vt -6.71201 1.37641
f 27/133/24 13/93/24 29/92/24

usemtl _Tile_Ceramic_Natural_14
vt 14.5978 51.8901
f 13/34/5 14/36/5 28/134/5

usemtl _7
vt 6.71987 15.0284
f 28/135/6 14/37/6 13/35/6

v 18.0861 3.451 -73.1959
vt 23.8987 0.70885
vn 1 -1.39761e-013 0.000328946
f 41/136/33 1/7/33 3/5/33

v 18.0863 3.451 -73.5671
vt 24.0199 0.70885
f 1/7/33 41/136/33 42/137/33

vn -1 1.39761e-013 -0.000328946
f 3/5/34 1/7/34 41/136/34

f 42/137/34 41/136/34 1/7/34

v 18.0863 3.451 -73.5709
vt 24.0212 0.70885
f 1/7/33 42/137/33 43/138/33

f 43/138/34 42/137/34 1/7/34

v 18.0865 3.451 -74.1759
vt 24.2187 0.70885
f 1/7/33 43/138/33 44/139/33

f 44/139/34 43/138/34 1/7/34

g Mesh2 DES027 Model

l 14 26

l 24 14

l 24 25

l 22 24

l 22 21

l 22 23

l 23 25

l 23 12

l 10 12

l 7 10

l 16 7

l 16 15

l 16 18

l 20 18

l 19 20

l 21 19

l 15 21

l 20 15

l 17 19

l 18 17

l 7 17

l 10 9

l 9 8

l 8 5

l 5 6

l 3 5

l 3 2

l 3 1

l 41 3

l 41 42

l 42 43

l 43 44

l 44 1

l 1 4

l 31 1

l 31 32

l 30 31

l 13 30

l 28 13

l 28 14

l 13 27

l 29 27

l 30 29

l 29 32

l 33 32

l 34 33

l 34 35

l 36 34

l 40 36

l 39 40

l 6 39

l 6 2

l 38 6

l 37 38

l 37 11

l 11 12

l 2 4

l 35 4

l 26 27

l 25 26

