# Alias OBJ Model File
# Exported from SketchUp, (c) 2000-2012 Trimble Navigation Limited
# File units = meters

mtllib DES042.mtl

g Mesh1 ventana2_1 DES042 Model

usemtl Color_000
v 4.51762 5.02261 -11.3754
vt 1.37598 26.4413
vn -1 2.84708e-016 -0.000328946
v 4.51763 4.90361 -11.3964
vt 0.549204 21.7563
v 4.51762 4.90361 -11.3754
vt 1.37598 21.7563
f 1/1/1 2/2/1 3/3/1

v 4.51763 5.02261 -11.3964
vt 0.549204 26.4413
f 2/2/1 1/1/1 4/4/1

usemtl _7
vt 0.0114103 0.113509
vn 1 -2.84708e-016 0.000328946
vt 0.00455428 0.113509
vt 0.0114103 0.137952
f 3/5/2 2/6/2 1/7/2

usemtl Color_000
v 4.51763 4.901 -11.4104
vt 0 21.6535
f 2/2/1 5/8/1 3/3/1

v 4.51763 5.751 -11.4104
vt 1.31747e-044 55.1181
f 5/8/1 2/2/1 6/9/1

usemtl _7
vt 1.09251e-046 0.287566
vt 0 0.112972
f 6/10/2 2/6/2 5/11/2

usemtl Color_000
f 6/9/1 2/2/1 4/4/1

usemtl _7
vt 0.00455428 0.137952
f 4/12/2 2/6/2 6/10/2

f 4/12/2 1/7/2 2/6/2

usemtl Color_000
v 4.51762 5.701 -11.3604
vt 1.9685 53.1496
f 1/1/1 7/13/1 4/4/1

f 3/3/1 7/13/1 1/1/1

v 4.51762 4.401 -11.3604
vt 1.9685 1.9685
f 3/3/1 8/14/1 7/13/1

f 5/8/1 8/14/1 3/3/1

v 4.51763 4.351 -11.4104
vt 0 0
f 9/15/1 8/14/1 5/8/1

v 4.51726 4.351 -10.2604
vt 45.2756 2.84217e-014
f 8/14/1 9/15/1 10/16/1

usemtl _7
vt 0.0163239 0.0102702
f 5/11/2 8/17/2 9/15/2

f 3/5/2 8/17/2 5/11/2

vt 0.0163239 0.277296
f 7/18/2 8/17/2 3/5/2

usemtl M_0128_White
v 4.56762 4.401 -11.3603
vn -0.000328946 5.42711e-016 1
vt 5.11591e-013 53.1496
vt 5.11591e-013 1.9685
f 11/14/3 7/19/3 8/20/3

v 4.56762 5.701 -11.3603
f 7/19/3 11/14/3 12/13/3

usemtl _7
vt 4.24238e-015 0.0102702
vn 0.000328946 -5.42711e-016 -1
vt 4.24238e-015 0.277296
f 8/21/4 7/22/4 11/17/4

f 12/18/4 11/17/4 7/22/4

v 4.56763 5.751 -11.4103
vt 7.54201e-015 0.287566
f 13/23/1 11/17/1 12/18/1

v 4.56763 4.351 -11.4103
vt 7.54201e-015 0
f 14/24/1 11/17/1 13/23/1

v 4.56726 4.351 -10.2603
vt 0.375449 1.48284e-016
f 11/17/1 14/24/1 15/25/1

usemtl M_0128_White
vt 9.09495e-013 55.1181
vt 9.09495e-013 0
f 13/26/2 11/14/2 14/27/2

f 12/13/2 11/14/2 13/26/2

usemtl Translucent_Glass_Blue
v 4.56727 4.401 -10.3103
vt 43.3071 1.9685
vn -1 3.83492e-015 -0.000328946
f 16/28/5 12/13/5 11/14/5

v 4.56727 5.701 -10.3103
vt 43.3071 53.1496
f 12/13/5 16/28/5 17/29/5

vn 1 -3.83492e-015 0.000328946
f 11/14/6 12/13/6 16/28/6

f 17/29/6 16/28/6 12/13/6

usemtl _7
vt 0.359125 0.0102702
v 4.56726 5.701 -10.2603
vt 0.375449 0.277296
vt 0.359125 0.277296
f 16/30/1 18/31/1 17/32/1

v 4.56726 4.401 -10.2603
vt 0.375449 0.0102702
f 16/30/1 19/33/1 18/31/1

f 11/17/1 19/33/1 16/30/1

f 19/33/1 11/17/1 15/25/1

usemtl M_0128_White
vt 45.2756 1.9685
f 15/16/2 11/14/2 19/34/2

f 15/16/2 14/27/2 11/14/2

usemtl _7
vt -0.375449 2.66911e-015
vn -2.84887e-016 -1 5.42617e-016
vt -7.54201e-015 0.0102702
vt -0.375449 0.0102702
f 10/35/7 14/36/7 15/37/7

f 14/36/7 10/35/7 9/15/7

vn 2.84887e-016 1 -5.42617e-016
f 9/15/8 10/35/8 14/36/8

f 10/25/2 9/15/2 8/17/2

usemtl Color_000
v 4.51726 4.401 -10.2604
f 20/34/1 8/14/1 10/16/1

v 4.51727 4.401 -10.3104
f 8/14/1 20/34/1 21/28/1

usemtl _7
f 10/25/2 8/17/2 20/33/2

f 21/30/2 20/33/2 8/17/2

usemtl Color_000
v 4.51726 5.701 -10.2604
vt 45.2756 53.1496
f 21/28/1 20/34/1 22/38/1

usemtl _7
f 22/31/2 20/33/2 21/30/2

usemtl M_0128_White
vt 5.68434e-014 53.1496
f 20/20/3 18/13/3 22/39/3

f 18/13/3 20/20/3 19/14/3

usemtl _7
vt 4.71375e-016 0.277296
f 22/40/4 18/18/4 20/21/4

usemtl M_0128_White
vt -45.2756 1.9685
v 4.51693 5.701 -9.26035
vt -84.6457 5.68434e-014
vt -45.2756 5.68434e-014
f 18/41/7 23/42/7 22/43/7

v 4.56697 5.701 -9.37934
vt -79.9606 1.9685
f 23/42/7 18/41/7 24/44/7

usemtl _7
vt -0.375449 2.96567e-016
vt -0.701926 2.96567e-016
f 22/45/8 23/46/8 18/37/8

usemtl Color_000
v 4.51726 5.751 -10.2604
vt 45.2756 55.1181
vt 84.6457 53.1496
f 25/47/1 22/38/1 23/48/1

usemtl _7
v 4.56726 5.751 -10.2603
vt -0.0163239 0.287566
vt -4.71375e-016 0.277296
vt -4.71375e-016 0.287566
f 26/49/4 22/50/4 25/51/4

vt -0.0163239 0.277296
f 22/50/4 26/49/4 18/52/4

f 25/51/3 22/50/3 26/49/3

usemtl Color_000
v 4.51727 5.701 -10.3104
f 27/29/1 22/38/1 25/47/1

f 21/28/1 22/38/1 27/29/1

usemtl _7
f 27/32/2 22/31/2 21/30/2

vt 0.375449 0.287566
f 25/53/2 22/31/2 27/32/2

vt 0.701926 0.277296
f 23/54/2 22/31/2 25/53/2

usemtl Color_000
v 4.51691 5.751 -9.21035
vt 86.6142 55.1181
f 23/48/1 28/55/1 25/47/1

v 4.51692 5.02261 -9.2464
vt 85.1949 26.4413
f 29/56/1 28/55/1 23/48/1

v 4.51692 5.02261 -9.2254
vt 86.0216 26.4413
f 30/57/1 28/55/1 29/56/1

v 4.51692 4.90361 -9.2254
vt 86.0216 21.7563
f 31/58/1 28/55/1 30/57/1

v 4.51691 4.351 -9.21035
vt 86.6142 8.52651e-014
f 31/58/1 32/59/1 28/55/1

v 4.51693 4.401 -9.26035
vt 84.6457 1.9685
f 33/60/1 32/59/1 31/58/1

f 20/34/1 32/59/1 33/60/1

f 32/59/1 20/34/1 10/16/1

usemtl _7
vt 0.71825 4.44851e-016
f 10/25/2 20/33/2 32/61/2

vt -0.0163239 0.0102702
vt -4.24238e-015 1.48284e-016
vt -4.24238e-015 0.0102702
f 19/62/4 10/63/4 20/64/4

vt -0.0163239 1.48284e-016
f 10/63/4 19/62/4 15/65/4

f 20/64/3 10/63/3 19/62/3

f 15/65/3 19/62/3 10/63/3

v 4.56691 4.351 -9.21034
f 34/61/1 19/33/1 15/25/1

v 4.56693 4.401 -9.26034
vt 0.701926 0.0102702
f 19/33/1 34/61/1 35/66/1

usemtl M_0128_White
f 15/16/2 19/34/2 34/59/2

f 35/60/2 34/59/2 19/34/2

usemtl _7
v 4.56691 5.751 -9.21034
vt 0.71825 0.287566
f 35/66/1 34/61/1 36/67/1

usemtl M_0128_White
f 36/55/2 34/59/2 35/60/2

usemtl _7
vt 1.17844e-014 0.287566
vt 0.0163239 4.44851e-016
vt 0.0163239 0.287566
f 28/68/3 34/69/3 36/70/3

vt 1.10773e-014 4.44851e-016
f 34/69/3 28/68/3 32/71/3

f 32/71/4 28/68/4 34/69/4

vt 0.713337 0.113509
f 28/67/2 32/61/2 31/72/2

f 31/72/2 32/61/2 33/66/2

f 33/66/2 32/61/2 20/33/2

usemtl M_0128_White
vn 2.84915e-016 1 -6.27216e-016
vt 45.2756 5.11591e-013
vt 84.6457 -2.84217e-014
f 35/60/9 20/73/9 33/74/9

f 20/73/9 35/60/9 19/34/9

usemtl _7
vn -2.84915e-016 -1 6.27216e-016
vt 0.375449 2.66911e-015
f 19/33/10 35/66/10 20/75/10

usemtl Translucent_Glass_Blue
vn -1 9.49112e-015 -0.000328946
f 35/60/11 18/38/11 19/34/11

vt 79.9606 53.1496
f 18/38/11 35/60/11 24/76/11

vn 1 -9.49112e-015 0.000328946
f 19/34/12 18/38/12 35/60/12

usemtl M_0128_White
f 18/38/2 19/34/2 16/28/2

usemtl _7
f 19/17/4 20/21/4 18/18/4

usemtl M_0128_White
f 16/28/2 19/34/2 11/14/2

vn 2.84843e-016 1 -4.08333e-016
vt 43.3071 4.54747e-013
f 11/14/13 21/77/13 16/28/13

vt 1.9685 5.11591e-013
f 21/77/13 11/14/13 8/78/13

usemtl _7
vt 0.0163239 2.66911e-015
vn -2.84843e-016 -1 4.08333e-016
vt 0.359125 2.37254e-015
f 8/79/14 11/17/14 21/80/14

f 16/30/14 21/80/14 11/17/14

usemtl M_0128_White
vt -5.40012e-013 53.1496
vt -1.9685 1.9685
vt -4.54747e-013 1.9685
f 27/81/4 16/82/4 21/83/4

vt -1.9685 53.1496
f 16/82/4 27/81/4 17/84/4

usemtl _7
vt -3.771e-015 0.0102702
vt -4.47807e-015 0.277296
f 21/85/3 16/62/3 27/86/3

f 17/52/3 27/86/3 16/62/3

usemtl M_0128_White
vt -43.3071 5.40012e-013
v 4.56728 5.701 -10.3373
vt -42.2441 1.9685
vt -43.3071 1.9685
f 27/87/7 37/88/7 17/89/7

f 27/87/7 12/82/7 37/88/7

vt -1.9685 5.11591e-013
f 12/82/7 27/87/7 7/90/7

usemtl _7
vt -0.0163239 2.66911e-015
vt -0.359125 2.81739e-015
f 7/91/8 27/92/8 12/62/8

usemtl Color_000
f 6/9/1 7/13/1 27/29/1

f 6/9/1 4/4/1 7/13/1

usemtl _7
f 7/18/2 4/12/2 6/10/2

f 4/12/2 7/18/2 1/7/2

f 1/7/2 7/18/2 3/5/2

f 27/32/2 7/18/2 6/10/2

usemtl Color_000
f 27/29/1 25/47/1 6/9/1

usemtl _7
f 6/10/2 25/53/2 27/32/2

usemtl Color_000
v 4.51727 5.751 -10.3104
vt 43.3071 55.1181
f 6/9/1 25/47/1 38/93/1

usemtl _7
vt 0.359125 0.287566
f 38/94/2 25/53/2 6/10/2

vt 0.359125 2.81739e-015
vt 0.375449 2.96567e-016
f 26/33/8 38/95/8 25/96/8

v 4.56727 5.751 -10.3103
f 38/95/8 26/33/8 39/30/8

f 39/30/7 26/33/7 38/95/7

f 13/23/1 26/53/1 39/94/1

vt 0.35031 0.277296
f 37/97/1 26/53/1 13/23/1

f 17/32/1 26/53/1 37/97/1

f 17/32/1 18/31/1 26/53/1

usemtl M_0128_White
f 17/29/2 18/38/2 16/28/2

f 26/47/2 18/38/2 17/29/2

usemtl _7
f 18/52/3 26/49/3 22/50/3

f 18/31/1 36/67/1 26/53/1

vt 0.663075 0.277296
f 24/98/1 36/67/1 18/31/1

v 4.56693 5.701 -9.26034
f 40/54/1 36/67/1 24/98/1

f 35/66/1 36/67/1 40/54/1

usemtl M_0128_White
f 40/48/2 36/55/2 35/60/2

f 24/76/2 36/55/2 40/48/2

f 18/38/2 36/55/2 24/76/2

f 26/47/2 36/55/2 18/38/2

usemtl _7
vt 0.71825 7.41418e-015
vt 0.71825 0.0102702
f 26/33/8 28/99/8 36/100/8

f 28/99/8 26/33/8 25/96/8

f 25/96/7 26/33/7 28/99/7

f 25/96/7 38/95/7 26/33/7

f 36/100/7 28/99/7 26/33/7

f 36/70/4 34/69/4 28/68/4

f 25/53/2 28/67/2 23/54/2

vt 0.706481 0.137952
f 23/54/2 28/67/2 29/101/2

vt 0.713337 0.137952
f 29/101/2 28/67/2 30/102/2

f 30/102/2 28/67/2 31/72/2

usemtl Color_000
v 4.51692 4.90361 -9.2464
vt 85.1949 21.7563
f 30/57/1 41/103/1 31/58/1

f 41/103/1 30/57/1 29/56/1

usemtl _7
vt 0.706481 0.113509
f 31/72/2 41/104/2 30/102/2

usemtl Color_000
f 41/103/1 33/60/1 31/58/1

f 33/60/1 41/103/1 23/48/1

usemtl _7
f 23/54/2 41/104/2 33/66/2

usemtl Color_000
f 23/48/1 41/103/1 29/56/1

usemtl _7
f 29/101/2 41/104/2 23/54/2

f 29/101/2 30/102/2 41/104/2

f 31/72/2 33/66/2 41/104/2

usemtl M_0128_White
vt -5.68434e-014 53.1496
vt 2.84217e-014 1.9685
f 23/105/4 35/82/4 33/106/4

f 35/82/4 23/105/4 40/84/4

usemtl _7
vt 2.35688e-016 0.0102702
f 33/107/3 35/62/3 23/50/3

vt 0.701926 -1.48284e-016
f 33/108/10 20/75/10 35/66/10

f 40/52/3 23/50/3 35/62/3

usemtl M_0128_White
vt -84.6457 1.9685
f 23/42/7 24/44/7 40/109/7

usemtl _7
vt -0.663075 0.0102702
f 24/110/8 18/37/8 23/46/8

usemtl Translucent_Glass_Blue
f 24/76/12 35/60/12 18/38/12

f 24/76/11 35/60/11 40/48/11

f 40/48/12 35/60/12 24/76/12

usemtl _7
vt -0.701926 0.0102702
f 40/111/8 24/110/8 23/46/8

usemtl M_0128_White
vt 42.2441 53.1496
f 37/112/2 26/47/2 17/29/2

f 13/26/2 26/47/2 37/112/2

f 39/93/2 26/47/2 13/26/2

usemtl _7
vt 7.54201e-015 0.0102702
f 13/113/8 38/95/8 39/30/8

vt 0 4.44851e-016
f 38/95/8 13/113/8 6/114/8

f 6/114/7 13/113/7 38/95/7

vt -0.0163239 0
vt -7.07063e-016 0.287566
f 14/115/4 6/116/4 13/49/4

f 9/15/4 6/116/4 14/115/4

f 6/116/4 9/15/4 5/11/4

f 5/11/3 9/15/3 6/116/3

f 14/115/3 6/116/3 9/15/3

f 13/49/3 6/116/3 14/115/3

f 39/30/7 38/95/7 13/113/7

f 13/23/1 12/18/1 37/97/1

usemtl M_0128_White
f 37/112/2 12/13/2 13/26/2

usemtl _7
vt -0.35031 0.0102702
f 37/117/8 12/62/8 27/92/8

usemtl Translucent_Glass_Blue
f 12/13/5 17/29/5 37/112/5

f 37/112/6 17/29/6 12/13/6

usemtl _7
vt -0.359125 0.0102702
f 17/118/8 37/117/8 27/92/8

vt -0.71825 0.0102702
vt -0.71825 6.96933e-015
f 10/35/7 34/119/7 32/120/7

f 34/119/7 10/35/7 15/37/7

f 15/37/8 10/35/8 34/119/8

f 15/37/8 14/36/8 10/35/8

f 32/120/8 34/119/8 10/35/8

f 3/5/2 5/11/2 2/6/2

g Mesh2 ventana2_1 DES042 Model

l 2 3

l 4 2

l 1 4

l 3 1

g Mesh3 ventana2_1 DES042 Model

l 11 16

l 11 8

l 12 11

l 12 7

l 37 12

l 17 37

l 17 27

l 17 16

l 16 21

l 8 21

l 7 8

l 27 7

l 27 21

g Mesh4 ventana2_1 DES042 Model

l 5 6

l 9 5

l 14 9

l 14 13

l 15 14

l 19 15

l 19 20

l 18 19

l 18 22

l 26 18

l 39 26

l 13 39

l 13 6

l 6 38

l 39 38

l 38 25

l 26 25

l 26 36

l 36 28

l 36 34

l 34 32

l 34 15

l 15 10

l 20 10

l 20 33

l 22 20

l 23 22

l 33 23

l 35 33

l 35 40

l 19 35

l 40 23

l 40 24

l 24 18

l 25 22

l 25 28

l 28 32

l 32 10

l 10 9

g Mesh5 ventana2_1 DES042 Model

l 31 30

l 41 31

l 29 41

l 30 29

g Mesh6 DES042 Model

usemtl Color_D03
v 4.86772 3.701 -11.6667
vt 13.7789 9.91371e-013
v 4.56772 6.701 -11.6668
vt 1.96792 118.11
v 4.56772 3.701 -11.6668
vt 1.96792 1.10298e-013
f 42/121/3 43/122/3 44/123/3

v 4.86772 6.701 -11.6667
vt 13.7789 118.11
f 43/122/3 42/121/3 45/124/3

usemtl _7
vt 1.49 0.760201
vt 1.49 1.37641
vt 1.58795 0.760201
f 44/125/4 43/126/4 42/127/4

usemtl Color_D03
vt 98.4953 118.11
vn 1 -5.32428e-015 0.000328946
v 4.56763 5.751 -11.4103
vt 88.3995 80.7087
vt 98.4953 6.73212e-014
f 43/128/15 46/129/15 44/130/15

v 4.56691 5.751 -9.21034
vt 1.78535 80.7087
f 43/128/15 47/131/15 46/129/15

v 4.5669 6.701 -9.16677
vt 0.0700628 118.11
f 48/132/15 47/131/15 43/128/15

v 4.56691 3.701 -9.21034
vt 1.78535 1.00524e-012
f 48/132/15 49/133/15 47/131/15

v 4.5669 3.701 -9.16677
vt 0.0700628 1.00524e-012
f 49/133/15 48/132/15 50/134/15

usemtl _7
vt 2.99323 0.760201
vn -1 5.32428e-015 -0.000328946
vt 2.99323 1.37641
vt 3.00746 0.760201
f 50/135/16 48/136/16 49/137/16

usemtl Color_D03
v 9.9269 6.701 -9.16501
vt -212.992 118.11
vt -1.96792 9.94798e-013
vt -1.96792 118.11
f 51/138/4 50/139/4 48/140/4

v 9.9269 3.701 -9.16501
vt -212.992 5.68814e-014
f 50/139/4 51/138/4 52/141/4

usemtl _7
vt -3.23992 0.760201
vt -3.23992 1.37641
vt -1.49 0.760201
f 52/142/3 51/143/3 50/144/3

usemtl Color_D03
vt -0.0700628 118.11
vn -1 3.24025e-014 -0.000328946
v 9.92722 3.701 -10.165
vt -39.4401 6.92987e-012
vt -0.0700628 6.9583e-012
f 51/145/17 53/146/17 52/147/17

v 9.92722 5.801 -10.165
vt -39.4401 82.6772
f 53/146/17 51/145/17 54/148/17

usemtl _7
vt -2.99323 0.760201
vn 1 -3.24025e-014 0.000328946
vt -3.31971 0.760201
vt -2.99323 1.37641
f 52/149/18 53/150/18 51/151/18

usemtl _Tile_Ceramic_Natural_14
v 9.92747 3.701 -10.915
vt 7.04076 7.74114
vn 2.66712e-015 1 -4.50792e-015
vt 7.04035 6.5
vt 7.04059 7.20922
f 55/152/19 52/153/19 53/154/19

v 4.86786 3.701 -12.0867
vt 3.45238 8.57211
f 56/155/19 52/153/19 55/152/19

vt 3.45228 8.27423
f 42/156/19 52/153/19 56/155/19

vt 3.23952 8.2743
f 44/157/19 52/153/19 42/156/19

v 4.56763 3.701 -11.4103
vt 3.23946 8.09244
f 57/158/19 52/153/19 44/157/19

vt 3.23894 6.53215
f 49/159/19 52/153/19 57/158/19

vt 3.23893 6.50125
f 52/153/19 49/159/19 50/160/19

usemtl _7
vt 1.49099 1.88289
vn -2.66712e-015 -1 4.50792e-015
vt 1.49099 1.89184
vt 3.24091 1.88253
f 50/161/20 49/162/20 52/163/20

vt 1.49123 2.34373
f 57/164/20 52/163/20 49/162/20

vt 1.49126 2.3964
f 44/165/20 52/163/20 57/164/20

vt 1.5892 2.39638
f 42/166/20 52/163/20 44/165/20

vt 1.58924 2.48265
f 56/167/20 52/163/20 42/166/20

vt 3.24109 2.24199
f 55/168/20 52/163/20 56/167/20

vt 3.24101 2.08794
f 53/169/20 52/163/20 55/168/20

usemtl _Tile_Ceramic_Natural_14
v 9.92725 3.701 -10.24
vt 7.0406 7.26242
f 55/152/19 53/154/19 58/170/19

usemtl _7
vt 3.24102 2.10334
f 58/171/20 53/169/20 55/168/20

usemtl _Tile_Ceramic_Natural_14
v 9.92724 3.701 -10.205
vt 7.04059 7.23759
f 58/170/19 53/154/19 59/172/19

usemtl _7
vt 3.24102 2.09615
f 59/173/20 53/169/20 58/171/20

usemtl _Tile_Ceramic_Natural_14
v 9.92746 3.701 -10.875
vt 7.04075 7.71277
f 55/152/19 58/170/19 60/174/19

usemtl _7
vt 3.24109 2.23377
f 60/175/20 58/171/20 55/168/20

usemtl _Tile_Ceramic_Natural_14
v 9.92786 3.701 -12.085
vt 7.04103 8.57093
f 56/155/19 55/152/19 61/176/19

usemtl _7
vt 3.24122 2.48231
f 61/177/20 55/168/20 56/167/20

usemtl Color_D03
v 9.92747 5.801 -10.915
vt -68.9677 82.6772
vt -115.031 6.90145e-012
vt -68.9677 6.92987e-012
f 62/178/17 61/179/17 55/180/17

v 9.92786 6.701 -12.085
vt -115.031 118.11
f 61/179/17 62/178/17 63/181/17

usemtl _7
vt -3.56457 0.760201
vt -3.94655 0.760201
vt -3.56457 1.19155
f 55/182/18 61/183/18 62/184/18

vt -3.94655 1.37641
f 63/185/18 62/184/18 61/183/18

usemtl Color_D03
f 54/148/17 63/181/17 62/178/17

f 54/148/17 51/145/17 63/181/17

usemtl _7
vt -3.31971 1.19155
f 54/186/18 51/151/18 53/150/18

f 63/185/18 51/151/18 54/186/18

f 62/184/18 63/185/18 54/186/18

usemtl Color_D03
vt 212.992 118.11
vt 13.7789 1.47694e-013
vt 212.992 6.24284e-014
f 63/187/3 56/188/3 61/189/3

v 4.86786 6.701 -12.0867
f 56/188/3 63/187/3 64/124/3

usemtl _7
vt 3.23992 0.760201
vt 3.23992 1.37641
f 61/190/4 56/127/4 63/191/4

vt 1.58795 1.37641
f 64/192/4 63/191/4 56/127/4

usemtl Color_D03
vt 115.031 8.91881e-014
vt 115.031 118.11
f 45/128/2 56/193/2 64/194/2

vt 98.4953 9.41839e-013
f 56/193/2 45/128/2 42/195/2

usemtl _7
vt 3.80943 0.760201
vt 3.80943 1.37641
vt 3.94655 0.760201
f 42/196/1 45/197/1 56/198/1

f 45/192/4 42/127/4 43/126/4

vt 3.94655 1.37641
f 64/199/1 56/198/1 45/197/1

usemtl Color_D03
v 4.56763 4.351 -11.4103
vt 88.3995 25.5906
vt 88.3995 9.57429e-014
f 65/200/15 57/201/15 44/130/15

v 4.56691 4.351 -9.21034
vt 1.78535 25.5906
f 66/202/15 57/201/15 65/200/15

f 57/201/15 66/202/15 49/133/15

usemtl _7
vt 3.00746 0.893714
vt 3.72571 0.760201
f 49/137/16 66/203/16 57/204/16

usemtl Color_D03
f 47/131/15 49/133/15 66/202/15

usemtl _7
vt 3.00746 1.18128
f 47/205/16 49/137/16 48/136/16

f 66/203/16 49/137/16 47/205/16

f 43/197/16 47/205/16 48/136/16

vt 3.72571 1.18128
f 46/206/16 47/205/16 43/197/16

f 44/196/16 46/206/16 43/197/16

usemtl Color_D03
f 65/200/15 44/130/15 46/129/15

usemtl _7
vt 3.72571 0.893714
f 44/196/16 57/204/16 65/207/16

f 65/207/16 57/204/16 66/203/16

f 46/206/16 44/196/16 65/207/16

vt -1.49 1.37641
f 48/208/3 50/144/3 51/143/3

g Mesh7 DES042 Model

l 42 45

l 44 42

l 44 43

l 57 44

l 57 49

l 50 49

l 50 48

l 50 52

l 52 51

l 53 52

l 53 54

l 53 59

l 59 58

l 58 60

l 60 55

l 55 62

l 61 55

l 61 63

l 56 61

l 56 64

l 56 42

l 64 63

l 64 45

l 43 45

l 48 43

l 48 51

l 63 51

l 54 62

g Mesh8 DES042 Model

l 66 47

l 65 66

l 65 46

l 46 47

