# Alias OBJ Model File
# Exported from SketchUp, (c) 2000-2012 Trimble Navigation Limited
# File units = meters

mtllib LAB021.mtl

g Mesh1 LAB021 Model

usemtl Color_D03
v 21.4272 6.701 -61.2532
vt 2.71231e-005 118.11
vn 0.000328946 2.76363e-013 -1
v 21.499 3.701 -61.2532
vt -2.82558 9.35131e-011
v 21.4272 3.701 -61.2532
vt 2.71231e-005 2.42778e-011
f 1/1/1 2/2/1 3/3/1

v 27.794 6.701 -61.2512
vt -250.662 118.11
f 2/2/1 1/1/1 4/4/1

usemtl _7
vt -6.98892 0.760201
vn -0.000328946 -2.76363e-013 1
vt -7.01235 0.760201
vt -6.98892 1.37641
f 3/5/2 2/6/2 1/7/2

usemtl _Tile_Ceramic_Natural_14
vt 15.2475 43.442
vn 9.53276e-014 1 -1.99682e-013
v 21.4275 3.701 -62.1256
vt 15.1968 44.0607
vt 15.1966 43.442
f 2/8/3 5/9/3 3/10/3

v 21.4275 3.701 -64.9388
vt 15.1968 46.0559
f 5/9/3 2/8/3 6/11/3

usemtl Color_D03
vt -2.31652e-024 0.0824544
vn -9.53276e-014 -1 1.99682e-013
vt 0.0112978 34.4278
vt 2.82561 0.0815249
f 3/12/4 5/13/4 2/14/4

vt 0.0112978 145.183
f 6/15/4 2/14/4 5/13/4

usemtl _Tile_Ceramic_Natural_14
v 21.6075 3.701 -64.9388
vt 15.3244 46.0559
f 6/11/3 2/8/3 7/16/3

usemtl Color_D03
vt 7.09627 145.183
f 7/17/4 2/14/4 6/15/4

usemtl _Tile_Ceramic_Natural_14
v 27.794 3.701 -61.2512
vt 19.7121 43.4405
f 7/16/3 2/8/3 8/18/3

usemtl Color_D03
vt 250.662 7.59428e-011
f 8/19/4 2/14/4 7/17/4

vt -250.662 2.63526e-011
f 4/4/1 8/20/1 2/2/1

usemtl _7
vt -9.06754 0.760201
vt -9.06754 1.37641
f 2/6/2 8/21/2 4/22/2

usemtl Color_D03
v 27.7953 6.701 -64.9388
vt -145.267 118.11
vn -1 4.66363e-007 -0.000335969
vt -0.0842147 0.0001169
vt -0.0842147 118.11
f 9/23/5 8/24/5 4/25/5

v 27.7942 3.701 -61.9127
vt -26.1294 0.0001169
f 8/24/5 9/23/5 10/26/5

vn 1 -4.66363e-007 0.000335969
f 4/25/6 8/24/6 9/23/6

f 10/26/6 9/23/6 8/24/6

v 27.7953 3.701 -64.9388
vt -145.267 0.0001169
f 10/26/5 9/23/5 11/27/5

f 11/27/6 9/23/6 10/26/6

vt 250.711 118.11
vn 4.13765e-016 2.90209e-015 1
v 22.3939 3.701 -64.9388
vt 38.0568 6.30463e-012
vt 250.711 4.21333e-013
f 9/28/7 12/29/7 11/30/7

v 22.3939 5.71353 -64.9388
vt 38.0568 79.2335
f 12/29/7 9/28/7 13/31/7

vn -4.13765e-016 -2.90209e-015 -1
f 11/30/8 12/29/8 9/28/8

usemtl _Tile_Ceramic_Natural_14
vt 15.8822 46.0559
vt 19.7122 43.9097
vt 19.713 46.0559
f 12/32/3 10/33/3 11/34/3

f 12/32/3 8/18/3 10/33/3

v 21.6075 3.701 -65.0148
vt 15.3244 46.1098
f 14/35/3 8/18/3 12/32/3

f 7/16/3 8/18/3 14/35/3

usemtl Color_D03
vt 7.09627 148.175
f 14/36/4 8/19/4 7/17/4

vt 38.0568 145.183
f 12/37/4 8/19/4 14/36/4

vt 250.671 26.0452
f 10/38/4 8/19/4 12/37/4

vt 250.711 145.183
f 11/39/4 10/38/4 12/37/4

usemtl _Tile_Ceramic_Natural_14
v 22.3939 3.701 -65.0148
vt 15.8822 46.1098
f 15/40/3 14/35/3 12/32/3

usemtl Color_D03
vt 38.0568 148.175
f 12/37/4 14/36/4 15/41/4

vt -145.183 5.74678e-012
vn -1 -3.58705e-015 9.49917e-014
v 22.3939 5.71353 -65.0148
vt -148.175 79.2335
vt -148.175 2.27933e-012
f 12/42/9 16/43/9 15/44/9

vt -145.183 79.2335
f 16/43/9 12/42/9 13/45/9

usemtl BackColor
vn 1 3.58705e-015 -9.49917e-014
f 13/45/10 12/42/10 16/43/10

usemtl Color_D03
f 13/31/8 9/28/8 12/29/8

v 21.6075 5.71353 -64.9388
vt 7.09627 79.2335
f 13/31/7 9/28/7 17/46/7

f 17/46/8 9/28/8 13/31/8

v 21.4275 6.701 -64.9388
vt 0.0112978 118.11
f 18/47/7 17/46/7 9/28/7

vt 7.09627 2.51766e-011
f 18/47/7 7/48/7 17/46/7

vt 0.0112978 1.32964e-011
f 7/48/7 18/47/7 6/49/7

f 6/49/8 18/47/8 7/48/8

vt 145.183 118.11
vn 1 -2.54977e-017 7.78617e-005
v 21.4273 3.701 -62.1256
vt 34.4278 1.2875e-011
vt 145.183 1.2875e-011
f 18/50/11 19/51/11 6/52/11

vt 0.0824544 118.11
f 1/53/11 19/51/11 18/50/11

vt 0.0824544 2.43006e-011
f 19/51/11 1/53/11 3/54/11

vn -1 2.54977e-017 -7.78617e-005
f 3/54/12 1/53/12 19/51/12

f 18/50/12 19/51/12 1/53/12

f 6/52/12 19/51/12 18/50/12

f 17/46/8 7/48/8 18/47/8

vt 148.175 3.70488e-011
vn 1 -2.15222e-015 5.69956e-014
vt 145.183 79.2335
vt 145.183 2.47706e-011
f 14/55/13 17/56/13 7/57/13

v 21.6075 5.71353 -65.0148
vt 148.175 79.2335
f 17/56/13 14/55/13 20/58/13

usemtl BackColor
vn -1 2.15222e-015 -5.69956e-014
f 7/57/14 17/56/14 14/55/14

f 20/58/14 14/55/14 17/56/14

usemtl Color_D03
vt -7.09627 148.175
vn 6.66255e-014 -1 -8.13637e-013
vt -38.0568 145.183
vt -7.09627 145.183
f 20/59/15 13/60/15 17/61/15

v 22.3803 5.71353 -65.0148
vt -37.5219 148.175
f 13/60/15 20/59/15 21/62/15

usemtl BackColor
vn -6.66255e-014 1 8.13637e-013
f 17/61/16 13/60/16 20/59/16

f 21/62/16 20/59/16 13/60/16

usemtl Color_D03
vt -38.0568 148.175
f 13/60/15 21/62/15 16/63/15

usemtl BackColor
f 16/63/16 21/62/16 13/60/16

usemtl Color_D03
f 9/28/8 17/46/8 18/47/8

usemtl BackColor
f 15/44/10 16/43/10 12/42/10

usemtl _7
f 4/22/2 1/7/2 2/6/2

g Mesh2 LAB021 Model

l 1 4

l 3 1

l 3 2

l 19 3

l 6 19

l 18 6

l 1 18

l 18 9

l 9 4

l 11 9

l 11 10

l 12 11

l 13 12

l 13 17

l 13 16

l 16 21

l 16 15

l 15 12

l 15 14

l 14 7

l 14 20

l 21 20

l 17 20

l 17 7

l 6 7

l 5 6

l 3 5

l 10 8

l 8 4

l 2 8

