# Alias OBJ Model File
# Exported from SketchUp, (c) 2000-2012 Trimble Navigation Limited
# File units = meters

mtllib LAB007.mtl

g Mesh1 LAB007 Model

usemtl _Tile_Ceramic_Natural_14
v 21.7768 3.701 -8.84468
vt 15.4445 6.27282
vn 5.86218e-015 1 -1.04608e-014
v 21.7071 3.701 -9.7847
vt 15.3951 6.9395
v 21.7068 3.701 -8.8447
vt 15.3949 6.27284
f 1/1/1 2/2/1 3/3/1

v 21.7071 3.701 -9.9047
vt 15.3951 7.02461
f 2/2/1 1/1/1 4/4/1

usemtl _7
vt 7.08677 1.81674
vn -5.86218e-015 -1 1.04608e-014
vt 7.08688 2.00982
vt 7.10963 1.81673
f 3/5/2 2/6/2 1/7/2

vt 7.08689 2.03447
f 4/8/2 1/7/2 2/6/2

usemtl _Tile_Ceramic_Natural_14
v 21.8271 3.701 -9.78466
vt 15.4802 6.93947
f 5/9/1 4/4/1 1/1/1

v 22.4148 3.701 -18.1488
vt 15.897 12.8715
f 6/10/1 4/4/1 5/9/1

v 21.4648 3.701 -18.1491
vt 15.2233 12.8717
f 7/11/1 4/4/1 6/10/1

v 21.4648 3.701 -18.0991
vt 15.2233 12.8363
f 8/12/1 4/4/1 7/11/1

v 21.3322 3.701 -18.0992
vt 15.1292 12.8363
f 9/13/1 4/4/1 8/12/1

v 21.2752 3.701 -12.1112
vt 15.0888 8.5895
f 10/14/1 4/4/1 9/13/1

v 21.2251 3.701 -11.992
vt 15.0532 8.50498
f 11/15/1 4/4/1 10/14/1

v 21.1222 3.701 -11.9138
vt 14.9803 8.4495
f 12/16/1 4/4/1 11/15/1

v 21.0378 3.701 -11.903
vt 14.9204 8.44188
f 13/17/1 4/4/1 12/16/1

v 21.0378 3.701 -11.8954
vt 14.9204 8.43645
f 14/18/1 4/4/1 13/17/1

v 21.0378 3.701 -11.8194
vt 14.9204 8.38254
f 15/19/1 4/4/1 14/18/1

v 21.0371 3.701 -9.90492
vt 14.92 7.02477
f 4/4/1 15/19/1 16/20/1

usemtl _7
vt 6.86815 2.03451
vt 6.86835 2.42775
f 16/21/2 15/22/2 4/8/2

usemtl Color_D03
vt 117.115 1.99106e-013
vn 1 1.12166e-014 0.000328946
v 21.0371 6.701 -9.90492
vt 41.7425 118.11
vt 41.7425 2.55949e-013
f 15/23/3 17/24/3 16/25/3

v 21.0378 6.701 -11.903
vt 120.409 118.11
f 17/24/3 15/23/3 18/26/3

usemtl _7
vt 3.23599 0.760201
vn -1 -1.12166e-014 -0.000328946
vt 3.23599 1.37641
vt 3.86102 0.760201
f 16/27/4 17/28/4 15/29/4

usemtl Color_D03
vt 0.013731 118.11
vn 0.000328946 4.66968e-014 -1
vt -26.3642 1.13237e-011
vt 0.013731 -1.69344e-012
f 17/30/5 4/31/5 16/32/5

v 21.9271 6.701 -9.90463
vt -35.0256 118.11
f 19/33/5 4/31/5 17/30/5

v 21.9271 3.701 -9.90463
vt -35.0256 -1.69344e-012
f 4/31/5 19/33/5 20/34/5

usemtl _7
vt -7.15765 0.760201
vn -0.000328946 -4.66968e-014 1
vt -7.15765 1.37641
vt -7.08582 0.760201
f 20/35/6 19/36/6 4/37/6

vt -6.86708 1.37641
f 17/38/6 4/37/6 19/36/6

vt -6.86708 0.760201
f 16/39/6 4/37/6 17/38/6

vt 3.88833 1.37641
f 18/40/4 15/29/4 17/28/4

usemtl Color_D03
vt 120.108 2.27528e-013
f 18/26/3 15/23/3 14/41/3

usemtl _7
vt 3.88584 0.760201
f 14/42/4 15/29/4 18/40/4

vt 6.86836 2.44337
f 14/43/2 4/8/2 15/22/2

vt 6.86836 2.44494
f 13/44/2 4/8/2 14/43/2

vt 6.8959 2.44714
f 12/45/2 4/8/2 13/44/2

vt 6.92951 2.46321
f 11/46/2 4/8/2 12/45/2

vt 6.94586 2.48769
f 10/47/2 4/8/2 11/46/2

vt 6.96448 3.71765
f 9/48/2 4/8/2 10/47/2

vt 7.00777 3.71764
f 8/49/2 4/8/2 9/48/2

vt 7.00778 3.72791
f 7/50/2 4/8/2 8/49/2

vt 7.31793 3.72784
f 6/51/2 4/8/2 7/50/2

vt 7.12605 2.00981
f 5/52/2 4/8/2 6/51/2

f 1/7/2 4/8/2 5/52/2

usemtl _Tile_Ceramic_Natural_14
v 21.8268 3.701 -8.84466
vt 15.48 6.27281
f 5/9/1 1/1/1 21/53/1

usemtl _7
vt 7.12595 1.81673
f 21/54/2 1/7/2 5/52/2

usemtl _Tile_Ceramic_Natural_14
v 21.9271 3.701 -9.85463
vt 15.5512 6.9891
f 6/10/1 5/9/1 22/55/1

usemtl _7
vt 7.15871 2.02418
f 22/56/2 5/52/2 6/51/2

usemtl _Tile_Ceramic_Natural_14
v 21.9271 3.701 -9.78463
vt 15.5511 6.93945
f 22/55/1 5/9/1 23/57/1

usemtl _7
vt 7.1587 2.0098
f 23/58/2 5/52/2 22/56/2

usemtl _Tile_Ceramic_Natural_14
v 21.9671 3.701 -9.85461
vt 15.5795 6.98909
f 6/10/1 22/55/1 24/59/1

usemtl _7
vt 7.17177 2.02418
f 24/60/2 22/56/2 6/51/2

usemtl _Tile_Ceramic_Natural_14
v 22.4148 3.701 -18.0988
vt 15.897 12.836
f 6/10/1 24/59/1 25/61/1

usemtl _7
vt 7.31792 3.71757
f 25/62/2 24/60/2 6/51/2

usemtl _Tile_Ceramic_Natural_14
v 23.7271 3.701 -9.85403
vt 16.8277 6.98868
f 26/63/1 25/61/1 24/59/1

v 23.5135 3.701 -18.0984
vt 16.6762 12.8358
f 25/61/1 26/63/1 27/64/1

usemtl _7
vt 7.74637 2.02406
f 24/60/2 25/62/2 26/65/2

vt 7.67663 3.7175
f 27/66/2 26/65/2 25/62/2

usemtl _Tile_Ceramic_Natural_14
v 23.7271 3.701 -9.90403
vt 16.8278 7.02414
f 27/64/1 26/63/1 28/67/1

usemtl _7
vt 7.74637 2.03433
f 28/68/2 26/65/2 27/66/2

usemtl _Tile_Ceramic_Natural_14
v 24.0175 3.701 -18.0983
vt 17.0337 12.8357
f 27/64/1 28/67/1 29/69/1

usemtl _7
vt 7.84117 3.71746
f 29/70/2 28/68/2 27/66/2

usemtl _Tile_Ceramic_Natural_14
v 23.9471 3.701 -9.90396
vt 16.9838 7.02409
f 29/69/1 28/67/1 30/71/1

usemtl _7
vt 7.8182 2.03432
f 30/72/2 28/68/2 29/70/2

usemtl Color_D03
vt -105.892 5.98046e-013
vn 0.000328946 1.15465e-014 -1
v 23.9471 6.701 -9.90396
vt -114.553 118.11
vt -114.553 -2.26183e-013
f 28/73/7 31/74/7 30/75/7

v 23.7271 6.701 -9.90403
vt -105.892 118.11
f 31/74/7 28/73/7 32/76/7

usemtl _7
vt -7.81713 0.760201
vn -0.000328946 -1.15465e-014 1
vt -7.81713 1.37641
vt -7.74531 0.760201
f 30/77/8 31/78/8 28/79/8

usemtl Color_D03
vn 1 -1.54147e-014 0.000328946
v 23.9469 3.701 -9.11396
vt 10.6401 2.0216e-012
vt 41.7425 2.0216e-012
f 31/24/9 33/80/9 30/81/9

v 23.9469 6.701 -9.11396
vt 10.6401 118.11
f 33/80/9 31/24/9 34/82/9

usemtl _7
vt 2.97807 1.37641
vn -1 1.54147e-014 -0.000328946
vt 2.97807 0.760201
f 34/83/10 31/28/10 33/84/10

f 30/27/10 33/84/10 31/28/10

usemtl _Tile_Ceramic_Natural_14
v 28.9969 3.701 -9.1123
vt 20.5652 6.46262
vt 16.9836 6.4638
f 35/85/1 30/71/1 33/86/1

f 30/71/1 35/85/1 29/69/1

usemtl _7
vt 7.81811 1.87205
vt 9.46682 1.87171
f 33/87/2 30/72/2 35/88/2

f 29/70/2 35/88/2 30/72/2

usemtl _Tile_Ceramic_Natural_14
v 28.5977 3.701 -11.6229
vt 20.2821 8.24322
f 29/69/1 35/85/1 36/89/1

usemtl _7
vt 9.3365 2.3874
f 36/90/2 35/88/2 29/70/2

usemtl _Tile_Ceramic_Natural_14
v 28.9969 3.701 -9.1623
vt 20.5652 6.49809
f 36/89/1 35/85/1 37/91/1

usemtl _7
vt 9.46683 1.88198
f 37/92/2 35/88/2 36/90/2

usemtl Color_D03
v 28.9969 6.701 -9.1123
vt -10.6401 118.11
vn -1 -1.51905e-014 -0.000328946
vt -12.6087 -3.70868e-012
vt -10.6401 -3.70868e-012
f 38/93/11 37/94/11 35/95/11

v 28.9969 4.351 -9.1623
vt -12.6087 25.5906
f 37/94/11 38/93/11 39/96/11

usemtl _7
vt -2.97807 0.760201
vn 1 1.51905e-014 0.000328946
vt -2.9944 0.760201
vt -2.97807 1.37641
f 35/97/12 37/98/12 38/99/12

vt -2.9944 0.893714
f 39/100/12 38/99/12 37/98/12

usemtl Color_D03
v 28.9969 5.751 -9.1623
vt -12.6087 80.7087
f 38/93/11 40/101/11 39/96/11

v 28.9977 6.701 -11.6228
vt -109.479 118.11
f 40/101/11 38/93/11 41/102/11

usemtl _7
vt -2.9944 1.18128
f 39/100/12 40/103/12 38/99/12

vt -3.7977 1.37641
f 41/104/12 38/99/12 40/103/12

usemtl Color_D03
v 28.9976 5.751 -11.3623
vt -99.2228 80.7087
f 40/101/11 41/102/11 42/105/11

usemtl _7
vt -3.71265 1.18128
f 42/106/12 41/104/12 40/103/12

usemtl Color_D03
v 28.9976 4.351 -11.3623
vt -99.2228 25.5906
f 42/105/11 41/102/11 43/107/11

usemtl _7
vt -3.71265 0.893714
f 43/108/12 41/104/12 42/106/12

usemtl Color_D03
v 28.9976 3.701 -11.3623
vt -99.2228 -4.61817e-012
f 43/107/11 41/102/11 44/109/11

usemtl _7
vt -3.71265 0.760201
f 44/110/12 41/104/12 43/108/12

usemtl Color_D03
v 28.9977 3.701 -11.6228
vt -109.479 -3.7371e-012
f 44/109/11 41/102/11 45/111/11

usemtl _7
vt -3.7977 0.760201
f 45/112/12 41/104/12 44/110/12

usemtl Color_D03
v 28.5977 6.701 -11.6229
vt 297.624 118.11
vn -0.000328946 -3.4646e-014 1
vt 313.372 -2.76983e-012
vt 313.372 118.11
f 46/113/13 45/114/13 41/115/13

vt 297.624 -3.6509e-012
f 45/114/13 46/113/13 36/116/13

usemtl _7
vt 9.33525 0.760201
vn 0.000328946 3.4646e-014 -1
vt 9.33525 1.37641
vt 9.46584 0.760201
f 36/117/14 46/118/14 45/119/14

usemtl Color_D03
v 28.5979 6.701 -12.2929
vt -135.857 118.11
vn -1 1.92624e-014 -0.000328946
vt -109.479 5.87505e-012
f 47/120/15 36/121/15 46/102/15

v 28.5979 3.701 -12.2929
vt -135.857 5.84663e-012
f 36/121/15 47/120/15 48/122/15

usemtl _7
vn 1 -1.92624e-014 0.000328946
vt -4.01644 1.37641
f 46/104/16 36/112/16 47/123/16

vt -4.01644 0.760201
f 48/124/16 47/123/16 36/112/16

usemtl Color_D03
vt -297.624 118.11
vn 0.000328946 -3.16599e-018 -1
v 28.9979 3.701 -12.2928
vt -313.372 1.14117e-013
vt -297.624 1.14117e-013
f 47/125/17 49/126/17 48/127/17

v 28.9979 6.701 -12.2928
vt -313.372 118.11
f 49/126/17 47/125/17 50/128/17

usemtl _7
vt -9.33525 0.760201
vn -0.000328946 3.16599e-018 1
vt -9.46584 0.760201
vt -9.33525 1.37641
f 48/129/18 49/130/18 47/131/18

usemtl _Tile_Ceramic_Natural_14
vt 20.5659 8.7183
v 28.5997 3.701 -17.6101
vt 20.2835 12.4895
vt 20.2822 8.71839
f 49/132/1 51/133/1 48/134/1

v 28.9988 3.701 -15.0923
vt 20.5666 10.7038
f 51/133/1 49/132/1 52/135/1

usemtl _7
vt 9.33657 2.52502
vt 9.33714 3.6172
vt 9.46716 2.52499
f 48/136/2 51/137/2 49/138/2

usemtl _Tile_Ceramic_Natural_14
f 51/133/1 36/89/1 48/134/1

f 51/133/1 29/69/1 36/89/1

v 28.5998 3.701 -18.0968
vt 20.2836 12.8346
f 29/69/1 51/133/1 53/139/1

usemtl _7
vt 9.3372 3.71715
f 53/140/2 51/137/2 29/70/2

usemtl Color_D03
vt -345.196 4.58628e-012
vn -1 1.54096e-014 -0.000328946
v 28.5998 6.701 -18.0968
vt -364.354 118.11
vt -364.354 4.58628e-012
f 51/141/19 54/142/19 53/143/19

v 28.5997 6.701 -17.6101
vt -345.196 118.11
f 54/142/19 51/141/19 55/144/19

usemtl _7
vt -5.75238 1.37641
vn 1 -1.54096e-014 0.000328946
vt -5.75238 0.760201
vt -5.91126 1.37641
f 55/145/20 51/146/20 54/147/20

usemtl Color_D03
vt 297.624 3.98874e-012
vn -0.000328946 1.1555e-014 1
v 28.9997 6.701 -17.61
f 51/148/21 56/115/21 55/113/21

v 28.9997 3.701 -17.61
vt 313.372 3.98874e-012
f 56/115/21 51/148/21 57/149/21

usemtl _7
vn 0.000328946 -1.1555e-014 -1
vt 9.46584 1.37641
f 57/119/22 51/117/22 56/150/22

usemtl _Tile_Ceramic_Natural_14
vt 20.5671 12.4894
f 51/133/1 52/135/1 57/151/1

usemtl _7
vt 9.46747 3.10002
f 52/152/2 49/138/2 51/137/2

usemtl _Tile_Ceramic_Natural_14
v 28.998 3.701 -12.4923
vt 20.566 8.85979
f 52/135/1 49/132/1 58/153/1

usemtl _7
vt 9.46719 2.56597
f 58/154/2 49/138/2 52/152/2

usemtl Color_D03
v 28.998 4.351 -12.4923
vt -143.711 25.5906
vn -1 1.63942e-014 -0.000328946
vt -143.711 5.25119e-012
vt -135.857 5.25119e-012
f 59/155/23 58/156/23 49/157/23

v 28.9987 4.351 -14.6923
vt -230.325 25.5906
f 58/156/23 59/155/23 60/158/23

usemtl _7
vn 1 -1.63942e-014 0.000328946
vt -4.08157 0.760201
vt -4.08157 0.893714
f 49/124/24 58/159/24 59/160/24

vt -4.79982 0.893714
f 60/161/24 59/160/24 58/159/24

usemtl Color_D03
v 28.9987 3.701 -14.6923
vt -230.325 5.19434e-012
f 58/156/23 60/158/23 61/162/23

usemtl _7
vt -4.79982 0.760201
f 61/163/24 60/161/24 58/159/24

usemtl Color_D03
v 28.9987 5.751 -14.6923
vt -230.325 80.7087
f 61/162/23 60/158/23 62/164/23

usemtl _7
vt -4.79982 1.18128
f 62/165/24 60/161/24 61/163/24

usemtl Color_D03
vt -246.073 5.19434e-012
f 61/162/23 62/164/23 52/166/23

usemtl _7
vt -4.93041 0.760201
f 52/167/24 62/165/24 61/163/24

usemtl Color_D03
v 28.9988 5.751 -15.0923
vt -246.073 80.7087
f 52/166/23 62/164/23 63/168/23

usemtl _7
vt -4.93041 1.18128
f 63/169/24 62/165/24 52/167/24

usemtl Color_D03
f 62/164/23 56/144/23 63/168/23

v 28.998 5.751 -12.4923
vt -143.711 80.7087
f 64/170/23 56/144/23 62/164/23

f 64/170/23 50/120/23 56/144/23

f 50/120/23 64/170/23 49/157/23

usemtl _7
vt -4.08157 1.18128
f 49/124/24 64/171/24 50/123/24

usemtl Color_D03
f 49/157/23 64/170/23 59/155/23

usemtl _7
f 59/160/24 64/171/24 49/124/24

f 56/145/24 50/123/24 64/171/24

f 62/165/24 56/145/24 64/171/24

f 63/169/24 56/145/24 62/165/24

usemtl Color_D03
v 28.9996 5.751 -17.2923
vt -332.687 80.7087
f 63/168/23 56/144/23 65/172/23

usemtl _7
vt -5.64866 1.18128
f 65/173/24 56/145/24 63/169/24

usemtl Color_D03
v 28.9996 4.351 -17.2923
vt -332.687 25.5906
f 65/172/23 56/144/23 66/174/23

usemtl _7
vt -5.64866 0.893714
f 66/175/24 56/145/24 65/173/24

usemtl Color_D03
v 28.9996 3.701 -17.2923
vt -332.687 5.1375e-012
f 66/174/23 56/144/23 67/176/23

usemtl _7
vt -5.64866 0.760201
f 67/177/24 56/145/24 66/175/24

usemtl Color_D03
vt -345.196 5.1375e-012
f 67/176/23 56/144/23 57/178/23

usemtl _7
f 57/146/24 56/145/24 67/177/24

usemtl _Tile_Ceramic_Natural_14
vt 20.5671 12.264
f 57/151/1 52/135/1 67/179/1

usemtl _7
vt 9.46774 3.61717
f 57/180/2 52/152/2 51/137/2

vt 9.4677 3.55191
f 67/181/2 52/152/2 57/180/2

usemtl Color_D03
f 52/166/23 66/174/23 67/176/23

v 28.9988 4.351 -15.0923
vt -246.073 25.5906
f 52/166/23 68/182/23 66/174/23

f 52/166/23 63/168/23 68/182/23

usemtl _7
vt -4.93041 0.893714
f 68/183/24 63/169/24 52/167/24

f 66/175/24 68/183/24 52/167/24

f 67/177/24 66/175/24 52/167/24

vt -9.46584 1.37641
f 50/184/18 47/131/18 49/130/18

usemtl _Tile_Ceramic_Natural_14
vt 20.5665 10.4201
f 52/135/1 58/153/1 61/185/1

usemtl _7
vt 9.46742 3.01786
f 61/186/2 58/154/2 52/152/2

f 55/118/22 56/150/22 51/117/22

vt -5.91126 0.760201
f 53/187/20 54/147/20 51/146/20

usemtl Color_D03
vn -0.000328946 -5.6106e-015 1
vt 117.217 -1.95898e-012
vt 297.624 -2.04425e-012
f 54/113/25 29/188/25 53/189/25

vt 54.1189 -1.07791e-012
f 29/188/25 54/113/25 25/190/25

usemtl _7
vn 0.000328946 5.6106e-015 -1
vt 7.83923 0.760201
f 53/117/26 29/191/26 54/118/26

vt 7.31598 0.760201
f 25/192/26 54/118/26 29/191/26

usemtl Color_D03
v 22.4148 5.801 -18.0988
vt 54.1189 82.6772
f 25/190/25 54/113/25 69/193/25

usemtl _7
vt 7.31598 1.19155
f 69/194/26 54/118/26 25/192/26

usemtl Color_D03
v 21.2638 6.701 -18.0992
vt 8.80285 118.11
f 70/195/25 69/193/25 54/113/25

v 21.4648 5.801 -18.0991
vt 16.7173 82.6772
f 70/195/25 71/196/25 69/193/25

v 21.2638 3.701 -18.0992
vt 8.80285 -1.95898e-012
f 72/197/25 71/196/25 70/195/25

v 21.2679 3.701 -18.0992
vt 8.96398 -1.95898e-012
f 73/198/25 71/196/25 72/197/25

vt 11.4972 -1.95898e-012
f 9/199/25 71/196/25 73/198/25

vt 16.7173 -1.95898e-012
f 71/196/25 9/199/25 8/200/25

usemtl _7
vt 7.00583 0.760201
vt 6.96254 0.760201
vt 7.00583 1.19155
f 8/201/26 9/202/26 71/203/26

vt 6.94153 0.760201
f 73/204/26 71/203/26 9/202/26

vt 6.9402 0.760201
f 72/205/26 71/203/26 73/204/26

vt 6.9402 1.37641
f 70/206/26 71/203/26 72/205/26

f 69/194/26 71/203/26 70/206/26

f 54/118/26 69/194/26 70/206/26

usemtl _Color_C03_3
v 21.2216 6.701 -17.9994
vt 334.793 118.11
vn 0.921038 -1.36377e-014 0.389474
vt 339.057 -1.73792e-012
vt 339.057 118.11
f 74/207/27 72/208/27 70/209/27

v 21.2216 3.701 -17.9994
vt 334.793 -1.73792e-012
f 72/208/27 74/207/27 75/210/27

usemtl _7
vt 8.11081 0.760201
vn -0.921038 1.36377e-014 -0.389474
vt 8.11081 1.37641
vt 8.14617 0.760201
f 75/211/28 74/212/28 72/213/28

usemtl _Color_C03_3
vt 223.116 118.11
vn 0.602963 -2.32181e-015 0.797769
v 21.1209 3.701 -17.9234
vt 218.148 -5.72172e-013
vt 223.116 -5.72172e-013
f 74/214/29 76/215/29 75/216/29

v 21.1209 6.701 -17.9234
vt 218.148 118.11
f 76/215/29 74/214/29 77/217/29

usemtl _7
vt 9.0705 0.760201
vn -0.602963 2.32181e-015 -0.797769
vt 9.0293 0.760201
vt 9.0705 1.37641
f 75/218/30 76/219/30 74/220/30

usemtl _Tile_Ceramic_Natural_14
vt 14.9794 12.7116
v 21.2194 3.701 -16.8621
vt 15.0492 11.959
vt 15.0508 12.7656
f 76/221/1 78/222/1 75/223/1

v 21.0398 3.701 -17.9133
vt 14.9218 12.7044
f 79/224/1 78/222/1 76/221/1

v 21.0398 3.701 -17.9057
vt 14.9218 12.6991
f 80/225/1 78/222/1 79/224/1

v 21.0397 3.701 -17.8209
vt 14.9218 12.6389
f 81/226/1 78/222/1 80/225/1

v 21.0394 3.701 -16.8622
vt 14.9216 11.959
f 78/222/1 81/226/1 82/227/1

usemtl _7
vt 6.8689 3.46357
vt 6.869 3.66049
vt 6.92766 3.46355
f 82/228/2 81/229/2 78/230/2

usemtl Color_D03
v 21.0398 6.701 -17.9133
vt 357.032 118.11
vn 1 1.19374e-015 0.000328946
vt 315.651 1.13703e-013
vt 353.395 8.52815e-014
f 83/231/31 82/232/31 81/233/31

v 21.0394 6.701 -16.8622
vt 315.651 118.11
f 82/232/31 83/231/31 84/234/31

usemtl _7
vt 5.50738 1.37641
vn -1 -1.19374e-015 -0.000328946
vt 5.85053 1.37641
vt 5.50738 0.760201
f 84/235/32 83/236/32 82/237/32

vt 5.82037 0.760201
f 81/238/32 82/237/32 83/236/32

usemtl Color_D03
vt 356.734 8.52815e-014
f 83/231/31 81/233/31 80/239/31

usemtl _7
vt 5.84806 0.760201
f 80/240/32 81/238/32 83/236/32

vt 6.86901 3.67791
f 80/241/2 78/230/2 81/229/2

vt 6.86901 3.67946
f 79/242/2 78/230/2 80/241/2

vt 6.8955 3.68153
f 76/243/2 78/230/2 79/242/2

vt 6.92837 3.69716
f 75/244/2 78/230/2 76/243/2

usemtl _Tile_Ceramic_Natural_14
v 21.259 3.701 -12.2395
vt 15.0773 8.68047
f 78/222/1 85/245/1 75/223/1

v 21.2193 3.701 -16.5021
vt 15.0492 11.7036
f 86/246/1 85/245/1 78/222/1

v 21.181 3.701 -12.3425
vt 15.022 8.75356
f 86/246/1 87/247/1 85/245/1

v 21.0619 3.701 -12.3928
vt 14.9375 8.78922
f 86/246/1 88/248/1 87/247/1

v 21.0393 3.701 -16.5022
vt 14.9215 11.7037
f 89/249/1 88/248/1 86/246/1

v 21.038 3.701 -12.4714
vt 14.9206 8.84495
f 90/250/1 88/248/1 89/249/1

v 21.038 3.701 -12.395
vt 14.9205 8.79076
f 91/251/1 88/248/1 90/250/1

v 21.038 3.701 -12.3898
vt 14.9205 8.78712
f 88/248/1 91/251/1 92/252/1

usemtl _7
vt 6.86842 2.54493
vt 6.86842 2.54598
vt 6.87623 2.54554
f 92/253/2 91/254/2 88/255/2

usemtl Color_D03
vt 139.776 1.97907e-013
vn 1 -7.60773e-014 0.000328946
v 21.038 6.701 -12.3898
vt 139.574 118.11
vt 139.574 1.97907e-013
f 91/256/33 93/257/33 92/258/33

v 21.0393 6.701 -16.5022
vt 301.478 118.11
f 93/257/33 91/256/33 94/259/33

usemtl _7
vt 4.04726 0.760201
vn -1 7.60773e-014 -0.000328946
vt 4.04726 1.37641
vt 4.04893 0.760201
f 92/260/34 93/261/34 91/262/34

vt 5.38985 1.37641
f 94/263/34 91/262/34 93/261/34

usemtl Color_D03
vt 142.784 2.26329e-013
f 94/259/33 91/256/33 90/264/33

usemtl _7
vt 4.07388 0.760201
f 90/265/34 91/262/34 94/263/34

vt 6.86842 2.56168
f 90/266/2 88/255/2 91/254/2

vt 6.86886 3.38962
f 89/267/2 88/255/2 90/266/2

vt 6.92762 3.38961
f 86/268/2 88/255/2 89/267/2

vt 6.91511 2.53521
f 87/269/2 88/255/2 86/268/2

usemtl _Color_C03_3
v 21.0619 6.701 -12.3928
vt 53.4434 118.11
vn 0.38901 -4.07114e-014 -0.921233
vt 48.3538 5.51029e-012
vt 53.4434 5.45345e-012
f 95/270/35 87/271/35 88/272/35

v 21.181 6.701 -12.3425
vt 48.3538 118.11
f 87/271/35 95/270/35 96/273/35

usemtl _7
vt -4.76069 0.760201
vn -0.38901 4.07114e-014 0.921233
vt -4.80289 0.760201
vt -4.76069 1.37641
f 88/274/36 87/275/36 95/276/36

vt -4.80289 1.37641
f 96/277/36 95/276/36 87/275/36

usemtl _Color_C03_3
vt 106.361 118.11
vn 0.797177 -2.4599e-014 -0.603746
vt 101.271 3.20788e-012
vt 106.361 2.41207e-012
f 96/278/37 85/279/37 87/280/37

v 21.259 6.701 -12.2395
vt 101.271 118.11
f 85/279/37 96/278/37 97/281/37

usemtl _7
vt -1.00491 1.37641
vn -0.797177 2.4599e-014 0.603746
vt -0.962703 1.37641
vt -1.00491 0.760201
f 97/282/38 96/283/38 85/284/38

vt -0.962703 0.760201
f 87/285/38 85/284/38 96/283/38

vt 6.94059 2.51404
f 85/286/2 87/269/2 86/268/2

f 78/230/2 85/286/2 86/268/2

f 75/244/2 85/286/2 78/230/2

usemtl _Tile_Ceramic_Natural_14
vt 15.0807 12.8363
f 75/223/1 85/245/1 72/287/1

usemtl _7
vt 6.94214 3.71765
f 72/288/2 85/286/2 75/244/2

usemtl _Tile_Ceramic_Natural_14
f 72/287/1 85/245/1 10/14/1

usemtl _7
f 10/47/2 85/286/2 72/288/2

usemtl _Color_C03_3
vt 131.518 1.62015e-012
vn 0.99218 -2.2428e-014 -0.124817
v 21.2752 6.701 -12.1112
vt 126.428 118.11
vt 126.428 1.62015e-012
f 85/289/39 98/290/39 10/291/39

vt 131.518 118.11
f 98/290/39 85/289/39 97/292/39

usemtl _7
vt 3.05614 0.760201
vn -0.99218 2.2428e-014 0.124817
vt 3.05614 1.37641
vt 3.09835 0.760201
f 10/293/40 98/294/40 85/295/40

usemtl _Color_C03_3
v 21.2251 6.701 -11.992
vt 117.098 118.11
vn 0.921875 -1.00433e-014 0.387487
vt 122.188 6.37891e-013
vt 122.188 118.11
f 99/296/41 10/297/41 98/298/41

vt 117.098 6.66313e-013
f 10/297/41 99/296/41 11/299/41

usemtl _7
vt 6.29435 0.760201
vn -0.921875 1.00433e-014 -0.387487
vt 6.29435 1.37641
vt 6.33655 0.760201
f 11/300/42 99/301/42 10/302/42

usemtl _Color_C03_3
v 21.1222 6.701 -11.9138
vt 75.7759 118.11
vn 0.605063 -6.83632e-015 0.796178
vt 80.8655 4.36189e-013
vt 80.8655 118.11
f 100/303/43 11/304/43 99/305/43

vt 75.7759 -4.44884e-013
f 11/304/43 100/303/43 12/306/43

usemtl _7
vt 7.84381 0.760201
vn -0.605063 6.83632e-015 -0.796178
vt 7.84381 1.37641
vt 7.88601 0.760201
f 12/307/44 100/308/44 11/309/44

usemtl _Color_C03_3
vt 18.6003 118.11
vn 0.126457 5.93459e-015 0.991972
vt 15.2523 9.36195e-013
vt 18.6003 9.07773e-013
f 100/310/45 13/311/45 12/312/45

vt 15.2523 118.11
f 13/311/45 100/310/45 18/313/45

usemtl _7
vt 7.33241 0.760201
vn -0.126457 -5.93459e-015 -0.991972
vt 7.30465 0.760201
vt 7.33241 1.37641
f 12/314/46 13/315/46 100/316/46

vt 7.30465 1.37641
f 18/317/46 100/316/46 13/315/46

usemtl Color_D03
vt 120.409 2.27528e-013
f 18/26/3 14/41/3 13/318/3

usemtl _7
vt 3.88833 0.760201
f 13/319/4 14/42/4 18/40/4

vt 7.88601 1.37641
f 99/320/44 11/309/44 100/308/44

vt 6.33655 1.37641
f 98/321/42 10/302/42 99/301/42

vt 3.09835 1.37641
f 97/322/40 85/295/40 98/294/40

usemtl _Tile_Ceramic_Natural_14
vt 15.0836 12.8363
f 72/287/1 10/14/1 73/323/1

usemtl _7
vt 6.94348 3.71765
f 73/324/2 10/47/2 72/288/2

usemtl _Tile_Ceramic_Natural_14
f 73/323/1 10/14/1 9/13/1

usemtl _7
f 9/48/2 10/47/2 73/324/2

usemtl Color_D03
v 21.2194 6.701 -16.8621
vn 1 -2.59926e-014 0.000328946
vt 301.478 2.9753e-013
vt 315.651 2.9753e-013
f 101/234/47 86/325/47 78/326/47

v 21.2193 6.701 -16.5021
f 86/325/47 101/234/47 102/259/47

usemtl _7
vn -1 2.59926e-014 -0.000328946
vt 5.38985 0.760201
f 102/263/48 101/235/48 86/327/48

f 78/237/48 86/327/48 101/235/48

usemtl Color_D03
vt 7.07288 118.11
vn -0.000328946 -1.53908e-014 1
vt -0.013731 -4.5263e-012
vt 7.07288 -4.5263e-012
f 102/328/49 89/329/49 86/330/49

vt -0.013731 118.11
f 89/329/49 102/328/49 94/331/49

usemtl _7
vt 6.92585 0.760201
vn 0.000328946 1.53908e-014 -1
vt 6.86708 0.760201
vt 6.92585 1.37641
f 86/332/50 89/333/50 102/334/50

vt 6.86708 1.37641
f 94/335/50 102/334/50 89/333/50

usemtl Color_D03
vt 301.478 1.12642e-013
f 94/259/33 90/264/33 89/336/33

usemtl _7
f 89/327/34 90/265/34 94/263/34

usemtl _Color_C03_3
vt 47.3689 118.11
vn 0.123368 5.97922e-015 0.992361
vt 44.1491 2.20365e-012
vt 47.3689 2.20365e-012
f 77/337/51 79/338/51 76/339/51

vt 44.1491 118.11
f 79/338/51 77/337/51 83/340/51

usemtl _7
vt 7.56472 0.760201
vn -0.123368 -5.97922e-015 -0.992361
vt 7.53802 0.760201
vt 7.56472 1.37641
f 76/341/52 79/342/52 77/343/52

vt 7.53802 1.37641
f 83/344/52 77/343/52 79/342/52

usemtl Color_D03
vt 357.032 8.52815e-014
f 83/231/31 80/239/31 79/345/31

usemtl _7
vt 5.85053 0.760201
f 79/346/32 80/240/32 83/236/32

vt 9.0293 1.37641
f 77/347/30 74/220/30 76/219/30

vt 8.14617 1.37641
f 70/348/28 72/213/28 74/212/28

usemtl Color_D03
vt 97.3748 -1.9874e-012
f 25/190/25 27/349/25 29/188/25

usemtl _7
vt 7.67468 0.760201
f 29/191/26 27/350/26 25/192/26

f 36/90/2 29/70/2 51/137/2

f 48/136/2 36/90/2 51/137/2

f 41/150/14 45/119/14 46/118/14

usemtl _Tile_Ceramic_Natural_14
vt 20.5657 8.24312
f 36/89/1 37/91/1 45/351/1

usemtl _7
vt 9.46709 2.38737
f 45/352/2 37/92/2 36/90/2

usemtl _Tile_Ceramic_Natural_14
vt 20.5657 8.05837
f 45/351/1 37/91/1 44/353/1

usemtl _7
vt 9.46706 2.33387
f 44/354/2 37/92/2 45/352/2

usemtl Color_D03
f 37/94/11 43/107/11 44/109/11

f 37/94/11 39/96/11 43/107/11

usemtl _7
f 43/108/12 39/100/12 37/98/12

f 44/110/12 43/108/12 37/98/12

usemtl Color_D03
vt -313.372 8.05831e-013
vn 0.000328946 2.30986e-014 -1
f 35/355/53 34/74/53 38/128/53

vt -114.553 1.00226e-014
f 34/74/53 35/355/53 33/356/53

usemtl _7
vn -0.000328946 -2.30986e-014 1
f 33/77/54 35/130/54 34/78/54

f 38/184/54 34/78/54 35/130/54

vt -7.74531 1.37641
f 32/357/8 28/79/8 31/78/8

g Mesh2 LAB007 Model

l 7 8

l 6 7

l 25 6

l 25 27

l 25 69

l 71 69

l 8 71

l 9 8

l 9 73

l 73 72

l 75 72

l 76 75

l 79 76

l 80 79

l 81 80

l 81 82

l 82 78

l 82 84

l 84 83

l 79 83

l 83 77

l 76 77

l 77 74

l 75 74

l 74 70

l 70 54

l 72 70

l 53 54

l 51 53

l 51 57

l 51 55

l 55 54

l 55 56

l 57 56

l 57 67

l 52 67

l 52 61

l 58 61

l 49 58

l 48 49

l 36 48

l 36 45

l 36 46

l 46 41

l 46 47

l 48 47

l 47 50

l 49 50

l 50 56

l 45 41

l 44 45

l 37 44

l 35 37

l 33 35

l 30 33

l 28 30

l 26 28

l 24 26

l 22 24

l 22 23

l 5 23

l 21 5

l 21 1

l 1 3

l 2 3

l 4 2

l 16 4

l 15 16

l 14 15

l 13 14

l 13 12

l 13 18

l 18 100

l 18 17

l 16 17

l 17 19

l 20 19

l 4 20

l 12 100

l 12 11

l 11 10

l 11 99

l 100 99

l 99 98

l 10 98

l 10 85

l 85 87

l 85 97

l 98 97

l 97 96

l 87 96

l 87 88

l 88 92

l 88 95

l 96 95

l 91 92

l 90 91

l 89 90

l 89 86

l 89 94

l 94 102

l 94 93

l 92 93

l 86 102

l 78 86

l 78 101

l 101 102

l 28 32

l 32 31

l 30 31

l 31 34

l 33 34

l 34 38

l 35 38

l 38 41

l 29 53

l 27 29

g Mesh3 LAB007 Model

l 63 65

l 68 63

l 68 66

l 66 65

g Mesh4 LAB007 Model

l 62 64

l 60 62

l 59 60

l 59 64

g Mesh5 LAB007 Model

l 40 42

l 39 40

l 39 43

l 43 42

