# Alias OBJ Model File
# Exported from SketchUp, (c) 2000-2012 Trimble Navigation Limited
# File units = meters

mtllib LAB008.mtl

g Mesh1 LAB008 Model

usemtl Color_C04
v 21.1227 6.701 -23.419
vt 28.8254 118.11
vn 0.123334 5.03381e-016 0.992365
v 21.0416 3.701 -23.4089
vt 25.6059 2.88877e-012
v 21.1227 3.701 -23.419
vt 28.8254 2.88877e-012
f 1/1/1 2/2/1 3/3/1

v 21.0416 6.701 -23.4089
vt 25.6059 118.11
f 2/2/1 1/1/1 4/4/1

usemtl _7
vt 7.78643 0.760201
vn -0.123334 -5.03381e-016 -0.992365
vt 7.75973 0.760201
vt 7.78643 1.37641
f 3/5/2 2/6/2 1/7/2

usemtl _Tile_Ceramic_Natural_14
vt 14.9231 16.6021
vn 5.67195e-018 1 -7.91625e-016
v 21.221 3.701 -21.6713
vt 15.0504 15.3697
vt 14.9807 16.6092
f 2/8/3 5/9/3 3/10/3

v 21.0416 3.701 -23.4014
vt 14.9231 16.5967
f 6/11/3 5/9/3 2/8/3

v 21.0416 3.701 -23.3146
vt 14.9231 16.5352
f 7/12/3 5/9/3 6/11/3

v 21.041 3.701 -21.6714
vt 14.9227 15.3698
f 5/9/3 7/12/3 8/13/3

usemtl _7
vt 6.86941 4.45139
vn -5.67195e-018 -1 7.91625e-016
vt 6.86959 4.78892
vt 6.92818 4.45138
f 8/14/4 7/15/4 5/16/4

usemtl Color_D03
vt 207.091 118.11
vn 1 -2.84708e-016 0.000328946
vt 138.683 2.84217e-012
vt 203.377 2.78533e-012
f 4/17/5 8/18/5 7/19/5

v 21.041 6.701 -21.6714
vt 138.683 118.11
f 8/18/5 4/17/5 9/20/5

usemtl _7
vt 7.07746 1.37641
vn -1 2.84708e-016 -0.000328946
vt 7.64474 1.37641
vt 7.07746 0.760201
f 9/21/6 4/22/6 8/23/6

vt 7.61394 0.760201
f 7/24/6 8/23/6 4/22/6

usemtl Color_D03
vt 206.793 2.78533e-012
f 4/17/5 7/19/5 6/25/5

usemtl _7
vt 7.64227 0.760201
f 6/26/6 7/24/6 4/22/6

vt 6.8696 4.80674
f 6/27/4 5/16/4 7/15/4

vt 6.8696 4.80829
f 2/28/4 5/16/4 6/27/4

vt 6.89609 4.81036
f 3/29/4 5/16/4 2/28/4

usemtl _Tile_Ceramic_Natural_14
v 21.2234 3.701 -23.4951
vt 15.0521 16.6632
f 3/10/3 5/9/3 10/30/3

usemtl _7
vt 6.92896 4.82599
f 10/31/4 5/16/4 3/29/4

usemtl _Tile_Ceramic_Natural_14
v 21.2552 3.701 -18.2409
vt 15.0746 12.9368
f 5/9/3 11/32/3 10/30/3

v 21.2209 3.701 -21.4313
vt 15.0503 15.1995
f 12/33/3 11/32/3 5/9/3

v 21.1791 3.701 -18.3416
vt 15.0207 13.0082
f 12/33/3 13/34/3 11/32/3

v 21.0629 3.701 -18.3907
vt 14.9382 13.0431
f 12/33/3 14/35/3 13/34/3

v 21.0409 3.701 -21.4314
vt 14.9226 15.1995
f 15/36/3 14/35/3 12/33/3

v 21.04 3.701 -18.4679
vt 14.922 13.0978
f 16/37/3 14/35/3 15/36/3

v 21.0399 3.701 -18.3928
vt 14.9219 13.0446
f 17/38/3 14/35/3 16/37/3

v 21.0399 3.701 -18.3879
vt 14.9219 13.041
f 14/35/3 17/38/3 18/39/3

usemtl _7
vt 6.86906 3.77695
vt 6.86906 3.77797
vt 6.87657 3.77753
f 18/40/4 17/41/4 14/42/4

usemtl Color_D03
vt 9.6071 2.92744e-012
v 21.0399 6.701 -18.3879
vt 9.41218 118.11
vt 9.41218 2.92744e-012
f 17/43/5 19/44/5 18/45/5

v 21.0409 6.701 -21.4314
vt 129.234 118.11
f 19/44/5 17/43/5 20/46/5

usemtl _7
vt 6.00548 0.760201
vt 6.00548 1.37641
vt 6.0071 0.760201
f 18/47/6 19/48/6 17/49/6

usemtl _Color_C03_3
v 21.0629 6.701 -18.3907
vt -2.06959 118.11
vn -0.122939 -5.03434e-016 -0.992414
vt -1.15713 2.93214e-012
vt -1.15713 118.11
f 21/50/7 18/51/7 19/52/7

vt -2.06959 2.90372e-012
f 18/51/7 21/50/7 14/53/7

usemtl _7
vt -7.56255 0.760201
vn 0.122939 5.03434e-016 0.992414
vt -7.56255 1.37641
vt -7.55498 0.760201
f 14/54/8 21/55/8 18/56/8

usemtl _Color_C03_3
vt 2.87741 118.11
vn 0.389672 -6.09819e-016 -0.920954
vt -2.09039 2.90458e-012
vt 2.87741 2.90458e-012
f 21/57/9 13/58/9 14/59/9

v 21.1791 6.701 -18.3416
vt -2.09039 118.11
f 13/58/9 21/57/9 22/60/9

usemtl _7
vt -3.99335 0.760201
vn -0.389672 6.09819e-016 0.920954
vt -4.03454 0.760201
vt -3.99335 1.37641
f 14/61/10 13/62/10 21/63/10

vt 6.91451 3.76743
vt 6.92815 4.40208
f 13/64/4 14/42/4 12/65/4

vt 6.86939 4.40209
f 12/65/4 14/42/4 15/66/4

vt 6.86907 3.79338
f 15/66/4 14/42/4 16/67/4

f 16/67/4 14/42/4 17/41/4

usemtl Color_D03
vt 12.5621 2.89901e-012
f 20/46/5 17/43/5 16/68/5

usemtl _7
vt 6.99911 1.37641
f 20/69/6 17/49/6 19/48/6

vt 6.03161 0.760201
f 16/70/6 17/49/6 20/69/6

usemtl Color_D03
vt 129.234 3.72324e-012
f 20/46/5 16/68/5 15/71/5

usemtl _7
vt 6.99911 0.760201
f 15/72/6 16/70/6 20/69/6

usemtl Color_D03
vt -0.0030961 3.79338e-012
vn -0.000328946 5.42711e-016 1
v 21.2209 6.701 -21.4313
vt 7.08352 118.11
vt -0.0030961 118.11
f 15/73/11 23/74/11 20/75/11

vt 7.08352 3.76496e-012
f 23/74/11 15/73/11 12/76/11

usemtl _7
vt 6.92585 0.760201
vn 0.000328946 -5.42711e-016 -1
vt 6.86708 0.760201
vt 6.92585 1.37641
f 12/77/12 15/78/12 23/79/12

vt 6.86708 1.37641
f 20/80/12 23/79/12 15/78/12

usemtl Color_D03
vt 129.234 3.69684e-012
v 21.221 6.701 -21.6713
f 12/81/5 24/20/5 23/46/5

vt 138.683 2.84419e-012
f 24/20/5 12/81/5 5/82/5

usemtl _7
f 23/69/6 24/21/6 12/72/6

f 5/23/6 12/72/6 24/21/6

vt 6.93934 3.74675
f 5/16/4 11/83/4 12/65/4

f 10/31/4 11/83/4 5/16/4

usemtl _Tile_Ceramic_Natural_14
v 21.2725 3.701 -23.6113
vt 15.0869 16.7456
f 10/30/3 11/32/3 25/84/3

usemtl _7
vt 6.945 4.84986
f 25/85/4 11/83/4 10/31/4

usemtl _Tile_Ceramic_Natural_14
v 21.2604 3.701 -18.1992
vt 15.0783 12.9072
f 25/84/3 11/32/3 26/86/3

usemtl _7
vt 6.94103 3.73819
f 26/87/4 11/83/4 25/85/4

usemtl _Color_C03_3
vt 2.55339 2.90211e-012
vn 0.992388 -3.49543e-016 -0.123153
v 21.2604 6.701 -18.1992
vt 0.899521 118.11
vt 0.899521 2.90211e-012
f 11/88/13 27/89/13 26/90/13

v 21.2552 6.701 -18.2409
vt 2.55339 118.11
f 27/89/13 11/88/13 28/91/13

usemtl _7
vt 5.04158 0.760201
vn -0.992388 3.49543e-016 0.123153
vt 5.04158 1.37641
vt 5.0553 0.760201
f 26/92/14 27/93/14 11/94/14

usemtl Color_D03
vt -8.67823 118.11
vn 0.000328946 6.74101e-015 -1
v 21.2679 3.701 -18.1992
vt -8.97462 2.88562e-012
vt -8.67823 2.88562e-012
f 27/95/15 29/96/15 26/97/15

v 21.3322 3.701 -18.1992
vt -11.5079 2.88562e-012
f 29/96/15 27/95/15 30/98/15

usemtl _7
vt -6.93907 0.760201
vn -0.000328946 -6.74101e-015 1
vt -6.94153 0.760201
vt -6.93907 1.37641
f 26/99/16 29/100/16 27/101/16

usemtl _Tile_Ceramic_Natural_14
vt 15.0836 12.9072
f 25/84/3 26/86/3 29/102/3

usemtl _7
vt 6.94349 3.73819
f 29/103/4 26/87/4 25/85/4

usemtl _Tile_Ceramic_Natural_14
vt 15.1293 12.9072
f 25/84/3 29/102/3 30/104/3

usemtl _7
vt 6.96449 3.73819
f 30/105/4 29/103/4 25/85/4

vt -6.96254 0.760201
f 30/106/16 27/101/16 29/100/16

usemtl Color_D03
v 21.4648 3.701 -18.1991
vt -16.7279 2.88562e-012
f 30/98/15 27/95/15 31/107/15

usemtl _7
vt -7.00583 0.760201
f 31/108/16 27/101/16 30/106/16

usemtl Color_D03
v 21.4648 5.801 -18.1991
vt -16.7279 82.6772
f 31/107/15 27/95/15 32/109/15

usemtl _7
vt -7.00583 1.19155
f 32/110/16 27/101/16 31/108/16

usemtl Color_D03
v 28.5999 6.701 -18.1968
vt -297.635 118.11
f 32/109/15 27/95/15 33/111/15

usemtl _7
vt -9.33525 1.37641
f 33/112/16 27/101/16 32/110/16

usemtl Color_D03
v 22.4148 5.801 -18.1988
vt -54.1295 82.6772
f 33/111/15 34/113/15 32/109/15

v 22.4148 3.701 -18.1988
vt -54.1295 3.70985e-012
f 33/111/15 35/114/15 34/113/15

v 28.5999 3.701 -18.1968
vt -297.635 2.80036e-012
f 35/114/15 33/111/15 36/115/15

usemtl _7
vt -9.33525 0.760201
vt -7.31598 0.760201
f 36/116/16 33/112/16 35/117/16

usemtl Color_D03
v 28.5999 6.701 -18.2701
vt -4.87501 118.11
vt -1.98631 2.89849e-012
vt -1.98631 118.11
f 37/118/6 36/119/6 33/120/6

v 28.5999 3.701 -18.2701
vt -4.87501 3.0406e-012
f 36/119/6 37/118/6 38/121/6

usemtl _7
vt -5.9439 1.37641
vt -5.9439 0.760201
vt -5.96786 1.37641
f 33/122/5 36/123/5 37/124/5

vt -5.96786 0.760201
f 38/125/5 37/124/5 36/123/5

usemtl Color_D03
v 28.9999 3.701 -18.27
vt -313.383 3.69747e-012
vt -297.635 2.9585e-012
f 37/111/12 39/126/12 38/127/12

v 28.9999 6.701 -18.27
vt -313.383 118.11
f 39/126/12 37/111/12 40/128/12

usemtl _7
vt -9.46584 0.760201
f 38/116/11 39/129/11 37/112/11

usemtl _Tile_Ceramic_Natural_14
v 29 3.701 -18.4923
vt 20.5674 13.1151
vt 20.2836 12.9576
vt 20.5673 12.9575
f 41/130/3 38/131/3 39/132/3

v 29.0015 3.701 -23.2923
vt 20.5685 16.5194
f 42/133/3 38/131/3 41/130/3

v 29.0016 3.701 -23.4923
vt 20.5685 16.6612
f 43/134/3 38/131/3 42/133/3

v 28.5816 3.701 -23.4924
vt 20.2706 16.6613
f 44/135/3 38/131/3 43/134/3

vt 20.2836 12.9055
f 44/135/3 36/136/3 38/131/3

v 23.7617 3.701 -23.714
vt 16.8523 16.8185
f 45/137/3 36/136/3 44/135/3

v 22.9118 3.701 -24.1643
vt 16.2495 17.1378
f 46/138/3 36/136/3 45/137/3

v 22.9118 3.701 -24.1143
vt 16.2495 17.1023
f 47/139/3 36/136/3 46/138/3

v 22.9117 3.701 -23.7143
vt 16.2494 16.8187
f 48/140/3 36/136/3 47/139/3

vt 15.897 12.907
f 48/140/3 35/141/3 36/136/3

v 21.7117 3.701 -23.7147
vt 15.3984 16.8189
f 49/142/3 35/141/3 48/140/3

v 22.4148 3.701 -18.1488
vt 15.897 12.8715
f 49/142/3 50/143/3 35/141/3

vt 15.2233 12.9072
f 31/144/3 50/143/3 49/142/3

v 21.4648 3.701 -18.1591
vt 15.2233 12.8788
f 51/145/3 50/143/3 31/144/3

v 21.4648 3.701 -18.1491
vt 15.2233 12.8717
f 50/143/3 51/145/3 52/146/3

usemtl _7
vt 7.00778 3.72791
vt 7.00778 3.72996
vt 7.31793 3.72784
f 52/147/4 51/148/4 50/149/4

vt 7.00778 3.73818
f 31/150/4 50/149/4 51/148/4

vt 7.08837 4.8711
f 49/151/4 50/149/4 31/150/4

vt 7.31794 3.73811
f 35/152/4 50/149/4 49/151/4

usemtl _Tile_Ceramic_Natural_14
v 22.4148 3.701 -18.1588
vt 15.897 12.8786
f 35/141/3 50/143/3 53/153/3

usemtl _7
vt 7.31793 3.7299
f 53/154/4 50/149/4 35/152/4

vt 7.48014 4.87102
f 48/155/4 35/152/4 49/151/4

vt 9.33721 3.7377
f 36/156/4 35/152/4 48/155/4

vt 7.48018 4.95318
f 47/157/4 36/156/4 48/155/4

vt 7.48019 4.96345
f 46/158/4 36/156/4 47/157/4

vt 7.75765 4.87096
f 45/159/4 36/156/4 46/158/4

vt 9.33125 4.82545
f 44/160/4 36/156/4 45/159/4

vt 9.33722 3.75277
f 38/161/4 36/156/4 44/160/4

vt 9.46837 4.82542
f 43/162/4 38/161/4 44/160/4

vt 9.46835 4.78434
f 42/163/4 38/161/4 43/162/4

vt 9.46783 3.7984
f 41/164/4 38/161/4 42/163/4

vt 9.46781 3.75274
f 39/165/4 38/161/4 41/164/4

usemtl Color_D03
v 29 4.351 -18.4923
vt -13.6264 25.5906
vn -1 1.73394e-015 -0.000328946
vt -13.6264 3.41398e-012
vt -4.87501 4.23821e-012
f 54/166/17 41/167/17 39/168/17

v 29.0007 4.351 -20.6923
vt -100.241 25.5906
f 41/167/17 54/166/17 55/169/17

usemtl _7
vn 1 -1.73394e-015 0.000328946
vt -6.04043 0.760201
vt -6.04043 0.893714
f 39/125/18 41/170/18 54/171/18

vt -6.75868 0.893714
f 55/172/18 54/171/18 41/170/18

usemtl Color_D03
v 29.0007 3.701 -20.6923
vt -100.241 3.32872e-012
f 41/167/17 55/169/17 56/173/17

usemtl _7
vt -6.75868 0.760201
f 56/174/18 55/172/18 41/170/18

usemtl Color_D03
v 29.0008 5.751 -21.0923
vt -115.989 80.7087
f 55/169/17 57/175/17 56/173/17

v 29.0007 5.751 -20.6923
vt -100.241 80.7087
f 58/176/17 57/175/17 55/169/17

v 29.0016 6.701 -23.4923
vt -210.477 118.11
f 58/176/17 59/177/17 57/175/17

v 29 5.751 -18.4923
vt -13.6264 80.7087
f 60/178/17 59/177/17 58/176/17

f 60/178/17 40/118/17 59/177/17

f 40/118/17 60/178/17 39/168/17

usemtl _7
vt -6.04043 1.18128
f 39/125/18 60/179/18 40/124/18

usemtl Color_D03
f 39/168/17 60/178/17 54/166/17

usemtl _7
f 54/171/18 60/179/18 39/125/18

vt -7.67282 1.37641
f 59/180/18 40/124/18 60/179/18

vt -6.75868 1.18128
f 58/181/18 59/180/18 60/179/18

vt -6.88927 1.18128
f 57/182/18 59/180/18 58/181/18

usemtl Color_D03
v 29.0015 5.751 -23.2923
vt -202.603 80.7087
f 57/175/17 59/177/17 61/183/17

usemtl _7
vt -7.60752 1.18128
f 61/184/18 59/180/18 57/182/18

usemtl Color_D03
v 29.0015 4.351 -23.2923
vt -202.603 25.5906
f 61/183/17 59/177/17 62/185/17

usemtl _7
vt -7.60752 0.893714
f 62/186/18 59/180/18 61/184/18

usemtl Color_D03
vt -202.603 3.24345e-012
f 62/185/17 59/177/17 42/187/17

usemtl _7
vt -7.60752 0.760201
f 42/188/18 59/180/18 62/186/18

usemtl Color_D03
vt -210.477 4.12452e-012
f 42/187/17 59/177/17 43/189/17

usemtl _7
vt -7.67282 0.760201
f 43/190/18 59/180/18 42/188/18

usemtl Color_D03
v 28.5816 6.701 -23.4924
vt 296.847 118.11
vt 313.383 3.69536e-012
vt 313.383 118.11
f 63/191/11 43/192/11 59/193/11

vt 296.847 2.84271e-012
f 43/192/11 63/191/11 44/194/11

usemtl _7
vt 9.32872 0.760201
vt 9.32872 1.37641
vt 9.46584 0.760201
f 44/195/12 63/196/12 43/197/12

usemtl Color_D03
v 28.5817 3.701 -23.7124
vt -219.138 3.63723e-012
vt -210.477 2.813e-012
f 63/177/6 64/198/6 44/199/6

v 28.5817 6.701 -23.7124
vt -219.138 118.11
f 64/198/6 63/177/6 65/200/6

usemtl _7
vt -7.74464 0.760201
f 44/190/5 64/201/5 63/180/5

usemtl _Tile_Ceramic_Natural_14
vt 20.2707 16.8173
f 64/202/3 45/137/3 44/135/3

usemtl _7
vt 9.33127 4.87064
f 44/160/4 45/159/4 64/203/4

usemtl Color_D03
vt 296.847 3.67164e-012
v 23.7617 6.701 -23.714
vt 107.084 118.11
vt 107.084 2.90426e-012
f 64/204/11 66/205/11 45/206/11

f 66/205/11 64/204/11 65/191/11

usemtl _7
vt 7.7551 0.760201
vt 7.7551 1.37641
f 45/207/12 66/208/12 64/195/12

usemtl Color_D03
v 23.7618 6.701 -24.114
vt -234.886 118.11
vn -1 9.35291e-007 -0.000326242
vt -219.138 0.000100155
f 67/209/19 45/210/19 66/200/19

v 23.7618 3.701 -24.114
vt -234.886 0.000100155
f 45/210/19 67/209/19 68/211/19

usemtl BackColor
vn 1 -9.35291e-007 0.000326242
f 66/200/20 45/210/20 67/209/20

f 68/211/20 67/209/20 45/210/20

usemtl Color_D03
v 23.7618 5.801 -24.114
vt -234.886 82.6773
f 68/211/19 67/209/19 69/212/19

usemtl BackColor
f 69/212/20 67/209/20 68/211/20

usemtl Color_D03
v 22.9118 5.801 -24.1143
vt 73.619 82.6772
vt 107.084 82.6772
f 67/205/11 70/213/11 69/214/11

v 22.9118 6.701 -24.1143
vt 73.619 118.11
f 70/213/11 67/205/11 71/215/11

usemtl _7
vt 7.7551 1.19155
vt 7.4776 1.19155
f 69/216/12 70/217/12 67/208/12

vt 7.4776 1.37641
f 71/218/12 67/208/12 70/217/12

usemtl Color_D03
vt 234.886 118.11
vn 1 -1.09285e-006 0.000328318
v 22.9117 6.701 -23.7143
vt 219.138 118.11
vt 234.886 82.6772
f 71/219/21 72/220/21 70/221/21

usemtl _7
vt 7.87523 1.19156
vn -1 1.09285e-006 -0.000328318
vt 7.74464 1.37642
vt 7.87523 1.37642
f 70/222/22 72/223/22 71/224/22

usemtl Color_D03
vt 234.886 8.04537e-005
f 72/220/21 47/225/21 70/221/21

vt 219.138 8.04543e-005
f 47/225/21 72/220/21 48/226/21

usemtl _7
vt 7.74464 0.760206
vt 7.87523 0.760206
f 48/227/22 72/223/22 47/228/22

usemtl Color_D03
vt 26.3749 9.44125e-012
vt 73.619 2.87583e-012
f 72/215/11 49/229/11 48/230/11

v 21.2597 6.701 -23.7148
vt 8.58028 118.11
f 73/231/11 49/229/11 72/215/11

v 21.2597 3.701 -23.7148
vt 8.58028 2.90426e-012
f 74/232/11 49/229/11 73/231/11

v 21.2646 3.701 -23.7148
vt 8.77449 2.90426e-012
f 75/233/11 49/229/11 74/232/11

v 21.3675 3.701 -23.7148
vt 12.8253 2.90426e-012
f 49/229/11 75/233/11 76/234/11

usemtl _7
vt 6.97346 0.760201
vt 6.93987 0.760201
vt 7.08582 0.760201
f 76/235/12 75/236/12 49/237/12

usemtl _Tile_Ceramic_Natural_14
vt 15.0813 16.819
vt 15.1543 16.819
f 75/238/3 25/84/3 76/239/3

vt 15.0778 16.819
f 25/84/3 75/238/3 74/240/3

usemtl _7
vt 6.94081 4.87113
vt 6.94242 4.87113
f 74/241/4 75/242/4 25/85/4

vt 6.93826 0.760201
f 74/243/12 49/237/12 75/236/12

vt 6.93826 1.37641
f 73/244/12 49/237/12 74/243/12

f 72/218/12 49/237/12 73/244/12

vt 7.4776 0.760201
f 48/245/12 49/237/12 72/218/12

usemtl Color_C04
v 21.2725 6.701 -23.6113
vt 212.295 118.11
vn 0.99239 -3.49621e-016 -0.123135
vt 216.402 2.79776e-012
vt 216.402 118.11
f 77/246/23 74/247/23 73/248/23

vt 212.295 2.79776e-012
f 74/247/23 77/246/23 25/249/23

usemtl _7
vt 6.79472 0.760201
vn -0.99239 3.49621e-016 0.123135
vt 6.79472 1.37641
vt 6.82878 0.760201
f 25/250/24 77/251/24 74/252/24

usemtl Color_C04
v 21.2234 6.701 -23.4951
vt 196.675 118.11
vn 0.921028 -5.16877e-017 0.389495
vt 201.643 2.78143e-012
vt 201.643 118.11
f 78/253/25 25/254/25 77/255/25

vt 196.675 2.78143e-012
f 25/254/25 78/253/25 10/256/25

usemtl _7
vt 9.76365 0.760201
vn -0.921028 5.16877e-017 -0.389495
vt 9.76365 1.37641
vt 9.80485 0.760201
f 10/257/26 78/258/26 25/259/26

usemtl Color_C04
vt 132.671 118.11
vn 0.60294 2.607e-016 0.797787
vt 127.704 2.82797e-012
vt 132.671 2.82797e-012
f 78/260/27 3/261/27 10/262/27

vt 127.704 118.11
f 3/261/27 78/260/27 1/263/27

usemtl _7
vt 10.1527 0.760201
vn -0.60294 -2.607e-016 -0.797787
vt 10.1116 0.760201
vt 10.1527 1.37641
f 10/264/28 3/265/28 78/266/28

vt 10.1116 1.37641
f 1/267/28 78/266/28 3/265/28

vt 9.80485 1.37641
f 77/268/26 25/259/26 78/258/26

vt 6.82878 1.37641
f 73/269/24 74/252/24 77/251/24

vt 6.97601 4.87112
f 76/270/4 25/85/4 75/242/4

usemtl _Tile_Ceramic_Natural_14
f 76/239/3 25/84/3 30/104/3

usemtl _7
f 30/105/4 25/85/4 76/270/4

usemtl _Tile_Ceramic_Natural_14
f 76/239/3 30/104/3 31/144/3

usemtl _7
f 31/150/4 30/105/4 76/270/4

usemtl _Tile_Ceramic_Natural_14
f 76/239/3 31/144/3 49/142/3

usemtl _7
f 49/151/4 31/150/4 76/270/4

f 70/222/22 47/228/22 72/223/22

usemtl Color_D03
v 22.9119 5.801 -24.2343
vt 239.611 82.6772
f 70/221/21 47/225/21 79/271/21

usemtl _7
vt 7.91441 1.19156
f 79/272/22 47/228/22 70/222/22

usemtl Color_D03
vt 236.855 8.04543e-005
f 79/271/21 47/225/21 46/273/21

usemtl _7
vt 7.89155 0.760206
f 46/274/22 47/228/22 79/272/22

usemtl Color_D03
v 22.9118 3.701 -24.1943
vt 238.036 8.04543e-005
f 79/271/21 46/273/21 80/275/21

usemtl _7
vt 7.90135 0.760206
f 80/276/22 46/274/22 79/272/22

usemtl Color_D03
v 22.9119 3.701 -24.2343
vt 239.611 8.04543e-005
f 79/271/21 80/275/21 81/277/21

usemtl _7
vt 7.91441 0.760206
f 81/278/22 80/276/22 79/272/22

usemtl Color_D03
v 23.7618 3.701 -24.164
vt -236.854 0.000100155
f 68/211/19 69/212/19 82/279/19

usemtl BackColor
f 82/279/20 69/212/20 68/211/20

usemtl Color_D03
v 23.7619 5.801 -24.234
vt -239.61 82.6773
f 82/279/19 69/212/19 83/280/19

usemtl BackColor
f 83/280/20 69/212/20 82/279/20

usemtl Color_D03
v 23.7618 3.701 -24.1643
vt -236.865 0.000100154
f 82/279/19 83/280/19 84/281/19

usemtl BackColor
f 84/281/20 83/280/20 82/279/20

usemtl Color_D03
v 23.7618 3.701 -24.194
vt -238.036 0.000100155
f 84/281/19 83/280/19 85/282/19

usemtl BackColor
f 85/282/20 83/280/20 84/281/20

usemtl Color_D03
v 23.7619 3.701 -24.234
vt -239.61 0.000100155
f 85/282/19 83/280/19 86/283/19

usemtl BackColor
f 86/283/20 83/280/20 85/282/20

usemtl _Tile_Ceramic_Natural_14
vt 16.8524 17.1376
vt 16.8524 17.1021
f 82/284/3 45/137/3 68/285/3

f 45/137/3 82/284/3 46/138/3

usemtl _7
vt 7.7577 4.96339
f 46/158/4 82/286/4 45/159/4

vt 7.75769 4.95312
f 68/287/4 45/159/4 82/286/4

f 65/196/12 64/195/12 66/208/12

vt -7.74464 1.37641
f 65/288/5 63/180/5 64/201/5

vt 9.46584 1.37641
f 59/289/12 43/197/12 63/196/12

usemtl Color_D03
v 29.0008 3.701 -21.0923
vt -115.989 4.15295e-012
f 87/290/17 62/185/17 42/187/17

v 29.0008 4.351 -21.0923
vt -115.989 25.5906
f 87/290/17 88/291/17 62/185/17

f 87/290/17 57/175/17 88/291/17

f 57/175/17 87/290/17 56/173/17

usemtl _7
vt -6.88927 0.760201
f 56/174/18 87/292/18 57/182/18

usemtl _Tile_Ceramic_Natural_14
vt 20.568 14.9591
vt 20.5679 14.6754
f 87/293/3 41/130/3 56/294/3

f 42/133/3 41/130/3 87/293/3

usemtl _7
vt 9.46811 4.33245
f 87/295/4 41/164/4 42/163/4

vt 9.46807 4.25029
f 56/296/4 41/164/4 87/295/4

f 42/188/18 62/186/18 87/292/18

vt -6.88927 0.893714
f 62/186/18 88/297/18 87/292/18

f 88/297/18 57/182/18 87/292/18

f 56/174/18 57/182/18 55/172/18

f 55/172/18 57/182/18 58/181/18

vt -9.46584 1.37641
f 40/298/11 37/112/11 39/129/11

vt -7.31598 1.19155
f 34/299/16 35/117/16 33/112/16

f 32/110/16 34/299/16 33/112/16

vt 5.0553 1.37641
f 28/300/14 11/94/14 27/93/14

usemtl _Color_C03_3
vt 2.75121 2.90397e-012
vn 0.7979 -5.54116e-016 -0.60279
vt -2.21659 118.11
vt -2.21659 2.90397e-012
f 13/301/29 28/302/29 11/303/29

vt 2.75121 118.11
f 28/302/29 13/301/29 22/304/29

usemtl _7
vt 0.568709 0.760201
vn -0.7979 5.54116e-016 0.60279
vt 0.568709 1.37641
vt 0.609905 0.760201
f 11/305/30 28/306/30 13/307/30

vt 0.609905 1.37641
f 22/308/30 13/307/30 28/306/30

vt -4.03454 1.37641
f 22/309/10 21/63/10 13/62/10

f 11/83/4 13/64/4 12/65/4

usemtl Color_D03
vt -7.08352 2.91744e-012
vt 0.0030961 118.11
vt -7.08352 118.11
f 5/310/12 9/311/12 24/312/12

vt 0.0030961 2.91744e-012
f 9/311/12 5/310/12 8/313/12

usemtl _7
vt -6.86708 0.760201
vt -6.92585 0.760201
vt -6.86708 1.37641
f 8/314/11 5/315/11 9/316/11

vt -6.92585 1.37641
f 24/317/11 9/316/11 5/315/11

vt -7.55498 1.37641
f 19/318/8 18/56/8 21/55/8

usemtl Color_D03
vt 207.091 2.78533e-012
f 4/17/5 6/25/5 2/319/5

usemtl _7
vt 7.64474 0.760201
f 2/320/6 6/26/6 4/22/6

vt 7.75973 1.37641
f 4/321/2 1/7/2 2/6/2

g Mesh2 LAB008 Model

l 3 1

l 2 3

l 2 4

l 6 2

l 7 6

l 7 8

l 8 9

l 8 5

l 5 24

l 5 12

l 12 23

l 15 12

l 15 20

l 15 16

l 17 16

l 18 17

l 18 19

l 14 18

l 14 21

l 13 14

l 11 13

l 26 11

l 29 26

l 30 29

l 30 31

l 31 51

l 31 32

l 32 34

l 35 34

l 35 53

l 35 36

l 36 38

l 36 33

l 33 37

l 27 33

l 26 27

l 27 28

l 11 28

l 28 22

l 13 22

l 22 21

l 21 19

l 19 20

l 20 23

l 24 23

l 9 24

l 4 9

l 4 1

l 1 78

l 10 78

l 10 25

l 3 10

l 25 77

l 25 74

l 75 74

l 76 75

l 76 49

l 49 48

l 47 48

l 47 46

l 46 82

l 80 46

l 81 80

l 81 79

l 79 70

l 70 71

l 69 70

l 69 67

l 83 69

l 86 83

l 85 86

l 84 85

l 68 82

l 68 45

l 45 64

l 45 66

l 66 65

l 67 66

l 67 71

l 71 72

l 48 72

l 72 73

l 74 73

l 77 73

l 78 77

l 64 65

l 44 64

l 44 43

l 44 63

l 63 65

l 63 59

l 43 59

l 42 43

l 87 42

l 87 56

l 41 56

l 39 41

l 38 39

l 38 37

l 37 40

l 39 40

l 40 59

l 53 50

l 50 52

l 51 52

g Mesh3 LAB008 Model

l 57 61

l 88 57

l 88 62

l 62 61

g Mesh4 LAB008 Model

l 58 60

l 55 58

l 54 55

l 54 60

