# Alias OBJ Model File
# Exported from SketchUp, (c) 2000-2012 Trimble Navigation Limited
# File units = meters

mtllib COM006.mtl

g Mesh1 COM006 Model

usemtl FrontColor
v 21.2106 3.015 -11.8984
vt 0 118.701
vn 0 0 -1
v 22.0562 0 -11.8984
vt -33.2886 1.95614e-030
v 21.2106 0 -11.8984
vt 0 1.95614e-030
f 1/1/1 2/2/1 3/3/1

v 22.0562 2.009 -11.8984
vt -33.2886 79.0945
f 2/2/1 1/1/1 4/4/1

usemtl _Tile_Ceramic_Natural_3
vt -263.342 29.8927
vn -0 -0 1
vt -265.423 29.8927
vt -263.342 37.3115
f 3/5/2 2/6/2 1/7/2

usemtl FrontColor
vt -33.2886 109.011
vn 3.4449e-033 -1 -4.26666e-033
v 21.2106 0 -10.9891
vt -6.73869e-063 73.2137
vt -6.73869e-063 109.011
f 2/8/3 5/9/3 3/10/3

v 21.521 0 -10.9891
vt -12.2183 73.2137
f 5/9/3 2/8/3 6/11/3

usemtl _Tile_Ceramic_Natural_3
vn -3.4449e-033 1 4.26666e-033
vt -263.342 27.6553
f 3/5/4 5/12/4 2/6/4

usemtl FrontColor
vt -73.2137 1.95614e-030
vn -1 0 -0
vt -109.011 118.701
vt -109.011 1.95614e-030
f 5/13/5 1/14/5 3/15/5

v 21.2106 3.015 -10.9891
vt -73.2137 118.701
f 1/14/5 5/13/5 7/16/5

usemtl _Tile_Ceramic_Natural_3
vt -261.105 37.3115
vn 1 -0 0
vt -261.105 29.8927
f 7/17/6 5/18/6 1/7/6

usemtl FrontColor
vn 0 0 1
v 21.521 3.015 -10.9891
vt 12.2183 118.701
f 5/3/7 8/19/7 7/1/7

vt 12.2183 1.95614e-030
f 8/19/7 5/3/7 6/20/7

usemtl _Tile_Ceramic_Natural_3
vt -158.196 0.615157
vn -0 -0 -1
vt -158.959 0.615157
vt -158.196 8.03396
f 6/21/8 5/22/8 8/23/8

vt -264.106 27.6553
f 6/24/4 2/6/4 5/12/4

usemtl FrontColor
v 21.521 0 -9.12949
vt -12.2183 8.16659e-063
f 6/11/3 2/8/3 9/25/3

usemtl _Tile_Ceramic_Natural_3
vt -264.106 23.0794
f 9/26/4 2/6/4 6/24/4

usemtl FrontColor
v 23.9175 0 -9.12949
vt -106.571 6.77977e-063
f 9/25/3 2/8/3 10/27/3

usemtl _Tile_Ceramic_Natural_3
vt -270.003 23.0794
f 10/28/4 2/6/4 9/26/4

usemtl FrontColor
v 22.8126 0 -11.8984
vt -63.0703 109.011
f 10/27/3 2/8/3 11/29/3

usemtl _Tile_Ceramic_Natural_3
vt -267.284 29.8927
f 11/30/4 2/6/4 10/28/4

usemtl FrontColor
v 22.8126 0 -12.0399
vt -63.0703 114.584
f 11/29/3 2/8/3 12/31/3

usemtl _Tile_Ceramic_Natural_3
vt -267.284 30.2409
f 12/32/4 2/6/4 11/30/4

usemtl FrontColor
v 22.0562 0 -12.0399
vt -33.2886 114.584
f 12/31/3 2/8/3 13/33/3

usemtl _Tile_Ceramic_Natural_3
vt -265.423 30.2409
f 13/34/4 2/6/4 12/32/4

usemtl FrontColor
v 22.0562 2.009 -12.0399
vt -114.584 79.0945
vt -114.584 1.95614e-030
f 2/15/5 14/35/5 13/36/5

vt -109.011 79.0945
f 14/35/5 2/15/5 4/37/5

usemtl _Tile_Ceramic_Natural_3
vt -240.428 34.8361
vt -240.428 29.8927
vt -240.777 34.8361
f 4/38/6 2/39/6 14/40/6

vt -265.423 34.8361
f 4/41/2 1/7/2 2/6/2

usemtl FrontColor
v 22.8126 2.009 -11.8984
vt -63.0703 79.0945
f 4/4/1 1/1/1 15/42/1

usemtl _Tile_Ceramic_Natural_3
vt -267.284 34.8361
f 15/43/2 1/7/2 4/41/2

usemtl FrontColor
v 23.0897 2.572 -11.8984
vt -73.9787 101.26
f 15/42/1 1/1/1 16/44/1

usemtl _Tile_Ceramic_Natural_3
vt -267.966 36.2214
f 16/45/2 1/7/2 15/43/2

usemtl FrontColor
v 23.0897 3.015 -11.8984
vt -73.9787 118.701
f 16/44/1 1/1/1 17/46/1

usemtl _Tile_Ceramic_Natural_3
vt -267.966 37.3115
f 17/47/2 1/7/2 16/45/2

usemtl FrontColor
v 23.0897 3.015 -14.1135
vt -196.22 118.701
vt -109.011 101.26
f 18/48/5 16/49/5 17/14/5

v 23.0897 2.572 -12.0399
vt -114.584 101.26
f 16/49/5 18/48/5 19/50/5

usemtl _Tile_Ceramic_Natural_3
vt -153.987 8.03396
vt -153.987 6.9439
vt -159.438 8.03396
f 17/51/6 16/52/6 18/53/6

vt -154.336 6.9439
f 19/54/6 18/53/6 16/52/6

usemtl FrontColor
v 23.0897 0 -12.0399
f 19/50/5 18/48/5 20/36/5

usemtl _Tile_Ceramic_Natural_3
vt -154.336 0.615157
f 20/55/6 18/53/6 19/54/6

usemtl FrontColor
v 23.0897 0 -14.1135
vt -196.22 1.95614e-030
f 20/36/5 18/48/5 21/56/5

usemtl _Tile_Ceramic_Natural_3
vt -159.438 0.615157
f 21/57/6 18/53/6 20/55/6

usemtl FrontColor
v 23.9175 0 -14.1135
vt -106.571 1.95614e-030
vt -73.9787 1.95614e-030
f 18/46/1 22/58/1 21/59/1

v 23.9175 3.015 -14.1135
vt -106.571 118.701
f 22/58/1 18/46/1 23/60/1

usemtl _Tile_Ceramic_Natural_3
vt -267.966 35.3432
vt -270.003 35.3432
vt -267.966 42.762
f 21/61/2 22/62/2 18/63/2

usemtl FrontColor
vt -106.571 196.22
vt -73.9787 114.584
vt -73.9787 196.22
f 22/64/3 20/65/3 21/66/3

v 23.174 0 -12.0399
vt -77.296 114.584
f 20/65/3 22/64/3 24/67/3

usemtl _Tile_Ceramic_Natural_3
vt -267.966 30.2409
f 21/61/4 20/68/4 22/62/4

vt -268.173 30.2409
f 24/69/4 22/62/4 20/68/4

usemtl FrontColor
v 23.174 0 -11.8984
vt -77.296 109.011
f 24/67/3 22/64/3 25/70/3

usemtl _Tile_Ceramic_Natural_3
vt -268.173 29.8927
f 25/71/4 22/62/4 24/69/4

usemtl FrontColor
v 23.844 0 -12.0399
vt -103.677 114.584
f 25/70/3 22/64/3 26/72/3

usemtl _Tile_Ceramic_Natural_3
vt -269.822 30.2409
f 26/73/4 22/62/4 25/71/4

usemtl FrontColor
v 23.9175 0 -12.0399
vt -106.571 114.584
f 26/72/3 22/64/3 27/74/3

usemtl _Tile_Ceramic_Natural_3
vt -270.003 30.2409
f 27/75/4 22/62/4 26/73/4

usemtl FrontColor
vt 196.22 1.95614e-030
vn 1 0 -0
v 23.9175 2.572 -12.0399
vt 114.584 101.26
vt 114.584 1.95614e-030
f 22/76/9 28/77/9 27/78/9

vt 196.22 118.701
f 23/79/9 28/77/9 22/76/9

v 23.9175 2.572 -11.8984
vt 109.011 101.26
f 23/79/9 29/80/9 28/77/9

v 23.9175 3.015 -9.12949
f 30/1/9 29/80/9 23/79/9

v 23.9175 0 -11.8984
vt 109.011 1.95614e-030
f 30/1/9 31/81/9 29/80/9

f 31/81/9 30/1/9 10/3/9

usemtl _Tile_Ceramic_Natural_3
vn -1 -0 0
vt -277.422 23.0794
vt -270.003 29.8927
f 10/28/10 30/82/10 31/83/10

usemtl FrontColor
vt 106.571 118.701
vt 106.571 1.95614e-030
f 30/84/7 9/20/7 10/85/7

v 21.521 3.015 -9.12949
f 9/20/7 30/84/7 32/19/7

usemtl _Tile_Ceramic_Natural_3
vt -152.299 0.615157
vt -152.299 8.03396
f 10/86/8 9/21/8 30/87/8

f 32/23/8 30/87/8 9/21/8

usemtl FrontColor
vt -4.80974e-014 118.701
vn -1 3.58373e-015 -3.93652e-015
v 21.521 2.009 -9.30224
vt -6.80138 79.0945
vt -4.80974e-014 4.37869e-014
f 32/88/11 33/89/11 9/90/11

f 33/89/11 32/88/11 8/16/11

usemtl _Tile_Ceramic_Natural_3
vn 1 -3.58373e-015 3.93652e-015
vt -259.163 23.5045
vt -256.687 23.0794
f 9/26/12 33/91/12 32/92/12

usemtl FrontColor
v 21.521 -4.96859e-032 -9.30224
vt -6.80138 4.37869e-014
f 34/93/11 9/90/11 33/89/11

usemtl _Tile_Ceramic_Natural_3
vt -264.106 23.5045
f 33/91/12 9/26/12 34/94/12

usemtl FrontColor
v 21.521 -4.96859e-032 -10.0587
vt -12.2183 36.5831
vt -12.2183 6.80138
f 35/95/3 9/25/3 34/96/3

f 9/25/3 35/95/3 6/11/3

usemtl _Tile_Ceramic_Natural_3
vt -264.106 25.3659
f 34/94/4 9/26/4 35/97/4

f 6/24/4 35/97/4 9/26/4

usemtl FrontColor
v 21.521 2.009 -10.0587
vt -36.5831 79.0945
vt -73.2137 4.37869e-014
vt -36.5831 4.37869e-014
f 36/98/11 6/99/11 35/100/11

f 6/99/11 36/98/11 8/16/11

usemtl _Tile_Ceramic_Natural_3
vt -259.163 25.3659
f 35/97/12 6/24/12 36/101/12

vt -256.687 27.6553
f 8/102/12 36/101/12 6/24/12

usemtl FrontColor
f 33/89/11 8/16/11 36/98/11

usemtl _Tile_Ceramic_Natural_3
f 8/102/12 32/92/12 33/91/12

f 36/101/12 8/102/12 33/91/12

vt -276.332 29.8927
f 29/103/10 31/83/10 30/82/10

usemtl FrontColor
v 23.844 2.572 -11.8984
vt -103.677 101.26
vt -106.571 101.26
f 31/58/1 37/104/1 29/105/1

v 23.844 0 -11.8984
vt -103.677 1.95614e-030
f 37/104/1 31/58/1 38/106/1

usemtl _Tile_Ceramic_Natural_3
vt -269.822 29.8927
vt -269.822 36.2214
f 38/107/2 31/83/2 37/108/2

usemtl FrontColor
vt -103.677 109.011
vt -106.571 109.011
f 10/27/3 38/109/3 31/110/3

f 10/27/3 25/70/3 38/109/3

v 23.0897 0 -11.8984
vt -73.9787 109.011
f 10/27/3 39/111/3 25/70/3

f 10/27/3 11/29/3 39/111/3

usemtl _Tile_Ceramic_Natural_3
vt -267.966 29.8927
f 39/112/4 11/30/4 10/28/4

usemtl FrontColor
vt -63.0703 1.95614e-030
f 15/42/1 39/59/1 11/113/1

f 39/59/1 15/42/1 16/44/1

usemtl _Tile_Ceramic_Natural_3
f 11/30/2 39/112/2 15/43/2

f 16/45/2 15/43/2 39/112/2

usemtl FrontColor
vt -77.296 1.95614e-030
f 16/44/1 25/114/1 39/59/1

v 23.174 2.572 -11.8984
vt -77.296 101.26
f 25/114/1 16/44/1 40/115/1

usemtl _Tile_Ceramic_Natural_3
f 39/112/2 25/71/2 16/45/2

f 25/71/4 39/112/4 10/28/4

f 38/107/4 25/71/4 10/28/4

usemtl FrontColor
f 38/109/3 25/70/3 26/72/3

usemtl _Tile_Ceramic_Natural_3
f 26/73/4 25/71/4 38/107/4

usemtl FrontColor
f 26/78/9 37/80/9 38/81/9

v 23.844 2.572 -12.0399
f 37/80/9 26/78/9 41/77/9

usemtl _Tile_Ceramic_Natural_3
vt -269.474 29.8927
f 38/107/10 37/108/10 26/116/10

vt -269.474 36.2214
f 41/117/10 26/116/10 37/108/10

usemtl FrontColor
vt 103.677 1.95614e-030
vt 106.571 101.26
vt 103.677 101.26
f 26/118/7 28/119/7 41/120/7

f 28/119/7 26/118/7 27/85/7

usemtl _Tile_Ceramic_Natural_3
vt -152.479 0.615157
vt -152.299 6.9439
f 27/86/8 26/121/8 28/122/8

vt -152.479 6.9439
f 41/123/8 28/122/8 26/121/8

vt -276.332 30.2409
f 27/75/10 28/124/10 22/62/10

vt -277.422 35.3432
f 22/62/10 28/124/10 23/125/10

f 28/124/10 29/103/10 23/125/10

f 23/125/10 29/103/10 30/82/10

vt -270.003 42.762
f 23/126/2 18/63/2 22/62/2

f 31/83/4 38/107/4 10/28/4

vt -268.173 36.2214
f 40/127/2 16/45/2 25/71/2

usemtl FrontColor
v 23.174 2.572 -12.0399
f 42/50/5 25/15/5 40/49/5

f 25/15/5 42/50/5 24/36/5

usemtl _Tile_Ceramic_Natural_3
vt -153.78 6.9439
vt -153.78 0.615157
vt -154.128 6.9439
f 40/128/6 25/129/6 42/130/6

vt -154.128 0.615157
f 24/131/6 42/130/6 25/129/6

usemtl FrontColor
vt 77.296 101.26
vt 73.9787 1.95614e-030
vt 77.296 1.95614e-030
f 42/132/7 20/133/7 24/134/7

vt 73.9787 101.26
f 20/133/7 42/132/7 19/135/7

usemtl _Tile_Ceramic_Natural_3
f 24/131/8 20/55/8 42/130/8

f 19/54/8 42/130/8 20/55/8

usemtl FrontColor
vt 109.011 79.0945
f 12/78/9 15/136/9 11/81/9

v 22.8126 2.009 -12.0399
vt 114.584 79.0945
f 15/136/9 12/78/9 43/137/9

usemtl _Tile_Ceramic_Natural_3
vt -181.873 29.8927
vt -181.873 34.8361
vt -181.525 29.8927
f 11/138/10 15/139/10 12/140/10

vt -181.525 34.8361
f 43/141/10 12/140/10 15/139/10

usemtl FrontColor
vt 63.0703 1.95614e-030
v 22.9482 3.015 -12.0399
vt 68.4063 118.701
vt 63.0703 79.0945
f 12/142/7 44/143/7 43/144/7

v 22.9482 0 -12.0399
vt 68.4063 1.95614e-030
f 44/143/7 12/142/7 45/145/7

usemtl _Tile_Ceramic_Natural_3
vt -154.684 0.615157
vt -155.017 0.615157
vt -154.684 8.03396
f 45/146/8 12/147/8 44/148/8

usemtl FrontColor
vn 0 -1 -0
v 22.9482 0 -14.1135
vt -68.4063 196.22
vt -68.4063 114.584
f 12/31/13 46/149/13 45/150/13

f 13/33/13 46/149/13 12/31/13

v 21.2106 0 -12.0399
vt 0 114.584
f 47/151/13 46/149/13 13/33/13

v 21.2106 0 -14.1135
vt 0 196.22
f 46/149/13 47/151/13 48/152/13

usemtl _Tile_Ceramic_Natural_3
vt -263.342 35.3432
vn -0 1 0
vt -263.342 30.2409
vt -267.618 35.3432
f 48/153/14 47/154/14 46/155/14

usemtl FrontColor
v 21.2106 2.32911 -14.1135
vt -196.22 91.6972
f 47/36/5 49/156/5 48/56/5

v 21.2106 2.80411 -14.1135
vt -196.22 110.398
f 49/156/5 47/36/5 50/157/5

usemtl _Tile_Ceramic_Natural_3
vt -164.062 0.615157
vt -164.062 6.34623
f 48/158/6 49/159/6 47/22/6

usemtl FrontColor
vt 3.41723e-013 91.6972
vn 1.74153e-015 2.95532e-015 -1
vt -68.4063 -5.79895e-013
vt 3.41723e-013 -5.79895e-013
f 49/160/15 46/161/15 48/162/15

v 22.6664 2.32911 -14.1135
vt -57.3119 91.6972
f 46/161/15 49/160/15 51/163/15

usemtl _Tile_Ceramic_Natural_3
vn -1.74153e-015 -2.95532e-015 1
vt -263.342 41.0743
f 48/153/16 46/155/16 49/164/16

vt -266.924 41.0743
f 51/165/16 49/164/16 46/155/16

usemtl Translucent_Glass_Blue
vt 1.1677e-012 110.398
vn 5.95096e-015 0 -1
vt 1.1677e-012 91.6972
f 50/166/17 51/163/17 49/167/17

v 22.6664 2.80411 -14.1135
vt -57.3119 110.398
f 51/163/17 50/166/17 52/168/17

vn -5.95096e-015 -0 1
f 49/167/18 51/163/18 50/166/18

f 52/168/18 50/166/18 51/163/18

usemtl FrontColor
v 21.2106 3.015 -14.1135
vt 3.41723e-013 118.701
vt 3.41723e-013 110.398
f 53/169/15 52/168/15 50/170/15

v 22.9482 3.015 -14.1135
vt -68.4063 118.701
f 54/171/15 52/168/15 53/169/15

f 54/171/15 51/163/15 52/168/15

f 46/161/15 51/163/15 54/171/15

usemtl _Tile_Ceramic_Natural_3
vt -267.618 42.762
f 54/172/16 51/165/16 46/155/16

vt -266.924 42.2431
f 52/173/16 51/165/16 54/172/16

vt -263.342 42.762
f 53/174/16 52/173/16 54/172/16

vt -263.342 42.2431
f 50/175/16 52/173/16 53/174/16

usemtl FrontColor
f 47/36/5 53/48/5 50/157/5

v 21.2106 3.015 -12.0399
vt -114.584 118.701
f 53/48/5 47/36/5 55/176/5

usemtl _Tile_Ceramic_Natural_3
vt -158.959 8.03396
vt -164.062 8.03396
f 55/177/6 47/22/6 53/178/6

usemtl FrontColor
vt 33.2886 79.0945
f 47/3/7 14/179/7 55/1/7

vt 33.2886 1.95614e-030
f 14/179/7 47/3/7 13/180/7

usemtl _Tile_Ceramic_Natural_3
vt -156.879 0.615157
vt -156.879 5.55856
f 13/181/8 47/22/8 14/182/8

f 13/34/14 46/155/14 47/154/14

f 12/32/14 46/155/14 13/34/14

vt -267.618 30.2409
f 45/183/14 46/155/14 12/32/14

usemtl FrontColor
vt 114.584 118.701
f 46/76/9 44/184/9 45/78/9

f 44/184/9 46/76/9 54/79/9

usemtl _Tile_Ceramic_Natural_3
vt -272.72 35.3432
vt -272.72 42.762
f 45/185/10 44/186/10 46/155/10

f 54/172/10 46/155/10 44/186/10

f 55/177/8 14/182/8 47/22/8

usemtl FrontColor
f 55/1/7 14/179/7 44/143/7

usemtl _Tile_Ceramic_Natural_3
f 44/148/8 14/182/8 55/177/8

usemtl FrontColor
f 43/144/7 44/143/7 14/179/7

usemtl _Tile_Ceramic_Natural_3
vt -155.017 5.55856
f 43/187/8 44/148/8 12/147/8

f 14/182/8 44/148/8 43/187/8

usemtl FrontColor
vt 33.2886 114.584
vn 0 1 -0
vt 63.0703 109.011
vt 63.0703 114.584
f 14/188/19 15/189/19 43/190/19

vt 33.2886 109.011
f 15/189/19 14/188/19 4/191/19

usemtl _Tile_Ceramic_Natural_3
vt -156.879 59.1702
vn -0 -1 0
vt -156.879 59.5184
vt -155.017 59.1702
f 4/192/20 14/193/20 15/194/20

vt -155.017 59.5184
f 43/195/20 15/194/20 14/193/20

vt -240.777 29.8927
f 13/196/6 14/40/6 2/39/6

vt -164.062 7.51503
f 50/197/6 53/178/6 47/22/6

f 50/197/6 47/22/6 49/159/6

vt -270.003 36.2214
f 29/198/2 37/108/2 31/83/2

f 7/177/8 8/23/8 5/22/8

f 3/5/6 1/7/6 5/18/6

g Mesh2 COM006 Model

l 8 7

l 32 8

l 32 30

l 9 32

l 9 34

l 9 10

l 10 30

l 10 31

l 31 29

l 38 31

l 26 38

l 26 27

l 26 41

l 41 28

l 41 37

l 38 37

l 37 29

l 29 28

l 27 28

l 27 22

l 21 22

l 21 18

l 20 21

l 20 19

l 20 24

l 24 42

l 24 25

l 39 25

l 39 16

l 11 39

l 15 11

l 15 4

l 15 43

l 43 14

l 43 12

l 12 45

l 13 12

l 47 13

l 48 47

l 48 46

l 48 49

l 49 50

l 49 51

l 51 52

l 52 50

l 50 53

l 53 54

l 53 55

l 47 55

l 55 44

l 44 54

l 45 44

l 45 46

l 46 54

l 2 13

l 2 4

l 3 2

l 3 1

l 5 3

l 6 5

l 6 8

l 35 6

l 36 35

l 33 36

l 34 33

l 34 35

l 5 7

l 7 1

l 1 17

l 17 18

l 16 17

l 16 40

l 19 16

l 19 42

l 42 40

l 25 40

l 18 23

l 23 30

l 22 23

l 4 14

l 13 14

l 11 12

