# Alias OBJ Model File
# Exported from SketchUp, (c) 2000-2012 Trimble Navigation Limited
# File units = meters

mtllib COM005.mtl

g Mesh1 COM005 Model

usemtl FrontColor
v 21.0091 0 -12.0399
vt 114.584 7.82455e-029
vn 1 0 -0
v 21.0091 2.572 -11.8984
vt 109.011 101.26
v 21.0091 0 -11.8984
vt 109.011 7.82455e-029
f 1/1/1 2/2/1 3/3/1

v 21.0091 2.572 -12.0399
vt 114.584 101.26
f 2/2/1 1/1/1 4/4/1

usemtl _Tile_Ceramic_Natural_3
vt -159.804 0.615157
vn -1 -0 0
vt -159.804 6.9439
vt -159.455 0.615157
f 3/5/2 2/6/2 1/7/2

vt -159.455 6.9439
f 4/8/2 1/7/2 2/6/2

usemtl FrontColor
vt 144.981 7.82455e-029
vn 0 0 1
v 21.0691 2.572 -12.0399
vt 147.344 101.26
vt 144.981 101.26
f 1/9/3 5/10/3 4/11/3

v 21.0691 0 -12.0399
vt 147.344 7.82455e-029
f 5/10/3 1/9/3 6/12/3

usemtl _Tile_Ceramic_Natural_3
vt -159.308 0.615157
vn -0 -0 -1
vt -159.308 6.9439
f 6/13/4 1/7/4 5/14/4

usemtl FrontColor
vt -144.981 114.584
vn -6.67015e-032 -1 -1.95685e-031
v 21.0691 0 -14.1135
vt -147.344 196.22
vt -147.344 114.584
f 1/15/5 7/16/5 6/17/5

v 20.2704 0 -11.8984
vt -115.899 109.011
f 8/18/5 7/16/5 1/15/5

v 20.2704 0 -12.0399
vt -115.899 114.584
f 9/19/5 7/16/5 8/18/5

v 20.2086 0 -12.0399
vt -113.468 114.584
f 10/20/5 7/16/5 9/19/5

v 20.2086 0 -14.1135
vt -113.468 196.22
f 7/16/5 10/20/5 11/21/5

usemtl _Tile_Ceramic_Natural_3
vt -161.425 -11.6486
vn 6.67015e-032 1 1.95685e-031
vt -161.425 -6.54633
vt -159.308 -11.6486
f 11/22/6 10/23/6 7/24/6

usemtl FrontColor
vt -196.22 7.82455e-029
vn -1 0 -0
vt -114.584 7.82455e-029
v 20.2086 2.32911 -14.1135
vt -196.22 91.6972
f 11/25/7 10/26/7 12/27/7

usemtl _Tile_Ceramic_Natural_3
vt -260.877 41.0743
vn 1 -0 0
vt -255.774 35.3432
vt -260.877 35.3432
f 12/28/8 10/29/8 11/30/8

usemtl FrontColor
v 20.2086 2.572 -14.1135
vt -196.22 101.26
f 10/26/7 13/31/7 12/27/7

v 20.2086 2.572 -12.0399
vt -114.584 101.26
f 13/31/7 10/26/7 14/32/7

usemtl _Tile_Ceramic_Natural_3
vt -255.774 41.672
vt -260.877 41.672
f 14/33/8 10/29/8 13/34/8

usemtl FrontColor
vt 113.468 7.82455e-029
v 20.2704 2.572 -12.0399
vt 115.899 101.26
vt 113.468 101.26
f 10/35/3 15/36/3 14/37/3

vt 115.899 7.82455e-029
f 15/36/3 10/35/3 9/38/3

usemtl _Tile_Ceramic_Natural_3
vt -161.273 0.615157
vt -161.425 0.615157
vt -161.273 6.9439
f 9/39/4 10/40/4 15/41/4

vt -161.273 -6.54633
f 9/42/6 7/24/6 10/23/6

vt -161.273 -6.19805
f 8/43/6 7/24/6 9/42/6

vt -159.455 -6.54633
f 1/44/6 7/24/6 8/43/6

vt -159.308 -6.54633
f 6/45/6 7/24/6 1/44/6

vt -257.892 35.3432
vn -1 -2.41898e-031 -5.65033e-032
v 21.0691 2.32911 -14.1135
vt -262.994 41.0743
vt -262.994 35.3432
f 6/46/9 16/47/9 7/48/9

v 21.0691 2.80411 -14.1135
vt -262.994 42.2431
f 16/47/9 6/46/9 17/49/9

usemtl BackColor
vt -196.22 4.26032e-029
vn 1 2.41898e-031 5.65033e-032
vt -114.584 4.26032e-029
f 7/50/10 16/27/10 6/51/10

usemtl FrontColor
vt -147.344 -1.21638e-012
vn 1.34236e-014 6.19904e-015 -1
vt -113.468 91.6972
vt -147.344 91.6972
f 7/52/11 12/53/11 16/54/11

vt -113.468 -1.21638e-012
f 12/53/11 7/52/11 11/55/11

usemtl _Tile_Ceramic_Natural_3
vn -1.34236e-014 -6.19904e-015 1
f 11/30/12 7/48/12 12/28/12

f 16/47/12 12/28/12 7/48/12

usemtl Translucent_Glass_Blue
vt -113.468 101.26
vn 4.56947e-015 -3.81159e-015 -1
f 13/56/13 16/54/13 12/53/13

vt -147.344 110.398
f 16/54/13 13/56/13 17/57/13

vn -4.56947e-015 3.81159e-015 1
f 12/53/14 16/54/14 13/56/14

f 17/57/14 13/56/14 16/54/14

v 19.1978 2.80411 -14.1135
vt -73.6722 110.398
f 17/57/13 13/56/13 18/58/13

f 18/58/14 13/56/14 17/57/14

v 20.0671 2.572 -14.1135
vt -107.895 101.26
f 19/59/13 18/58/13 13/56/13

v 20.0671 2.32911 -14.1135
vt -107.895 91.6972
f 20/60/13 18/58/13 19/59/13

v 19.1978 2.32911 -14.1135
vt -73.6722 91.6972
f 18/58/13 20/60/13 21/61/13

f 21/61/14 20/60/14 18/58/14

usemtl FrontColor
v 20.0671 0 -14.1135
vt -107.895 -1.45965e-012
vn 0 7.43884e-015 -1
f 22/62/15 21/61/15 20/60/15

v 19.1978 0 -14.1135
vt -73.6722 -1.45965e-012
f 21/61/15 22/62/15 23/63/15

usemtl _Tile_Ceramic_Natural_3
vt -258.39 35.3432
vn -0 -7.43884e-015 1
vt -260.528 35.3432
vt -258.39 41.0743
f 23/64/16 22/65/16 21/66/16

usemtl FrontColor
vt -107.895 196.22
v 19.1978 0 -12.0399
vt -73.6722 114.584
vt -73.6722 196.22
f 22/67/5 24/68/5 23/69/5

v 19.269 0 -12.0399
vt -76.4756 114.584
f 24/68/5 22/67/5 25/70/5

usemtl _Tile_Ceramic_Natural_3
vt -163.912 -11.6486
vt -163.912 -6.54633
vt -161.773 -11.6486
f 23/71/6 24/72/6 22/73/6

usemtl FrontColor
f 24/26/7 21/27/7 23/25/7

vt -196.22 110.398
f 21/27/7 24/26/7 18/74/7

usemtl _Tile_Ceramic_Natural_3
vt -169.014 0.615157
vt -169.014 6.34623
vt -163.912 0.615157
f 23/75/8 21/76/8 24/77/8

vt -169.014 7.51503
f 18/78/8 24/77/8 21/76/8

usemtl FrontColor
v 19.1978 3.015 -14.1135
vt -196.22 118.701
f 24/26/7 26/79/7 18/74/7

v 19.1978 2.572 -12.0399
f 27/32/7 26/79/7 24/26/7

v 19.1978 2.572 -11.8984
vt -109.011 101.26
f 28/80/7 26/79/7 27/32/7

v 19.1978 3.015 -11.8984
vt -109.011 118.701
f 26/79/7 28/80/7 29/81/7

usemtl _Tile_Ceramic_Natural_3
vt -163.564 8.03396
vt -163.564 6.9439
vt -169.014 8.03396
f 29/82/8 28/83/8 26/84/8

usemtl FrontColor
vt -73.6722 101.26
vn 0 0 -1
v 17.3265 3.015 -11.8984
vt 0 118.701
vt -73.6722 118.701
f 28/85/17 30/86/17 29/87/17

v 18.8989 2.009 -11.8984
vt -61.9044 79.0945
f 31/88/17 30/86/17 28/85/17

v 18.1425 2.009 -11.8984
vt -32.1227 79.0945
f 32/89/17 30/86/17 31/88/17

v 18.1425 0 -11.8984
vt -32.1227 7.82455e-029
f 33/90/17 30/86/17 32/89/17

v 17.3265 0 -11.8984
vt 0 7.82455e-029
f 30/86/17 33/90/17 34/91/17

usemtl _Tile_Ceramic_Natural_3
vt -253.785 29.8927
vn -0 -0 1
vt -255.793 29.8927
vt -253.785 37.3115
f 34/92/18 33/93/18 30/94/18

usemtl FrontColor
vt -32.1227 109.011
v 17.3265 0 -9.12949
vt 5.2191e-060 1.53115e-059
vt 5.2191e-060 109.011
f 33/95/5 35/96/5 34/97/5

v 19.816 0 -9.12949
vt -98.0091 1.65908e-059
f 35/96/5 33/95/5 36/98/5

usemtl _Tile_Ceramic_Natural_3
vt -168.517 -6.19805
vt -168.517 0.615157
vt -166.509 -6.19805
f 34/99/6 35/100/6 33/101/6

usemtl FrontColor
vt -109.011 7.82455e-029
f 35/91/7 30/81/7 34/102/7

v 17.3265 3.015 -9.12949
f 30/81/7 35/91/7 37/86/7

usemtl _Tile_Ceramic_Natural_3
vt -168.517 8.03396
vt -175.33 8.03396
f 37/103/8 35/100/8 30/104/8

usemtl FrontColor
v 19.816 3.015 -9.12949
vt 98.0091 118.701
f 35/91/3 38/105/3 37/86/3

vt 98.0091 7.82455e-029
f 38/105/3 35/91/3 36/106/3

usemtl _Tile_Ceramic_Natural_3
vt -162.391 0.615157
vt -162.391 8.03396
f 36/107/4 35/100/4 38/108/4

f 36/107/6 33/101/6 35/100/6

usemtl FrontColor
v 18.8989 0 -11.8984
vt -61.9044 109.011
f 36/98/5 33/95/5 39/109/5

usemtl _Tile_Ceramic_Natural_3
vt -164.648 -6.19805
f 39/110/6 33/101/6 36/107/6

usemtl FrontColor
v 18.8989 0 -12.0399
vt -61.9044 114.584
f 39/109/5 33/95/5 40/111/5

usemtl _Tile_Ceramic_Natural_3
vt -164.648 -6.54633
f 40/112/6 33/101/6 39/110/6

usemtl FrontColor
v 18.1425 0 -12.0399
vt -32.1227 114.584
f 40/111/5 33/95/5 41/113/5

usemtl _Tile_Ceramic_Natural_3
vt -166.509 -6.54633
f 41/114/6 33/101/6 40/112/6

usemtl FrontColor
v 18.1425 2.009 -12.0399
vt -114.584 79.0945
f 33/102/7 42/115/7 41/26/7

vt -109.011 79.0945
f 42/115/7 33/102/7 32/116/7

usemtl _Tile_Ceramic_Natural_3
vt -240.428 34.8361
vt -240.428 29.8927
vt -240.777 34.8361
f 32/117/8 33/118/8 42/119/8

vt -255.793 34.8361
f 32/120/18 30/94/18 33/93/18

vt -257.654 34.8361
f 31/121/18 30/94/18 32/120/18

vt -258.39 36.2214
f 28/122/18 30/94/18 31/121/18

vt -258.39 37.3115
f 29/123/18 30/94/18 28/122/18

usemtl FrontColor
v 19.1978 0 -11.8984
vt -73.6722 7.82455e-029
f 43/124/17 31/88/17 28/85/17

vt -61.9044 7.82455e-029
f 31/88/17 43/124/17 39/125/17

usemtl _Tile_Ceramic_Natural_3
vt -257.654 29.8927
vt -258.39 29.8927
f 39/126/18 43/127/18 31/121/18

usemtl FrontColor
vt -73.6722 109.011
f 36/98/5 39/109/5 43/128/5

usemtl _Tile_Ceramic_Natural_3
vt -163.912 -6.19805
f 43/129/6 39/110/6 36/107/6

usemtl FrontColor
v 19.269 0 -11.8984
vt -76.4756 109.011
f 36/98/5 43/128/5 44/130/5

usemtl _Tile_Ceramic_Natural_3
vt -163.737 -6.19805
f 44/131/6 43/129/6 36/107/6

usemtl FrontColor
vt -76.4756 7.82455e-029
f 28/85/17 44/132/17 43/124/17

v 19.269 2.572 -11.8984
vt -76.4756 101.26
f 44/132/17 28/85/17 45/133/17

usemtl _Tile_Ceramic_Natural_3
vt -258.565 29.8927
f 43/127/18 44/134/18 28/122/18

vt -258.565 36.2214
f 45/135/18 28/122/18 44/134/18

usemtl FrontColor
v 19.269 2.572 -12.0399
f 46/32/7 44/102/7 45/80/7

f 44/102/7 46/32/7 25/26/7

usemtl _Tile_Ceramic_Natural_3
vt -163.389 6.9439
vt -163.389 0.615157
vt -163.737 6.9439
f 45/136/8 44/137/8 46/138/8

vt -163.737 0.615157
f 25/139/8 46/138/8 44/137/8

usemtl FrontColor
vt 76.4756 101.26
vt 73.6722 7.82455e-029
vt 76.4756 7.82455e-029
f 46/140/3 24/141/3 25/142/3

vt 73.6722 101.26
f 24/141/3 46/140/3 27/143/3

usemtl _Tile_Ceramic_Natural_3
f 25/139/4 24/77/4 46/138/4

vt -163.737 -6.54633
f 25/144/6 22/73/6 24/72/6

usemtl FrontColor
f 25/70/5 22/67/5 44/130/5

usemtl _Tile_Ceramic_Natural_3
f 44/131/6 22/73/6 25/144/6

usemtl FrontColor
v 19.816 0 -10.9891
vt -98.0091 73.2137
f 44/130/5 22/67/5 47/145/5

usemtl _Tile_Ceramic_Natural_3
vt -162.391 -3.9607
f 47/146/6 22/73/6 44/131/6

usemtl FrontColor
v 20.0075 0 -12.0399
vt -105.551 114.584
f 47/145/5 22/67/5 48/147/5

usemtl _Tile_Ceramic_Natural_3
vt -161.92 -6.54633
f 48/148/6 22/73/6 47/146/6

usemtl FrontColor
v 20.0671 0 -12.0399
vt -107.895 114.584
f 48/147/5 22/67/5 49/149/5

usemtl _Tile_Ceramic_Natural_3
vt -161.773 -6.54633
f 49/150/6 22/73/6 48/148/6

usemtl FrontColor
vt 196.22 7.82455e-029
v 20.0671 2.572 -12.0399
f 22/151/1 50/4/1 49/1/1

vt 196.22 91.6972
f 50/4/1 22/151/1 20/152/1

usemtl _Tile_Ceramic_Natural_3
vt -161.773 0.615157
vt -161.773 6.9439
vt -156.671 0.615157
f 49/153/2 50/154/2 22/155/2

usemtl FrontColor
vt 107.895 101.26
vt 105.551 7.82455e-029
vt 107.895 7.82455e-029
f 50/156/3 48/157/3 49/158/3

v 20.0075 2.572 -12.0399
vt 105.551 101.26
f 48/157/3 50/156/3 51/159/3

usemtl _Tile_Ceramic_Natural_3
vt -161.92 0.615157
f 49/153/4 48/160/4 50/154/4

vt -161.92 6.9439
f 51/161/4 50/154/4 48/160/4

usemtl FrontColor
v 20.0075 2.572 -11.8984
f 52/2/1 48/1/1 51/4/1

v 20.0075 0 -11.8984
f 48/1/1 52/2/1 53/3/1

usemtl _Tile_Ceramic_Natural_3
vt -162.268 0.615157
vt -162.268 6.9439
f 53/162/2 52/163/2 48/160/2

usemtl FrontColor
vt -105.551 101.26
vt -115.899 7.82455e-029
vt -105.551 7.82455e-029
f 52/164/17 8/165/17 53/166/17

v 20.2704 2.572 -11.8984
vt -115.899 101.26
f 8/165/17 52/164/17 54/167/17

usemtl _Tile_Ceramic_Natural_3
vt -260.382 29.8927
vt -261.029 29.8927
vt -260.382 36.2214
f 53/168/18 8/169/18 52/170/18

usemtl FrontColor
v 21.0691 0 -10.9891
vt -147.344 73.2137
vt -105.551 109.011
f 55/171/5 53/172/5 8/18/5

f 47/145/5 53/172/5 55/171/5

f 53/172/5 47/145/5 48/147/5

usemtl _Tile_Ceramic_Natural_3
vt -159.308 -3.9607
vt -161.92 -6.19805
f 55/173/6 53/174/6 47/146/6

f 8/43/6 53/174/6 55/173/6

usemtl FrontColor
vt -144.981 109.011
f 55/171/5 8/18/5 3/175/5

usemtl _Tile_Ceramic_Natural_3
vt -159.455 -6.19805
f 3/176/6 8/43/6 55/173/6

usemtl FrontColor
f 3/175/5 8/18/5 1/15/5

usemtl _Tile_Ceramic_Natural_3
f 1/44/6 8/43/6 3/176/6

usemtl FrontColor
v 21.0691 0 -11.8984
vt -147.344 109.011
f 55/171/5 3/175/5 56/177/5

usemtl _Tile_Ceramic_Natural_3
vt -159.308 -6.19805
f 56/178/6 3/176/6 55/173/6

vt -257.543 35.3432
vt -255.306 35.3432
v 21.0691 2.572 -11.8984
vt -257.543 41.672
f 56/179/9 55/180/9 57/181/9

usemtl BackColor
vt -73.2137 4.26032e-029
vt -109.011 4.26032e-029
f 57/80/10 55/182/10 56/183/10

usemtl _Tile_Ceramic_Natural_3
v 21.0691 3.015 -10.9891
vt -255.306 42.762
f 58/184/9 57/181/9 55/180/9

v 21.0691 3.015 -14.1135
vt -262.994 42.762
f 57/181/9 58/184/9 59/185/9

usemtl BackColor
vt -73.2137 118.701
f 55/182/10 57/80/10 58/186/10

f 59/79/10 58/186/10 57/80/10

usemtl _Tile_Ceramic_Natural_3
vt -257.892 41.672
f 57/181/9 59/185/9 5/187/9

usemtl BackColor
f 5/32/10 59/79/10 57/80/10

usemtl _Tile_Ceramic_Natural_3
f 5/187/9 59/185/9 6/46/9

usemtl BackColor
f 6/51/10 59/79/10 5/32/10

usemtl _Tile_Ceramic_Natural_3
f 6/46/9 59/185/9 17/49/9

usemtl BackColor
f 17/74/10 59/79/10 6/51/10

usemtl FrontColor
vn 6.17257e-015 -6.84628e-014 -1
vt -147.344 118.701
f 17/57/19 26/87/19 59/188/19

f 26/87/19 17/57/19 18/58/19

usemtl _Tile_Ceramic_Natural_3
vt -258.39 42.2431
vn -6.17257e-015 6.84628e-014 1
vt -258.39 42.762
f 18/189/20 17/49/20 26/190/20

f 59/185/20 26/190/20 17/49/20

f 18/78/8 26/84/8 24/77/8

vt -163.912 6.9439
f 24/77/8 26/84/8 27/191/8

f 27/191/8 26/84/8 28/83/8

f 27/191/4 46/138/4 24/77/4

usemtl BackColor
f 17/74/10 6/51/10 16/27/10

usemtl FrontColor
vt 147.344 118.701
f 58/192/3 47/106/3 55/12/3

v 19.816 3.015 -10.9891
f 47/106/3 58/192/3 60/105/3

usemtl _Tile_Ceramic_Natural_3
vt -159.308 8.03396
f 55/13/4 47/107/4 58/193/4

f 60/108/4 58/193/4 47/107/4

usemtl FrontColor
vt 73.2137 118.701
vn 1 1.4895e-015 8.41428e-016
v 19.816 2.009 -10.0587
vt 36.5831 79.0945
vt 73.2137 -1.45985e-013
f 60/194/21 61/195/21 47/196/21

v 19.816 2.009 -9.30224
vt 6.80138 79.0945
f 60/194/21 62/197/21 61/195/21

vt 8.24676e-014 118.701
f 38/198/21 62/197/21 60/194/21

v 19.816 -1.98744e-030 -9.30224
vt 6.80138 -1.45985e-013
f 38/198/21 63/199/21 62/197/21

vt 8.24676e-014 -1.45985e-013
f 63/199/21 38/198/21 36/200/21

usemtl _Tile_Ceramic_Natural_3
vt -166.967 0.615157
vn -1 -1.4895e-015 -8.41428e-016
vt -166.967 8.03396
vt -166.542 0.615157
f 36/201/22 38/202/22 63/203/22

vt -166.542 5.55856
f 62/204/22 63/203/22 38/202/22

f 60/108/22 62/204/22 38/202/22

vt -164.68 5.55856
f 61/205/22 62/204/22 60/108/22

f 47/107/22 61/205/22 60/108/22

usemtl FrontColor
v 19.816 -1.98744e-030 -10.0587
vt 36.5831 -1.45985e-013
f 47/196/21 61/195/21 64/206/21

usemtl _Tile_Ceramic_Natural_3
vt -164.68 0.615157
f 64/207/22 61/205/22 47/107/22

usemtl FrontColor
vt -98.0091 36.5831
vt -98.0091 6.80138
f 64/208/5 63/209/5 47/145/5

usemtl _Tile_Ceramic_Natural_3
vt -162.391 0.190071
vt -162.391 -1.67129
f 47/146/6 63/210/6 64/211/6

usemtl FrontColor
f 36/98/5 47/145/5 63/209/5

f 36/98/5 44/130/5 47/145/5

usemtl _Tile_Ceramic_Natural_3
f 47/146/6 44/131/6 36/107/6

f 63/210/6 47/146/6 36/107/6

f 48/148/6 47/146/6 53/174/6

vt -261.029 36.2214
f 54/212/18 52/170/18 8/169/18

usemtl FrontColor
f 15/32/7 8/102/7 54/80/7

f 8/102/7 15/32/7 9/26/7

usemtl _Tile_Ceramic_Natural_3
vt -261.377 36.2214
f 54/212/8 8/169/8 15/213/8

vt -261.377 29.8927
f 9/214/8 15/213/8 8/169/8

f 51/161/2 48/160/2 52/163/2

vt -156.671 6.34623
f 20/215/2 22/155/2 50/154/2

vt -260.528 41.0743
f 20/216/16 21/66/16 22/65/16

usemtl FrontColor
vt 196.22 101.26
f 19/217/1 50/4/1 20/152/1

usemtl _Tile_Ceramic_Natural_3
vt -156.671 6.9439
f 20/215/2 50/154/2 19/218/2

usemtl Translucent_Glass_Blue
f 19/59/14 18/58/14 20/60/14

f 13/56/14 18/58/14 19/59/14

usemtl _Tile_Ceramic_Natural_3
f 28/122/18 31/121/18 43/127/18

usemtl FrontColor
vt 109.011 79.0945
f 40/1/1 31/219/1 39/3/1

v 18.8989 2.009 -12.0399
vt 114.584 79.0945
f 31/219/1 40/1/1 65/220/1

usemtl _Tile_Ceramic_Natural_3
vt -181.873 29.8927
vt -181.873 34.8361
vt -181.525 29.8927
f 39/221/2 31/222/2 40/223/2

vt -181.525 34.8361
f 65/224/2 40/223/2 31/222/2

usemtl FrontColor
vt 61.9044 -1.59506e-013
vn 8.26385e-016 -1.39205e-015 1
v 19.0641 3.015 -12.0399
vt 68.4063 118.701
vt 61.9044 79.0945
f 40/225/23 66/226/23 65/227/23

v 19.0641 0 -12.0399
vt 68.4063 -1.59506e-013
f 66/226/23 40/225/23 67/228/23

usemtl _Tile_Ceramic_Natural_3
vt -164.241 0.615157
vn -8.26385e-016 1.39205e-015 -1
vt -164.648 0.615157
vt -164.241 8.03396
f 67/229/24 40/230/24 66/231/24

usemtl FrontColor
vn 0 -1 -0
v 19.0641 0 -14.1135
vt -68.4063 196.22
vt -68.4063 114.584
f 40/111/25 68/232/25 67/233/25

f 41/113/25 68/232/25 40/111/25

v 17.3265 0 -12.0399
vt 0 114.584
f 69/234/25 68/232/25 41/113/25

v 17.3265 0 -14.1135
vt 0 196.22
f 68/232/25 69/234/25 70/235/25

usemtl _Tile_Ceramic_Natural_3
vt -168.517 -4.48713
vn -0 1 0
vt -164.241 -4.48713
f 70/236/26 69/100/26 68/237/26

usemtl FrontColor
v 17.3265 2.32911 -14.1135
f 69/26/7 71/27/7 70/25/7

v 17.3265 2.80411 -14.1135
f 71/27/7 69/26/7 72/74/7

usemtl _Tile_Ceramic_Natural_3
vt -173.619 0.615157
vt -173.619 6.34623
f 70/238/8 71/239/8 69/100/8

usemtl FrontColor
vt -1.30442e-012 91.6972
vn -6.64774e-015 6.19904e-015 -1
vt -68.4063 -1.21638e-012
vt -1.30442e-012 -1.21638e-012
f 71/240/27 68/241/27 70/242/27

v 19.0641 2.32911 -14.1135
vt -68.4063 91.6972
f 68/241/27 71/240/27 73/243/27

usemtl _Tile_Ceramic_Natural_3
vt -253.785 0.615157
vn 6.64774e-015 -6.19904e-015 1
vt -258.06 0.615157
vt -253.785 6.34623
f 70/244/28 68/245/28 71/246/28

vt -258.06 6.34623
f 73/247/28 71/246/28 68/245/28

usemtl Translucent_Glass_Blue
vt -9.78317e-013 110.398
vn -4.9858e-015 2.30327e-044 -1
vt -9.78317e-013 91.6972
f 72/248/29 73/243/29 71/249/29

v 19.0641 2.80411 -14.1135
vt -68.4063 110.398
f 73/243/29 72/248/29 74/250/29

vn 4.9858e-015 -2.30327e-044 1
f 71/249/30 73/243/30 72/248/30

f 74/250/30 72/248/30 73/243/30

usemtl FrontColor
v 17.3265 3.015 -14.1135
vt -1.30442e-012 118.701
vn -6.64774e-015 -6.84628e-014 -1
vt -1.30442e-012 110.398
f 75/251/31 74/250/31 72/252/31

v 19.0641 3.015 -14.1135
vt -68.4063 118.701
f 74/250/31 75/251/31 76/253/31

usemtl _Tile_Ceramic_Natural_3
vt -253.785 7.51503
vn 6.64774e-015 6.84628e-014 1
vt -258.06 7.51503
vt -253.785 8.03396
f 72/254/32 74/255/32 75/256/32

vt -258.06 8.03396
f 76/257/32 75/256/32 74/255/32

usemtl FrontColor
vt 114.584 118.701
vt 196.22 110.398
vt 196.22 118.701
f 66/258/1 74/259/1 76/260/1

f 74/259/1 66/258/1 73/152/1

usemtl _Tile_Ceramic_Natural_3
vt -263.163 8.03396
f 76/257/2 74/255/2 66/261/2

f 73/247/2 66/261/2 74/255/2

usemtl FrontColor
f 66/258/1 68/151/1 73/152/1

f 68/151/1 66/258/1 67/1/1

usemtl _Tile_Ceramic_Natural_3
vt -263.163 0.615157
f 67/262/2 66/261/2 68/245/2

f 73/247/2 68/245/2 66/261/2

f 67/229/26 68/237/26 40/230/26

vt -166.509 0.615157
f 40/230/26 68/237/26 41/263/26

f 41/263/26 68/237/26 69/100/26

usemtl FrontColor
vt 32.1227 79.0945
vt 9.46903e-014 -1.59506e-013
vt 32.1227 -1.59506e-013
f 42/264/23 69/265/23 41/266/23

v 17.3265 3.015 -12.0399
vt 9.46903e-014 118.701
f 69/265/23 42/264/23 77/267/23

usemtl _Tile_Ceramic_Natural_3
vt -166.509 5.55856
f 41/263/24 69/100/24 42/268/24

f 77/103/24 42/268/24 69/100/24

usemtl FrontColor
f 77/267/23 42/264/23 66/226/23

usemtl _Tile_Ceramic_Natural_3
f 66/231/24 42/268/24 77/103/24

usemtl FrontColor
f 65/227/23 66/226/23 42/264/23

usemtl _Tile_Ceramic_Natural_3
vt -164.648 5.55856
f 65/269/24 66/231/24 40/230/24

f 42/268/24 66/231/24 65/269/24

usemtl FrontColor
vt 32.1227 114.584
vn 0 1 -0
vt 61.9044 109.011
vt 61.9044 114.584
f 42/270/33 31/271/33 65/272/33

vt 32.1227 109.011
f 31/271/33 42/270/33 32/273/33

usemtl _Tile_Ceramic_Natural_3
vt -166.509 59.1702
vn -0 -1 0
vt -166.509 59.5184
vt -164.648 59.1702
f 32/274/34 42/275/34 31/276/34

vt -164.648 59.5184
f 65/277/34 31/276/34 42/275/34

usemtl FrontColor
vt -114.584 118.701
f 75/79/7 69/26/7 77/278/7

f 69/26/7 75/79/7 72/74/7

usemtl _Tile_Ceramic_Natural_3
vt -173.619 8.03396
f 77/103/8 69/100/8 75/279/8

vt -173.619 7.51503
f 72/280/8 75/279/8 69/100/8

f 72/280/8 69/100/8 71/239/8

vt -240.777 29.8927
f 41/281/8 42/119/8 33/118/8

f 37/103/4 38/108/4 35/100/4

vt -175.33 0.615157
f 34/282/8 30/104/8 35/100/8

f 12/28/8 13/34/8 10/29/8

vt -161.425 6.9439
f 14/283/4 15/41/4 10/40/4

f 4/8/4 5/14/4 1/7/4

g Mesh2 COM005 Model

l 1 3

l 1 4

l 6 1

l 6 7

l 6 5

l 5 4

l 57 5

l 56 57

l 56 3

l 55 56

l 55 47

l 55 58

l 58 60

l 58 59

l 17 59

l 17 18

l 16 17

l 7 16

l 11 7

l 10 11

l 9 10

l 9 8

l 9 15

l 15 54

l 15 14

l 10 14

l 14 13

l 12 13

l 11 12

l 12 16

l 19 13

l 20 19

l 22 20

l 23 22

l 24 23

l 25 24

l 25 44

l 25 46

l 46 27

l 46 45

l 44 45

l 44 43

l 43 39

l 43 28

l 28 27

l 28 29

l 45 28

l 29 26

l 29 30

l 30 37

l 34 30

l 34 35

l 33 34

l 33 41

l 33 32

l 31 32

l 31 65

l 31 39

l 39 40

l 40 41

l 67 40

l 67 68

l 67 66

l 66 76

l 66 77

l 69 77

l 70 69

l 70 71

l 70 68

l 68 73

l 73 74

l 71 73

l 71 72

l 74 72

l 74 76

l 75 76

l 72 75

l 75 77

l 41 69

l 41 42

l 65 42

l 65 40

l 32 42

l 35 36

l 35 37

l 37 38

l 36 38

l 63 36

l 63 62

l 64 63

l 47 64

l 47 60

l 60 38

l 61 64

l 61 62

l 18 26

l 21 18

l 23 21

l 21 20

l 26 59

l 24 27

l 49 22

l 49 48

l 49 50

l 50 51

l 50 19

l 48 51

l 48 53

l 8 53

l 8 54

l 54 52

l 51 52

l 53 52

l 3 2

l 4 2

