# Alias OBJ Model File
# Exported from SketchUp, (c) 2000-2012 Trimble Navigation Limited
# File units = meters

mtllib CUA003.mtl

g Mesh1 CUA03 Model

usemtl FrontColor
v 15.8505 -4.11818e-032 -12.8564
vt -53.4252 43.6801
vn -1.51477e-032 -1 1.18115e-033
v 15.8505 -4.11818e-032 -12.0999
vt -53.4252 13.8984
v 15.8505 0 -13.0894
vt -53.4252 52.854
f 1/1/1 2/2/1 3/3/1

usemtl _Tile_Ceramic_Natural_3
vt -172.148 -2.68822
vn 1.51477e-032 1 -1.18115e-033
vt -172.148 -0.253493
vt -172.148 -2.11485
f 3/4/2 2/5/2 1/6/2

usemtl FrontColor
v 15.8505 0 -11.7469
vt -53.4252 -2.87091e-063
f 4/7/1 3/3/1 2/2/1

v 14.4935 0 -11.7469
vt 2.45595e-062 -1.91504e-063
f 5/8/1 3/3/1 4/7/1

v 14.4935 0 -13.0894
vt 2.45595e-062 52.854
f 3/3/1 5/8/1 6/9/1

usemtl _Tile_Ceramic_Natural_3
vt -175.488 -2.68822
vt -175.488 0.615157
f 6/10/2 5/11/2 3/4/2

usemtl FrontColor
vt 0 1.62133e-030
vn -1 0 -0
v 14.4935 3.015 -13.0894
vt -52.854 118.701
vt -52.854 1.62133e-030
f 5/12/3 7/13/3 6/14/3

v 14.4935 3.015 -11.7469
vt 0 118.701
f 7/13/3 5/12/3 8/15/3

usemtl _Tile_Ceramic_Natural_3
vt -175.488 8.03396
vn 1 -0 0
vt -178.791 8.03396
f 8/16/4 5/11/4 7/17/4

usemtl FrontColor
vn 0 0 1
v 15.8505 3.015 -11.7469
vt 53.4252 118.701
f 5/12/5 9/18/5 8/15/5

vt 53.4252 1.62133e-030
f 9/18/5 5/12/5 4/19/5

usemtl _Tile_Ceramic_Natural_3
vt -172.148 0.615157
vn -0 -0 -1
vt -172.148 8.03396
f 4/20/6 5/11/6 9/21/6

f 4/20/2 3/4/2 5/11/2

f 2/5/2 3/4/2 4/20/2

usemtl FrontColor
vt 13.8984 -7.49554e-014
vn 1 1.403e-015 3.38094e-015
vt 1.80627e-013 118.701
vt 1.80627e-013 -7.49554e-014
f 2/22/7 9/23/7 4/24/7

v 15.8505 2.009 -12.0999
vt 13.8984 79.0945
f 9/23/7 2/22/7 10/25/7

usemtl _Tile_Ceramic_Natural_3
vn -1 -1.403e-015 -3.38094e-015
vt -171.28 0.615157
f 4/20/8 9/21/8 2/26/8

vt -171.28 5.55856
f 10/27/8 2/26/8 9/21/8

usemtl FrontColor
v 15.8505 3.015 -13.0894
vt 52.854 118.701
f 10/25/7 11/28/7 9/23/7

v 15.8505 2.009 -12.8564
vt 43.6801 79.0945
f 11/28/7 10/25/7 12/29/7

usemtl _Tile_Ceramic_Natural_3
vt -168.845 8.03396
f 9/21/8 11/30/8 10/27/8

vt -169.418 5.55856
f 12/31/8 10/27/8 11/30/8

usemtl FrontColor
vt 52.854 -7.49554e-014
f 11/28/7 12/29/7 3/32/7

usemtl _Tile_Ceramic_Natural_3
vt -168.845 0.615157
f 3/33/8 12/31/8 11/30/8

usemtl FrontColor
vt 43.6801 -7.49554e-014
f 3/32/7 12/29/7 1/34/7

usemtl _Tile_Ceramic_Natural_3
vt -169.418 0.615157
f 1/35/8 12/31/8 3/33/8

usemtl FrontColor
vt -53.4252 1.62133e-030
vn 0 0 -1
vt -53.4252 118.701
f 3/36/9 7/15/9 11/37/9

f 7/15/9 3/36/9 6/12/9

usemtl _Tile_Ceramic_Natural_3
vt -243.359 0.615157
vn -0 -0 1
vt -246.698 0.615157
vt -243.359 8.03396
f 6/38/10 3/39/10 7/40/10

vt -246.698 8.03396
f 11/41/10 7/40/10 3/39/10

vt -178.791 0.615157
f 6/42/4 7/17/4 5/11/4

f 8/16/6 9/21/6 5/11/6

g Mesh2 CUA03 Model

l 6 3

l 5 6

l 5 4

l 5 8

l 8 7

l 8 9

l 11 9

l 3 11

l 3 1

l 1 2

l 12 1

l 10 12

l 2 10

l 2 4

l 4 9

l 7 11

l 6 7

