# Alias OBJ Model File
# Exported from SketchUp, (c) 2000-2012 Trimble Navigation Limited
# File units = meters

mtllib CUA016.mtl

g Mesh1 Group1 CUA016 Model

usemtl Color_D03
v 5.72077 2.88234e-018 -13.0973
vt 8.04085 3.02628e-017
vn 0.965926 5.6926e-018 -0.258819
v 5.72779 3.015 -13.044
vt 5.92366 118.701
vn 1 3.93422e-018 -0
v 5.72779 2.52011e-018 -13.044
vt 5.92366 1.60019e-017
f 1/1/1 2/2/2 3/3/2

v 5.72077 3.015 -13.0973
vt 8.04085 118.701
f 2/2/2 1/1/1 4/4/1

usemtl BackColor
vn -1 -3.93422e-018 0
vn -0.965926 -5.6926e-018 0.258819
f 3/3/3 2/2/3 1/1/4

usemtl Color_D03
v 5.72077 3.015 -12.9907
vn 0.965926 1.90772e-018 0.258819
vt 10.158 5.49564e-017
vt 10.158 118.701
f 5/4/5 3/5/2 2/6/2

v 5.72077 2.10265e-018 -12.9907
vt 8.04085 3.8521e-017
f 3/5/2 5/4/5 6/7/5

usemtl BackColor
vn -0.965926 -1.90772e-018 -0.258819
f 6/7/6 5/4/6 3/5/3

usemtl Color_D03
v 5.70019 3.015 -12.941
vt 9.53794 118.701
vn 0.866025 -2.48789e-019 0.5
vt 11.6551 7.23824e-017
vt 11.6551 118.701
f 7/8/7 6/9/5 5/10/5

v 5.70019 1.65841e-018 -12.941
vt 9.53794 5.48926e-017
f 6/9/5 7/8/7 8/11/7

usemtl BackColor
vn -0.866025 2.48789e-019 -0.5
f 8/11/8 7/8/8 6/9/6

usemtl Color_D03
v 5.66745 3.015 -12.8984
vt 10.3129 118.701
vn 0.707107 -2.38834e-018 0.707107
vt 12.4301 7.79768e-017
vt 12.4301 118.701
f 9/12/9 8/13/7 7/14/7

v 5.66745 1.21767e-018 -12.8984
vt 10.3129 6.06245e-017
f 8/13/7 9/12/9 10/15/9

usemtl BackColor
vn -0.707107 2.38834e-018 -0.707107
f 10/15/10 9/12/10 8/13/8

usemtl Color_D03
v 5.62479 3.015 -12.8656
vn 0.5 -4.36513e-018 0.866025
vt 12.4301 7.02269e-017
f 11/12/11 10/16/9 9/14/9

v 5.62479 8.10448e-019 -12.8656
vt 10.3129 5.41947e-017
f 10/16/9 11/12/11 12/17/11

usemtl BackColor
vn -0.5 4.36513e-018 -0.866025
f 12/17/12 11/12/12 10/16/10

usemtl Color_D03
v 5.5751 3.015 -12.845
vn 0.258819 -6.04444e-018 0.965926
vt 11.6551 5.10773e-017
f 13/8/13 12/18/11 11/10/11

v 5.5751 4.6451e-019 -12.845
vt 9.53794 3.74577e-017
f 12/18/11 13/8/13 14/19/13

usemtl BackColor
vn -0.258819 6.04444e-018 -0.965926
f 14/19/14 13/8/14 12/18/12

usemtl Color_D03
v 5.52179 3.015 -12.838
vn 3.49938e-015 -7.31184e-018 1
vt 10.158 2.54183e-017
f 15/4/15 14/20/13 13/6/13

v 5.52179 2.03426e-019 -12.838
vt 8.04085 1.51394e-017
f 14/20/13 15/4/15 16/21/15

usemtl BackColor
vn -3.49938e-015 7.31184e-018 -1
f 16/21/16 15/4/16 14/20/14

usemtl Color_D03
v 5.46847 3.015 -12.845
vn -0.258819 -8.08094e-018 0.965926
vt 8.04085 -2.08773e-019
f 17/2/17 16/22/15 15/4/15

v 5.46847 4.49908e-020 -12.845
vt 5.92366 -6.4464e-018
f 16/22/15 17/2/17 18/23/17

usemtl BackColor
vn 0.258819 8.08094e-018 -0.965926
f 18/23/18 17/2/18 16/22/16

usemtl Color_D03
v 5.41879 3.015 -12.8656
vt 3.33063 118.701
vn -0.5 -8.29934e-018 0.866025
vt 5.44783 -1.93407e-017
vt 5.44783 118.701
f 19/24/19 18/25/17 17/26/17

v 5.41879 0 -12.8656
vt 3.33063 -2.1112e-017
f 18/25/17 19/24/19 20/27/19

usemtl BackColor
vn 0.5 8.29934e-018 -0.866025
f 20/27/20 19/24/20 18/25/18

usemtl Color_D03
vt 2.55568 118.701
v 5.37612 7.152e-020 -12.8984
vt 0.438486 -2.44817e-017
vn -0.707107 -7.95216e-018 0.707107
vt 2.55568 -2.72974e-017
f 19/28/19 21/29/21 20/30/19

v 5.37612 3.015 -12.8984
vt 0.438486 118.701
f 21/29/21 19/28/19 22/31/21

usemtl BackColor
vn 0.707107 7.95216e-018 -0.707107
f 20/30/20 21/29/22 19/28/20

f 22/31/22 19/28/20 21/29/22

usemtl _Stone_Granite_Midnite_2
v 5.37612 3.015 -13.1897
vt 101.385 51.6502
vn -3.93422e-018 1 7.31184e-018
vt 101.385 50.5033
vt 101.553 50.3744
f 23/32/23 22/33/23 19/34/23

v 5.34339 3.015 -13.147
vt 101.256 51.4822
f 24/35/23 22/33/23 23/32/23

v 5.34339 3.015 -12.941
vt 101.256 50.6712
f 24/35/23 25/36/23 22/33/23

v 5.32281 3.015 -13.0973
vt 101.175 51.2866
f 26/37/23 25/36/23 24/35/23

v 5.32281 3.015 -12.9907
vt 101.175 50.8668
f 26/37/23 27/38/23 25/36/23

v 5.31579 3.015 -13.044
vt 101.148 51.0767
f 27/38/23 26/37/23 28/39/23

usemtl BackColor
vt 4.66994e-016 8.11024
vn 3.93422e-018 -1 -7.31184e-018
vt 0.27635 10.2093
vt 0.27635 6.01115
f 28/40/24 26/41/24 27/42/24

usemtl Color_D03
vt -10.158 118.701
v 5.31579 8.99217e-019 -13.044
vt -8.04085 3.8521e-017
vn -1 -3.93422e-018 -0
vt -8.04085 118.701
f 26/43/6 29/44/25 28/45/25

v 5.32281 1.31668e-018 -13.0973
vt -10.158 5.49564e-017
f 29/44/25 26/43/6 30/46/6

usemtl BackColor
vn 1 3.93422e-018 0
f 28/45/26 29/44/26 26/43/5

usemtl Color_D03
v 5.32281 5.36989e-019 -12.9907
vt -5.92366 1.60019e-017
vt -8.04085 3.02628e-017
f 31/47/4 28/45/25 29/48/25

vt -5.92366 118.701
f 28/45/25 31/47/4 27/49/4

usemtl BackColor
f 27/49/1 31/47/1 28/45/26

usemtl Color_D03
v 5.34339 2.54677e-019 -12.941
vt -3.33063 -6.4137e-018
vn -0.866025 -7.06305e-018 0.5
vt -5.44783 118.701
vt -5.44783 4.70095e-018
f 32/50/27 27/51/4 31/52/4

vt -3.33063 118.701
f 27/51/4 32/50/27 25/53/27

usemtl BackColor
vn 0.866025 7.06305e-018 -0.5
f 25/53/28 32/50/28 27/51/1

usemtl Color_D03
vt -0.438486 -2.24051e-017
vt -2.55568 118.701
vt -2.55568 -1.51942e-017
f 21/54/21 25/55/27 32/56/27

vt -0.438486 118.701
f 25/55/27 21/54/21 22/57/21

usemtl BackColor
f 22/57/22 21/54/22 25/55/28

f 32/56/28 25/55/28 21/54/22

vt 2.37543 2.37543
vt 1.08657 4.05512
vt 1.08657 12.1654
f 22/58/24 25/59/24 24/60/24

f 24/60/24 25/59/24 26/41/24

f 25/59/24 27/42/24 26/41/24

usemtl Color_D03
vt -11.6551 118.701
vt -9.53794 5.48926e-017
vt -9.53794 118.701
f 24/61/8 30/62/6 26/63/6

v 5.34339 1.76092e-018 -13.147
vt -11.6551 7.23824e-017
f 30/62/6 24/61/8 33/64/8

usemtl BackColor
f 26/63/5 30/62/5 24/61/7

f 30/46/5 26/43/5 29/44/26

f 33/64/7 24/61/7 30/62/5

usemtl Color_D03
vt -12.4301 118.701
vt -10.3129 6.06245e-017
vt -10.3129 118.701
f 23/65/10 33/66/8 24/67/8

v 5.37612 2.20166e-018 -13.1897
vt -12.4301 7.79768e-017
f 33/66/8 23/65/10 34/68/10

usemtl BackColor
f 24/67/7 33/66/7 23/65/9

f 34/68/9 23/65/9 33/66/7

usemtl Color_D03
v 5.41879 2.60888e-018 -13.2224
vt -12.4301 7.02269e-017
vt -10.3129 5.41947e-017
f 23/67/10 35/69/12 34/70/10

v 5.41879 3.015 -13.2224
f 35/69/12 23/67/10 36/65/12

usemtl BackColor
f 34/70/9 35/69/11 23/67/9

f 36/65/11 23/67/9 35/69/11

usemtl _Stone_Granite_Midnite_2
vt 101.553 51.7791
f 23/32/23 19/34/23 36/71/23

usemtl BackColor
vt 4.05512 1.08657
vt 2.37543 13.845
f 19/72/24 22/58/24 23/73/24

f 23/73/24 22/58/24 24/60/24

vt 4.05512 15.1339
f 36/74/24 19/72/24 23/73/24

usemtl _Stone_Granite_Midnite_2
vt 101.749 50.2933
f 36/71/23 19/34/23 17/75/23

usemtl BackColor
vt 6.01115 0.27635
f 17/76/24 19/72/24 36/74/24

f 17/26/18 18/25/18 19/24/20

usemtl _Stone_Granite_Midnite_2
v 5.46847 3.015 -13.243
vt 101.749 51.8601
f 36/71/23 17/75/23 37/77/23

usemtl BackColor
vt 6.01115 15.9441
f 37/78/24 17/76/24 36/74/24

usemtl _Stone_Granite_Midnite_2
vt 101.959 50.2657
f 37/77/23 17/75/23 15/79/23

usemtl BackColor
vt 8.11024 8.67921e-016
f 15/80/24 17/76/24 37/78/24

f 15/4/16 16/22/16 17/2/18

usemtl _Stone_Granite_Midnite_2
v 5.52179 3.015 -13.25
vt 101.959 51.8878
f 37/77/23 15/79/23 38/81/23

usemtl BackColor
vt 8.11024 16.2205
f 38/82/24 15/80/24 37/78/24

usemtl _Stone_Granite_Midnite_2
vt 102.168 50.2933
f 38/81/23 15/79/23 13/83/23

usemtl BackColor
vt 10.2093 0.27635
f 13/84/24 15/80/24 38/82/24

f 13/6/14 14/20/14 15/4/16

usemtl _Stone_Granite_Midnite_2
v 5.5751 3.015 -13.243
vt 102.168 51.8601
f 38/81/23 13/83/23 39/85/23

usemtl BackColor
vt 10.2093 15.9441
f 39/86/24 13/84/24 38/82/24

usemtl _Stone_Granite_Midnite_2
vt 102.364 50.3744
f 39/85/23 13/83/23 11/87/23

usemtl BackColor
vt 12.1654 1.08657
f 11/88/24 13/84/24 39/86/24

f 11/10/12 12/18/12 13/8/14

usemtl _Stone_Granite_Midnite_2
v 5.62479 3.015 -13.2224
vt 102.364 51.7791
f 39/85/23 11/87/23 40/89/23

usemtl BackColor
vt 12.1654 15.1339
f 40/90/24 11/88/24 39/86/24

usemtl _Stone_Granite_Midnite_2
vt 102.532 50.5033
f 40/89/23 11/87/23 9/91/23

usemtl BackColor
vt 13.845 2.37543
f 9/92/24 11/88/24 40/90/24

f 9/14/10 10/16/10 11/12/12

usemtl _Stone_Granite_Midnite_2
v 5.66745 3.015 -13.1897
vt 102.532 51.6502
f 40/89/23 9/91/23 41/93/23

usemtl BackColor
vt 13.845 13.845
f 41/94/24 9/92/24 40/90/24

usemtl _Stone_Granite_Midnite_2
vt 102.661 50.6712
f 41/93/23 9/91/23 7/95/23

usemtl BackColor
vt 15.1339 4.05512
f 7/96/24 9/92/24 41/94/24

f 7/14/8 8/13/8 9/12/10

usemtl _Stone_Granite_Midnite_2
v 5.70019 3.015 -13.147
vt 102.661 51.4822
f 41/93/23 7/95/23 42/97/23

usemtl BackColor
vt 15.1339 12.1654
f 42/98/24 7/96/24 41/94/24

usemtl _Stone_Granite_Midnite_2
vt 102.742 50.8668
f 42/97/23 7/95/23 5/99/23

usemtl BackColor
vt 15.9441 6.01115
f 5/100/24 7/96/24 42/98/24

f 5/10/6 6/9/6 7/8/8

usemtl _Stone_Granite_Midnite_2
vt 102.742 51.2866
f 42/97/23 5/99/23 4/101/23

usemtl BackColor
vt 15.9441 10.2093
f 4/102/24 5/100/24 42/98/24

usemtl _Stone_Granite_Midnite_2
vt 102.77 51.0767
f 4/101/23 5/99/23 2/103/23

usemtl BackColor
vt 16.2205 8.11024
f 2/104/24 5/100/24 4/102/24

f 2/6/3 3/5/3 5/4/6

f 4/4/4 1/1/4 2/2/3

usemtl Color_D03
v 5.70019 3.16465e-018 -13.147
vt 5.44783 4.70095e-018
vt 3.33063 -6.4137e-018
f 43/105/28 4/24/1 1/106/1

f 4/24/1 43/105/28 42/26/28

usemtl BackColor
f 1/106/4 4/24/4 43/105/27

f 42/26/27 43/105/27 4/24/4

usemtl Color_D03
v 5.66745 3.34781e-018 -13.1897
vt 2.55568 -1.51942e-017
vt 0.438486 -2.24051e-017
f 44/107/22 42/31/28 43/108/28

f 42/31/28 44/107/22 41/28/22

usemtl BackColor
f 43/108/27 42/31/27 44/107/21

f 41/28/21 44/107/21 42/31/27

usemtl Color_D03
v 5.62479 3.41933e-018 -13.2224
vt -0.438486 -2.44817e-017
vt -2.55568 -2.72974e-017
f 45/109/20 41/55/22 44/110/22

f 41/55/22 45/109/20 40/57/20

usemtl BackColor
f 44/110/21 41/55/21 45/109/19

f 40/57/19 45/109/19 41/55/21

usemtl Color_D03
vt -5.44783 -1.93407e-017
f 45/111/20 39/53/18 40/51/20

v 5.5751 3.37434e-018 -13.243
vt -3.33063 -2.1112e-017
f 39/53/18 45/111/20 46/112/18

usemtl BackColor
f 46/112/17 45/111/19 39/53/17

f 40/51/19 39/53/17 45/111/19

usemtl Color_D03
vt -8.04085 -2.08773e-019
vn -3.51338e-015 7.31184e-018 -1
f 46/113/18 38/49/29 39/45/18

v 5.52179 3.2159e-018 -13.25
vt -5.92366 -6.4464e-018
f 38/49/29 46/113/18 47/114/29

usemtl BackColor
vn 3.51338e-015 -7.31184e-018 1
f 47/114/30 46/113/17 38/49/30

f 39/45/17 38/49/30 46/113/17

usemtl Color_D03
vt -10.158 2.54183e-017
f 47/115/29 37/45/14 38/43/29

v 5.46847 2.95482e-018 -13.243
vt -8.04085 1.51394e-017
f 37/45/14 47/115/29 48/116/14

usemtl BackColor
f 48/116/13 47/115/30 37/45/13

f 38/43/30 37/45/13 47/115/30

usemtl Color_D03
vt -11.6551 5.10773e-017
f 48/117/14 36/63/12 37/61/14

vt -9.53794 3.74577e-017
f 36/63/12 48/117/14 35/118/12

usemtl BackColor
f 35/118/11 48/117/13 36/63/11

f 37/61/13 36/63/11 48/117/13

f 31/52/1 27/51/1 32/50/28

f 29/48/26 28/45/26 31/47/1

g Mesh2 Group1 CUA016 Model

l 38 37

l 39 38

l 40 39

l 41 40

l 42 41

l 4 42

l 2 4

l 5 2

l 7 5

l 9 7

l 11 9

l 13 11

l 15 13

l 17 15

l 19 17

l 22 19

l 25 22

l 27 25

l 28 27

l 26 28

l 24 26

l 23 24

l 36 23

l 37 36

g Mesh3 Group1 CUA016 Model

l 14 12

l 16 14

l 18 16

l 20 18

l 21 20

l 32 21

l 31 32

l 29 31

l 30 29

l 33 30

l 34 33

l 35 34

l 48 35

l 47 48

l 46 47

l 45 46

l 44 45

l 43 44

l 1 43

l 3 1

l 6 3

l 8 6

l 10 8

l 12 10

g Mesh4 CUA016 Model

usemtl FrontColor
v 6.02043 0 -14.1135
vt -189.492 173.786
vn 0 -1 -0
v 1.20732 0 -9.69932
vt 0 0
v 1.20732 0 -14.1135
vt 0 173.786
f 49/119/31 50/120/31 51/121/31

v 6.58896 0 -11.1043
vt -211.875 55.3143
f 50/120/31 49/119/31 52/122/31

usemtl _Tile_Ceramic_Natural_14
vt 0.249805 11.3135
vn -0 1 0
vt 0.249805 8.18287
vt -3.16375 11.3135
f 51/123/32 50/124/32 49/125/32

usemtl Color_D03
vt 173.786 0
vn 1 -5.3874e-016 -0
v 1.20732 1.005 -9.69932
vt 0 39.5669
f 51/126/33 53/127/33 50/120/33

v 1.20732 1.005 -14.1135
vt 173.786 39.5669
f 53/127/33 51/126/33 54/128/33

usemtl BackColor
vn -1 5.3874e-016 0
f 50/120/34 53/127/34 51/126/34

usemtl Color_D03
vt -2.13163e-014 39.5669
vn 0 0 -1
v 6.8544 0 -9.69932
vt -222.326 0
f 53/129/35 55/130/35 50/120/35

v 6.8544 3.015 -9.69932
vt -222.326 118.701
f 55/130/35 53/129/35 56/131/35

usemtl BackColor
vn -0 -0 1
f 50/120/36 55/130/36 53/129/36

usemtl FrontColor
v 6.72966 0 -10.3596
vt -217.415 25.9949
f 50/120/31 57/132/31 55/130/31

f 50/120/31 52/122/31 57/132/31

usemtl _Tile_Ceramic_Natural_14
vt -3.56696 9.17931
f 52/133/32 49/125/32 50/124/32

usemtl Color_D03
vt -15.0189 5.19594e-014
vn -0.982617 2.37843e-016 0.185646
v 6.02043 3.015 -14.1135
vt -135.586 118.701
vt -135.586 5.19594e-014
f 52/134/37 58/135/37 49/136/37

v 6.58896 2.009 -11.1043
vt -15.0189 79.0945
f 59/137/37 58/135/37 52/134/37

v 6.72966 2.009 -10.3596
vt 14.8192 79.0945
f 60/138/37 58/135/37 59/137/37

vt 41.274 118.701
f 60/138/37 56/139/37 58/135/37

vt 41.274 5.19594e-014
f 56/139/37 60/138/37 55/140/37

usemtl BackColor
vn 0.982617 -2.37843e-016 -0.185646
f 55/140/38 60/138/38 56/139/38

usemtl Color_D03
vt 14.8192 5.19594e-014
f 57/141/37 55/140/37 60/138/37

usemtl _Tile_Ceramic_Natural_14
vt -3.75522 8.18287
vt -3.66674 8.65115
f 55/142/32 57/143/32 50/124/32

usemtl BackColor
f 60/138/38 55/140/38 57/141/38

usemtl _Tile_Ceramic_Natural_14
f 57/143/32 52/133/32 50/124/32

usemtl BackColor
f 58/135/38 56/139/38 60/138/38

f 59/137/38 58/135/38 60/138/38

f 52/134/38 58/135/38 59/137/38

f 49/136/38 58/135/38 52/134/38

usemtl Color_D03
vt 189.492 118.701
vn 0 0 1
vt 189.492 0
f 58/144/39 51/120/39 49/145/39

v 2.28872 1.005 -14.1135
vt 42.5746 39.5669
f 51/120/39 58/144/39 61/146/39

usemtl BackColor
vn -0 -0 -1
f 49/145/40 51/120/40 58/144/40

f 61/146/40 58/144/40 51/120/40

usemtl Color_D03
v 2.28872 2.01 -14.1135
vt 42.5746 79.1339
f 61/146/39 58/144/39 62/147/39

usemtl BackColor
f 62/147/40 58/144/40 61/146/40

usemtl Color_D03
v 1.20732 2.01 -14.1135
vt 2.13163e-014 79.1339
f 62/147/39 58/144/39 63/148/39

usemtl BackColor
f 63/148/40 58/144/40 62/147/40

usemtl Color_D03
v 1.20732 3.015 -14.1135
vt 0 118.701
f 63/148/39 58/144/39 64/149/39

usemtl BackColor
f 64/149/40 58/144/40 63/148/40

usemtl Color_D03
v 1.20732 3.015 -9.69932
vn 1 5.3874e-016 -0
vt 173.786 79.1339
vt 173.786 118.701
f 65/149/41 63/150/41 64/151/41

v 1.20732 2.01 -9.69932
vt 0 79.1339
f 63/150/41 65/149/41 66/152/41

usemtl BackColor
vn -1 -5.3874e-016 0
f 66/152/42 65/149/42 63/150/42

usemtl Color_D03
vt -2.13163e-014 79.1339
f 56/131/35 66/153/35 65/149/35

f 56/131/35 53/129/35 66/153/35

usemtl BackColor
f 56/131/36 53/129/36 55/130/36

f 66/153/36 53/129/36 56/131/36

usemtl Translucent_Glass_Blue
vn 1 0 -0
f 54/128/43 66/152/43 53/127/43

f 66/152/43 54/128/43 63/150/43

vn -1 -0 0
f 53/127/44 66/152/44 54/128/44

f 63/150/44 54/128/44 66/152/44

vt 2.13163e-014 39.5669
f 54/154/39 62/147/39 63/148/39

f 62/147/39 54/154/39 61/146/39

f 61/146/40 54/154/40 62/147/40

usemtl Color_D03
f 54/154/39 51/120/39 61/146/39

usemtl BackColor
f 54/128/34 51/126/34 53/127/34

f 61/146/40 51/120/40 54/154/40

usemtl Translucent_Glass_Blue
f 63/148/40 62/147/40 54/154/40

usemtl BackColor
f 65/149/36 66/153/36 56/131/36

f 64/151/42 63/150/42 65/149/42

g Mesh5 CUA016 Model

l 50 55

l 51 50

l 51 49

l 51 54

l 63 54

l 63 64

l 62 63

l 61 62

l 61 54

l 54 53

l 50 53

l 53 66

l 66 65

l 63 66

l 65 56

l 64 65

l 64 58

l 58 56

l 49 58

l 49 52

l 52 57

l 52 59

l 60 59

l 60 57

l 57 55

l 55 56

