# Alias OBJ Model File
# Exported from SketchUp, (c) 2000-2012 Trimble Navigation Limited
# File units = meters

mtllib DES011.mtl

g Mesh1 DES011 Model

usemtl FrontColor
v 17.8739 4.32871e-017 -5.95677
vt -4.64299 188.161
vn -3.06189e-018 -1 -3.92982e-018
v 17.756 0 -1.17749
vt -1.13687e-013 2.84217e-014
v 17.756 0 -5.95677
vt -1.13687e-013 188.161
f 1/1/1 2/2/1 3/3/1

v 22.3124 5.41541e-019 -1.17749
vt -179.386 2.24228e-033
f 2/2/1 1/1/1 4/4/1

usemtl _Tile_Ceramic_Natural_14
vt -11.4868 5.52858
vn 3.06189e-018 1 3.92982e-018
vt -11.4868 2.13901
vt -11.5705 5.52858
f 3/5/2 2/6/2 1/7/2

usemtl FrontColor
v 17.756 1.005 -1.17749
vt -6.39488e-014 39.5669
vn -1 -3.54706e-032 -3.021e-016
vt -188.161 -2.01627e-045
vt -2.84217e-014 -4.03254e-045
f 5/8/3 3/9/3 2/10/3

v 17.756 3.015 -5.95677
vt -188.161 118.701
f 3/9/3 5/8/3 6/11/3

usemtl Color_D03
vn 1 3.54706e-032 3.021e-016
f 2/10/4 3/9/4 5/8/4

f 6/11/4 5/8/4 3/9/4

usemtl FrontColor
v 17.756 2.01 -1.17749
vt -5.68434e-014 79.1339
f 7/12/3 6/11/3 5/8/3

v 17.756 3.015 -1.17749
vt -2.84217e-014 118.701
f 6/11/3 7/12/3 8/13/3

usemtl Color_D03
f 8/13/4 7/12/4 6/11/4

vt -1.13687e-013 118.701
vn 9.90241e-017 9.8769e-016 -1
v 22.3124 2.01 -1.17749
vt -179.386 79.1339
vt 5.62887e-030 79.1339
f 8/14/5 9/15/5 7/16/5

v 22.3124 3.015 -1.17749
vt -179.386 118.701
f 9/15/5 8/14/5 10/17/5

usemtl BackColor
vn -9.90241e-017 -9.8769e-016 1
f 7/16/6 9/15/6 8/14/6

usemtl Translucent_Glass_Blue
v 22.3124 1.005 -1.17749
vt -179.386 39.5669
vn 5.94145e-017 8.979e-017 -1
vt 3.37732e-030 79.1339
f 11/18/7 7/19/7 9/15/7

vt 3.79949e-030 39.5669
f 7/19/7 11/18/7 5/20/7

vn -5.94145e-017 -8.979e-017 1
f 5/20/8 11/18/8 7/19/8

usemtl Color_D03
vt -179.386 2.13205e-017
vn 1.18829e-016 -1.07748e-015 -1
vt 7.59898e-030 39.5669
f 4/21/9 5/22/9 11/18/9

vt -1.13687e-013 3.06238e-029
f 5/22/9 4/21/9 2/23/9

usemtl BackColor
vn -1.18829e-016 1.07748e-015 1
f 2/23/10 4/21/10 5/22/10

usemtl _Tile_Ceramic_Natural_14
vt -14.7183 2.13901
f 4/24/2 1/7/2 2/6/2

usemtl FrontColor
v 18.6303 4.32871e-017 -5.95677
vt -34.4247 188.161
f 4/4/1 1/1/1 12/25/1

usemtl _Tile_Ceramic_Natural_14
vt -12.1069 5.52858
f 12/26/2 1/7/2 4/24/2

usemtl FrontColor
v 22.3124 5.48606e-019 -5.95677
vt -179.386 188.161
f 4/4/1 12/25/1 13/27/1

usemtl _Tile_Ceramic_Natural_14
vt -14.7183 5.52858
f 13/28/2 12/26/2 4/24/2

usemtl FrontColor
vt -34.4247 -5.31236e-016
vn 1.62351e-016 1.18805e-017 -1
v 22.3124 3.015 -5.95677
vt -179.386 -2.21385e-015
f 12/29/11 14/17/11 13/30/11

v 18.6303 2.009 -5.95677
vt -34.4247 79.0945
f 14/17/11 12/29/11 15/31/11

usemtl Color_D03
vn -1.62351e-016 -1.18805e-017 1
f 13/30/12 14/17/12 12/29/12

usemtl FrontColor
v 22.3124 3.015 -5.82554
vt 182.994 118.701
vn 1 -3.64258e-018 3.04426e-016
vt 188.161 6.75028e-016
vt 188.161 118.701
f 16/32/13 13/33/13 14/34/13

vt 1.04348e-013 79.1339
f 9/35/13 13/33/13 16/32/13

vt 1.04348e-013 39.5669
f 11/36/13 13/33/13 9/35/13

vt 5.46098e-014 6.74749e-016
f 13/33/13 11/36/13 4/37/13

usemtl Color_D03
vn -1 3.64258e-018 -3.04426e-016
f 4/37/14 11/36/14 13/33/14

usemtl BackColor
f 11/18/10 5/22/10 4/21/10

usemtl Color_D03
f 9/35/14 13/33/14 11/36/14

f 16/32/14 13/33/14 9/35/14

f 14/34/14 13/33/14 16/32/14

usemtl FrontColor
vt 5.46098e-014 118.701
f 16/32/13 10/38/13 9/35/13

usemtl Color_D03
f 9/35/14 10/38/14 16/32/14

usemtl BackColor
f 10/17/6 8/14/6 9/15/6

usemtl Translucent_Glass_Blue
f 9/15/8 7/19/8 11/18/8

usemtl Color_D03
f 15/31/12 12/29/12 14/17/12

usemtl FrontColor
vt -8.31388e-014 118.701
f 14/17/11 15/31/11 6/39/11

usemtl Color_D03
f 6/39/12 15/31/12 14/17/12

usemtl FrontColor
v 17.8739 2.009 -5.95677
vt -4.64299 79.0945
f 17/40/11 6/39/11 15/31/11

vt -4.64299 -5.31236e-016
f 1/41/11 6/39/11 17/40/11

vt -8.31388e-014 -2.23545e-015
f 6/39/11 1/41/11 3/42/11

usemtl Color_D03
f 3/42/12 1/41/12 6/39/12

f 17/40/12 6/39/12 1/41/12

f 15/31/12 6/39/12 17/40/12

f 5/8/4 6/11/4 7/12/4

g Mesh2 DES011 Model

l 13 12

l 13 4

l 13 14

l 16 14

l 16 10

l 9 10

l 11 9

l 5 11

l 2 5

l 4 2

l 4 11

l 3 2

l 1 3

l 12 1

l 15 12

l 17 15

l 1 17

l 3 6

l 14 6

l 6 8

l 7 8

l 5 7

l 7 9

l 10 8

