# Alias OBJ Model File
# Exported from SketchUp, (c) 2000-2012 Trimble Navigation Limited
# File units = meters

mtllib DES012.mtl

g Mesh1 DES012 Model

usemtl FrontColor
v 16.7896 4.32871e-017 -5.95677
vt -126.406 188.161
vn 3.46116e-018 -1 -3.96831e-018
v 13.5789 0 -1.17749
vt 0 0
v 13.5789 0 -5.95677
vt 0 188.161
f 1/1/1 2/2/1 3/3/1

v 17.662 0 -1.17749
vt -160.752 -2.20793e-033
f 2/2/1 1/1/1 4/4/1

usemtl _Tile_Ceramic_Natural_14
vt -8.52433 5.52858
vn -3.46116e-018 1 3.96831e-018
vt -8.52433 2.13901
vt -10.8014 5.52858
f 3/5/2 2/6/2 1/7/2

usemtl Color_D03
vt 188.161 0
vn 1 0 -0
v 13.5789 1.005 -1.17749
vt 2.84217e-014 39.5669
f 3/8/3 5/9/3 2/2/3

v 13.5789 2.01 -1.17749
vt 2.84217e-014 79.1339
f 5/9/3 3/8/3 6/10/3

usemtl BackColor
vn -1 -0 0
f 2/2/4 5/9/4 3/8/4

usemtl Color_D03
vt 0 39.5669
vn 0 -7.1832e-016 -1
vt -160.752 0
f 5/11/5 4/12/5 2/2/5

v 17.662 1.005 -1.17749
vt -160.752 39.5669
f 4/12/5 5/11/5 7/13/5

usemtl BackColor
vn -0 7.1832e-016 1
f 2/2/6 4/12/6 5/11/6

usemtl _Tile_Ceramic_Natural_14
vt -11.4202 2.13901
f 4/14/2 1/7/2 2/6/2

usemtl FrontColor
v 17.546 4.32871e-017 -5.95677
vt -156.187 188.161
f 4/4/1 1/1/1 8/15/1

usemtl _Tile_Ceramic_Natural_14
vt -11.3379 5.52858
f 8/16/2 1/7/2 4/14/2

usemtl FrontColor
v 17.662 0 -5.95677
vt -160.752 188.161
f 4/4/1 8/15/1 9/17/1

usemtl _Tile_Ceramic_Natural_14
vt -11.4202 5.52858
f 9/18/2 8/16/2 4/14/2

usemtl Color_D03
v 17.662 3.015 -5.95677
vt 160.752 118.701
vn 0 0 1
vt 156.187 1.70422e-015
vt 160.752 0
f 10/19/7 8/20/7 9/21/7

v 17.546 2.009 -5.95677
vt 156.187 79.0945
f 8/20/7 10/19/7 11/22/7

usemtl BackColor
vn -0 -0 -1
f 9/21/8 8/20/8 10/19/8

f 11/22/8 10/19/8 8/20/8

usemtl Color_D03
v 16.7896 2.009 -5.95677
vt 126.406 79.0945
f 11/22/7 10/19/7 12/23/7

usemtl BackColor
f 12/23/8 10/19/8 11/22/8

usemtl Color_D03
v 13.5789 3.015 -5.95677
vt 0 118.701
f 13/24/7 12/23/7 10/19/7

vt 126.406 1.70422e-015
f 13/24/7 1/25/7 12/23/7

f 1/25/7 13/24/7 3/2/7

usemtl BackColor
f 3/2/8 13/24/8 1/25/8

usemtl Color_D03
vt 188.161 118.701
f 13/26/3 6/10/3 3/8/3

v 13.5789 3.015 -1.17749
f 6/10/3 13/26/3 14/24/3

usemtl BackColor
f 14/24/4 13/26/4 6/10/4

f 3/8/4 6/10/4 13/26/4

f 6/10/4 3/8/4 5/9/4

usemtl Translucent_Glass_Blue
vt 0 79.1339
vn 0 0 -1
f 6/27/9 7/13/9 5/11/9

v 17.662 2.01 -1.17749
vt -160.752 79.1339
f 7/13/9 6/27/9 15/28/9

vn -0 -0 1
f 5/11/10 7/13/10 6/27/10

usemtl BackColor
f 7/13/6 5/11/6 4/12/6

usemtl Color_D03
vt -2.84217e-014 39.5669
vn -1 0 -0
vt -188.161 0
f 7/29/11 9/30/11 4/2/11

vt -188.161 118.701
f 9/30/11 7/29/11 10/31/11

usemtl BackColor
vn 1 -0 0
f 4/2/12 9/30/12 7/29/12

f 10/31/12 7/29/12 9/30/12

usemtl Color_D03
vt -2.84217e-014 79.1339
f 15/32/11 10/31/11 7/29/11

v 17.662 3.015 -1.17749
f 10/31/11 15/32/11 16/24/11

usemtl BackColor
f 16/24/12 15/32/12 10/31/12

usemtl Color_D03
vn 0 7.1832e-016 -1
vt -160.752 118.701
f 15/28/13 14/24/13 16/33/13

f 14/24/13 15/28/13 6/27/13

usemtl BackColor
vn -0 -7.1832e-016 1
f 6/27/14 15/28/14 14/24/14

usemtl Translucent_Glass_Blue
f 15/28/10 6/27/10 7/13/10

usemtl BackColor
f 7/29/12 10/31/12 15/32/12

f 16/33/14 14/24/14 15/28/14

f 12/23/8 1/25/8 13/24/8

f 10/19/8 12/23/8 13/24/8

g Mesh2 DES012 Model

l 4 2

l 9 4

l 9 8

l 9 10

l 10 13

l 10 16

l 15 16

l 7 15

l 5 7

l 2 5

l 3 2

l 1 3

l 8 1

l 11 8

l 12 11

l 1 12

l 3 13

l 13 14

l 6 14

l 5 6

l 6 15

l 16 14

l 4 7

