# Alias OBJ Model File
# Exported from SketchUp, (c) 2000-2012 Trimble Navigation Limited
# File units = meters

mtllib DES010.mtl

g Mesh1 DES010 Model

usemtl FrontColor
v 24.5047 4.32871e-017 -5.95677
vt -81.5692 188.161
vn 3.98973e-018 -1 -4.09626e-018
v 22.4328 5.48606e-019 -1.17749
vt -8.61728e-035 8.84736e-035
v 22.4328 5.48606e-019 -5.95677
vt -8.61728e-035 188.161
f 1/1/1 2/2/1 3/3/1

v 25.3988 0 -1.17749
vt -116.77 2.84217e-014
f 2/2/1 1/1/1 4/4/1

usemtl _Tile_Ceramic_Natural_14
vt -14.8037 5.52858
vn -3.98973e-018 1 4.09626e-018
vt -14.8037 2.13901
vt -16.2731 5.52858
f 3/5/2 2/6/2 1/7/2

usemtl FrontColor
v 22.4328 1.005 -1.17749
vt -4.9738e-014 39.5669
vn -1 0 -0
vt -188.161 2.15987e-017
vt 0 2.15987e-017
f 5/8/3 3/9/3 2/10/3

v 22.4328 3.015 -5.82554
vt -182.994 118.701
f 3/9/3 5/8/3 6/11/3

usemtl Color_D03
vn 1 -0 0
f 2/10/4 3/9/4 5/8/4

f 6/11/4 5/8/4 3/9/4

usemtl FrontColor
v 22.4328 2.01 -1.17749
vt -4.9738e-014 79.1339
f 7/12/3 6/11/3 5/8/3

v 22.4328 3.015 -1.17749
vt 0 118.701
f 6/11/3 7/12/3 8/13/3

usemtl Color_D03
f 8/13/4 7/12/4 6/11/4

usemtl FrontColor
vt 9.0796e-030 79.1339
vn 1.82549e-016 -1.07748e-015 1
v 25.3988 3.015 -1.17749
vt 116.77 118.701
f 7/14/5 9/15/5 8/13/5

v 25.3988 2.01 -1.17749
vt 116.77 79.1339
f 9/15/5 7/14/5 10/16/5

usemtl Color_D03
vn -1.82549e-016 1.07748e-015 -1
f 10/16/6 7/14/6 9/15/6

usemtl Translucent_Glass_Blue
vt 7.56633e-030 39.5669
vn 1.52124e-016 -8.979e-017 1
vt 7.56633e-030 79.1339
f 5/17/7 10/16/7 7/18/7

v 25.3988 1.005 -1.17749
vt 116.77 39.5669
f 10/16/7 5/17/7 11/19/7

vn -1.52124e-016 8.979e-017 -1
f 11/19/8 5/17/8 10/16/8

usemtl FrontColor
vn 2.12973e-016 1.16727e-015 1
vt 1.05929e-029 39.5669
f 2/10/9 11/19/9 5/20/9

vt 116.77 4.14698e-030
f 11/19/9 2/10/9 4/21/9

usemtl Color_D03
vn -2.12973e-016 -1.16727e-015 -1
f 4/21/10 2/10/10 11/19/10

usemtl _Tile_Ceramic_Natural_14
vt -16.9073 2.13901
f 4/22/2 1/7/2 2/6/2

usemtl FrontColor
v 25.2611 4.32871e-017 -5.95677
vt -111.351 188.161
f 4/4/1 1/1/1 12/23/1

usemtl _Tile_Ceramic_Natural_14
vt -16.8096 5.52858
f 12/24/2 1/7/2 4/22/2

usemtl FrontColor
v 25.3988 0 -5.95677
vt -116.77 188.161
f 4/4/1 12/23/1 13/25/1

usemtl _Tile_Ceramic_Natural_14
vt -16.9073 5.52858
f 13/26/2 12/24/2 4/22/2

usemtl FrontColor
vt -111.351 -1.87194e-014
vn -6.9688e-017 1.08543e-016 -1
v 25.3988 3.015 -5.95677
vt -116.77 118.701
vt -116.77 -2.04236e-014
f 12/27/11 14/28/11 13/29/11

v 25.2611 2.009 -5.95677
vt -111.351 79.0945
f 14/28/11 12/27/11 15/30/11

usemtl Color_D03
vn 6.9688e-017 -1.08543e-016 1
f 13/29/12 14/28/12 12/27/12

usemtl FrontColor
v 25.3988 3.015 -5.85216
vt 184.042 118.701
vn 1 0 -0
vt 188.161 0
vt 188.161 118.701
f 16/31/13 13/32/13 14/33/13

vt 7.10543e-014 39.5669
f 11/34/13 13/32/13 16/31/13

vt 2.84217e-014 0
f 13/32/13 11/34/13 4/35/13

usemtl Color_D03
vn -1 -0 0
f 4/35/14 11/34/14 13/32/14

f 16/31/14 13/32/14 11/34/14

f 14/33/14 13/32/14 16/31/14

usemtl FrontColor
vt 6.39488e-014 79.1339
f 16/31/13 10/36/13 11/34/13

vt 2.84217e-014 118.701
f 10/36/13 16/31/13 9/37/13

usemtl Color_D03
f 9/37/14 16/31/14 10/36/14

f 11/34/14 10/36/14 16/31/14

f 15/30/12 12/27/12 14/28/12

usemtl FrontColor
v 22.4328 3.015 -5.95677
vt -1.31126e-014 118.701
f 14/28/11 15/30/11 17/38/11

usemtl Color_D03
f 17/38/12 15/30/12 14/28/12

usemtl FrontColor
v 24.5047 2.009 -5.95677
vt -81.5692 79.0945
f 18/39/11 17/38/11 15/30/11

vt -81.5692 -1.87194e-014
f 1/40/11 17/38/11 18/39/11

vt -1.31126e-014 -2.0402e-014
f 17/38/11 1/40/11 3/41/11

usemtl Color_D03
f 3/41/12 1/40/12 17/38/12

f 18/39/12 17/38/12 1/40/12

f 15/30/12 17/38/12 18/39/12

usemtl FrontColor
vt -188.161 118.701
f 3/9/3 6/11/3 17/42/3

usemtl Color_D03
f 17/42/4 6/11/4 3/9/4

f 5/20/10 11/19/10 2/10/10

usemtl Translucent_Glass_Blue
f 7/18/8 10/16/8 5/17/8

usemtl Color_D03
f 5/8/4 6/11/4 7/12/4

f 8/13/6 9/15/6 7/14/6

g Mesh2 DES010 Model

l 13 12

l 4 13

l 4 2

l 4 11

l 11 10

l 5 11

l 2 5

l 3 2

l 1 3

l 12 1

l 15 12

l 18 15

l 1 18

l 3 17

l 14 17

l 13 14

l 16 14

l 9 16

l 10 9

l 7 10

l 7 8

l 5 7

l 6 8

l 6 17

l 9 8

