# Alias OBJ Model File
# Exported from SketchUp, (c) 2000-2012 Trimble Navigation Limited
# File units = meters

mtllib DES009.mtl

g Mesh1 DES009 Model

usemtl FrontColor
v 25.6538 4.32871e-017 -5.95677
vt -5.24018 188.161
vn -4.19461e-018 -1 -4.10222e-018
v 25.5207 0 -1.17749
vt 0 0
v 25.5207 0 -5.95677
vt 0 188.161
f 1/1/1 2/2/1 3/3/1

v 28.4867 0 -1.17749
vt -116.77 2.0093e-033
f 2/2/1 1/1/1 4/4/1

usemtl _Tile_Ceramic_Natural_14
vt -16.9937 5.52858
vn 4.19461e-018 1 4.10222e-018
vt -16.9937 2.13901
vt -17.0881 5.52858
f 3/5/2 2/6/2 1/7/2

usemtl Color_D03
vt 188.161 0
vn 1 0 -0
v 25.5207 1.005 -1.17749
vt 4.26326e-014 39.5669
f 3/8/3 5/9/3 2/2/3

v 25.5207 3.015 -5.95677
vt 188.161 118.701
f 6/10/3 5/9/3 3/8/3

v 25.5207 2.01 -1.17749
vt 3.55271e-014 79.1339
f 6/10/3 7/11/3 5/9/3

v 25.5207 3.015 -1.17749
vt 0 118.701
f 7/11/3 6/10/3 8/12/3

usemtl BackColor
vn -1 -0 0
f 8/12/4 6/10/4 7/11/4

f 5/9/4 7/11/4 6/10/4

usemtl Translucent_Glass_Blue
vt -1.0809e-030 79.1339
vn -3.04248e-017 8.979e-017 -1
v 28.4867 1.005 -1.17749
vt -116.77 39.5669
vt -1.29709e-030 39.5669
f 7/13/5 9/14/5 5/15/5

v 28.4867 2.01 -1.17749
vt -116.77 79.1339
f 9/14/5 7/13/5 10/16/5

vn 3.04248e-017 -8.979e-017 1
f 5/15/6 9/14/6 7/13/6

usemtl Color_D03
vt -116.77 0
vn 0 -1.07748e-015 -1
vt 0 39.5669
f 4/17/7 5/18/7 9/14/7

f 5/18/7 4/17/7 2/2/7

usemtl BackColor
vn -0 1.07748e-015 1
f 2/2/8 4/17/8 5/18/8

usemtl _Tile_Ceramic_Natural_14
vt -19.0972 2.13901
f 4/19/2 1/7/2 2/6/2

usemtl FrontColor
v 26.4102 4.32871e-017 -5.95677
vt -35.0219 188.161
f 4/4/1 1/1/1 11/20/1

usemtl _Tile_Ceramic_Natural_14
vt -17.6246 5.52858
f 11/21/2 1/7/2 4/19/2

usemtl FrontColor
v 28.4867 0 -5.95677
vt -116.77 188.161
f 4/4/1 11/20/1 12/22/1

usemtl _Tile_Ceramic_Natural_14
vt -19.0972 5.52858
f 12/23/2 11/21/2 4/19/2

usemtl Color_D03
v 28.4867 3.015 -5.95677
vt 116.77 118.701
vn -6.99547e-017 -1.08448e-016 1
vt 35.0219 -1.87014e-014
vt 116.77 -2.04056e-014
f 13/24/9 11/25/9 12/26/9

v 26.4102 2.009 -5.95677
vt 35.0219 79.0945
f 11/25/9 13/24/9 14/27/9

usemtl BackColor
vn 6.99547e-017 1.08448e-016 -1
f 12/26/10 11/25/10 13/24/10

f 14/27/10 13/24/10 11/25/10

usemtl Color_D03
v 25.6538 2.009 -5.95677
vt 5.24018 79.0945
f 14/27/9 13/24/9 15/28/9

usemtl BackColor
f 15/28/10 13/24/10 14/27/10

usemtl Color_D03
vt -1.31627e-014 118.701
f 6/29/9 15/28/9 13/24/9

vt 5.24018 -1.87014e-014
f 6/29/9 1/30/9 15/28/9

vt -1.31627e-014 -2.04056e-014
f 1/30/9 6/29/9 3/31/9

usemtl BackColor
f 3/31/10 6/29/10 1/30/10

f 3/8/4 5/9/4 6/10/4

f 2/2/4 5/9/4 3/8/4

f 15/28/10 1/30/10 6/29/10

f 13/24/10 15/28/10 6/29/10

usemtl Color_D03
vt -188.161 0
vn -1 0 -0
vt -4.26326e-014 39.5669
vt -188.161 118.701
f 12/32/11 9/33/11 13/34/11

f 9/33/11 12/32/11 4/2/11

usemtl BackColor
vn 1 -0 0
f 4/2/12 12/32/12 9/33/12

f 13/34/12 9/33/12 12/32/12

usemtl Color_D03
vt -4.26326e-014 79.1339
f 10/35/11 13/34/11 9/33/11

v 28.4867 3.015 -1.17749
f 13/34/11 10/35/11 16/12/11

usemtl BackColor
f 16/12/12 10/35/12 13/34/12

usemtl Color_D03
vn -3.04248e-017 9.8769e-016 -1
vt -116.77 118.701
f 10/16/13 8/12/13 16/36/13

f 8/12/13 10/16/13 7/13/13

usemtl BackColor
vn 3.04248e-017 -9.8769e-016 1
f 7/13/14 10/16/14 8/12/14

usemtl Translucent_Glass_Blue
f 10/16/6 7/13/6 9/14/6

usemtl BackColor
f 9/33/12 13/34/12 10/35/12

f 16/36/14 8/12/14 10/16/14

f 9/14/8 5/18/8 4/17/8

g Mesh2 DES009 Model

l 12 11

l 4 12

l 4 2

l 4 9

l 5 9

l 5 7

l 2 5

l 3 2

l 1 3

l 11 1

l 14 11

l 15 14

l 1 15

l 3 6

l 13 6

l 12 13

l 16 13

l 10 16

l 9 10

l 7 10

l 7 8

l 6 8

l 16 8

