# Alias OBJ Model File
# Exported from SketchUp, (c) 2000-2012 Trimble Navigation Limited
# File units = meters

mtllib DES014.mtl

g Mesh1 DES014 Model

usemtl FrontColor
v 9.89163 4.32871e-017 -5.95677
vt -86.2851 188.161
vn 2.3845e-018 -1 -4.58684e-018
v 8.60294 0 -1.17749
vt -35.5494 7.10543e-015
v 7.69999 0 -5.95677
vt 0 188.161
f 1/1/1 2/2/1 3/3/1

v 11.5006 0 -1.17749
vt -149.63 -1.63656e-033
f 2/2/1 1/1/1 4/4/1

usemtl _Tile_Ceramic_Natural_14
vt -4.35492 5.52858
vn -2.3845e-018 1 4.58684e-018
vt -4.99531 2.13901
vt -5.90928 5.52858
f 3/5/2 2/6/2 1/7/2

usemtl Color_D03
vt 184.89 0
vn 0.982617 0 -0.185646
v 8.60294 3.015 -1.17749
vt -6.59961 118.701
vt -6.59961 0
f 3/8/3 5/9/3 2/10/3

v 7.69999 3.015 -5.95677
vt 184.89 118.701
f 5/9/3 3/8/3 6/11/3

usemtl BackColor
vn -0.982617 -0 0.185646
f 2/10/4 5/9/4 3/8/4

usemtl Color_D03
v 9.48597 1.005 -1.17749
vt -70.3144 39.5669
vn 7.32934e-017 -5.77584e-032 -1
vt -35.5494 5.6089e-046
vt -35.5494 118.701
f 7/12/5 2/13/5 5/14/5

vt -149.63 6.33432e-046
f 2/13/5 7/12/5 4/15/5

usemtl BackColor
vn -7.32934e-017 5.77584e-032 1
f 4/15/6 7/12/6 2/13/6

usemtl Color_D03
v 11.5006 1.005 -1.17749
vt -149.63 39.5669
f 8/16/5 4/15/5 7/12/5

vt -3.55271e-014 39.5669
vn -1 0 -0
v 11.5006 0 -5.95677
vt -188.161 0
vt 0 0
f 8/17/7 9/18/7 4/19/7

v 11.5006 3.015 -5.95677
vt -188.161 118.701
f 9/18/7 8/17/7 10/20/7

usemtl BackColor
vn 1 -0 0
f 4/19/8 9/18/8 8/17/8

usemtl FrontColor
v 10.6481 4.32871e-017 -5.95677
vt -116.067 188.161
vt -149.63 188.161
f 4/4/1 11/21/1 9/22/1

f 4/4/1 1/1/1 11/21/1

usemtl _Tile_Ceramic_Natural_14
vt -7.05039 2.13901
f 4/23/2 1/7/2 2/6/2

vt -6.44577 5.52858
f 11/24/2 1/7/2 4/23/2

vt -7.05039 5.52858
f 9/25/2 11/24/2 4/23/2

usemtl Color_D03
vt 149.63 118.701
vn 0 0 1
vt 116.067 1.70422e-015
vt 149.63 0
f 10/26/9 11/27/9 9/28/9

v 10.6481 2.009 -5.95677
vt 116.067 79.0945
f 11/27/9 10/26/9 12/29/9

usemtl BackColor
vn -0 -0 -1
f 9/28/10 11/27/10 10/26/10

f 12/29/10 10/26/10 11/27/10

usemtl Color_D03
v 9.89163 2.009 -5.95677
vt 86.2851 79.0945
f 12/29/9 10/26/9 13/30/9

usemtl BackColor
f 13/30/10 10/26/10 12/29/10

usemtl Color_D03
vt 0 118.701
f 6/31/9 13/30/9 10/26/9

vt 86.2851 1.70422e-015
f 6/31/9 1/32/9 13/30/9

f 1/32/9 6/31/9 3/19/9

usemtl BackColor
f 3/19/10 6/31/10 1/32/10

f 6/11/4 3/8/4 5/9/4

f 13/30/10 1/32/10 6/31/10

f 10/26/10 13/30/10 6/31/10

f 10/20/8 8/17/8 9/18/8

usemtl Color_D03
v 11.5006 2.01 -1.17749
vt -3.55271e-014 79.1339
f 14/33/7 10/20/7 8/17/7

v 11.5006 3.015 -1.17749
f 10/20/7 14/33/7 15/31/7

usemtl BackColor
f 15/31/8 14/33/8 10/20/8

usemtl Color_D03
vt -149.63 79.1339
vt -149.63 118.701
f 14/34/5 5/14/5 15/35/5

v 9.48597 2.01 -1.17749
vt -70.3144 79.1339
f 16/36/5 5/14/5 14/34/5

f 7/12/5 5/14/5 16/36/5

usemtl BackColor
f 5/14/6 2/13/6 7/12/6

f 16/36/6 5/14/6 7/12/6

f 14/34/6 5/14/6 16/36/6

f 15/35/6 5/14/6 14/34/6

usemtl Translucent_Glass_Blue
vt 70.3144 39.5669
vn -3.58335e-016 2.60217e-032 1
vt 149.63 79.1339
vt 70.3144 79.1339
f 7/37/11 14/38/11 16/39/11

vt 149.63 39.5669
f 14/38/11 7/37/11 8/40/11

vn 3.58335e-016 -2.60217e-032 -1
f 8/40/12 7/37/12 14/38/12

usemtl BackColor
f 7/12/6 4/15/6 8/16/6

usemtl Translucent_Glass_Blue
f 16/39/12 14/38/12 7/37/12

usemtl BackColor
f 8/17/8 10/20/8 14/33/8

g Mesh2 DES014 Model

l 9 4

l 9 11

l 9 10

l 10 15

l 10 6

l 3 6

l 3 2

l 1 3

l 11 1

l 12 11

l 13 12

l 1 13

l 4 2

l 4 8

l 8 14

l 7 8

l 16 7

l 16 14

l 14 15

l 15 5

l 6 5

l 2 5

