# Alias OBJ Model File
# Exported from SketchUp, (c) 2000-2012 Trimble Navigation Limited
# File units = meters

mtllib LAB007.mtl

g Mesh1 Group1 LAB007 Model

usemtl Color_D03
v 26.2315 -1.44265e-015 -13.0268
vt 8.04085 3.02628e-017
vn 0.965926 5.6926e-018 -0.258819
v 26.2385 3.015 -12.9735
vt 5.92366 118.701
vn 1 3.93422e-018 -0
v 26.2385 -1.44301e-015 -12.9735
vt 5.92366 1.60019e-017
f 1/1/1 2/2/2 3/3/2

v 26.2315 3.015 -13.0268
vt 8.04085 118.701
f 2/2/2 1/1/1 4/4/1

usemtl BackColor
vn -1 -3.93422e-018 0
vn -0.965926 -5.6926e-018 0.258819
f 3/3/3 2/2/3 1/1/4

usemtl Color_D03
v 26.2315 3.015 -12.9202
vn 0.965926 1.90772e-018 0.258819
vt 10.158 5.49564e-017
vt 10.158 118.701
f 5/4/5 3/5/2 2/6/2

v 26.2315 -1.44343e-015 -12.9202
vt 8.04085 3.8521e-017
f 3/5/2 5/4/5 6/7/5

usemtl BackColor
vn -0.965926 -1.90772e-018 -0.258819
f 6/7/6 5/4/6 3/5/3

usemtl Color_D03
v 26.2109 3.015 -12.8705
vt 9.53794 118.701
vn 0.866025 -2.48789e-019 0.5
vt 11.6551 7.23824e-017
vt 11.6551 118.701
f 7/8/7 6/9/5 5/10/5

v 26.2109 -1.44387e-015 -12.8705
vt 9.53794 5.48926e-017
f 6/9/5 7/8/7 8/11/7

usemtl BackColor
vn -0.866025 2.48789e-019 -0.5
f 8/11/8 7/8/8 6/9/6

usemtl Color_D03
v 26.1781 3.015 -12.8278
vt 10.3129 118.701
vn 0.707107 -2.38834e-018 0.707107
vt 12.4301 7.79768e-017
vt 12.4301 118.701
f 9/12/9 8/13/7 7/14/7

v 26.1781 -1.44431e-015 -12.8278
vt 10.3129 6.06245e-017
f 8/13/7 9/12/9 10/15/9

usemtl BackColor
vn -0.707107 2.38834e-018 -0.707107
f 10/15/10 9/12/10 8/13/8

usemtl Color_D03
v 26.1355 3.015 -12.7951
vn 0.5 -4.36513e-018 0.866025
vt 12.4301 7.02269e-017
f 11/12/11 10/16/9 9/14/9

v 26.1355 -1.44472e-015 -12.7951
vt 10.3129 5.41947e-017
f 10/16/9 11/12/11 12/17/11

usemtl BackColor
vn -0.5 4.36513e-018 -0.866025
f 12/17/12 11/12/12 10/16/10

usemtl Color_D03
v 26.0858 3.015 -12.7745
vn 0.258819 -6.04444e-018 0.965926
vt 11.6551 5.10773e-017
f 13/8/13 12/18/11 11/10/11

v 26.0858 -1.44507e-015 -12.7745
vt 9.53794 3.74577e-017
f 12/18/11 13/8/13 14/19/13

usemtl BackColor
vn -0.258819 6.04444e-018 -0.965926
f 14/19/14 13/8/14 12/18/12

usemtl Color_D03
v 26.0325 3.015 -12.7675
vn 3.49938e-015 -7.31184e-018 1
vt 10.158 2.54183e-017
f 15/4/15 14/20/13 13/6/13

v 26.0325 -1.44533e-015 -12.7675
vt 8.04085 1.51394e-017
f 14/20/13 15/4/15 16/21/15

usemtl BackColor
vn -3.49938e-015 7.31184e-018 -1
f 16/21/16 15/4/16 14/20/14

usemtl Color_D03
v 25.9792 3.015 -12.7745
vn -0.258819 -8.08094e-018 0.965926
vt 8.04085 -2.08773e-019
f 17/2/17 16/22/15 15/4/15

v 25.9792 -1.44549e-015 -12.7745
vt 5.92366 -6.4464e-018
f 16/22/15 17/2/17 18/23/17

usemtl BackColor
vn 0.258819 8.08094e-018 -0.965926
f 18/23/18 17/2/18 16/22/16

usemtl Color_D03
v 25.9295 3.015 -12.7951
vt 3.33063 118.701
vn -0.5 -8.29934e-018 0.866025
vt 5.44783 -1.93407e-017
vt 5.44783 118.701
f 19/24/19 18/25/17 17/26/17

v 25.9295 -1.44553e-015 -12.7951
vt 3.33063 -2.1112e-017
f 18/25/17 19/24/19 20/27/19

usemtl BackColor
vn 0.5 8.29934e-018 -0.866025
f 20/27/20 19/24/20 18/25/18

usemtl Color_D03
vt 2.55568 118.701
v 25.8868 -1.44546e-015 -12.8278
vt 0.438486 -2.44817e-017
vn -0.707107 -7.95216e-018 0.707107
vt 2.55568 -2.72974e-017
f 19/28/19 21/29/21 20/30/19

v 25.8868 3.015 -12.8278
vt 0.438486 118.701
f 21/29/21 19/28/19 22/31/21

usemtl BackColor
vn 0.707107 7.95216e-018 -0.707107
f 20/30/20 21/29/22 19/28/20

f 22/31/22 19/28/20 21/29/22

usemtl _Stone_Granite_Midnite_2
v 25.8868 3.015 -13.1192
vt 101.385 51.6502
vn -3.93422e-018 1 7.31184e-018
vt 101.385 50.5033
vt 101.553 50.3744
f 23/32/23 22/33/23 19/34/23

v 25.8541 3.015 -13.0765
vt 101.256 51.4822
f 24/35/23 22/33/23 23/32/23

v 25.8541 3.015 -12.8705
vt 101.256 50.6712
f 24/35/23 25/36/23 22/33/23

v 25.8335 3.015 -13.0268
vt 101.175 51.2866
f 26/37/23 25/36/23 24/35/23

v 25.8335 3.015 -12.9202
vt 101.175 50.8668
f 26/37/23 27/38/23 25/36/23

v 25.8265 3.015 -12.9735
vt 101.148 51.0767
f 27/38/23 26/37/23 28/39/23

usemtl BackColor
vt 4.66994e-016 8.11024
vn 3.93422e-018 -1 -7.31184e-018
vt 0.27635 10.2093
vt 0.27635 6.01115
f 28/40/24 26/41/24 27/42/24

usemtl Color_D03
vt -10.158 118.701
v 25.8265 -1.44463e-015 -12.9735
vt -8.04085 3.8521e-017
vn -1 -3.93422e-018 -0
vt -8.04085 118.701
f 26/43/6 29/44/25 28/45/25

v 25.8335 -1.44422e-015 -13.0268
vt -10.158 5.49564e-017
f 29/44/25 26/43/6 30/46/6

usemtl BackColor
vn 1 3.93422e-018 0
f 28/45/26 29/44/26 26/43/5

usemtl Color_D03
v 25.8335 -1.445e-015 -12.9202
vt -5.92366 1.60019e-017
vt -8.04085 3.02628e-017
f 31/47/4 28/45/25 29/48/25

vt -5.92366 118.701
f 28/45/25 31/47/4 27/49/4

usemtl BackColor
f 27/49/1 31/47/1 28/45/26

usemtl Color_D03
v 25.8541 -1.44528e-015 -12.8705
vt -3.33063 -6.4137e-018
vn -0.866025 -7.06305e-018 0.5
vt -5.44783 118.701
vt -5.44783 4.70095e-018
f 32/50/27 27/51/4 31/52/4

vt -3.33063 118.701
f 27/51/4 32/50/27 25/53/27

usemtl BackColor
vn 0.866025 7.06305e-018 -0.5
f 25/53/28 32/50/28 27/51/1

usemtl Color_D03
vt -0.438486 -2.24051e-017
vt -2.55568 118.701
vt -2.55568 -1.51942e-017
f 21/54/21 25/55/27 32/56/27

vt -0.438486 118.701
f 25/55/27 21/54/21 22/57/21

usemtl BackColor
f 22/57/22 21/54/22 25/55/28

f 32/56/28 25/55/28 21/54/22

vt 2.37543 2.37543
vt 1.08657 4.05512
vt 1.08657 12.1654
f 22/58/24 25/59/24 24/60/24

f 24/60/24 25/59/24 26/41/24

f 25/59/24 27/42/24 26/41/24

usemtl Color_D03
vt -11.6551 118.701
vt -9.53794 5.48926e-017
vt -9.53794 118.701
f 24/61/8 30/62/6 26/63/6

v 25.8541 -1.44377e-015 -13.0765
vt -11.6551 7.23824e-017
f 30/62/6 24/61/8 33/64/8

usemtl BackColor
f 26/63/5 30/62/5 24/61/7

f 30/46/5 26/43/5 29/44/26

f 33/64/7 24/61/7 30/62/5

usemtl Color_D03
vt -12.4301 118.701
vt -10.3129 6.06245e-017
vt -10.3129 118.701
f 23/65/10 33/66/8 24/67/8

v 25.8868 -1.44333e-015 -13.1192
vt -12.4301 7.79768e-017
f 33/66/8 23/65/10 34/68/10

usemtl BackColor
f 24/67/7 33/66/7 23/65/9

f 34/68/9 23/65/9 33/66/7

usemtl Color_D03
v 25.9295 -1.44292e-015 -13.1519
vt -12.4301 7.02269e-017
vt -10.3129 5.41947e-017
f 23/67/10 35/69/12 34/70/10

v 25.9295 3.015 -13.1519
f 35/69/12 23/67/10 36/65/12

usemtl BackColor
f 34/70/9 35/69/11 23/67/9

f 36/65/11 23/67/9 35/69/11

usemtl _Stone_Granite_Midnite_2
vt 101.553 51.7791
f 23/32/23 19/34/23 36/71/23

usemtl BackColor
vt 4.05512 1.08657
vt 2.37543 13.845
f 19/72/24 22/58/24 23/73/24

f 23/73/24 22/58/24 24/60/24

vt 4.05512 15.1339
f 36/74/24 19/72/24 23/73/24

usemtl _Stone_Granite_Midnite_2
vt 101.749 50.2933
f 36/71/23 19/34/23 17/75/23

usemtl BackColor
vt 6.01115 0.27635
f 17/76/24 19/72/24 36/74/24

f 17/26/18 18/25/18 19/24/20

usemtl _Stone_Granite_Midnite_2
v 25.9792 3.015 -13.1725
vt 101.749 51.8601
f 36/71/23 17/75/23 37/77/23

usemtl BackColor
vt 6.01115 15.9441
f 37/78/24 17/76/24 36/74/24

usemtl _Stone_Granite_Midnite_2
vt 101.959 50.2657
f 37/77/23 17/75/23 15/79/23

usemtl BackColor
vt 8.11024 8.67921e-016
f 15/80/24 17/76/24 37/78/24

f 15/4/16 16/22/16 17/2/18

usemtl _Stone_Granite_Midnite_2
v 26.0325 3.015 -13.1795
vt 101.959 51.8878
f 37/77/23 15/79/23 38/81/23

usemtl BackColor
vt 8.11024 16.2205
f 38/82/24 15/80/24 37/78/24

usemtl _Stone_Granite_Midnite_2
vt 102.168 50.2933
f 38/81/23 15/79/23 13/83/23

usemtl BackColor
vt 10.2093 0.27635
f 13/84/24 15/80/24 38/82/24

f 13/6/14 14/20/14 15/4/16

usemtl _Stone_Granite_Midnite_2
v 26.0858 3.015 -13.1725
vt 102.168 51.8601
f 38/81/23 13/83/23 39/85/23

usemtl BackColor
vt 10.2093 15.9441
f 39/86/24 13/84/24 38/82/24

usemtl _Stone_Granite_Midnite_2
vt 102.364 50.3744
f 39/85/23 13/83/23 11/87/23

usemtl BackColor
vt 12.1654 1.08657
f 11/88/24 13/84/24 39/86/24

f 11/10/12 12/18/12 13/8/14

usemtl _Stone_Granite_Midnite_2
v 26.1355 3.015 -13.1519
vt 102.364 51.7791
f 39/85/23 11/87/23 40/89/23

usemtl BackColor
vt 12.1654 15.1339
f 40/90/24 11/88/24 39/86/24

usemtl _Stone_Granite_Midnite_2
vt 102.532 50.5033
f 40/89/23 11/87/23 9/91/23

usemtl BackColor
vt 13.845 2.37543
f 9/92/24 11/88/24 40/90/24

f 9/14/10 10/16/10 11/12/12

usemtl _Stone_Granite_Midnite_2
v 26.1781 3.015 -13.1192
vt 102.532 51.6502
f 40/89/23 9/91/23 41/93/23

usemtl BackColor
vt 13.845 13.845
f 41/94/24 9/92/24 40/90/24

usemtl _Stone_Granite_Midnite_2
vt 102.661 50.6712
f 41/93/23 9/91/23 7/95/23

usemtl BackColor
vt 15.1339 4.05512
f 7/96/24 9/92/24 41/94/24

f 7/14/8 8/13/8 9/12/10

usemtl _Stone_Granite_Midnite_2
v 26.2109 3.015 -13.0765
vt 102.661 51.4822
f 41/93/23 7/95/23 42/97/23

usemtl BackColor
vt 15.1339 12.1654
f 42/98/24 7/96/24 41/94/24

usemtl _Stone_Granite_Midnite_2
vt 102.742 50.8668
f 42/97/23 7/95/23 5/99/23

usemtl BackColor
vt 15.9441 6.01115
f 5/100/24 7/96/24 42/98/24

f 5/10/6 6/9/6 7/8/8

usemtl _Stone_Granite_Midnite_2
vt 102.742 51.2866
f 42/97/23 5/99/23 4/101/23

usemtl BackColor
vt 15.9441 10.2093
f 4/102/24 5/100/24 42/98/24

usemtl _Stone_Granite_Midnite_2
vt 102.77 51.0767
f 4/101/23 5/99/23 2/103/23

usemtl BackColor
vt 16.2205 8.11024
f 2/104/24 5/100/24 4/102/24

f 2/6/3 3/5/3 5/4/6

f 4/4/4 1/1/4 2/2/3

usemtl Color_D03
v 26.2109 -1.44237e-015 -13.0765
vt 5.44783 4.70095e-018
vt 3.33063 -6.4137e-018
f 43/105/28 4/24/1 1/106/1

f 4/24/1 43/105/28 42/26/28

usemtl BackColor
f 1/106/4 4/24/4 43/105/27

f 42/26/27 43/105/27 4/24/4

usemtl Color_D03
v 26.1781 -1.44218e-015 -13.1192
vt 2.55568 -1.51942e-017
vt 0.438486 -2.24051e-017
f 44/107/22 42/31/28 43/108/28

f 42/31/28 44/107/22 41/28/22

usemtl BackColor
f 43/108/27 42/31/27 44/107/21

f 41/28/21 44/107/21 42/31/27

usemtl Color_D03
v 26.1355 -1.44211e-015 -13.1519
vt -0.438486 -2.44817e-017
vt -2.55568 -2.72974e-017
f 45/109/20 41/55/22 44/110/22

f 41/55/22 45/109/20 40/57/20

usemtl BackColor
f 44/110/21 41/55/21 45/109/19

f 40/57/19 45/109/19 41/55/21

usemtl Color_D03
vt -5.44783 -1.93407e-017
f 45/111/20 39/53/18 40/51/20

v 26.0858 -1.44216e-015 -13.1725
vt -3.33063 -2.1112e-017
f 39/53/18 45/111/20 46/112/18

usemtl BackColor
f 46/112/17 45/111/19 39/53/17

f 40/51/19 39/53/17 45/111/19

usemtl Color_D03
vt -8.04085 -2.08773e-019
vn -3.51338e-015 7.31184e-018 -1
f 46/113/18 38/49/29 39/45/18

v 26.0325 -1.44232e-015 -13.1795
vt -5.92366 -6.4464e-018
f 38/49/29 46/113/18 47/114/29

usemtl BackColor
vn 3.51338e-015 -7.31184e-018 1
f 47/114/30 46/113/17 38/49/30

f 39/45/17 38/49/30 46/113/17

usemtl Color_D03
vt -10.158 2.54183e-017
f 47/115/29 37/45/14 38/43/29

v 25.9792 -1.44258e-015 -13.1725
vt -8.04085 1.51394e-017
f 37/45/14 47/115/29 48/116/14

usemtl BackColor
f 48/116/13 47/115/30 37/45/13

f 38/43/30 37/45/13 47/115/30

usemtl Color_D03
vt -11.6551 5.10773e-017
f 48/117/14 36/63/12 37/61/14

vt -9.53794 3.74577e-017
f 36/63/12 48/117/14 35/118/12

usemtl BackColor
f 35/118/11 48/117/13 36/63/11

f 37/61/13 36/63/11 48/117/13

f 31/52/1 27/51/1 32/50/28

f 29/48/26 28/45/26 31/47/1

g Mesh2 Group1 LAB007 Model

l 38 37

l 39 38

l 40 39

l 41 40

l 42 41

l 4 42

l 2 4

l 5 2

l 7 5

l 9 7

l 11 9

l 13 11

l 15 13

l 17 15

l 19 17

l 22 19

l 25 22

l 27 25

l 28 27

l 26 28

l 24 26

l 23 24

l 36 23

l 37 36

g Mesh3 Group1 LAB007 Model

l 14 12

l 16 14

l 18 16

l 20 18

l 21 20

l 32 21

l 31 32

l 29 31

l 30 29

l 33 30

l 34 33

l 35 34

l 48 35

l 47 48

l 46 47

l 45 46

l 44 45

l 43 44

l 1 43

l 3 1

l 6 3

l 8 6

l 10 8

l 12 10

g Mesh4 LAB007 Model

usemtl Color_D03
v 32.1105 3.015 -14.1135
vt -218.01 118.701
vn -1 0 -0
v 32.1105 2.01 -8.57602
vt -5.68434e-014 79.1339
v 32.1105 3.015 -8.57602
vt 0 118.701
f 49/119/31 50/120/31 51/121/31

v 32.1105 2.01 -14.1135
vt -218.01 79.1339
f 50/120/31 49/119/31 52/122/31

usemtl BackColor
vn 1 -0 0
f 51/121/32 50/120/32 49/119/32

usemtl Color_D03
vt -318.346 79.1339
vn 8.06757e-017 -9.19432e-017 -1
v 24.0245 3.015 -8.57602
vt -318.346 118.701
f 50/123/33 53/121/33 51/124/33

v 25.2553 2.009 -8.57602
vt -48.4551 79.0945
f 54/125/33 53/121/33 50/123/33

v 24.4988 2.009 -8.57602
vt -18.6734 79.0945
f 55/126/33 53/121/33 54/125/33

v 24.0245 0 -8.57602
vt 0 5.69107e-014
f 55/126/33 56/127/33 53/121/33

v 24.4988 -9.35301e-017 -8.57602
vt -18.6734 5.32284e-014
f 56/127/33 55/126/33 57/128/33

usemtl BackColor
vn -8.06757e-017 9.19432e-017 1
f 57/128/34 55/126/34 56/127/34

f 53/121/34 56/127/34 55/126/34

usemtl Color_D03
v 24.0245 0 -14.1135
vt 218.01 5.69107e-014
vn 1 0 -0
f 58/129/35 53/121/35 56/127/35

v 24.0245 3.015 -14.1135
vt 218.01 118.701
f 53/121/35 58/129/35 59/130/35

usemtl BackColor
vn -1 -0 0
f 56/127/36 53/121/36 58/129/36

f 59/130/36 58/129/36 53/121/36

usemtl Color_D03
vt -5.22287e-014 5.69107e-014
vn -2.3957e-016 1.00617e-030 1
v 25.8404 1.005 -14.1135
vt 71.4919 39.5669
vt -5.22287e-014 118.701
f 58/131/37 60/132/37 59/133/37

v 32.1105 1.005 -14.1135
vt 318.346 39.5669
f 58/131/37 61/134/37 60/132/37

v 32.1105 0 -14.1135
vt 318.346 5.69107e-014
f 61/134/37 58/131/37 62/135/37

usemtl BackColor
vn 2.3957e-016 -1.00617e-030 -1
f 62/135/38 58/131/38 61/134/38

usemtl FrontColor
vt -318.346 218.01
vt -2.23899e-031 4.16122e-031
vt -2.23899e-031 218.01
f 62/136/24 56/137/24 58/138/24

vt -18.6734 5.68434e-014
f 56/137/24 62/136/24 57/139/24

usemtl _Tile_Ceramic_Natural_14
vt -15.9326 11.3135
vt -15.9326 7.3862
vt -21.6674 11.3135
f 58/140/23 56/141/23 62/142/23

vt -16.269 7.3862
f 57/143/23 62/142/23 56/141/23

usemtl FrontColor
v 25.2553 -9.35301e-017 -8.57602
vt -48.4551 5.68434e-014
f 57/139/24 62/136/24 63/144/24

usemtl _Tile_Ceramic_Natural_14
vt -16.8055 7.3862
f 63/145/23 62/142/23 57/143/23

usemtl FrontColor
v 32.1105 0 -8.57602
vt -318.346 4.06964e-031
f 63/144/24 62/136/24 64/146/24

usemtl _Tile_Ceramic_Natural_14
vt -21.6674 7.3862
f 64/147/23 62/142/23 63/145/23

usemtl Color_D03
v 32.1105 1.005 -8.57602
vt -5.68434e-014 39.5669
vt -218.01 5.69107e-014
f 65/148/31 62/149/31 64/127/31

vt -218.01 39.5669
f 62/149/31 65/148/31 61/150/31

usemtl BackColor
f 64/127/32 62/149/32 65/148/32

f 61/150/32 65/148/32 62/149/32

usemtl Translucent_Glass_Blue
f 65/148/31 52/122/31 61/150/31

f 52/122/31 65/148/31 50/120/31

f 50/120/32 65/148/32 52/122/32

usemtl Color_D03
vt -318.346 39.5669
f 65/151/33 54/125/33 50/123/33

vt -318.346 5.69107e-014
f 64/152/33 54/125/33 65/151/33

vt -48.4551 5.32284e-014
f 54/125/33 64/152/33 63/153/33

usemtl BackColor
f 63/153/34 64/152/34 54/125/34

f 65/151/34 54/125/34 64/152/34

f 50/123/34 54/125/34 65/151/34

f 50/123/34 53/121/34 54/125/34

f 51/124/34 53/121/34 50/123/34

f 54/125/34 53/121/34 55/126/34

usemtl Translucent_Glass_Blue
f 61/150/32 52/122/32 65/148/32

vt 318.346 79.1339
vn -1.38163e-015 7.12896e-046 1
f 52/154/39 60/132/39 61/134/39

v 25.8404 2.01 -14.1135
vt 71.4919 79.1339
f 60/132/39 52/154/39 66/155/39

vn 1.38163e-015 -7.12896e-046 -1
f 61/134/40 60/132/40 52/154/40

usemtl BackColor
f 60/132/38 61/134/38 58/131/38

f 59/133/38 60/132/38 58/131/38

usemtl Color_D03
f 59/133/37 60/132/37 66/155/37

usemtl BackColor
f 66/155/38 60/132/38 59/133/38

usemtl Translucent_Glass_Blue
f 66/155/40 52/154/40 60/132/40

usemtl Color_D03
vt 318.346 118.701
f 49/156/37 66/155/37 52/154/37

f 59/133/37 66/155/37 49/156/37

usemtl BackColor
f 49/156/38 66/155/38 59/133/38

f 52/154/38 66/155/38 49/156/38

f 52/122/32 49/119/32 50/120/32

g Mesh5 LAB007 Model

l 52 49

l 50 52

l 50 51

l 65 50

l 65 61

l 64 65

l 62 64

l 58 62

l 58 56

l 58 59

l 59 49

l 59 53

l 56 53

l 57 56

l 63 57

l 64 63

l 54 63

l 54 55

l 57 55

l 51 53

l 49 51

l 62 61

l 61 52

l 61 60

l 60 66

l 52 66

