# Alias OBJ Model File
# Exported from SketchUp, (c) 2000-2012 Trimble Navigation Limited
# File units = meters

mtllib LAB015.mtl

g Mesh1 Group1 LAB015 Model

usemtl Color_D03
v 5.70819 2.07205e-018 -6.70506
vt 8.04085 3.02628e-017
vn 0.965926 5.6926e-018 -0.258819
v 5.7152 3.015 -6.65174
vt 5.92366 118.701
vn 1 3.93422e-018 -0
v 5.7152 1.70982e-018 -6.65174
vt 5.92366 1.60019e-017
f 1/1/1 2/2/2 3/3/2

v 5.70819 3.015 -6.70506
vt 8.04085 118.701
f 2/2/2 1/1/1 4/4/1

usemtl BackColor
vn -1 -3.93422e-018 0
vn -0.965926 -5.6926e-018 0.258819
f 3/3/3 2/2/3 1/1/4

usemtl Color_D03
v 5.70819 3.015 -6.59842
vn 0.965926 1.90772e-018 0.258819
vt 10.158 5.49564e-017
vt 10.158 118.701
f 5/4/5 3/5/2 2/6/2

v 5.70819 1.29237e-018 -6.59842
vt 8.04085 3.8521e-017
f 3/5/2 5/4/5 6/7/5

usemtl BackColor
vn -0.965926 -1.90772e-018 -0.258819
f 6/7/6 5/4/6 3/5/3

usemtl Color_D03
v 5.68761 3.015 -6.54874
vt 9.53794 118.701
vn 0.866025 -2.48789e-019 0.5
vt 11.6551 7.23824e-017
vt 11.6551 118.701
f 7/8/7 6/9/5 5/10/5

v 5.68761 8.48125e-019 -6.54874
vt 9.53794 5.48926e-017
f 6/9/5 7/8/7 8/11/7

usemtl BackColor
vn -0.866025 2.48789e-019 -0.5
f 8/11/8 7/8/8 6/9/6

usemtl Color_D03
v 5.65487 3.015 -6.50607
vt 10.3129 118.701
vn 0.707107 -2.38834e-018 0.707107
vt 12.4301 7.79768e-017
vt 12.4301 118.701
f 9/12/9 8/13/7 7/14/7

v 5.65487 4.07378e-019 -6.50607
vt 10.3129 6.06245e-017
f 8/13/7 9/12/9 10/15/9

usemtl BackColor
vn -0.707107 2.38834e-018 -0.707107
f 10/15/10 9/12/10 8/13/8

usemtl Color_D03
v 5.6122 3.015 -6.47334
vn 0.5 -4.36513e-018 0.866025
vt 12.4301 7.02269e-017
f 11/12/11 10/16/9 9/14/9

v 5.6122 1.59205e-022 -6.47334
vt 10.3129 5.41947e-017
f 10/16/9 11/12/11 12/17/11

usemtl BackColor
vn -0.5 4.36513e-018 -0.866025
f 12/17/12 11/12/12 10/16/10

usemtl Color_D03
v 5.56252 3.015 -6.45276
vn 0.258819 -6.04444e-018 0.965926
vt 11.6551 5.10773e-017
f 13/8/13 12/18/11 11/10/11

v 5.56252 -3.45779e-019 -6.45276
vt 9.53794 3.74577e-017
f 12/18/11 13/8/13 14/19/13

usemtl BackColor
vn -0.258819 6.04444e-018 -0.965926
f 14/19/14 13/8/14 12/18/12

usemtl Color_D03
v 5.5092 3.015 -6.44574
vn 3.49938e-015 -7.31184e-018 1
vt 10.158 2.54183e-017
f 15/4/15 14/20/13 13/6/13

v 5.5092 -6.06863e-019 -6.44574
vt 8.04085 1.51394e-017
f 14/20/13 15/4/15 16/21/15

usemtl BackColor
vn -3.49938e-015 7.31184e-018 -1
f 16/21/16 15/4/16 14/20/14

usemtl Color_D03
v 5.45589 3.015 -6.45276
vn -0.258819 -8.08094e-018 0.965926
vt 8.04085 -2.08773e-019
f 17/2/17 16/22/15 15/4/15

v 5.45589 -7.65298e-019 -6.45276
vt 5.92366 -6.4464e-018
f 16/22/15 17/2/17 18/23/17

usemtl BackColor
vn 0.258819 8.08094e-018 -0.965926
f 18/23/18 17/2/18 16/22/16

usemtl Color_D03
v 5.4062 3.015 -6.47334
vt 3.33063 118.701
vn -0.5 -8.29934e-018 0.866025
vt 5.44783 -1.93407e-017
vt 5.44783 118.701
f 19/24/19 18/25/17 17/26/17

v 5.4062 -8.10289e-019 -6.47334
vt 3.33063 -2.1112e-017
f 18/25/17 19/24/19 20/27/19

usemtl BackColor
vn 0.5 8.29934e-018 -0.866025
f 20/27/20 19/24/20 18/25/18

usemtl Color_D03
vt 2.55568 118.701
v 5.36354 -7.38769e-019 -6.50607
vt 0.438486 -2.44817e-017
vn -0.707107 -7.95216e-018 0.707107
vt 2.55568 -2.72974e-017
f 19/28/19 21/29/21 20/30/19

v 5.36354 3.015 -6.50607
vt 0.438486 118.701
f 21/29/21 19/28/19 22/31/21

usemtl BackColor
vn 0.707107 7.95216e-018 -0.707107
f 20/30/20 21/29/22 19/28/20

f 22/31/22 19/28/20 21/29/22

usemtl _Stone_Granite_Midnite_2
v 5.36354 3.015 -6.7974
vt 101.385 51.6502
vn -3.93422e-018 1 7.31184e-018
vt 101.385 50.5033
vt 101.553 50.3744
f 23/32/23 22/33/23 19/34/23

v 5.3308 3.015 -6.75474
vt 101.256 51.4822
f 24/35/23 22/33/23 23/32/23

v 5.3308 3.015 -6.54874
vt 101.256 50.6712
f 24/35/23 25/36/23 22/33/23

v 5.31022 3.015 -6.70506
vt 101.175 51.2866
f 26/37/23 25/36/23 24/35/23

v 5.31022 3.015 -6.59842
vt 101.175 50.8668
f 26/37/23 27/38/23 25/36/23

v 5.3032 3.015 -6.65174
vt 101.148 51.0767
f 27/38/23 26/37/23 28/39/23

usemtl BackColor
vt 4.66994e-016 8.11024
vn 3.93422e-018 -1 -7.31184e-018
vt 0.27635 10.2093
vt 0.27635 6.01115
f 28/40/24 26/41/24 27/42/24

usemtl Color_D03
vt -10.158 118.701
v 5.3032 8.89276e-020 -6.65174
vt -8.04085 3.8521e-017
vn -1 -3.93422e-018 -0
vt -8.04085 118.701
f 26/43/6 29/44/25 28/45/25

v 5.31022 5.06386e-019 -6.70506
vt -10.158 5.49564e-017
f 29/44/25 26/43/6 30/46/6

usemtl BackColor
vn 1 3.93422e-018 0
f 28/45/26 29/44/26 26/43/5

usemtl Color_D03
v 5.31022 -2.733e-019 -6.59842
vt -5.92366 1.60019e-017
vt -8.04085 3.02628e-017
f 31/47/4 28/45/25 29/48/25

vt -5.92366 118.701
f 28/45/25 31/47/4 27/49/4

usemtl BackColor
f 27/49/1 31/47/1 28/45/26

usemtl Color_D03
v 5.3308 -5.55612e-019 -6.54874
vt -3.33063 -6.4137e-018
vn -0.866025 -7.06305e-018 0.5
vt -5.44783 118.701
vt -5.44783 4.70095e-018
f 32/50/27 27/51/4 31/52/4

vt -3.33063 118.701
f 27/51/4 32/50/27 25/53/27

usemtl BackColor
vn 0.866025 7.06305e-018 -0.5
f 25/53/28 32/50/28 27/51/1

usemtl Color_D03
vt -0.438486 -2.24051e-017
vt -2.55568 118.701
vt -2.55568 -1.51942e-017
f 21/54/21 25/55/27 32/56/27

vt -0.438486 118.701
f 25/55/27 21/54/21 22/57/21

usemtl BackColor
f 22/57/22 21/54/22 25/55/28

f 32/56/28 25/55/28 21/54/22

vt 2.37543 2.37543
vt 1.08657 4.05512
vt 1.08657 12.1654
f 22/58/24 25/59/24 24/60/24

f 24/60/24 25/59/24 26/41/24

f 25/59/24 27/42/24 26/41/24

usemtl Color_D03
vt -11.6551 118.701
vt -9.53794 5.48926e-017
vt -9.53794 118.701
f 24/61/8 30/62/6 26/63/6

v 5.3308 9.50626e-019 -6.75474
vt -11.6551 7.23824e-017
f 30/62/6 24/61/8 33/64/8

usemtl BackColor
f 26/63/5 30/62/5 24/61/7

f 30/46/5 26/43/5 29/44/26

f 33/64/7 24/61/7 30/62/5

usemtl Color_D03
vt -12.4301 118.701
vt -10.3129 6.06245e-017
vt -10.3129 118.701
f 23/65/10 33/66/8 24/67/8

v 5.36354 1.39137e-018 -6.7974
vt -12.4301 7.79768e-017
f 33/66/8 23/65/10 34/68/10

usemtl BackColor
f 24/67/7 33/66/7 23/65/9

f 34/68/9 23/65/9 33/66/7

usemtl Color_D03
v 5.4062 1.79859e-018 -6.83014
vt -12.4301 7.02269e-017
vt -10.3129 5.41947e-017
f 23/67/10 35/69/12 34/70/10

v 5.4062 3.015 -6.83014
f 35/69/12 23/67/10 36/65/12

usemtl BackColor
f 34/70/9 35/69/11 23/67/9

f 36/65/11 23/67/9 35/69/11

usemtl _Stone_Granite_Midnite_2
vt 101.553 51.7791
f 23/32/23 19/34/23 36/71/23

usemtl BackColor
vt 4.05512 1.08657
vt 2.37543 13.845
f 19/72/24 22/58/24 23/73/24

f 23/73/24 22/58/24 24/60/24

vt 4.05512 15.1339
f 36/74/24 19/72/24 23/73/24

usemtl _Stone_Granite_Midnite_2
vt 101.749 50.2933
f 36/71/23 19/34/23 17/75/23

usemtl BackColor
vt 6.01115 0.27635
f 17/76/24 19/72/24 36/74/24

f 17/26/18 18/25/18 19/24/20

usemtl _Stone_Granite_Midnite_2
v 5.45589 3.015 -6.85072
vt 101.749 51.8601
f 36/71/23 17/75/23 37/77/23

usemtl BackColor
vt 6.01115 15.9441
f 37/78/24 17/76/24 36/74/24

usemtl _Stone_Granite_Midnite_2
vt 101.959 50.2657
f 37/77/23 17/75/23 15/79/23

usemtl BackColor
vt 8.11024 8.67921e-016
f 15/80/24 17/76/24 37/78/24

f 15/4/16 16/22/16 17/2/18

usemtl _Stone_Granite_Midnite_2
v 5.5092 3.015 -6.85774
vt 101.959 51.8878
f 37/77/23 15/79/23 38/81/23

usemtl BackColor
vt 8.11024 16.2205
f 38/82/24 15/80/24 37/78/24

usemtl _Stone_Granite_Midnite_2
vt 102.168 50.2933
f 38/81/23 15/79/23 13/83/23

usemtl BackColor
vt 10.2093 0.27635
f 13/84/24 15/80/24 38/82/24

f 13/6/14 14/20/14 15/4/16

usemtl _Stone_Granite_Midnite_2
v 5.56252 3.015 -6.85072
vt 102.168 51.8601
f 38/81/23 13/83/23 39/85/23

usemtl BackColor
vt 10.2093 15.9441
f 39/86/24 13/84/24 38/82/24

usemtl _Stone_Granite_Midnite_2
vt 102.364 50.3744
f 39/85/23 13/83/23 11/87/23

usemtl BackColor
vt 12.1654 1.08657
f 11/88/24 13/84/24 39/86/24

f 11/10/12 12/18/12 13/8/14

usemtl _Stone_Granite_Midnite_2
v 5.6122 3.015 -6.83014
vt 102.364 51.7791
f 39/85/23 11/87/23 40/89/23

usemtl BackColor
vt 12.1654 15.1339
f 40/90/24 11/88/24 39/86/24

usemtl _Stone_Granite_Midnite_2
vt 102.532 50.5033
f 40/89/23 11/87/23 9/91/23

usemtl BackColor
vt 13.845 2.37543
f 9/92/24 11/88/24 40/90/24

f 9/14/10 10/16/10 11/12/12

usemtl _Stone_Granite_Midnite_2
v 5.65487 3.015 -6.7974
vt 102.532 51.6502
f 40/89/23 9/91/23 41/93/23

usemtl BackColor
vt 13.845 13.845
f 41/94/24 9/92/24 40/90/24

usemtl _Stone_Granite_Midnite_2
vt 102.661 50.6712
f 41/93/23 9/91/23 7/95/23

usemtl BackColor
vt 15.1339 4.05512
f 7/96/24 9/92/24 41/94/24

f 7/14/8 8/13/8 9/12/10

usemtl _Stone_Granite_Midnite_2
v 5.68761 3.015 -6.75474
vt 102.661 51.4822
f 41/93/23 7/95/23 42/97/23

usemtl BackColor
vt 15.1339 12.1654
f 42/98/24 7/96/24 41/94/24

usemtl _Stone_Granite_Midnite_2
vt 102.742 50.8668
f 42/97/23 7/95/23 5/99/23

usemtl BackColor
vt 15.9441 6.01115
f 5/100/24 7/96/24 42/98/24

f 5/10/6 6/9/6 7/8/8

usemtl _Stone_Granite_Midnite_2
vt 102.742 51.2866
f 42/97/23 5/99/23 4/101/23

usemtl BackColor
vt 15.9441 10.2093
f 4/102/24 5/100/24 42/98/24

usemtl _Stone_Granite_Midnite_2
vt 102.77 51.0767
f 4/101/23 5/99/23 2/103/23

usemtl BackColor
vt 16.2205 8.11024
f 2/104/24 5/100/24 4/102/24

f 2/6/3 3/5/3 5/4/6

f 4/4/4 1/1/4 2/2/3

usemtl Color_D03
v 5.68761 2.35436e-018 -6.75474
vt 5.44783 4.70095e-018
vt 3.33063 -6.4137e-018
f 43/105/28 4/24/1 1/106/1

f 4/24/1 43/105/28 42/26/28

usemtl BackColor
f 1/106/4 4/24/4 43/105/27

f 42/26/27 43/105/27 4/24/4

usemtl Color_D03
v 5.65487 2.53752e-018 -6.7974
vt 2.55568 -1.51942e-017
vt 0.438486 -2.24051e-017
f 44/107/22 42/31/28 43/108/28

f 42/31/28 44/107/22 41/28/22

usemtl BackColor
f 43/108/27 42/31/27 44/107/21

f 41/28/21 44/107/21 42/31/27

usemtl Color_D03
v 5.6122 2.60904e-018 -6.83014
vt -0.438486 -2.44817e-017
vt -2.55568 -2.72974e-017
f 45/109/20 41/55/22 44/110/22

f 41/55/22 45/109/20 40/57/20

usemtl BackColor
f 44/110/21 41/55/21 45/109/19

f 40/57/19 45/109/19 41/55/21

usemtl Color_D03
vt -5.44783 -1.93407e-017
f 45/111/20 39/53/18 40/51/20

v 5.56252 2.56405e-018 -6.85072
vt -3.33063 -2.1112e-017
f 39/53/18 45/111/20 46/112/18

usemtl BackColor
f 46/112/17 45/111/19 39/53/17

f 40/51/19 39/53/17 45/111/19

usemtl Color_D03
vt -8.04085 -2.08773e-019
vn -3.51338e-015 7.31184e-018 -1
f 46/113/18 38/49/29 39/45/18

v 5.5092 2.40561e-018 -6.85774
vt -5.92366 -6.4464e-018
f 38/49/29 46/113/18 47/114/29

usemtl BackColor
vn 3.51338e-015 -7.31184e-018 1
f 47/114/30 46/113/17 38/49/30

f 39/45/17 38/49/30 46/113/17

usemtl Color_D03
vt -10.158 2.54183e-017
f 47/115/29 37/45/14 38/43/29

v 5.45589 2.14453e-018 -6.85072
vt -8.04085 1.51394e-017
f 37/45/14 47/115/29 48/116/14

usemtl BackColor
f 48/116/13 47/115/30 37/45/13

f 38/43/30 37/45/13 47/115/30

usemtl Color_D03
vt -11.6551 5.10773e-017
f 48/117/14 36/63/12 37/61/14

vt -9.53794 3.74577e-017
f 36/63/12 48/117/14 35/118/12

usemtl BackColor
f 35/118/11 48/117/13 36/63/11

f 37/61/13 36/63/11 48/117/13

f 31/52/1 27/51/1 32/50/28

f 29/48/26 28/45/26 31/47/1

g Mesh2 Group1 LAB015 Model

l 38 37

l 39 38

l 40 39

l 41 40

l 42 41

l 4 42

l 2 4

l 5 2

l 7 5

l 9 7

l 11 9

l 13 11

l 15 13

l 17 15

l 19 17

l 22 19

l 25 22

l 27 25

l 28 27

l 26 28

l 24 26

l 23 24

l 36 23

l 37 36

g Mesh3 Group1 LAB015 Model

l 14 12

l 16 14

l 18 16

l 20 18

l 21 20

l 32 21

l 31 32

l 29 31

l 30 29

l 33 30

l 34 33

l 35 34

l 48 35

l 47 48

l 46 47

l 45 46

l 44 45

l 43 44

l 1 43

l 3 1

l 6 3

l 8 6

l 10 8

l 12 10

g Mesh4 LAB015 Model

usemtl FrontColor
v 6.87698 0 -9.57982
vt -223.215 330.8
vn 0 -1 -0
v 1.20732 0 -1.17749
vt 0 7.10543e-015
v 1.20732 0 -9.57982
vt 0 330.8
f 49/119/31 50/120/31 51/121/31

v 7.02313 0 -8.80624
vt -228.969 300.344
f 50/120/31 49/119/31 52/122/31

usemtl _Tile_Ceramic_Natural_14
vt 0.249805 8.09811
vn -0 1 0
vt 0.249805 2.13901
vt -3.77123 8.09811
f 51/123/32 50/124/32 49/125/32

usemtl Color_D03
v 1.20732 1.005 -4.00808
vt 111.441 39.5669
vn 1 -7.81535e-032 -6.79474e-018
vt 7.10543e-015 3.19011e-017
vt 330.8 3.19011e-017
f 53/126/33 50/127/33 51/128/33

v 1.20732 3.015 -1.17749
vt 7.10543e-015 118.701
f 50/127/33 53/126/33 54/129/33

usemtl BackColor
vn -1 7.81535e-032 6.79474e-018
f 54/129/34 53/126/34 50/127/34

usemtl Color_D03
v 1.20732 2.01 -4.00808
vt 111.441 79.1339
f 55/130/33 54/129/33 53/126/33

v 1.20732 3.015 -9.57982
vt 330.8 118.701
f 54/129/33 55/130/33 56/131/33

usemtl BackColor
f 56/131/34 55/130/34 54/129/34

usemtl Color_D03
v 1.20732 2.01 -9.57982
vt 330.8 79.1339
f 56/131/33 55/130/33 57/132/33

usemtl BackColor
f 57/132/34 55/130/34 56/131/34

usemtl Translucent_Glass_Blue
vn 1 2.01468e-032 -9.7175e-017
v 1.20732 1.005 -9.57982
vt 330.8 39.5669
f 55/130/35 58/133/35 57/132/35

f 58/133/35 55/130/35 53/126/35

vn -1 -2.01468e-032 9.7175e-017
f 53/126/36 55/130/36 58/133/36

usemtl BackColor
f 53/126/34 54/129/34 55/130/34

usemtl Translucent_Glass_Blue
f 57/132/36 58/133/36 55/130/36

usemtl Color_D03
vt 1.05557e-013 39.5669
vn 2.54658e-016 1.91052e-034 1
v 6.87698 3.015 -9.57982
vt 223.215 118.701
vt 1.05557e-013 79.1339
f 58/134/37 59/135/37 57/136/37

vt 8.42409e-014 3.19011e-017
f 51/137/37 59/135/37 58/134/37

vt 223.215 3.19011e-017
f 59/135/37 51/137/37 49/138/37

usemtl BackColor
vn -2.54658e-016 -1.91052e-034 -1
f 49/138/38 51/137/38 59/135/38

f 58/134/38 59/135/38 51/137/38

f 57/136/38 59/135/38 58/134/38

usemtl Color_D03
vt 8.42409e-014 118.701
f 57/136/37 59/135/37 56/139/37

usemtl BackColor
f 56/139/38 59/135/38 57/136/38

usemtl Color_D03
f 53/126/33 51/128/33 58/133/33

usemtl BackColor
f 51/128/34 50/127/34 53/126/34

f 58/133/34 51/128/34 53/126/34

usemtl Color_D03
vt -252.616 4.3161e-014
vn -0.982617 1.53623e-016 0.185646
vt -283.611 118.701
vt -283.611 4.3161e-014
f 52/140/39 59/141/39 49/142/39

v 7.02313 2.009 -8.80624
vt -252.616 79.0945
f 60/143/39 59/141/39 52/140/39

v 7.37775 2.009 -6.92927
vt -177.413 79.0945
f 61/144/39 59/141/39 60/143/39

v 8.46444 0 -1.17749
vt 53.0416 4.3161e-014
f 62/145/39 59/141/39 61/144/39

v 8.46444 3.015 -1.17749
vt 53.0416 118.701
f 59/141/39 62/145/39 63/146/39

usemtl BackColor
vn 0.982617 -1.53623e-016 -0.185646
f 63/146/40 62/145/40 59/141/40

usemtl Color_D03
vt -285.713 3.19011e-017
vn 2.48691e-017 0 -1
vt 1.76706e-031 118.701
vt -285.713 118.701
f 62/147/41 54/148/41 63/149/41

vt 1.76706e-031 3.19011e-017
f 54/148/41 62/147/41 50/150/41

usemtl BackColor
vn -2.48691e-017 -0 1
f 50/150/42 62/147/42 54/148/42

usemtl FrontColor
v 7.37775 0 -6.92927
vt -242.93 226.448
vt -285.713 0
f 50/120/31 64/151/31 62/152/31

f 50/120/31 52/122/31 64/151/31

usemtl _Tile_Ceramic_Natural_14
vt -3.87488 7.54947
f 52/153/32 49/125/32 50/124/32

usemtl BackColor
f 49/142/40 59/141/40 52/140/40

f 52/140/40 59/141/40 60/143/40

f 60/143/40 59/141/40 61/144/40

f 61/144/40 59/141/40 62/145/40

usemtl Color_D03
vt -177.413 4.3161e-014
f 64/154/39 62/145/39 61/144/39

usemtl _Tile_Ceramic_Natural_14
vt -4.89708 2.13901
vt -4.12638 6.21829
f 62/155/32 64/156/32 50/124/32

usemtl BackColor
f 61/144/40 62/145/40 64/154/40

usemtl _Tile_Ceramic_Natural_14
f 64/156/32 52/153/32 50/124/32

usemtl BackColor
f 63/149/42 54/148/42 62/147/42

g Mesh5 LAB015 Model

l 51 49

l 51 50

l 51 58

l 58 57

l 58 53

l 53 55

l 57 55

l 57 56

l 56 59

l 56 54

l 50 54

l 62 50

l 64 62

l 52 64

l 49 52

l 49 59

l 59 63

l 62 63

l 63 54

l 52 60

l 61 60

l 61 64

