# Alias OBJ Model File
# Exported from SketchUp, (c) 2000-2012 Trimble Navigation Limited
# File units = meters

mtllib COM014.mtl

g Mesh1 COM014 Model

usemtl _7
v 12.8287 12.1354 -56.9721
vt 10.9825 2.49267
vn 0.499727 3.96253e-016 0.866183
v 12.7864 8.53543 -56.9547
vt 10.9676 1.75321
vn 0.258515 3.80716e-016 0.966007
v 12.8287 8.53543 -56.9721
vt 10.9825 1.75321
f 1/1/1 2/2/2 3/3/1

v 12.7864 12.1354 -56.9547
vt 10.9676 2.49267
f 2/2/2 1/1/1 4/4/2

vn -0.499727 -3.96253e-016 -0.866183
vn -0.258515 -3.80716e-016 -0.966007
f 3/3/3 2/2/4 1/1/3

usemtl _Tile_Ceramic_Natural_7
vt 20.0345 43.6814
vn -2.77228e-012 1 -4.39648e-013
v 15.6951 8.53543 -53.6971
vt 22.1032 41.3645
vt 20.0645 43.6938
f 2/5/5 5/6/5 3/7/5

v 12.7412 8.53543 -56.9487
vt 20.0022 43.6772
f 6/8/5 5/6/5 2/5/5

v 12.6959 8.53543 -56.9547
vt 19.97 43.6814
f 7/9/5 5/6/5 6/8/5

v 12.6537 8.53543 -56.9722
vt 19.94 43.6939
f 8/10/5 5/6/5 7/9/5

v 12.6174 8.53543 -57
vt 19.9142 43.7137
f 9/11/5 5/6/5 8/10/5

v 9.26352 8.53543 -56.8047
vt 17.5288 43.5747
f 10/12/5 5/6/5 9/11/5

v 9.26342 8.53543 -56.4767
vt 17.5287 43.3414
f 11/13/5 5/6/5 10/12/5

v 9.26342 8.53543 -53.6971
vt 17.5287 41.3645
f 11/13/5 12/14/5 5/6/5

v 9.26342 8.53543 -55.7767
vt 17.5287 42.8436
f 12/14/5 11/13/5 13/15/5

usemtl BackColor
vt 5.04353e-007 81.8728
vn 2.77228e-012 -1 4.39648e-013
vt 5.05156e-007 109.431
vt 5.05156e-007 8.34916e-010
f 13/16/6 11/17/6 12/18/6

vt 253.217 8.34916e-010
f 5/19/6 12/18/6 11/17/6

usemtl _Color_C03_1
vt -5.05156e-007 1.2995e-009
vn 1.90317e-027 5.8908e-012 -1
v 15.6951 12.1354 -53.6971
vt -253.217 141.732
vt -253.217 1.29944e-009
f 12/20/7 14/21/7 5/22/7

v 9.26342 12.1354 -53.6971
vt -5.04057e-007 141.732
f 14/21/7 12/20/7 15/23/7

usemtl BackColor
vn -1.90317e-027 -5.8908e-012 1
f 5/22/8 14/21/8 12/20/8

usemtl _Color_C03_1
v 15.6962 12.1354 -57.0487
vt -132.031 141.732
vn -1 -3.88015e-012 -0.00031484
vt -0.0797227 3.16922e-010
vt -0.0797227 141.732
f 16/24/9 5/25/9 14/26/9

v 15.6962 8.53543 -57.0487
vt -132.031 3.17035e-010
f 5/25/9 16/24/9 17/27/9

usemtl _7
vt -17.5325 2.49267
vn 1 3.88015e-012 0.00031484
vt -17.5325 1.75321
vt -18.6267 2.49267
f 14/28/10 5/29/10 16/30/10

vt -18.6267 1.75321
f 17/31/10 16/30/10 5/29/10

usemtl _Color_C03_1
vt 253.259 141.732
vn -1.15123e-014 -8.78632e-015 1
v 15.5644 8.53543 -57.0487
vt 248.07 1.29851e-009
vt 253.259 1.29839e-009
f 16/32/11 18/33/11 17/34/11

v 15.5644 11.0734 -57.0487
vt 248.07 99.9213
f 18/33/11 16/32/11 19/35/11

usemtl BackColor
vn 1.15123e-014 8.78632e-015 -1
f 17/34/12 18/33/12 16/32/12

usemtl _Tile_Ceramic_Natural_7
vt 22.0102 43.7483
vt 22.104 43.7483
f 18/36/5 5/6/5 17/37/5

v 14.7384 8.53543 -57.0487
vt 21.4227 43.7483
f 20/38/5 5/6/5 18/36/5

v 12.8979 8.53543 -57.0487
vt 20.1137 43.7483
f 21/39/5 5/6/5 20/38/5

v 12.8927 8.53543 -57.0362
vt 20.1101 43.7394
f 22/40/5 5/6/5 21/39/5

v 12.8649 8.53543 -56.9999
vt 20.0903 43.7136
f 23/41/5 5/6/5 22/40/5

f 3/7/5 5/6/5 23/41/5

usemtl BackColor
vt 140.364 128.938
vt 138.702 128.25
f 3/42/6 5/19/6 2/43/6

vt 141.791 130.033
f 23/44/6 5/19/6 3/42/6

vt 142.887 131.459
f 22/45/6 5/19/6 23/44/6

vt 143.091 131.951
f 21/46/6 5/19/6 22/45/6

vt 215.55 131.951
f 20/47/6 5/19/6 21/46/6

vt 248.07 131.951
f 18/48/6 5/19/6 20/47/6

vt 253.259 131.951
f 17/49/6 5/19/6 18/48/6

usemtl _Color_C03_1
vt 215.55 1.29839e-009
v 12.8979 12.1354 -57.0487
vt 143.091 141.732
vt 143.091 1.29822e-009
f 20/50/11 24/51/11 21/52/11

v 14.7384 11.0734 -57.0487
vt 215.55 99.9213
f 24/51/11 20/50/11 25/53/11

usemtl BackColor
f 21/52/12 24/51/12 20/50/12

usemtl _7
v 12.8927 12.1354 -57.0362
vt 18.8133 2.49267
vn 0.865868 1.07084e-014 0.500273
vt 18.8178 1.75321
vn 0.923759 2.08645e-014 0.382974
vt 18.8178 2.49267
f 26/54/13 21/55/14 24/56/14

vt 18.8133 1.75321
f 21/55/14 26/54/13 22/57/13

vn -0.865868 -1.07084e-014 -0.500273
vn -0.923759 -2.08645e-014 -0.382974
f 22/57/15 26/54/15 21/55/16

v 12.8649 12.1354 -56.9999
vt 17.318 2.49267
vn 0.706884 3.84785e-016 0.707329
vt 17.3329 1.75321
vt 17.3329 2.49267
f 27/58/17 22/59/13 26/60/13

vt 17.318 1.75321
f 22/59/13 27/58/17 23/61/17

vn -0.706884 -3.84785e-016 -0.707329
f 23/61/18 27/58/18 22/59/15

vt 14.6569 2.49267
vt 14.642 1.75321
vt 14.6569 1.75321
f 27/62/17 3/63/1 23/64/17

vt 14.642 2.49267
f 3/63/1 27/62/17 1/65/1

f 23/64/18 3/63/3 27/62/18

f 1/65/3 27/62/18 3/63/3

f 26/60/15 22/59/15 27/58/18

f 24/56/16 21/55/16 26/54/15

usemtl BackColor
f 25/53/12 20/50/12 24/51/12

usemtl _Color_C03_1
f 24/51/11 25/53/11 19/35/11

usemtl BackColor
f 19/35/12 25/53/12 24/51/12

usemtl _Color_C03_1
f 24/51/11 19/35/11 16/32/11

usemtl BackColor
f 16/32/12 19/35/12 24/51/12

f 19/35/12 16/32/12 18/33/12

vt 136.919 128.016
f 2/43/6 5/19/6 6/66/6

vt 135.136 128.251
f 6/66/6 5/19/6 7/67/6

vt 133.474 128.94
f 7/67/6 5/19/6 8/68/6

vt 132.048 130.036
f 8/68/6 5/19/6 9/69/6

vt 0.00406613 122.345
f 9/69/6 5/19/6 10/70/6

f 10/70/6 5/19/6 11/17/6

usemtl _Tile_Ceramic_Natural_7
v 12.5896 8.53543 -57.0363
vt 19.8945 43.7394
f 10/12/5 9/11/5 28/71/5

usemtl BackColor
vt 130.953 131.463
f 28/72/6 9/69/6 10/70/6

usemtl _7
v 12.6174 12.1354 -57
vt -12.2606 2.49267
vn -0.707329 9.49645e-017 0.706884
vt -12.2755 1.75321
vn -0.866183 -5.21705e-015 0.499727
vt -12.2606 1.75321
f 29/73/19 28/74/20 9/75/19

v 12.5896 12.1354 -57.0363
vt -12.2755 2.49267
f 28/74/20 29/73/19 30/76/20

vn 0.707329 -9.49645e-017 -0.706884
vn 0.866183 5.21705e-015 -0.499727
f 9/75/21 28/74/22 29/73/21

f 30/76/22 29/73/21 28/74/22

v 12.5845 12.1354 -57.0488
vt -15.6385 2.49267
vn -0.924 -1.03888e-014 0.382393
vt -15.6341 1.75321
vt -15.6341 2.49267
f 31/77/23 28/78/20 30/79/20

v 12.5845 8.53543 -57.0488
vt -15.6385 1.75321
f 28/78/20 31/77/23 32/80/23

vn 0.924 1.03888e-014 -0.382393
f 30/79/22 28/78/22 31/77/24

f 32/80/24 31/77/24 28/78/22

usemtl _Color_C03_1
v 9.26342 12.1354 -57.0498
vt -0.0415571 141.732
vn -0.00031484 -2.9402e-012 1
vt 130.708 9.12084e-010
vt 130.708 141.732
f 33/81/25 32/82/25 31/83/25

v 9.26342 8.53543 -57.0498
vt -0.0415571 9.11572e-010
f 32/82/25 33/81/25 34/84/25

usemtl BackColor
vn 0.00031484 2.9402e-012 -1
f 34/84/26 33/81/26 32/82/26

usemtl _Color_C03_1
v 9.26342 11.1642 -56.8047
vt 122.345 103.494
vn 1 5.84118e-010 -5.22418e-010
vt 131.996 1.29967e-009
vt 131.996 141.732
f 35/85/27 34/86/27 33/87/27

v 9.26342 8.53543 -56.8047
vt 122.345 6.49834e-010
f 34/86/27 35/85/27 36/88/27

usemtl BackColor
vn -1 -5.84118e-010 5.22418e-010
f 36/88/28 35/85/28 34/86/28

f 33/87/28 34/86/28 35/85/28

usemtl _Color_C03_1
v 9.26342 11.1642 -56.4766
vt 109.428 103.494
f 33/87/27 37/89/27 35/85/27

v 9.26342 11.1642 -55.7767
vt 81.8728 103.494
f 33/87/27 38/90/27 37/89/27

vt -2.63328e-016 141.732
f 15/91/27 38/90/27 33/87/27

vt 8.34916e-010 1.2995e-009
f 38/90/27 15/91/27 12/92/27

usemtl BackColor
f 33/87/28 38/90/28 15/91/28

f 37/89/28 38/90/28 33/87/28

f 35/85/28 37/89/28 33/87/28

f 12/92/28 15/91/28 38/90/28

f 15/23/8 12/20/8 14/21/8

usemtl _Color_C03_1
vt 81.8728 6.49834e-010
f 38/90/27 12/92/27 13/93/27

usemtl BackColor
f 13/93/28 12/92/28 38/90/28

usemtl _Tile_Ceramic_Natural_7
vt 17.5287 43.7491
vt 17.5287 43.5747
f 10/12/5 34/94/5 36/95/5

vt 19.8908 43.7483
f 34/94/5 10/12/5 32/96/5

usemtl BackColor
vt 5.05156e-007 122.345
vt 5.05156e-007 131.996
f 36/97/6 34/98/6 10/70/6

vt 130.749 131.955
f 32/99/6 10/70/6 34/98/6

usemtl _Tile_Ceramic_Natural_7
f 10/12/5 28/71/5 32/96/5

usemtl BackColor
f 32/99/6 28/72/6 10/70/6

f 31/83/26 32/82/26 33/81/26

usemtl _7
vt -8.06595 1.75321
v 12.6537 12.1354 -56.9722
vt -8.05103 2.49267
vn -0.500273 1.91318e-016 0.865868
vt -8.06595 2.49267
f 9/100/19 39/101/29 29/102/19

vt -8.05103 1.75321
f 39/101/29 9/100/19 8/103/29

vn 0.500273 -1.91318e-016 -0.865868
f 8/103/30 9/100/21 39/101/30

f 29/102/21 39/101/30 9/100/21

vt -3.3072 1.75321
v 12.6959 12.1354 -56.9547
vt -3.29229 2.49267
vn -0.259123 2.74634e-016 0.965844
vt -3.3072 2.49267
f 8/104/29 40/105/31 39/106/29

vt -3.29229 1.75321
f 40/105/31 8/104/29 7/107/31

vn 0.259123 -2.74634e-016 -0.965844
f 7/107/32 8/104/30 40/105/32

f 39/106/30 40/105/32 8/104/30

vt 1.67642 1.75321
v 12.7412 12.1354 -56.9487
vt 1.69133 2.49267
vn -0.00031484 3.39234e-016 1
vt 1.67642 2.49267
f 7/108/31 41/109/33 40/110/31

vt 1.69133 1.75321
f 41/109/33 7/108/31 6/111/33

vn 0.00031484 -3.39234e-016 -1
f 6/111/34 7/108/32 41/109/34

f 40/110/32 41/109/34 7/108/32

vt 6.54528 1.75321
vt 6.5602 2.49267
vt 6.54528 2.49267
f 6/112/33 4/113/2 41/114/33

vt 6.5602 1.75321
f 4/113/2 6/112/33 2/115/2

f 2/115/4 6/112/34 4/113/4

f 41/114/34 4/113/4 6/112/34

f 4/4/4 1/1/3 2/2/4

g Mesh2 COM014 Model

l 2 3

l 6 2

l 7 6

l 8 7

l 9 8

l 28 9

l 32 28

l 32 31

l 32 34

l 34 33

l 34 36

l 36 35

l 10 11

l 13 11

l 13 12

l 38 13

l 37 38

l 35 37

l 12 5

l 12 15

l 15 14

l 33 15

l 31 33

l 31 30

l 30 29

l 29 39

l 39 40

l 40 41

l 41 4

l 4 1

l 1 27

l 27 26

l 26 24

l 21 24

l 22 21

l 23 22

l 3 23

l 21 20

l 25 20

l 19 25

l 19 18

l 18 17

l 20 18

l 17 16

l 5 17

l 5 14

l 14 16

l 24 16

