# Alias OBJ Model File
# Exported from SketchUp, (c) 2000-2012 Trimble Navigation Limited
# File units = meters

mtllib COM013.mtl

g Mesh1 COIM013 Model

usemtl _Color_C03_1
v 9.15726 12.1354 -46.8445
vt -2.90796 141.732
vn -1 3.84268e-011 -0.00031484
v 9.15765 11.1642 -48.0842
vt -51.7143 103.495
v 9.15726 8.53543 -46.8445
vt -2.90796 2.29782e-009
f 1/1/1 2/2/1 3/3/1

v 9.16047 12.1354 -57.0498
vt -404.691 141.732
f 2/2/1 1/1/1 4/4/1

usemtl BackColor
vn 1 -3.84268e-011 0.00031484
f 3/3/2 2/2/2 1/1/2

usemtl _Color_C03_1
v 9.15765 8.53543 -48.0842
vt -51.7143 4.73584e-009
f 3/3/1 2/2/1 5/5/1

usemtl BackColor
f 5/5/2 2/2/2 3/3/2

usemtl _Color_C03_1
vt -59.7974 103.495
vn 0.00031484 -2.46383e-008 -1
v 9.2631 8.53543 -48.0842
vt -63.949 1.27662e-006
vt -59.7974 1.27659e-006
f 2/6/3 6/7/3 5/8/3

v 9.2631 11.1642 -48.0842
vt -63.949 103.495
f 6/7/3 2/6/3 7/9/3

usemtl BackColor
vn -0.00031484 2.46383e-008 1
f 5/8/4 6/7/4 2/6/4

usemtl _Tile_Ceramic_Natural_7
vt 17.5285 37.3724
vn 2.93853e-013 1 2.53612e-011
v 9.15929 8.53543 -53.2741
vt 17.4547 41.0637
vt 17.4535 37.3724
f 6/10/5 8/11/5 5/12/5

v 9.26342 8.53543 -53.2741
vt 17.5287 41.0636
f 8/11/5 6/10/5 9/13/5

usemtl BackColor
vt 59.8136 51.6954
vn -2.93853e-013 -1 -2.53612e-011
vt 59.878 256.023
vt 63.9653 51.6941
f 5/14/6 8/15/6 6/16/6

usemtl _Tile_Ceramic_Natural_7
v 9.16007 8.53543 -55.7767
vt 17.4552 42.8436
f 10/17/5 5/12/5 8/11/5

v 9.1604 8.53543 -56.8047
vt 17.4555 43.5747
f 11/18/5 5/12/5 10/17/5

vt 17.4532 36.4907
f 11/18/5 3/19/5 5/12/5

v 8.6174 8.53543 -57.0498
vt 17.0693 43.7491
f 12/20/5 3/19/5 11/18/5

v 8.39802 8.53543 -46.8448
vt 16.9132 36.4909
f 3/19/5 12/20/5 13/21/5

usemtl BackColor
vt 29.9068 2.89854
vt 38.5437 404.672
vt 59.7983 2.88913
f 13/22/6 12/23/6 3/24/6

usemtl _Tile_Ceramic_Natural_7
v 8.6174 8.53543 -57.1704
vt 17.0693 43.8348
f 14/25/5 13/21/5 12/20/5

v 7.88884 8.53543 -57.1704
vt 16.5511 43.8348
f 15/26/5 13/21/5 14/25/5

v 8.398 8.53543 -46.7711
vt 16.9132 36.4385
f 15/26/5 16/27/5 13/21/5

v 7.88884 8.53543 -57.0498
vt 16.5511 43.7491
f 17/28/5 16/27/5 15/26/5

v 7.77935 8.53543 -46.845
vt 16.4732 36.491
f 18/29/5 16/27/5 17/28/5

v 7.77933 8.53543 -46.7713
vt 16.4732 36.4386
f 16/27/5 18/29/5 19/30/5

usemtl BackColor
vt 5.54902 0.00766854
vt 5.54994 2.90621
vt 29.9059 2.46182e-008
f 19/31/6 18/32/6 16/33/6

usemtl _Color_C03_1
v 7.77935 11.1664 -46.845
vt 2.90796 103.583
vn 1 -1.28446e-010 0.00031484
vt 0.00941559 6.9919e-009
vt 2.90796 7.68073e-009
f 20/34/7 19/35/7 18/36/7

v 7.77933 11.1664 -46.7713
vt 0.00941556 103.583
f 19/35/7 20/34/7 21/37/7

usemtl BackColor
vn -1 1.28446e-010 -0.00031484
f 21/37/8 20/34/8 19/35/8

usemtl _Color_C03_1
vt -5.54994 2.90621
vn -1.28371e-010 -1 -2.37687e-010
v 8.398 11.1664 -46.7711
vt -29.9059 2.46202e-008
vt -5.54902 0.00766854
f 20/38/9 22/39/9 21/40/9

v 8.39802 11.1664 -46.8448
vt -29.9068 2.89854
f 22/39/9 20/38/9 23/41/9

usemtl BackColor
vn 1.28371e-010 1 2.37687e-010
f 21/40/10 22/39/10 20/38/10

f 23/41/10 20/38/10 22/39/10

usemtl _Color_C03_1
vt -59.7974 141.732
vn 0.00031484 2.37625e-010 -1
vt -29.9059 103.583
vt -5.54902 103.583
f 1/42/11 23/43/11 20/44/11

vt -29.9059 3.14843e-009
f 1/42/11 13/45/11 23/43/11

vt -59.7974 -6.91005e-010
f 13/45/11 1/42/11 3/46/11

usemtl BackColor
vn -0.00031484 -2.37625e-010 1
f 3/46/12 1/42/12 13/45/12

f 23/43/12 13/45/12 1/42/12

usemtl _Color_C03_1
vt -0.00941559 6.9919e-009
vt -2.90796 103.583
vt -2.90796 7.68073e-009
f 16/47/8 23/48/8 13/49/8

vt -0.00941556 103.583
f 23/48/8 16/47/8 22/50/8

usemtl BackColor
f 22/50/7 16/47/7 23/48/7

f 13/49/7 23/48/7 16/47/7

vt 9.86046 409.418
f 13/22/6 16/33/6 15/51/6

vt 9.86046 404.672
f 15/51/6 16/33/6 17/52/6

f 17/52/6 16/33/6 18/32/6

usemtl _Tile_Ceramic_Natural_7
v 7.6416 8.53543 -57.0498
vt 16.3752 43.7491
f 24/53/5 18/29/5 17/28/5

v 7.64152 8.53543 -56.8047
vt 16.3752 43.5747
f 25/54/5 18/29/5 24/53/5

v 7.6412 8.53543 -55.7767
vt 16.375 42.8436
f 26/55/5 18/29/5 25/54/5

v 7.64041 8.53543 -53.2746
vt 16.3744 41.064
f 27/56/5 18/29/5 26/55/5

v 7.64011 8.53543 -52.3323
vt 16.3742 40.3938
f 28/57/5 18/29/5 27/56/5

v 7.63909 8.53543 -49.0847
vt 16.3735 38.084
f 29/58/5 18/29/5 28/57/5

v 7.63878 8.53543 -48.0847
vt 16.3732 37.3727
f 30/59/5 18/29/5 29/58/5

v 7.63874 8.53543 -47.9849
vt 16.3732 37.3017
f 31/60/5 18/29/5 30/59/5

v 7.63839 8.53543 -46.845
vt 16.373 36.491
f 18/29/5 31/60/5 32/61/5

usemtl BackColor
vt -2.25704e-021 2.90796
vt 0.0141287 47.7839
f 32/62/6 31/63/6 18/32/6

usemtl _Color_C03_1
v 7.63878 11.1664 -48.0847
vt 51.7143 103.583
vn 1 -7.04203e-011 0.00031484
vt 2.90796 7.68079e-009
vt 47.7839 1.20027e-008
f 33/64/13 32/65/13 31/66/13

v 7.63839 12.1354 -46.845
vt 2.90796 141.732
f 33/64/13 34/67/13 32/65/13

v 7.6405 12.1354 -53.5771
vt 267.951 141.732
f 34/67/13 33/64/13 35/68/13

usemtl BackColor
vn -1 7.04203e-011 -0.00031484
f 35/68/14 33/64/14 34/67/14

usemtl _Color_C03_1
v 7.63909 11.1664 -49.0847
vt 91.0843 103.583
f 35/68/13 33/64/13 36/69/13

usemtl BackColor
f 36/69/14 33/64/14 35/68/14

usemtl _Color_C03_1
v 7.64011 11.1664 -52.3323
vt 218.945 103.583
f 35/68/13 36/69/13 37/70/13

usemtl BackColor
f 37/70/14 36/69/14 35/68/14

usemtl _Color_C03_1
vt 218.945 1.20023e-008
f 37/70/13 36/69/13 28/71/13

usemtl BackColor
f 28/71/14 36/69/14 37/70/14

usemtl _Color_C03_1
vt 91.0843 1.20032e-008
f 28/71/13 36/69/13 29/72/13

usemtl BackColor
f 29/72/14 36/69/14 28/71/14

vt 0.0680169 218.945
vt 0.0277614 91.0843
f 28/73/6 18/32/6 29/74/6

vt 0.0796964 256.041
f 27/75/6 18/32/6 28/73/6

vt 0.110711 354.55
f 26/76/6 18/32/6 27/75/6

vt 0.123453 395.022
f 25/77/6 18/32/6 26/76/6

vt 0.126491 404.672
f 24/78/6 18/32/6 25/77/6

f 17/52/6 18/32/6 24/78/6

usemtl FrontColor
vt -0.126491 4.60817e-008
vn -1.63819e-015 -5.81181e-011 -1
v 7.88884 11.1642 -57.0498
vt -9.86046 103.494
vt -9.86046 4.58479e-008
f 24/79/15 38/80/15 17/81/15

v 7.6416 12.1354 -57.0498
vt -0.126491 141.732
f 38/80/15 24/79/15 39/82/15

usemtl _Color_C03_1
vn 1.63819e-015 5.81181e-011 1
f 17/81/16 38/80/16 24/79/16

usemtl FrontColor
vt -404.672 103.494
vn -1 2.40173e-011 -1.39658e-021
vt -409.418 2.229e-008
vt -404.672 2.2566e-008
f 38/83/17 15/84/17 17/85/17

v 7.88884 11.1642 -57.1704
vt -409.418 103.494
f 15/84/17 38/83/17 40/86/17

usemtl _Color_C03_1
vn 1 -2.40173e-011 1.39658e-021
f 17/85/18 15/84/18 38/83/18

f 40/86/18 38/83/18 15/84/18

usemtl FrontColor
v 8.6174 11.1642 -57.0498
vn 2.4017e-011 1 -5.81231e-011
f 41/23/19 40/51/19 38/52/19

v 8.6174 11.1642 -57.1704
vt 38.5437 409.418
f 40/51/19 41/23/19 42/87/19

usemtl _Color_C03_1
vn -2.4017e-011 -1 5.81231e-011
f 38/52/20 40/51/20 41/23/20

f 42/87/20 41/23/20 40/51/20

usemtl FrontColor
vt 404.672 103.494
vt 409.418 2.229e-008
vt 409.418 103.494
f 41/88/18 14/89/18 42/90/18

vt 404.672 2.2566e-008
f 14/89/18 41/88/18 12/91/18

usemtl _Color_C03_1
f 12/91/17 41/88/17 14/89/17

usemtl FrontColor
vt -59.9248 141.732
vt -38.5437 4.51591e-008
vt -38.5437 103.494
f 4/92/15 12/93/15 41/94/15

v 9.16047 8.53543 -57.0498
vt -59.9248 4.46455e-008
f 12/93/15 4/92/15 43/95/15

usemtl _Color_C03_1
f 43/95/16 4/92/16 12/93/16

v 9.1604 11.1642 -56.8047
vt -395.041 103.494
vt -404.691 2.34246e-008
f 44/96/1 4/4/1 43/97/1

v 9.16007 11.1642 -55.7767
vt -354.569 103.494
f 45/98/1 4/4/1 44/96/1

v 9.15929 11.1642 -53.2741
vt -256.042 103.495
f 46/99/1 4/4/1 45/98/1

v 9.15899 11.1642 -52.3319
vt -218.945 103.495
f 47/100/1 4/4/1 46/99/1

v 9.15797 11.1642 -49.0842
vt -91.0843 103.495
f 48/101/1 4/4/1 47/100/1

f 2/2/1 4/4/1 48/101/1

usemtl BackColor
f 4/4/2 1/1/2 2/2/2

f 48/101/2 4/4/2 2/2/2

f 47/100/2 4/4/2 48/101/2

f 46/99/2 4/4/2 47/100/2

f 45/98/2 4/4/2 46/99/2

f 44/96/2 4/4/2 45/98/2

f 43/97/2 4/4/2 44/96/2

usemtl _Color_C03_1
vt -395.041 1.29782e-008
f 43/97/1 11/102/1 44/96/1

usemtl BackColor
f 44/96/2 11/102/2 43/97/2

usemtl _Color_C03_1
v 9.26342 8.53543 -56.8047
vt 63.8362 0.000670572
vn -0.000358153 1.69744e-006 1
vt 59.7803 103.495
vt 59.7803 0.000670571
f 49/103/21 44/104/21 11/105/21

v 9.26342 11.1642 -56.8047
vt 63.8362 103.495
f 44/104/21 49/103/21 50/106/21

usemtl BackColor
vn 0.000358153 -1.69744e-006 -1
f 11/105/22 44/104/22 49/103/22

f 50/106/22 49/103/22 44/104/22

usemtl _Color_C03_1
v 9.2632 11.1642 -55.7767
vt -63.9705 354.548
vn 1.41549e-005 -1 1.80137e-006
vt -59.9232 395.022
vt -63.9791 395.02
f 51/107/23 44/108/23 50/109/23

vt -59.9105 354.55
f 44/108/23 51/107/23 45/110/23

usemtl BackColor
vn -1.41549e-005 1 -1.80137e-006
f 45/110/24 51/107/24 44/108/24

usemtl _Color_C03_1
v 9.2632 8.53543 -55.7767
vt -63.8574 9.04574e-009
vn 0.00031484 1.22118e-015 -1
vt -59.7974 103.494
vt -63.8574 103.494
f 52/111/25 45/112/25 51/113/25

vt -59.7974 9.02323e-009
f 45/112/25 52/111/25 10/114/25

usemtl BackColor
vn -0.00031484 -1.22118e-015 1
f 10/114/26 52/111/26 45/112/26

usemtl _Tile_Ceramic_Natural_7
vt 17.5286 42.8436
f 52/115/5 11/18/5 10/17/5

vt 17.5287 43.5747
f 11/18/5 52/115/5 49/116/5

usemtl BackColor
vt 59.909 354.55
vt 59.9217 395.022
vt 63.969 354.549
f 10/117/6 11/118/6 52/119/6

f 10/117/6 5/14/6 11/118/6

f 8/15/6 5/14/6 10/117/6

usemtl _Color_C03_1
vt -354.569 1.13215e-008
vt -256.041 7.09689e-009
f 46/99/1 10/120/1 8/121/1

f 10/120/1 46/99/1 45/98/1

usemtl BackColor
f 8/121/2 10/120/2 46/99/2

f 45/98/2 46/99/2 10/120/2

usemtl _Color_C03_1
vt 63.8971 0.000869234
vn -0.00031484 3.39488e-006 1
vt 59.7974 103.495
vt 59.7974 0.000869234
f 9/122/27 46/123/27 8/124/27

v 9.26342 11.1642 -53.2741
vt 63.8971 103.495
f 46/123/27 9/122/27 53/125/27

usemtl BackColor
vn 0.00031484 -3.39488e-006 -1
f 8/124/28 46/123/28 9/122/28

f 53/125/28 9/122/28 46/123/28

usemtl _Color_C03_1
v 9.26312 11.1642 -52.3318
vt -63.966 218.924
vn -1.0645e-009 -1 3.39488e-006
vt -59.878 256.023
vt -63.9777 256.021
f 54/126/29 46/127/29 53/128/29

vt -59.8663 218.926
f 46/127/29 54/126/29 47/129/29

usemtl BackColor
vn 1.0645e-009 1 -3.39488e-006
f 47/129/30 54/126/30 46/127/30

usemtl _Color_C03_1
v 9.26312 8.53543 -52.3318
vt -63.8971 4.14734e-009
vn 0.00031484 1.07904e-015 -1
vt -63.8971 103.495
f 55/130/31 47/6/31 54/131/31

v 9.15899 8.53543 -52.3319
vt -59.7974 4.12955e-009
f 47/6/31 55/130/31 56/132/31

usemtl BackColor
vn -0.00031484 -1.07904e-015 1
f 56/132/32 55/130/32 47/6/32

f 54/131/32 47/6/32 55/130/32

usemtl _Color_C03_1
vt -218.945 6.42761e-009
f 56/133/1 48/101/1 47/100/1

v 9.15797 8.53543 -49.0842
vt -91.0843 7.59796e-009
f 48/101/1 56/133/1 57/134/1

usemtl BackColor
f 57/134/2 56/133/2 48/101/2

f 47/100/2 48/101/2 56/133/2

usemtl _Color_C03_1
v 9.26342 8.53543 -49.0842
vt 63.949 2.24957e-006
vn -0.00031484 2.46391e-008 1
vt 59.7974 2.24953e-006
f 58/135/33 48/123/33 57/136/33

v 9.26342 11.1642 -49.0842
vt 63.949 103.495
f 48/123/33 58/135/33 59/137/33

usemtl BackColor
vn 0.00031484 -2.46391e-008 -1
f 57/136/34 48/123/34 58/135/34

f 59/137/34 58/135/34 48/123/34

usemtl _Color_C03_1
vt -63.9653 51.6941
vn 7.73589e-012 -1 2.43556e-015
vt -59.826 91.0655
vt -63.9777 91.0642
f 7/138/35 48/139/35 59/140/35

vt -59.8136 51.6954
f 48/139/35 7/138/35 2/141/35

usemtl BackColor
vn -7.73589e-012 1 -2.43556e-015
f 2/141/36 7/138/36 48/139/36

f 7/9/4 2/6/4 6/7/4

f 59/140/36 48/139/36 7/138/36

f 53/128/30 46/127/30 54/126/30

usemtl _Color_C03_1
v 9.26342 11.1642 -52.3318
vt -63.9777 218.924
f 54/126/29 53/128/29 60/142/29

usemtl BackColor
f 60/142/30 53/128/30 54/126/30

vt 63.9777 256.021
f 9/143/6 6/16/6 8/15/6

usemtl _Tile_Ceramic_Natural_7
v 9.26342 8.53543 -52.3318
vt 17.5287 40.3935
f 9/13/5 6/10/5 61/144/5

usemtl BackColor
vt 63.9777 218.925
f 61/145/6 6/16/6 9/143/6

usemtl _Tile_Ceramic_Natural_7
vt 17.5287 38.0836
f 58/146/5 61/144/5 6/10/5

v 9.26342 8.53543 -49.4748
vt 17.5287 38.3615
f 61/144/5 58/146/5 62/147/5

usemtl BackColor
vt 63.9777 91.0642
f 6/16/6 61/145/6 58/148/6

vt 63.9777 106.444
f 62/149/6 58/148/6 61/145/6

usemtl _Tile_Ceramic_Natural_7
v 9.26342 8.53543 -49.3478
vt 17.5287 38.2711
f 62/147/5 58/146/5 63/150/5

usemtl BackColor
vt 63.9777 101.444
f 63/151/6 58/148/6 62/149/6

usemtl _Tile_Ceramic_Natural_7
v 9.26342 8.53543 -49.3548
vt 17.5287 38.2761
f 62/147/5 63/150/5 64/152/5

usemtl BackColor
vt 63.9777 101.719
f 64/153/6 63/151/6 62/149/6

usemtl _Tile_Ceramic_Natural_7
v 15.6938 8.53543 -49.3528
vt 22.1022 38.2747
f 62/147/5 64/152/5 65/154/5

usemtl BackColor
vt 317.141 101.64
f 65/155/6 64/153/6 62/149/6

usemtl _Tile_Ceramic_Natural_7
v 15.6938 8.53543 -49.4728
vt 22.1023 38.36
f 62/147/5 65/154/5 66/156/5

usemtl BackColor
vt 317.142 106.364
f 66/157/6 65/155/6 62/149/6

f 5/14/6 3/24/6 11/118/6

f 11/118/6 3/24/6 12/23/6

usemtl _Tile_Ceramic_Natural_7
vt 17.4555 43.7491
f 12/20/5 11/18/5 43/158/5

usemtl BackColor
vt 59.9248 404.672
f 43/159/6 11/118/6 12/23/6

vt 63.9777 395.021
f 49/160/6 52/119/6 11/118/6

usemtl _Tile_Ceramic_Natural_7
v 9.26342 8.53543 -56.4767
vt 17.5287 43.3414
f 49/116/5 52/115/5 67/161/5

usemtl BackColor
vt 63.9777 382.107
f 67/162/6 52/119/6 49/160/6

f 51/113/26 45/112/26 52/111/26

f 50/109/24 44/108/24 51/107/24

usemtl _Color_C03_1
v 9.26342 11.1642 -56.4766
vt -63.9791 382.104
f 51/107/23 50/109/23 68/163/23

usemtl BackColor
f 68/163/24 50/109/24 51/107/24

usemtl _Color_C03_1
f 41/94/16 12/93/16 4/92/16

usemtl FrontColor
f 4/92/15 41/94/15 38/80/15

usemtl _Color_C03_1
f 38/80/16 41/94/16 4/92/16

usemtl FrontColor
f 38/80/15 39/82/15 4/92/15

usemtl _Color_C03_1
f 39/82/16 24/79/16 38/80/16

vt 404.672 141.732
v 7.64152 11.1664 -56.8047
vt 395.022 103.583
vt 404.672 2.25629e-008
f 39/164/13 69/165/13 24/166/13

v 7.6412 11.1664 -55.7767
vt 354.55 103.583
f 39/164/13 70/167/13 69/165/13

v 7.64054 12.1354 -53.6971
vt 272.676 141.732
f 71/168/13 70/167/13 39/164/13

vt 354.55 1.20022e-008
f 71/168/13 26/169/13 70/167/13

f 35/68/13 26/169/13 71/168/13

v 7.64041 11.1664 -53.2746
vt 256.041 103.583
f 72/170/13 26/169/13 35/68/13

vt 256.041 1.20023e-008
f 26/169/13 72/170/13 27/171/13

usemtl BackColor
f 27/171/14 72/170/14 26/169/14

f 35/68/14 26/169/14 72/170/14

f 71/168/14 26/169/14 35/68/14

f 70/167/14 26/169/14 71/168/14

f 39/164/14 70/167/14 71/168/14

f 69/165/14 70/167/14 39/164/14

f 24/166/14 69/165/14 39/164/14

usemtl _Color_C03_1
vt 395.022 1.20021e-008
f 24/166/13 69/165/13 25/172/13

usemtl BackColor
f 25/172/14 69/165/14 24/166/14

usemtl _Color_C03_1
f 35/68/13 37/70/13 72/170/13

usemtl BackColor
f 72/170/14 37/70/14 35/68/14

usemtl _Color_C03_1
f 4/92/16 39/82/16 38/80/16

f 42/90/17 14/89/17 41/88/17

usemtl BackColor
f 12/23/6 13/22/6 14/87/6

f 14/87/6 13/22/6 15/51/6

vt 0.0153662 51.7143
f 29/74/6 18/32/6 30/173/6

f 30/173/6 18/32/6 31/63/6

usemtl _Color_C03_1
vt 51.7143 1.20035e-008
f 33/64/13 31/66/13 30/174/13

usemtl BackColor
f 31/66/14 32/65/14 33/64/14

f 32/65/14 34/67/14 33/64/14

usemtl _Color_C03_1
vt 0.000915541 6.98985e-009
vt 0.00091552 141.732
f 20/44/11 32/175/11 34/176/11

vt -5.54902 6.27697e-009
f 32/175/11 20/44/11 18/177/11

usemtl BackColor
f 18/177/12 20/44/12 32/175/12

f 18/36/8 19/35/8 20/34/8

f 34/176/12 32/175/12 20/44/12

usemtl _Color_C03_1
f 20/44/11 34/176/11 1/42/11

usemtl BackColor
f 1/42/12 34/176/12 20/44/12

f 20/44/12 23/43/12 1/42/12

f 30/174/14 31/66/14 33/64/14

g Mesh2 COIM013 Model

l 11 44

l 43 11

l 4 43

l 4 1

l 4 39

l 39 24

l 39 71

l 71 35

l 35 34

l 32 34

l 18 32

l 20 18

l 20 21

l 20 23

l 13 23

l 3 13

l 5 3

l 5 2

l 5 6

l 6 7

l 58 6

l 57 58

l 56 57

l 47 56

l 46 47

l 8 46

l 10 8

l 10 45

l 10 52

l 52 51

l 67 52

l 67 49

l 49 50

l 11 49

l 44 50

l 44 45

l 45 51

l 68 51

l 50 68

l 8 9

l 53 9

l 46 53

l 53 60

l 54 47

l 55 54

l 56 55

l 9 61

l 61 62

l 62 66

l 65 66

l 64 65

l 64 63

l 63 58

l 58 59

l 48 59

l 57 48

l 48 2

l 2 7

l 59 7

l 3 1

l 1 34

l 13 16

l 16 22

l 19 16

l 21 19

l 21 22

l 23 22

l 18 19

l 31 32

l 30 31

l 30 33

l 29 30

l 36 29

l 33 36

l 28 29

l 28 37

l 27 28

l 72 27

l 37 72

l 26 27

l 25 26

l 69 25

l 70 69

l 26 70

l 24 25

l 17 24

l 17 15

l 38 17

l 41 38

l 12 41

l 43 12

l 12 14

l 15 14

l 40 15

l 42 40

l 14 42

l 41 42

l 38 40

