# Alias OBJ Model File
# Exported from SketchUp, (c) 2000-2012 Trimble Navigation Limited
# File units = meters

mtllib COM011.mtl

g Mesh1 COM011 Model

usemtl _Color_C03_1
v 15.6972 12.1354 -60.3578
vt -130.36 141.732
vn -1 -1.27837e-015 -0.00031484
v 15.6962 8.53543 -57.169
vt -4.81554 3.95534e-010
v 15.6962 12.1354 -57.169
vt -4.81554 141.732
f 1/1/1 2/2/1 3/3/1

v 15.6963 8.53543 -57.2557
vt -8.23035 3.95989e-010
f 2/2/1 1/1/1 4/4/1

usemtl _7
vt -18.666 2.49267
vn 1 1.27837e-015 0.00031484
vt -18.666 1.75321
vt -19.7071 2.49267
f 3/5/2 2/6/2 1/7/2

usemtl _Color_C03_1
vt -253.26 3.9579e-010
vn 1.44478e-015 1.43031e-014 -1
v 15.5644 11.0734 -57.169
vt -248.07 99.9213
vt -253.26 141.732
f 2/8/3 5/9/3 3/10/3

v 15.5644 8.53543 -57.169
vt -248.07 3.9579e-010
f 5/9/3 2/8/3 6/11/3

usemtl BackColor
vn -1.44478e-015 -1.43031e-014 1
f 6/11/4 2/8/4 5/9/4

usemtl _Tile_Ceramic_Natural_7
v 15.6972 8.53543 -60.3578
vt 22.1047 46.1018
vn -4.42153e-013 1 -8.91393e-014
vt 22.0102 43.8338
vt 22.104 43.8338
f 7/12/5 6/13/5 2/14/5

v 15.4872 8.53543 -60.3579
vt 21.9553 46.1019
f 8/15/5 6/13/5 7/12/5

v 15.5644 8.53543 -57.0487
vt 22.0102 43.7483
f 8/15/5 9/16/5 6/13/5

v 14.7384 8.53543 -57.169
vt 21.4227 43.8338
f 10/17/5 9/16/5 8/15/5

v 14.7384 8.53543 -57.0487
vt 21.4227 43.7483
f 9/16/5 10/17/5 11/18/5

usemtl BackColor
vt 215.55 1.36424e-012
vn 4.42153e-013 -1 8.91393e-014
vt 215.55 4.73581
vt 248.07 1.36424e-012
f 11/19/6 10/20/6 9/21/6

usemtl _Color_C03_1
v 14.7384 11.0734 -57.169
vt 4.73581 99.9213
vn 1 3.41329e-015 2.04184e-029
vt 1.36424e-012 3.94894e-010
vt 4.73581 3.95008e-010
f 12/22/7 11/23/7 10/24/7

v 14.7384 11.0734 -57.0487
vt 4.40118e-027 99.9213
f 11/23/7 12/22/7 13/25/7

usemtl BackColor
vn -1 -3.41329e-015 -2.04184e-029
f 13/25/8 12/22/8 11/23/8

usemtl _Color_C03_1
vt -248.07 4.73581
vn 2.62195e-015 -1 6.00145e-015
vt -215.55 -5.99673e-013
vt -215.55 4.73581
f 5/26/9 13/27/9 12/28/9

v 15.5644 11.0734 -57.0487
vt -248.07 -5.99673e-013
f 13/27/9 5/26/9 14/29/9

usemtl BackColor
vn -2.62195e-015 1 -6.00145e-015
f 12/28/10 13/27/10 5/26/10

f 14/29/10 5/26/10 13/27/10

usemtl _Color_C03_1
vt -4.73581 99.9213
vn -1 -3.41329e-015 -3.98831e-029
vt -1.36424e-012 3.94897e-010
vt -9.89379e-027 99.9213
f 5/30/11 9/31/11 14/32/11

vt -4.73581 3.95011e-010
f 9/31/11 5/30/11 6/33/11

usemtl BackColor
vn 1 3.41329e-015 3.98831e-029
f 14/32/12 9/31/12 5/30/12

f 6/33/12 5/30/12 9/31/12

vt 248.07 4.73581
vt 245.032 130.283
f 6/34/6 9/21/6 8/35/6

f 8/35/6 9/21/6 10/20/6

usemtl _Tile_Ceramic_Natural_7
v 15.4874 8.53543 -60.8479
vt 21.9555 46.4504
f 15/36/5 10/17/5 8/15/5

v 14.6874 8.53543 -60.8481
vt 21.3865 46.4506
f 16/37/5 10/17/5 15/36/5

v 13.828 8.53543 -62.9184
vt 20.7753 47.923
f 17/38/5 10/17/5 16/37/5

v 12.968 8.53543 -62.9184
vt 20.1636 47.923
f 18/39/5 10/17/5 17/38/5

v 12.9679 8.53543 -62.6387
vt 20.1635 47.7241
f 19/40/5 10/17/5 18/39/5

v 12.9103 8.53543 -57.169
vt 20.1225 43.8338
f 19/40/5 20/41/5 10/17/5

v 12.8928 8.53543 -57.2112
vt 20.1101 43.8638
f 19/40/5 21/42/5 20/41/5

v 12.865 8.53543 -57.2474
vt 20.0903 43.8896
f 19/40/5 22/43/5 21/42/5

v 12.8288 8.53543 -57.2753
vt 20.0645 43.9094
f 19/40/5 23/44/5 22/43/5

v 12.7866 8.53543 -57.2927
vt 20.0345 43.9219
f 19/40/5 24/45/5 23/44/5

v 12.7413 8.53543 -57.2987
vt 20.0023 43.9261
f 19/40/5 25/46/5 24/45/5

v 12.696 8.53543 -57.2928
vt 19.9701 43.9219
f 19/40/5 26/47/5 25/46/5

v 12.6538 8.53543 -57.2753
vt 19.9401 43.9095
f 19/40/5 27/48/5 26/47/5

v 12.6175 8.53543 -57.2475
vt 19.9143 43.8897
f 19/40/5 28/49/5 27/48/5

v 12.5897 8.53543 -57.2113
vt 19.8945 43.8639
f 19/40/5 29/50/5 28/49/5

v 12.5722 8.53543 -57.1691
vt 19.8821 43.8339
f 19/40/5 30/51/5 29/50/5

v 12.5721 8.53543 -57.1688
vt 19.882 43.8337
f 19/40/5 31/52/5 30/51/5

v 12.5721 8.53543 -57.1688
f 19/40/5 32/52/5 31/52/5

v 12.5679 8.53543 -62.6388
vt 19.879 47.7242
f 33/53/5 32/52/5 19/40/5

v 10.1634 8.53543 -62.9195
vt 18.1689 47.9238
f 34/54/5 32/52/5 33/53/5

v 9.31345 8.53543 -62.9198
vt 17.5643 47.924
f 35/55/5 32/52/5 34/54/5

v 9.26363 8.53543 -62.6226
vt 17.5289 47.7126
f 36/56/5 32/52/5 35/55/5

v 9.26343 8.53543 -61.6383
vt 17.5287 47.0126
f 37/57/5 32/52/5 36/56/5

v 9.26342 8.53543 -57.1698
vt 17.5287 43.8344
f 32/52/5 37/57/5 38/58/5

usemtl BackColor
vt 1.09958e-009 4.76946
vt 0.000374974 180.693
vt 130.263 4.72845
f 38/59/6 37/60/6 32/61/6

usemtl _Color_C03_1
v 9.26343 11.1659 -61.6383
vt 180.693 103.563
vn 1 -7.3633e-007 2.15332e-006
vt 4.76946 3.88182e-010
vt 180.693 2.76267e-010
f 39/62/13 38/63/13 37/64/13

v 9.26342 12.1354 -62.8298
vt 227.604 141.732
f 40/65/13 38/63/13 39/62/13

v 9.26342 12.1354 -57.1698
vt 4.76946 141.732
f 38/63/13 40/65/13 41/66/13

usemtl BackColor
vn -1 7.3633e-007 -2.15332e-006
f 41/66/14 40/65/14 38/63/14

f 39/62/14 38/63/14 40/65/14

f 37/64/14 38/63/14 39/62/14

usemtl _Color_C03_1
v 9.26343 11.1659 -61.9674
vt 193.652 103.563
f 40/65/13 39/62/13 42/67/13

usemtl BackColor
f 42/67/14 39/62/14 40/65/14

usemtl _Color_C03_1
v 9.26343 11.1659 -62.6226
vt 219.445 103.563
f 40/65/13 42/67/13 43/68/13

usemtl BackColor
f 43/68/14 42/67/14 40/65/14

usemtl _Color_C03_1
v 9.26342 8.53543 -62.6226
vt 219.445 -6.12814e-011
f 40/65/13 43/68/13 44/69/13

usemtl BackColor
f 44/69/14 43/68/14 40/65/14

usemtl _Color_C03_1
v 9.26342 8.53543 -62.8298
vt 227.604 3.42966e-011
f 40/65/13 44/69/13 45/70/13

usemtl BackColor
f 45/70/14 44/69/14 40/65/14

usemtl _Tile_Ceramic_Natural_7
vt 17.5287 47.86
vt 17.5287 47.7126
f 36/56/5 45/71/5 44/72/5

v 9.26345 8.53543 -62.9198
vt 17.5288 47.924
f 45/71/5 36/56/5 46/73/5

usemtl BackColor
vt 1.09958e-009 219.445
vt 1.09958e-009 227.604
vt 0.00852275 219.445
f 44/74/6 45/75/6 36/76/6

vt 0.00111557 231.147
f 46/77/6 36/76/6 45/75/6

usemtl _Tile_Ceramic_Natural_7
f 46/73/5 36/56/5 35/55/5

usemtl BackColor
vt 1.96962 231.147
f 35/78/6 36/76/6 46/77/6

f 35/78/6 32/61/6 36/76/6

vt 35.4342 231.136
f 34/79/6 32/61/6 35/78/6

vt 130.099 220.083
f 33/80/6 32/61/6 34/79/6

vt 145.848 220.078
f 19/81/6 32/61/6 33/80/6

vt 130.265 4.72845
f 31/82/6 32/61/6 19/81/6

vt 130.266 4.74
f 30/83/6 31/82/6 19/81/6

usemtl _7
v 12.5721 12.1354 -57.1688
vt -19.0409 2.49267
vn -0.991404 -1.53414e-014 -0.130838
vt -19.041 1.75321
vn -0.965844 -7.89785e-015 -0.259123
vt -19.0409 1.75321
f 47/84/15 30/85/16 31/86/15

v 12.5722 12.1354 -57.1691
vt -19.041 2.49267
f 30/85/16 47/84/15 48/87/16

vn 0.991404 1.53414e-014 0.130838
vn 0.965844 7.89785e-015 0.259123
f 31/86/17 30/85/18 47/84/17

f 48/87/18 47/84/17 30/85/18

v 12.5897 12.1354 -57.2113
vt -18.8283 2.49267
vn -0.865868 -3.47095e-016 -0.500273
vt -18.8133 1.75321
vt -18.8133 2.49267
f 49/88/19 30/89/16 48/90/16

vt -18.8283 1.75321
f 30/89/16 49/88/19 29/91/19

vn 0.865868 3.47095e-016 0.500273
f 48/90/18 30/89/18 49/88/20

f 29/91/20 49/88/20 30/89/18

v 12.6175 12.1354 -57.2475
vt -17.3329 2.49267
vn -0.706884 -3.84785e-016 -0.707329
vt -17.318 1.75321
vt -17.318 2.49267
f 50/92/21 29/93/19 49/94/19

vt -17.3329 1.75321
f 29/93/19 50/92/21 28/95/21

vn 0.706884 3.84785e-016 0.707329
f 49/94/20 29/93/20 50/92/22

f 28/95/22 50/92/22 29/93/20

vt -14.642 2.49267
vt -14.6569 1.75321
vn -0.499727 -3.96253e-016 -0.866183
vt -14.642 1.75321
f 50/96/21 27/97/23 28/98/21

v 12.6538 12.1354 -57.2753
vt -14.6569 2.49267
f 27/97/23 50/96/21 51/99/23

vn 0.499727 3.96253e-016 0.866183
f 28/98/22 27/97/24 50/96/22

usemtl BackColor
vt 133.478 8.92249
vt 132.051 7.82803
f 27/100/6 28/101/6 19/81/6

vt 130.955 6.40146
f 28/101/6 29/102/6 19/81/6

f 29/102/6 30/83/6 19/81/6

vt 135.14 9.61026
f 26/103/6 27/100/6 19/81/6

usemtl _7
vt -10.9676 1.75321
v 12.696 12.1354 -57.2928
vt -10.9825 2.49267
vn -0.258515 -3.80716e-016 -0.966007
vt -10.9825 1.75321
f 27/104/23 52/105/25 26/106/25

vt -10.9676 2.49267
f 52/105/25 27/104/23 51/107/23

vn 0.258515 3.80716e-016 0.966007
f 26/106/26 52/105/26 27/104/24

v 12.7413 12.1354 -57.2987
vt -6.5602 2.49267
vn 0.00031484 -3.39234e-016 -1
vt -6.54528 1.75321
vt -6.54528 2.49267
f 53/108/27 26/109/25 52/110/25

vt -6.5602 1.75321
f 26/109/25 53/108/27 25/111/27

vn -0.00031484 3.39234e-016 1
f 25/111/28 53/108/28 26/109/26

vt -1.67642 2.49267
vt -1.69133 1.75321
vn 0.259123 -2.74634e-016 -0.965844
vt -1.67642 1.75321
f 53/112/27 24/113/29 25/114/27

v 12.7866 12.1354 -57.2927
vt -1.69133 2.49267
f 24/113/29 53/112/27 54/115/29

vn -0.259123 2.74634e-016 0.965844
f 25/114/28 24/113/30 53/112/28

usemtl BackColor
vt 138.706 9.60914
vt 136.923 9.84446
f 24/116/6 25/117/6 19/81/6

f 25/117/6 26/103/6 19/81/6

vt 140.368 8.92032
f 23/118/6 24/116/6 19/81/6

usemtl _7
vt 3.3072 2.49267
vt 3.29229 1.75321
vn 0.500273 -1.91318e-016 -0.865868
vt 3.3072 1.75321
f 54/119/29 23/120/31 24/121/29

v 12.8288 12.1354 -57.2753
vt 3.29229 2.49267
f 23/120/31 54/119/29 55/122/31

vn -0.500273 1.91318e-016 0.865868
f 24/121/30 23/120/32 54/119/30

f 55/122/32 54/119/30 23/120/32

vt 8.06595 2.49267
vt 8.05103 1.75321
vn 0.707329 -9.49645e-017 -0.706884
vt 8.06595 1.75321
f 55/123/31 22/124/33 23/125/31

v 12.865 12.1354 -57.2474
vt 8.05103 2.49267
f 22/124/33 55/123/31 56/126/33

vn -0.707329 9.49645e-017 0.706884
f 23/125/32 22/124/34 55/123/32

usemtl BackColor
vt 141.794 7.82496
f 22/127/6 23/118/6 19/81/6

vt 142.889 6.3977
f 21/128/6 22/127/6 19/81/6

usemtl _7
vt 12.2755 1.75321
v 12.8928 12.1354 -57.2112
vt 12.2606 2.49267
vn 0.866183 1.48583e-014 -0.499727
vt 12.2606 1.75321
f 22/129/33 57/130/35 21/131/35

vt 12.2755 2.49267
f 57/130/35 22/129/33 56/132/33

vn -0.866183 -1.48583e-014 0.499727
f 21/131/36 57/130/36 22/129/34

vt 15.649 2.49267
vt 15.6341 1.75321
vn 0.924 2.95064e-014 -0.382393
vt 15.649 1.75321
f 57/133/35 20/134/37 21/135/35

v 12.9103 12.1354 -57.169
vt 15.6341 2.49267
f 20/134/37 57/133/35 58/136/37

vn -0.924 -2.95064e-014 0.382393
f 58/136/38 57/133/36 20/134/38

f 21/135/36 20/134/38 57/133/36

usemtl BackColor
vt 143.576 4.73581
f 20/137/6 21/128/6 19/81/6

f 10/20/6 20/137/6 19/81/6

usemtl _Color_C03_1
vt -143.576 141.732
vt -215.55 3.95676e-010
vt -143.576 3.95392e-010
f 58/138/3 10/139/3 20/140/3

vt -215.55 99.9213
f 10/139/3 58/138/3 12/141/3

usemtl BackColor
f 20/140/4 10/139/4 58/138/4

f 12/141/4 58/138/4 10/139/4

usemtl _Color_C03_1
f 12/141/3 58/138/3 5/9/3

usemtl BackColor
f 5/9/4 58/138/4 12/141/4

usemtl _Color_C03_1
f 5/9/3 58/138/3 3/10/3

usemtl BackColor
f 3/10/4 58/138/4 5/9/4

f 3/10/4 5/9/4 2/8/4

f 10/24/8 11/23/8 12/22/8

vt 145.851 231.091
f 18/142/6 10/20/6 19/81/6

vt 179.709 231.091
f 17/143/6 10/20/6 18/142/6

vt 213.542 149.584
f 16/144/6 10/20/6 17/143/6

vt 245.038 149.574
f 15/145/6 10/20/6 16/144/6

f 8/35/6 10/20/6 15/145/6

usemtl _Color_C03_1
vt -130.36 3.95409e-010
vn -1 -2.04934e-016 -0.00031484
v 15.4874 12.1354 -60.8479
vt -149.651 141.732
vt -149.651 3.95409e-010
f 8/146/39 59/147/39 15/148/39

v 15.4872 12.1354 -60.3579
f 59/147/39 8/146/39 60/1/39

usemtl _7
vn 1 2.04934e-016 0.00031484
vt -19.7071 1.75321
vt -19.867 2.49267
f 60/7/40 8/149/40 59/150/40

usemtl _Color_C03_1
vt 244.991 3.95504e-010
vt 253.259 141.732
vt 244.991 141.732
f 8/151/28 1/152/28 60/153/28

vt 253.259 3.95504e-010
f 1/152/28 8/151/28 7/154/28

usemtl _7
vt 5.11858 1.75321
vt 5.05002 1.75321
vt 5.11858 2.49267
f 7/155/27 8/156/27 1/157/27

usemtl BackColor
vt 253.3 130.28
f 7/158/6 6/34/6 8/35/6

vt 253.26 4.73581
f 2/159/6 6/34/6 7/158/6

usemtl _Tile_Ceramic_Natural_7
vt 22.104 43.8955
f 7/12/5 2/14/5 4/160/5

usemtl BackColor
vt 253.261 8.15062
f 4/161/6 2/159/6 7/158/6

usemtl _7
vt -18.6943 1.75321
f 4/162/2 1/7/2 2/6/2

usemtl _Color_C03_1
vt -130.36 3.95136e-010
f 4/4/1 1/1/1 7/163/1

usemtl _7
f 7/149/2 1/7/2 4/162/2

vt 5.05002 2.49267
f 60/164/27 1/157/27 8/156/27

vt -19.867 1.75321
f 15/165/40 59/150/40 8/149/40

usemtl _Color_C03_1
vt 213.495 3.96306e-010
vt 244.991 3.9551e-010
f 59/153/28 16/166/28 15/167/28

v 14.6874 12.1354 -60.8481
vt 213.495 141.732
f 16/166/28 59/153/28 61/168/28

usemtl _7
vt 4.78884 1.75321
f 15/156/27 16/169/27 59/164/27

vt 4.78884 2.49267
f 61/170/27 59/164/27 16/169/27

usemtl _Color_C03_1
vn -1 2.22596e-016 -0.00031484
v 14.6874 8.53543 -60.9731
vt -154.573 3.96303e-010
vt -149.651 3.96303e-010
f 61/147/41 62/171/41 16/172/41

v 14.6874 11.5354 -60.9731
vt -154.573 118.11
f 62/171/41 61/147/41 63/173/41

usemtl _7
vn 1 -2.22596e-016 0.00031484
vt -19.9078 1.75321
f 16/165/42 62/174/42 61/150/42

usemtl _Tile_Ceramic_Natural_7
v 14.688 8.53543 -62.8731
vt 21.3869 47.8908
vt 21.3865 46.5395
f 64/175/5 16/37/5 62/176/5

v 14.6826 8.53543 -62.9181
vt 21.3831 47.9228
f 64/175/5 65/177/5 16/37/5

v 14.688 8.53543 -62.9181
vt 21.3869 47.9228
f 65/177/5 64/175/5 66/178/5

usemtl BackColor
vt 213.568 231.08
vt 213.567 229.309
vt 213.353 231.08
f 66/179/6 64/180/6 65/181/6

usemtl _Color_C03_1
vt -229.376 3.9545e-010
v 14.688 12.1354 -62.9181
vt -231.147 141.732
vt -231.147 3.9545e-010
f 64/182/41 67/183/41 66/184/41

v 14.688 11.5354 -62.8731
vt -229.376 118.11
f 68/185/41 67/183/41 64/182/41

f 63/173/41 67/183/41 68/185/41

f 67/183/41 63/173/41 61/147/41

usemtl _7
vt -19.9078 2.36943
vt -20.5428 2.49267
f 61/150/42 63/186/42 67/187/42

f 63/186/42 61/150/42 62/174/42

vt -20.5282 2.36943
f 68/188/42 67/187/42 63/186/42

vt -20.5282 1.75321
f 64/189/42 67/187/42 68/188/42

vt -20.5428 1.75321
f 66/190/42 67/187/42 64/189/42

usemtl _Color_C03_1
vn -0.00031484 2.36836e-016 1
vt 213.28 3.95969e-010
vt 213.495 3.95458e-010
f 67/168/43 65/191/43 66/192/43

v 12.968 12.1354 -62.9187
vt 145.778 141.732
f 69/193/43 65/191/43 67/168/43

vt 179.636 3.95401e-010
f 69/193/43 17/194/43 65/191/43

v 12.968 8.53543 -62.9187
vt 145.778 3.95344e-010
f 17/194/43 69/193/43 70/195/43

usemtl _7
vt 4.2273 1.75321
vn 0.00031484 -2.36836e-016 -1
vt 4.2273 2.49267
vt 4.50807 1.75321
f 70/196/44 69/197/44 17/198/44

vt 4.78706 1.75321
f 65/199/44 17/198/44 69/197/44

usemtl _Tile_Ceramic_Natural_7
f 17/38/5 16/37/5 65/177/5

usemtl BackColor
f 65/181/6 16/144/6 17/143/6

f 16/144/6 65/181/6 64/180/6

vt 213.543 154.505
f 62/200/6 16/144/6 64/180/6

usemtl _7
f 67/170/44 65/199/44 69/197/44

f 66/169/44 65/199/44 67/170/44

f 56/132/34 22/129/34 57/130/36

f 56/126/34 55/123/32 22/124/34

f 54/115/30 53/112/28 24/113/30

f 52/110/26 26/109/26 53/108/28

f 51/107/24 27/104/24 52/105/26

f 51/99/24 50/96/22 27/97/24

usemtl _Color_C03_1
v 12.9679 12.1354 -62.6387
vt 130.03 3.95477e-010
vt 145.778 3.95364e-010
f 71/193/28 33/201/28 19/202/28

v 12.5679 12.1354 -62.6388
vt 130.03 141.732
f 33/201/28 71/193/28 72/203/28

usemtl _7
vt 4.09671 1.75321
f 19/196/27 33/204/27 71/197/27

vt 4.09671 2.49267
f 72/205/27 71/197/27 33/204/27

usemtl _Color_C03_1
v 12.568 12.1354 -62.9188
vn -1 -4.6942e-016 -0.00031484
vt -220.124 3.95342e-010
vt -220.124 141.732
f 73/183/45 33/206/45 72/207/45

v 12.568 8.53543 -62.9184
vt -231.132 3.95342e-010
f 33/206/45 73/183/45 74/208/45

usemtl _7
vt -20.4514 2.49267
vn 1 4.6942e-016 0.00031484
vt -20.4514 1.75321
f 72/209/46 33/210/46 73/187/46

vt -20.5427 1.75321
f 74/211/46 73/187/46 33/210/46

usemtl _Color_C03_1
v 12.568 8.53543 -62.9188
vt -231.147 3.95342e-010
f 74/208/45 73/183/45 75/212/45

usemtl _7
f 75/190/46 73/187/46 74/211/46

usemtl _Color_C03_1
vn -0.00031484 -2.67846e-012 1
vt 35.3614 -2.23035e-010
vt 130.03 -2.23717e-010
f 73/203/47 34/213/47 75/214/47

v 10.1634 10.6354 -62.9195
vt 35.3614 82.6772
f 34/213/47 73/203/47 76/215/47

usemtl BackColor
vn 0.00031484 2.67846e-012 -1
f 75/214/48 34/213/48 73/203/48

usemtl _Tile_Ceramic_Natural_7
vt 19.8791 47.9233
f 33/53/5 75/216/5 34/54/5

vt 19.8791 47.923
f 75/216/5 33/53/5 74/217/5

usemtl BackColor
vt 130.103 231.106
f 34/79/6 75/218/6 33/80/6

vt 130.103 231.091
f 74/219/6 33/80/6 75/218/6

f 76/215/48 73/203/48 34/213/48

usemtl _Color_C03_1
v 9.31345 10.6354 -62.9198
vt 1.89685 82.6772
f 76/215/47 73/203/47 77/220/47

usemtl BackColor
f 77/220/48 73/203/48 76/215/48

usemtl _Color_C03_1
v 9.26345 12.1354 -62.9198
vt -0.0716588 141.732
f 77/220/47 73/203/47 78/221/47

usemtl BackColor
f 78/221/48 73/203/48 77/220/48

usemtl _Color_C03_1
vt -0.0716588 -2.23945e-010
f 46/222/47 77/220/47 78/221/47

vt 1.89685 -2.23945e-010
f 77/220/47 46/222/47 35/223/47

usemtl BackColor
f 35/223/48 46/222/48 77/220/48

f 78/221/48 77/220/48 46/222/48

usemtl _Color_C03_1
vt 231.147 141.732
vt 231.147 8.50109e-010
f 78/224/13 45/70/13 46/225/13

f 40/65/13 45/70/13 78/224/13

usemtl BackColor
f 78/224/14 45/70/14 40/65/14

f 46/225/14 45/70/14 78/224/14

f 36/76/6 32/61/6 37/60/6

usemtl _Tile_Ceramic_Natural_7
v 9.26342 8.53543 -61.9555
vt 17.5287 47.2382
f 79/226/5 37/57/5 36/56/5

v 9.26342 8.53543 -61.935
vt 17.5287 47.2236
f 37/57/5 79/226/5 80/227/5

usemtl BackColor
vt 1.09958e-009 192.375
vt 0.000254126 193.182
f 80/228/6 79/229/6 37/60/6

f 36/76/6 37/60/6 79/229/6

usemtl _Color_C03_1
vt 0.00150161 141.732
vn 0.00031484 2.94021e-012 -1
vt -130.262 3.82232e-010
vt 0.00150161 3.81721e-010
f 41/230/49 32/231/49 38/232/49

v 12.5721 12.1354 -57.1688
vt -130.262 141.732
f 32/231/49 41/230/49 81/233/49

usemtl BackColor
vn -0.00031484 -2.94021e-012 1
f 38/232/50 32/231/50 41/230/50

f 81/233/50 41/230/50 32/231/50

g Mesh2 COM011 Model

l 20 10

l 20 21

l 20 58

l 58 57

l 58 3

l 2 3

l 2 4

l 6 2

l 6 9

l 5 6

l 5 14

l 12 5

l 10 12

l 10 11

l 13 11

l 12 13

l 14 13

l 14 9

l 11 9

l 4 7

l 7 1

l 8 7

l 8 15

l 8 60

l 60 59

l 60 1

l 3 1

l 15 59

l 16 15

l 16 62

l 16 61

l 61 67

l 61 59

l 66 67

l 64 66

l 64 68

l 64 62

l 62 63

l 63 68

l 65 66

l 17 65

l 70 17

l 70 69

l 69 67

l 18 17

l 19 18

l 33 19

l 33 74

l 33 72

l 72 73

l 72 71

l 19 71

l 75 73

l 34 75

l 34 35

l 34 76

l 77 76

l 35 77

l 46 35

l 46 45

l 46 78

l 78 73

l 78 40

l 40 41

l 38 41

l 38 32

l 37 38

l 37 80

l 39 37

l 42 39

l 43 42

l 44 43

l 45 44

l 36 79

l 80 79

l 32 81

l 29 30

l 28 29

l 27 28

l 26 27

l 25 26

l 24 25

l 23 24

l 22 23

l 21 22

l 31 47

l 49 48

l 50 49

l 51 50

l 52 51

l 53 52

l 54 53

l 55 54

l 56 55

l 57 56

l 41 81

