# Alias OBJ Model File
# Exported from SketchUp, (c) 2000-2012 Trimble Navigation Limited
# File units = meters

mtllib COM021.mtl

g Mesh1 COM021 Model

usemtl _Color_C03_1
v 7.66992 8.53543 -23.0206
vt -9.85095 9.11759e-013
vn 0.966007 -3.49805e-016 -0.258515
v 7.67126 12.1354 -23.0104
vt -10.2561 141.732
vn 0.991486 -7.53141e-016 -0.130214
v 7.67126 8.53543 -23.0104
vt -10.2561 8.54916e-013
f 1/1/1 2/2/2 3/3/2

v 7.66992 12.1354 -23.0206
vt -9.85095 141.732
f 2/2/2 1/1/1 4/4/1

usemtl _7
vt 7.1223 1.75321
vn -0.991486 7.53141e-016 0.130214
vt 7.1223 2.49267
vt 7.12566 1.75321
vn -0.966007 3.49805e-016 0.258515
f 3/5/3 2/6/3 1/7/4

usemtl _Color_C03_1
vt -79.1488 141.732
vn 0.00031484 -2.80707e-015 -1
v 11.7551 8.53543 -23.0091
vt -239.929 9.6655e-013
vt -79.1488 7.9602e-013
f 2/8/5 5/9/5 3/10/5

v 11.7551 12.1354 -23.0091
vt -239.929 141.732
f 5/9/5 2/8/5 6/11/5

usemtl BackColor
vn -0.00031484 2.80707e-015 1
f 3/10/6 5/9/6 2/8/6

usemtl _Tile_Ceramic_Natural_7
v 7.75223 8.53543 -27.3103
vt 16.4539 22.5972
vn 1.02962e-015 1 -3.41141e-015
vt 16.3963 19.539
vt 19.3009 19.5381
f 7/12/7 3/13/7 5/14/7

vt 16.3954 19.5462
f 7/12/7 1/15/7 3/13/7

v 7.65245 8.53543 -23.0628
vt 16.383 19.5763
f 7/12/7 8/16/7 1/15/7

v 7.62465 8.53543 -23.0991
vt 16.3632 19.602
f 7/12/7 9/17/7 8/16/7

v 7.58842 8.53543 -23.1269
vt 16.3374 19.6218
f 7/12/7 10/18/7 9/17/7

v 7.54622 8.53543 -23.1444
vt 16.3074 19.6343
f 7/12/7 11/19/7 10/18/7

v 7.50093 8.53543 -23.1504
vt 16.2752 19.6385
f 7/12/7 12/20/7 11/19/7

v 7.45563 8.53543 -23.1444
vt 16.243 19.6343
f 7/12/7 13/21/7 12/20/7

v 7.41342 8.53543 -23.127
vt 16.213 19.6219
f 7/12/7 14/22/7 13/21/7

v 7.37717 8.53543 -23.0992
vt 16.1872 19.6021
f 7/12/7 15/23/7 14/22/7

v 7.34934 8.53543 -23.0629
vt 16.1674 19.5763
f 7/12/7 16/24/7 15/23/7

v 7.33185 8.53543 -23.0207
vt 16.1549 19.5463
f 7/12/7 17/25/7 16/24/7

v 7.3305 8.53543 -23.0105
vt 16.154 19.5391
f 7/12/7 18/26/7 17/25/7

v 7.25223 8.53543 -27.3105
vt 16.0983 22.5973
f 19/27/7 18/26/7 7/12/7

v 5.66242 8.53543 -27.911
vt 14.9676 23.0244
f 20/28/7 18/26/7 19/27/7

v 5.66157 8.53543 -25.201
vt 14.967 21.097
f 21/29/7 18/26/7 20/28/7

v 5.66136 8.53543 -24.533
vt 14.9668 20.6219
f 22/30/7 18/26/7 21/29/7

v 5.66088 8.53543 -23.011
vt 14.9665 19.5394
f 18/26/7 22/30/7 23/31/7

usemtl BackColor
vt -9.36432e-028 0.0755393
vn -1.02962e-015 -1 3.41141e-015
vt 0.0188645 59.9932
vt 65.7331 0.0548439
f 23/32/8 22/33/8 18/34/8

usemtl _Color_C03_1
vt 59.9933 1.7053e-012
vn 1 -4.9159e-015 0.00031484
v 5.66088 12.1354 -23.011
vt 0.0755393 141.732
vt 0.0755393 9.09495e-013
f 22/35/9 24/36/9 23/37/9

v 5.66242 12.1354 -27.911
vt 192.985 141.732
f 24/36/9 22/35/9 25/38/9

usemtl _7
vt 7.51316 1.75321
vn -1 4.9159e-015 -0.00031484
vt 7.51316 2.49267
vt 8.01003 1.75321
f 23/39/10 24/40/10 22/41/10

usemtl _Color_C03_1
v 7.3305 12.1354 -23.0105
vt -65.733 141.732
vn 0.00031484 -8.87738e-021 -1
vt 2.37827e-005 9.09495e-013
vt 2.37827e-005 141.732
f 26/42/11 23/43/11 24/44/11

vt -65.733 7.95808e-013
f 23/43/11 26/42/11 18/45/11

usemtl BackColor
vn -0.00031484 8.87738e-021 1
f 18/45/12 26/42/12 23/43/12

usemtl _Color_C03_1
v 7.33185 12.1354 -23.0207
vt -9.05993 141.732
vn -0.965844 -6.06988e-017 -0.259123
vt -8.65478 8.08761e-013
vn -0.991404 1.98795e-016 -0.130838
vt -8.65478 141.732
f 27/46/13 18/47/14 26/48/14

vt -9.05993 8.65605e-013
f 18/47/14 27/46/13 17/49/13

usemtl _7
vt -7.76096 2.49267
vn 0.991404 -1.98795e-016 0.130838
vt -7.76096 1.75321
vt -7.76432 2.49267
vn 0.965844 6.06988e-017 0.259123
f 26/50/15 18/51/15 27/52/16

vt -7.76432 1.75321
f 17/53/16 27/52/16 18/51/15

usemtl _Color_C03_1
v 7.34934 12.1354 -23.0629
vt -27.4147 141.732
vn -0.865868 -3.47095e-016 -0.500273
vt -25.6161 8.33312e-013
vt -25.6161 141.732
f 28/54/17 17/55/13 27/56/13

vt -27.4147 8.33312e-013
f 17/55/13 28/54/17 16/57/17

usemtl _7
vt -7.85945 2.49267
vt -7.85945 1.75321
vt -7.87437 2.49267
vn 0.865868 3.47095e-016 0.500273
f 27/58/16 17/59/16 28/60/18

vt -7.87437 1.75321
f 16/61/18 28/60/18 17/59/16

usemtl _Color_C03_1
vt -42.1638 141.732
vt -43.9624 8.33667e-013
vn -0.706884 -3.84785e-016 -0.707329
vt -42.1638 8.33667e-013
f 28/62/17 15/63/19 16/64/17

v 7.37717 12.1354 -23.0992
vt -43.9624 141.732
f 15/63/19 28/62/17 29/65/19

usemtl _7
vt -7.43338 1.75321
vt -7.4483 1.75321
vn 0.706884 3.84785e-016 0.707329
vt -7.43338 2.49267
f 16/66/18 15/67/20 28/68/18

usemtl BackColor
vt 67.5702 3.54455
vt 66.4749 2.11798
vt 82.3368 169.337
f 15/69/8 16/70/8 7/71/8

vt 65.7861 0.456513
f 16/70/8 17/72/8 7/71/8

f 17/72/8 18/34/8 7/71/8

vt 62.6517 169.344
f 7/71/8 18/34/8 19/73/8

vt 0.0607356 192.985
f 19/73/8 18/34/8 20/74/8

vt 0.0271445 86.2925
f 20/74/8 18/34/8 21/75/8

f 21/75/8 18/34/8 22/33/8

usemtl _Color_C03_1
vt 86.2925 1.36424e-012
f 25/38/9 22/35/9 21/76/9

usemtl _7
vt 9.11287 2.49267
f 25/77/10 22/41/10 24/40/10

vt 8.22812 1.75321
f 21/78/10 22/41/10 25/77/10

usemtl _Color_C03_1
vt 192.985 8.52651e-013
f 25/38/9 21/76/9 20/79/9

usemtl _7
vt 9.11287 1.75321
f 20/80/10 21/78/10 25/77/10

usemtl _Color_C03_1
vt -2.37827e-005 9.18119e-013
vn -0.00031484 3.39234e-016 1
v 7.25242 12.1354 -27.9105
vt 62.5984 141.732
vt -2.37827e-005 141.732
f 20/81/21 30/82/21 25/83/21

v 7.25242 8.53543 -27.9105
vt 62.5984 1.22311e-013
f 30/82/21 20/81/21 31/84/21

usemtl _7
vt 2.36488 1.75321
vn 0.00031484 -3.39234e-016 -1
vt 1.84578 1.75321
vt 2.36488 2.49267
f 31/85/22 20/86/22 30/87/22

usemtl _Tile_Ceramic_Natural_7
vt 16.0984 23.0241
f 31/88/7 20/28/7 19/27/7

usemtl BackColor
vt 62.6592 192.966
f 19/73/8 20/74/8 31/89/8

usemtl _Color_C03_1
vt -169.363 -2.50932e-013
vn -1 -4.0086e-015 -0.00031484
vt -192.985 141.732
vt -192.985 -1.94089e-013
f 19/90/23 30/91/23 31/92/23

v 7.25223 12.1354 -27.3105
vt -169.363 141.732
f 30/91/23 19/90/23 32/93/23

usemtl _7
vt -8.91699 2.49267
vn 1 4.0086e-015 0.00031484
vt -8.91699 1.75321
vt -9.11287 2.49267
f 32/94/24 19/95/24 30/96/24

usemtl _Color_C03_1
vt 62.5984 -1.08662e-012
vn -0.00031484 -6.41592e-015 1
v 7.75223 12.1354 -27.3103
vt 82.2834 141.732
f 19/97/25 33/98/25 32/82/25

vt 82.2834 -1.08662e-012
f 33/98/25 19/97/25 7/99/25

usemtl _7
vt 2.52812 1.75321
vn 0.00031484 6.41592e-015 -1
vt 2.52812 2.49267
f 7/100/26 19/85/26 33/101/26

f 32/87/26 33/101/26 19/85/26

usemtl _Color_C03_1
v 7.75242 8.53543 -27.9103
vt 192.985 1.68872e-012
vn 1 -6.01593e-015 0.00031484
vt 169.363 141.732
vt 169.363 4.95011e-013
f 34/102/27 33/103/27 7/104/27

v 7.75242 12.1354 -27.9103
f 33/103/27 34/102/27 35/38/27

usemtl _7
vt 8.91699 1.75321
vn -1 6.01593e-015 -0.00031484
vt 8.91699 2.49267
f 7/105/28 33/106/28 34/80/28

f 35/77/28 34/80/28 33/106/28

usemtl _Color_C03_1
vt 82.2834 1.25918e-012
v 11.677 12.1354 -27.9091
vt 236.795 141.732
f 34/107/21 36/108/21 35/98/21

v 11.677 8.53543 -27.9091
vt 236.795 6.54673e-014
f 36/108/21 34/107/21 37/109/21

usemtl _7
vt 3.80941 1.75321
vt 3.80941 2.49267
f 37/110/22 34/100/22 36/111/22

usemtl _Tile_Ceramic_Natural_7
vt 19.2454 23.0231
vt 16.4541 23.024
v 11.6768 8.53543 -27.3091
vt 19.2452 22.5963
f 37/112/7 34/113/7 38/114/7

usemtl BackColor
vt 236.848 169.289
vt 82.3442 192.959
vt 236.855 192.911
f 38/115/8 34/116/8 37/117/8

usemtl _Tile_Ceramic_Natural_7
f 34/113/7 5/14/7 38/114/7

f 7/12/7 5/14/7 34/113/7

usemtl BackColor
vt 239.929 -4.13932e-027
vt 79.1488 0.0506201
f 5/118/8 3/119/8 7/71/8

vt 79.0961 0.452322
f 3/119/8 1/120/8 7/71/8

vt 78.4083 2.11422
f 1/120/8 8/121/8 7/71/8

usemtl _Color_C03_1
vt -28.0292 8.48291e-013
vn 0.866183 7.86111e-018 -0.499727
vt -29.8278 141.732
vt -29.8278 8.48291e-013
f 8/122/29 4/123/1 1/124/1

v 7.65245 12.1354 -23.0628
vt -28.0292 141.732
f 4/123/1 8/122/29 39/125/29

usemtl _7
vt 5.98698 1.75321
vt 5.98698 2.49267
vt 6.0019 1.75321
vn -0.866183 -7.86111e-018 0.499727
f 1/126/4 4/127/4 8/128/30

vt 7.12566 2.49267
f 4/129/4 1/7/4 2/6/3

vt 6.0019 2.49267
f 39/130/30 8/128/30 4/127/4

usemtl _Color_C03_1
vt -44.236 8.55441e-013
vn 0.707329 -9.49645e-017 -0.706884
vt -46.0346 141.732
vt -46.0346 8.55441e-013
f 9/131/31 39/132/29 8/133/29

v 7.62465 12.1354 -23.0991
vt -44.236 141.732
f 39/132/29 9/131/31 40/134/31

usemtl _7
vt 4.45471 1.75321
vt 4.45471 2.49267
vt 4.46963 1.75321
vn -0.707329 9.49645e-017 0.706884
f 8/135/30 39/136/30 9/137/32

vt 4.46963 2.49267
f 40/138/32 9/137/32 39/136/30

usemtl _Color_C03_1
vt -59.1656 8.59855e-013
v 7.58842 12.1354 -23.1269
vt -57.367 141.732
vn 0.500273 -1.91318e-016 -0.865868
vt -59.1656 141.732
f 9/139/31 41/140/33 40/141/31

vt -57.367 8.59855e-013
f 41/140/33 9/139/31 10/142/33

usemtl _7
vt 2.63327 1.75321
vn -0.500273 1.91318e-016 0.865868
vt 2.61835 1.75321
vt 2.63327 2.49267
f 10/143/34 9/144/32 41/145/34

usemtl BackColor
vt 77.3138 3.54148
vt 75.8873 4.63684
f 9/146/8 10/147/8 7/71/8

vt 74.2258 5.32565
f 10/147/8 11/148/8 7/71/8

usemtl _Color_C03_1
v 7.54622 12.1354 -23.1444
vt -66.5272 141.732
vn 0.259123 -2.74634e-016 -0.965844
vt -68.3258 8.60487e-013
vt -66.5272 8.60487e-013
f 42/149/35 10/150/33 11/151/35

vt -68.3258 141.732
f 10/150/33 42/149/35 41/152/33

usemtl _7
vt 0.617964 1.75321
vn -0.259123 2.74634e-016 0.965844
vt 0.603049 1.75321
vt 0.617964 2.49267
f 11/153/36 10/154/34 42/155/36

vt 0.603049 2.49267
f 41/156/34 42/155/36 10/154/34

usemtl _Color_C03_1
vt -72.8909 8.57292e-013
v 7.50093 12.1354 -23.1504
vt -71.0923 141.732
vt -72.8909 141.732
f 11/157/35 43/158/22 42/159/35

vt -71.0923 8.57292e-013
f 43/158/22 11/157/35 12/160/22

usemtl _7
vt -1.43895 1.75321
vt -1.45386 1.75321
vt -1.43895 2.49267
f 12/161/21 11/162/36 43/163/21

usemtl BackColor
vt 72.4427 5.56098
f 11/148/8 12/164/8 7/71/8

vt 70.6594 5.32678
f 12/164/8 13/165/8 7/71/8

usemtl _Color_C03_1
v 7.45563 12.1354 -23.1444
vt -70.7514 141.732
vn -0.258515 -3.80716e-016 -0.966007
vt -72.55 8.51228e-013
vt -70.7514 8.51228e-013
f 44/166/37 12/167/22 13/168/37

vt -72.55 141.732
f 12/167/22 44/166/37 43/169/22

usemtl _7
vt -3.39728 1.75321
vn 0.258515 3.80716e-016 0.966007
vt -3.4122 1.75321
vt -3.39728 2.49267
f 13/170/38 12/171/21 44/172/38

vt -3.4122 2.49267
f 43/173/21 44/172/38 12/171/21

usemtl _Color_C03_1
vt -67.3262 8.43993e-013
v 7.41342 12.1354 -23.127
vt -65.5276 141.732
vn -0.499727 -3.96253e-016 -0.866183
vt -67.3262 141.732
f 13/174/37 45/175/39 44/176/37

vt -65.5276 8.43993e-013
f 45/175/39 13/174/37 14/177/39

usemtl _7
vt -5.1236 1.75321
vn 0.499727 3.96253e-016 0.866183
vt -5.13851 1.75321
vt -5.1236 2.49267
f 14/178/40 13/179/38 45/180/40

usemtl BackColor
vt 68.9975 4.63901
f 13/165/8 14/181/8 7/71/8

f 14/181/8 15/69/8 7/71/8

usemtl _Color_C03_1
vt -55.7769 141.732
vt -57.5755 8.37564e-013
vt -55.7769 8.37564e-013
f 29/182/19 14/183/39 15/184/19

vt -57.5755 141.732
f 14/183/39 29/182/19 45/185/39

usemtl _7
vt -6.50023 1.75321
vt -6.51515 1.75321
vt -6.50023 2.49267
f 15/186/20 14/187/40 29/188/20

vt -6.51515 2.49267
f 45/189/40 29/188/20 14/187/40

vt -7.4483 2.49267
f 29/190/20 28/68/18 15/67/20

vt -5.13851 2.49267
f 44/191/38 45/180/40 13/179/38

vt -1.45386 2.49267
f 42/192/36 43/163/21 11/162/36

usemtl BackColor
f 8/121/8 9/146/8 7/71/8

usemtl _7
vt 2.61835 2.49267
f 40/193/32 41/145/34 9/144/32

usemtl BackColor
f 34/116/8 5/118/8 7/71/8

f 38/115/8 5/118/8 34/116/8

usemtl _Tile_Ceramic_Natural_7
v 11.869 8.53543 -27.309
vt 19.3819 22.5963
f 38/114/7 5/14/7 46/194/7

usemtl BackColor
vt 244.415 169.286
f 46/195/8 5/118/8 38/115/8

usemtl _Tile_Ceramic_Natural_7
v 11.7564 8.53543 -23.0193
vt 19.3019 19.5453
f 46/194/7 5/14/7 47/196/7

usemtl BackColor
vt 239.982 0.401669
f 47/197/8 5/118/8 46/195/8

usemtl _Color_C03_1
vt -31.392 141.732
vn -0.991404 -2.66725e-015 -0.130838
vt -31.7971 7.29791e-013
vn -0.965844 -1.50609e-015 -0.259123
vt -31.392 3.31887e-013
f 6/198/41 47/199/42 5/200/41

v 11.7564 12.1354 -23.0193
vt -31.7971 141.732
f 47/199/42 6/198/41 48/201/42

usemtl _7
vt -7.94951 1.75321
vn 0.991404 2.66725e-015 0.130838
vt -7.95287 1.75321
vn 0.965844 1.50609e-015 0.259123
vt -7.94951 2.49267
f 5/202/43 47/203/44 6/204/43

vt -7.95287 2.49267
f 48/205/44 6/204/43 47/203/44

usemtl _Color_C03_1
v 11.7739 12.1354 -23.0615
vt -94.0767 141.732
vt -92.2781 1.29354e-012
vt -92.2781 141.732
f 49/206/17 47/207/42 48/208/42

v 11.7739 8.53543 -23.0615
vt -94.0767 1.29354e-012
f 47/207/42 49/206/17 50/209/17

usemtl _7
vt -8.41225 2.49267
vt -8.41225 1.75321
vt -8.42717 2.49267
f 48/210/44 47/211/44 49/212/18

vt -8.42717 1.75321
f 50/213/18 49/212/18 47/211/44

usemtl _Color_C03_1
vt -148.208 141.732
v 11.8018 8.53543 -23.0978
vt -150.006 1.29425e-012
vt -148.208 1.29425e-012
f 49/214/17 51/215/19 50/216/17

v 11.8018 12.1354 -23.0978
vt -150.006 141.732
f 51/215/19 49/214/17 52/217/19

usemtl _7
vt -8.31276 1.75321
vt -8.32767 1.75321
vt -8.31276 2.49267
f 50/218/18 51/219/20 49/220/18

usemtl _Tile_Ceramic_Natural_7
vt 19.3143 19.5753
vt 19.3341 19.6011
f 46/194/7 50/221/7 51/222/7

f 46/194/7 47/196/7 50/221/7

usemtl BackColor
vt 240.671 2.06313
f 50/223/8 47/197/8 46/195/8

vt 241.767 3.4897
f 51/224/8 50/223/8 46/195/8

usemtl _Tile_Ceramic_Natural_7
v 11.838 8.53543 -23.1256
vt 19.3599 19.6209
f 46/194/7 51/222/7 53/225/7

usemtl BackColor
vt 243.194 4.58417
f 53/226/8 51/224/8 46/195/8

usemtl _Color_C03_1
vt -193.976 141.732
vt -195.775 1.30738e-012
vn -0.499727 -2.63095e-016 -0.866183
vt -193.976 1.30738e-012
f 52/227/19 53/228/45 51/229/19

v 11.838 12.1354 -23.1256
vt -195.775 141.732
f 53/228/45 52/227/19 54/230/45

usemtl _7
vt -7.64625 1.75321
vt -7.66117 1.75321
vn 0.499727 2.63095e-016 0.866183
vt -7.64625 2.49267
f 51/231/20 53/232/46 52/233/20

vt -7.66117 2.49267
f 54/234/46 52/233/20 53/232/46

usemtl _Color_C03_1
v 11.8677 12.1354 -23.1379
vt -227.729 141.732
vn -0.382393 -1.278e-016 -0.924
vt -226.464 1.3529e-012
vt -226.464 141.732
f 55/235/47 53/236/45 54/237/45

v 11.8677 8.53543 -23.1379
vt -227.729 5.57091e-013
f 53/236/45 55/235/47 56/238/47

usemtl _7
vt -6.46866 1.75321
vn 0.382393 1.278e-016 0.924
vt -6.46866 2.49267
vt -6.45816 1.75321
f 56/239/48 55/240/48 53/241/46

usemtl _Color_C03_1
vt -5.1449 141.732
vn -1 7.37356e-015 -0.00031484
v 11.8679 8.53543 -23.9351
vt -36.5343 2.02919e-012
vt -5.1449 2.37025e-012
f 55/242/49 57/243/49 56/244/49

v 11.8679 11.3814 -23.9351
vt -36.5343 112.047
f 57/243/49 55/242/49 58/245/49

usemtl BackColor
vn 1 -7.37356e-015 0.00031484
f 56/244/50 57/243/50 55/242/50

usemtl _Tile_Ceramic_Natural_7
v 11.8683 8.53543 -25.0801
vt 19.3814 21.011
vt 19.381 19.6296
vt 19.3812 20.1967
f 59/246/7 56/247/7 57/248/7

f 59/246/7 53/225/7 56/247/7

f 46/194/7 53/225/7 59/246/7

usemtl BackColor
vt 244.387 81.5361
f 59/249/8 53/226/8 46/195/8

vt 244.363 5.06796
f 56/250/8 53/226/8 59/249/8

vt 244.373 36.4573
f 57/251/8 56/250/8 59/249/8

usemtl _Color_C03_1
v 11.8683 11.3814 -25.0801
vt -81.613 112.047
vt -169.363 1.85866e-012
vt -81.613 1.97234e-012
f 60/252/49 46/253/49 59/254/49

v 11.869 12.1354 -27.309
f 46/253/49 60/252/49 61/93/49

usemtl BackColor
f 59/254/50 46/253/50 60/252/50

f 61/93/50 60/252/50 46/253/50

usemtl _Color_C03_1
f 58/245/49 61/93/49 60/252/49

f 58/245/49 55/242/49 61/93/49

usemtl BackColor
f 58/245/50 55/242/50 57/243/50

f 61/93/50 55/242/50 58/245/50

f 60/252/50 61/93/50 58/245/50

usemtl _Color_C03_1
vt 244.361 141.732
vn -0.00031484 8.01303e-016 1
vt 236.795 2.49398e-013
vt 244.361 1.92555e-013
f 61/255/51 38/256/51 46/257/51

v 11.6768 12.1354 -27.3091
f 38/256/51 61/255/51 62/108/51

usemtl _7
vt 3.87216 1.75321
vn 0.00031484 -8.01303e-016 -1
vt 3.87216 2.49267
f 46/258/52 38/110/52 61/259/52

f 62/111/52 61/259/52 38/110/52

usemtl _Color_C03_1
vn -1 -2.00733e-015 -0.00031484
vt -192.985 -4.75326e-013
vt -169.363 -3.61639e-013
f 62/93/53 37/260/53 38/261/53

f 37/260/53 62/93/53 36/91/53

usemtl _7
vn 1 2.00733e-015 0.00031484
vt -9.11287 1.75321
f 38/95/54 37/262/54 62/94/54

f 36/96/54 62/94/54 37/262/54

vt -6.45816 2.49267
f 54/263/46 53/241/46 55/240/48

vt -8.32767 2.49267
f 52/264/20 49/220/18 51/219/20

usemtl BackColor
f 6/11/6 2/8/6 5/9/6

usemtl _7
f 35/101/22 36/111/22 34/100/22

f 31/262/24 30/96/24 19/95/24

vt 1.84578 2.49267
f 25/265/22 30/87/22 20/86/22

usemtl BackColor
f 24/44/12 23/43/12 26/42/12

g Mesh2 COM021 Model

l 2 4

l 3 2

l 3 1

l 3 5

l 47 5

l 50 47

l 51 50

l 53 51

l 56 53

l 56 57

l 56 55

l 55 61

l 55 54

l 54 52

l 52 49

l 49 48

l 48 6

l 2 6

l 5 6

l 46 61

l 59 46

l 57 59

l 58 57

l 60 58

l 59 60

l 46 38

l 38 37

l 38 62

l 62 36

l 62 61

l 35 36

l 33 35

l 32 33

l 32 30

l 19 32

l 7 19

l 7 34

l 7 33

l 34 37

l 34 35

l 37 36

l 19 31

l 20 31

l 20 21

l 20 25

l 24 25

l 23 24

l 23 18

l 22 23

l 21 22

l 18 26

l 17 18

l 16 17

l 15 16

l 14 15

l 13 14

l 12 13

l 11 12

l 10 11

l 9 10

l 8 9

l 1 8

l 24 26

l 27 26

l 28 27

l 29 28

l 45 29

l 44 45

l 43 44

l 42 43

l 41 42

l 40 41

l 39 40

l 4 39

l 25 30

l 31 30

