# Alias OBJ Model File
# Exported from SketchUp, (c) 2000-2012 Trimble Navigation Limited
# File units = meters

mtllib DES026.mtl

g Mesh1 DES026 Model

usemtl FrontColor
v 5.69101 8.53543 -118.706
vt -0.070653 232.357
vn -1.70863e-015 -1 7.38214e-015
v 7.27922 8.53543 -113.005
vt -62.5984 7.92756
v 5.68922 8.53543 -113.006
vt -9.09495e-012 7.94727
f 1/1/1 2/2/1 3/3/1

v 7.27934 8.53543 -113.405
vt -62.6034 23.6756
f 2/2/1 1/1/1 4/4/1

usemtl _Tile_Ceramic_Natural_7
vt 15.0119 -32.5282
vn 1.70863e-015 1 -7.38214e-015
vt 16.1428 -32.5275
vt 15.0145 -36.5822
f 3/5/2 2/6/2 1/7/2

usemtl _Color_C03_1
v 5.68922 12.1354 -113.006
vt 0.00250212 141.732
vn 0.00031484 9.9718e-018 -1
vt -62.5959 2.04628e-012
vt 0.00250212 5.67642e-014
f 5/8/3 2/9/3 3/10/3

v 7.27922 12.1354 -113.005
vt -62.5959 141.732
f 2/9/3 5/8/3 6/11/3

usemtl _7
vt -1.84578 1.75321
vn -0.00031484 -9.9718e-018 1
vt -2.36488 1.75321
vt -1.84578 2.49267
f 3/12/4 2/13/4 5/14/4

vt -2.36488 2.49267
f 6/15/4 5/14/4 2/13/4

usemtl _Color_C03_1
v 7.27934 12.1354 -113.405
vt -23.6953 141.732
vn -1 -2.40638e-015 -0.00031484
vt -7.94727 1.89573e-012
vt -7.94727 141.732
f 7/16/5 2/17/5 6/18/5

vt -23.6953 1.89573e-012
f 2/17/5 7/16/5 4/19/5

usemtl _7
vt -36.8945 2.49267
vn 1 2.40638e-015 0.00031484
vt -36.8945 1.75321
vt -37.0251 2.49267
f 6/20/6 2/21/6 7/22/6

vt -37.0251 1.75321
f 4/23/6 7/22/6 2/21/6

usemtl _Color_C03_1
vn 0.00031484 9.46024e-019 -1
v 7.77934 8.53543 -113.405
vt -82.281 2.04634e-012
vt -62.5959 2.04634e-012
f 7/11/7 8/24/7 4/25/7

v 7.77934 12.1354 -113.405
vt -82.281 141.732
f 8/24/7 7/11/7 9/26/7

usemtl _7
vn -0.00031484 -9.46024e-019 1
vt -2.52812 1.75321
f 4/13/8 8/27/8 7/15/8

usemtl FrontColor
v 7.35572 8.53543 -117.79
vt -65.6105 196.312
vt -82.2884 23.6694
f 10/28/1 8/29/1 4/4/1

v 7.36167 8.53543 -117.745
vt -65.8447 194.529
f 8/29/1 10/28/1 11/30/1

usemtl _Tile_Ceramic_Natural_7
vt 16.143 -32.8119
vt 16.4986 -32.8117
vt 16.1983 -35.9307
f 4/31/2 8/32/2 10/33/2

vt 16.2025 -35.8985
f 11/34/2 10/33/2 8/32/2

usemtl _Color_C03_1
vt -184.299 -3.60371e-014
vn -0.966007 -3.87477e-016 0.258515
v 7.35572 12.1354 -117.79
vt -186.098 141.732
vn -1 -4.01068e-016 -0.00031484
vt -186.098 -3.60371e-014
f 11/35/9 12/36/10 10/37/10

v 7.36167 12.1354 -117.745
vt -184.299 141.732
f 12/36/10 11/35/9 13/38/9

usemtl _7
vt -37.8009 2.49267
vn 0.966007 3.87477e-016 -0.258515
vt -37.8009 1.75321
vt -37.8158 2.49267
vn 1 4.01068e-016 0.00031484
f 13/39/11 11/40/11 12/41/12

usemtl _Color_C03_1
v 7.37914 8.53543 -117.703
vt -152.768 -5.01188e-014
vn -0.866183 -3.47436e-016 0.499727
vt -154.566 141.732
vt -154.566 -5.01188e-014
f 14/42/13 13/43/9 11/44/9

v 7.37914 12.1354 -117.703
vt -152.768 141.732
f 13/43/9 14/42/13 15/45/13

usemtl _7
vt -34.5856 2.49267
vn 0.866183 3.47436e-016 -0.499727
vt -34.5856 1.75321
vt -34.6005 2.49267
f 15/46/14 14/47/14 13/48/11

usemtl _Color_C03_1
v 7.40694 8.53543 -117.667
vt -110.764 -5.41615e-014
vn -0.707329 -2.83718e-016 0.706884
vt -112.563 141.732
vt -112.563 -5.41615e-014
f 16/49/15 15/50/13 14/51/13

v 7.40694 12.1354 -117.667
vt -110.764 141.732
f 15/50/13 16/49/15 17/52/15

usemtl _7
vt -29.0129 2.49267
vn 0.707329 2.83718e-016 -0.706884
vt -29.0129 1.75321
vt -29.0278 2.49267
f 17/53/16 16/54/16 15/55/14

usemtl _Color_C03_1
vt -62.95 -4.71533e-014
v 7.44317 12.1354 -117.639
vt -61.1514 141.732
vn -0.500273 -2.00665e-016 0.865868
vt -62.95 141.732
f 16/56/15 18/57/17 17/58/15

v 7.44317 8.53543 -117.639
vt -61.1514 -4.71533e-014
f 18/57/17 16/56/15 19/59/17

usemtl _7
vt -21.4625 1.75321
vn 0.500273 2.00665e-016 -0.865868
vt -21.4774 1.75321
vt -21.4625 2.49267
f 19/60/18 16/61/16 18/62/18

usemtl FrontColor
vt -67.6269 191.44
vt -69.0535 190.345
f 8/29/1 16/63/1 19/64/1

vt -66.5325 192.867
f 8/29/1 14/65/1 16/63/1

f 8/29/1 11/30/1 14/65/1

usemtl _Tile_Ceramic_Natural_7
vt 16.2149 -35.8684
f 14/66/2 11/34/2 8/32/2

usemtl _7
vt -34.6005 1.75321
f 11/67/11 13/48/11 14/47/14

usemtl _Tile_Ceramic_Natural_7
vt 16.2347 -35.8427
f 16/68/2 14/66/2 8/32/2

usemtl _7
vt -29.0278 1.75321
f 14/69/14 15/55/14 16/54/16

usemtl _Tile_Ceramic_Natural_7
vt 16.2605 -35.8229
f 19/70/2 16/68/2 8/32/2

usemtl FrontColor
v 7.48538 8.53543 -117.621
vt -70.715 189.656
f 8/29/1 19/64/1 20/71/1

usemtl _Tile_Ceramic_Natural_7
vt 16.2905 -35.8104
f 20/72/2 19/70/2 8/32/2

usemtl _Color_C03_1
v 7.48538 12.1354 -117.621
vt -7.30973 141.732
vn -0.259123 -1.03937e-016 0.965844
vt -9.10832 -3.10731e-014
vt -7.30973 -3.10731e-014
f 21/73/19 19/74/17 20/75/19

vt -9.10832 141.732
f 19/74/17 21/73/19 18/76/17

usemtl _7
vt -12.449 1.75321
vn 0.259123 1.03937e-016 -0.965844
vt -12.4639 1.75321
vt -12.449 2.49267
f 20/77/20 19/78/18 21/79/20

vt -12.4639 2.49267
f 18/80/18 21/79/20 19/78/18

usemtl _Color_C03_1
vt 45.2928 -1.03533e-014
v 7.53067 12.1354 -117.615
vt 47.0914 141.732
vn -0.00031484 -1.26286e-019 1
vt 45.2928 141.732
f 20/81/19 22/82/21 21/83/19

v 7.53067 8.53543 -117.615
vt 47.0914 -1.03533e-014
f 22/82/21 20/81/19 23/84/21

usemtl _7
vt -2.58657 1.75321
vn 0.00031484 1.26286e-019 -1
vt -2.60149 1.75321
vt -2.58657 2.49267
f 23/85/22 20/86/20 22/87/22

usemtl FrontColor
vt -72.4981 189.421
f 8/29/1 20/71/1 23/88/1

usemtl _Tile_Ceramic_Natural_7
vt 16.3227 -35.8061
f 23/89/2 20/72/2 8/32/2

usemtl FrontColor
v 7.57596 8.53543 -117.621
vt -74.2814 189.655
f 8/29/1 23/88/1 24/90/1

usemtl _Tile_Ceramic_Natural_7
vt 16.3549 -35.8104
f 24/91/2 23/89/2 8/32/2

usemtl _Color_C03_1
v 7.57596 12.1354 -117.621
vt 98.3446 141.732
vn 0.258515 1.03693e-016 0.966007
vt 96.546 9.31621e-015
vt 98.3446 9.31621e-015
f 25/92/23 23/93/21 24/94/23

vt 96.546 141.732
f 23/93/21 25/92/23 22/95/21

usemtl _7
vt 7.45263 1.75321
vn -0.258515 -1.03693e-016 -0.966007
vt 7.43772 1.75321
vt 7.45263 2.49267
f 24/96/24 23/97/22 25/98/24

vt 7.43772 2.49267
f 22/99/22 25/98/24 23/97/22

usemtl _Color_C03_1
vt 141.159 2.25221e-014
v 7.61817 12.1354 -117.639
vt 142.957 141.732
vn 0.499727 2.00447e-016 0.866183
vt 141.159 141.732
f 24/100/23 26/101/25 25/102/23

v 7.61817 8.53543 -117.639
vt 142.957 2.25221e-014
f 26/101/25 24/100/23 27/103/25

usemtl _7
vt 16.9845 1.75321
vn -0.499727 -2.00447e-016 -0.866183
vt 16.9695 1.75321
vt 16.9845 2.49267
f 27/104/26 24/105/24 26/106/26

usemtl FrontColor
vt -75.9433 190.342
f 8/29/1 24/90/1 27/107/1

usemtl _Tile_Ceramic_Natural_7
vt 16.3849 -35.8228
f 27/108/2 24/91/2 8/32/2

usemtl FrontColor
v 7.65443 8.53543 -117.667
vt -77.3705 191.437
f 8/29/1 27/107/1 28/109/1

usemtl _Tile_Ceramic_Natural_7
vt 16.4107 -35.8425
f 28/110/2 27/108/2 8/32/2

usemtl _Color_C03_1
v 7.65443 12.1354 -117.667
vt 177.889 141.732
vn 0.706884 2.8354e-016 0.707329
vt 176.09 2.55878e-014
vt 177.889 2.55878e-014
f 29/111/27 27/112/25 28/113/27

vt 176.09 141.732
f 27/112/25 29/111/27 26/114/25

usemtl _7
vt 25.3593 1.75321
vn -0.706884 -2.8354e-016 -0.707329
vt 25.3444 1.75321
vt 25.3593 2.49267
f 28/115/28 27/116/26 29/117/28

vt 25.3444 2.49267
f 26/118/26 29/117/28 27/116/26

usemtl _Color_C03_1
v 7.67265 8.53543 -117.69
vt 200.138 1.7568e-014
vn 0.793162 3.18147e-016 0.609011
vt 198.96 141.732
vt 198.96 1.7568e-014
f 30/119/29 29/120/27 28/121/27

v 7.67265 12.1354 -117.69
vt 200.138 141.732
f 29/120/27 30/119/29 31/122/29

usemtl _7
vt 31.9916 1.75321
vt 31.9916 2.49267
vt 32.0014 1.75321
vn -0.793162 -3.18147e-016 -0.609011
f 28/123/28 29/124/28 30/125/30

vt 32.0014 2.49267
f 31/126/30 30/125/30 29/124/28

usemtl _Color_C03_1
vt 78.0275 -2.46826e-017
vn -0.00031484 -1.2829e-019 1
v 8.75289 9.43543 -117.69
vt 120.556 35.4331
vt 78.0275 141.732
f 30/127/31 32/128/31 31/129/31

v 11.6007 8.53543 -117.689
vt 232.675 5.68187e-014
f 32/128/31 30/127/31 33/130/31

usemtl _7
vt 2.49285 2.49267
vn 0.00031484 1.2829e-019 -1
vt 2.84552 1.93808
vt 2.49285 1.75321
f 31/131/32 32/132/32 30/133/32

usemtl _Color_C03_1
v 8.75289 10.4354 -117.69
vt 120.556 74.8031
f 31/129/31 32/128/31 34/134/31

usemtl _7
vt 2.84552 2.14348
f 34/135/32 32/132/32 31/131/32

usemtl _Color_C03_1
v 11.6007 12.1354 -117.689
vt 232.675 141.732
f 31/129/31 34/134/31 35/136/31

usemtl _7
vt 3.77526 2.49267
f 35/137/32 34/135/32 31/131/32

usemtl _Color_C03_1
v 10.7529 10.4354 -117.689
vt 199.297 74.8031
f 36/138/31 35/136/31 34/134/31

v 10.7529 9.43543 -117.689
vt 199.297 35.4331
f 37/139/31 35/136/31 36/138/31

f 37/139/31 33/130/31 35/136/31

f 33/130/31 37/139/31 32/128/31

usemtl _7
vt 3.49848 1.93808
vt 3.77526 1.75321
f 32/132/32 37/140/32 33/141/32

f 35/137/32 33/141/32 37/140/32

usemtl _Color_C03_1
v 11.6005 8.53543 -117.193
vt -172.88 -2.83807e-013
vn -1 -1.70837e-015 -0.00031484
vt -192.396 141.732
vt -192.396 -3.40651e-013
f 38/142/33 35/143/33 33/144/33

v 11.6005 11.3614 -117.193
vt -172.88 111.26
f 39/145/33 35/143/33 38/142/33

v 11.6002 11.3614 -116.216
vt -134.416 111.26
f 40/146/33 35/143/33 39/145/33

v 11.5993 12.1354 -113.404
f 40/146/33 41/16/33 35/143/33

v 11.5993 8.53543 -113.404
vt -23.6953 5.12001e-013
f 42/147/33 41/16/33 40/146/33

v 11.5992 8.53543 -112.804
vt -0.0732552 5.12001e-013
f 43/148/33 41/16/33 42/147/33

v 11.5992 12.1354 -112.804
vt -0.0732552 141.732
f 41/16/33 43/148/33 44/149/33

usemtl _7
vt -36.8292 2.49267
vn 1 1.70837e-015 0.00031484
vt -36.8292 1.75321
f 44/150/34 43/151/34 41/22/34

usemtl _Color_C03_1
v 7.77915 8.53543 -112.805
vt -82.281 1.98952e-012
vn 0.00031484 1.09131e-019 -1
vt -232.675 141.732
vt -232.675 9.09495e-013
f 45/152/35 44/153/35 43/154/35

v 7.77915 12.1354 -112.805
f 44/153/35 45/152/35 46/26/35

usemtl _7
vt -3.77526 1.75321
vn -0.00031484 -1.09131e-019 1
vt -3.77526 2.49267
f 43/155/36 44/156/36 45/27/36

vt -2.52812 2.49267
f 46/157/36 45/27/36 44/156/36

usemtl _Color_C03_1
vt 23.6953 2.01336e-012
vn 1 4.01062e-016 0.00031484
vt 0.0732552 141.732
vt 0.0732552 1.95652e-012
f 8/158/37 46/159/37 45/160/37

vt 23.6953 141.732
f 46/159/37 8/158/37 9/161/37

usemtl _7
vt 36.8292 1.75321
vn -1 -4.01062e-016 -0.00031484
vt 36.8292 2.49267
vt 37.0251 1.75321
f 45/162/38 46/163/38 8/164/38

vt 37.0251 2.49267
f 9/165/38 8/164/38 46/163/38

f 9/157/8 7/15/8 8/27/8

usemtl FrontColor
vt -232.675 -9.64883e-027
vt -82.281 0.0473499
f 43/166/1 45/167/1 8/29/1

usemtl _Tile_Ceramic_Natural_7
vt 16.4983 -32.385
vt 19.2153 -32.3833
f 8/32/2 45/168/2 43/169/2

usemtl FrontColor
vt -232.735 192.323
f 8/29/1 33/170/1 43/166/1

vt -78.0881 192.372
f 8/29/1 30/171/1 33/170/1

f 8/29/1 28/109/1 30/171/1

usemtl _Tile_Ceramic_Natural_7
vt 16.4237 -35.8594
f 30/172/2 28/110/2 8/32/2

vt 19.2175 -35.8577
f 33/173/2 30/172/2 8/32/2

usemtl _7
f 33/141/32 30/133/32 32/132/32

usemtl _Tile_Ceramic_Natural_7
f 43/169/2 33/173/2 8/32/2

usemtl FrontColor
vt -232.682 23.622
f 43/166/1 33/170/1 42/174/1

usemtl _Tile_Ceramic_Natural_7
vt 19.2155 -32.81
f 42/175/2 33/173/2 43/169/2

usemtl FrontColor
v 11.6002 8.53543 -116.216
vt -232.717 134.343
f 42/174/1 33/170/1 47/176/1

usemtl _Tile_Ceramic_Natural_7
vt 19.2168 -34.8102
f 47/177/2 33/173/2 42/175/2

usemtl FrontColor
vt -232.729 172.807
f 47/176/1 33/170/1 38/178/1

usemtl _Tile_Ceramic_Natural_7
vt 19.2172 -35.5051
f 38/179/2 33/173/2 47/177/2

usemtl _7
vt -38.424 1.75321
vt -38.424 2.49267
vt -38.2622 1.75321
f 33/180/34 35/181/34 38/182/34

vt -38.2622 2.33369
f 38/182/34 35/181/34 39/183/34

vt -37.9432 2.33369
f 39/183/34 35/181/34 40/184/34

f 35/181/34 41/22/34 40/184/34

f 40/184/34 41/22/34 42/23/34

f 42/23/34 41/22/34 43/151/34

usemtl _Color_C03_1
vt -134.416 -2.83807e-013
f 47/185/33 42/147/33 40/146/33

usemtl _7
vt -37.9432 1.75321
f 40/184/34 42/23/34 47/186/34

vt 3.49848 2.14348
f 36/187/32 35/137/32 37/140/32

f 34/135/32 35/137/32 36/187/32

vt 16.9695 2.49267
f 25/188/24 26/106/26 24/105/24

vt -2.60149 2.49267
f 21/189/20 22/87/22 20/86/20

vt -21.4774 2.49267
f 17/190/16 18/62/18 16/61/16

vt -37.8158 1.75321
f 10/191/12 12/41/12 11/40/11

usemtl _Color_C03_1
v 7.3617 12.1354 -117.836
vt -205.008 141.732
vn -0.965844 -3.87368e-016 -0.259123
vt -203.209 -1.56491e-014
vt -203.209 141.732
f 48/192/39 10/193/10 12/194/10

v 7.3617 8.53543 -117.836
vt -205.008 -1.56491e-014
f 10/193/10 48/192/39 49/195/39

usemtl _7
vt -38.4395 2.49267
vt -38.4395 1.75321
vt -38.4544 2.49267
vn 0.965844 3.87368e-016 0.259123
f 12/196/12 10/197/12 48/198/40

vt -38.4544 1.75321
f 49/199/40 48/198/40 10/197/12

usemtl _Color_C03_1
v 7.37919 12.1354 -117.878
vt -210.008 141.732
vn -0.865868 -3.4731e-016 -0.500273
vt -208.21 5.57273e-015
vt -208.21 141.732
f 50/200/41 49/201/39 48/202/39

v 7.37919 8.53543 -117.878
vt -210.008 5.57273e-015
f 49/201/39 50/200/41 51/203/41

usemtl _7
vt -36.4581 2.49267
vt -36.4581 1.75321
vt -36.473 2.49267
vn 0.865868 3.4731e-016 0.500273
f 48/204/40 49/205/40 50/206/42

vt -36.473 1.75321
f 51/207/42 50/206/42 49/205/40

usemtl _Color_C03_1
v 7.40702 12.1354 -117.914
vt -200.759 141.732
vt -198.96 2.19144e-014
vt -198.96 141.732
f 52/208/28 51/209/41 50/210/41

v 7.40702 8.53543 -117.914
vt -200.759 2.19144e-014
f 51/209/41 52/208/28 53/211/28

usemtl _7
vt -31.9916 2.49267
vt -31.9916 1.75321
vt -32.0065 2.49267
f 50/212/42 51/213/42 52/214/27

vt -32.0065 1.75321
f 53/215/27 52/214/27 51/213/42

usemtl _Color_C03_1
vt -176.09 141.732
v 7.44327 8.53543 -117.942
vt -177.889 2.89223e-014
vn -0.499727 -2.00364e-016 -0.866183
vt -176.09 2.89223e-014
f 52/216/28 54/217/43 53/218/28

v 7.44327 12.1354 -117.942
vt -177.889 141.732
f 54/217/43 52/216/28 55/219/43

usemtl _7
vt -25.3444 1.75321
vt -25.3593 1.75321
vn 0.499727 2.00364e-016 0.866183
vt -25.3444 2.49267
f 53/220/27 54/221/44 52/222/27

usemtl FrontColor
vt -67.63 201.184
v 7.48101 8.53543 -118.705
vt -70.5431 232.335
vt -69.0572 202.278
f 53/223/1 56/224/1 54/225/1

vt -66.5346 199.757
f 51/226/1 56/224/1 53/223/1

vt -65.8458 198.096
f 49/227/1 56/224/1 51/226/1

f 49/227/1 1/1/1 56/224/1

f 10/28/1 1/1/1 49/227/1

f 4/4/1 1/1/1 10/28/1

usemtl _Tile_Ceramic_Natural_7
f 4/31/2 1/7/2 2/6/2

f 10/33/2 1/7/2 4/31/2

vt 16.2026 -35.9629
f 49/228/2 1/7/2 10/33/2

vt 16.2876 -36.5814
f 56/229/2 1/7/2 49/228/2

usemtl _Color_C03_1
v 7.48101 12.1354 -118.705
vt 70.4699 141.732
vn -0.00031484 5.72715e-020 1
vt -0.00250212 7.95821e-013
vt 70.4699 1.33074e-017
f 57/230/45 1/231/45 56/232/45

v 5.69101 12.1354 -118.706
vt -0.00250212 141.732
f 1/231/45 57/230/45 58/233/45

usemtl _7
vt 2.43018 1.75321
vn 0.00031484 -5.72715e-020 -1
vt 1.84578 1.75321
vt 2.43018 2.49267
f 56/234/46 1/235/46 57/236/46

vt 1.84578 2.49267
f 58/237/46 57/236/46 1/235/46

usemtl _Color_C03_1
vt 7.94727 141.732
vn 1 3.16839e-014 0.00031484
vt 232.357 7.95887e-013
vt 232.357 141.732
f 5/238/47 1/239/47 58/240/47

vt 7.94727 5.69227e-014
f 1/239/47 5/238/47 3/241/47

usemtl _7
vt 36.8945 1.75321
vn -1 -3.16839e-014 -0.00031484
vt 36.8945 2.49267
vt 38.7554 1.75321
f 3/242/48 5/243/48 1/244/48

vt 38.7554 2.49267
f 58/245/48 1/244/48 5/243/48

v 7.48077 12.1354 -117.957
vt 38.5112 2.49267
f 59/246/37 56/244/37 57/245/37

v 7.48077 8.53543 -117.957
vt 38.5112 1.75321
f 56/244/37 59/246/37 60/247/37

usemtl _Color_C03_1
vt 202.911 -2.82628e-014
vt 202.911 141.732
vt 232.357 -2.82628e-014
f 60/248/38 59/249/38 56/250/38

vt -142.757 2.45913e-014
vn -0.382393 -1.53219e-016 -0.924
vt -141.159 141.732
vt -142.757 141.732
f 60/251/49 55/252/43 59/253/49

vt -141.159 2.45913e-014
f 55/252/43 60/251/49 54/254/43

usemtl _7
vt -16.9695 1.75321
vt -16.9828 1.75321
vn 0.382393 1.53219e-016 0.924
vt -16.9695 2.49267
f 54/255/44 60/256/50 55/257/44

usemtl FrontColor
vt -70.5338 202.889
f 54/225/1 56/224/1 60/258/1

usemtl _Tile_Ceramic_Natural_7
vt 16.2606 -36.0384
vt 16.2348 -36.0187
f 54/259/2 56/229/2 53/260/2

vt 16.2873 -36.0495
f 60/261/2 56/229/2 54/259/2

vt 16.215 -35.9929
f 53/260/2 56/229/2 51/262/2

f 51/262/2 56/229/2 49/228/2

usemtl _7
vt -16.9828 2.49267
f 59/263/50 55/257/44 60/256/50

vt -25.3593 2.49267
f 55/264/44 52/222/27 54/221/44

usemtl _Color_C03_1
f 57/240/38 56/250/38 59/249/38

g Mesh2 DES026 Model

l 1 56

l 1 3

l 1 58

l 58 5

l 58 57

l 56 57

l 60 56

l 60 54

l 60 59

l 59 55

l 59 57

l 55 52

l 52 50

l 50 48

l 48 12

l 12 13

l 13 15

l 15 17

l 17 18

l 18 21

l 21 22

l 22 25

l 25 26

l 26 29

l 29 31

l 30 31

l 28 30

l 27 28

l 24 27

l 23 24

l 20 23

l 19 20

l 16 19

l 14 16

l 11 14

l 10 11

l 49 10

l 51 49

l 53 51

l 54 53

l 33 30

l 38 33

l 47 38

l 42 47

l 43 42

l 43 45

l 43 44

l 44 46

l 44 41

l 41 35

l 33 35

l 35 31

l 46 9

l 45 46

l 45 8

l 8 4

l 8 9

l 9 7

l 6 7

l 5 6

l 3 5

l 3 2

l 2 4

l 2 6

l 4 7

l 40 47

l 39 40

l 38 39

g Mesh3 DES026 Model

l 32 37

l 34 32

l 36 34

l 37 36

