# Alias OBJ Model File
# Exported from SketchUp, (c) 2000-2012 Trimble Navigation Limited
# File units = meters

mtllib DES006.mtl

g Mesh1 DES006 Model

usemtl _7
v 11.7706 12.1354 -68.1087
vt -19.0765 2.49267
vn -0.924 3.70464e-016 0.382393
v 11.7881 8.53543 -68.0665
vt -19.0616 1.75321
v 11.7881 12.1354 -68.0665
vt -19.0616 2.49267
f 1/1/1 2/2/1 3/3/1

v 11.7706 8.53543 -68.1087
vt -19.0765 1.75321
f 2/2/1 1/1/1 4/4/1

vn 0.924 -3.70464e-016 -0.382393
f 3/3/2 2/2/2 1/1/2

f 4/4/2 1/1/2 2/2/2

usemtl _Color_C03_1
vt 159.489 141.732
vn 0 0 1
v 7.7196 8.53543 -68.1087
vt 2.27374e-013 2.72848e-012
vt 159.489 2.67164e-012
f 1/5/3 5/6/3 4/7/3

v 7.7196 12.1354 -68.1087
vt 0 141.732
f 5/6/3 1/5/3 6/8/3

usemtl BackColor
vn -0 -0 -1
f 4/7/4 5/6/4 1/5/4

usemtl _Tile_Ceramic_Natural_7
vt 16.4307 51.6146
vn -9.36258e-015 1 8.1728e-015
v 11.7892 8.53543 -65.1039
vt 19.3252 49.4775
vt 19.312 51.6146
f 5/9/5 7/10/5 4/11/5

v 7.7196 8.53543 -65.1039
vt 16.4307 49.4775
f 7/10/5 5/9/5 8/12/5

usemtl BackColor
vt 2.27374e-013 -1.73983e-041
vn 9.36258e-015 -1 -8.1728e-015
vt 2.27374e-013 118.299
vt 160.222 1.23622e-026
f 8/13/6 5/14/6 7/15/6

usemtl _Color_C03_1
vt 118.299 2.72848e-012
vn 1 6.43655e-015 1.48454e-028
v 7.7196 12.1354 -65.1039
vt 3.37546e-041 -1.4635e-027
f 5/16/7 9/8/7 8/17/7

vt 118.299 141.732
f 9/8/7 5/16/7 6/18/7

usemtl BackColor
vn -1 -6.43655e-015 -1.48454e-028
f 8/17/8 9/8/8 5/16/8

usemtl _Color_C03_1
vn -3.29299e-028 1.75129e-014 -1
vt -160.222 3.0127e-012
vt -2.27374e-013 1.31126e-054
f 9/8/9 7/19/9 8/20/9

v 11.7892 12.1354 -65.1039
vt -160.222 141.732
f 7/19/9 9/8/9 10/21/9

usemtl BackColor
vn 3.29299e-028 -1.75129e-014 1
f 8/20/10 7/19/10 9/8/10

f 10/21/10 9/8/10 7/19/10

usemtl _Color_C03_1
vt -1.84226e-014 141.732
vn -1 -1.79245e-015 -1.14982e-016
v 11.7892 11.1434 -66.9494
vt -72.6547 102.677
vt -1.84226e-014 2.72551e-012
f 10/22/11 11/23/11 7/24/11

v 11.7892 12.1354 -68.065
vt -116.578 141.732
f 11/23/11 10/22/11 12/25/11

usemtl BackColor
vn 1 1.79245e-015 1.14982e-016
f 7/24/12 11/23/12 10/22/12

usemtl _Color_C03_1
v 11.7892 8.53543 -66.9494
vt -72.6547 3.2371e-012
f 13/26/11 7/24/11 11/23/11

usemtl BackColor
f 11/23/12 7/24/12 13/26/12

usemtl _Tile_Ceramic_Natural_7
v 11.7892 8.53543 -68.065
vt 19.3252 51.5835
vt 19.3252 50.79
f 14/27/5 7/10/5 13/28/5

vt 19.3244 51.5846
f 2/29/5 7/10/5 14/27/5

f 4/11/5 7/10/5 2/29/5

usemtl BackColor
vt 159.489 118.299
f 4/30/6 7/15/6 5/14/6

vt 160.177 116.637
f 2/31/6 7/15/6 4/30/6

vt 160.222 116.578
f 14/32/6 7/15/6 2/31/6

vt 160.222 72.6547
f 13/33/6 7/15/6 14/32/6

usemtl _Tile_Ceramic_Natural_7
v 11.7892 8.53543 -67.7639
vt 19.3252 51.3694
f 14/27/5 13/28/5 15/34/5

usemtl BackColor
vt 160.222 104.724
f 15/35/6 13/33/6 14/32/6

usemtl _Color_C03_1
vt -104.724 3.35079e-012
vt -116.578 2.78235e-012
f 15/36/11 12/25/11 14/37/11

v 11.7892 11.1434 -67.7639
vt -104.724 102.677
f 16/38/11 12/25/11 15/36/11

f 11/23/11 12/25/11 16/38/11

usemtl BackColor
f 12/25/12 10/22/12 11/23/12

f 16/38/12 12/25/12 11/23/12

f 15/36/12 12/25/12 16/38/12

f 14/37/12 12/25/12 15/36/12

f 6/18/8 5/16/8 9/8/8

f 6/8/4 1/5/4 5/6/4

g Mesh2 DES006 Model

l 4 2

l 4 1

l 5 4

l 5 8

l 5 6

l 6 9

l 6 1

l 1 3

l 3 12

l 10 12

l 7 10

l 7 13

l 7 8

l 8 9

l 10 9

l 13 15

l 13 11

l 11 16

l 16 15

l 15 14

l 2 14

l 14 12

g Mesh3 Model

l 5 8

