# Alias OBJ Model File
# Exported from SketchUp, (c) 2000-2012 Trimble Navigation Limited
# File units = meters

mtllib DES003.mtl

g Mesh1 DES003 Model

usemtl _7
v 7.42902 12.1354 -72.677
vt -11.3142 2.49267
vn -0.499727 -3.57152e-016 -0.866183
v 7.47123 8.53543 -72.6944
vt -11.3292 1.75321
vn -0.258515 1.2678e-016 -0.966007
v 7.42902 8.53543 -72.677
vt -11.3142 1.75321
f 1/1/1 2/2/2 3/3/1

v 7.47123 12.1354 -72.6944
vt -11.3292 2.49267
f 2/2/2 1/1/1 4/4/2

vn 0.499727 3.57152e-016 0.866183
vn 0.258515 -1.2678e-016 0.966007
f 3/3/3 2/2/4 1/1/3

usemtl _Tile_Ceramic_Natural_7
v 7.76786 8.53543 -76.9453
vt 5.43269 -6.88349
vn -1.96417e-017 1 -3.90004e-015
vt 5.67273 -3.84761
vt 5.64271 -3.86004
f 5/5/5 3/6/5 2/7/5

v 7.39277 8.53543 -72.6492
vt 5.69851 -3.82783
f 5/5/5 6/8/5 3/6/5

v 7.36494 8.53543 -72.6129
vt 5.71829 -3.80205
f 5/5/5 7/9/5 6/8/5

v 7.34745 8.53543 -72.5707
vt 5.73072 -3.77203
f 5/5/5 8/10/5 7/9/5

v 7.34147 8.53543 -72.5254
vt 5.73496 -3.73982
f 5/5/5 9/11/5 8/10/5

v 7.26786 8.53543 -76.9454
vt 5.78831 -6.88349
f 9/11/5 5/5/5 10/12/5

usemtl BackColor
vt 62.6536 175.144
vn 1.96417e-017 -1 3.90004e-015
vt 82.3386 175.137
vt 65.5515 1.12701
f 10/13/6 5/14/6 9/15/6

usemtl _Color_C03_1
v 7.76786 12.1354 -76.9453
vt 82.2835 141.732
vn -0.00031484 1.2827e-014 1
vt 62.5984 3.27e-012
vt 82.2835 2.47419e-012
f 11/16/7 10/17/7 5/18/7

v 7.26786 12.1354 -76.9454
vt 62.5984 141.732
f 10/17/7 11/16/7 12/19/7

usemtl _7
vt 2.52812 1.75321
vn 0.00031484 -1.2827e-014 -1
vt 2.36488 1.75321
vt 2.52812 2.49267
f 5/20/8 10/21/8 11/22/8

vt 2.36488 2.49267
f 12/23/8 11/22/8 10/21/8

usemtl _Color_C03_1
vt -175.163 141.732
vn -1 -1.36412e-014 -0.00031484
v 7.26805 8.53543 -77.5454
vt -198.785 1.69267e-013
vt -175.163 1.69267e-013
f 12/24/9 13/25/9 10/26/9

v 7.26805 12.1354 -77.5454
vt -198.785 141.732
f 13/25/9 12/24/9 14/27/9

usemtl _7
vt -25.1217 1.75321
vn 1 1.36412e-014 0.00031484
vt -25.3176 1.75321
vt -25.1217 2.49267
f 10/28/10 13/29/10 12/30/10

usemtl _Tile_Ceramic_Natural_7
vt 5.78831 -7.31023
v 5.67805 8.53543 -77.5459
vt 6.91917 -7.31023
f 13/31/5 15/32/5 10/12/5

usemtl _Color_C03_1
vt 62.5984 -2.52194e-013
vn -0.00031484 -6.41584e-015 1
v 5.67805 12.1354 -77.5459
vt -6.5124e-006 141.732
vt -6.5124e-006 -1.27538e-012
f 13/33/11 16/34/11 15/35/11

f 16/34/11 13/33/11 14/19/11

usemtl _7
vt 1.84578 1.75321
vn 0.00031484 6.41584e-015 -1
vt 1.84578 2.49267
f 15/36/12 16/37/12 13/21/12

usemtl _Color_C03_1
vt 198.785 141.732
vn 1 -4.11147e-016 0.00031484
v 5.67646 8.53543 -72.4973
vt 0.0206848 8.52651e-013
vt 198.785 -2.67755e-021
f 16/38/13 17/39/13 15/40/13

v 5.67646 12.1354 -72.4973
vt 0.0206848 141.732
f 17/39/13 16/38/13 18/41/13

usemtl _7
vt 23.6693 2.49267
vn -1 4.11147e-016 -0.00031484
vt 25.3176 2.49267
vt 23.6693 1.75321
f 18/42/14 16/43/14 17/44/14

vt 25.3176 1.75321
f 15/45/14 17/44/14 16/43/14

usemtl _Tile_Ceramic_Natural_7
v 7.34523 8.53543 -72.4968
vt 5.73228 -3.71946
vt 6.91917 -3.71946
f 19/46/5 15/32/5 17/47/5

f 15/32/5 19/46/5 9/11/5

usemtl BackColor
vt 1.67475e-029 0.0206848
vt 0.062579 198.785
vt 65.6995 3.63798e-012
f 17/48/6 15/49/6 19/50/6

f 9/15/6 19/50/6 15/49/6

usemtl _7
vt -23.1548 1.75321
vn -0.991486 -1.47228e-015 0.130214
v 7.34147 12.1354 -72.5254
vt -23.1642 2.49267
vn -1 -1.31249e-014 -0.00031484
vt -23.1642 1.75321
f 19/51/15 20/52/16 9/53/16

v 7.34523 12.1354 -72.4968
vt -23.1548 2.49267
f 20/52/16 19/51/15 21/54/15

vn 0.991486 1.47228e-015 -0.130214
vn 1 1.31249e-014 0.00031484
f 21/54/17 19/51/17 20/52/18

usemtl _Color_C03_1
vt -65.6995 1.02258e-012
vn 0.00031484 2.88763e-014 -1
vt 6.5124e-006 141.732
vt -65.6995 141.732
f 19/55/19 18/56/19 21/57/19

vt 6.5124e-006 8.52054e-013
f 18/56/19 19/55/19 17/58/19

usemtl BackColor
vn -0.00031484 -2.88763e-014 1
f 17/58/20 19/55/20 18/56/20

f 21/57/20 18/56/20 19/55/20

usemtl _7
f 9/53/18 20/52/18 19/51/17

v 7.34745 12.1354 -72.5707
vt -23.8029 2.49267
vn -0.965844 -2.36616e-014 -0.259123
vt -23.788 1.75321
vt -23.788 2.49267
f 22/59/21 9/60/16 20/61/16

vt -23.8029 1.75321
f 9/60/16 22/59/21 8/62/21

vn 0.965844 2.36616e-014 0.259123
f 20/61/18 9/60/18 22/59/22

f 8/62/22 22/59/22 9/60/18

v 7.36494 12.1354 -72.6129
vt -22.8199 2.49267
vn -0.865868 -1.18679e-014 -0.500273
vt -22.805 1.75321
vt -22.805 2.49267
f 23/63/23 8/64/21 22/65/21

vt -22.8199 1.75321
f 8/64/21 23/63/23 7/66/23

vn 0.865868 1.18679e-014 0.500273
f 22/65/22 8/64/22 23/63/24

f 7/66/24 23/63/24 8/64/22

v 7.39277 12.1354 -72.6492
vt -20.2823 2.49267
vn -0.706884 -1.04047e-015 -0.707329
vt -20.2674 1.75321
vt -20.2674 2.49267
f 24/67/25 7/68/23 23/69/23

vt -20.2823 1.75321
f 7/68/23 24/67/25 6/70/25

vn 0.706884 1.04047e-015 0.707329
f 23/69/24 7/68/24 24/67/26

f 6/70/26 24/67/26 7/68/24

vt -16.3481 2.49267
vt -16.3631 1.75321
vt -16.3481 1.75321
f 24/71/25 3/72/1 6/73/25

vt -16.3631 2.49267
f 3/72/1 24/71/25 1/74/1

f 6/73/26 3/72/3 24/71/26

usemtl BackColor
vt 68.9983 7.09263
vt 67.571 5.99817
f 3/75/6 6/76/6 5/14/6

vt 66.4757 4.5716
f 6/76/6 7/77/6 5/14/6

vt 65.7869 2.91014
f 7/77/6 8/78/6 5/14/6

f 8/78/6 9/15/6 5/14/6

vt 70.6602 7.7804
f 2/79/6 3/75/6 5/14/6

usemtl _Tile_Ceramic_Natural_7
v 7.51653 8.53543 -72.7004
vt 5.6105 -3.86428
f 5/5/5 2/7/5 25/80/5

usemtl BackColor
vt 72.4435 8.0146
f 25/81/6 2/79/6 5/14/6

usemtl _7
vt -5.5088 2.49267
vt -5.52371 1.75321
vn 0.00031484 -1.19591e-019 -1
vt -5.5088 1.75321
f 4/82/2 25/83/27 2/84/2

v 7.51653 12.1354 -72.7004
vt -5.52371 2.49267
f 25/83/27 4/82/2 26/85/27

vn -0.00031484 1.19591e-019 1
f 2/84/4 25/83/28 4/82/4

f 26/85/28 4/82/4 25/83/28

vt 0.672571 2.49267
v 7.56182 8.53543 -72.6944
vt 0.657656 1.75321
vn 0.259123 -1.27146e-016 -0.965844
vt 0.672571 1.75321
f 26/86/27 27/87/29 25/88/27

v 7.56182 12.1354 -72.6944
vt 0.657656 2.49267
f 27/87/29 26/86/27 28/89/29

vn -0.259123 1.27146e-016 0.965844
f 25/88/28 27/87/30 26/86/28

usemtl _Tile_Ceramic_Natural_7
vt 5.57828 -3.86004
f 5/5/5 25/80/5 27/90/5

usemtl BackColor
vt 74.2266 7.77928
f 27/91/6 25/81/6 5/14/6

usemtl _Tile_Ceramic_Natural_7
v 7.60402 8.53543 -72.6769
vt 5.54826 -3.84761
f 5/5/5 27/90/5 29/92/5

usemtl BackColor
vt 75.8881 7.09046
f 29/93/6 27/91/6 5/14/6

usemtl _7
vt 6.80861 2.49267
vt 6.7937 1.75321
vn 0.500273 2.39455e-015 -0.865868
vt 6.80861 1.75321
f 28/94/29 29/95/31 27/96/29

v 7.60402 12.1354 -72.6769
vt 6.7937 2.49267
f 29/95/31 28/94/29 30/97/31

vn -0.500273 -2.39455e-015 0.865868
f 27/96/30 29/95/32 28/94/30

f 30/97/32 28/94/30 29/95/32

vt 12.4812 2.49267
v 7.64025 8.53543 -72.6491
vt 12.4663 1.75321
vn 0.609011 4.9361e-015 -0.793162
vt 12.4812 1.75321
f 30/98/31 31/99/33 29/100/31

v 7.64025 12.1354 -72.6491
vt 12.4663 2.49267
f 31/99/33 30/98/31 32/101/33

vn -0.609011 -4.9361e-015 0.793162
f 29/100/32 31/99/34 30/98/32

usemtl _Tile_Ceramic_Natural_7
vt 5.52249 -3.82783
f 5/5/5 29/92/5 31/102/5

usemtl BackColor
vt 77.3146 5.9951
f 31/103/6 29/93/6 5/14/6

usemtl _Tile_Ceramic_Natural_7
v 11.721 8.53543 -72.6387
vt 2.62012 -3.82133
f 5/5/5 31/102/5 33/104/5

usemtl BackColor
vt 237.973 5.58477
f 33/105/6 31/103/6 5/14/6

usemtl _Color_C03_1
vt -77.2991 141.732
vn 0.00255405 1.76609e-014 -0.999997
vt -237.958 1.48225e-012
vt -77.2991 9.70659e-013
f 32/106/35 33/107/35 31/108/35

v 11.721 12.1354 -72.6387
vt -237.958 141.732
f 33/107/35 32/106/35 34/109/35

usemtl BackColor
vn -0.00255405 -1.76609e-014 0.999997
f 31/108/36 33/107/36 32/106/36

f 34/109/36 32/106/36 33/107/36

usemtl _Color_C03_1
vt -5.65969 141.732
vn -1 1.20962e-015 -0.00031484
v 11.7212 11.1434 -73.3132
vt -32.218 102.677
vt -5.65969 1.87947e-012
f 34/110/37 35/111/37 33/112/37

v 11.7223 12.1354 -76.944
f 35/111/37 34/110/37 36/24/37

usemtl BackColor
vn 1 -1.20962e-015 0.00031484
f 33/112/38 35/111/38 34/110/38

usemtl _Color_C03_1
v 11.7212 8.53543 -73.3132
vt -32.218 1.31104e-012
f 33/112/37 35/111/37 37/113/37

usemtl BackColor
f 37/113/38 35/111/38 33/112/38

usemtl _Tile_Ceramic_Natural_7
v 11.7215 8.53543 -74.1712
vt 2.62012 -4.91136
vt 2.62012 -4.30111
f 38/114/5 33/104/5 37/115/5

v 11.6924 8.53543 -76.9441
vt 2.64137 -6.88349
f 39/116/5 33/104/5 38/114/5

v 7.76805 8.53543 -77.5453
vt 5.43269 -7.31023
f 40/117/5 33/104/5 39/116/5

f 5/5/5 33/104/5 40/117/5

usemtl BackColor
vt 82.346 198.76
f 40/118/6 33/105/6 5/14/6

vt 236.85 175.089
f 39/119/6 33/105/6 40/118/6

vt 237.992 65.9226
f 38/120/6 33/105/6 39/119/6

vt 237.981 32.1431
f 37/121/6 33/105/6 38/120/6

usemtl _Tile_Ceramic_Natural_7
v 11.7223 8.53543 -76.944
vt 2.62012 -6.88349
f 39/116/5 38/114/5 41/122/5

usemtl BackColor
vt 238.026 175.088
f 41/123/6 38/120/6 39/119/6

usemtl _Color_C03_1
v 11.7215 11.1434 -74.1712
vt -65.9975 102.677
vt -175.163 4.58385e-013
vt -65.9975 1.08366e-012
f 42/124/37 41/125/37 38/126/37

f 41/125/37 42/124/37 36/24/37

usemtl BackColor
f 38/126/38 41/125/38 42/124/38

f 36/24/38 42/124/38 41/125/38

usemtl _Color_C03_1
f 35/111/37 36/24/37 42/124/37

usemtl BackColor
f 36/24/38 34/110/38 35/111/38

f 42/124/38 36/24/38 35/111/38

usemtl _Color_C03_1
vt 237.971 141.732
vn -0.00031484 -1.28364e-014 1
vt 236.795 -2.07793e-012
vt 237.971 -2.07793e-012
f 36/127/39 39/128/39 41/129/39

v 11.6924 12.1354 -76.9441
vt 236.795 141.732
f 39/128/39 36/127/39 43/130/39

usemtl _7
vt 3.81917 1.75321
vn 0.00031484 1.28364e-014 -1
vt 3.80941 1.75321
vt 3.81917 2.49267
f 41/131/40 39/132/40 36/133/40

vt 3.80941 2.49267
f 43/134/40 36/133/40 39/132/40

usemtl _Color_C03_1
vn -1 1.08267e-014 -0.00031484
v 11.6926 8.53543 -77.5441
vt -198.785 2.79107e-012
vt -175.163 2.73422e-012
f 43/24/41 44/135/41 39/136/41

v 11.6926 12.1354 -77.5441
f 44/135/41 43/24/41 45/27/41

usemtl _7
vn 1 -1.08267e-014 0.00031484
f 39/28/42 44/29/42 43/30/42

usemtl _Tile_Ceramic_Natural_7
vt 2.64137 -7.31023
f 44/137/5 40/117/5 39/116/5

usemtl _Color_C03_1
vn -0.00031484 1.60474e-014 1
vt 82.2835 3.41737e-012
vt 236.795 3.41737e-012
f 45/130/43 40/138/43 44/139/43

v 7.76805 12.1354 -77.5453
f 40/138/43 45/130/43 46/16/43

usemtl _7
vn 0.00031484 -1.60474e-014 -1
f 44/132/44 40/20/44 45/134/44

usemtl BackColor
vt 236.857 198.711
f 39/119/6 40/118/6 44/140/6

usemtl _7
f 46/22/44 45/134/44 40/20/44

usemtl _Color_C03_1
vt 175.163 141.732
vn 1 8.42836e-015 0.00031484
vt 198.785 -4.66141e-013
f 11/141/45 40/142/45 46/38/45

vt 175.163 -4.66141e-013
f 40/142/45 11/141/45 5/143/45

usemtl _7
vt 25.1217 1.75321
vn -1 -8.42836e-015 -0.00031484
vt 25.1217 2.49267
f 5/144/46 11/145/46 40/45/46

f 46/43/46 40/45/46 11/145/46

vt -25.3176 2.49267
f 45/146/42 43/30/42 44/29/42

f 32/101/34 30/98/32 31/99/34

f 28/89/30 26/86/28 27/87/30

f 4/4/4 1/1/3 2/2/4

f 1/74/3 24/71/26 3/72/3

usemtl _Tile_Ceramic_Natural_7
f 15/32/5 9/11/5 10/12/5

usemtl BackColor
f 10/13/6 9/15/6 15/49/6

vt 62.661 198.766
f 10/13/6 15/49/6 13/147/6

usemtl _7
f 14/23/12 13/21/12 16/37/12

f 14/146/10 12/30/10 13/29/10

g Mesh2 DES003 Model

l 2 3

l 25 2

l 27 25

l 29 27

l 31 29

l 31 32

l 33 31

l 33 34

l 37 33

l 35 37

l 42 35

l 38 42

l 38 37

l 41 38

l 39 41

l 39 44

l 39 43

l 43 45

l 43 36

l 41 36

l 36 34

l 34 32

l 32 30

l 30 28

l 28 26

l 26 4

l 4 1

l 1 24

l 24 23

l 23 22

l 22 20

l 20 21

l 19 21

l 9 19

l 8 9

l 7 8

l 6 7

l 3 6

l 19 17

l 17 15

l 17 18

l 18 16

l 21 18

l 16 14

l 15 16

l 15 13

l 13 14

l 10 13

l 10 5

l 10 12

l 12 11

l 12 14

l 11 46

l 5 11

l 5 40

l 40 44

l 40 46

l 46 45

l 44 45

g Mesh3 Model

v 138.951 3.33 -157.425
v 138.951 3.3 -157.425
l 47 48

g Mesh4 Model

v 117.469 3.4 -184.196
v 117.443 3.4 -184.095
l 49 50

