# Alias OBJ Model File
# Exported from SketchUp, (c) 2000-2012 Trimble Navigation Limited
# File units = meters

mtllib CUA002.mtl

g Mesh1 CUA002 Model

usemtl FrontColor
v 15.9495 2.995 -8.49549
vt 0 117.913
vn -1 0 -0
v 15.9495 1.988 -8.53581
vt -1.58736 78.2677
v 15.9495 6.13941e-023 -8.49549
vt 0 2.41709e-021
f 1/1/1 2/2/1 3/3/1

v 15.9495 2.995 -11.2909
vt -110.057 117.913
f 2/2/1 1/1/1 4/4/1

usemtl Color_D03
vn 1 -0 0
f 3/3/2 2/2/2 1/1/2

usemtl FrontColor
v 15.9495 5.47762e-024 -8.53581
vt -1.58736 2.15654e-022
f 5/5/1 3/3/1 2/2/1

usemtl Color_D03
f 2/2/2 3/3/2 5/5/2

usemtl FrontColor
vt -6.87146e-044 1.58736
vn 3.18633e-022 -1 5.76326e-023
v 16.231 0 -11.2909
vt -11.0838 110.057
vt -7.70166e-043 -1.39303e-043
f 5/6/3 6/7/3 3/8/3

v 15.9495 1.14879e-022 -9.34107
vt -1.44111e-042 33.2907
f 7/9/3 6/7/3 5/6/3

v 15.9495 0 -11.2909
vt 0 110.057
f 6/7/3 7/9/3 8/10/3

usemtl _Tile_Ceramic_Natural_14
vt 19.7352 -12.449
vn -3.18633e-022 1 -5.76326e-023
vt 19.7352 -13.8319
vt 19.5356 -12.449
f 8/11/4 7/12/4 6/13/4

usemtl FrontColor
vt -33.2907 4.5228e-021
vt -110.057 0
f 7/14/1 4/4/1 8/15/1

v 15.9495 1.988 -9.34107
vt -33.2907 78.2677
f 9/16/1 4/4/1 7/14/1

f 2/2/1 4/4/1 9/16/1

usemtl Color_D03
f 4/4/2 1/1/2 2/2/2

f 9/16/2 4/4/2 2/2/2

f 7/14/2 4/4/2 9/16/2

f 8/15/2 4/4/2 7/14/2

usemtl FrontColor
vn 0 0 -1
vt -11.0838 0
vt 0 0
f 4/1/5 6/17/5 8/18/5

v 16.231 2.995 -11.2909
vt -11.0838 117.913
f 6/17/5 4/1/5 10/19/5

usemtl Color_D03
vn -0 -0 1
f 8/18/6 6/17/6 4/1/6

f 10/19/6 4/1/6 6/17/6

usemtl FrontColor
v 16.231 2.995 -13.9585
vt -215.079 117.913
f 11/20/1 6/15/1 10/4/1

v 16.231 2.74416e-023 -13.9585
vt -215.079 1.08038e-021
f 6/15/1 11/20/1 12/21/1

usemtl Color_D03
f 10/4/2 6/15/2 11/20/2

f 12/21/2 11/20/2 6/15/2

usemtl FrontColor
v 16.58 2.74416e-023 -13.9585
vt -24.824 1.08038e-021
vt -11.0838 1.08038e-021
f 11/19/5 13/22/5 12/23/5

v 16.58 2.995 -13.9585
vt -24.824 117.913
f 13/22/5 11/19/5 14/24/5

usemtl Color_D03
f 12/23/6 13/22/6 11/19/6

usemtl FrontColor
vt -24.824 215.079
vt -11.0838 215.079
f 13/25/3 6/7/3 12/26/3

v 18.9881 1.22817e-021 -8.49549
vt -119.631 -5.89851e-043
f 15/27/3 6/7/3 13/25/3

f 3/8/3 6/7/3 15/27/3

usemtl _Tile_Ceramic_Natural_14
vt 19.7352 -14.4316
vt 19.7352 -14.403
f 3/28/4 6/13/4 5/29/4

vt 17.5802 -14.4316
f 15/30/4 6/13/4 3/28/4

vt 19.2881 -10.5571
f 13/31/4 6/13/4 15/30/4

vt 19.5356 -10.5571
f 12/32/4 6/13/4 13/31/4

usemtl FrontColor
v 18.9881 6.1511e-022 -14.1135
vt -119.631 221.181
f 15/27/3 13/25/3 16/33/3

usemtl _Tile_Ceramic_Natural_14
vt 17.5802 -10.4472
f 16/34/4 13/31/4 15/30/4

usemtl FrontColor
v 16.58 2.48607e-024 -14.1135
vt -24.824 221.181
f 16/33/3 13/25/3 17/35/3

usemtl _Tile_Ceramic_Natural_14
vt 19.2881 -10.4472
f 17/36/4 13/31/4 16/34/4

usemtl FrontColor
v 16.58 2.995 -14.1135
vt -221.181 117.913
vt -221.181 9.78767e-023
f 13/21/1 18/37/1 17/38/1

f 18/37/1 13/21/1 14/20/1

usemtl Color_D03
f 14/20/2 13/21/2 18/37/2

f 14/24/6 11/19/6 13/22/6

f 17/38/2 18/37/2 13/21/2

usemtl FrontColor
vt -119.631 2.42169e-020
vt -24.824 9.78767e-023
f 18/24/5 16/39/5 17/40/5

v 18.9881 2.995 -14.1135
vt -119.631 117.913
f 16/39/5 18/24/5 19/41/5

usemtl Color_D03
f 17/40/6 16/39/6 18/24/6

f 19/41/6 18/24/6 16/39/6

usemtl FrontColor
v 18.9881 2.995 -8.49549
vn 1 0 -0
vt 221.181 2.42169e-020
vt 221.181 117.913
f 20/1/7 16/42/7 19/43/7

vt 0 4.8353e-020
f 16/42/7 20/1/7 15/44/7

usemtl Color_D03
vn -1 -0 0
f 15/44/8 20/1/8 16/42/8

usemtl FrontColor
vn 0 0 1
vt 119.631 4.8353e-020
vt 119.631 117.913
f 1/1/9 15/45/9 20/46/9

f 15/45/9 1/1/9 3/3/9

usemtl Color_D03
vn -0 -0 -1
f 3/3/10 1/1/10 15/45/10

f 20/46/10 15/45/10 1/1/10

f 19/43/8 16/42/8 20/1/8

usemtl _Tile_Ceramic_Natural_14
f 5/29/4 6/13/4 7/12/4

g Mesh2 CUA002 Model

l 8 7

l 8 4

l 8 6

l 6 10

l 6 12

l 12 11

l 13 12

l 13 14

l 17 13

l 17 18

l 16 17

l 15 16

l 3 15

l 5 3

l 5 2

l 7 5

l 9 7

l 9 2

l 3 1

l 4 1

l 4 10

l 10 11

l 14 11

l 18 14

l 18 19

l 16 19

l 20 19

l 15 20

l 1 20

