# Alias OBJ Model File
# Exported from SketchUp, (c) 2000-2012 Trimble Navigation Limited
# File units = meters

mtllib CUA003.mtl

g Mesh1 COM003 Model

usemtl FrontColor
v 11.1675 2.995 -14.1135
vt -221.181 117.913
vn -1 0 2.56999e-016
v 11.1675 5.68568e-022 -8.49549
vt 1.46087e-029 2.23846e-020
v 11.1675 2.995 -8.49549
vt 1.46087e-029 117.913
f 1/1/1 2/2/1 3/3/1

v 11.1675 0 -14.1135
vt -221.181 0
f 2/2/1 1/1/1 4/4/1

usemtl Color_D03
vn 1 -0 -2.56999e-016
f 3/3/2 2/2/2 1/1/2

usemtl FrontColor
vt 5.68434e-014 2.23846e-020
vn 0 0 1
v 15.8505 2.995 -8.49549
vt 184.37 117.913
vt 5.68434e-014 117.913
f 2/5/3 5/6/3 3/7/3

v 15.8505 0 -8.49549
vt 184.37 0
f 5/6/3 2/5/3 6/8/3

usemtl Color_D03
vn -0 -0 -1
f 6/8/4 2/5/4 5/6/4

usemtl FrontColor
vt -5.68434e-014 -1.0318e-042
vn -7.02358e-023 -1 4.60942e-023
v 14.3669 1.19826e-022 -9.37749
vt -125.959 34.7244
vt -184.37 -5.96891e-043
f 2/9/5 7/10/5 6/11/5

v 14.3669 3.44809e-023 -14.1135
vt -125.959 221.181
f 2/9/5 8/12/5 7/10/5

vt 0 221.181
f 8/12/5 2/9/5 4/13/5

usemtl _Tile_Ceramic_Natural_14
vt 23.1267 -10.4472
vn 7.02358e-023 1 -4.60942e-023
vt 23.1267 -14.4316
vt 20.8576 -10.4472
f 4/14/6 2/15/6 8/16/6

usemtl Color_D03
f 4/4/2 1/1/2 2/2/2

usemtl FrontColor
vt 0 117.913
vn 0 0 -1
vt -125.959 1.35751e-021
vt 0 0
f 1/17/7 8/18/7 4/19/7

v 14.3669 2.995 -14.1135
vt -125.959 117.913
f 8/18/7 1/17/7 9/20/7

usemtl Color_D03
vn -0 -0 1
f 4/19/8 8/18/8 1/17/8

f 9/20/8 1/17/8 8/18/8

usemtl FrontColor
vt 221.181 117.913
vn 1 0 -0
v 14.3669 1.988 -12.2888
vt 149.344 78.2677
vt 221.181 1.35751e-021
f 9/21/9 10/22/9 8/23/9

v 14.3669 1.988 -11.5088
vt 118.636 78.2677
f 9/21/9 11/24/9 10/22/9

v 14.3669 2.995 -9.37749
vt 34.7244 117.913
f 12/25/9 11/24/9 9/21/9

v 14.3669 4.14621e-023 -11.5088
vt 118.636 1.63237e-021
f 12/25/9 13/26/9 11/24/9

vt 34.7244 4.71758e-021
f 13/26/9 12/25/9 7/27/9

usemtl Color_D03
vn -1 -0 0
f 7/27/10 12/25/10 13/26/10

usemtl FrontColor
v 14.4935 2.2924 -9.37749
vt -130.945 90.252
vt -125.959 4.71758e-021
f 14/28/7 7/29/7 12/20/7

v 14.4935 5.99132e-023 -9.37749
vt -130.945 2.35879e-021
f 7/29/7 14/28/7 15/30/7

usemtl Color_D03
f 15/30/8 14/28/8 7/29/8

f 12/20/8 7/29/8 14/28/8

usemtl FrontColor
v 15.172 2.2924 -9.37749
vt -157.657 90.252
f 14/28/7 12/20/7 16/31/7

usemtl Color_D03
f 16/31/8 12/20/8 14/28/8

usemtl FrontColor
v 15.8505 2.2924 -9.37749
vt -184.37 90.252
f 16/31/7 12/20/7 17/32/7

usemtl Color_D03
f 17/32/8 12/20/8 16/31/8

usemtl FrontColor
v 15.8505 2.995 -9.37749
vt -184.37 117.913
f 17/32/7 12/20/7 18/33/7

usemtl Color_D03
f 18/33/8 12/20/8 17/32/8

usemtl FrontColor
v 15.8505 5.84584e-023 -9.37749
vt 34.7244 2.30151e-021
vt 34.7244 90.252
f 18/25/9 19/34/9 17/35/9

v 15.8505 1.988 -9.34107
vt 33.2907 78.2677
f 18/25/9 20/36/9 19/34/9

v 15.8505 1.988 -8.53581
vt 1.58736 78.2677
f 18/25/9 21/37/9 20/36/9

f 5/17/9 21/37/9 18/25/9

v 15.8505 5.47762e-024 -8.53581
vt 1.58736 2.15654e-022
f 5/17/9 22/38/9 21/37/9

f 22/38/9 5/17/9 6/19/9

usemtl Color_D03
f 6/19/10 5/17/10 22/38/10

f 21/37/10 22/38/10 5/17/10

usemtl FrontColor
vt 184.37 2.15654e-022
v 15.9495 1.988 -8.53581
vt 188.265 78.2677
vt 184.37 78.2677
f 22/39/3 23/40/3 21/41/3

v 15.9495 5.47762e-024 -8.53581
vt 188.265 2.15654e-022
f 23/40/3 22/39/3 24/42/3

usemtl Color_D03
f 24/42/4 22/39/4 23/40/4

usemtl FrontColor
vt -184.37 1.58736
v 15.9495 1.14879e-022 -9.34107
vt -188.265 33.2907
vt -188.265 1.58736
f 22/43/5 25/44/5 24/45/5

v 15.8505 1.14879e-022 -9.34107
vt -184.37 33.2907
f 25/44/5 22/43/5 26/46/5

usemtl _Tile_Ceramic_Natural_14
vt 19.8054 -13.8319
vt 19.8054 -14.403
vt 19.7352 -13.8319
f 26/47/6 22/48/6 25/49/6

usemtl FrontColor
f 6/11/5 26/46/5 22/43/5

vt -184.37 34.7244
f 6/11/5 19/50/5 26/46/5

v 15.8505 1.19826e-022 -9.42949
vt -184.37 36.7717
f 6/11/5 27/51/5 19/50/5

v 15.172 8.98698e-023 -9.39449
vt -157.657 35.3937
f 6/11/5 28/52/5 27/51/5

vt -130.945 34.7244
f 6/11/5 15/53/5 28/52/5

f 6/11/5 7/10/5 15/53/5

usemtl _Tile_Ceramic_Natural_14
vt 19.8054 -14.4316
vt 20.8576 -13.8061
f 6/54/6 7/55/6 2/15/6

vt 20.7678 -13.8061
f 15/56/6 7/55/6 6/54/6

vt 20.2866 -13.794
f 28/57/6 15/56/6 6/54/6

usemtl FrontColor
v 14.4935 5.99132e-023 -9.39449
vt -130.945 35.3937
f 28/52/5 15/53/5 29/58/5

usemtl _Tile_Ceramic_Natural_14
vt 20.7678 -13.794
f 29/59/6 15/56/6 28/57/6

vt 19.8054 -13.7692
f 27/60/6 28/57/6 6/54/6

usemtl FrontColor
v 15.172 8.98698e-023 -9.42949
vt -157.657 36.7717
f 27/51/5 28/52/5 30/61/5

usemtl _Tile_Ceramic_Natural_14
vt 20.2866 -13.7692
f 30/62/6 28/57/6 27/60/6

vt 19.8054 -13.8061
f 19/63/6 27/60/6 6/54/6

f 26/47/6 19/63/6 6/54/6

usemtl FrontColor
vt 33.2907 4.5228e-021
f 19/34/9 20/36/9 26/64/9

usemtl Color_D03
f 26/64/10 20/36/10 19/34/10

usemtl FrontColor
vt -184.37 78.2677
vt -188.265 4.5228e-021
vt -184.37 4.5228e-021
f 20/65/7 25/66/7 26/67/7

v 15.9495 1.988 -9.34107
vt -188.265 78.2677
f 25/66/7 20/65/7 31/68/7

usemtl Color_D03
f 26/67/8 25/66/8 20/65/8

f 31/68/8 20/65/8 25/66/8

usemtl FrontColor
vt 184.37 33.2907
vn 0 1 -0
vt 188.265 1.58736
vt 188.265 33.2907
f 20/69/11 23/70/11 31/71/11

vt 184.37 1.58736
f 23/70/11 20/69/11 21/72/11

usemtl Color_D03
vn -0 -1 0
f 21/72/12 20/69/12 23/70/12

f 20/36/10 21/37/10 18/25/10

f 18/25/10 21/37/10 5/17/10

f 19/34/10 20/36/10 18/25/10

f 17/35/10 19/34/10 18/25/10

f 31/71/12 23/70/12 20/69/12

f 21/41/4 23/40/4 22/39/4

usemtl _Tile_Ceramic_Natural_14
f 22/48/6 26/47/6 6/54/6

f 7/55/6 8/16/6 2/15/6

usemtl FrontColor
v 14.3669 3.93715e-023 -12.2888
vt -125.959 149.344
f 7/10/5 8/12/5 32/73/5

usemtl _Tile_Ceramic_Natural_14
vt 20.8576 -11.7413
f 32/74/6 8/16/6 7/55/6

usemtl FrontColor
vt 149.344 1.55006e-021
f 8/23/9 10/22/9 32/75/9

usemtl Color_D03
f 32/75/10 10/22/10 8/23/10

usemtl FrontColor
vt -125.959 78.2677
v 14.4935 3.93715e-023 -12.2888
vt -130.945 1.55006e-021
vt -125.959 1.55006e-021
f 10/76/7 33/77/7 32/78/7

v 14.4935 1.988 -12.2888
vt -130.945 78.2677
f 33/77/7 10/76/7 34/79/7

usemtl Color_D03
f 32/78/8 33/77/8 10/76/8

usemtl FrontColor
vt -130.945 149.344
vt -125.959 118.636
f 33/80/5 13/81/5 32/73/5

v 14.4935 4.14621e-023 -11.5088
vt -130.945 118.636
f 13/81/5 33/80/5 35/82/5

usemtl _Tile_Ceramic_Natural_14
vt 20.8576 -12.2945
vt 20.7678 -11.7413
f 32/74/6 13/83/6 33/84/6

usemtl FrontColor
f 7/10/5 32/73/5 13/81/5

usemtl _Tile_Ceramic_Natural_14
f 13/83/6 32/74/6 7/55/6

vt 20.7678 -12.2945
f 35/85/6 33/84/6 13/83/6

usemtl FrontColor
v 14.4935 1.988 -11.5088
vt 130.945 78.2677
vt 125.959 1.63237e-021
vt 130.945 1.63237e-021
f 36/86/3 13/87/3 35/88/3

vt 125.959 78.2677
f 13/87/3 36/86/3 11/89/3

usemtl Color_D03
f 35/88/4 13/87/4 36/86/4

f 11/89/4 36/86/4 13/87/4

usemtl FrontColor
vt 130.945 118.636
vt 125.959 149.344
vt 125.959 118.636
f 36/90/11 10/91/11 11/92/11

vt 130.945 149.344
f 10/91/11 36/90/11 34/93/11

usemtl Color_D03
f 11/92/12 10/91/12 36/90/12

f 10/22/10 11/24/10 9/21/10

f 9/21/10 11/24/10 12/25/10

f 11/24/10 13/26/10 12/25/10

f 8/23/10 10/22/10 9/21/10

f 34/93/12 36/90/12 10/91/12

f 34/79/8 10/76/8 33/77/8

usemtl _Tile_Ceramic_Natural_14
vt 19.7352 -14.403
f 24/94/6 25/49/6 22/48/6

usemtl Color_D03
f 3/7/4 5/6/4 2/5/4

g Mesh2 COM003 Model

l 2 4

l 2 3

l 2 6

l 6 5

l 6 22

l 22 21

l 22 24

l 25 24

l 26 25

l 26 19

l 20 26

l 20 21

l 20 31

l 31 23

l 31 25

l 24 23

l 21 23

l 17 19

l 17 18

l 17 16

l 16 14

l 14 15

l 15 7

l 15 29

l 29 28

l 28 30

l 30 27

l 19 27

l 7 12

l 7 13

l 13 35

l 11 13

l 10 11

l 32 10

l 32 8

l 32 33

l 35 33

l 36 35

l 34 36

l 33 34

l 10 34

l 11 36

l 8 4

l 8 9

l 12 9

l 18 12

l 5 18

l 3 5

l 3 1

l 4 1

l 1 9

