# Alias OBJ Model File
# Exported from SketchUp, (c) 2000-2012 Trimble Navigation Limited
# File units = meters

mtllib CUA003.mtl

g Mesh1 CUA003 Model

usemtl Color_D03
v 20.0974 0.47 -49.0359
vt 254.672 1.1795e-012
vn 1 0 -0
v 20.0974 4.581 -45.2892
vt 107.165 161.85
v 20.0974 0.47 -45.2892
vt 107.165 1.1795e-012
f 1/1/1 2/2/1 3/3/1

v 20.0974 4.581 -49.0359
vt 254.672 161.85
f 2/2/1 1/1/1 4/4/1

usemtl BackColor
vn -1 -0 0
f 3/3/2 2/2/2 1/1/2

usemtl Color_D03
vt -1.20739e-012 161.85
vn -1.12666e-014 3.52745e-014 -1
v 21.7099 0.47 -45.2892
vt -63.4843 -2.60071e-012
vt -1.20739e-012 -2.60071e-012
f 2/5/3 5/6/3 3/7/3

v 21.7099 2.443 -45.2892
vt -63.4843 77.6772
f 5/6/3 2/5/3 6/8/3

usemtl BackColor
vn 1.12666e-014 -3.52745e-014 1
f 3/7/4 5/6/4 2/5/4

usemtl _Tile_Ceramic_Natural_15
vt 2.64627 50.4732
vn -2.97894e-016 1 -1.4374e-015
vt 1.50266 53.1304
vt 1.50266 50.4732
f 5/9/5 1/10/5 3/11/5

v 20.1874 0.47 -49.0359
vt 1.56648 53.1304
f 1/10/5 5/9/5 7/12/5

usemtl BackColor
vt 3.51367e-028 107.165
vn 2.97894e-016 -1 1.4374e-015
vt 3.51367e-028 254.672
vt 63.4843 107.165
f 3/13/6 1/14/6 5/15/6

vt 3.54331 254.672
f 7/16/6 5/15/6 1/14/6

usemtl _Tile_Ceramic_Natural_15
v 20.1874 0.47 -49.1259
vt 1.56648 53.1943
f 7/12/5 5/9/5 8/17/5

usemtl BackColor
vt 3.54331 258.215
f 8/18/6 5/15/6 7/16/6

usemtl _Tile_Ceramic_Natural_15
v 20.5321 0.47 -49.1259
vt 1.811 53.1943
f 8/17/5 5/9/5 9/19/5

usemtl BackColor
vt 17.1167 258.215
f 9/20/6 5/15/6 8/18/6

usemtl _Tile_Ceramic_Natural_15
v 24.0603 0.47 -49.1259
vt 4.31325 53.1943
f 9/19/5 5/9/5 10/21/5

usemtl BackColor
vt 156.021 258.215
f 10/22/6 5/15/6 9/20/6

usemtl _Tile_Ceramic_Natural_15
v 21.7099 0.47 -45.188
vt 2.64627 50.4014
f 10/21/5 5/9/5 11/23/5

usemtl BackColor
vt 63.4843 103.18
f 11/24/6 5/15/6 10/22/6

usemtl Color_D03
vt 107.165 77.6772
vn 1 4.17461e-027 -2.85234e-014
vt 103.18 6.39488e-013
f 6/25/7 11/26/7 5/3/7

v 21.7099 2.443 -45.188
vt 103.18 77.6772
f 11/26/7 6/25/7 12/27/7

usemtl BackColor
vn -1 -4.17461e-027 2.85234e-014
f 12/27/8 6/25/8 11/26/8

usemtl Color_D03
v 22.5109 2.443 -45.2892
vt -95.0231 107.165
vn 4.50582e-016 -1 -1.36113e-013
vt -63.4843 103.18
vt -63.4843 107.165
f 13/28/9 12/29/9 6/30/9

v 22.5109 2.443 -45.188
vt -95.0231 103.18
f 12/29/9 13/28/9 14/31/9

usemtl BackColor
vn -4.50582e-016 1 1.36113e-013
f 6/30/10 12/29/10 13/28/10

f 14/31/10 13/28/10 12/29/10

usemtl Color_D03
vt -107.165 77.6772
vn -1 -3.59015e-027 2.85234e-014
v 22.5109 0.47 -45.188
vt -103.18 6.39488e-013
vt -103.18 77.6772
f 13/32/11 15/33/11 14/34/11

v 22.5109 0.47 -45.2892
vt -107.165 1.1795e-012
f 15/33/11 13/32/11 16/35/11

usemtl BackColor
vn 1 3.59015e-027 -2.85234e-014
f 14/34/12 15/33/12 13/32/12

f 16/35/12 13/32/12 15/33/12

usemtl Color_D03
vt -95.0231 77.6772
v 23.3224 0.47 -45.2892
vt -126.969 -2.60071e-012
vt -95.0231 -2.60071e-012
f 13/36/3 17/37/3 16/38/3

v 23.3224 4.581 -45.2892
vt -126.969 161.85
f 17/37/3 13/36/3 18/39/3

usemtl BackColor
f 16/38/4 17/37/4 13/36/4

usemtl _Tile_Ceramic_Natural_15
vt 3.21442 50.4732
vt 3.78989 50.4732
f 10/21/5 16/40/5 17/41/5

f 10/21/5 11/23/5 16/40/5

usemtl BackColor
vt 95.0231 107.165
f 16/42/6 11/24/6 10/22/6

usemtl _Tile_Ceramic_Natural_15
vt 3.21442 50.4014
f 15/43/5 16/40/5 11/23/5

usemtl BackColor
vt 95.0231 103.18
f 11/24/6 16/42/6 15/44/6

vt 126.969 107.165
f 17/45/6 16/42/6 10/22/6

usemtl _Tile_Ceramic_Natural_15
v 29.4782 0.47 -42.5672
vt 8.15574 48.5427
f 17/41/5 19/46/5 10/21/5

v 23.3224 0.47 -42.5672
vt 3.78989 48.5427
f 19/46/5 17/41/5 20/47/5

usemtl BackColor
vt 126.969 -1.64105e-027
vt 369.325 -1.5628e-027
f 20/48/6 17/45/6 19/49/6

usemtl Color_D03
vt 107.165 1.18449e-012
vn 1 -3.93235e-017 -0
v 23.3224 4.581 -42.5672
vt 0 161.85
vt 0 1.18449e-012
f 17/50/13 21/51/13 20/52/13

f 21/51/13 17/50/13 18/2/13

usemtl BackColor
vn -1 3.93235e-017 0
f 20/52/14 21/51/14 17/50/14

usemtl Color_D03
vn 1.74345e-015 -3.84927e-030 -1
vt -369.325 1.19726e-012
vt -126.969 1.1795e-012
f 21/39/15 19/53/15 20/54/15

v 29.4782 4.581 -42.5672
vt -369.325 161.85
f 19/53/15 21/39/15 22/55/15

usemtl BackColor
vn -1.74345e-015 3.84927e-030 1
f 20/54/16 19/53/16 21/39/16

f 22/55/16 21/39/16 19/53/16

usemtl Color_D03
v 29.4782 4.581 -45.8419
vt -128.924 161.85
vn -1 3.93235e-017 -5.41812e-033
vt -2.00105e-030 1.21179e-012
vt -2.00105e-030 161.85
f 23/56/17 19/57/17 22/58/17

v 29.4782 0.47 -45.8419
vt -128.924 1.19402e-012
f 19/57/17 23/56/17 24/59/17

usemtl BackColor
vn 1 -3.93235e-017 5.41812e-033
f 22/58/18 19/57/18 23/56/18

f 24/59/18 23/56/18 19/57/18

usemtl Color_D03
vt 369.325 161.85
vn 9.02979e-033 1.69511e-016 1
v 27.7842 0.47 -45.8419
vt 302.632 1.20491e-012
vt 369.325 1.20135e-012
f 23/60/19 25/61/19 24/62/19

v 27.7842 4.581 -45.8419
vt 302.632 161.85
f 25/61/19 23/60/19 26/63/19

usemtl BackColor
vn -9.02979e-033 -1.69511e-016 -1
f 24/62/20 25/61/20 23/60/20

usemtl _Tile_Ceramic_Natural_15
vt 6.95432 50.8652
vt 8.15574 50.8652
f 25/64/5 19/46/5 24/65/5

f 10/21/5 19/46/5 25/64/5

usemtl BackColor
f 10/22/6 19/49/6 17/45/6

vt 302.632 128.924
f 25/66/6 19/49/6 10/22/6

vt 369.325 128.924
f 24/67/6 19/49/6 25/66/6

usemtl _Tile_Ceramic_Natural_15
v 27.7842 0.47 -49.1259
vt 6.95432 53.1943
f 27/68/5 10/21/5 25/64/5

usemtl Color_D03
vt 302.632 -1.0357e-011
vn -8.11685e-015 -4.46917e-014 1
v 24.0603 3.67001 -49.1259
vt 156.021 125.984
vt 156.021 -1.15401e-011
f 27/69/21 28/70/21 10/71/21

v 27.7842 4.581 -49.1259
f 28/70/21 27/69/21 29/63/21

usemtl BackColor
vn 8.11685e-015 4.46917e-014 -1
f 10/71/22 28/70/22 27/69/22

usemtl FrontColor
vn -1.47321e-014 -1.55211e-013 1
vt 17.1167 -4.00778e-011
vt 156.021 -4.00778e-011
f 28/70/23 9/72/23 10/73/23

v 20.5321 3.67001 -49.1259
vt 17.1167 125.984
f 9/72/23 28/70/23 30/74/23

usemtl BackColor
vn 1.47321e-014 1.55211e-013 -1
f 10/73/24 9/72/24 28/70/24

f 30/74/24 28/70/24 9/72/24

usemtl Color_D03
f 28/70/21 29/63/21 30/74/21

usemtl BackColor
f 29/63/22 27/69/22 28/70/22

usemtl Color_D03
vt -128.924 1.19495e-012
vn -1 3.93235e-017 -0
vt -258.215 161.85
vt -258.215 1.19495e-012
f 25/75/25 29/76/25 27/77/25

f 29/76/25 25/75/25 26/56/25

usemtl BackColor
vn 1 -3.93235e-017 0
f 26/56/26 25/75/26 29/76/26

f 26/63/20 23/60/20 25/61/20

f 27/77/26 29/76/26 25/75/26

vt 302.632 258.215
f 25/66/6 10/22/6 27/78/6

f 30/74/22 29/63/22 28/70/22

usemtl Color_D03
v 20.1874 4.581 -49.1259
vt 3.54331 161.85
f 30/74/21 29/63/21 31/79/21

usemtl BackColor
f 31/79/22 29/63/22 30/74/22

usemtl Color_D03
vt 3.54331 -1.03606e-011
f 8/80/21 30/74/21 31/79/21

vt 17.1167 -1.15401e-011
f 30/74/21 8/80/21 9/81/21

usemtl BackColor
f 9/81/22 8/80/22 30/74/22

f 31/79/22 30/74/22 8/80/22

usemtl Color_D03
v 20.1874 4.581 -49.0359
vt 258.215 1.1795e-012
vt 258.215 161.85
f 32/4/1 8/82/1 31/83/1

f 8/82/1 32/4/1 7/1/1

usemtl BackColor
f 7/1/2 32/4/2 8/82/2

usemtl Color_D03
vn 0 0 1
vt 0 1.1795e-012
vt 3.54331 1.1795e-012
f 32/79/27 1/84/27 7/85/27

f 1/84/27 32/79/27 4/51/27

usemtl BackColor
vn -0 -0 -1
f 7/85/28 1/84/28 32/79/28

f 4/51/28 32/79/28 1/84/28

f 4/4/2 1/1/2 2/2/2

f 31/83/2 8/82/2 32/4/2

f 18/2/14 17/50/14 21/51/14

f 18/39/4 13/36/4 17/37/4

usemtl Color_D03
f 18/39/3 13/36/3 2/5/3

usemtl BackColor
f 2/5/4 13/36/4 18/39/4

usemtl Color_D03
f 6/8/3 2/5/3 13/36/3

usemtl BackColor
f 6/8/4 2/5/4 5/6/4

f 13/36/4 2/5/4 6/8/4

f 5/3/8 11/26/8 6/25/8

g Mesh2 CUA003 Model

l 1 4

l 3 1

l 3 2

l 5 3

l 5 6

l 5 11

l 11 12

l 15 11

l 16 15

l 17 16

l 17 18

l 20 17

l 20 21

l 20 19

l 24 19

l 25 24

l 25 27

l 25 26

l 26 29

l 26 23

l 24 23

l 23 22

l 19 22

l 21 22

l 21 18

l 18 2

l 2 4

l 32 4

l 7 32

l 8 7

l 8 31

l 9 8

l 9 30

l 10 9

l 28 10

l 28 30

l 27 10

l 27 29

l 29 31

l 31 32

l 7 1

l 16 13

l 13 6

l 13 14

l 14 12

l 15 14

l 6 12

