# Alias OBJ Model File
# Exported from SketchUp, (c) 2000-2012 Trimble Navigation Limited
# File units = meters

mtllib CUA004.mtl

g Mesh1 CUA004 Model

usemtl Color_D03
v 23.202 4.581 -45.188
vt -103.18 161.85
vn -1 3.93235e-017 -0
v 23.202 0.47 -42.5672
vt 0 6.05215e-013
v 23.202 4.581 -42.5672
vt 0 161.85
f 1/1/1 2/2/1 3/3/1

v 23.202 0.47 -45.188
vt -103.18 6.05215e-013
f 2/2/1 1/1/1 4/4/1

usemtl BackColor
vn 1 -3.93235e-017 0
f 3/3/2 2/2/2 1/1/2

usemtl Color_D03
vt -122.23 6.00409e-013
vn 8.37586e-032 -1.69511e-016 -1
v 20.0974 4.581 -42.5672
vt -122.23 161.85
f 2/5/3 5/3/3 3/6/3

v 20.0974 0.47 -42.5672
vt 0 5.40012e-013
f 5/3/3 2/5/3 6/7/3

usemtl BackColor
vn -8.37586e-032 1.69511e-016 1
f 6/7/4 2/5/4 5/3/4

usemtl _Tile_Ceramic_Natural_15
vt 3.70452 48.5427
vn 4.56642e-016 1 -2.57672e-015
v 20.0974 0.47 -45.188
vt 1.50266 50.4014
vt 1.50266 48.5427
f 2/8/5 7/9/5 6/10/5

v 21.7099 0.47 -45.188
vt 2.64627 50.4014
f 7/9/5 2/8/5 8/11/5

usemtl BackColor
vt -2.46592e-028 -1.39146e-027
vn -4.56642e-016 -1 2.57672e-015
vt -2.74172e-028 103.18
vt 122.23 -1.6909e-027
f 6/12/6 7/13/6 2/14/6

usemtl Color_D03
vt 103.18 6.00409e-013
vn 1 -3.93235e-017 -2.3018e-032
f 7/15/7 5/3/7 6/7/7

v 20.0974 4.581 -45.188
vt 103.18 161.85
f 5/3/7 7/15/7 9/16/7

usemtl BackColor
vn -1 3.93235e-017 2.3018e-032
f 6/7/8 5/3/8 7/15/8

f 9/16/8 7/15/8 5/3/8

usemtl Color_D03
vt 1.54891e-013 3.19187e-013
vn 1.50118e-015 -2.72556e-015 1
v 21.7099 2.443 -45.188
vt 63.4843 77.6772
vt 1.54891e-013 161.85
f 7/17/9 10/18/9 9/19/9

vt 63.4843 -2.81222e-013
f 10/18/9 7/17/9 8/20/9

usemtl BackColor
vn -1.50118e-015 2.72556e-015 -1
f 8/20/10 7/17/10 10/18/10

vt 63.4843 103.18
f 8/21/6 2/14/6 7/13/6

usemtl _Tile_Ceramic_Natural_15
v 22.5109 0.47 -45.188
vt 3.21442 50.4014
f 8/11/5 2/8/5 11/22/5

usemtl BackColor
vt 95.0231 103.18
f 11/23/6 2/14/6 8/21/6

usemtl _Tile_Ceramic_Natural_15
vt 3.70452 50.4014
f 11/22/5 2/8/5 4/24/5

usemtl BackColor
vt 122.23 103.18
f 4/25/6 2/14/6 11/23/6

f 4/4/2 1/1/2 2/2/2

usemtl Color_D03
v 22.5109 2.443 -45.188
vt 95.0231 77.6772
vt 122.23 3.19187e-013
vt 122.23 161.85
f 12/26/9 4/27/9 1/28/9

vt 95.0231 -2.81222e-013
f 4/27/9 12/26/9 11/29/9

usemtl BackColor
f 11/29/10 12/26/10 4/27/10

f 1/28/10 4/27/10 12/26/10

usemtl Color_D03
f 9/19/9 12/26/9 1/28/9

f 9/19/9 10/18/9 12/26/9

usemtl BackColor
f 9/19/10 10/18/10 7/17/10

f 12/26/10 10/18/10 9/19/10

f 1/28/10 12/26/10 9/19/10

f 3/6/4 5/3/4 2/5/4

g Mesh2 CUA004 Model

l 2 4

l 2 3

l 6 2

l 6 7

l 6 5

l 5 9

l 5 3

l 3 1

l 4 1

l 4 11

l 11 12

l 11 8

l 8 7

l 8 10

l 12 10

l 7 9

l 1 9

