# Alias OBJ Model File
# Exported from SketchUp, (c) 2000-2012 Trimble Navigation Limited
# File units = meters

mtllib CUA005.mtl

g Mesh1 Group1 CUA005 Model

usemtl Color_D03
v 16.1067 2.90501 -49.1259
vt 30.1181 -4.63464e-025
vn -6.79446e-014 -6.79446e-014 1
v 16.0756 2.94546 -49.1259
vt 28.8949 1.59262
v 15.3417 2.90501 -49.1259
vt 4.54747e-013 -6.02504e-025
f 1/1/1 2/2/1 3/3/1

v 16.1067 3.67001 -49.1259
vt 30.1181 30.1181
f 2/2/1 1/1/1 4/4/1

usemtl BackColor
vn 6.79446e-014 6.79446e-014 -1
f 3/3/2 2/2/2 1/1/2

usemtl Color_D03
v 15.3746 2.94546 -49.1259
vt 1.29648 1.59262
f 5/5/1 3/3/1 2/2/1

v 15.3417 3.67001 -49.1259
vt 4.54747e-013 30.1181
f 3/3/1 5/5/1 6/6/1

usemtl BackColor
f 6/6/2 5/5/2 3/3/2

usemtl Color_D03
v 15.3746 3.64646 -49.1259
vt 1.29648 29.191
f 6/6/1 5/5/1 7/7/1

usemtl BackColor
f 7/7/2 5/5/2 6/6/2

usemtl Color_D03
v 15.3746 3.64646 -49.3508
vt -8.8546 29.191
vn -1 0 -0
vt -1.81899e-012 1.59262
vt 0 29.191
f 8/8/3 5/9/3 7/10/3

v 15.3746 2.94546 -49.3508
vt -8.8546 1.59262
f 5/9/3 8/8/3 9/11/3

usemtl BackColor
vn 1 -0 0
f 7/10/4 5/9/4 8/8/4

usemtl Translucent_Glass_Blue
vn 0 -6.59092e-014 1
v 16.0756 3.64646 -49.1259
vt 28.8949 29.191
f 5/5/5 10/12/5 7/7/5

f 10/12/5 5/5/5 2/2/5

vn -0 6.59092e-014 -1
f 2/2/6 5/5/6 10/12/6

usemtl BackColor
f 2/2/2 3/3/2 5/5/2

usemtl Color_D03
vt -1.29648 1.92634e-012
vn 0 -1 -6.74063e-014
v 16.0756 2.94546 -49.3508
vt -28.8949 8.8546
vt -28.8949 1.92634e-012
f 5/13/7 11/14/7 2/15/7

vt -1.29648 8.8546
f 11/14/7 5/13/7 9/16/7

usemtl BackColor
vn -0 1 6.74063e-014
f 9/16/8 5/13/8 11/14/8

f 9/11/4 8/8/4 5/9/4

usemtl Color_D03
vt -1.29648 1.59262
v 15.3417 3.67001 -49.3508
vt 6.01622e-013 30.1181
vt -1.29648 29.191
f 9/17/2 12/18/2 8/19/2

v 15.3417 2.90501 -49.3508
vt 6.01622e-013 -3.45827e-013
f 9/17/2 13/20/2 12/18/2

v 16.1067 2.90501 -49.3508
vt -30.1181 -3.45827e-013
f 13/20/2 9/17/2 14/21/2

usemtl BackColor
f 14/21/1 9/17/1 13/20/1

usemtl Color_D03
vt -28.8949 1.59262
f 11/22/2 14/21/2 9/17/2

v 16.1067 3.67001 -49.3508
vt -30.1181 30.1181
f 14/21/2 11/22/2 15/23/2

usemtl BackColor
f 15/23/1 11/22/1 14/21/1

usemtl Color_D03
v 16.0756 3.64646 -49.3508
vt -28.8949 29.191
f 15/23/2 11/22/2 16/24/2

usemtl BackColor
f 16/24/1 11/22/1 15/23/1

usemtl Translucent_Glass_Blue
vn 0 6.59092e-014 -1
f 11/22/9 8/19/9 16/24/9

f 8/19/9 11/22/9 9/17/9

vn -0 -6.59092e-014 1
f 9/17/10 11/22/10 8/19/10

usemtl BackColor
f 9/17/1 14/21/1 11/22/1

usemtl Translucent_Glass_Blue
f 16/24/10 8/19/10 11/22/10

usemtl Color_D03
f 8/19/2 12/18/2 16/24/2

usemtl BackColor
f 8/19/1 12/18/1 9/17/1

f 16/24/1 12/18/1 8/19/1

usemtl Color_D03
f 15/23/2 16/24/2 12/18/2

usemtl BackColor
f 12/18/1 16/24/1 15/23/1

usemtl Color_D03
vt 1.29648 8.8546
vn 0 1 6.09867e-014
vt 28.8949 1.78026e-012
vt 28.8949 8.8546
f 8/25/11 10/26/11 16/27/11

vt 1.29648 1.78026e-012
f 10/26/11 8/25/11 7/28/11

usemtl BackColor
vn -0 -1 -6.09867e-014
f 7/28/12 8/25/12 10/26/12

f 16/27/12 10/26/12 8/25/12

usemtl Color_D03
f 10/12/1 4/4/1 7/7/1

f 2/2/1 4/4/1 10/12/1

usemtl BackColor
f 4/4/2 1/1/2 2/2/2

f 10/12/2 4/4/2 2/2/2

f 7/7/2 4/4/2 10/12/2

usemtl Color_D03
f 6/6/1 7/7/1 4/4/1

usemtl BackColor
f 4/4/2 7/7/2 6/6/2

usemtl Translucent_Glass_Blue
f 7/7/6 10/12/6 5/5/6

usemtl BackColor
f 12/18/1 13/20/1 9/17/1

f 2/15/8 11/14/8 5/13/8

g Mesh2 Group1 CUA005 Model

l 4 6

l 4 1

l 1 3

l 3 6

g Mesh3 Group1 CUA005 Model

l 10 7

l 2 10

l 5 2

l 7 5

l 8 7

l 16 8

l 11 16

l 9 11

l 8 9

l 9 5

l 11 2

l 16 10

g Mesh4 Group1 CUA005 Model

l 15 12

l 15 14

l 14 13

l 13 12

g Mesh5 CUA005 Model

usemtl Color_D03
v 19.9332 0.47 -49.1259
vt 215.986 -5.1753e-012
vn 1.66401e-015 -2.39225e-014 1
v 15.6758 2.443 -49.1259
vt 48.3735 77.6772
v 15.6758 0.47 -49.1259
vt 48.3735 -6.17717e-012
f 17/29/13 18/30/13 19/31/13

v 18.159 2.90501 -49.1259
vt 146.135 95.8664
f 18/30/13 17/29/13 20/32/13

usemtl BackColor
vn -1.66401e-015 2.39225e-014 -1
f 19/31/14 18/30/14 17/29/14

usemtl FrontColor
vn -1.0814e-014 -1.36113e-013 1
v 14.8747 0.47 -49.1259
vt 16.8347 -3.51465e-011
vt 48.3735 -3.51465e-011
f 18/30/15 21/33/15 19/34/15

v 14.8747 2.443 -49.1259
vt 16.8347 77.6772
f 21/33/15 18/30/15 22/35/15

usemtl BackColor
vn 1.0814e-014 1.36113e-013 -1
f 19/34/16 21/33/16 18/30/16

usemtl _Tile_Ceramic_Natural_15
vt -2.20132 53.1943
vn -1.44164e-015 1 -1.72609e-015
v 19.9332 0.47 -42.5672
vt 1.38622 48.5427
vt -1.63318 53.1943
f 21/36/17 23/37/17 19/38/17

v 14.4471 0.47 -49.1259
vt -2.50459 53.1943
f 24/39/17 23/37/17 21/36/17

v 14.4471 0.47 -42.5672
vt -2.50459 48.5427
f 23/37/17 24/39/17 25/40/17

usemtl BackColor
vt 1.43921e-027 1.36424e-012
vn 1.44164e-015 -1 1.72609e-015
vt 1.43921e-027 258.215
vt 215.986 -1.19185e-027
f 25/41/18 24/42/18 23/43/18

usemtl Color_D03
vt 258.215 9.98313e-013
vn 1 -3.93235e-017 -0
v 14.4471 4.581 -42.5672
vt 1.36424e-012 161.85
vt 1.36424e-012 9.98313e-013
f 24/44/19 26/45/19 25/46/19

v 14.4471 4.581 -49.1259
vt 258.215 161.85
f 26/45/19 24/44/19 27/47/19

usemtl BackColor
vn -1 3.93235e-017 0
f 25/46/20 26/45/20 24/44/20

usemtl Color_D03
vt 8.61703e-027 161.85
vn 6.31635e-015 -1.69511e-016 -1
vt -215.986 1.00187e-012
vt 8.61703e-027 9.98313e-013
f 26/48/21 23/49/21 25/50/21

v 19.9332 4.581 -42.5672
vt -215.986 161.85
f 23/49/21 26/48/21 28/51/21

usemtl BackColor
vn -6.31635e-015 1.69511e-016 1
f 25/50/22 23/49/22 26/48/22

f 28/51/22 26/48/22 23/49/22

usemtl Color_D03
v 19.9332 4.581 -49.1259
vt -258.215 161.85
vn -1 3.93235e-017 -0
vt 0 1.01036e-012
vt 0 161.85
f 29/52/23 23/53/23 28/54/23

vt -258.215 1.01036e-012
f 23/53/23 29/52/23 17/55/23

usemtl BackColor
vn 1 -3.93235e-017 0
f 28/54/24 23/53/24 29/52/24

f 17/55/24 29/52/24 23/53/24

usemtl Color_D03
vt 215.986 161.85
f 20/32/13 17/29/13 29/56/13

usemtl BackColor
f 20/32/14 17/29/14 18/30/14

f 29/56/14 17/29/14 20/32/14

usemtl Color_D03
v 18.159 3.67001 -49.1259
vt 146.135 125.984
f 20/32/13 29/56/13 30/57/13

usemtl BackColor
f 30/57/14 29/56/14 20/32/14

usemtl Color_D03
v 17.394 3.67001 -49.1259
vt 116.017 125.984
f 30/57/13 29/56/13 31/58/13

usemtl BackColor
f 31/58/14 29/56/14 30/57/14

usemtl Color_D03
vt 65.3374 125.984
f 31/58/13 29/56/13 4/59/13

usemtl BackColor
f 4/59/14 29/56/14 31/58/14

usemtl Color_D03
vt 35.2193 125.984
f 4/59/13 29/56/13 6/60/13

usemtl BackColor
f 6/60/14 29/56/14 4/59/14

usemtl Color_D03
vt 4.29672e-013 161.85
f 27/61/13 6/60/13 29/56/13

v 15.3417 2.90501 -49.1259
vt 35.2193 95.8664
f 27/61/13 32/62/13 6/60/13

f 27/61/13 22/35/13 32/62/13

vt 4.29672e-013 -5.17886e-012
f 24/63/13 22/35/13 27/61/13

vt 16.8347 -6.17717e-012
f 22/35/13 24/63/13 21/64/13

usemtl BackColor
f 21/64/14 24/63/14 22/35/14

vt 16.8347 258.215
f 21/65/18 23/43/18 24/42/18

vt 48.3735 258.215
f 19/66/18 23/43/18 21/65/18

usemtl _Tile_Ceramic_Natural_15
vt 1.38622 53.1943
f 19/38/17 23/37/17 17/67/17

usemtl BackColor
vt 215.986 258.215
f 17/68/18 23/43/18 19/66/18

f 27/61/14 22/35/14 24/63/14

f 32/62/14 22/35/14 27/61/14

usemtl Color_D03
f 32/62/13 22/35/13 20/32/13

usemtl BackColor
f 20/32/14 22/35/14 32/62/14

usemtl Color_D03
f 18/30/13 20/32/13 22/35/13

usemtl BackColor
f 22/35/14 20/32/14 18/30/14

f 22/35/16 18/30/16 21/33/16

usemtl Color_D03
v 17.394 2.90501 -49.1259
vt 116.017 95.8664
f 32/62/13 20/32/13 33/69/13

usemtl BackColor
f 33/69/14 20/32/14 32/62/14

usemtl Color_D03
vt 65.3374 95.8664
f 32/62/13 33/69/13 1/70/13

usemtl BackColor
f 1/70/14 33/69/14 32/62/14

usemtl Color_D03
f 31/58/13 1/70/13 33/69/13

f 1/70/13 31/58/13 4/59/13

usemtl BackColor
f 33/69/14 1/70/14 31/58/14

f 4/59/14 31/58/14 1/70/14

f 6/60/14 32/62/14 27/61/14

f 29/56/14 6/60/14 27/61/14

f 27/47/20 24/44/20 26/45/20

g Mesh6 CUA005 Model

usemtl Translucent_Glass_Blue
v 18.1279 3.64646 -49.1259
vt 144.912 125.057
v 17.4269 2.94546 -49.1259
vt 117.313 97.459
v 18.1279 2.94546 -49.1259
vt 144.912 97.459
f 34/71/5 35/72/5 36/73/5

v 17.4269 3.64646 -49.1259
vt 117.313 125.057
f 35/72/5 34/71/5 37/74/5

f 36/73/6 35/72/6 34/71/6

f 37/74/6 34/71/6 35/72/6

g Mesh7 CUA005 Model

l 27 29

l 24 27

l 24 21

l 25 24

l 23 25

l 23 28

l 17 23

l 19 17

l 19 18

l 21 19

l 21 22

l 18 22

l 17 29

l 29 28

l 28 26

l 25 26

l 26 27

g Mesh8 CUA005 Model

l 30 31

l 30 20

l 20 33

l 33 31

g Mesh9 CUA005 Model

l 32 1

l 6 32

l 4 6

l 1 4

g Mesh10 CUA005 Model

l 37 35

l 34 37

l 36 34

l 35 36

