# Alias OBJ Model File
# Exported from SketchUp, (c) 2000-2012 Trimble Navigation Limited
# File units = meters

mtllib AUL012.mtl

g Mesh1 ventana3_2_1 AUL012 Model

usemtl Color_000
v 1.60577 5.74793 -6.78973
vt 1.9685 2.46063
vn 0.00031484 -3.39234e-016 -1
v 1.65577 6.62293 -6.78971
vt -1.71065e-031 36.9094
v 1.65577 5.74793 -6.78971
vt -1.71065e-031 2.46063
f 1/1/1 2/2/1 3/3/1

v 1.60577 6.62293 -6.78973
vt 1.9685 36.9094
f 2/2/1 1/1/1 4/4/1

vn -0.00031484 3.39234e-016 1
f 3/3/2 2/2/2 1/1/2

vt -2.46063 2.46063
vn -1 -2.04934e-016 -0.00031484
v 1.65575 6.68543 -6.72721
vt 1.13687e-013 39.3701
vt -2.46063 36.9094
f 3/5/3 5/6/3 2/7/3

v 1.65575 5.68543 -6.72721
vt 0 0
f 3/5/3 6/8/3 5/6/3

v 1.65607 5.68543 -7.72721
vt -39.3701 2.84217e-014
f 6/8/3 3/5/3 7/9/3

vn 1 2.04934e-016 0.00031484
f 7/9/4 3/5/4 6/8/4

v 1.65605 5.74793 -7.66471
vt -36.9094 2.46063
f 8/10/3 7/9/3 3/5/3

v 1.65607 6.68543 -7.72721
vt -39.3701 39.3701
f 7/9/3 8/10/3 9/11/3

f 9/11/4 8/10/4 7/9/4

v 1.65606 6.16707 -7.68984
vt -37.8989 18.9621
f 9/11/3 8/10/3 10/12/3

f 10/12/4 8/10/4 9/11/4

v 1.65605 6.16707 -7.66471
vt -36.9094 18.9621
f 10/12/3 8/10/3 11/13/3

f 11/13/4 8/10/4 10/12/4

v 1.60605 6.16707 -7.66473
vt -1.9685 18.9621
vt 2.56597e-030 2.46063
vt 2.84217e-014 18.9621
f 12/14/2 8/15/2 11/16/2

v 1.60605 5.74793 -7.66473
vt -1.9685 2.46063
f 8/15/2 12/14/2 13/17/2

f 11/16/1 8/15/1 12/14/1

usemtl Translucent_Glass_Blue
v 1.656 6.16707 -7.50284
vt -30.5367 18.9621
f 11/13/3 8/10/3 14/18/3

f 14/18/4 8/10/4 11/13/4

f 8/10/3 2/7/3 14/18/3

f 2/7/3 8/10/3 3/5/3

f 3/5/4 8/10/4 2/7/4

usemtl Color_000
f 3/5/4 7/9/4 8/10/4

vt 36.9094 1.9685
vn -2.04836e-016 1 -3.13516e-016
vt 2.46063 1.21318e-031
vt 36.9094 1.21318e-031
f 13/19/5 3/20/5 8/21/5

vt 2.46063 1.9685
f 3/20/5 13/19/5 1/22/5

vn 2.04836e-016 -1 3.13516e-016
f 1/22/6 13/19/6 3/20/6

v 1.60607 5.68543 -7.72723
f 13/10/3 15/9/3 1/5/3

v 1.60607 6.68543 -7.72723
f 15/9/3 13/10/3 16/11/3

f 16/11/4 13/10/4 15/9/4

v 1.60606 6.16707 -7.68986
f 16/11/3 13/10/3 17/12/3

f 17/12/4 13/10/4 16/11/4

f 17/12/3 13/10/3 12/13/3

f 12/13/4 13/10/4 17/12/4

f 13/17/1 12/14/1 8/15/1

f 8/21/6 3/20/6 13/19/6

vt 36.9094 -2.84217e-014
vn -2.04827e-016 1 -3.39299e-016
vt 37.8989 1.9685
f 11/23/7 17/24/7 12/19/7

vt 37.8989 -4.26326e-014
f 17/24/7 11/23/7 10/25/7

vn 2.04827e-016 -1 3.39299e-016
f 12/19/8 17/24/8 11/23/8

v 1.606 6.19807 -7.50286
vt -30.5367 20.1826
f 12/13/3 18/26/3 17/12/3

v 1.606 6.16707 -7.50286
f 18/26/3 12/13/3 19/18/3

f 19/18/4 12/13/4 18/26/4

vt -36.9094 -2.84217e-014
vt -30.5367 1.9685
vt -36.9094 1.9685
f 11/27/8 19/28/8 12/29/8

vt -30.5367 -2.84217e-014
f 19/28/8 11/27/8 14/30/8

f 14/30/7 11/27/7 19/28/7

v 1.656 6.19807 -7.50284
f 20/26/3 11/13/3 14/18/3

f 11/13/3 20/26/3 10/12/3

f 14/18/4 11/13/4 20/26/4

f 10/12/4 20/26/4 11/13/4

v 1.65606 6.19807 -7.68984
vt -37.8989 20.1826
f 10/12/3 20/26/3 21/31/3

f 21/31/4 20/26/4 10/12/4

v 1.65605 6.19807 -7.66471
vt -36.9094 20.1826
f 21/31/3 20/26/3 22/32/3

f 22/32/4 20/26/4 21/31/4

vt 30.5367 1.9685
vt 30.5367 -2.84217e-014
f 22/23/7 18/33/7 20/34/7

v 1.60605 6.19807 -7.66473
f 18/33/7 22/23/7 23/19/7

f 20/34/8 18/33/8 22/23/8

vt -1.9685 20.1826
vt 2.84217e-014 20.1826
f 18/35/2 14/16/2 20/36/2

f 14/16/2 18/35/2 19/14/2

f 20/36/1 14/16/1 18/35/1

usemtl Translucent_Glass_Blue
f 14/18/3 2/7/3 20/26/3

f 14/18/4 2/7/4 8/10/4

f 20/26/4 2/7/4 14/18/4

f 20/26/3 2/7/3 22/32/3

f 22/32/4 2/7/4 20/26/4

v 1.65605 6.62293 -7.66471
vt -36.9094 36.9094
f 22/32/3 2/7/3 24/37/3

f 24/37/4 2/7/4 22/32/4

usemtl Color_000
f 2/7/3 5/6/3 24/37/3

f 2/7/4 5/6/4 3/5/4

f 24/37/4 5/6/4 2/7/4

f 9/11/3 24/37/3 5/6/3

f 9/11/3 21/31/3 24/37/3

f 9/11/3 10/12/3 21/31/3

f 21/31/4 10/12/4 9/11/4

vt 1.9685 18.9621
vt -4.26326e-014 20.1826
vt -4.26326e-014 18.9621
f 17/38/1 21/39/1 10/40/1

v 1.60606 6.19807 -7.68986
vt 1.9685 20.1826
f 21/39/1 17/38/1 25/41/1

f 10/40/2 21/39/2 17/38/2

f 25/41/2 17/38/2 21/39/2

f 17/12/3 18/26/3 25/31/3

f 17/12/4 18/26/4 12/13/4

f 25/31/4 18/26/4 17/12/4

f 25/31/3 18/26/3 23/32/3

f 23/32/4 18/26/4 25/31/4

f 23/19/8 22/23/8 18/33/8

f 22/23/7 25/24/7 23/19/7

f 25/24/7 22/23/7 21/25/7

f 23/19/8 25/24/8 22/23/8

v 1.60605 6.62293 -7.66473
f 26/37/3 25/31/3 23/32/3

f 16/11/3 25/31/3 26/37/3

f 16/11/3 17/12/3 25/31/3

f 25/31/4 17/12/4 16/11/4

f 26/37/4 25/31/4 16/11/4

f 23/32/4 25/31/4 26/37/4

vt -1.9685 36.9094
f 22/36/2 26/42/2 23/35/2

vt 2.84217e-014 36.9094
f 26/42/2 22/36/2 24/43/2

f 24/43/1 22/36/1 26/42/1

f 24/37/3 21/31/3 22/32/3

f 22/32/4 21/31/4 24/37/4

f 21/25/8 22/23/8 25/24/8

f 24/37/4 21/31/4 9/11/4

f 5/6/4 24/37/4 9/11/4

vt 39.3701 0
v 1.60575 6.68543 -6.72723
vt -5.68434e-014 1.9685
vt -1.13687e-013 0
f 9/44/7 27/45/7 5/46/7

vt 39.3701 1.9685
f 27/45/7 9/44/7 16/47/7

f 5/46/8 27/45/8 9/44/8

vt -1.9685 39.3701
vt -7.90359e-045 39.3701
f 27/48/2 6/8/2 5/49/2

v 1.60575 5.68543 -6.72723
vt -1.9685 0
f 6/8/2 27/48/2 28/50/2

f 5/49/1 6/8/1 27/48/1

f 5/6/4 6/8/4 3/5/4

f 28/50/1 27/48/1 6/8/1

vt -5.68434e-014 0
vt 5.68434e-014 39.3701
f 1/5/3 28/51/3 27/52/3

f 28/51/3 1/5/3 15/9/3

f 15/9/4 1/5/4 28/51/4

f 1/5/4 15/9/4 13/10/4

f 27/52/4 28/51/4 1/5/4

f 1/5/3 27/52/3 4/7/3

f 4/7/4 27/52/4 1/5/4

f 4/7/3 27/52/3 26/37/3

f 26/37/4 27/52/4 4/7/4

f 16/11/3 26/37/3 27/52/3

f 27/52/4 26/37/4 16/11/4

f 16/47/8 9/44/8 27/45/8

vt -2.73704e-030 39.3701
vt 1.9685 2.84217e-014
vt 1.9685 39.3701
f 9/53/1 15/54/1 16/55/1

vt -2.73704e-030 2.84217e-014
f 15/54/1 9/53/1 7/56/1

f 7/56/2 9/53/2 15/54/2

f 16/55/2 15/54/2 9/53/2

vt -39.3701 0
vt -39.3701 1.9685
f 7/57/8 28/45/8 15/58/8

f 28/45/8 7/57/8 6/8/8

f 6/8/7 7/57/7 28/45/7

f 15/58/7 28/45/7 7/57/7

vt -2.46063 0
vt -2.46063 1.9685
f 26/29/8 2/59/8 4/60/8

f 2/59/8 26/29/8 24/27/8

f 4/60/7 2/59/7 26/29/7

f 4/4/2 1/1/2 2/2/2

f 24/27/7 26/29/7 2/59/7

f 23/35/1 26/42/1 22/36/1

f 10/25/8 11/23/8 17/24/8

f 19/14/1 18/35/1 14/16/1

f 12/29/7 19/28/7 11/27/7

g Mesh2 ventana3_2_1 AUL012 Model

l 22 20

l 22 23

l 21 22

l 10 21

l 11 10

l 14 11

l 14 19

l 20 14

l 20 18

l 18 19

l 23 18

l 25 23

l 17 25

l 12 17

l 19 12

l 11 12

l 11 8

l 8 13

l 8 3

l 3 2

l 3 1

l 1 4

l 13 1

l 12 13

l 2 4

l 2 24

l 24 22

l 24 26

l 26 23

l 4 26

l 10 17

l 21 25

g Mesh3 ventana3_2_1 AUL012 Model

l 5 27

l 5 9

l 6 5

l 7 6

l 7 15

l 9 7

l 9 16

l 16 15

l 27 16

l 28 27

l 15 28

l 6 28

g Mesh4 ventana3_2_2 AUL012 Model

v 1.6053 5.74793 -5.28973
v 1.6553 6.62293 -5.28971
v 1.6553 5.74793 -5.28971
f 29/1/1 30/2/1 31/3/1

v 1.6053 6.62293 -5.28973
f 30/2/1 29/1/1 32/4/1

f 31/3/2 30/2/2 29/1/2

v 1.65528 6.68543 -5.22721
f 31/5/3 33/6/3 30/7/3

v 1.65528 5.68543 -5.22721
f 31/5/3 34/8/3 33/6/3

v 1.6556 5.68543 -6.22721
f 34/8/3 31/5/3 35/9/3

f 35/9/4 31/5/4 34/8/4

v 1.65558 5.74793 -6.16471
f 36/10/3 35/9/3 31/5/3

v 1.6556 6.68543 -6.22721
f 35/9/3 36/10/3 37/11/3

f 37/11/4 36/10/4 35/9/4

v 1.65559 6.16707 -6.18984
f 37/11/3 36/10/3 38/12/3

f 38/12/4 36/10/4 37/11/4

v 1.65558 6.16707 -6.16471
f 38/12/3 36/10/3 39/13/3

f 39/13/4 36/10/4 38/12/4

v 1.60558 6.16707 -6.16473
f 40/14/2 36/15/2 39/16/2

v 1.60558 5.74793 -6.16473
f 36/15/2 40/14/2 41/17/2

f 39/16/1 36/15/1 40/14/1

usemtl Translucent_Glass_Blue
v 1.65553 6.16707 -6.00284
f 39/13/3 36/10/3 42/18/3

f 42/18/4 36/10/4 39/13/4

f 36/10/3 30/7/3 42/18/3

f 30/7/3 36/10/3 31/5/3

f 31/5/4 36/10/4 30/7/4

usemtl Color_000
f 31/5/4 35/9/4 36/10/4

f 41/19/5 31/20/5 36/21/5

f 31/20/5 41/19/5 29/22/5

f 29/22/6 41/19/6 31/20/6

v 1.6056 5.68543 -6.22723
f 41/10/3 43/9/3 29/5/3

v 1.6056 6.68543 -6.22723
f 43/9/3 41/10/3 44/11/3

f 44/11/4 41/10/4 43/9/4

v 1.60559 6.16707 -6.18986
f 44/11/3 41/10/3 45/12/3

f 45/12/4 41/10/4 44/11/4

f 45/12/3 41/10/3 40/13/3

f 40/13/4 41/10/4 45/12/4

f 41/17/1 40/14/1 36/15/1

f 36/21/6 31/20/6 41/19/6

f 39/23/7 45/24/7 40/19/7

f 45/24/7 39/23/7 38/25/7

f 40/19/8 45/24/8 39/23/8

v 1.60553 6.19807 -6.00286
f 40/13/3 46/26/3 45/12/3

v 1.60553 6.16707 -6.00286
f 46/26/3 40/13/3 47/18/3

f 47/18/4 40/13/4 46/26/4

f 39/27/8 47/28/8 40/29/8

f 47/28/8 39/27/8 42/30/8

f 42/30/7 39/27/7 47/28/7

v 1.65553 6.19807 -6.00284
f 48/26/3 39/13/3 42/18/3

f 39/13/3 48/26/3 38/12/3

f 42/18/4 39/13/4 48/26/4

f 38/12/4 48/26/4 39/13/4

v 1.65559 6.19807 -6.18984
f 38/12/3 48/26/3 49/31/3

f 49/31/4 48/26/4 38/12/4

v 1.65558 6.19807 -6.16471
f 49/31/3 48/26/3 50/32/3

f 50/32/4 48/26/4 49/31/4

f 50/23/7 46/33/7 48/34/7

v 1.60558 6.19807 -6.16473
f 46/33/7 50/23/7 51/19/7

f 48/34/8 46/33/8 50/23/8

f 46/35/2 42/16/2 48/36/2

f 42/16/2 46/35/2 47/14/2

f 48/36/1 42/16/1 46/35/1

usemtl Translucent_Glass_Blue
f 42/18/3 30/7/3 48/26/3

f 42/18/4 30/7/4 36/10/4

f 48/26/4 30/7/4 42/18/4

f 48/26/3 30/7/3 50/32/3

f 50/32/4 30/7/4 48/26/4

v 1.65558 6.62293 -6.16471
f 50/32/3 30/7/3 52/37/3

f 52/37/4 30/7/4 50/32/4

usemtl Color_000
f 30/7/3 33/6/3 52/37/3

f 30/7/4 33/6/4 31/5/4

f 52/37/4 33/6/4 30/7/4

f 37/11/3 52/37/3 33/6/3

f 37/11/3 49/31/3 52/37/3

f 37/11/3 38/12/3 49/31/3

f 49/31/4 38/12/4 37/11/4

f 45/38/1 49/39/1 38/40/1

v 1.60559 6.19807 -6.18986
f 49/39/1 45/38/1 53/41/1

f 38/40/2 49/39/2 45/38/2

f 53/41/2 45/38/2 49/39/2

f 45/12/3 46/26/3 53/31/3

f 45/12/4 46/26/4 40/13/4

f 53/31/4 46/26/4 45/12/4

f 53/31/3 46/26/3 51/32/3

f 51/32/4 46/26/4 53/31/4

f 51/19/8 50/23/8 46/33/8

f 50/23/7 53/24/7 51/19/7

f 53/24/7 50/23/7 49/25/7

f 51/19/8 53/24/8 50/23/8

v 1.60558 6.62293 -6.16473
f 54/37/3 53/31/3 51/32/3

f 44/11/3 53/31/3 54/37/3

f 44/11/3 45/12/3 53/31/3

f 53/31/4 45/12/4 44/11/4

f 54/37/4 53/31/4 44/11/4

f 51/32/4 53/31/4 54/37/4

f 50/36/2 54/42/2 51/35/2

f 54/42/2 50/36/2 52/43/2

f 52/43/1 50/36/1 54/42/1

f 52/37/3 49/31/3 50/32/3

f 50/32/4 49/31/4 52/37/4

f 49/25/8 50/23/8 53/24/8

f 52/37/4 49/31/4 37/11/4

f 33/6/4 52/37/4 37/11/4

v 1.60528 6.68543 -5.22723
f 37/44/7 55/45/7 33/46/7

f 55/45/7 37/44/7 44/47/7

f 33/46/8 55/45/8 37/44/8

f 55/48/2 34/8/2 33/49/2

v 1.60528 5.68543 -5.22723
f 34/8/2 55/48/2 56/50/2

f 33/49/1 34/8/1 55/48/1

f 33/6/4 34/8/4 31/5/4

f 56/50/1 55/48/1 34/8/1

f 29/5/3 56/51/3 55/52/3

f 56/51/3 29/5/3 43/9/3

f 43/9/4 29/5/4 56/51/4

f 29/5/4 43/9/4 41/10/4

f 55/52/4 56/51/4 29/5/4

f 29/5/3 55/52/3 32/7/3

f 32/7/4 55/52/4 29/5/4

f 32/7/3 55/52/3 54/37/3

f 54/37/4 55/52/4 32/7/4

f 44/11/3 54/37/3 55/52/3

f 55/52/4 54/37/4 44/11/4

f 44/47/8 37/44/8 55/45/8

f 37/53/1 43/54/1 44/55/1

f 43/54/1 37/53/1 35/56/1

f 35/56/2 37/53/2 43/54/2

f 44/55/2 43/54/2 37/53/2

f 35/57/8 56/45/8 43/58/8

f 56/45/8 35/57/8 34/8/8

f 34/8/7 35/57/7 56/45/7

f 43/58/7 56/45/7 35/57/7

f 54/29/8 30/59/8 32/60/8

f 30/59/8 54/29/8 52/27/8

f 32/60/7 30/59/7 54/29/7

f 32/4/2 29/1/2 30/2/2

f 52/27/7 54/29/7 30/59/7

f 51/35/1 54/42/1 50/36/1

f 38/25/8 39/23/8 45/24/8

f 47/14/1 46/35/1 42/16/1

f 40/29/7 47/28/7 39/27/7

g Mesh5 ventana3_2_2 AUL012 Model

l 50 48

l 50 51

l 49 50

l 38 49

l 39 38

l 42 39

l 42 47

l 48 42

l 48 46

l 46 47

l 51 46

l 53 51

l 45 53

l 40 45

l 47 40

l 39 40

l 39 36

l 36 41

l 36 31

l 31 30

l 31 29

l 29 32

l 41 29

l 40 41

l 30 32

l 30 52

l 52 50

l 52 54

l 54 51

l 32 54

l 38 45

l 49 53

g Mesh6 ventana3_2_2 AUL012 Model

l 33 55

l 33 37

l 34 33

l 35 34

l 35 43

l 37 35

l 37 44

l 44 43

l 55 44

l 56 55

l 43 56

l 34 56

g Mesh7 AUL012 Model

usemtl _Color_C03_1
v 7.62502 8.28543 -4.40533
vt -4.399 141.732
vn -1 5.41432e-014 -0.00031484
v 7.62633 4.68543 -8.55533
vt -167.785 1.30023e-011
v 7.62502 4.68543 -4.40533
vt -4.399 1.29454e-011
f 57/61/9 58/62/9 59/63/9

v 7.62633 8.28543 -8.55533
vt -167.785 141.732
f 58/62/9 57/61/9 60/64/9

usemtl _7
vt -1.43903 0.962408
vn 1 -5.41432e-014 0.00031484
vt -2.79391 0.962408
vt -1.43903 1.70186
f 59/65/10 58/66/10 57/67/10

usemtl FrontColor
v 7.11502 4.68543 -4.40549
vt -216.919 4.33071
vn -3.26107e-015 -1 1.52673e-015
vt -237.049 167.71
vt -236.998 4.32439
f 61/68/11 58/69/11 59/70/11

v 6.74633 4.68543 -8.55561
vt -202.403 167.721
f 61/68/11 62/71/11 58/69/11

v 7.11499 4.68543 -4.29549
vt -216.918 -1.42712e-027
f 63/72/11 62/71/11 61/68/11

v 6.74499 4.68543 -4.29561
vt -202.351 0.00458625
f 62/71/11 63/72/11 64/73/11

usemtl _Tile_Ceramic_Natural_7
vt -4.79729 3.0552
vn 3.26107e-015 1 -1.52673e-015
vt -5.06045 3.05512
vt -4.79824 6.08507
f 64/74/12 63/75/12 62/76/12

usemtl _Color_C03_1
vt -202.351 5.89104e-013
vn 0.00031484 -3.02651e-013 -1
v 7.11499 8.28543 -4.29549
vt -216.918 141.732
vt -216.918 2.48043e-013
f 64/77/13 65/78/13 63/79/13

v 6.74499 7.68543 -4.29561
vt -202.351 118.11
f 65/78/13 64/77/13 66/80/13

usemtl _7
vt -2.32244 0.962408
vn -0.00031484 3.02651e-013 1
vt -2.32244 1.70186
vt -2.20164 0.962408
f 63/81/14 65/82/14 64/83/14

vt -2.20164 1.57862
f 66/84/14 64/83/14 65/82/14

usemtl _Color_C03_1
v 1.97499 8.28543 -4.29711
vt -14.5554 141.732
f 66/80/13 67/85/13 65/78/13

v 5.79499 7.68543 -4.29591
vt -164.949 118.11
f 68/86/13 67/85/13 66/80/13

v 1.97499 4.68543 -4.29711
vt -14.5554 1.27122e-012
f 68/86/13 69/87/13 67/85/13

v 5.79499 4.68543 -4.29591
vt -164.949 2.19621e-013
f 69/87/13 68/86/13 70/88/13

usemtl _7
vt -1.89149 0.962408
vt -1.89149 1.57862
vt -0.644347 0.962408
f 70/89/14 68/90/14 69/91/14

vt -0.644347 1.70186
f 67/92/14 69/91/14 68/90/14

usemtl _Color_C03_1
v 1.97504 4.68543 -4.45711
vt 6.36751 1.29725e-012
vn 1 -3.20837e-015 0.00031484
vt 0.0682942 141.732
vt 0.0682942 1.29725e-012
f 71/93/15 67/94/15 69/95/15

v 1.97504 8.28543 -4.45711
vt 6.36751 141.732
f 67/94/15 71/93/15 72/96/15

usemtl _7
vt 1.40311 0.962408
vn -1 3.20837e-015 -0.00031484
vt 1.40311 1.70186
vt 1.45535 0.962408
f 69/97/16 67/98/16 71/99/16

vt 1.45535 1.70186
f 72/100/16 71/99/16 67/98/16

usemtl _Color_C03_1
v 1.65504 4.68543 -4.45721
vt -1.95695 1.48048e-012
vn 0.00031484 -4.01062e-016 -1
vt -14.5554 1.25311e-012
f 73/101/17 72/85/17 71/102/17

v 1.65504 8.28543 -4.45721
vt -1.95695 141.732
f 72/85/17 73/101/17 74/103/17

usemtl _7
vn -0.00031484 4.01062e-016 1
vt -0.539875 0.962408
f 71/91/18 72/92/18 73/104/18

vt -0.539875 1.70186
f 74/105/18 73/104/18 72/92/18

usemtl _Color_C03_1
vt 6.36751 1.50199e-012
vn 1 -1.22952e-014 0.00031484
v 1.65528 5.68543 -5.22721
vt 36.6825 39.3701
f 73/106/19 75/107/19 74/96/19

v 1.65575 4.68543 -6.72721
vt 95.7376 1.6617e-013
f 75/107/19 73/106/19 76/108/19

usemtl BackColor
vn -1 1.22952e-014 -0.00031484
f 74/96/20 75/107/20 73/106/20

usemtl _Color_C03_1
v 1.65528 6.68543 -5.22721
vt 36.6825 78.7402
f 77/109/19 74/96/19 75/107/19

v 1.65633 8.28543 -8.55721
vt 167.785 141.732
f 74/96/19 77/109/19 78/110/19

usemtl BackColor
f 78/110/20 77/109/20 74/96/20

usemtl _Color_C03_1
v 1.6556 6.68543 -6.22721
vt 76.0525 78.7402
f 78/110/19 77/109/19 79/111/19

usemtl BackColor
f 79/111/20 77/109/20 78/110/20

usemtl _Color_C03_1
v 1.65575 6.68543 -6.72721
vt 95.7376 78.7402
f 78/110/19 79/111/19 80/112/19

usemtl BackColor
f 80/112/20 79/111/20 78/110/20

usemtl _Color_C03_1
f 80/112/19 79/111/19 76/108/19

usemtl BackColor
f 76/108/20 79/111/20 80/112/20

usemtl _Color_C03_1
v 1.6556 5.68543 -6.22721
vt 76.0525 39.3701
f 81/113/19 76/108/19 79/111/19

f 75/107/19 76/108/19 81/113/19

usemtl BackColor
f 76/108/20 73/106/20 75/107/20

usemtl FrontColor
vt -1.9871 95.737
vt -14.5574 6.36292
vt -1.95896 6.36689
f 76/114/11 71/115/11 73/116/11

v 1.65607 4.68543 -7.72721
vt -1.99949 135.107
f 71/115/11 76/114/11 82/117/11

usemtl _Tile_Ceramic_Natural_7
vt -1.17713 3.17014
vt -1.40472 3.17007
vt -1.17763 4.78465
f 73/118/12 71/119/12 76/120/12

vt -1.17786 5.49588
f 82/121/12 76/120/12 71/119/12

usemtl _Color_C03_1
vt 135.108 2.40612e-014
vt 95.7376 39.3701
f 82/122/19 6/123/19 76/108/19

v 1.65607 5.68543 -7.72721
vt 135.108 39.3701
f 6/123/19 82/122/19 83/124/19

usemtl BackColor
f 76/108/20 6/123/20 82/122/20

usemtl _Color_C03_1
f 80/112/19 76/108/19 6/123/19

usemtl BackColor
f 6/123/20 76/108/20 80/112/20

f 83/124/20 82/122/20 6/123/20

usemtl _Color_C03_1
v 1.65633 4.68543 -8.55721
vt 167.785 2.40612e-014
f 83/124/19 82/122/19 84/125/19

usemtl BackColor
f 84/125/20 82/122/20 83/124/20

usemtl FrontColor
vt -2.00978 167.784
f 71/115/11 82/117/11 84/126/11

usemtl _Tile_Ceramic_Natural_7
vt -1.17804 6.08621
f 84/127/12 82/121/12 71/119/12

usemtl FrontColor
v 1.98633 4.68543 -8.55711
vt -15.0019 167.78
f 71/115/11 84/126/11 85/128/11

usemtl _Tile_Ceramic_Natural_7
vt -1.41275 6.08614
f 85/129/12 84/127/12 71/119/12

usemtl _Color_C03_1
vt 14.9491 3.26537e-012
vn -0.00031484 6.24893e-015 1
vt 1.95695 141.732
vt 1.95695 1.04848e-012
f 85/130/21 78/131/21 84/132/21

v 5.79633 6.78543 -8.55591
vt 164.949 82.6772
f 78/131/21 85/130/21 86/133/21

usemtl _7
vt 0.539875 0.962408
vn 0.00031484 -6.24893e-015 -1
vt 0.539875 1.70186
vt 0.647612 0.962408
f 84/134/22 78/135/22 85/136/22

usemtl _Color_C03_1
v 1.65607 6.68543 -7.72721
vt 135.108 78.7402
f 78/110/19 87/137/19 84/125/19

f 78/110/19 80/112/19 87/137/19

usemtl BackColor
f 87/137/20 80/112/20 78/110/20

f 84/125/20 87/137/20 78/110/20

usemtl _Color_C03_1
f 83/124/19 84/125/19 87/137/19

usemtl BackColor
f 87/137/20 84/125/20 83/124/20

usemtl _7
vt 1.89149 1.39376
f 86/138/22 85/136/22 78/135/22

usemtl _Color_C03_1
v 5.79633 4.68543 -8.55591
vt 164.949 1.4748e-012
f 86/133/21 85/130/21 88/139/21

usemtl _7
vt 1.89149 0.962408
f 88/140/22 85/136/22 86/138/22

usemtl FrontColor
vt -164.949 0.0163617
vt -165.002 167.733
f 70/141/11 85/128/11 88/142/11

f 70/141/11 71/115/11 85/128/11

vt -14.5554 0.0637116
f 71/115/11 70/141/11 69/143/11

usemtl _Tile_Ceramic_Natural_7
vt -1.40469 3.05627
vt -4.12161 3.05541
f 69/144/12 70/145/12 71/119/12

f 85/129/12 71/119/12 70/145/12

vt -4.12257 6.08528
f 88/146/12 85/129/12 70/145/12

usemtl FrontColor
f 70/141/11 88/142/11 64/73/11

usemtl _Tile_Ceramic_Natural_7
f 64/74/12 88/146/12 70/145/12

usemtl FrontColor
v 5.79637 4.68543 -8.67591
vt -165.003 172.457
f 64/73/11 88/142/11 89/147/11

usemtl _Tile_Ceramic_Natural_7
vt -4.12259 6.17063
f 89/148/12 88/146/12 64/74/12

usemtl _Color_C03_1
vt 172.509 1.33388e-012
vn 1 -5.50201e-015 0.00031484
vt 167.785 82.6772
vt 167.785 1.33388e-012
f 89/149/23 86/150/23 88/151/23

v 5.79637 6.78543 -8.67591
vt 172.509 82.6772
f 86/150/23 89/149/23 90/152/23

usemtl _7
vt 2.79391 0.962408
vn -1 5.50201e-015 -0.00031484
vt 2.79391 1.39376
vt 2.83308 0.962408
f 88/153/24 86/154/24 89/155/24

vt 2.83308 1.39376
f 90/156/24 89/155/24 86/154/24

usemtl _Color_C03_1
vn -8.05501e-014 -1 -2.53604e-017
v 6.74633 6.78543 -8.55561
f 90/147/25 91/71/25 86/142/25

v 6.74637 6.78543 -8.67561
vt -202.405 172.446
f 91/71/25 90/147/25 92/157/25

usemtl _7
vt -1.89237 1.75742
vn 8.05501e-014 1 2.53604e-017
vt -2.20252 1.75736
vt -1.89238 1.78207
f 86/158/26 91/159/26 90/160/26

usemtl _Color_C03_1
vt 202.351 82.6772
vt 236.996 141.732
f 91/161/21 60/162/21 86/133/21

vt 236.996 1.21901e-012
f 91/161/21 58/163/21 60/162/21

vt 202.351 1.10532e-012
f 58/163/21 91/161/21 62/164/21

usemtl _7
vt 2.20164 0.962408
vt 2.20164 1.39376
vt 2.48894 0.962408
f 62/165/22 91/166/22 58/167/22

usemtl _Color_C03_1
vt -167.785 82.6772
vn -1 1.64865e-014 -0.00031484
v 6.74637 4.68543 -8.67561
vt -172.509 3.36448e-012
vt -167.785 3.39291e-012
f 91/168/27 93/169/27 62/170/27

vt -172.509 82.6772
f 93/169/27 91/168/27 92/171/27

usemtl _7
vn 1 -1.64865e-014 0.00031484
vt -2.83308 0.962408
vt -2.79391 1.39376
f 62/66/28 93/172/28 91/173/28

usemtl FrontColor
f 62/71/11 89/147/11 93/157/11

f 64/73/11 89/147/11 62/71/11

usemtl _Tile_Ceramic_Natural_7
f 62/76/12 89/148/12 64/74/12

vt -4.79827 6.17042
f 93/174/12 89/148/12 62/76/12

usemtl _7
vt -2.83308 1.39376
f 92/175/28 91/173/28 93/172/28

vt -2.20254 1.78201
f 92/176/26 90/160/26 91/159/26

vt 2.48894 1.70186
f 60/177/22 58/167/22 91/166/22

vt -2.79391 1.70186
f 60/178/10 57/67/10 58/66/10

f 86/138/22 60/177/22 91/166/22

usemtl _Color_C03_1
f 86/133/21 60/162/21 78/131/21

usemtl _7
f 78/135/22 60/177/22 86/138/22

usemtl _Tile_Ceramic_Natural_7
vt -5.42413 6.08487
vt -5.06047 3.13335
f 58/179/12 62/76/12 61/180/12

f 61/180/12 62/76/12 63/75/12

vt -5.4232 3.13324
f 59/181/12 58/179/12 61/180/12

usemtl BackColor
f 81/113/20 76/108/20 75/107/20

f 79/111/20 76/108/20 81/113/20

f 75/107/20 74/96/20 77/109/20

usemtl _7
f 66/84/14 67/92/14 68/90/14

f 65/82/14 67/92/14 66/84/14

g Mesh8 AUL012 Model

l 84 78

l 84 85

l 82 84

l 76 82

l 73 76

l 73 74

l 73 71

l 71 72

l 69 71

l 69 67

l 69 70

l 70 68

l 70 64

l 64 66

l 64 63

l 63 65

l 63 61

l 61 59

l 59 58

l 59 57

l 57 60

l 58 60

l 62 58

l 62 91

l 62 93

l 93 92

l 89 93

l 89 90

l 89 88

l 88 86

l 85 88

l 90 86

l 90 92

l 92 91

l 86 91

l 78 60

l 74 78

l 74 72

l 67 72

l 67 65

l 66 68

g Mesh9 AUL012 Model

l 87 80

l 83 87

l 6 83

l 80 6

g Mesh10 AUL012 Model

l 81 79

l 75 81

l 77 75

l 79 77

g Mesh11 Model

v 138.951 3.33 -157.425
v 138.951 3.3 -157.425
l 94 95

g Mesh12 Model

v 117.469 3.4 -184.196
v 117.443 3.4 -184.095
l 96 97

