# Alias OBJ Model File
# Exported from SketchUp, (c) 2000-2012 Trimble Navigation Limited
# File units = meters

mtllib COM006.mtl

g Mesh1 COM006 Model

usemtl _Color_C03_2
v 12.8928 4.68543 -57.2112
vt 3.60025 2.27325e-012
vn 0.866183 7.86111e-018 -0.499727
v 12.9103 8.28543 -57.169
vt 1.80166 141.732
vn 0.966007 -6.05227e-014 -0.258515
v 12.9103 4.68543 -57.169
vt 1.80166 2.27325e-012
f 1/1/1 2/2/2 3/3/2

v 12.8928 8.28543 -57.2112
vt 3.60025 141.732
f 2/2/2 1/1/1 4/4/1

usemtl _7
vt 15.6341 0.962408
vn -0.966007 6.05227e-014 0.258515
vt 15.6341 1.70186
vt 15.649 0.962408
vn -0.866183 -7.86111e-018 0.499727
f 3/5/3 2/6/3 1/7/4

usemtl _Color_C03_2
vt 3.83768 141.732
v 12.9103 4.68543 -57.1687
vt 3.82603 3.15761e-012
vn 0.991486 -1.20069e-013 -0.130214
vt 3.83768 3.15761e-012
f 2/8/2 5/9/5 3/10/2

v 12.9103 8.28543 -57.1687
vt 3.82603 141.732
f 5/9/5 2/8/2 6/11/5

usemtl _7
vt 17.9565 1.70186
vn -0.991486 1.20069e-013 0.130214
vt 17.9566 1.70186
vt 17.9565 0.962408
f 6/12/6 2/13/3 5/14/6

vt 17.9566 0.962408
f 3/15/3 5/14/6 2/13/3

vt -4.21491 11.7427
vn -2.58147e-015 -1 6.08351e-015
v 12.9679 4.68543 -62.6387
vt -4.23374 12.8662
vt -4.21492 11.7427
f 3/16/7 7/17/7 5/18/7

vt -4.2092 11.7514
f 1/19/7 7/17/7 3/16/7

v 12.865 4.68543 -57.2474
vt -4.20013 11.7589
f 8/20/7 7/17/7 1/19/7

v 12.8579 4.68543 -62.6387
vt -4.19783 12.8663
f 8/20/7 9/21/7 7/17/7

v 12.8579 4.68543 -62.4887
vt -4.19781 12.8354
f 8/20/7 10/22/7 9/21/7

v 12.8576 4.68543 -61.4387
vt -4.1977 12.6198
f 8/20/7 11/23/7 10/22/7

v 12.8562 4.68543 -57.2541
vt -4.19727 11.7602
f 11/23/7 8/20/7 12/24/7

usemtl _Tile_Ceramic_Natural_7
vt -9.14385 40.7213
vn 2.58147e-015 1 -6.08351e-015
vt -9.15006 40.7165
vt -9.14478 43.6975
f 12/25/8 8/26/8 11/27/8

usemtl _Color_C03_2
v 12.8562 8.28543 -57.2541
vt 1.23724 141.732
vn 0.609011 -5.7399e-014 -0.793162
vt 0.803335 2.80661e-012
vn 0.707329 -2.89693e-014 -0.706884
vt 1.23724 2.80661e-012
f 13/28/9 8/29/10 12/30/9

v 12.865 8.28543 -57.2474
vt 0.803335 141.732
f 8/29/10 13/28/9 14/31/10

usemtl _7
vt 8.05463 0.962408
vn -0.609011 5.7399e-014 0.793162
vt 8.05103 0.962408
vn -0.707329 2.89693e-014 0.706884
vt 8.05463 1.70186
f 12/32/11 8/33/12 13/34/11

vt 8.05103 1.70186
f 14/35/12 13/34/11 8/33/12

usemtl _Color_C03_2
vt 1.38017 141.732
vt 3.17876 2.27412e-012
vt 3.17876 141.732
f 4/36/1 8/37/10 14/38/10

vt 1.38017 2.27412e-012
f 8/37/10 4/36/1 1/39/1

usemtl _7
vt 12.2606 0.962408
vt 12.2606 1.70186
vt 12.2755 0.962408
f 1/40/4 4/41/4 8/42/12

vt 15.649 1.70186
f 4/43/4 1/7/4 2/6/3

vt 12.2755 1.70186
f 14/44/12 8/42/12 4/41/4

usemtl _Tile_Ceramic_Natural_7
vt -9.16984 40.6907
vt -9.22329 44.551
f 1/45/8 7/46/8 8/26/8

vt -9.18226 40.6607
f 3/47/8 7/46/8 1/45/8

vt -9.18229 40.6605
f 5/48/8 7/46/8 3/47/8

usemtl _7
v 12.9103 4.68543 -57.1687
vt -4.21493 11.7427
f 5/18/7 7/17/7 15/49/7

usemtl _Tile_Ceramic_Natural_7
vt -9.18232 40.6605
f 15/50/8 7/46/8 5/48/8

usemtl _7
v 13.3862 4.68543 -57.1685
vt -4.3703 11.7427
f 15/49/7 7/17/7 16/51/7

usemtl _Tile_Ceramic_Natural_7
vt -9.52078 40.6604
f 16/52/8 7/46/8 15/50/8

usemtl _7
v 12.968 4.68543 -62.9187
vt -4.23377 12.9238
f 16/51/7 7/17/7 17/53/7

usemtl _Tile_Ceramic_Natural_7
vt -9.22335 44.7501
f 17/54/8 7/46/8 16/52/8

usemtl _Color_C03_1
v 12.968 8.28543 -62.9187
vt 231.132 141.732
vn 1 -1.0708e-013 0.00031484
vt 220.108 9.63799e-013
vt 231.132 9.63799e-013
f 18/55/13 7/56/13 17/57/13

v 12.9679 8.28543 -62.6387
vt 220.108 141.732
f 7/56/13 18/55/13 19/58/13

usemtl _7
vt 20.4514 1.70186
vn -1 1.0708e-013 -0.00031484
vt 20.5428 1.70186
vt 20.4514 0.962408
f 19/59/14 18/60/14 7/61/14

vt 20.5428 0.962408
f 17/62/14 7/61/14 18/60/14

usemtl _Color_C03_1
vt 9.00069 7.42332e-012
vn -0.00031484 3.21172e-014 1
v 14.688 8.28543 -62.9181
vt 76.7172 141.732
vt 9.00069 141.732
f 17/63/15 20/64/15 18/65/15

v 14.688 4.68543 -62.9181
vt 76.7172 7.42332e-012
f 20/64/15 17/63/15 21/66/15

usemtl _7
vt 4.78884 0.962408
vn 0.00031484 -3.21172e-014 -1
vt 4.2273 0.962408
vt 4.78884 1.70186
f 21/67/16 17/68/16 20/69/16

vt -4.79531 12.9236
f 16/51/7 17/53/7 21/70/7

usemtl _Tile_Ceramic_Natural_7
vt -10.4467 44.7497
f 21/71/8 17/54/8 16/52/8

usemtl _7
v 14.688 4.68543 -62.8731
vt -4.7953 12.9144
f 16/51/7 21/70/7 22/72/7

usemtl _Tile_Ceramic_Natural_7
vt -10.4467 44.7177
f 22/73/8 21/71/8 16/52/8

usemtl _Color_C03_1
vt -231.132 7.45147e-012
vn -1 9.7129e-014 -0.00031484
vt -229.36 7.45147e-012
v 14.688 7.68543 -62.8731
vt -229.36 118.11
f 21/74/17 22/75/17 23/76/17

usemtl _7
vt -20.5282 1.57862
vn 1 -9.7129e-014 0.00031484
vt -20.5282 0.962408
vt -20.5428 0.962408
f 23/77/18 22/78/18 21/79/18

usemtl _Color_C03_1
vt -231.132 141.732
f 23/76/17 20/80/17 21/74/17

v 14.6874 7.68543 -60.9731
vt -154.557 118.11
f 24/81/17 20/80/17 23/76/17

v 14.6874 8.28543 -60.8481
vt -149.636 141.732
f 20/80/17 24/81/17 25/82/17

usemtl _7
vt -19.867 1.70186
vt -19.9078 1.57862
vt -20.5428 1.70186
f 25/83/18 24/84/18 20/85/18

usemtl _Color_C03_1
v 14.6874 4.68543 -60.9731
vt -154.557 7.59358e-012
f 26/86/17 25/82/17 24/81/17

v 14.6874 4.68543 -60.8481
vt -149.636 7.59358e-012
f 25/82/17 26/86/17 27/87/17

usemtl _7
vt -19.867 0.962408
vt -19.9078 0.962408
f 27/88/18 26/89/18 25/83/18

vt -4.79511 12.5241
vt -4.7951 12.4985
f 16/51/7 26/90/7 27/91/7

f 16/51/7 22/72/7 26/90/7

usemtl _Tile_Ceramic_Natural_7
vt -10.4462 43.3664
f 26/92/8 22/73/8 16/52/8

vt -10.4462 43.2775
f 27/93/8 26/92/8 16/52/8

usemtl _7
v 15.1362 4.68543 -57.048
vt -4.94162 11.7179
f 28/94/7 16/51/7 27/91/7

v 13.3862 4.68543 -57.0485
vt -4.37029 11.718
f 16/51/7 28/94/7 29/95/7

usemtl _Tile_Ceramic_Natural_7
vt -9.52076 40.5751
vt -10.7654 40.5747
f 29/96/8 28/97/8 16/52/8

f 27/93/8 16/52/8 28/97/8

usemtl _7
v 15.1362 4.68543 -57.168
vt -4.94163 11.7425
f 28/94/7 27/91/7 30/98/7

usemtl _Tile_Ceramic_Natural_7
vt -10.7655 40.66
f 30/99/8 27/93/8 28/97/8

usemtl _7
v 15.4874 4.68543 -60.8479
vt -5.05628 12.4984
f 30/98/7 27/91/7 31/100/7

usemtl _Tile_Ceramic_Natural_7
vt -11.0152 43.2773
f 31/101/8 27/93/8 30/99/8

usemtl _Color_C03_1
vt 108.213 4.225e-012
vn -0.00031484 1.28501e-014 1
vt 76.7172 2.06495e-012
f 31/102/19 25/64/19 27/103/19

v 15.4874 8.28543 -60.8479
vt 108.213 141.732
f 25/64/19 31/102/19 32/104/19

usemtl _7
vn 0.00031484 -1.28501e-014 -1
vt 5.05002 0.962408
f 27/67/20 25/69/20 31/105/20

vt 5.05002 1.70186
f 32/106/20 31/105/20 25/69/20

usemtl _Color_C03_1
vt -149.636 2.64925e-012
vn -1 3.20748e-015 -0.00031484
v 15.4872 8.28543 -60.3579
vt -130.345 141.732
f 31/107/21 33/108/21 32/82/21

v 15.4872 4.68543 -60.3579
vt -130.345 2.67767e-012
f 33/108/21 31/107/21 34/109/21

usemtl _7
vt -19.7071 0.962408
vn 1 -3.20748e-015 0.00031484
vt -19.7071 1.70186
f 34/110/22 31/88/22 33/111/22

vt -5.05623 12.3978
f 30/98/7 31/100/7 34/112/7

usemtl _Tile_Ceramic_Natural_7
vt -11.0151 42.9288
f 34/113/8 31/101/8 30/99/8

usemtl _7
v 15.6962 4.68543 -57.1678
vt -5.12446 11.7425
f 34/112/7 35/114/7 30/98/7

v 15.6972 4.68543 -60.3578
vt -5.12479 12.3977
f 35/114/7 34/112/7 36/115/7

usemtl _Tile_Ceramic_Natural_7
vt -11.1637 40.6599
f 30/99/8 35/116/8 34/113/8

usemtl _Color_C03_1
vt -94.4338 3.45281e-013
vn 0.00031484 1.70471e-014 -1
v 15.6962 8.28543 -57.1678
vt -116.481 141.732
vt -116.481 1.17907e-013
f 30/117/23 37/118/23 35/119/23

v 15.1362 6.78543 -57.168
vt -94.4338 82.6772
f 37/118/23 30/117/23 38/120/23

usemtl _7
vt -5.11858 0.962408
vn -0.00031484 -1.70471e-014 1
vt -5.11858 1.70186
vt -4.93576 0.962408
f 35/121/24 37/122/24 30/123/24

usemtl _Color_C03_1
v 15.6972 8.28543 -60.3578
vn -1 -1.76467e-014 -0.00031484
vt -4.75414 -1.85656e-012
vt -4.75414 141.732
f 39/108/25 35/124/25 37/125/25

vt -130.345 -1.54392e-012
f 35/124/25 39/108/25 36/126/25

usemtl _7
vt -18.6656 1.70186
vn 1 1.76467e-014 0.00031484
vt -18.6656 0.962408
f 37/127/26 35/128/26 39/111/26

f 36/110/26 39/111/26 35/128/26

usemtl _Color_C03_1
vt 116.481 141.732
vn -0.00031484 3.21152e-015 1
vt 108.213 2.74919e-012
vt 116.481 9.30196e-013
f 39/129/27 34/130/27 36/131/27

f 34/130/27 39/129/27 33/104/27

usemtl _7
vt 5.11858 0.962408
vn 0.00031484 -3.21152e-015 -1
vt 5.11858 1.70186
f 36/132/28 34/105/28 39/133/28

usemtl _Tile_Ceramic_Natural_7
vt -11.1645 42.9287
f 36/134/8 34/113/8 35/116/8

usemtl _7
f 33/106/28 39/133/28 34/105/28

vt -4.93576 1.39376
f 38/135/24 30/123/24 37/122/24

usemtl _Color_C03_1
vt -0.0297315 -2.7966e-012
vn -1 -3.41289e-014 -0.00031484
vt -4.75414 82.6772
vt -4.75414 -2.7966e-012
f 28/136/29 38/137/29 30/138/29

v 15.1362 6.78543 -57.048
vt -0.0297315 82.6772
f 38/137/29 28/136/29 40/139/29

usemtl _7
vt -18.6264 1.39376
vn 1 3.41289e-014 0.00031484
vt -18.6264 0.962408
vt -18.6656 1.39376
f 40/140/30 28/141/30 38/142/30

f 30/128/30 38/142/30 28/141/30

usemtl _Color_C03_1
vt -94.4338 -3.4539e-014
vn -1.02115e-013 -1 4.17758e-016
v 13.3862 6.78543 -57.1685
vt -25.5376 4.7461
vt -94.4353 4.72441
f 40/143/31 41/144/31 38/145/31

v 13.3862 6.78543 -57.0485
vt -25.5361 0.0216917
f 41/144/31 40/143/31 42/146/31

usemtl _7
vn 1.02115e-013 1 -4.17758e-016
f 42/95/32 40/94/32 41/51/32

f 38/98/32 41/51/32 40/94/32

usemtl _Color_C03_1
vt -25.5361 82.6772
f 37/118/23 38/120/23 41/147/23

usemtl _7
vt -4.36442 1.39376
f 41/148/24 38/135/24 37/122/24

usemtl _Color_C03_1
v 12.9103 8.28543 -57.1687
vt -6.80051 141.732
f 37/118/23 41/147/23 43/149/23

usemtl _7
vt -4.20906 1.70186
f 43/150/24 41/148/24 37/122/24

usemtl _Color_C03_1
vt -6.80051 2.19269e-012
f 41/147/23 15/151/23 43/149/23

vt -25.5361 3.45281e-013
f 15/151/23 41/147/23 16/152/23

usemtl _7
vt -4.36442 0.962408
vt -4.20906 0.962408
f 16/153/24 41/148/24 15/154/24

usemtl _Color_C03_1
vt 0.0297315 82.6772
vn 1 -1.25982e-014 0.00031484
vt 4.75414 7.48035e-013
vt 4.75414 82.6772
f 42/155/33 16/156/33 41/157/33

vt 0.0297315 7.48035e-013
f 16/156/33 42/155/33 29/158/33

usemtl _7
vt 18.6264 0.962408
vn -1 1.25982e-014 -0.00031484
vt 18.6264 1.39376
vt 18.6656 0.962408
f 29/159/34 42/160/34 16/161/34

vt 18.6656 1.39376
f 41/162/34 16/161/34 42/160/34

f 43/150/24 15/154/24 41/148/24

f 32/83/22 33/111/22 31/88/22

f 24/84/18 25/83/18 26/89/18

f 23/77/18 20/85/18 24/84/18

f 21/79/18 20/85/18 23/77/18

vt 4.2273 1.70186
f 18/163/16 20/69/16 17/68/16

usemtl _Color_C03_1
vn -0.00031484 -1.02501e-014 1
vt 4.66998 -2.25613e-012
vt 9.00069 -2.25613e-012
f 19/65/35 9/164/35 7/165/35

v 12.8579 7.68543 -62.6387
vt 4.66998 118.11
f 9/164/35 19/65/35 44/166/35

usemtl _7
vn 0.00031484 1.02501e-014 -1
vt 4.19139 0.962408
f 7/68/36 9/167/36 19/163/36

usemtl _Tile_Ceramic_Natural_7
vt -9.14505 44.551
f 7/46/8 9/168/8 8/26/8

vt -9.14502 44.4443
f 9/168/8 10/169/8 8/26/8

usemtl _Color_C03_1
vt 220.108 4.74372e-013
vn 1 -1.01579e-013 0.00031484
vt 220.108 118.11
vt 214.203 4.74372e-013
f 9/170/37 44/171/37 10/172/37

usemtl _7
vt 4.19139 1.57862
f 44/173/36 19/163/36 9/167/36

usemtl _Color_C03_1
v 12.8579 8.28543 -62.6387
vt 4.66998 141.732
f 44/166/35 19/65/35 45/174/35

usemtl _7
vt 4.19139 1.70186
f 45/175/36 19/163/36 44/173/36

usemtl _Color_C03_1
f 45/58/37 10/172/37 44/171/37

v 12.8579 6.78543 -62.4887
vt 214.203 82.6772
f 45/58/37 46/176/37 10/172/37

v 12.8576 6.78543 -61.4387
vt 172.864 82.6772
f 45/58/37 47/177/37 46/176/37

vt 8.11843 141.732
f 13/178/37 47/177/37 45/58/37

vt 172.864 5.88059e-013
f 13/178/37 11/179/37 47/177/37

vt 8.11843 2.74811e-012
f 11/179/37 13/178/37 12/180/37

usemtl _7
vt 18.6935 0.962408
vn -1 1.01579e-013 -0.00031484
vt 18.6935 1.70186
vt 20.0597 0.962408
f 12/181/38 13/182/38 11/183/38

vt 20.0597 1.39376
f 47/184/38 11/183/38 13/182/38

usemtl _Color_C03_1
vt -4.66998 -2.66095e-012
vn 0.00031484 1.60509e-014 -1
v 12.7376 6.78543 -61.4387
vt 0.0544245 82.6772
vt -4.66998 82.6772
f 11/185/39 48/186/39 47/187/39

v 12.7376 4.68543 -61.4387
vt 0.0544245 -2.66095e-012
f 48/186/39 11/185/39 49/188/39

usemtl _7
vt -4.15221 0.962408
vn -0.00031484 -1.60509e-014 1
vt -4.19139 0.962408
vt -4.15221 1.39376
f 49/189/40 11/190/40 48/191/40

v 12.7379 4.68543 -62.4887
vt -4.15863 12.8355
vt -4.15853 12.6198
f 50/192/7 11/23/7 49/193/7

f 11/23/7 50/192/7 10/22/7

usemtl _Tile_Ceramic_Natural_7
vt -9.05944 43.6975
vt -9.05967 44.4443
f 49/194/8 11/27/8 50/195/8

f 10/169/8 50/195/8 11/27/8

usemtl _Color_C03_1
vt 4.66998 82.6772
vn -0.00031484 -2.19769e-014 1
vt -0.0544245 -4.59382e-012
vt 4.66998 -4.70751e-012
f 46/196/41 50/197/41 10/198/41

v 12.7379 6.78543 -62.4887
vt -0.0544245 82.6772
f 50/197/41 46/196/41 51/199/41

usemtl _7
vn 0.00031484 2.19769e-014 -1
vt 4.15221 0.962408
vt 4.19139 1.39376
f 10/167/42 50/200/42 46/201/42

vt 4.15221 1.39376
f 51/202/42 46/201/42 50/200/42

usemtl _Color_C03_1
vt -4.72441 172.863
vn -2.50445e-016 -1 8.84543e-014
vt -0.013015 214.203
vt -4.73742 214.201
f 47/203/43 51/204/43 46/205/43

vt -1.18027e-011 172.864
f 51/204/43 47/203/43 48/206/43

usemtl _7
vn 2.50445e-016 1 -8.84543e-014
f 48/193/44 47/23/44 51/192/44

vt -4.19139 1.39376
f 47/207/40 48/191/40 11/190/40

f 46/22/44 51/192/44 47/23/44

vt 20.4025 1.39376
f 46/208/38 47/184/38 45/59/38

f 45/59/38 47/184/38 13/182/38

vt 20.4025 0.962408
f 10/209/38 46/208/38 45/59/38

vt 20.4514 1.57862
f 44/210/38 10/209/38 45/59/38

f 10/209/38 44/210/38 9/61/38

usemtl _Tile_Ceramic_Natural_7
f 10/169/8 11/27/8 8/26/8

g Mesh2 COM006 Model

l 3 1

l 15 16

l 15 43

l 37 43

l 35 37

l 35 36

l 30 35

l 30 28

l 30 38

l 40 38

l 28 40

l 28 29

l 29 16

l 29 42

l 42 41

l 42 40

l 41 38

l 16 41

l 34 36

l 34 31

l 34 33

l 33 32

l 33 39

l 37 39

l 36 39

l 31 32

l 27 31

l 27 26

l 27 25

l 25 32

l 25 20

l 21 20

l 22 21

l 26 22

l 26 24

l 23 24

l 22 23

l 17 21

l 7 17

l 9 7

l 10 9

l 50 10

l 49 50

l 11 49

l 11 12

l 11 47

l 48 47

l 49 48

l 51 48

l 50 51

l 51 46

l 46 47

l 10 46

l 8 12

l 1 8

l 12 13

l 14 13

l 4 14

l 2 4

l 5 6

l 45 13

l 45 19

l 44 45

l 9 44

l 19 18

l 7 19

l 17 18

l 18 20

g Mesh3 Model

v 138.951 3.33 -157.425
v 138.951 3.3 -157.425
l 52 53

g Mesh4 Model

v 117.469 3.4 -184.196
v 117.443 3.4 -184.095
l 54 55

