# Alias OBJ Model File
# Exported from SketchUp, (c) 2000-2012 Trimble Navigation Limited
# File units = meters

mtllib COM041.mtl

g Mesh1 COM041 Model

usemtl _Color_C03_2
v 12.9161 4.68543 -95.1187
vt 216.047 3.05225e-014
vn 0.923759 3.70449e-016 0.382974
v 12.9047 8.28543 -95.0912
vt 214.875 141.732
vn 0.865868 3.72964e-016 0.500273
v 12.9047 4.68543 -95.0912
vt 214.875 3.05225e-014
f 1/1/1 2/2/2 3/3/2

v 12.9161 8.28543 -95.1187
vt 216.047 141.732
f 2/2/2 1/1/1 4/4/1

usemtl _7
vt 30.2917 0.962408
vn -0.865868 -3.72964e-016 -0.500273
vt 30.2917 1.70186
vt 30.3014 0.962408
vn -0.923759 -3.70449e-016 -0.382974
f 3/5/3 2/6/3 1/7/4

usemtl _Color_C03_2
v 12.8769 8.28543 -95.0549
vt 184.43 141.732
vn 0.706884 3.84785e-016 0.707329
vt 186.229 4.99019e-014
vt 186.229 141.732
f 5/8/5 3/9/2 2/10/2

v 12.8769 4.68543 -95.0549
vt 184.43 4.99019e-014
f 3/9/2 5/8/5 6/11/5

usemtl _7
vt 27.1747 0.962408
vn -0.706884 -3.84785e-016 -0.707329
vt 27.1747 1.70186
vt 27.1896 0.962408
f 6/12/6 5/13/6 3/14/3

usemtl _Color_C03_2
vt 143.153 141.732
v 12.8681 4.68543 -95.0482
vt 142.72 7.02409e-014
vn 0.608512 3.93889e-016 0.793545
vt 143.153 7.02409e-014
f 5/15/5 7/16/7 6/17/5

v 12.8681 8.28543 -95.0482
vt 142.72 141.732
f 7/16/7 5/15/5 8/18/7

usemtl _7
vt 22.2202 0.962408
vt 22.2166 0.962408
vn -0.608512 -3.93889e-016 -0.793545
vt 22.2202 1.70186
f 6/19/6 7/20/8 5/21/6

usemtl FrontColor
v 12.8751 4.68543 -89.5124
vt -5.01608 10.4118
vn 5.72024e-015 -1 9.49459e-016
vt -4.74045 228.357
vt -5.08478 228.621
f 9/22/9 7/23/9 6/24/9

v 12.8681 4.68543 -94.8038
vt -4.73742 218.732
f 9/22/9 10/25/9 7/23/9

v 12.8677 4.68543 -93.7538
vt -4.72441 177.393
f 9/22/9 11/26/9 10/25/9

v 12.8664 4.68543 -89.5206
vt -4.67194 10.7333
f 9/22/9 12/27/9 11/26/9

v 12.8664 4.68543 -89.5191
vt -4.67192 10.676
f 12/27/9 9/22/9 13/28/9

usemtl _Tile_Ceramic_Natural_7
vt -9.15107 63.6694
vn -5.72024e-015 1 -9.49459e-016
vt -9.15729 63.6646
vt -9.15107 63.6704
f 13/29/10 9/30/10 12/31/10

usemtl _Color_C03_2
v 12.8664 8.28543 -89.5191
vt 2.79622 141.732
vn 0.609011 -1.44377e-016 -0.793162
vt 2.36232 5.84768e-014
vn 0.707329 -9.49645e-017 -0.706884
vt 2.79622 5.84768e-014
f 14/32/11 9/33/12 13/34/11

v 12.8751 8.28543 -89.5124
vt 2.36232 141.732
f 9/33/12 14/32/11 15/35/12

usemtl _7
vt 14.4672 0.962408
vn -0.609011 1.44377e-016 0.793162
vt 14.4636 0.962408
vn -0.707329 9.49645e-017 0.706884
vt 14.4672 1.70186
f 13/36/13 9/37/14 14/38/13

vt 14.4636 1.70186
f 15/39/14 14/38/13 9/37/14

usemtl _Color_C03_2
v 12.9029 8.28543 -89.4762
vt 3.41127 141.732
vn 0.866183 7.86111e-018 -0.499727
vt 5.20986 5.72966e-014
vt 5.20986 141.732
f 16/40/15 9/41/12 15/42/12

v 12.9029 4.68543 -89.4762
vt 3.41127 5.72966e-014
f 9/41/12 16/40/15 17/43/15

usemtl _7
vt 20.6176 0.962408
vn -0.866183 -7.86111e-018 0.499727
vt 20.6176 1.70186
vt 20.6325 0.962408
f 17/44/16 16/45/16 9/46/14

usemtl _Color_C03_2
v 12.9204 8.28543 -89.434
vt 4.16646 141.732
vn 0.966007 1.10151e-016 -0.258515
vt 5.96505 5.63029e-014
vt 5.96505 141.732
f 18/47/17 17/48/15 16/49/15

v 12.9204 4.68543 -89.434
vt 4.16646 2.2732e-012
f 17/48/15 18/47/17 19/50/17

usemtl _7
vt 25.3661 0.962408
vn -0.966007 -1.10151e-016 0.258515
vt 25.3661 1.70186
vt 25.381 0.962408
f 19/51/18 18/52/18 17/53/16

usemtl _Color_C03_2
v 12.9264 8.28543 -89.3887
vt 4.57643 141.732
vn 1 2.04934e-016 0.00031484
vt 6.37502 2.27251e-012
vt 6.37502 141.732
f 20/54/19 19/55/17 18/56/17

v 12.9264 4.68543 -89.3887
vt 4.57643 5.56208e-014
f 19/55/17 20/54/19 21/57/19

usemtl _7
vt 28.3854 0.962408
vn -1 -2.04934e-016 -0.00031484
vt 28.3854 1.70186
vt 28.4003 0.962408
f 21/58/20 20/59/20 19/60/18

usemtl _Color_C03_2
v 12.9237 8.28543 -89.3687
vt 5.61764 141.732
vn 0.991404 2.4746e-016 0.130838
vt 6.41183 5.52975e-014
vt 6.41183 141.732
f 22/61/21 21/62/19 20/63/19

v 12.9237 4.68543 -89.3687
vt 5.61764 5.52975e-014
f 21/62/19 22/61/21 23/64/21

usemtl _7
vt 29.4781 0.962408
vn -0.991404 -2.4746e-016 -0.130838
vt 29.4781 1.70186
vt 29.4847 0.962408
f 23/65/22 22/66/22 21/67/20

vt 29.4847 1.70186
f 20/68/20 21/67/20 22/66/22

usemtl FrontColor
vt -7.03251 5.53933
v 12.9252 4.68543 -89.3687
vt -6.98712 4.75194
vt -6.9286 4.75196
f 21/69/9 24/70/9 23/71/9

v 13.3964 4.68543 -89.3685
vt -25.5362 4.7461
f 24/70/9 21/69/9 25/72/9

usemtl _Tile_Ceramic_Natural_7
vt -9.19184 63.5624
vt -9.1929 63.5624
vt -9.19372 63.5766
f 23/73/10 24/74/10 21/75/10

vt -9.52799 63.5622
f 25/76/10 21/75/10 24/74/10

usemtl FrontColor
v 14.6982 4.68543 -95.1181
vt -76.7886 231.108
f 21/69/9 26/77/9 25/72/9

vt -6.79831 7.3226
f 19/78/9 26/77/9 21/69/9

vt -6.62894 231.13
f 19/78/9 1/79/9 26/77/9

vt -6.18014 230.047
f 19/78/9 3/80/9 1/79/9

vt -6.11054 8.9845
f 17/81/9 3/80/9 19/78/9

f 17/81/9 6/24/9 3/80/9

f 9/22/9 6/24/9 17/81/9

usemtl _Tile_Ceramic_Natural_7
vt -9.15853 67.6066
vt -9.15231 67.6019
f 6/82/10 7/83/10 9/30/10

vt -9.15226 67.428
f 7/83/10 10/84/10 9/30/10

usemtl _Color_C03_1
vt 228.358 1.24921e-013
vn 1 -2.6758e-014 0.00031484
v 12.8681 6.78543 -94.8038
vt 218.733 82.6772
vt 218.733 1.24921e-013
f 7/85/23 27/86/23 10/87/23

vt 228.358 141.732
f 8/88/23 27/86/23 7/85/23

v 12.8677 6.78543 -93.7538
vt 177.395 82.6772
f 8/88/23 28/89/23 27/86/23

v 12.8664 8.28543 -89.5206
vt 10.7348 141.732
f 28/89/23 8/88/23 29/90/23

usemtl _7
vt 29.2278 1.70186
vn -1 2.6758e-014 -0.00031484
vt 31.0324 1.70186
vt 30.6098 1.39376
f 29/91/24 8/92/24 28/93/24

vt 30.9526 1.39376
f 27/94/24 28/93/24 8/92/24

usemtl _Color_C03_1
vn -2.22738e-016 -1 4.49838e-016
v 12.7481 6.78543 -94.8038
vt -0.013015 218.733
f 28/26/25 30/95/25 27/25/25

v 12.7477 6.78543 -93.7538
vt 1.84153e-014 177.395
f 30/95/25 28/26/25 31/96/25

usemtl _7
vt -4.16185 19.2574
vn 2.22738e-016 1 -4.49838e-016
vt -4.20103 19.2574
vt -4.16196 19.4731
f 31/97/26 28/98/26 30/99/26

usemtl _Color_C03_1
vt -4.66856 1.93498e-013
vn 0.00031484 -4.49908e-016 -1
vt 0.0558509 82.6772
vt -4.66856 82.6772
f 11/100/27 31/101/27 28/102/27

v 12.7477 4.68543 -93.7538
vt 0.0558509 1.93498e-013
f 31/101/27 11/100/27 32/103/27

usemtl _7
vt -4.15221 0.962408
vn -0.00031484 4.49908e-016 1
vt -4.19139 0.962408
vt -4.15221 1.39376
f 32/104/28 11/105/28 31/106/28

usemtl FrontColor
v 12.7481 4.68543 -94.8038
vt -6.50316e-028 177.395
f 33/95/9 11/26/9 32/107/9

f 11/26/9 33/95/9 10/25/9

usemtl _Tile_Ceramic_Natural_7
vt -9.06667 66.6812
vt -9.15202 66.6812
vt -9.06691 67.428
f 32/108/10 11/109/10 33/110/10

f 10/84/10 33/110/10 11/109/10

usemtl _Color_C03_1
vt 4.66856 82.6772
vn -0.00031484 -2.5655e-016 1
vt -0.0558509 5.75708e-014
vt 4.66856 -5.6116e-014
f 27/111/29 33/112/29 10/113/29

vt -0.0558509 82.6772
f 33/112/29 27/111/29 30/114/29

usemtl _7
vt 4.19139 0.962408
vn 0.00031484 2.5655e-016 -1
vt 4.15221 0.962408
vt 4.19139 1.39376
f 10/115/30 33/116/30 27/117/30

vt 4.15221 1.39376
f 30/118/30 27/117/30 33/116/30

vt -4.20113 19.4731
f 27/119/26 30/99/26 28/98/26

vt 30.9526 0.962408
vt 31.0324 0.962408
f 10/120/24 27/94/24 7/121/24

f 7/121/24 27/94/24 8/92/24

vt 22.2166 1.70186
f 8/122/8 5/21/6 7/20/8

usemtl _Tile_Ceramic_Natural_7
f 10/84/10 11/109/10 9/30/10

f 11/109/10 12/31/10 9/30/10

usemtl _Color_C03_1
vt 177.395 2.38608e-013
vt 10.7348 1.81765e-013
f 11/123/23 29/90/23 12/124/23

f 29/90/23 11/123/23 28/89/23

usemtl _7
vt 29.2278 0.962408
vt 30.6098 0.962408
f 12/125/24 29/91/24 11/126/24

f 28/93/24 11/126/24 29/91/24

vt -4.19139 1.39376
f 28/127/28 31/106/28 11/105/28

usemtl _Tile_Ceramic_Natural_7
vt -9.17706 63.6388
f 17/128/10 6/82/10 9/30/10

vt -9.17832 67.6324
f 3/129/10 6/82/10 17/128/10

vt -9.18949 63.6088
f 19/130/10 3/129/10 17/128/10

vt -9.18643 67.652
f 1/131/10 3/129/10 19/130/10

vt -10.4539 67.6516
f 26/132/10 1/131/10 19/130/10

usemtl FrontColor
vt -6.55617 141.732
vn 0.00031484 6.07125e-020 -1
vt -76.7158 -1.40326e-017
vt -6.55617 -1.40326e-017
f 4/133/31 26/134/31 1/135/31

v 14.6982 8.28543 -95.1181
vt -76.7158 141.732
f 26/134/31 4/133/31 34/136/31

usemtl _Color_C03_1
vn -0.00031484 -6.07125e-020 1
f 1/135/32 26/134/32 4/133/32

f 34/136/32 4/133/32 26/134/32

vt -231.132 6.05955e-013
vn -1 7.8987e-015 -0.00031484
v 14.6981 7.68543 -94.9181
vt -223.258 118.11
vt -231.132 141.732
f 26/137/33 35/138/33 34/139/33

v 14.6981 4.68543 -94.9181
vt -223.258 6.05955e-013
f 35/138/33 26/137/33 36/140/33

usemtl _7
vt -30.9901 0.962408
vn 1 -7.8987e-015 0.00031484
vt -31.0554 0.962408
vt -30.9901 1.57862
f 36/141/34 26/142/34 35/143/34

usemtl FrontColor
vt -76.7861 223.234
f 25/72/9 26/77/9 36/144/9

usemtl _Tile_Ceramic_Natural_7
f 25/76/10 26/132/10 21/75/10

vt -10.4538 67.5093
f 36/145/10 26/132/10 25/76/10

usemtl FrontColor
v 14.6975 4.68543 -92.8931
vt -76.761 143.51
f 25/72/9 36/144/9 37/146/9

usemtl _Tile_Ceramic_Natural_7
vt -10.4534 66.0691
f 37/147/10 36/145/10 25/76/10

usemtl FrontColor
v 14.6975 4.68543 -93.0181
vt -76.7625 148.431
f 37/146/9 36/144/9 38/148/9

usemtl _Tile_Ceramic_Natural_7
vt -10.4534 66.158
f 38/149/10 36/145/10 37/147/10

usemtl _Color_C03_1
v 14.6975 8.28543 -92.8931
vt -143.534 141.732
vt -148.455 7.48063e-013
vt -143.534 7.48063e-013
f 39/150/33 38/151/33 37/152/33

v 14.6975 7.68543 -93.0181
vt -148.455 118.11
f 38/151/33 39/150/33 40/153/33

usemtl _7
vt -30.329 0.962408
vt -30.3698 0.962408
vt -30.329 1.70186
f 37/154/34 38/155/34 39/156/34

vt -30.3698 1.57862
f 40/157/34 39/156/34 38/155/34

usemtl _Color_C03_1
f 34/139/33 40/153/33 39/150/33

f 40/153/33 34/139/33 35/138/33

usemtl _7
vt -31.0554 1.70186
f 39/156/34 40/157/34 34/158/34

f 35/143/34 34/158/34 40/157/34

f 34/158/34 35/143/34 26/142/34

usemtl _Color_C03_1
v 15.4975 4.68543 -92.8929
vt 108.212 2.35085e-012
vn -0.00031484 3.39234e-016 1
vt 76.7158 141.732
vt 76.7158 1.908e-013
f 41/159/35 39/160/35 37/161/35

v 15.4975 8.28543 -92.8929
vt 108.212 141.732
f 39/160/35 41/159/35 42/162/35

usemtl _7
vt 4.78884 0.962408
vn 0.00031484 -3.39234e-016 -1
vt 4.78884 1.70186
vt 5.05002 0.962408
f 37/163/36 39/164/36 41/165/36

vt 5.05002 1.70186
f 42/166/36 41/165/36 39/164/36

usemtl _Color_C03_1
v 15.4973 4.68543 -92.4029
vt -124.242 3.46671e-014
vt -143.534 2.27998e-012
f 43/167/20 42/150/20 41/168/20

v 15.4973 8.28543 -92.4029
vt -124.242 141.732
f 42/150/20 43/167/20 44/169/20

usemtl _7
vt -30.169 1.70186
vt -30.169 0.962408
f 44/170/19 43/171/19 42/156/19

usemtl _Color_C03_1
v 15.7073 4.68543 -92.4028
vt 116.48 2.37273e-012
vt 108.212 9.89907e-014
f 45/172/35 44/162/35 43/173/35

v 15.7073 8.28543 -92.4028
vt 116.48 141.732
f 44/162/35 45/172/35 46/174/35

usemtl _7
vt 5.11858 0.962408
f 43/165/36 44/166/36 45/175/36

vt 5.11858 1.70186
f 46/176/36 45/175/36 44/166/36

usemtl _Color_C03_1
v 15.7064 4.68543 -89.3678
vt -4.75414 1.75081e-013
vt -124.242 2.30671e-012
f 47/177/20 46/169/20 45/178/20

v 15.7064 8.28543 -89.3678
vt -4.75414 141.732
f 46/169/20 47/177/20 48/179/20

usemtl _7
vt -29.1782 1.70186
vt -29.1782 0.962408
f 48/180/19 47/181/19 46/170/19

usemtl _Color_C03_1
v 15.1464 4.68543 -89.368
vt -94.4323 5.08493e-013
vn 0.00031484 -5.32669e-015 -1
vt -116.48 141.732
vt -116.48 2.24276e-013
f 49/182/37 48/183/37 47/184/37

v 15.1464 6.78543 -89.368
vt -94.4323 82.6772
f 48/183/37 49/182/37 50/185/37

usemtl _7
vt -5.11858 0.962408
vn -0.00031484 5.32669e-015 1
vt -5.11858 1.70186
vt -4.93576 0.962408
f 47/186/38 48/187/38 49/188/38

vt -4.93576 1.39376
f 50/189/38 49/188/38 48/187/38

usemtl _Color_C03_1
v 15.1463 4.68543 -89.248
vt -0.029731 -5.20926e-012
vn -1 -6.02805e-014 -0.00031484
vt -4.75414 82.6772
vt -4.75414 -5.20926e-012
f 51/190/39 50/191/39 49/192/39

v 15.1463 6.78543 -89.248
vt -0.029731 82.6772
f 50/191/39 51/190/39 52/193/39

usemtl _7
vt -29.139 1.39376
vn 1 6.02805e-014 0.00031484
vt -29.139 0.962408
vt -29.1782 1.39376
f 52/194/40 51/195/40 50/196/40

f 49/181/40 50/196/40 51/195/40

usemtl FrontColor
v 15.0963 4.68543 -89.248
vt -92.4638 0.000619763
vt -94.4338 4.72441
vt -94.4323 5.41257e-029
f 53/197/9 49/198/9 51/199/9

vt -108.257 143.5
f 53/197/9 41/200/9 49/198/9

f 53/197/9 37/146/9 41/200/9

f 53/197/9 25/72/9 37/146/9

v 13.3963 4.68543 -89.2485
vt -25.5347 0.0216917
f 25/72/9 53/197/9 54/201/9

usemtl _Tile_Ceramic_Natural_7
vt -9.52797 63.4769
vt -10.7371 63.4765
f 54/202/10 53/203/10 25/76/10

f 37/147/10 25/76/10 53/203/10

vt -11.0224 66.0689
f 41/204/10 37/147/10 53/203/10

vt -10.7727 63.5619
f 49/205/10 41/204/10 53/203/10

usemtl FrontColor
vt -108.251 124.208
f 49/198/9 41/200/9 43/206/9

usemtl _Tile_Ceramic_Natural_7
vt -11.0223 65.7204
f 43/207/10 41/204/10 49/205/10

usemtl _7
f 41/154/19 42/156/19 43/171/19

usemtl FrontColor
vt -116.481 4.71747
f 43/206/9 47/208/9 49/198/9

vt -116.519 124.206
f 47/208/9 43/206/9 45/209/9

usemtl _Tile_Ceramic_Natural_7
vt -11.171 63.5617
f 49/205/10 47/210/10 43/207/10

vt -11.1716 65.7203
f 45/211/10 43/207/10 47/210/10

usemtl _7
f 45/171/19 46/170/19 47/181/19

usemtl _Tile_Ceramic_Natural_7
vt -10.7726 63.4765
f 51/212/10 49/205/10 53/203/10

usemtl _Color_C03_1
vt 4.75414 1.72768e-012
vn 1 -4.98512e-014 0.00031484
v 13.3963 6.78543 -89.2485
vt 0.029731 82.6772
vt 0.029731 1.75611e-012
f 25/213/41 55/214/41 54/215/41

v 13.3964 6.78543 -89.3685
vt 4.75414 82.6772
f 55/214/41 25/213/41 56/216/41

usemtl _7
vt 29.139 0.962408
vn -1 4.98512e-014 -0.00031484
vt 29.139 1.39376
vt 29.1782 0.962408
f 54/217/42 55/218/42 25/219/42

vt 29.1782 1.39376
f 56/220/42 25/219/42 55/218/42

usemtl _Color_C03_1
vt -25.5347 4.80071e-013
v 12.9252 8.28543 -89.3687
vt -6.98562 141.732
vt -25.5347 82.6772
f 25/221/37 57/222/37 56/223/37

vt -6.98562 8.21672e-014
f 57/222/37 25/221/37 24/224/37

usemtl _7
vt -4.2106 0.962408
vt -4.36442 0.962408
vt -4.2106 1.70186
f 24/225/38 25/226/38 57/227/38

vt -4.36442 1.39376
f 56/228/38 57/227/38 25/226/38

usemtl _Color_C03_1
f 48/183/37 56/223/37 57/222/37

f 48/183/37 50/185/37 56/223/37

usemtl _7
f 56/228/38 50/189/38 48/187/38

usemtl _Color_C03_1
vt -94.4323 -3.5033e-014
vn -8.31394e-014 -1 4.23732e-016
f 52/229/43 56/72/43 50/198/43

f 56/72/43 52/229/43 55/201/43

usemtl _7
vt -4.3736 18.332
vn 8.31394e-014 1 -4.23732e-016
vt -4.94493 18.3319
vt -4.37361 18.3567
f 55/230/44 52/231/44 56/232/44

vt -4.94494 18.3566
f 50/233/44 56/232/44 52/231/44

f 57/227/38 56/228/38 48/187/38

usemtl _Tile_Ceramic_Natural_7
f 21/75/10 26/132/10 19/130/10

usemtl _7
vt 30.3014 1.70186
f 4/234/4 1/7/4 2/6/3

vt 28.4003 1.70186
f 18/235/18 19/60/18 20/59/20

vt 25.381 1.70186
f 16/236/16 17/53/16 18/52/18

vt 20.6325 1.70186
f 15/237/14 9/46/14 16/45/16

vt 27.1896 1.70186
f 2/238/3 3/14/3 5/13/6

g Mesh2 COM041 Model

l 3 1

l 6 3

l 7 6

l 10 7

l 10 27

l 33 10

l 33 30

l 32 33

l 32 31

l 11 32

l 11 28

l 12 11

l 12 29

l 12 13

l 9 13

l 17 9

l 19 17

l 21 19

l 23 21

l 23 22

l 24 23

l 24 57

l 24 25

l 25 56

l 54 25

l 54 55

l 54 53

l 53 51

l 51 52

l 49 51

l 49 50

l 49 47

l 47 45

l 47 48

l 48 46

l 57 48

l 45 46

l 45 43

l 43 44

l 43 41

l 41 37

l 41 42

l 42 39

l 44 42

l 46 44

l 37 39

l 37 38

l 38 40

l 36 38

l 26 36

l 26 34

l 1 26

l 1 4

l 2 4

l 5 2

l 8 5

l 29 8

l 7 8

l 4 34

l 39 34

l 36 35

l 40 35

l 52 50

l 52 55

l 55 56

l 50 56

l 22 20

l 20 18

l 18 16

l 16 15

l 15 14

l 13 14

l 31 28

l 31 30

l 30 27

l 28 27

g Mesh3 Model

v 138.951 3.33 -157.425
v 138.951 3.3 -157.425
l 58 59

g Mesh4 Model

v 117.469 3.4 -184.196
v 117.443 3.4 -184.095
l 60 61

