# Alias OBJ Model File
# Exported from SketchUp, (c) 2000-2012 Trimble Navigation Limited
# File units = meters

mtllib COM019.mtl

g Mesh1 COM019 Model

usemtl _Color_C03_1
v 9.24446 8.28543 -2.62482
vt -0.02008 141.732
vn -1 6.17498e-014 -0.00031484
v 9.24448 7.68543 -2.68482
vt -2.38228 118.11
v 9.24446 4.68543 -2.62482
vt -0.02008 4.16569e-012
f 1/1/1 2/2/1 3/3/1

v 9.24774 8.28543 -13.0448
vt -410.256 141.732
f 2/2/1 1/1/1 4/4/1

vn 1 -6.17498e-014 0.00031484
f 3/3/2 2/2/2 1/1/2

v 9.24448 4.68543 -2.68482
vt -2.38228 4.16569e-012
f 3/3/1 2/2/1 5/5/1

f 5/5/2 2/2/2 3/3/2

vt -63.7787 118.11
vn 0.00031484 5.12641e-016 -1
v 9.36448 4.68543 -2.68479
vt -68.5031 2.26152e-013
vt -63.7787 2.26152e-013
f 2/6/3 6/7/3 5/8/3

v 9.36448 7.68543 -2.68479
vt -68.5031 118.11
f 6/7/3 2/6/3 7/9/3

usemtl _7
vt -3.01784 0.962408
vn -0.00031484 -5.12641e-016 1
vt -3.05701 0.962408
vt -3.01784 1.57862
f 5/10/4 6/11/4 2/12/4

usemtl FrontColor
v 9.24478 4.68543 -3.63482
vt -63.7912 39.7638
vn 4.12748e-015 -1 -2.28724e-015
vt -68.5038 2.36072
vt -63.7794 2.3622
f 8/13/5 6/14/5 5/15/5

v 9.36478 4.68543 -3.63479
vt -68.5156 39.7623
f 6/14/5 8/13/5 9/16/5

usemtl _Tile_Ceramic_Natural_7
vt -6.57502 1.90955
vn -4.12748e-015 1 2.28724e-015
vt -6.66037 1.90952
vt -6.57524 2.58522
f 5/17/6 6/18/6 8/19/6

vt -6.66058 2.5852
f 9/20/6 8/19/6 6/18/6

usemtl _Color_C03_1
v 9.36478 7.68543 -3.63479
vt 68.5031 118.11
vn -0.00031484 5.04403e-014 1
vt 63.7787 2.23408e-012
vt 68.5031 2.23408e-012
f 10/21/7 8/22/7 9/23/7

v 9.24478 7.68543 -3.63482
vt 63.7787 118.11
f 8/22/7 10/21/7 11/24/7

vn 0.00031484 -5.04403e-014 -1
f 9/23/8 8/22/8 10/21/8

f 11/24/8 10/21/8 8/22/8

vn -2.15082e-016 -1 -2.38672e-014
f 7/14/9 11/13/9 10/16/9

f 11/13/9 7/14/9 2/15/9

usemtl _7
vt -3.01811 0.551474
vn 2.15082e-016 1 2.38672e-014
vt -3.05729 0.551466
vt -3.01821 0.746608
f 2/25/10 7/26/10 11/27/10

vt -3.05701 1.57862
f 7/28/4 2/12/4 6/11/4

vt -3.05739 0.7466
f 10/29/10 11/27/10 7/26/10

usemtl _Color_C03_1
vt -39.7839 118.11
f 2/2/1 4/4/1 11/30/1

f 4/4/2 1/1/2 2/2/2

f 11/30/2 4/4/2 2/2/2

v 9.24608 7.68543 -7.77482
vt -202.776 118.11
f 11/30/1 4/4/1 12/31/1

f 12/31/2 4/4/2 11/30/2

v 9.24638 7.68543 -8.72482
vt -240.178 118.11
f 12/31/1 4/4/1 13/32/1

f 13/32/2 4/4/2 12/31/2

v 9.24645 7.68543 -8.92482
vt -248.052 118.11
f 13/32/1 4/4/1 14/33/1

f 14/33/2 4/4/2 13/32/2

v 9.24675 7.68543 -9.87482
vt -285.453 118.11
f 14/33/1 4/4/1 15/34/1

f 15/34/2 4/4/2 14/33/2

v 9.24774 7.68543 -13.0448
vt -410.256 118.11
f 16/35/1 15/34/1 4/4/1

v 9.24778 4.68543 -13.1648
vt -414.981 4.87623e-012
f 17/36/1 15/34/1 16/35/1

v 9.24675 4.68543 -9.87482
vt -285.453 5.16045e-012
f 15/34/1 17/36/1 18/37/1

f 18/37/2 17/36/2 15/34/2

usemtl FrontColor
v 9.24638 4.68543 -8.72482
vt -63.8543 240.157
vt -63.9093 414.961
vt -63.8685 285.433
f 19/38/5 17/39/5 18/40/5

v 9.24608 4.68543 -7.77482
vt -63.8425 202.756
f 20/41/5 17/39/5 19/38/5

f 8/13/5 17/39/5 20/41/5

f 5/15/5 17/39/5 8/13/5

vt -63.7787 1.98952e-012
f 3/42/5 17/39/5 5/15/5

v 7.74778 4.68543 -13.1653
vt -4.85419 414.979
f 3/42/5 21/43/5 17/39/5

v 7.74736 4.68543 -11.8153
vt -4.83745 361.83
f 3/42/5 22/44/5 21/43/5

v 7.74706 4.68543 -10.8653
vt -4.82568 324.428
f 3/42/5 23/45/5 22/44/5

v 7.74478 4.68543 -3.6453
vt -4.73618 40.1761
f 3/42/5 24/46/5 23/45/5

v 7.74449 4.68543 -2.6953
vt -4.72441 2.7745
f 3/42/5 25/47/5 24/46/5

v 7.74446 4.68543 -2.6253
vt -4.72354 0.0185929
f 25/47/5 3/42/5 26/48/5

usemtl _Tile_Ceramic_Natural_7
vt -5.50815 1.86721
vt -6.57501 1.86687
vt -5.50817 1.917
f 26/49/6 3/50/6 25/51/6

usemtl _Color_C03_1
v 7.74446 8.28543 -2.6253
vt -4.72354 141.732
vn 0.00031484 -3.39234e-016 -1
vt -63.7787 2.2738e-013
vt -4.72354 2.2738e-013
f 27/52/11 3/53/11 26/54/11

vt -63.7787 141.732
f 3/53/11 27/52/11 1/55/11

usemtl _7
vt -2.52812 0.962408
vn -0.00031484 3.39234e-016 1
vt -2.52812 1.70186
f 26/56/12 3/10/12 27/57/12

vt -3.01784 1.70186
f 1/58/12 27/57/12 3/10/12

usemtl _Color_C03_1
v 7.74449 7.68543 -2.6953
vt 2.77599 118.11
vn 1 -4.8782e-014 0.00031484
vt 0.02008 141.732
vt 0.02008 4.57797e-013
f 28/59/13 27/60/13 26/61/13

v 7.74774 8.28543 -13.0453
vt 410.256 141.732
f 27/60/13 28/59/13 29/62/13

usemtl _7
vt 4.25979 1.70186
vn -1 4.8782e-014 -0.00031484
vt 0.880749 1.57862
vt 0.857895 1.70186
f 29/63/14 28/64/14 27/65/14

usemtl _Color_C03_1
v 7.74478 7.68543 -3.6453
vt 40.1776 118.11
f 29/62/13 28/59/13 30/66/13

usemtl _7
vt 1.1909 1.57862
f 30/67/14 28/64/14 29/63/14

usemtl _Color_C03_1
vn -2.16039e-016 -1 -2.08276e-014
v 7.62478 7.68543 -3.64533
vt -0.0117755 40.1776
f 28/47/15 31/68/15 30/46/15

v 7.62449 7.68543 -2.69533
vt 2.55164e-014 2.77599
f 31/68/15 28/47/15 32/69/15

usemtl _7
vt -2.48922 0.553633
vn 2.16039e-016 1 2.08276e-014
vt -2.5284 0.553625
vt -2.48932 0.748767
f 32/70/16 28/71/16 31/72/16

usemtl _Color_C03_1
vt -4.72354 2.23279e-013
vn 0.00031484 1.47519e-015 -1
vt 0.00087399 118.11
vt -4.72354 118.11
f 25/73/17 32/74/17 28/75/17

v 7.62449 4.68543 -2.69533
vt 0.00087399 2.23279e-013
f 32/74/17 25/73/17 33/76/17

usemtl _7
vt -2.48894 0.962408
vn -0.00031484 -1.47519e-015 1
vt -2.48894 1.57862
f 33/77/18 25/56/18 32/78/18

usemtl FrontColor
v 7.62478 4.68543 -3.64533
vt -9.3848e-028 2.77599
f 34/68/5 25/47/5 33/79/5

f 25/47/5 34/68/5 24/46/5

usemtl _Tile_Ceramic_Natural_7
vt -5.42282 1.91702
vt -5.42303 2.5927
f 33/80/6 25/51/6 34/81/6

vt -5.50838 2.59267
f 24/82/6 34/81/6 25/51/6

usemtl _Color_C03_1
vt 4.72354 118.11
vn -0.00031484 4.1759e-015 1
vt -0.00087399 3.6673e-013
vt 4.72354 2.53043e-013
f 30/83/19 34/84/19 24/85/19

vt -0.00087399 118.11
f 34/84/19 30/83/19 31/86/19

usemtl _7
vt 2.52812 0.962408
vn 0.00031484 -4.1759e-015 -1
vt 2.48894 0.962408
vt 2.52812 1.57862
f 24/87/20 34/88/20 30/89/20

vt 2.48894 1.57862
f 31/90/20 30/89/20 34/88/20

vt -2.5285 0.748759
f 30/91/16 31/72/16 28/71/16

usemtl _Color_C03_1
vt 324.43 2.30423e-013
vt 40.1776 3.15689e-013
f 23/92/13 30/66/13 24/93/13

v 7.74706 6.78543 -10.8653
vt 324.43 82.6772
f 30/66/13 23/92/13 35/94/13

usemtl _7
vt 1.1909 0.962408
vt 3.54807 0.962408
f 24/95/14 30/67/14 23/96/14

vt 3.54807 1.39376
f 35/97/14 23/96/14 30/67/14

usemtl _Color_C03_1
vt -4.72354 -5.36768e-012
vn 0.00031484 1.6545e-014 -1
v 7.62706 6.78543 -10.8653
vt 0.00087399 82.6772
vt -4.72354 82.6772
f 23/98/21 36/99/21 35/100/21

v 7.62706 4.68543 -10.8653
vt 0.00087399 -5.36768e-012
f 36/99/21 23/98/21 37/101/21

usemtl _7
vn -0.00031484 -1.6545e-014 1
vt -2.48894 1.39376
f 37/77/22 23/56/22 36/102/22

usemtl FrontColor
v 7.62736 4.68543 -11.8153
vt -0.113045 361.831
vt -0.101269 324.43
f 38/103/5 23/45/5 37/104/5

f 23/45/5 38/103/5 22/44/5

usemtl _Tile_Ceramic_Natural_7
vt -5.42465 7.72783
vt -5.51 7.72781
vt -5.42486 8.40351
f 37/105/6 23/106/6 38/107/6

vt -5.51021 8.40348
f 22/108/6 38/107/6 23/106/6

usemtl _Color_C03_1
vt 4.72354 2.46616e-011
vn -0.00031484 5.91245e-014 1
v 7.62736 6.78543 -11.8153
vt -0.00087399 82.6772
vt -0.00087399 2.24447e-011
f 22/109/23 39/110/23 38/111/23

v 7.74736 6.78543 -11.8153
vt 4.72354 82.6772
f 39/110/23 22/109/23 40/112/23

usemtl _7
vn 0.00031484 -5.91245e-014 -1
vt 2.48894 1.39376
f 38/88/24 39/113/24 22/87/24

vt 2.52812 1.39376
f 40/114/24 22/87/24 39/113/24

usemtl _Color_C03_1
vt 414.981 5.99906e-013
vt 361.831 82.6772
vt 361.831 3.49892e-012
f 21/115/13 40/116/13 22/117/13

v 7.74774 7.68543 -13.0453
vt 410.256 118.11
f 40/116/13 21/115/13 41/118/13

usemtl _7
vt 3.85822 0.962408
vt 3.85822 1.39376
vt 4.29897 0.962408
f 22/119/14 40/120/14 21/121/14

vt 4.25979 1.57862
f 41/122/14 21/121/14 40/120/14

usemtl _Color_C03_1
v 7.74778 7.68543 -13.1653
vt 414.981 118.11
f 41/118/13 21/115/13 42/123/13

usemtl _7
vt 4.29897 1.57862
f 42/124/14 21/121/14 41/122/14

usemtl _Color_C03_1
vn -1.92732e-013 -1 3.89228e-016
vt -63.9078 410.236
vt -4.8527 410.255
f 42/43/25 16/125/25 41/126/25

v 9.24778 7.68543 -13.1648
f 16/125/25 42/43/25 43/39/25

usemtl _7
vt -2.52946 2.67956
vn 1.92732e-013 1 -3.89228e-016
vt -3.01918 2.67946
vt -2.52947 2.70421
f 41/127/26 16/128/26 42/129/26

usemtl _Color_C03_1
vt 63.7787 141.732
vn -0.00031484 -9.04346e-013 1
f 4/130/27 41/83/27 16/24/27

vt 4.72354 141.732
f 41/83/27 4/130/27 29/131/27

usemtl _7
vt 3.01784 1.57862
vn 0.00031484 9.04346e-013 -1
vt 3.01784 1.70186
f 16/132/28 41/89/28 4/133/28

vt 2.52812 1.70186
f 29/134/28 4/133/28 41/89/28

usemtl _Color_C03_1
f 40/116/13 41/118/13 29/62/13

usemtl _7
f 29/63/14 41/122/14 40/120/14

usemtl _Color_C03_1
f 29/62/13 35/94/13 40/116/13

f 29/62/13 30/66/13 35/94/13

usemtl _7
f 35/97/14 30/67/14 29/63/14

f 40/120/14 35/97/14 29/63/14

usemtl _Color_C03_1
f 4/4/2 15/34/2 16/35/2

f 16/35/2 15/34/2 17/36/2

vt -414.981 118.11
f 17/36/1 16/35/1 43/135/1

f 43/135/2 16/35/2 17/36/2

usemtl _7
vt -3.01919 2.70411
f 43/136/26 42/129/26 16/128/26

usemtl _Tile_Ceramic_Natural_7
vt -5.51051 9.36365
f 21/137/6 22/108/6 3/50/6

f 22/108/6 23/106/6 3/50/6

f 23/106/6 24/82/6 3/50/6

f 24/82/6 25/51/6 3/50/6

vt -6.57737 9.36332
f 17/138/6 21/137/6 3/50/6

f 5/17/6 17/138/6 3/50/6

f 8/19/6 17/138/6 5/17/6

vt -6.57616 5.52975
f 20/139/6 17/138/6 8/19/6

vt -6.57638 6.20542
f 19/140/6 17/138/6 20/139/6

vt -6.57663 7.02334
f 18/141/6 17/138/6 19/140/6

usemtl FrontColor
v 9.24645 4.68543 -8.92482
vt -63.8567 248.031
f 19/38/5 18/40/5 44/142/5

usemtl _Tile_Ceramic_Natural_7
vt -6.57642 6.34767
f 44/143/6 18/141/6 19/140/6

usemtl FrontColor
v 9.36645 4.68543 -8.92479
vt -68.5812 248.03
f 18/40/5 45/144/5 44/142/5

v 9.36675 4.68543 -9.87479
vt -68.5929 285.432
f 45/144/5 18/40/5 46/145/5

usemtl _Tile_Ceramic_Natural_7
vt -6.66177 6.34764
f 44/143/6 45/146/6 18/141/6

usemtl _Color_C03_1
vn 0.00031484 4.57524e-014 -1
vt -68.5031 -1.01268e-011
vt -63.7787 -1.01268e-011
f 14/6/29 45/147/29 44/148/29

v 9.36645 7.68543 -8.92479
f 45/147/29 14/6/29 47/9/29

usemtl _7
vn -0.00031484 -4.57524e-014 1
f 44/10/30 45/11/30 14/12/30

f 47/28/30 14/12/30 45/11/30

vt -3.01885 2.02833
vn -2.94513e-016 -1 2.28422e-013
vt -3.05793 1.83319
vt -3.01875 1.8332
f 15/149/31 47/150/31 14/151/31

v 9.36675 7.68543 -9.87479
vt -3.05803 2.02832
f 47/150/31 15/149/31 48/152/31

vn 2.94513e-016 1 -2.28422e-013
f 14/151/32 47/150/32 15/149/32

f 48/152/32 15/149/32 47/150/32

usemtl _Color_C03_1
vt 63.7787 6.41497e-013
vn -0.00031484 -2.03409e-015 1
f 18/153/33 48/21/33 15/24/33

vt 68.5031 6.41497e-013
f 48/21/33 18/153/33 46/154/33

usemtl _7
vt 3.05701 0.962408
vn 0.00031484 2.03409e-015 -1
vt 3.01784 0.962408
vt 3.05701 1.57862
f 46/155/34 18/156/34 48/157/34

usemtl _Tile_Ceramic_Natural_7
vt -6.66198 7.02332
f 46/158/6 18/141/6 45/146/6

usemtl _7
f 15/132/34 48/157/34 18/156/34

usemtl _Color_C03_1
vt -248.052 5.16045e-012
f 44/159/1 13/32/1 14/33/1

vt -240.178 5.16045e-012
f 13/32/1 44/159/1 19/160/1

f 19/160/2 44/159/2 13/32/2

f 14/33/2 13/32/2 44/159/2

vt 63.7787 1.45068e-011
vn -0.00031484 5.5312e-014 1
v 9.36638 7.68543 -8.72479
f 19/161/35 49/21/35 13/24/35

v 9.36638 4.68543 -8.72479
vt 68.5031 1.45068e-011
f 49/21/35 19/161/35 50/162/35

usemtl _7
vn 0.00031484 -5.5312e-014 -1
f 50/155/36 19/156/36 49/157/36

usemtl FrontColor
v 9.36608 4.68543 -7.77479
vt -68.5669 202.754
vt -68.5787 240.156
f 51/163/5 19/38/5 50/164/5

f 19/38/5 51/163/5 20/41/5

usemtl _Tile_Ceramic_Natural_7
vt -6.66151 5.52972
f 20/139/6 51/165/6 19/140/6

usemtl _Color_C03_1
vn 0.00031484 -6.97823e-014 -1
vt -68.5031 1.46049e-011
vt -63.7787 1.46049e-011
f 12/6/37 51/166/37 20/167/37

v 9.36608 7.68543 -7.77479
f 51/166/37 12/6/37 52/9/37

vn -0.00031484 6.97823e-014 1
f 20/167/38 51/166/38 12/6/38

f 52/9/38 12/6/38 51/166/38

vn -1.15076e-016 -1 -3.41508e-013
f 13/38/39 52/163/39 12/41/39

f 52/163/39 13/38/39 49/164/39

vn 1.15076e-016 1 3.41508e-013
f 12/41/40 52/163/40 13/38/40

f 49/164/40 13/38/40 52/163/40

usemtl _7
f 13/132/36 49/157/36 19/156/36

usemtl _Color_C03_1
vt -202.776 4.39306e-012
f 11/30/1 12/31/1 20/168/1

f 20/168/2 12/31/2 11/30/2

vt -39.7839 4.16569e-012
f 20/168/1 8/169/1 11/30/1

f 11/30/2 8/169/2 20/168/2

usemtl _Tile_Ceramic_Natural_7
vt -6.66172 6.20539
f 50/170/6 19/140/6 51/165/6

usemtl FrontColor
v 9.36639 4.68543 -4.28478
vt -68.579 65.3528
f 53/171/5 51/163/5 50/164/5

v 9.36499 4.68543 -4.28479
vt -68.5236 65.3528
f 51/163/5 53/171/5 54/172/5

usemtl _Tile_Ceramic_Natural_7
vt -6.66073 3.0475
vt -6.66173 3.0475
f 54/173/6 53/174/6 51/165/6

f 50/170/6 51/165/6 53/174/6

usemtl _7
vt -2.52812 1.39376
f 35/175/22 36/102/22 23/56/22

vt -2.52812 1.57862
f 28/176/18 32/78/18 25/56/18

usemtl _Color_C03_1
vt 2.77599 4.57797e-013
f 25/177/13 28/59/13 26/61/13

usemtl _7
vt 0.857895 0.962408
vt 0.880749 0.962408
f 26/178/14 28/64/14 25/179/14

f 26/178/14 27/65/14 28/64/14

g Mesh2 COM019 Model

l 16 43

l 16 4

l 41 16

l 41 42

l 41 29

l 27 29

l 26 27

l 26 25

l 26 3

l 3 5

l 3 1

l 1 4

l 27 1

l 29 4

l 5 2

l 6 5

l 6 7

l 9 6

l 9 10

l 8 9

l 8 20

l 8 11

l 2 11

l 7 2

l 7 10

l 10 11

l 20 12

l 20 51

l 51 52

l 51 54

l 54 53

l 53 50

l 50 49

l 50 19

l 19 44

l 19 13

l 12 13

l 52 12

l 52 49

l 49 13

l 44 14

l 45 44

l 45 47

l 46 45

l 46 48

l 18 46

l 18 17

l 18 15

l 14 15

l 47 14

l 47 48

l 48 15

l 43 17

l 42 43

l 21 42

l 22 21

l 22 40

l 22 38

l 38 39

l 37 38

l 37 23

l 37 36

l 36 35

l 23 35

l 24 23

l 24 30

l 34 24

l 34 31

l 34 33

l 33 32

l 25 33

l 25 28

l 28 30

l 32 28

l 32 31

l 31 30

l 40 35

l 39 40

l 17 21

g Mesh3 Model

v 138.951 3.33 -157.425
v 138.951 3.3 -157.425
l 55 56

g Mesh4 Model

v 117.469 3.4 -184.196
v 117.443 3.4 -184.095
l 57 58

