# Alias OBJ Model File
# Exported from SketchUp, (c) 2000-2012 Trimble Navigation Limited
# File units = meters

mtllib COM036.mtl

g Mesh1 COM036 Model

usemtl _Color_C03_1
v 6.16836 7.68543 -135.065
vt 0.0258172 118.11
vn 0.00031484 -8.09383e-014 -1
v 6.28836 4.68543 -135.065
vt -4.69859 1.18812e-011
v 6.16836 4.68543 -135.065
vt 0.0258172 9.66427e-012
f 1/1/1 2/2/1 3/3/1

v 6.28836 7.68543 -135.065
vt -4.69859 118.11
f 2/2/1 1/1/1 4/4/1

vn -0.00031484 8.09383e-014 1
f 3/3/2 2/2/2 1/1/2

usemtl FrontColor
v 6.28806 4.68543 -134.115
vt -4.72441 81.9998
vn -1.09475e-013 -1 -2.36592e-013
vt -0.0117755 119.403
vt -4.73618 119.401
f 5/5/3 3/6/3 2/7/3

v 6.16806 4.68543 -134.115
vt 0 82.0013
f 3/6/3 5/5/3 6/8/3

usemtl _Tile_Ceramic_Natural_7
vt -4.38695 95.3876
vn 1.09475e-013 1 2.36592e-013
vt -4.4723 95.3876
vt -4.38717 96.0633
f 6/9/4 5/10/4 3/11/4

usemtl _Color_C03_1
v 6.16806 7.68543 -134.115
vn 0.00031484 -5.00689e-014 -1
vt -4.69859 4.10571e-012
vt 0.0258172 4.10571e-012
f 7/1/5 5/12/5 6/13/5

v 6.28806 7.68543 -134.115
f 5/12/5 7/1/5 8/4/5

vn -0.00031484 5.00689e-014 1
f 6/13/6 5/12/6 7/1/6

f 8/4/6 7/1/6 5/12/6

vn 1.05748e-016 -1 -3.35879e-013
vt -5.01471e-012 82.0013
f 1/6/7 8/5/7 7/14/7

f 8/5/7 1/6/7 4/7/7

usemtl _7
vt -2.01373 27.5478
vn -1.05748e-016 1 3.35879e-013
vt -2.05291 27.5478
vt -2.01383 27.7429
f 7/15/8 8/16/8 1/17/8

vt -2.05301 27.7429
f 4/18/8 1/17/8 8/16/8

usemtl _Color_C03_1
f 4/4/2 1/1/2 2/2/2

v 6.28867 4.68543 -136.053
vt 158.302 -4.43978e-007
vn 1 9.44914e-008 0.000314655
vt 119.403 118.11
vt 119.403 -4.43976e-007
f 9/19/9 4/20/9 2/21/9

v 6.28892 8.28543 -136.853
vt 189.797 141.732
f 10/22/9 4/20/9 9/19/9

vt 82.0013 118.11
f 10/22/9 8/23/9 4/20/9

v 6.28745 8.28543 -132.195
vt 6.41073 141.732
f 11/24/9 8/23/9 10/22/9

v 6.28745 4.68543 -132.195
vt 6.41073 -4.43975e-007
f 8/23/9 11/24/9 12/25/9

usemtl BackColor
vn -1 -9.44914e-008 -0.000314655
f 10/22/10 8/23/10 11/24/10

f 4/20/10 8/23/10 10/22/10

f 9/19/10 4/20/10 10/22/10

f 2/21/10 4/20/10 9/19/10

usemtl FrontColor
v 7.32507 4.68543 -132.195
vt -45.5516 6.39701
vt -4.74842 158.301
f 13/26/3 2/7/3 9/27/3

f 13/26/3 5/5/3 2/7/3

vt -4.70061 6.40925
f 5/5/3 13/26/3 12/28/3

usemtl _Tile_Ceramic_Natural_7
vt -4.47187 94.022
vt -5.20986 94.0218
f 12/29/4 13/30/4 5/10/4

usemtl FrontColor
v 7.32507 8.28543 -132.195
vt 45.5496 141.732
vn -0.000299726 -2.24724e-014 1
vt 4.69869 1.07807e-012
vt 45.5496 1.07807e-012
f 14/31/11 12/32/11 13/33/11

vt 4.69869 141.732
f 12/32/11 14/31/11 11/34/11

usemtl _Color_C03_1
vn 0.000299726 2.24724e-014 -1
f 13/33/12 12/32/12 14/31/12

f 11/34/12 14/31/12 12/32/12

usemtl BackColor
f 12/25/10 11/24/10 8/23/10

usemtl _Color_C03_1
vt 82.0013 -4.43978e-007
f 8/23/9 12/25/9 5/35/9

usemtl BackColor
f 5/35/10 12/25/10 8/23/10

usemtl FrontColor
v 7.32507 4.68543 -132.653
vt 24.443 2.27374e-013
vn 1 0 -0
vt 6.39701 141.732
vt 6.39701 1.22213e-012
f 15/36/13 14/37/13 13/38/13

v 7.32507 8.28543 -132.653
vt 24.443 141.732
f 14/37/13 15/36/13 16/39/13

usemtl _Color_C03_1
vn -1 -0 0
f 13/38/14 14/37/14 15/36/14

f 16/39/14 15/36/14 14/37/14

usemtl FrontColor
vt 45.5516 2.27374e-013
vn 0 0 1
v 7.78503 8.28543 -132.653
vt 63.6602 141.732
vt 45.5516 141.732
f 15/40/15 17/41/15 16/42/15

v 7.78503 4.68543 -132.653
vt 63.6602 2.27374e-013
f 17/41/15 15/40/15 18/43/15

usemtl _Color_C03_1
vn -0 -0 -1
f 18/43/16 15/40/16 17/41/16

usemtl FrontColor
vt -45.5516 24.443
v 7.46817 4.68543 -136.866
vt -51.1854 190.321
vt -63.6602 24.443
f 15/44/3 19/45/3 18/46/3

v 7.46817 4.68543 -136.986
vt -51.1854 195.045
f 15/44/3 20/47/3 19/45/3

v 6.33554 4.68543 -136.866
vt -6.59364 190.321
f 21/48/3 20/47/3 15/44/3

v 6.33554 4.68543 -136.986
vt -6.59364 195.045
f 20/47/3 21/48/3 22/49/3

usemtl _Tile_Ceramic_Natural_7
vt -4.50607 97.4298
vt -4.50607 97.3444
vt -5.31164 97.4298
f 22/50/4 21/51/4 20/52/4

usemtl FrontColor
vt -190.321 4.33844e-013
vn -1 -1.17912e-014 2.76552e-011
v 6.33554 7.68543 -136.986
vt -195.045 118.11
vt -195.045 2.66887e-010
f 21/53/17 23/54/17 22/55/17

v 6.33554 7.68543 -136.866
vt -190.321 118.11
f 23/54/17 21/53/17 24/56/17

usemtl _Color_C03_1
vn 1 1.17912e-014 -2.76552e-011
f 24/56/18 21/53/18 23/54/18

usemtl FrontColor
vt -6.59364 -4.5447e-009
vn -9.03017e-013 2.38819e-011 -1
v 6.28892 8.28543 -136.866
vt -4.75842 141.732
vt -6.59364 118.11
f 21/57/19 25/58/19 24/59/19

v 6.28892 4.68543 -136.866
vt -4.7585 -4.54473e-009
f 25/58/19 21/57/19 26/60/19

usemtl _Color_C03_1
vn 9.03017e-013 -2.38819e-011 1
f 26/60/20 21/57/20 25/58/20

usemtl FrontColor
vt -4.7585 190.321
f 13/26/3 26/61/3 21/48/3

f 13/26/3 9/27/3 26/61/3

usemtl _Tile_Ceramic_Natural_7
vt -4.47274 96.766
vt -4.47252 96.0632
f 9/62/4 2/63/4 13/30/4

f 2/63/4 5/10/4 13/30/4

f 2/63/4 3/11/4 5/10/4

vt -4.47292 97.3444
f 26/64/4 9/62/4 13/30/4

usemtl _Color_C03_1
vt 190.322 -4.43978e-007
f 10/22/9 9/19/9 26/65/9

usemtl BackColor
f 26/65/10 9/19/10 10/22/10

usemtl _Color_C03_1
v 6.28892 8.28543 -136.855
vt 189.893 141.732
f 10/22/9 26/65/9 27/66/9

usemtl BackColor
f 27/66/10 26/65/10 10/22/10

usemtl _Color_C03_1
vt 190.322 141.732
f 27/66/9 26/65/9 25/67/9

usemtl BackColor
f 25/67/10 26/65/10 27/66/10

usemtl _Tile_Ceramic_Natural_7
f 21/51/4 26/64/4 13/30/4

usemtl FrontColor
f 13/26/3 21/48/3 15/44/3

usemtl _Tile_Ceramic_Natural_7
vt -5.20986 94.3478
f 15/68/4 21/51/4 13/30/4

f 15/68/4 20/52/4 21/51/4

vt -5.31164 97.3444
f 19/69/4 20/52/4 15/68/4

usemtl FrontColor
v 7.46817 7.68543 -136.986
vt 195.045 118.11
vn 1 1.20319e-014 -2.7589e-011
vt 190.321 4.35748e-013
vt 195.045 2.66889e-010
f 28/70/21 19/71/21 20/72/21

v 7.46817 7.68543 -136.866
vt 190.321 118.11
f 19/71/21 28/70/21 29/73/21

usemtl _Color_C03_1
vn -1 -1.20319e-014 2.7589e-011
f 29/73/22 28/70/22 19/71/22

usemtl FrontColor
vt 51.1854 195.045
vn -1.14728e-014 1 5.64246e-011
vt 6.59364 190.321
vt 51.1854 190.321
f 28/74/23 24/75/23 29/76/23

vt 6.59364 195.045
f 24/75/23 28/74/23 23/77/23

usemtl _Color_C03_1
vn 1.14728e-014 -1 -5.64246e-011
f 23/77/24 28/74/24 24/75/24

f 29/76/24 24/75/24 28/74/24

usemtl FrontColor
vt -51.1854 118.11
f 24/59/19 25/58/19 29/78/19

usemtl _Color_C03_1
f 24/59/20 25/58/20 21/57/20

f 29/78/20 25/58/20 24/59/20

usemtl FrontColor
v 7.50673 8.28543 -136.866
vt -52.7035 141.732
f 29/78/19 25/58/19 30/79/19

usemtl _Color_C03_1
f 30/79/20 25/58/20 29/78/20

usemtl FrontColor
v 7.50673 4.68543 -136.866
vt -52.7035 -4.54416e-009
f 31/80/19 29/78/19 30/79/19

vt -51.1854 -4.54416e-009
f 29/78/19 31/80/19 19/81/19

usemtl _Color_C03_1
f 19/81/20 31/80/20 29/78/20

usemtl FrontColor
vt -52.7035 190.321
v 7.50668 4.68543 -136.715
vt -52.7016 184.347
f 31/82/3 32/83/3 19/45/3

vt 190.337 3.75416e-012
vn 1 -5.13369e-014 0.00031484
v 7.50668 8.28543 -136.715
vt 184.363 141.732
vt 184.363 4.91945e-012
f 31/84/25 33/85/25 32/86/25

vt 190.337 141.732
f 33/85/25 31/84/25 30/87/25

usemtl _Color_C03_1
vn -1 5.13369e-014 -0.00031484
f 32/86/26 33/85/26 31/84/26

vt 52.6436 1.63232e-012
vn -0.00031484 -3.17074e-015 1
v 7.90668 8.28543 -136.714
vt 68.3916 141.732
vt 52.6436 141.732
f 32/88/27 34/89/27 33/90/27

v 7.90668 4.68543 -136.714
vt 68.3916 -1.29821e-013
f 34/89/27 32/88/27 35/91/27

usemtl _7
vt 2.5673 0.962408
vn 0.00031484 3.17074e-015 -1
vt 2.43671 0.962408
vt 2.5673 1.70186
f 35/92/28 32/93/28 34/94/28

usemtl FrontColor
vt -68.4497 184.342
f 18/46/3 32/83/3 35/95/3

f 18/46/3 19/45/3 32/83/3

usemtl _Tile_Ceramic_Natural_7
vt -5.537 94.3478
f 18/96/4 19/69/4 15/68/4

vt -5.33903 97.2365
f 32/97/4 19/69/4 18/96/4

vt -5.33907 97.3444
f 19/69/4 32/97/4 31/98/4

vt -5.62353 97.2364
f 35/99/4 32/97/4 18/96/4

usemtl FrontColor
v 7.78503 4.68543 -132.194
vt -63.6602 6.38945
f 18/46/3 35/95/3 36/100/3

usemtl _Tile_Ceramic_Natural_7
vt -5.537 94.0216
f 36/101/4 35/99/4 18/96/4

usemtl FrontColor
v 7.88526 4.68543 -132.194
vt -67.6062 6.38945
f 36/100/3 35/95/3 37/102/3

usemtl _Tile_Ceramic_Natural_7
vt -5.60829 94.0216
f 37/103/4 35/99/4 36/101/4

usemtl FrontColor
v 9.11525 4.68543 -132.194
vt -116.031 6.35511
f 37/102/3 35/95/3 38/104/3

usemtl _Tile_Ceramic_Natural_7
vt -6.48311 94.021
f 38/105/4 35/99/4 37/103/4

usemtl FrontColor
v 7.90673 4.68543 -136.864
vt -68.4515 190.247
f 38/104/3 35/95/3 39/106/3

usemtl _Tile_Ceramic_Natural_7
vt -5.62356 97.3431
f 39/107/4 35/99/4 38/105/4

usemtl FrontColor
v 10.6567 4.68543 -136.864
vt -176.719 190.213
f 38/104/3 39/106/3 40/108/3

usemtl _Tile_Ceramic_Natural_7
vt -7.57946 97.3425
f 40/109/4 39/107/4 38/105/4

usemtl _Color_C03_1
v 10.6567 8.28543 -136.864
vt 176.659 141.732
vn -0.00031484 1.92781e-014 1
vt 68.3916 4.12278e-012
vt 176.659 3.66803e-012
f 41/110/29 39/111/29 40/112/29

v 7.90673 8.28543 -136.864
f 39/111/29 41/110/29 42/89/29

usemtl _7
vt 3.46511 0.962408
vn 0.00031484 -1.92781e-014 -1
vt 3.46511 1.70186
f 40/113/30 39/92/30 41/114/30

f 42/94/30 41/114/30 39/92/30

usemtl _Color_C03_1
v 10.6565 4.68543 -136.053
vt -158.357 3.34434e-011
vn -1 1.88827e-013 -0.00031484
vt -190.269 141.732
vt -190.269 3.33581e-011
f 43/115/31 41/116/31 40/117/31

v 10.6562 4.68543 -135.214
vt -125.308 3.35002e-011
f 44/118/31 41/116/31 43/115/31

v 10.6562 7.68543 -135.214
vt -125.308 118.11
f 45/119/31 41/116/31 44/118/31

v 10.6558 7.68543 -133.814
vt -70.1903 118.11
f 46/120/31 41/116/31 45/119/31

v 10.6553 8.28543 -132.194
vt -6.41073 141.732
f 46/120/31 47/121/31 41/116/31

v 10.6553 4.68543 -132.196
vt -6.49068 3.41823e-011
f 48/122/31 47/121/31 46/120/31

v 10.6553 4.68543 -132.194
vt -6.41073 3.38981e-011
f 47/121/31 48/122/31 49/123/31

usemtl _7
vt -43.1593 0.962408
vn 1 -1.88827e-013 0.00031484
vt -43.16 0.962408
vt -43.1593 1.70186
f 49/124/32 48/125/32 47/126/32

usemtl FrontColor
v 10.5309 4.68543 -132.194
vt -171.765 6.35511
vt -176.661 6.43506
vt -176.661 6.35511
f 50/127/3 48/128/3 49/129/3

f 50/127/3 40/108/3 48/128/3

v 9.30412 4.68543 -132.032
vt -123.467 3.32567e-024
f 51/130/3 40/108/3 50/127/3

v 9.30412 4.68543 -132.194
vt -123.467 6.35511
f 52/131/3 40/108/3 51/130/3

f 38/104/3 40/108/3 52/131/3

usemtl _Tile_Ceramic_Natural_7
vt -6.61744 94.021
f 52/132/4 40/109/4 38/105/4

vt -6.61744 93.9062
f 51/133/4 40/109/4 52/132/4

vt -7.48997 94.021
f 50/134/4 40/109/4 51/133/4

vt -7.57842 94.0225
f 48/135/4 40/109/4 50/134/4

usemtl FrontColor
v 10.6556 4.68543 -133.383
vt -176.676 53.1828
f 48/128/3 40/108/3 53/136/3

usemtl _Tile_Ceramic_Natural_7
vt -7.57868 94.867
f 53/137/4 40/109/4 48/135/4

usemtl FrontColor
v 10.6558 4.68543 -133.814
vt -176.681 70.1346
f 53/136/3 40/108/3 54/138/3

usemtl _Tile_Ceramic_Natural_7
vt -7.57878 95.1732
f 54/139/4 40/109/4 53/137/4

usemtl FrontColor
vt -176.709 158.301
f 54/138/3 40/108/3 43/140/3

usemtl _Tile_Ceramic_Natural_7
vt -7.57928 96.766
f 43/141/4 40/109/4 54/139/4

usemtl _7
vt -44.6839 0.962408
vt -44.6839 1.70186
vt -44.4193 0.962408
f 40/142/32 41/143/32 43/144/32

vt -44.1453 0.962408
f 43/144/32 41/143/32 44/145/32

vt -44.1453 1.57862
f 44/145/32 41/143/32 45/146/32

vt -43.6882 1.57862
f 45/146/32 41/143/32 46/147/32

f 41/143/32 47/126/32 46/147/32

f 46/147/32 47/126/32 48/125/32

usemtl _Color_C03_1
vt -53.2385 3.40118e-011
f 48/122/31 46/120/31 53/148/31

usemtl _7
vt -43.5476 0.962408
f 53/149/32 46/147/32 48/125/32

usemtl _Color_C03_1
vt -70.1903 3.36423e-011
f 54/150/31 53/148/31 46/120/31

usemtl _7
vt -43.6882 0.962408
f 46/147/32 53/149/32 54/151/32

usemtl _Color_C03_1
v 10.7758 7.68543 -133.814
vt -181.384 118.11
vn 0.00031484 9.58049e-014 -1
vt -176.659 -6.44036e-012
vt -176.659 118.11
f 55/152/33 54/153/33 46/154/33

v 10.7758 4.68543 -133.814
vt -181.384 -6.55404e-012
f 54/153/33 55/152/33 56/155/33

usemtl _7
vt -3.50429 0.962408
vn -0.00031484 -9.58049e-014 1
vt -3.50429 1.57862
vt -3.46511 0.962408
f 56/156/34 55/157/34 54/158/34

vt -3.46511 1.57862
f 46/159/34 54/158/34 55/157/34

usemtl _Color_C03_1
vt -176.699 125.253
vn -3.74695e-016 -1 4.83099e-013
vt -181.406 70.1332
f 45/160/35 55/161/35 46/138/35

v 10.7762 7.68543 -135.214
vt -181.423 125.251
f 55/161/35 45/160/35 57/162/35

usemtl _7
vt -3.47887 27.4859
vn 3.74695e-016 1 -4.83099e-013
vt -3.51804 27.4859
vt -3.47901 27.7734
f 46/163/36 55/164/36 45/165/36

vt -3.51819 27.7734
f 57/166/36 45/165/36 55/164/36

usemtl _Color_C03_1
vt 176.659 -1.82474e-012
vn -0.00031484 -1.56961e-014 1
vt 181.384 118.11
vt 176.659 118.11
f 44/167/37 57/168/37 45/169/37

v 10.7762 4.68543 -135.214
vt 181.384 -1.82474e-012
f 57/168/37 44/167/37 58/170/37

usemtl _7
vt 3.50429 0.962408
vn 0.00031484 1.56961e-014 -1
vt 3.50429 1.57862
f 58/171/38 44/113/38 57/172/38

usemtl FrontColor
f 56/161/3 44/160/3 58/162/3

f 44/160/3 56/161/3 54/138/3

usemtl _Tile_Ceramic_Natural_7
vt -7.66413 95.1732
vt -7.57909 96.169
f 54/139/4 56/173/4 44/174/4

vt -7.66444 96.1689
f 58/175/4 44/174/4 56/173/4

usemtl FrontColor
f 54/138/3 43/140/3 44/160/3

usemtl _Tile_Ceramic_Natural_7
f 44/174/4 43/141/4 54/139/4

usemtl _7
vt 3.46511 1.57862
f 45/176/38 57/172/38 44/113/38

usemtl _Tile_Ceramic_Natural_7
vt -7.57842 94.021
f 49/177/4 48/135/4 50/134/4

usemtl FrontColor
vt 176.661 141.732
vn 4.50019e-015 2.03859e-015 1
vt 171.765 5.52968e-013
vt 176.661 5.52968e-013
f 47/178/39 50/179/39 49/180/39

v 10.5309 7.68543 -132.194
vt 171.765 118.11
f 50/179/39 47/178/39 59/181/39

usemtl _Color_C03_1
vn -4.50019e-015 -2.03859e-015 -1
f 49/180/40 50/179/40 47/178/40

f 59/181/40 47/178/40 50/179/40

usemtl FrontColor
v 9.30412 7.68543 -132.194
vt 123.467 118.11
f 59/181/39 47/178/39 60/182/39

usemtl _Color_C03_1
f 60/182/40 47/178/40 59/181/40

usemtl FrontColor
v 9.11525 8.28543 -132.194
vt 116.031 141.732
f 60/182/39 47/178/39 61/183/39

usemtl _Color_C03_1
f 61/183/40 47/178/40 60/182/40

usemtl FrontColor
vt 116.031 5.52968e-013
f 38/184/39 60/182/39 61/183/39

vt 123.467 5.52968e-013
f 60/182/39 38/184/39 52/185/39

usemtl _Color_C03_1
f 52/185/40 38/184/40 60/182/40

f 61/183/40 60/182/40 38/184/40

usemtl FrontColor
vt 0 5.40012e-013
vn -1 0 -0
vt -6.35511 118.11
vt -6.35511 5.40012e-013
f 51/186/41 60/187/41 52/188/41

v 9.30412 7.68543 -132.032
vt 0 118.11
f 60/187/41 51/186/41 62/189/41

usemtl _Color_C03_1
vn 1 -0 0
f 62/189/42 51/186/42 60/187/42

f 52/188/42 60/187/42 51/186/42

usemtl FrontColor
v 10.5309 7.68543 -132.032
vt 171.765 0
vn 0 1 -0
vt 123.467 6.35511
vt 123.467 0
f 63/190/43 60/191/43 62/192/43

vt 171.765 6.35511
f 60/191/43 63/190/43 59/193/43

usemtl _Color_C03_1
vn -0 -1 0
f 62/192/44 60/191/44 63/190/44

f 59/193/44 63/190/44 60/191/44

usemtl FrontColor
vt 6.35511 5.40012e-013
vt 6.35511 118.11
f 63/189/13 50/194/13 59/195/13

v 10.5309 4.68543 -132.032
f 50/194/13 63/189/13 64/186/13

usemtl _Color_C03_1
f 64/186/14 63/189/14 50/194/14

f 59/195/14 50/194/14 63/189/14

usemtl FrontColor
vt -171.765 4.57664e-024
f 64/196/3 51/130/3 50/127/3

usemtl _Tile_Ceramic_Natural_7
vt -7.48997 93.9062
f 50/134/4 51/133/4 64/197/4

usemtl FrontColor
vt 67.6062 6.25278e-013
v 7.78503 8.28543 -132.194
f 37/198/15 65/41/15 36/43/15

v 7.88526 8.28543 -132.194
vt 67.6062 141.732
f 65/41/15 37/198/15 66/199/15

usemtl _Color_C03_1
f 36/43/16 65/41/16 37/198/16

usemtl FrontColor
vt -24.443 141.732
vn -1 2.00531e-015 6.29522e-030
vt -6.38945 3.55032e-013
vt -6.38945 141.732
f 17/200/45 36/201/45 65/202/45

vt -24.443 3.55032e-013
f 36/201/45 17/200/45 18/203/45

usemtl _Color_C03_1
vn 1 -2.00531e-015 -6.29522e-030
f 65/202/46 36/201/46 17/200/46

f 18/203/46 17/200/46 36/201/46

f 66/199/16 37/198/16 65/41/16

usemtl _7
vt 2.43671 1.70186
f 33/204/28 34/94/28 32/93/28

usemtl _Color_C03_1
f 30/87/26 31/84/26 33/85/26

f 30/79/20 29/78/20 31/80/20

f 20/72/22 19/71/22 28/70/22

f 22/55/18 23/54/18 21/53/18

f 16/42/16 17/41/16 15/40/16

g Mesh2 COM036 Model

l 3 2

l 3 1

l 3 6

l 6 7

l 5 6

l 5 8

l 5 12

l 12 11

l 12 13

l 15 13

l 18 15

l 18 17

l 18 36

l 36 37

l 65 36

l 66 65

l 66 37

l 37 38

l 38 61

l 52 38

l 60 52

l 60 59

l 60 62

l 62 63

l 62 51

l 52 51

l 51 64

l 63 64

l 59 63

l 59 50

l 49 50

l 49 48

l 49 47

l 47 41

l 47 61

l 40 41

l 43 40

l 44 43

l 44 45

l 58 44

l 58 57

l 58 56

l 56 55

l 54 56

l 54 46

l 53 54

l 48 53

l 46 45

l 55 46

l 55 57

l 57 45

l 39 40

l 39 42

l 35 39

l 35 32

l 35 34

l 34 33

l 33 30

l 32 33

l 32 31

l 31 30

l 19 31

l 19 20

l 19 29

l 29 28

l 24 29

l 24 21

l 24 23

l 23 22

l 23 28

l 20 28

l 22 20

l 21 22

l 26 21

l 26 25

l 9 26

l 2 9

l 2 4

l 1 4

l 7 1

l 7 8

l 8 4

l 27 25

l 10 27

l 11 10

l 11 14

l 13 14

l 14 16

l 15 16

l 16 17

l 17 65

l 25 30

l 42 41

l 50 64

