# Alias OBJ Model File
# Exported from SketchUp, (c) 2000-2012 Trimble Navigation Limited
# File units = meters

mtllib COM015.mtl

g Mesh1 COM020 Model

usemtl _Color_C03_1
v 6.61443 6.78543 -2.50565
vt -0.0132614 82.6772
vn -1 -6.65275e-015 -0.00031484
v 6.61446 4.68543 -2.62565
vt -4.73767 -2.80221e-013
v 6.61443 4.68543 -2.50565
vt -0.0132614 -2.80221e-013
f 1/1/1 2/2/1 3/3/1

v 6.61446 6.78543 -2.62565
vt -4.73767 82.6772
f 2/2/1 1/1/1 4/4/1

usemtl _7
vt -0.818718 0.962408
vn 1 6.65275e-015 0.00031484
vt -0.857895 0.962408
vt -0.818718 1.39376
f 3/5/2 2/6/2 1/7/2

usemtl FrontColor
vt -42.121 -1.99134e-029
vn 3.68442e-016 -1 -1.28315e-015
v 5.79499 4.68543 -4.29591
vt -9.85975 70.4826
vt -42.1225 4.72441
f 3/8/3 5/9/3 2/10/3

v 5.79495 4.68543 -4.17591
vt -9.85826 65.7582
f 3/8/3 6/11/3 5/9/3

v 5.66495 4.68543 -4.17595
vt -4.74015 65.7598
f 3/8/3 7/12/3 6/11/3

v 5.66485 4.68543 -3.85595
vt -4.73618 53.1614
f 3/8/3 8/13/3 7/12/3

v 5.66455 4.68543 -2.90595
vt -4.72441 15.7598
f 3/8/3 9/14/3 8/13/3

v 5.66443 4.68543 -2.50565
vt -4.71945 1.43646e-028
f 9/14/3 3/8/3 10/15/3

usemtl _Tile_Ceramic_Natural_7
vt -4.02875 1.78211
vn -3.68442e-016 1 1.28315e-015
vt -4.70443 1.78211
vt -4.02884 2.06682
f 10/16/4 3/17/4 9/18/4

vt -4.02905 2.7425
f 8/19/4 9/18/4 3/17/4

usemtl FrontColor
v 5.54485 4.68543 -3.85599
vt -0.0117755 53.1629
f 9/14/3 11/20/3 8/13/3

v 5.54455 4.68543 -2.90599
vt -1.25661e-028 15.7613
f 11/20/3 9/14/3 12/21/3

usemtl _Tile_Ceramic_Natural_7
vt -3.94349 2.06685
vt -3.94371 2.74252
f 12/22/4 9/18/4 11/23/4

usemtl _Color_C03_1
vt 0.00496228 3.48152e-013
vn 0.00031484 -4.49908e-016 -1
v 5.66455 6.78543 -2.90595
vt -4.71945 82.6772
vt -4.71945 1.77621e-013
f 12/24/5 13/25/5 9/26/5

v 5.54455 6.78543 -2.90599
vt 0.00496228 82.6772
f 13/25/5 12/24/5 14/27/5

usemtl _7
vt -1.84905 0.962408
vn -0.00031484 4.49908e-016 1
vt -1.84905 1.39376
vt -1.80987 0.962408
f 9/28/6 13/29/6 12/30/6

usemtl _Color_C03_1
vt 15.7613 82.6772
vn 1 2.85369e-014 0.00031484
v 5.66446 6.78543 -2.62595
vt 4.73767 82.6772
vt 15.7613 3.5852e-014
f 13/31/7 15/32/7 9/33/7

v 5.66495 8.28543 -4.17595
vt 65.7613 141.732
f 16/34/7 15/32/7 13/31/7

v 5.66446 8.28543 -2.62595
vt 4.73767 141.732
f 15/32/7 16/34/7 17/35/7

usemtl _7
vt 0.857895 1.70186
vn -1 -2.85369e-014 -0.00031484
vt 1.36394 1.70186
vt 0.857895 1.39376
f 17/36/8 16/37/8 15/38/8

vt 0.949309 1.39376
f 13/39/8 15/38/8 16/37/8

vt 0.949309 0.962408
f 9/40/8 15/38/8 13/39/8

usemtl _Color_C03_1
v 5.66443 6.78543 -2.50595
vt 0.0132614 82.6772
f 18/41/7 9/33/7 15/32/7

vt 0.00148587 -2.09914e-014
f 9/33/7 18/41/7 10/42/7

usemtl _7
vt 0.81862 0.962408
vt 0.818718 1.39376
f 10/43/8 18/44/8 9/40/8

f 15/38/8 9/40/8 18/44/8

usemtl _Color_C03_1
vt -4.72094 4.73618
vn -5.99803e-015 -1 4.48019e-016
vt -42.121 6.13047e-012
vt -4.71945 0.0117755
f 15/45/9 1/46/9 18/47/9

f 1/46/9 15/45/9 4/10/9

usemtl _7
vt -1.84931 0.514733
vn 5.99803e-015 1 -4.48019e-016
vt -2.15946 0.514671
vt -1.84932 0.539381
f 18/48/10 1/49/10 15/50/10

vt -2.15947 0.53932
f 4/51/10 15/50/10 1/49/10

usemtl _Color_C03_1
v 7.62446 8.28543 -2.62533
vt -81.8848 141.732
vn 0.00031484 3.68085e-015 -1
vt -42.121 82.6772
f 19/52/11 4/53/11 15/25/11

v 7.62446 4.68543 -2.62533
vt -81.8848 1.2467e-013
f 20/54/11 4/53/11 19/52/11

vt -42.121 -1.74386e-014
f 4/53/11 20/54/11 2/55/11

usemtl _7
vt -2.1592 0.962408
vn -0.00031484 -3.68085e-015 1
vt -2.48894 0.962408
vt -2.1592 1.39376
f 2/56/12 20/57/12 4/58/12

usemtl FrontColor
v 6.74495 4.68543 -4.17561
vt -47.2598 65.7464
vt -81.8863 4.71189
f 21/59/3 20/60/3 2/10/3

v 7.11484 4.68543 -3.81549
vt -61.8223 51.5686
f 20/60/3 21/59/3 22/61/3

usemtl _Tile_Ceramic_Natural_7
vt -4.70445 1.86746
vt -5.4228 1.86724
vt -4.79726 2.96985
f 2/62/4 20/63/4 21/64/4

vt -5.06034 2.71372
f 22/65/4 21/64/4 20/63/4

usemtl FrontColor
v 7.11495 4.68543 -4.17549
vt -61.8268 65.7418
f 23/66/3 22/61/3 21/59/3

usemtl _Color_C03_1
vt -51.5881 2.14707e-013
vn -1 -2.04934e-016 -0.00031484
v 7.11495 8.28543 -4.17549
vt -65.7613 141.732
vt -65.7613 1.01021e-013
f 22/67/13 24/68/13 23/69/13

v 7.11484 8.28543 -3.81549
vt -51.5881 141.732
f 24/68/13 22/67/13 25/70/13

usemtl _7
vt -1.2464 1.70186
vn 1 2.04934e-016 0.00031484
vt -1.2464 0.962408
vt -1.36394 1.70186
f 25/71/14 22/72/14 24/73/14

usemtl _Color_C03_1
vt 61.8061 2.44874e-013
vn -0.00031484 3.39234e-016 1
v 7.62484 8.28543 -3.81533
vt 81.8848 141.732
vt 61.8061 141.732
f 22/74/15 26/75/15 25/76/15

v 7.62484 4.68543 -3.81533
vt 81.8848 1.31187e-013
f 26/75/15 22/74/15 27/77/15

usemtl _7
vt 2.48894 0.962408
vn 0.00031484 -3.39234e-016 -1
vt 2.32244 0.962408
vt 2.48894 1.70186
f 27/78/16 22/79/16 26/80/16

usemtl FrontColor
v 7.62478 4.68543 -3.64533
vt -81.8989 44.8694
vt -81.901 51.5623
f 28/81/3 22/61/3 27/82/3

v 7.62449 4.68543 -2.69533
vt -81.8872 7.4678
f 29/83/3 22/61/3 28/81/3

f 20/60/3 22/61/3 29/83/3

usemtl _Tile_Ceramic_Natural_7
vt -5.42282 1.91702
f 29/84/4 22/65/4 20/63/4

vt -5.42303 2.5927
f 28/85/4 22/65/4 29/84/4

vt -5.42307 2.71361
f 27/86/4 22/65/4 28/85/4

usemtl _Color_C03_1
v 7.62478 7.68543 -3.64533
vt -44.8952 118.11
vn -1 3.47674e-015 -0.00031484
vt -51.5881 3.98379e-013
vt -44.8952 3.98379e-013
f 30/87/17 27/88/17 28/89/17

f 27/88/17 30/87/17 26/70/17

usemtl _7
vt -1.1909 0.962408
vn 1 -3.47674e-015 0.00031484
vt -1.1909 1.57862
f 28/90/18 27/72/18 30/91/18

f 26/71/18 30/91/18 27/72/18

usemtl _Color_C03_1
v 7.62449 7.68543 -2.69533
vt -7.49358 118.11
f 31/92/17 26/70/17 30/87/17

vt -4.73767 141.732
f 31/92/17 19/93/17 26/70/17

vt -4.73767 4.268e-013
f 19/93/17 31/92/17 20/94/17

usemtl _7
vt -0.880749 1.57862
vt -0.857895 1.70186
f 20/6/18 31/95/18 19/96/18

usemtl _Color_C03_1
vt -7.49358 4.268e-013
f 20/94/17 31/92/17 29/97/17

usemtl _7
vt -0.880749 0.962408
f 29/98/18 31/95/18 20/6/18

f 26/71/18 19/96/18 31/95/18

f 30/91/18 26/71/18 31/95/18

vt -2.48894 1.70186
f 19/99/12 4/58/12 20/57/12

f 15/29/12 4/58/12 19/99/12

usemtl _Color_C03_1
vt -4.71945 141.732
f 19/52/11 15/25/11 17/100/11

usemtl _7
vt -1.84905 1.70186
f 17/101/12 15/29/12 19/99/12

vt 2.32244 1.70186
f 25/102/16 26/80/16 22/79/16

vt -1.36394 0.962408
f 23/103/14 24/73/14 22/72/14

usemtl _Color_C03_1
vn -0.00031484 2.24245e-015 1
vt 47.2391 5.4537e-013
vt 61.8061 2.61153e-013
f 24/76/19 21/104/19 23/105/19

v 6.74495 7.68543 -4.17561
vt 47.2391 118.11
f 21/104/19 24/76/19 32/106/19

usemtl _7
vn 0.00031484 -2.24245e-015 -1
vt 2.20164 0.962408
f 23/79/20 21/107/20 24/102/20

usemtl _Tile_Ceramic_Natural_7
vt -5.06042 2.96977
f 21/64/4 22/65/4 23/108/4

usemtl _7
vt 2.20164 1.57862
f 32/109/20 24/102/20 21/107/20

usemtl _Color_C03_1
vt 4.71945 141.732
f 16/110/19 32/106/19 24/76/19

v 5.79495 7.68543 -4.17591
vt 9.83756 118.11
f 16/110/19 33/111/19 32/106/19

vt 4.71945 2.32731e-013
f 7/112/19 33/111/19 16/110/19

vt 9.83756 2.32731e-013
f 33/111/19 7/112/19 6/113/19

usemtl _7
vt 1.89149 0.962408
vt 1.84905 0.962408
vt 1.89149 1.57862
f 6/114/20 7/115/20 33/116/20

usemtl _Tile_Ceramic_Natural_7
vt -4.12159 2.97006
vt -4.02913 2.97009
f 6/117/4 7/118/4 3/17/4

f 7/118/4 8/19/4 3/17/4

usemtl _Color_C03_1
vt 65.7613 -4.94131e-014
v 5.66485 6.78543 -3.85595
vt 53.1629 82.6772
vt 53.1629 -4.94131e-014
f 7/119/7 34/120/7 8/121/7

f 34/120/7 7/119/7 16/34/7

usemtl _7
vt 1.25946 0.962408
vt 1.25946 1.39376
vt 1.36394 0.962408
f 8/122/8 34/123/8 7/124/8

usemtl _Color_C03_1
vt 4.71945 82.6772
vn -0.00031484 6.26522e-016 1
vt -0.00496228 1.18573e-013
vt 4.71945 1.18573e-013
f 34/125/21 11/126/21 8/127/21

v 5.54485 6.78543 -3.85599
vt -0.00496228 82.6772
f 11/126/21 34/125/21 35/128/21

usemtl _7
vn 0.00031484 -6.26522e-016 -1
vt 1.80987 0.962408
vt 1.84905 1.39376
f 8/115/22 11/129/22 34/130/22

usemtl _Tile_Ceramic_Natural_7
f 8/19/4 11/23/4 9/18/4

usemtl _7
vt 1.80987 1.39376
f 35/131/22 34/130/22 11/129/22

usemtl _Color_C03_1
vn -2.22738e-016 -1 4.49838e-016
f 13/14/23 35/20/23 34/13/23

vt 1.84153e-014 15.7613
f 35/20/23 13/14/23 14/132/23

usemtl _7
vt -1.81017 0.596902
vn 2.22738e-016 1 -4.49838e-016
vt -1.84935 0.596895
vt -1.81027 0.792036
f 14/133/24 13/134/24 35/135/24

vt -1.80987 1.39376
f 14/136/6 12/30/6 13/29/6

vt -1.84945 0.792029
f 34/137/24 35/135/24 13/134/24

usemtl _Color_C03_1
f 16/34/7 13/31/7 34/120/7

usemtl _7
f 34/123/8 13/39/8 16/37/8

f 16/37/8 7/124/8 34/123/8

vt 1.84905 1.70186
f 16/138/20 33/116/20 7/115/20

f 32/109/20 33/116/20 16/138/20

usemtl _Color_C03_1
v 5.79499 7.68543 -4.29591
vn 4.17726e-013 -1 5.81425e-016
f 36/9/25 32/59/25 33/11/25

v 6.74499 7.68543 -4.29561
vt -47.2613 70.4708
f 32/59/25 36/9/25 37/139/25

usemtl _7
vt -1.89192 0.85775
vn -4.17726e-013 1 -5.81425e-016
vt -2.20207 0.857688
vt -1.89193 0.882398
f 33/140/26 32/141/26 36/142/26

vt -2.20209 0.882337
f 37/143/26 36/142/26 32/141/26

usemtl _Color_C03_1
v 6.74499 4.68543 -4.29561
vt -70.4857 4.60303e-012
vn -1 8.78145e-014 -0.00031484
vt -65.7613 118.11
vt -70.4857 118.11
f 38/144/27 32/145/27 37/146/27

vt -65.7613 4.54619e-012
f 32/145/27 38/144/27 21/147/27

usemtl _7
vn 1 -8.78145e-014 0.00031484
vt -1.40311 0.962408
vt -1.36394 1.57862
f 21/103/28 38/148/28 32/149/28

usemtl FrontColor
f 2/10/3 38/139/3 21/59/3

f 2/10/3 5/9/3 38/139/3

usemtl _Tile_Ceramic_Natural_7
vt -4.12161 3.05541
f 2/62/4 5/150/4 3/17/4

vt -4.79729 3.0552
f 38/151/4 5/150/4 2/62/4

f 21/64/4 38/151/4 2/62/4

f 5/150/4 6/117/4 3/17/4

usemtl _Color_C03_1
vt 70.4857 1.11891e-013
vn 1 -2.70659e-015 0.00031484
vt 65.7613 118.11
vt 65.7613 1.11891e-013
f 5/152/29 33/153/29 6/154/29

vt 70.4857 118.11
f 33/153/29 5/152/29 36/155/29

usemtl _7
vn -1 2.70659e-015 -0.00031484
vt 1.36394 1.57862
vt 1.40311 0.962408
f 6/124/30 33/156/30 5/157/30

vt 1.40311 1.57862
f 36/158/30 5/157/30 33/156/30

vt -1.40311 1.57862
f 37/159/28 32/149/28 38/148/28

f 24/102/20 32/109/20 16/138/20

vt -0.857895 1.39376
f 4/160/2 1/7/2 2/6/2

g Mesh2 COM020 Model

l 2 4

l 2 3

l 2 20

l 20 19

l 20 29

l 29 31

l 28 29

l 28 30

l 28 27

l 27 26

l 27 22

l 22 25

l 22 23

l 23 24

l 21 23

l 21 32

l 38 21

l 38 37

l 5 38

l 6 5

l 6 33

l 7 6

l 7 16

l 8 7

l 8 34

l 11 8

l 11 35

l 12 11

l 12 14

l 9 12

l 9 13

l 10 9

l 18 10

l 1 18

l 1 4

l 3 1

l 3 10

l 4 15

l 15 17

l 18 15

l 17 19

l 17 16

l 16 24

l 25 24

l 26 25

l 19 26

l 13 34

l 14 13

l 14 35

l 35 34

l 36 33

l 5 36

l 37 36

l 37 32

l 32 33

l 31 30

g Mesh3 Model

v 138.951 3.33 -157.425
v 138.951 3.3 -157.425
l 39 40

g Mesh4 Model

v 117.469 3.4 -184.196
v 117.443 3.4 -184.095
l 41 42

