# Alias OBJ Model File
# Exported from SketchUp, (c) 2000-2012 Trimble Navigation Limited
# File units = meters

mtllib DES030.mtl

g Mesh1 ventana3_1_1 DES030 Model

usemtl Color_000
v 1.6456 5.74793 -133.29
vt 1.9685 2.46063
vn 0.00031484 -3.39234e-016 -1
v 1.6956 6.62293 -133.29
vt -1.71065e-031 36.9094
v 1.6956 5.74793 -133.29
vt -1.71065e-031 2.46063
f 1/1/1 2/2/1 3/3/1

v 1.6456 6.62293 -133.29
vt 1.9685 36.9094
f 2/2/1 1/1/1 4/4/1

vn -0.00031484 3.39234e-016 1
f 3/3/2 2/2/2 1/1/2

vt -2.46063 2.46063
vn -1 -2.04934e-016 -0.00031484
v 1.69558 6.68543 -133.227
vt 1.13687e-013 39.3701
vt -2.46063 36.9094
f 3/5/3 5/6/3 2/7/3

v 1.69558 5.68543 -133.227
vt 0 0
f 3/5/3 6/8/3 5/6/3

v 1.6959 5.68543 -134.227
vt -39.3701 2.84217e-014
f 6/8/3 3/5/3 7/9/3

vn 1 2.04934e-016 0.00031484
f 7/9/4 3/5/4 6/8/4

v 1.69588 5.74793 -134.165
vt -36.9094 2.46063
f 8/10/3 7/9/3 3/5/3

v 1.6959 6.68543 -134.227
vt -39.3701 39.3701
f 7/9/3 8/10/3 9/11/3

f 9/11/4 8/10/4 7/9/4

v 1.69588 6.16707 -134.19
vt -37.8989 18.9621
f 9/11/3 8/10/3 10/12/3

f 10/12/4 8/10/4 9/11/4

v 1.69588 6.16707 -134.165
vt -36.9094 18.9621
f 10/12/3 8/10/3 11/13/3

f 11/13/4 8/10/4 10/12/4

v 1.64588 6.16707 -134.165
vt -1.9685 18.9621
vt 2.56597e-030 2.46063
vt 2.84217e-014 18.9621
f 12/14/2 8/15/2 11/16/2

v 1.64588 5.74793 -134.165
vt -1.9685 2.46063
f 8/15/2 12/14/2 13/17/2

f 11/16/1 8/15/1 12/14/1

usemtl Translucent_Glass_Blue
v 1.69583 6.16707 -134.003
vt -30.5367 18.9621
f 11/13/3 8/10/3 14/18/3

f 14/18/4 8/10/4 11/13/4

f 8/10/3 2/7/3 14/18/3

f 2/7/3 8/10/3 3/5/3

f 3/5/4 8/10/4 2/7/4

usemtl Color_000
f 3/5/4 7/9/4 8/10/4

vt 36.9094 1.9685
vn -2.04836e-016 1 -3.13516e-016
vt 2.46063 1.21318e-031
vt 36.9094 1.21318e-031
f 13/19/5 3/20/5 8/21/5

vt 2.46063 1.9685
f 3/20/5 13/19/5 1/22/5

vn 2.04836e-016 -1 3.13516e-016
f 1/22/6 13/19/6 3/20/6

v 1.6459 5.68543 -134.227
f 13/10/3 15/9/3 1/5/3

v 1.6459 6.68543 -134.227
f 15/9/3 13/10/3 16/11/3

f 16/11/4 13/10/4 15/9/4

v 1.64588 6.16707 -134.19
f 16/11/3 13/10/3 17/12/3

f 17/12/4 13/10/4 16/11/4

f 17/12/3 13/10/3 12/13/3

f 12/13/4 13/10/4 17/12/4

f 13/17/1 12/14/1 8/15/1

f 8/21/6 3/20/6 13/19/6

vt 36.9094 -2.84217e-014
vn -2.04827e-016 1 -3.39299e-016
vt 37.8989 1.9685
f 11/23/7 17/24/7 12/19/7

vt 37.8989 -4.26326e-014
f 17/24/7 11/23/7 10/25/7

vn 2.04827e-016 -1 3.39299e-016
f 12/19/8 17/24/8 11/23/8

v 1.64583 6.19807 -134.003
vt -30.5367 20.1826
f 12/13/3 18/26/3 17/12/3

v 1.64583 6.16707 -134.003
f 18/26/3 12/13/3 19/18/3

f 19/18/4 12/13/4 18/26/4

vt -36.9094 -2.84217e-014
vt -30.5367 1.9685
vt -36.9094 1.9685
f 11/27/8 19/28/8 12/29/8

vt -30.5367 -2.84217e-014
f 19/28/8 11/27/8 14/30/8

f 14/30/7 11/27/7 19/28/7

v 1.69583 6.19807 -134.003
f 20/26/3 11/13/3 14/18/3

f 11/13/3 20/26/3 10/12/3

f 14/18/4 11/13/4 20/26/4

f 10/12/4 20/26/4 11/13/4

v 1.69588 6.19807 -134.19
vt -37.8989 20.1826
f 10/12/3 20/26/3 21/31/3

f 21/31/4 20/26/4 10/12/4

v 1.69588 6.19807 -134.165
vt -36.9094 20.1826
f 21/31/3 20/26/3 22/32/3

f 22/32/4 20/26/4 21/31/4

vt 30.5367 1.9685
vt 30.5367 -2.84217e-014
f 22/23/7 18/33/7 20/34/7

v 1.64588 6.19807 -134.165
f 18/33/7 22/23/7 23/19/7

f 20/34/8 18/33/8 22/23/8

vt -1.9685 20.1826
vt 2.84217e-014 20.1826
f 18/35/2 14/16/2 20/36/2

f 14/16/2 18/35/2 19/14/2

f 20/36/1 14/16/1 18/35/1

usemtl Translucent_Glass_Blue
f 14/18/3 2/7/3 20/26/3

f 14/18/4 2/7/4 8/10/4

f 20/26/4 2/7/4 14/18/4

f 20/26/3 2/7/3 22/32/3

f 22/32/4 2/7/4 20/26/4

v 1.69588 6.62293 -134.165
vt -36.9094 36.9094
f 22/32/3 2/7/3 24/37/3

f 24/37/4 2/7/4 22/32/4

usemtl Color_000
f 2/7/3 5/6/3 24/37/3

f 2/7/4 5/6/4 3/5/4

f 24/37/4 5/6/4 2/7/4

f 9/11/3 24/37/3 5/6/3

f 9/11/3 21/31/3 24/37/3

f 9/11/3 10/12/3 21/31/3

f 21/31/4 10/12/4 9/11/4

vt 1.9685 18.9621
vt -4.26326e-014 20.1826
vt -4.26326e-014 18.9621
f 17/38/1 21/39/1 10/40/1

v 1.64588 6.19807 -134.19
vt 1.9685 20.1826
f 21/39/1 17/38/1 25/41/1

f 10/40/2 21/39/2 17/38/2

f 25/41/2 17/38/2 21/39/2

f 17/12/3 18/26/3 25/31/3

f 17/12/4 18/26/4 12/13/4

f 25/31/4 18/26/4 17/12/4

f 25/31/3 18/26/3 23/32/3

f 23/32/4 18/26/4 25/31/4

f 23/19/8 22/23/8 18/33/8

f 22/23/7 25/24/7 23/19/7

f 25/24/7 22/23/7 21/25/7

f 23/19/8 25/24/8 22/23/8

v 1.64588 6.62293 -134.165
f 26/37/3 25/31/3 23/32/3

f 16/11/3 25/31/3 26/37/3

f 16/11/3 17/12/3 25/31/3

f 25/31/4 17/12/4 16/11/4

f 26/37/4 25/31/4 16/11/4

f 23/32/4 25/31/4 26/37/4

vt -1.9685 36.9094
f 22/36/2 26/42/2 23/35/2

vt 2.84217e-014 36.9094
f 26/42/2 22/36/2 24/43/2

f 24/43/1 22/36/1 26/42/1

f 24/37/3 21/31/3 22/32/3

f 22/32/4 21/31/4 24/37/4

f 21/25/8 22/23/8 25/24/8

f 24/37/4 21/31/4 9/11/4

f 5/6/4 24/37/4 9/11/4

vt 39.3701 0
v 1.64558 6.68543 -133.227
vt -5.68434e-014 1.9685
vt -1.13687e-013 0
f 9/44/7 27/45/7 5/46/7

vt 39.3701 1.9685
f 27/45/7 9/44/7 16/47/7

f 5/46/8 27/45/8 9/44/8

vt -1.9685 39.3701
vt -7.90359e-045 39.3701
f 27/48/2 6/8/2 5/49/2

v 1.64558 5.68543 -133.227
vt -1.9685 0
f 6/8/2 27/48/2 28/50/2

f 5/49/1 6/8/1 27/48/1

f 5/6/4 6/8/4 3/5/4

f 28/50/1 27/48/1 6/8/1

vt -5.68434e-014 0
vt 5.68434e-014 39.3701
f 1/5/3 28/51/3 27/52/3

f 28/51/3 1/5/3 15/9/3

f 15/9/4 1/5/4 28/51/4

f 1/5/4 15/9/4 13/10/4

f 27/52/4 28/51/4 1/5/4

f 1/5/3 27/52/3 4/7/3

f 4/7/4 27/52/4 1/5/4

f 4/7/3 27/52/3 26/37/3

f 26/37/4 27/52/4 4/7/4

f 16/11/3 26/37/3 27/52/3

f 27/52/4 26/37/4 16/11/4

f 16/47/8 9/44/8 27/45/8

vt -2.73704e-030 39.3701
vt 1.9685 2.84217e-014
vt 1.9685 39.3701
f 9/53/1 15/54/1 16/55/1

vt -2.73704e-030 2.84217e-014
f 15/54/1 9/53/1 7/56/1

f 7/56/2 9/53/2 15/54/2

f 16/55/2 15/54/2 9/53/2

vt -39.3701 0
vt -39.3701 1.9685
f 7/57/8 28/45/8 15/58/8

f 28/45/8 7/57/8 6/8/8

f 6/8/7 7/57/7 28/45/7

f 15/58/7 28/45/7 7/57/7

vt -2.46063 0
vt -2.46063 1.9685
f 26/29/8 2/59/8 4/60/8

f 2/59/8 26/29/8 24/27/8

f 4/60/7 2/59/7 26/29/7

f 4/4/2 1/1/2 2/2/2

f 24/27/7 26/29/7 2/59/7

f 23/35/1 26/42/1 22/36/1

f 10/25/8 11/23/8 17/24/8

f 19/14/1 18/35/1 14/16/1

f 12/29/7 19/28/7 11/27/7

g Mesh2 ventana3_1_1 DES030 Model

l 22 20

l 22 23

l 21 22

l 10 21

l 11 10

l 14 11

l 14 19

l 20 14

l 20 18

l 18 19

l 23 18

l 25 23

l 17 25

l 12 17

l 19 12

l 11 12

l 11 8

l 8 13

l 8 3

l 3 2

l 3 1

l 1 4

l 13 1

l 12 13

l 2 4

l 2 24

l 24 22

l 24 26

l 26 23

l 4 26

l 10 17

l 21 25

g Mesh3 ventana3_1_1 DES030 Model

l 5 27

l 5 9

l 6 5

l 7 6

l 7 15

l 9 7

l 9 16

l 16 15

l 27 16

l 28 27

l 15 28

l 6 28

g Mesh4 ventana3_1_2 DES030 Model

v 1.64607 5.74793 -134.79
v 1.69607 6.62293 -134.79
v 1.69607 5.74793 -134.79
f 29/1/1 30/2/1 31/3/1

v 1.64607 6.62293 -134.79
f 30/2/1 29/1/1 32/4/1

f 31/3/2 30/2/2 29/1/2

v 1.69605 6.68543 -134.727
f 31/5/3 33/6/3 30/7/3

v 1.69605 5.68543 -134.727
f 31/5/3 34/8/3 33/6/3

v 1.69637 5.68543 -135.727
f 34/8/3 31/5/3 35/9/3

f 35/9/4 31/5/4 34/8/4

v 1.69635 5.74793 -135.665
f 36/10/3 35/9/3 31/5/3

v 1.69637 6.68543 -135.727
f 35/9/3 36/10/3 37/11/3

f 37/11/4 36/10/4 35/9/4

v 1.69636 6.16707 -135.69
f 37/11/3 36/10/3 38/12/3

f 38/12/4 36/10/4 37/11/4

v 1.69635 6.16707 -135.665
f 38/12/3 36/10/3 39/13/3

f 39/13/4 36/10/4 38/12/4

v 1.64635 6.16707 -135.665
f 40/14/2 36/15/2 39/16/2

v 1.64635 5.74793 -135.665
f 36/15/2 40/14/2 41/17/2

f 39/16/1 36/15/1 40/14/1

usemtl Translucent_Glass_Blue
v 1.6963 6.16707 -135.503
f 39/13/3 36/10/3 42/18/3

f 42/18/4 36/10/4 39/13/4

f 36/10/3 30/7/3 42/18/3

f 30/7/3 36/10/3 31/5/3

f 31/5/4 36/10/4 30/7/4

usemtl Color_000
f 31/5/4 35/9/4 36/10/4

f 41/19/5 31/20/5 36/21/5

f 31/20/5 41/19/5 29/22/5

f 29/22/6 41/19/6 31/20/6

v 1.64637 5.68543 -135.727
f 41/10/3 43/9/3 29/5/3

v 1.64637 6.68543 -135.727
f 43/9/3 41/10/3 44/11/3

f 44/11/4 41/10/4 43/9/4

v 1.64636 6.16707 -135.69
f 44/11/3 41/10/3 45/12/3

f 45/12/4 41/10/4 44/11/4

f 45/12/3 41/10/3 40/13/3

f 40/13/4 41/10/4 45/12/4

f 41/17/1 40/14/1 36/15/1

f 36/21/6 31/20/6 41/19/6

f 39/23/7 45/24/7 40/19/7

f 45/24/7 39/23/7 38/25/7

f 40/19/8 45/24/8 39/23/8

v 1.6463 6.19807 -135.503
f 40/13/3 46/26/3 45/12/3

v 1.6463 6.16707 -135.503
f 46/26/3 40/13/3 47/18/3

f 47/18/4 40/13/4 46/26/4

f 39/27/8 47/28/8 40/29/8

f 47/28/8 39/27/8 42/30/8

f 42/30/7 39/27/7 47/28/7

v 1.6963 6.19807 -135.503
f 48/26/3 39/13/3 42/18/3

f 39/13/3 48/26/3 38/12/3

f 42/18/4 39/13/4 48/26/4

f 38/12/4 48/26/4 39/13/4

v 1.69636 6.19807 -135.69
f 38/12/3 48/26/3 49/31/3

f 49/31/4 48/26/4 38/12/4

v 1.69635 6.19807 -135.665
f 49/31/3 48/26/3 50/32/3

f 50/32/4 48/26/4 49/31/4

f 50/23/7 46/33/7 48/34/7

v 1.64635 6.19807 -135.665
f 46/33/7 50/23/7 51/19/7

f 48/34/8 46/33/8 50/23/8

f 46/35/2 42/16/2 48/36/2

f 42/16/2 46/35/2 47/14/2

f 48/36/1 42/16/1 46/35/1

usemtl Translucent_Glass_Blue
f 42/18/3 30/7/3 48/26/3

f 42/18/4 30/7/4 36/10/4

f 48/26/4 30/7/4 42/18/4

f 48/26/3 30/7/3 50/32/3

f 50/32/4 30/7/4 48/26/4

v 1.69635 6.62293 -135.665
f 50/32/3 30/7/3 52/37/3

f 52/37/4 30/7/4 50/32/4

usemtl Color_000
f 30/7/3 33/6/3 52/37/3

f 30/7/4 33/6/4 31/5/4

f 52/37/4 33/6/4 30/7/4

f 37/11/3 52/37/3 33/6/3

f 37/11/3 49/31/3 52/37/3

f 37/11/3 38/12/3 49/31/3

f 49/31/4 38/12/4 37/11/4

f 45/38/1 49/39/1 38/40/1

v 1.64636 6.19807 -135.69
f 49/39/1 45/38/1 53/41/1

f 38/40/2 49/39/2 45/38/2

f 53/41/2 45/38/2 49/39/2

f 45/12/3 46/26/3 53/31/3

f 45/12/4 46/26/4 40/13/4

f 53/31/4 46/26/4 45/12/4

f 53/31/3 46/26/3 51/32/3

f 51/32/4 46/26/4 53/31/4

f 51/19/8 50/23/8 46/33/8

f 50/23/7 53/24/7 51/19/7

f 53/24/7 50/23/7 49/25/7

f 51/19/8 53/24/8 50/23/8

v 1.64635 6.62293 -135.665
f 54/37/3 53/31/3 51/32/3

f 44/11/3 53/31/3 54/37/3

f 44/11/3 45/12/3 53/31/3

f 53/31/4 45/12/4 44/11/4

f 54/37/4 53/31/4 44/11/4

f 51/32/4 53/31/4 54/37/4

f 50/36/2 54/42/2 51/35/2

f 54/42/2 50/36/2 52/43/2

f 52/43/1 50/36/1 54/42/1

f 52/37/3 49/31/3 50/32/3

f 50/32/4 49/31/4 52/37/4

f 49/25/8 50/23/8 53/24/8

f 52/37/4 49/31/4 37/11/4

f 33/6/4 52/37/4 37/11/4

v 1.64605 6.68543 -134.727
f 37/44/7 55/45/7 33/46/7

f 55/45/7 37/44/7 44/47/7

f 33/46/8 55/45/8 37/44/8

f 55/48/2 34/8/2 33/49/2

v 1.64605 5.68543 -134.727
f 34/8/2 55/48/2 56/50/2

f 33/49/1 34/8/1 55/48/1

f 33/6/4 34/8/4 31/5/4

f 56/50/1 55/48/1 34/8/1

f 29/5/3 56/51/3 55/52/3

f 56/51/3 29/5/3 43/9/3

f 43/9/4 29/5/4 56/51/4

f 29/5/4 43/9/4 41/10/4

f 55/52/4 56/51/4 29/5/4

f 29/5/3 55/52/3 32/7/3

f 32/7/4 55/52/4 29/5/4

f 32/7/3 55/52/3 54/37/3

f 54/37/4 55/52/4 32/7/4

f 44/11/3 54/37/3 55/52/3

f 55/52/4 54/37/4 44/11/4

f 44/47/8 37/44/8 55/45/8

f 37/53/1 43/54/1 44/55/1

f 43/54/1 37/53/1 35/56/1

f 35/56/2 37/53/2 43/54/2

f 44/55/2 43/54/2 37/53/2

f 35/57/8 56/45/8 43/58/8

f 56/45/8 35/57/8 34/8/8

f 34/8/7 35/57/7 56/45/7

f 43/58/7 56/45/7 35/57/7

f 54/29/8 30/59/8 32/60/8

f 30/59/8 54/29/8 52/27/8

f 32/60/7 30/59/7 54/29/7

f 32/4/2 29/1/2 30/2/2

f 52/27/7 54/29/7 30/59/7

f 51/35/1 54/42/1 50/36/1

f 38/25/8 39/23/8 45/24/8

f 47/14/1 46/35/1 42/16/1

f 40/29/7 47/28/7 39/27/7

g Mesh5 ventana3_1_2 DES030 Model

l 50 48

l 50 51

l 49 50

l 38 49

l 39 38

l 42 39

l 42 47

l 48 42

l 48 46

l 46 47

l 51 46

l 53 51

l 45 53

l 40 45

l 47 40

l 39 40

l 39 36

l 36 41

l 36 31

l 31 30

l 31 29

l 29 32

l 41 29

l 40 41

l 30 32

l 30 52

l 52 50

l 52 54

l 54 51

l 32 54

l 38 45

l 49 53

g Mesh6 ventana3_1_2 DES030 Model

l 33 55

l 33 37

l 34 33

l 35 34

l 35 43

l 37 35

l 37 44

l 44 43

l 55 44

l 56 55

l 43 56

l 34 56

g Mesh7 DES030 Model

usemtl _Color_C03_1
v 1.6959 4.68543 -134.227
vt 80.01 4.06761e-013
vn 1 3.90693e-014 0.00031484
vt 40.64 39.3701
v 1.69558 4.68543 -133.227
vt 40.64 2.25417e-012
f 57/61/9 6/62/9 58/63/9

v 1.6959 5.68543 -134.227
vt 80.01 39.3701
f 6/62/9 57/61/9 59/64/9

usemtl _7
vt 43.4958 0.962408
vn -1 -3.90693e-014 -0.00031484
vt 43.4958 1.16781
vt 43.8223 0.962408
f 58/65/10 6/66/10 57/67/10

usemtl _Color_C03_1
v 1.69558 6.68543 -133.227
vt 40.64 78.7402
f 60/68/9 58/63/9 6/62/9

v 1.69531 8.28543 -132.357
vt 6.38799 141.732
f 61/69/9 58/63/9 60/68/9

v 1.69531 4.68543 -132.357
vt 6.38799 -1.95648e-014
f 58/63/9 61/69/9 62/70/9

usemtl _7
vt 43.2118 0.962408
vt 43.2118 1.70186
f 62/71/10 61/72/10 58/65/10

usemtl _Color_C03_1
vt -1.95571 141.732
vn 0.00031484 -1.01002e-018 -1
v 2.00531 4.68543 -132.357
vt -14.1604 2.33059e-012
vt -1.95571 5.68499e-014
f 61/73/11 63/74/11 62/75/11

v 2.00531 8.28543 -132.357
vt -14.1604 141.732
f 63/74/11 61/73/11 64/76/11

usemtl _7
vt -0.539875 0.962408
vn -0.00031484 1.01002e-018 1
vt -0.641083 0.962408
vt -0.539875 1.70186
f 62/77/12 63/78/12 61/79/12

usemtl FrontColor
vt -1.9685 40.6393
vn -1.4735e-015 -1 8.04325e-015
vt -14.1624 6.38353
vt -1.95772 6.38737
f 58/80/13 63/81/13 62/82/13

vt -1.9809 80.0094
f 63/81/13 58/80/13 57/83/13

usemtl _Tile_Ceramic_Natural_7
vt -1.20577 94.1374
vn 1.4735e-015 1 -8.04325e-015
vt -1.42625 94.1373
vt -1.20596 94.7562
f 62/84/14 63/85/14 58/86/14

vt -1.20619 95.4674
f 57/87/14 58/86/14 63/85/14

usemtl FrontColor
v 1.69605 4.68543 -134.727
vt -1.9871 99.6945
f 63/81/13 57/83/13 65/88/13

usemtl _Tile_Ceramic_Natural_7
vt -1.2063 95.823
f 65/89/14 57/87/14 63/85/14

usemtl _Color_C03_1
vt 99.6951 4.06761e-013
f 59/64/9 57/61/9 65/90/9

usemtl _7
vt 43.8223 1.16781
f 59/91/10 57/67/10 6/66/10

vt 43.9855 0.962408
f 65/92/10 57/67/10 59/91/10

usemtl _Color_C03_1
v 1.6959 6.68543 -134.227
vt 80.01 78.7402
f 59/64/9 65/90/9 66/93/9

usemtl _7
vt 43.8223 1.37322
f 66/94/10 65/92/10 59/91/10

usemtl _Color_C03_1
v 1.69605 6.68543 -134.727
vt 99.6951 78.7402
f 67/95/9 66/93/9 65/90/9

v 1.69637 8.28543 -135.727
vt 139.065 141.732
f 68/96/9 66/93/9 67/95/9

f 68/96/9 60/68/9 66/93/9

f 61/69/9 60/68/9 68/96/9

usemtl _7
vt 43.4958 1.37322
f 60/97/10 58/65/10 61/72/10

f 6/66/10 58/65/10 60/97/10

vt 44.312 1.70186
f 68/98/10 60/97/10 61/72/10

f 66/94/10 60/97/10 68/98/10

vt 43.9855 1.37322
f 67/99/10 66/94/10 68/98/10

f 65/92/10 66/94/10 67/99/10

usemtl _Color_C03_1
vt 99.6951 39.3701
f 67/95/9 65/90/9 34/100/9

usemtl _7
vt 43.9855 1.16781
f 34/101/10 65/92/10 67/99/10

usemtl _Color_C03_1
v 1.69637 4.68543 -135.727
vt 139.065 3.21496e-013
f 69/102/9 34/100/9 65/90/9

v 1.69637 5.68543 -135.727
vt 139.065 39.3701
f 34/100/9 69/102/9 70/103/9

usemtl _7
vt 44.312 0.962408
f 65/92/10 34/101/10 69/104/10

vt 44.312 1.16781
f 70/105/10 69/104/10 34/101/10

usemtl _Color_C03_1
v 1.69662 4.68543 -136.527
vt 170.561 3.72786e-014
f 70/103/9 69/102/9 71/106/9

usemtl _7
vt 44.5732 0.962408
f 71/107/10 69/104/10 70/105/10

usemtl FrontColor
vt -1.99949 139.065
vt -2.00941 170.561
f 63/81/13 69/108/13 71/109/13

f 63/81/13 65/88/13 69/108/13

usemtl _Tile_Ceramic_Natural_7
vt -1.20652 96.5343
f 69/110/14 65/89/14 63/85/14

vt -1.2067 97.1033
f 71/111/14 69/110/14 63/85/14

usemtl FrontColor
v 2.00662 4.68543 -136.527
vt -14.2141 170.557
f 63/81/13 71/109/13 72/112/13

usemtl _Tile_Ceramic_Natural_7
vt -1.42718 97.1032
f 72/113/14 71/111/14 63/85/14

usemtl _Color_C03_1
v 2.00662 8.28543 -136.527
vt 14.1604 141.732
vn -0.00031484 -2.88381e-014 1
vt 1.95571 -4.80497e-012
vt 14.1604 -4.80497e-012
f 73/114/15 71/115/15 72/116/15

v 1.69662 8.28543 -136.527
vt 1.95571 141.732
f 71/115/15 73/114/15 74/117/15

usemtl _7
vt 0.641083 0.962408
vn 0.00031484 2.88381e-014 -1
vt 0.539875 0.962408
vt 0.641083 1.70186
f 72/118/16 71/119/16 73/120/16

vt 0.539875 1.70186
f 74/121/16 73/120/16 71/119/16

usemtl _Color_C03_1
vt 170.561 141.732
f 68/96/9 71/106/9 74/122/9

v 1.69637 6.68543 -135.727
vt 139.065 78.7402
f 75/123/9 71/106/9 68/96/9

f 70/103/9 71/106/9 75/123/9

usemtl _7
vt 44.312 1.37322
f 75/124/10 71/107/10 70/105/10

f 68/98/10 71/107/10 75/124/10

vt 44.5732 1.70186
f 74/125/10 71/107/10 68/98/10

usemtl _Color_C03_1
f 68/96/9 67/95/9 75/123/9

usemtl _7
f 75/124/10 67/99/10 68/98/10

usemtl _Color_C03_1
v 2.00673 4.68543 -136.866
vt 183.914 1.70376e-012
vn 1 -1.20319e-013 0.00031484
vt 170.561 1.81745e-012
f 76/126/17 73/122/17 72/127/17

v 2.00673 8.28543 -136.866
vt 183.914 141.732
f 73/122/17 76/126/17 77/128/17

usemtl _7
vn -1 1.20319e-013 -0.00031484
vt 44.6839 0.962408
f 72/107/18 73/125/18 76/129/18

vt 44.6839 1.70186
f 77/130/18 76/129/18 73/125/18

usemtl FrontColor
vt -14.2183 141.732
vn 0 0 -1
v 6.16892 4.68543 -136.866
vt -178.084 6.53699e-013
vt -14.2183 0
f 77/131/19 78/132/19 76/133/19

v 6.16892 8.28543 -136.866
vt -178.084 141.732
f 78/132/19 77/131/19 79/134/19

usemtl _Color_C03_1
vn -0 -0 1
f 76/133/20 78/132/20 77/131/20

usemtl FrontColor
v 6.16745 4.68543 -132.195
vt -178.026 -1.23971e-026
vt -14.2183 183.91
vt -178.084 183.91
f 80/135/13 76/136/13 78/137/13

f 80/135/13 72/112/13 76/136/13

f 80/135/13 63/81/13 72/112/13

v 2.00526 4.68543 -132.196
vt -14.1605 0.0515915
f 63/81/13 80/135/13 81/138/13

usemtl _Tile_Ceramic_Natural_7
vt -1.42621 94.023
vt -4.38652 94.022
f 81/139/14 80/140/14 63/85/14

usemtl _Color_C03_1
vt -14.1604 2.33058e-012
vn 0.00031484 1.05925e-020 -1
v 6.16745 8.28543 -132.195
vt -178.026 141.732
vt -178.026 1.27898e-012
f 81/141/21 82/142/21 80/143/21

v 2.00526 8.28543 -132.196
f 82/142/21 81/141/21 83/76/21

usemtl BackColor
vn -0.00031484 -1.05925e-020 1
f 80/143/22 82/142/22 81/141/22

usemtl _Color_C03_1
vt -0.0560224 141.732
vn -1 -7.50684e-008 -0.000314686
v 6.16806 7.68543 -134.115
vt -75.6466 118.11
vt -0.0560224 -1.33642e-005
f 82/144/23 84/145/23 80/146/23

v 6.16892 8.28543 -136.861
vt -183.751 141.732
f 84/145/23 82/144/23 85/147/23

vn 1 7.50684e-008 0.000314686
f 80/146/24 84/145/24 82/144/24

v 6.16806 4.68543 -134.115
vt -75.6466 -1.33642e-005
f 80/146/23 84/145/23 86/148/23

f 86/148/24 84/145/24 80/146/24

usemtl FrontColor
vt -178.05 75.5905
f 80/135/13 78/137/13 86/149/13

usemtl _Tile_Ceramic_Natural_7
vt -4.38757 97.3444
vt -1.42726 97.3444
f 78/150/14 76/151/14 80/140/14

f 76/151/14 72/113/14 80/140/14

f 72/113/14 63/85/14 80/140/14

vt -4.38695 95.3876
f 86/152/14 78/150/14 80/140/14

usemtl FrontColor
v 6.16867 4.68543 -136.053
vt -178.074 151.89
f 86/149/13 78/137/13 87/153/13

usemtl _Tile_Ceramic_Natural_7
vt -4.38739 96.766
f 87/154/14 78/150/14 86/152/14

usemtl _Color_C03_1
vt -151.946 -1.33642e-005
vt -183.966 -1.33642e-005
f 87/155/23 85/147/23 78/156/23

v 6.16836 7.68543 -135.065
vt -113.048 118.11
f 88/157/23 85/147/23 87/155/23

f 84/145/23 85/147/23 88/157/23

f 85/147/24 82/144/24 84/145/24

f 88/157/24 85/147/24 84/145/24

f 87/155/24 85/147/24 88/157/24

f 78/156/24 85/147/24 87/155/24

vt -183.966 141.732
f 78/156/23 85/147/23 79/158/23

f 79/158/24 85/147/24 78/156/24

f 79/134/20 77/131/20 78/132/20

v 6.16836 4.68543 -135.065
vt -113.048 -1.33642e-005
f 87/155/23 89/159/23 88/157/23

f 88/157/24 89/159/24 87/155/24

usemtl FrontColor
vt -178.062 112.992
f 86/149/13 87/153/13 89/160/13

usemtl _Tile_Ceramic_Natural_7
vt -4.38717 96.0633
f 89/161/14 87/154/14 86/152/14

usemtl BackColor
f 83/76/22 81/141/22 82/142/22

usemtl _Color_C03_1
vt 6.38799 2.33058e-012
vn 1 -2.64103e-022 0.00031484
vt 0.0560498 141.732
vt 0.0560498 2.33058e-012
f 63/162/25 83/163/25 81/164/25

f 83/163/25 63/162/25 64/69/25

usemtl _7
vt 43.1593 0.962408
vn -1 2.64103e-022 -0.00031484
vt 43.1593 1.70186
f 81/165/26 83/166/26 63/71/26

f 64/72/26 63/71/26 83/166/26

vt -0.641083 1.70186
f 64/167/12 61/79/12 63/78/12

g Mesh8 DES030 Model

l 62 58

l 62 61

l 62 63

l 63 64

l 81 63

l 81 83

l 81 80

l 80 82

l 86 80

l 86 84

l 89 86

l 89 87

l 89 88

l 84 88

l 87 78

l 78 79

l 76 78

l 72 76

l 72 71

l 72 73

l 73 74

l 73 77

l 76 77

l 77 79

l 85 79

l 82 85

l 83 82

l 83 64

l 61 64

l 61 68

l 68 74

l 71 74

l 69 71

l 69 65

l 57 65

l 57 58

g Mesh9 DES030 Model

l 70 75

l 70 34

l 34 67

l 67 75

g Mesh10 DES030 Model

l 59 66

l 59 6

l 6 60

l 60 66

