# Alias OBJ Model File
# Exported from SketchUp, (c) 2000-2012 Trimble Navigation Limited
# File units = meters

mtllib DES035.mtl

g Mesh1 DES035 Model

usemtl FrontColor
v 15.4738 4.68543 -127.482
vt -245.294 100.318
vn -1.80242e-016 -1 1.41823e-015
v 9.2433 4.68543 -126.883
vt -5.68434e-014 76.7209
v 9.2433 4.68543 -127.482
vt -5.68434e-014 100.318
f 1/1/1 2/2/1 3/3/1

v 9.2433 4.68543 -125.85
vt -5.68434e-014 36.0572
f 2/2/1 1/1/1 4/4/1

usemtl _Tile_Ceramic_Natural_7
vt -6.57418 90.67
vn 1.80242e-016 1 -1.41823e-015
vt -6.57418 90.2437
vt -11.0055 90.67
f 3/5/2 2/6/2 1/7/2

usemtl FrontColor
vt -76.7209 1.7053e-013
vn -1 -2.51585e-016 -2.91945e-017
v 9.2433 8.28543 -127.482
vt -100.318 141.732
vt -100.318 8.52651e-014
f 2/8/3 5/9/3 3/10/3

v 9.2433 7.68543 -126.883
vt -76.7209 118.11
f 6/11/3 5/9/3 2/8/3

v 9.2433 7.68543 -125.85
vt -36.0572 118.11
f 7/12/3 5/9/3 6/11/3

v 9.2433 8.28543 -124.934
vt 0 141.732
f 7/12/3 8/13/3 5/9/3

v 9.2433 4.68543 -124.934
vt -1.65951e-030 1.98952e-013
f 8/13/3 7/12/3 9/14/3

usemtl _Color_C03_1
vn 1 2.51585e-016 2.91945e-017
f 9/14/4 7/12/4 8/13/4

usemtl FrontColor
v 9.2433 4.68543 -125.788
vt -33.6107 1.7053e-013
f 9/14/3 7/12/3 10/15/3

usemtl _Color_C03_1
f 10/15/4 7/12/4 9/14/4

usemtl FrontColor
vt -36.0572 1.7053e-013
f 4/16/3 10/15/3 7/12/3

vt -5.68434e-014 33.6107
f 4/4/1 1/1/1 10/17/1

usemtl _Tile_Ceramic_Natural_7
vt -6.57418 89.5091
f 4/18/2 1/7/2 2/6/2

vt -6.57418 89.4649
f 10/19/2 1/7/2 4/18/2

usemtl FrontColor
vt -5.68434e-014 -2.8216e-028
f 10/17/1 1/1/1 9/20/1

usemtl _Tile_Ceramic_Natural_7
vt -6.57418 88.8577
f 9/21/2 1/7/2 10/19/2

usemtl FrontColor
v 15.1652 4.68543 -125.37
vt -233.146 17.1791
f 9/20/1 1/1/1 11/22/1

usemtl _Tile_Ceramic_Natural_7
vt -10.7861 89.1681
f 11/23/2 1/7/2 9/21/2

usemtl FrontColor
v 15.7325 4.68543 -125.37
vt -255.481 17.1791
f 11/22/1 1/1/1 12/24/1

usemtl _Tile_Ceramic_Natural_7
vt -11.1896 89.1681
f 12/25/2 1/7/2 11/23/2

usemtl FrontColor
v 15.7325 4.68543 -127.482
vt -255.481 100.318
f 12/24/1 1/1/1 13/26/1

usemtl _Tile_Ceramic_Natural_7
vt -11.1896 90.67
f 13/27/2 1/7/2 12/25/2

usemtl _Color_C03_1
vt 255.481 5.68434e-014
vn 0 0 1
vt 5.68434e-014 8.52651e-014
vt 245.294 0
f 13/28/5 3/29/5 1/30/5

v 15.7325 8.28543 -127.482
vt 255.481 141.732
f 3/29/5 13/28/5 14/31/5

usemtl BackColor
vn -0 -0 -1
f 1/30/6 3/29/6 13/28/6

f 14/31/6 13/28/6 3/29/6

usemtl FrontColor
vt 100.318 141.732
vn 1 0 -0
v 15.7325 8.05943 -127.35
vt 95.104 132.834
vt 100.318 5.68434e-014
f 14/32/7 15/33/7 13/34/7

v 15.7325 8.05943 -125.499
vt 22.2299 132.834
f 14/32/7 16/35/7 15/33/7

v 15.7325 8.28543 -125.37
vt 17.1791 141.732
f 17/36/7 16/35/7 14/32/7

v 15.7325 5.03543 -125.499
vt 22.2299 13.7793
f 16/35/7 17/36/7 18/37/7

usemtl _Color_C03_1
vn -1 -0 0
f 14/32/8 16/35/8 17/36/8

f 15/33/8 16/35/8 14/32/8

usemtl Translucent_Glass_Blue
v 15.7325 5.03543 -127.35
vt 95.104 13.7793
f 16/35/7 19/38/7 15/33/7

f 19/38/7 16/35/7 18/37/7

f 18/37/8 16/35/8 19/38/8

usemtl _Color_C03_1
f 18/37/8 17/36/8 16/35/8

usemtl FrontColor
vt 17.1791 1.42109e-013
f 12/39/7 18/37/7 17/36/7

f 18/37/7 12/39/7 13/34/7

usemtl _Color_C03_1
f 17/36/8 18/37/8 12/39/8

f 13/34/8 12/39/8 18/37/8

usemtl FrontColor
f 18/37/7 13/34/7 19/38/7

usemtl _Color_C03_1
f 19/38/8 13/34/8 18/37/8

usemtl FrontColor
f 19/38/7 13/34/7 15/33/7

usemtl _Color_C03_1
f 15/33/8 13/34/8 19/38/8

f 13/34/8 15/33/8 14/32/8

usemtl Translucent_Glass_Blue
f 15/33/8 19/38/8 16/35/8

usemtl FrontColor
vt 233.146 1.7053e-013
vt 255.481 1.42109e-013
f 17/31/5 11/40/5 12/41/5

v 15.1652 8.28543 -125.37
vt 233.146 141.732
f 11/40/5 17/31/5 20/42/5

usemtl _Color_C03_1
f 12/41/6 11/40/6 17/31/6

f 20/42/6 17/31/6 11/40/6

usemtl FrontColor
v 15.1652 8.28543 -124.934
vt 17.1791 1.7053e-013
f 21/13/7 11/43/7 20/36/7

v 15.1652 4.68543 -124.934
vt 0 2.27374e-013
f 11/43/7 21/13/7 22/44/7

usemtl _Color_C03_1
f 22/44/8 21/13/8 11/43/8

usemtl FrontColor
vt 233.146 2.27374e-013
f 8/13/5 22/45/5 21/42/5

vt 5.68434e-014 1.98952e-013
f 22/45/5 8/13/5 9/46/5

usemtl _Color_C03_1
f 9/46/6 8/13/6 22/45/6

f 21/42/6 22/45/6 8/13/6

usemtl FrontColor
vt -233.146 -3.82066e-028
f 22/47/1 9/20/1 11/22/1

usemtl _Tile_Ceramic_Natural_7
vt -10.7861 88.8577
f 11/23/2 9/21/2 22/48/2

usemtl _Color_C03_1
f 20/36/8 11/43/8 21/13/8

f 3/29/5 14/31/5 5/13/5

usemtl BackColor
f 5/13/6 14/31/6 3/29/6

usemtl _Color_C03_1
f 3/10/4 5/9/4 2/8/4

f 2/8/4 5/9/4 6/11/4

f 6/11/4 5/9/4 7/12/4

f 5/9/4 8/13/4 7/12/4

f 7/12/4 10/15/4 4/16/4

g Mesh2 DES035 Model

l 3 5

l 1 3

l 13 1

l 13 14

l 12 13

l 12 17

l 12 11

l 11 20

l 11 22

l 22 21

l 22 9

l 9 8

l 9 10

l 4 10

l 4 7

l 2 4

l 6 2

l 7 6

l 2 3

l 8 5

l 21 8

l 20 21

l 17 20

l 17 14

l 5 14

g Mesh3 DES035 Model

l 16 15

l 18 16

l 19 18

l 15 19

