# Alias OBJ Model File
# Exported from SketchUp, (c) 2000-2012 Trimble Navigation Limited
# File units = meters

mtllib DES014.mtl

g Mesh1 ventana3_1_1 DES014 Model

usemtl Color_000
v 1.60359 5.74793 0.160271
vt 1.9685 2.46063
vn 0.00031484 -3.39234e-016 -1
v 1.65359 6.62293 0.160287
vt -1.71065e-031 36.9094
v 1.65359 5.74793 0.160287
vt -1.71065e-031 2.46063
f 1/1/1 2/2/1 3/3/1

v 1.60359 6.62293 0.160271
vt 1.9685 36.9094
f 2/2/1 1/1/1 4/4/1

vn -0.00031484 3.39234e-016 1
f 3/3/2 2/2/2 1/1/2

vt -2.46063 2.46063
vn -1 -2.04934e-016 -0.00031484
v 1.65357 6.68543 0.222787
vt 1.13687e-013 39.3701
vt -2.46063 36.9094
f 3/5/3 5/6/3 2/7/3

v 1.65357 5.68543 0.222787
vt 0 0
f 3/5/3 6/8/3 5/6/3

v 1.65388 5.68543 -0.777213
vt -39.3701 2.84217e-014
f 6/8/3 3/5/3 7/9/3

vn 1 2.04934e-016 0.00031484
f 7/9/4 3/5/4 6/8/4

v 1.65386 5.74793 -0.714713
vt -36.9094 2.46063
f 8/10/3 7/9/3 3/5/3

v 1.65388 6.68543 -0.777213
vt -39.3701 39.3701
f 7/9/3 8/10/3 9/11/3

f 9/11/4 8/10/4 7/9/4

v 1.65387 6.16707 -0.739844
vt -37.8989 18.9621
f 9/11/3 8/10/3 10/12/3

f 10/12/4 8/10/4 9/11/4

v 1.65386 6.16707 -0.714713
vt -36.9094 18.9621
f 10/12/3 8/10/3 11/13/3

f 11/13/4 8/10/4 10/12/4

v 1.60386 6.16707 -0.714729
vt -1.9685 18.9621
vt 2.56597e-030 2.46063
vt 2.84217e-014 18.9621
f 12/14/2 8/15/2 11/16/2

v 1.60386 5.74793 -0.714729
vt -1.9685 2.46063
f 8/15/2 12/14/2 13/17/2

f 11/16/1 8/15/1 12/14/1

usemtl Translucent_Glass_Blue
v 1.65381 6.16707 -0.552844
vt -30.5367 18.9621
f 11/13/3 8/10/3 14/18/3

f 14/18/4 8/10/4 11/13/4

f 8/10/3 2/7/3 14/18/3

f 2/7/3 8/10/3 3/5/3

f 3/5/4 8/10/4 2/7/4

usemtl Color_000
f 3/5/4 7/9/4 8/10/4

vt 36.9094 1.9685
vn -2.04836e-016 1 -3.13516e-016
vt 2.46063 1.21318e-031
vt 36.9094 1.21318e-031
f 13/19/5 3/20/5 8/21/5

vt 2.46063 1.9685
f 3/20/5 13/19/5 1/22/5

vn 2.04836e-016 -1 3.13516e-016
f 1/22/6 13/19/6 3/20/6

v 1.60388 5.68543 -0.777229
f 13/10/3 15/9/3 1/5/3

v 1.60388 6.68543 -0.777229
f 15/9/3 13/10/3 16/11/3

f 16/11/4 13/10/4 15/9/4

v 1.60387 6.16707 -0.73986
f 16/11/3 13/10/3 17/12/3

f 17/12/4 13/10/4 16/11/4

f 17/12/3 13/10/3 12/13/3

f 12/13/4 13/10/4 17/12/4

f 13/17/1 12/14/1 8/15/1

f 8/21/6 3/20/6 13/19/6

vt 36.9094 -2.84217e-014
vn -2.04827e-016 1 -3.39299e-016
vt 37.8989 1.9685
f 11/23/7 17/24/7 12/19/7

vt 37.8989 -4.26326e-014
f 17/24/7 11/23/7 10/25/7

vn 2.04827e-016 -1 3.39299e-016
f 12/19/8 17/24/8 11/23/8

v 1.60381 6.19807 -0.55286
vt -30.5367 20.1826
f 12/13/3 18/26/3 17/12/3

v 1.60381 6.16707 -0.55286
f 18/26/3 12/13/3 19/18/3

f 19/18/4 12/13/4 18/26/4

vt -36.9094 -2.84217e-014
vt -30.5367 1.9685
vt -36.9094 1.9685
f 11/27/8 19/28/8 12/29/8

vt -30.5367 -2.84217e-014
f 19/28/8 11/27/8 14/30/8

f 14/30/7 11/27/7 19/28/7

v 1.65381 6.19807 -0.552844
f 20/26/3 11/13/3 14/18/3

f 11/13/3 20/26/3 10/12/3

f 14/18/4 11/13/4 20/26/4

f 10/12/4 20/26/4 11/13/4

v 1.65387 6.19807 -0.739844
vt -37.8989 20.1826
f 10/12/3 20/26/3 21/31/3

f 21/31/4 20/26/4 10/12/4

v 1.65386 6.19807 -0.714713
vt -36.9094 20.1826
f 21/31/3 20/26/3 22/32/3

f 22/32/4 20/26/4 21/31/4

vt 30.5367 1.9685
vt 30.5367 -2.84217e-014
f 22/23/7 18/33/7 20/34/7

v 1.60386 6.19807 -0.714729
f 18/33/7 22/23/7 23/19/7

f 20/34/8 18/33/8 22/23/8

vt -1.9685 20.1826
vt 2.84217e-014 20.1826
f 18/35/2 14/16/2 20/36/2

f 14/16/2 18/35/2 19/14/2

f 20/36/1 14/16/1 18/35/1

usemtl Translucent_Glass_Blue
f 14/18/3 2/7/3 20/26/3

f 14/18/4 2/7/4 8/10/4

f 20/26/4 2/7/4 14/18/4

f 20/26/3 2/7/3 22/32/3

f 22/32/4 2/7/4 20/26/4

v 1.65386 6.62293 -0.714713
vt -36.9094 36.9094
f 22/32/3 2/7/3 24/37/3

f 24/37/4 2/7/4 22/32/4

usemtl Color_000
f 2/7/3 5/6/3 24/37/3

f 2/7/4 5/6/4 3/5/4

f 24/37/4 5/6/4 2/7/4

f 9/11/3 24/37/3 5/6/3

f 9/11/3 21/31/3 24/37/3

f 9/11/3 10/12/3 21/31/3

f 21/31/4 10/12/4 9/11/4

vt 1.9685 18.9621
vt -4.26326e-014 20.1826
vt -4.26326e-014 18.9621
f 17/38/1 21/39/1 10/40/1

v 1.60387 6.19807 -0.73986
vt 1.9685 20.1826
f 21/39/1 17/38/1 25/41/1

f 10/40/2 21/39/2 17/38/2

f 25/41/2 17/38/2 21/39/2

f 17/12/3 18/26/3 25/31/3

f 17/12/4 18/26/4 12/13/4

f 25/31/4 18/26/4 17/12/4

f 25/31/3 18/26/3 23/32/3

f 23/32/4 18/26/4 25/31/4

f 23/19/8 22/23/8 18/33/8

f 22/23/7 25/24/7 23/19/7

f 25/24/7 22/23/7 21/25/7

f 23/19/8 25/24/8 22/23/8

v 1.60386 6.62293 -0.714729
f 26/37/3 25/31/3 23/32/3

f 16/11/3 25/31/3 26/37/3

f 16/11/3 17/12/3 25/31/3

f 25/31/4 17/12/4 16/11/4

f 26/37/4 25/31/4 16/11/4

f 23/32/4 25/31/4 26/37/4

vt -1.9685 36.9094
f 22/36/2 26/42/2 23/35/2

vt 2.84217e-014 36.9094
f 26/42/2 22/36/2 24/43/2

f 24/43/1 22/36/1 26/42/1

f 24/37/3 21/31/3 22/32/3

f 22/32/4 21/31/4 24/37/4

f 21/25/8 22/23/8 25/24/8

f 24/37/4 21/31/4 9/11/4

f 5/6/4 24/37/4 9/11/4

vt 39.3701 0
v 1.60357 6.68543 0.222771
vt -5.68434e-014 1.9685
vt -1.13687e-013 0
f 9/44/7 27/45/7 5/46/7

vt 39.3701 1.9685
f 27/45/7 9/44/7 16/47/7

f 5/46/8 27/45/8 9/44/8

vt -1.9685 39.3701
vt -7.90359e-045 39.3701
f 27/48/2 6/8/2 5/49/2

v 1.60357 5.68543 0.222771
vt -1.9685 0
f 6/8/2 27/48/2 28/50/2

f 5/49/1 6/8/1 27/48/1

f 5/6/4 6/8/4 3/5/4

f 28/50/1 27/48/1 6/8/1

vt -5.68434e-014 0
vt 5.68434e-014 39.3701
f 1/5/3 28/51/3 27/52/3

f 28/51/3 1/5/3 15/9/3

f 15/9/4 1/5/4 28/51/4

f 1/5/4 15/9/4 13/10/4

f 27/52/4 28/51/4 1/5/4

f 1/5/3 27/52/3 4/7/3

f 4/7/4 27/52/4 1/5/4

f 4/7/3 27/52/3 26/37/3

f 26/37/4 27/52/4 4/7/4

f 16/11/3 26/37/3 27/52/3

f 27/52/4 26/37/4 16/11/4

f 16/47/8 9/44/8 27/45/8

vt -2.73704e-030 39.3701
vt 1.9685 2.84217e-014
vt 1.9685 39.3701
f 9/53/1 15/54/1 16/55/1

vt -2.73704e-030 2.84217e-014
f 15/54/1 9/53/1 7/56/1

f 7/56/2 9/53/2 15/54/2

f 16/55/2 15/54/2 9/53/2

vt -39.3701 0
vt -39.3701 1.9685
f 7/57/8 28/45/8 15/58/8

f 28/45/8 7/57/8 6/8/8

f 6/8/7 7/57/7 28/45/7

f 15/58/7 28/45/7 7/57/7

vt -2.46063 0
vt -2.46063 1.9685
f 26/29/8 2/59/8 4/60/8

f 2/59/8 26/29/8 24/27/8

f 4/60/7 2/59/7 26/29/7

f 4/4/2 1/1/2 2/2/2

f 24/27/7 26/29/7 2/59/7

f 23/35/1 26/42/1 22/36/1

f 10/25/8 11/23/8 17/24/8

f 19/14/1 18/35/1 14/16/1

f 12/29/7 19/28/7 11/27/7

g Mesh2 ventana3_1_1 DES014 Model

l 22 20

l 22 23

l 21 22

l 10 21

l 11 10

l 14 11

l 14 19

l 20 14

l 20 18

l 18 19

l 23 18

l 25 23

l 17 25

l 12 17

l 19 12

l 11 12

l 11 8

l 8 13

l 8 3

l 3 2

l 3 1

l 1 4

l 13 1

l 12 13

l 2 4

l 2 24

l 24 22

l 24 26

l 26 23

l 4 26

l 10 17

l 21 25

g Mesh3 ventana3_1_1 DES014 Model

l 5 27

l 5 9

l 6 5

l 7 6

l 7 15

l 9 7

l 9 16

l 16 15

l 27 16

l 28 27

l 15 28

l 6 28

g Mesh4 DES014 Model

usemtl _Color_C03_1
v 7.18347 8.28543 0.524528
vt -219.677 141.732
v 7.78347 4.68543 0.524717
vt -243.299 4.58916e-013
v 7.18347 4.68543 0.524528
vt -219.677 6.10124e-014
f 29/61/1 30/62/1 31/63/1

v 7.78347 8.28543 0.524717
vt -243.299 141.732
f 30/62/1 29/61/1 32/64/1

usemtl _7
vt -2.34529 0.962408
vt -2.54118 0.962408
vt -2.34529 1.70186
f 31/65/2 30/66/2 29/67/2

usemtl FrontColor
vt -219.681 12.2203
vn 1.60807e-015 -1 4.10903e-015
v 8.11443 4.68543 -2.50518
vt -256.333 131.5
vt -243.303 12.2129
f 31/68/9 33/69/9 30/70/9

v 6.61443 4.68543 -2.50565
vt -197.278 131.519
f 31/68/9 34/71/9 33/69/9

v 7.18337 4.68543 0.834528
vt -219.677 0.015618
f 35/72/9 34/71/9 31/68/9

v 5.66443 4.68543 -2.50565
vt -159.876 131.519
f 35/72/9 36/73/9 34/71/9

v 5.66398 4.68543 -1.08595
vt -159.859 75.625
f 35/72/9 37/74/9 36/73/9

v 1.96347 4.68543 0.522885
vt -14.1695 12.285
f 35/72/9 38/75/9 37/74/9

v 1.96337 4.68543 0.832885
vt -14.1657 0.0803213
f 38/75/9 35/72/9 39/76/9

usemtl _Tile_Ceramic_Natural_7
vt -1.39643 -0.592379
vn -1.60807e-015 1 -4.10903e-015
vt -5.10909 -0.593548
vt -1.39649 -0.371895
f 39/77/10 35/78/10 38/79/10

usemtl _Color_C03_1
v 1.96337 8.28543 0.832885
vt -14.1656 141.732
vt -219.677 1.70559e-013
vt -14.1656 1.42137e-013
f 40/80/1 35/81/1 39/82/1

v 7.18337 8.28543 0.834528
f 35/81/1 40/80/1 41/61/1

usemtl _7
vt -0.641083 0.962408
vt -0.641083 1.70186
f 39/83/2 35/65/2 40/84/2

f 41/67/2 40/84/2 35/65/2

usemtl _Color_C03_1
vt -12.2895 141.732
vt -0.0847812 1.25511e-013
vt -0.0847812 141.732
f 29/85/3 35/86/3 41/87/3

vt -12.2895 1.1824e-014
f 35/86/3 29/85/3 31/88/3

usemtl _7
vt 0.271716 1.70186
vt 0.271716 0.962408
vt 0.170508 1.70186
f 41/89/4 35/90/4 29/91/4

vt 0.170508 0.962408
f 31/92/4 29/91/4 35/90/4

usemtl _Tile_Ceramic_Natural_7
vt -5.10915 -0.373064
vt -4.70443 1.78211
f 31/93/10 34/94/10 35/78/10

vt -5.77128 1.78178
f 33/95/10 34/94/10 31/93/10

usemtl _Color_C03_1
vt 256.292 -1.37715e-012
vn -0.00031484 -1.06822e-014 1
v 6.61443 6.78543 -2.50565
vt 197.237 82.6772
vt 197.237 -1.40557e-012
f 33/96/11 42/97/11 34/98/11

v 8.11443 8.28543 -2.50518
vt 256.292 141.732
f 42/97/11 33/96/11 43/99/11

usemtl _7
vt 2.1592 0.962408
vn 0.00031484 1.06822e-014 -1
vt 2.1592 1.39376
vt 2.64892 0.962408
f 34/100/12 42/101/12 33/102/12

vt 2.64892 1.70186
f 43/103/12 33/102/12 42/101/12

usemtl _Color_C03_1
v 8.11426 4.68543 -1.96518
vt -110.321 8.95856e-014
vt -131.581 141.732
vt -131.581 -2.41012e-014
f 44/104/3 43/105/3 33/106/3

v 8.11426 8.28543 -1.96518
vt -110.321 141.732
f 43/105/3 44/104/3 45/107/3

usemtl _7
vt -0.64242 1.70186
vt -0.64242 0.962408
vt -0.818718 1.70186
f 45/108/4 44/109/4 43/110/4

usemtl _Color_C03_1
vt 256.292 1.79533e-013
v 8.44426 8.28543 -1.96508
vt 269.284 141.732
f 44/111/2 46/112/2 45/99/2

v 8.44426 4.68543 -1.96508
vt 269.284 6.58464e-014
f 46/112/2 44/111/2 47/113/2

usemtl _7
vt 2.75666 0.962408
vt 2.75666 1.70186
f 47/114/1 44/102/1 46/115/1

usemtl FrontColor
v 8.44337 4.68543 0.834925
vt -269.284 1.07861e-027
vt -256.326 110.24
vt -269.318 110.236
f 48/116/9 44/117/9 47/118/9

f 48/116/9 30/70/9 44/117/9

v 7.78337 4.68543 0.834717
vt -243.3 0.00818087
f 30/70/9 48/116/9 49/119/9

usemtl _Tile_Ceramic_Natural_7
vt -5.53583 -0.593682
vt -6.00524 -0.59383
vt -5.5359 -0.373198
f 49/120/10 48/121/10 30/122/10

usemtl _Color_C03_1
vt -243.299 2.27377e-012
v 8.44337 8.28543 0.834925
vt -269.284 141.732
vt -269.284 1.70559e-013
f 49/123/1 50/124/1 48/125/1

v 7.78337 8.28543 0.834717
f 50/124/1 49/123/1 51/64/1

usemtl _7
vt -2.75666 0.962408
vt -2.75666 1.70186
f 48/126/2 50/127/2 49/66/2

usemtl _Color_C03_1
vt -110.321 -2.67638e-014
vt -0.0847812 1.15345e-013
f 50/87/3 47/128/3 48/129/3

f 47/128/3 50/87/3 46/107/3

usemtl _7
f 48/90/4 47/109/4 50/89/4

usemtl _Tile_Ceramic_Natural_7
vt -6.00587 1.39764
vt -5.77116 1.39771
f 47/130/10 44/131/10 48/121/10

f 44/131/10 30/122/10 48/121/10

usemtl FrontColor
f 30/70/9 33/69/9 44/117/9

usemtl _Tile_Ceramic_Natural_7
f 30/122/10 33/95/10 31/93/10

f 44/131/10 33/95/10 30/122/10

usemtl _7
vt -0.818718 0.962408
f 33/132/4 43/110/4 44/109/4

f 46/108/4 50/89/4 47/109/4

vt -2.54118 1.70186
f 51/133/2 49/66/2 50/127/2

usemtl _Color_C03_1
vt 0.0847812 2.22388e-012
vt 12.2895 141.732
vt 0.0847812 141.732
f 49/134/4 32/135/4 51/136/4

vt 12.2895 4.04887e-013
f 32/135/4 49/134/4 30/137/4

usemtl _7
vt -0.271716 1.70186
vt -0.170508 1.70186
vt -0.271716 0.962408
f 51/138/3 32/139/3 49/140/3

vt -0.170508 0.962408
f 30/141/3 49/140/3 32/139/3

f 32/133/2 29/67/2 30/66/2

f 45/103/1 46/115/1 44/102/1

usemtl _Color_C03_1
v 5.66443 6.78543 -2.50595
vt 159.835 82.6772
f 42/97/11 43/99/11 52/142/11

usemtl _7
vt 1.84905 1.39376
f 52/143/12 43/103/12 42/101/12

usemtl _Color_C03_1
v 5.66443 8.28543 -2.50595
vt 159.835 141.732
f 52/142/11 43/99/11 53/144/11

usemtl _7
vt 1.84905 1.70186
f 53/145/12 43/103/12 52/143/12

usemtl _Color_C03_1
vt 131.581 141.732
vn 1 4.07669e-014 0.00031484
vt 131.569 -6.40228e-012
vt 131.581 82.6772
f 53/146/13 36/147/13 52/148/13

v 5.66398 8.28543 -1.08595
vt 75.6753 141.732
f 54/149/13 36/147/13 53/146/13

vt 75.6753 -6.08964e-012
f 36/147/13 54/149/13 37/150/13

usemtl _7
vt 0.35512 0.962408
vn -1 -4.07669e-014 -0.00031484
vt 0.35512 1.70186
vt 0.81862 0.962408
f 37/151/14 54/152/14 36/153/14

usemtl _Color_C03_1
v 1.65398 8.28543 -1.08721
vt 1.96092 141.732
vn -0.00031484 4.49908e-016 1
vt 159.835 4.60373e-013
f 55/154/15 37/155/15 54/144/15

v 1.65398 4.68543 -1.08721
vt 1.96092 3.40469e-014
f 37/155/15 55/154/15 56/156/15

usemtl _7
vt 0.539875 0.962408
vn 0.00031484 -4.49908e-016 -1
vt 0.539875 1.70186
vt 1.84905 0.962408
f 56/157/16 55/158/16 37/159/16

usemtl _Color_C03_1
vn 1 -1.02159e-015 0.00031484
v 1.65388 6.68543 -0.777213
vt 63.4706 78.7402
vt 75.6753 2.00325e-015
f 55/149/17 57/160/17 56/161/17

v 1.65357 6.68543 0.222787
vt 24.1005 78.7402
f 55/149/17 58/162/17 57/160/17

v 1.65347 8.28543 0.522787
f 59/135/17 58/162/17 55/149/17

v 1.65357 4.68543 0.222787
vt 24.1005 1.1569e-013
f 59/135/17 60/163/17 58/162/17

v 1.65347 4.68543 0.522787
vt 12.2895 1.1569e-013
f 60/163/17 59/135/17 61/164/17

usemtl _7
vn -1 1.02159e-015 -0.00031484
vt -0.0725649 0.962408
f 61/141/18 59/139/18 60/165/18

usemtl _Color_C03_1
vt -1.96092 141.732
vt -14.1656 1.17856e-013
vt -1.96092 1.17856e-013
f 59/166/1 38/167/1 61/168/1

v 1.96347 8.28543 0.522885
f 38/167/1 59/166/1 62/80/1

usemtl _7
vt -0.539875 0.962408
vt -0.539875 1.70186
f 61/169/2 38/83/2 59/170/2

usemtl FrontColor
vt -1.9685 24.0999
vt -1.96479 12.2889
f 60/171/9 38/75/9 61/172/9

v 1.65388 4.68543 -0.777213
vt -1.9809 63.47
f 38/75/9 60/171/9 63/173/9

usemtl _Tile_Ceramic_Natural_7
vt -1.17601 -0.371826
vt -1.17608 -0.158454
f 61/174/10 38/79/10 60/175/10

vt -1.1763 0.552783
f 63/176/10 60/175/10 38/79/10

usemtl _Color_C03_1
vt 63.4706 1.1569e-013
v 1.65357 5.68543 0.222787
vt 24.1005 39.3701
f 63/177/17 64/178/17 60/163/17

v 1.65388 5.68543 -0.777213
vt 63.4706 39.3701
f 64/178/17 63/177/17 65/179/17

usemtl _7
vt -0.0725649 1.16781
vt 0.253912 0.962408
f 60/165/18 64/180/18 63/181/18

usemtl _Color_C03_1
f 58/162/17 60/163/17 64/178/17

usemtl _7
vt -0.0725649 1.37322
f 58/182/18 60/165/18 59/139/18

f 64/180/18 60/165/18 58/182/18

f 55/152/18 58/182/18 59/139/18

vt 0.253912 1.37322
f 57/183/18 58/182/18 55/152/18

f 56/151/18 57/183/18 55/152/18

usemtl _Color_C03_1
f 65/179/17 56/161/17 57/160/17

f 65/179/17 63/177/17 56/161/17

usemtl _7
vt 0.253912 1.16781
f 65/184/18 63/181/18 64/180/18

f 56/151/18 63/181/18 65/184/18

usemtl FrontColor
vt -1.98474 75.6747
f 38/75/9 63/173/9 56/185/9

usemtl _Tile_Ceramic_Natural_7
vt -1.17637 0.773267
f 56/186/10 63/176/10 38/79/10

usemtl FrontColor
f 38/75/9 56/185/9 37/74/9

usemtl _Tile_Ceramic_Natural_7
vt -4.02843 0.772369
f 37/187/10 56/186/10 38/79/10

f 37/187/10 38/79/10 35/78/10

vt -4.02875 1.78211
f 36/188/10 37/187/10 35/78/10

f 34/94/10 36/188/10 35/78/10

usemtl _7
f 57/183/18 56/151/18 65/184/18

f 62/84/2 59/170/2 38/83/2

usemtl _Color_C03_1
vt 12.2895 1.10784e-013
f 40/136/4 38/189/4 62/135/4

vt 0.0847812 1.39206e-013
f 38/189/4 40/136/4 39/190/4

usemtl _7
f 39/140/3 40/138/3 38/141/3

f 62/139/3 38/141/3 40/138/3

f 54/145/16 37/159/16 55/158/16

vt 0.818718 1.70186
f 53/191/14 36/153/14 54/152/14

vt 0.818718 1.39376
f 52/192/14 36/153/14 53/191/14

g Mesh5 DES014 Model

l 31 29

l 31 30

l 35 31

l 35 41

l 39 35

l 39 40

l 39 38

l 38 62

l 61 38

l 61 59

l 61 60

l 63 60

l 63 56

l 56 37

l 56 55

l 55 54

l 59 55

l 59 62

l 40 62

l 40 41

l 41 29

l 29 32

l 30 32

l 49 30

l 49 51

l 49 48

l 48 50

l 48 47

l 47 46

l 47 44

l 44 45

l 44 33

l 33 43

l 34 33

l 34 42

l 34 36

l 37 36

l 37 54

l 54 53

l 52 53

l 42 52

l 52 36

l 53 43

l 45 43

l 46 45

l 50 46

l 51 50

l 51 32

g Mesh6 DES014 Model

l 65 57

l 65 64

l 64 58

l 58 57

g Mesh7 Model

v 138.951 3.33 -157.425
v 138.951 3.3 -157.425
l 66 67

g Mesh8 Model

v 117.469 3.4 -184.196
v 117.443 3.4 -184.095
l 68 69

