# Alias OBJ Model File
# Exported from SketchUp, (c) 2000-2012 Trimble Navigation Limited
# File units = meters

mtllib DES011.mtl

g Mesh1 ventana3_1_1 CUA011 Model

usemtl Color_000
v 1.60691 5.74793 -10.3997
vt 1.9685 2.46063
vn 0.00031484 -3.39234e-016 -1
v 1.65691 6.62293 -10.3997
vt -1.71065e-031 36.9094
v 1.65691 5.74793 -10.3997
vt -1.71065e-031 2.46063
f 1/1/1 2/2/1 3/3/1

v 1.60691 6.62293 -10.3997
vt 1.9685 36.9094
f 2/2/1 1/1/1 4/4/1

vn -0.00031484 3.39234e-016 1
f 3/3/2 2/2/2 1/1/2

vt -2.46063 2.46063
vn -1 -2.04934e-016 -0.00031484
v 1.65689 6.68543 -10.3372
vt 1.13687e-013 39.3701
vt -2.46063 36.9094
f 3/5/3 5/6/3 2/7/3

v 1.65689 5.68543 -10.3372
vt 0 0
f 3/5/3 6/8/3 5/6/3

v 1.65721 5.68543 -11.3372
vt -39.3701 2.84217e-014
f 6/8/3 3/5/3 7/9/3

vn 1 2.04934e-016 0.00031484
f 7/9/4 3/5/4 6/8/4

v 1.65719 5.74793 -11.2747
vt -36.9094 2.46063
f 8/10/3 7/9/3 3/5/3

v 1.65721 6.68543 -11.3372
vt -39.3701 39.3701
f 7/9/3 8/10/3 9/11/3

f 9/11/4 8/10/4 7/9/4

v 1.65719 6.16707 -11.2998
vt -37.8989 18.9621
f 9/11/3 8/10/3 10/12/3

f 10/12/4 8/10/4 9/11/4

v 1.65719 6.16707 -11.2747
vt -36.9094 18.9621
f 10/12/3 8/10/3 11/13/3

f 11/13/4 8/10/4 10/12/4

v 1.60719 6.16707 -11.2747
vt -1.9685 18.9621
vt 2.56597e-030 2.46063
vt 2.84217e-014 18.9621
f 12/14/2 8/15/2 11/16/2

v 1.60719 5.74793 -11.2747
vt -1.9685 2.46063
f 8/15/2 12/14/2 13/17/2

f 11/16/1 8/15/1 12/14/1

usemtl Translucent_Glass_Blue
v 1.65713 6.16707 -11.1128
vt -30.5367 18.9621
f 11/13/3 8/10/3 14/18/3

f 14/18/4 8/10/4 11/13/4

f 8/10/3 2/7/3 14/18/3

f 2/7/3 8/10/3 3/5/3

f 3/5/4 8/10/4 2/7/4

usemtl Color_000
f 3/5/4 7/9/4 8/10/4

vt 36.9094 1.9685
vn -2.04836e-016 1 -3.13516e-016
vt 2.46063 1.21318e-031
vt 36.9094 1.21318e-031
f 13/19/5 3/20/5 8/21/5

vt 2.46063 1.9685
f 3/20/5 13/19/5 1/22/5

vn 2.04836e-016 -1 3.13516e-016
f 1/22/6 13/19/6 3/20/6

v 1.60721 5.68543 -11.3372
f 13/10/3 15/9/3 1/5/3

v 1.60721 6.68543 -11.3372
f 15/9/3 13/10/3 16/11/3

f 16/11/4 13/10/4 15/9/4

v 1.60719 6.16707 -11.2999
f 16/11/3 13/10/3 17/12/3

f 17/12/4 13/10/4 16/11/4

f 17/12/3 13/10/3 12/13/3

f 12/13/4 13/10/4 17/12/4

f 13/17/1 12/14/1 8/15/1

f 8/21/6 3/20/6 13/19/6

vt 36.9094 -2.84217e-014
vn -2.04827e-016 1 -3.39299e-016
vt 37.8989 1.9685
f 11/23/7 17/24/7 12/19/7

vt 37.8989 -4.26326e-014
f 17/24/7 11/23/7 10/25/7

vn 2.04827e-016 -1 3.39299e-016
f 12/19/8 17/24/8 11/23/8

v 1.60713 6.19807 -11.1129
vt -30.5367 20.1826
f 12/13/3 18/26/3 17/12/3

v 1.60713 6.16707 -11.1129
f 18/26/3 12/13/3 19/18/3

f 19/18/4 12/13/4 18/26/4

vt -36.9094 -2.84217e-014
vt -30.5367 1.9685
vt -36.9094 1.9685
f 11/27/8 19/28/8 12/29/8

vt -30.5367 -2.84217e-014
f 19/28/8 11/27/8 14/30/8

f 14/30/7 11/27/7 19/28/7

v 1.65713 6.19807 -11.1128
f 20/26/3 11/13/3 14/18/3

f 11/13/3 20/26/3 10/12/3

f 14/18/4 11/13/4 20/26/4

f 10/12/4 20/26/4 11/13/4

v 1.65719 6.19807 -11.2998
vt -37.8989 20.1826
f 10/12/3 20/26/3 21/31/3

f 21/31/4 20/26/4 10/12/4

v 1.65719 6.19807 -11.2747
vt -36.9094 20.1826
f 21/31/3 20/26/3 22/32/3

f 22/32/4 20/26/4 21/31/4

vt 30.5367 1.9685
vt 30.5367 -2.84217e-014
f 22/23/7 18/33/7 20/34/7

v 1.60719 6.19807 -11.2747
f 18/33/7 22/23/7 23/19/7

f 20/34/8 18/33/8 22/23/8

vt -1.9685 20.1826
vt 2.84217e-014 20.1826
f 18/35/2 14/16/2 20/36/2

f 14/16/2 18/35/2 19/14/2

f 20/36/1 14/16/1 18/35/1

usemtl Translucent_Glass_Blue
f 14/18/3 2/7/3 20/26/3

f 14/18/4 2/7/4 8/10/4

f 20/26/4 2/7/4 14/18/4

f 20/26/3 2/7/3 22/32/3

f 22/32/4 2/7/4 20/26/4

v 1.65719 6.62293 -11.2747
vt -36.9094 36.9094
f 22/32/3 2/7/3 24/37/3

f 24/37/4 2/7/4 22/32/4

usemtl Color_000
f 2/7/3 5/6/3 24/37/3

f 2/7/4 5/6/4 3/5/4

f 24/37/4 5/6/4 2/7/4

f 9/11/3 24/37/3 5/6/3

f 9/11/3 21/31/3 24/37/3

f 9/11/3 10/12/3 21/31/3

f 21/31/4 10/12/4 9/11/4

vt 1.9685 18.9621
vt -4.26326e-014 20.1826
vt -4.26326e-014 18.9621
f 17/38/1 21/39/1 10/40/1

v 1.60719 6.19807 -11.2999
vt 1.9685 20.1826
f 21/39/1 17/38/1 25/41/1

f 10/40/2 21/39/2 17/38/2

f 25/41/2 17/38/2 21/39/2

f 17/12/3 18/26/3 25/31/3

f 17/12/4 18/26/4 12/13/4

f 25/31/4 18/26/4 17/12/4

f 25/31/3 18/26/3 23/32/3

f 23/32/4 18/26/4 25/31/4

f 23/19/8 22/23/8 18/33/8

f 22/23/7 25/24/7 23/19/7

f 25/24/7 22/23/7 21/25/7

f 23/19/8 25/24/8 22/23/8

v 1.60719 6.62293 -11.2747
f 26/37/3 25/31/3 23/32/3

f 16/11/3 25/31/3 26/37/3

f 16/11/3 17/12/3 25/31/3

f 25/31/4 17/12/4 16/11/4

f 26/37/4 25/31/4 16/11/4

f 23/32/4 25/31/4 26/37/4

vt -1.9685 36.9094
f 22/36/2 26/42/2 23/35/2

vt 2.84217e-014 36.9094
f 26/42/2 22/36/2 24/43/2

f 24/43/1 22/36/1 26/42/1

f 24/37/3 21/31/3 22/32/3

f 22/32/4 21/31/4 24/37/4

f 21/25/8 22/23/8 25/24/8

f 24/37/4 21/31/4 9/11/4

f 5/6/4 24/37/4 9/11/4

vt 39.3701 0
v 1.60689 6.68543 -10.3372
vt -5.68434e-014 1.9685
vt -1.13687e-013 0
f 9/44/7 27/45/7 5/46/7

vt 39.3701 1.9685
f 27/45/7 9/44/7 16/47/7

f 5/46/8 27/45/8 9/44/8

vt -1.9685 39.3701
vt -7.90359e-045 39.3701
f 27/48/2 6/8/2 5/49/2

v 1.60689 5.68543 -10.3372
vt -1.9685 0
f 6/8/2 27/48/2 28/50/2

f 5/49/1 6/8/1 27/48/1

f 5/6/4 6/8/4 3/5/4

f 28/50/1 27/48/1 6/8/1

vt -5.68434e-014 0
vt 5.68434e-014 39.3701
f 1/5/3 28/51/3 27/52/3

f 28/51/3 1/5/3 15/9/3

f 15/9/4 1/5/4 28/51/4

f 1/5/4 15/9/4 13/10/4

f 27/52/4 28/51/4 1/5/4

f 1/5/3 27/52/3 4/7/3

f 4/7/4 27/52/4 1/5/4

f 4/7/3 27/52/3 26/37/3

f 26/37/4 27/52/4 4/7/4

f 16/11/3 26/37/3 27/52/3

f 27/52/4 26/37/4 16/11/4

f 16/47/8 9/44/8 27/45/8

vt -2.73704e-030 39.3701
vt 1.9685 2.84217e-014
vt 1.9685 39.3701
f 9/53/1 15/54/1 16/55/1

vt -2.73704e-030 2.84217e-014
f 15/54/1 9/53/1 7/56/1

f 7/56/2 9/53/2 15/54/2

f 16/55/2 15/54/2 9/53/2

vt -39.3701 0
vt -39.3701 1.9685
f 7/57/8 28/45/8 15/58/8

f 28/45/8 7/57/8 6/8/8

f 6/8/7 7/57/7 28/45/7

f 15/58/7 28/45/7 7/57/7

vt -2.46063 0
vt -2.46063 1.9685
f 26/29/8 2/59/8 4/60/8

f 2/59/8 26/29/8 24/27/8

f 4/60/7 2/59/7 26/29/7

f 4/4/2 1/1/2 2/2/2

f 24/27/7 26/29/7 2/59/7

f 23/35/1 26/42/1 22/36/1

f 10/25/8 11/23/8 17/24/8

f 19/14/1 18/35/1 14/16/1

f 12/29/7 19/28/7 11/27/7

g Mesh2 ventana3_1_1 CUA011 Model

l 22 20

l 22 23

l 21 22

l 10 21

l 11 10

l 14 11

l 14 19

l 20 14

l 20 18

l 18 19

l 23 18

l 25 23

l 17 25

l 12 17

l 19 12

l 11 12

l 11 8

l 8 13

l 8 3

l 3 2

l 3 1

l 1 4

l 13 1

l 12 13

l 2 4

l 2 24

l 24 22

l 24 26

l 26 23

l 4 26

l 10 17

l 21 25

g Mesh3 ventana3_1_1 CUA011 Model

l 5 27

l 5 9

l 6 5

l 7 6

l 7 15

l 9 7

l 9 16

l 16 15

l 27 16

l 28 27

l 15 28

l 6 28

g Mesh4 ventana3_1_2 CUA011 Model

v 1.60738 5.74793 -11.8997
v 1.65738 6.62293 -11.8997
v 1.65738 5.74793 -11.8997
f 29/1/1 30/2/1 31/3/1

v 1.60738 6.62293 -11.8997
f 30/2/1 29/1/1 32/4/1

f 31/3/2 30/2/2 29/1/2

v 1.65736 6.68543 -11.8372
f 31/5/3 33/6/3 30/7/3

v 1.65736 5.68543 -11.8372
f 31/5/3 34/8/3 33/6/3

v 1.65768 5.68543 -12.8372
f 34/8/3 31/5/3 35/9/3

f 35/9/4 31/5/4 34/8/4

v 1.65766 5.74793 -12.7747
f 36/10/3 35/9/3 31/5/3

v 1.65768 6.68543 -12.8372
f 35/9/3 36/10/3 37/11/3

f 37/11/4 36/10/4 35/9/4

v 1.65767 6.16707 -12.7998
f 37/11/3 36/10/3 38/12/3

f 38/12/4 36/10/4 37/11/4

v 1.65766 6.16707 -12.7747
f 38/12/3 36/10/3 39/13/3

f 39/13/4 36/10/4 38/12/4

v 1.60766 6.16707 -12.7747
f 40/14/2 36/15/2 39/16/2

v 1.60766 5.74793 -12.7747
f 36/15/2 40/14/2 41/17/2

f 39/16/1 36/15/1 40/14/1

usemtl Translucent_Glass_Blue
v 1.65761 6.16707 -12.6128
f 39/13/3 36/10/3 42/18/3

f 42/18/4 36/10/4 39/13/4

f 36/10/3 30/7/3 42/18/3

f 30/7/3 36/10/3 31/5/3

f 31/5/4 36/10/4 30/7/4

usemtl Color_000
f 31/5/4 35/9/4 36/10/4

f 41/19/5 31/20/5 36/21/5

f 31/20/5 41/19/5 29/22/5

f 29/22/6 41/19/6 31/20/6

v 1.60768 5.68543 -12.8372
f 41/10/3 43/9/3 29/5/3

v 1.60768 6.68543 -12.8372
f 43/9/3 41/10/3 44/11/3

f 44/11/4 41/10/4 43/9/4

v 1.60767 6.16707 -12.7999
f 44/11/3 41/10/3 45/12/3

f 45/12/4 41/10/4 44/11/4

f 45/12/3 41/10/3 40/13/3

f 40/13/4 41/10/4 45/12/4

f 41/17/1 40/14/1 36/15/1

f 36/21/6 31/20/6 41/19/6

f 39/23/7 45/24/7 40/19/7

f 45/24/7 39/23/7 38/25/7

f 40/19/8 45/24/8 39/23/8

v 1.60761 6.19807 -12.6129
f 40/13/3 46/26/3 45/12/3

v 1.60761 6.16707 -12.6129
f 46/26/3 40/13/3 47/18/3

f 47/18/4 40/13/4 46/26/4

f 39/27/8 47/28/8 40/29/8

f 47/28/8 39/27/8 42/30/8

f 42/30/7 39/27/7 47/28/7

v 1.65761 6.19807 -12.6128
f 48/26/3 39/13/3 42/18/3

f 39/13/3 48/26/3 38/12/3

f 42/18/4 39/13/4 48/26/4

f 38/12/4 48/26/4 39/13/4

v 1.65767 6.19807 -12.7998
f 38/12/3 48/26/3 49/31/3

f 49/31/4 48/26/4 38/12/4

v 1.65766 6.19807 -12.7747
f 49/31/3 48/26/3 50/32/3

f 50/32/4 48/26/4 49/31/4

f 50/23/7 46/33/7 48/34/7

v 1.60766 6.19807 -12.7747
f 46/33/7 50/23/7 51/19/7

f 48/34/8 46/33/8 50/23/8

f 46/35/2 42/16/2 48/36/2

f 42/16/2 46/35/2 47/14/2

f 48/36/1 42/16/1 46/35/1

usemtl Translucent_Glass_Blue
f 42/18/3 30/7/3 48/26/3

f 42/18/4 30/7/4 36/10/4

f 48/26/4 30/7/4 42/18/4

f 48/26/3 30/7/3 50/32/3

f 50/32/4 30/7/4 48/26/4

v 1.65766 6.62293 -12.7747
f 50/32/3 30/7/3 52/37/3

f 52/37/4 30/7/4 50/32/4

usemtl Color_000
f 30/7/3 33/6/3 52/37/3

f 30/7/4 33/6/4 31/5/4

f 52/37/4 33/6/4 30/7/4

f 37/11/3 52/37/3 33/6/3

f 37/11/3 49/31/3 52/37/3

f 37/11/3 38/12/3 49/31/3

f 49/31/4 38/12/4 37/11/4

f 45/38/1 49/39/1 38/40/1

v 1.60767 6.19807 -12.7999
f 49/39/1 45/38/1 53/41/1

f 38/40/2 49/39/2 45/38/2

f 53/41/2 45/38/2 49/39/2

f 45/12/3 46/26/3 53/31/3

f 45/12/4 46/26/4 40/13/4

f 53/31/4 46/26/4 45/12/4

f 53/31/3 46/26/3 51/32/3

f 51/32/4 46/26/4 53/31/4

f 51/19/8 50/23/8 46/33/8

f 50/23/7 53/24/7 51/19/7

f 53/24/7 50/23/7 49/25/7

f 51/19/8 53/24/8 50/23/8

v 1.60766 6.62293 -12.7747
f 54/37/3 53/31/3 51/32/3

f 44/11/3 53/31/3 54/37/3

f 44/11/3 45/12/3 53/31/3

f 53/31/4 45/12/4 44/11/4

f 54/37/4 53/31/4 44/11/4

f 51/32/4 53/31/4 54/37/4

f 50/36/2 54/42/2 51/35/2

f 54/42/2 50/36/2 52/43/2

f 52/43/1 50/36/1 54/42/1

f 52/37/3 49/31/3 50/32/3

f 50/32/4 49/31/4 52/37/4

f 49/25/8 50/23/8 53/24/8

f 52/37/4 49/31/4 37/11/4

f 33/6/4 52/37/4 37/11/4

v 1.60736 6.68543 -11.8372
f 37/44/7 55/45/7 33/46/7

f 55/45/7 37/44/7 44/47/7

f 33/46/8 55/45/8 37/44/8

f 55/48/2 34/8/2 33/49/2

v 1.60736 5.68543 -11.8372
f 34/8/2 55/48/2 56/50/2

f 33/49/1 34/8/1 55/48/1

f 33/6/4 34/8/4 31/5/4

f 56/50/1 55/48/1 34/8/1

f 29/5/3 56/51/3 55/52/3

f 56/51/3 29/5/3 43/9/3

f 43/9/4 29/5/4 56/51/4

f 29/5/4 43/9/4 41/10/4

f 55/52/4 56/51/4 29/5/4

f 29/5/3 55/52/3 32/7/3

f 32/7/4 55/52/4 29/5/4

f 32/7/3 55/52/3 54/37/3

f 54/37/4 55/52/4 32/7/4

f 44/11/3 54/37/3 55/52/3

f 55/52/4 54/37/4 44/11/4

f 44/47/8 37/44/8 55/45/8

f 37/53/1 43/54/1 44/55/1

f 43/54/1 37/53/1 35/56/1

f 35/56/2 37/53/2 43/54/2

f 44/55/2 43/54/2 37/53/2

f 35/57/8 56/45/8 43/58/8

f 56/45/8 35/57/8 34/8/8

f 34/8/7 35/57/7 56/45/7

f 43/58/7 56/45/7 35/57/7

f 54/29/8 30/59/8 32/60/8

f 30/59/8 54/29/8 52/27/8

f 32/60/7 30/59/7 54/29/7

f 32/4/2 29/1/2 30/2/2

f 52/27/7 54/29/7 30/59/7

f 51/35/1 54/42/1 50/36/1

f 38/25/8 39/23/8 45/24/8

f 47/14/1 46/35/1 42/16/1

f 40/29/7 47/28/7 39/27/7

g Mesh5 ventana3_1_2 CUA011 Model

l 50 48

l 50 51

l 49 50

l 38 49

l 39 38

l 42 39

l 42 47

l 48 42

l 48 46

l 46 47

l 51 46

l 53 51

l 45 53

l 40 45

l 47 40

l 39 40

l 39 36

l 36 41

l 36 31

l 31 30

l 31 29

l 29 32

l 41 29

l 40 41

l 30 32

l 30 52

l 52 50

l 52 54

l 54 51

l 32 54

l 38 45

l 49 53

g Mesh6 ventana3_1_2 CUA011 Model

l 33 55

l 33 37

l 34 33

l 35 34

l 35 43

l 37 35

l 37 44

l 44 43

l 55 44

l 56 55

l 43 56

l 34 56

g Mesh7 CUA011 Model

usemtl _Color_C03_1
v 7.29637 8.28543 -8.67544
vt -0.0705225 141.732
vn -1 1.92498e-014 -0.00031484
v 7.29658 4.68543 -9.33544
vt -26.0548 4.70977e-012
v 7.29637 4.68543 -8.67544
vt -0.0705225 4.79504e-012
f 57/61/9 58/62/9 59/63/9

v 7.29658 8.28543 -9.33544
vt -26.0548 141.732
f 58/62/9 57/61/9 60/64/9

usemtl _7
vt -2.83308 0.962408
vn 1 -1.92498e-014 0.00031484
vt -3.04856 0.962408
vt -2.83308 1.70186
f 59/65/10 58/66/10 57/67/10

usemtl FrontColor
v 6.74637 4.68543 -8.67561
vt -202.342 0.00681739
vn -4.09539e-016 -1 1.46674e-015
vt -224.003 25.9843
vt -223.995 -8.43232e-028
f 61/68/11 58/69/11 59/70/11

v 7.62787 4.68543 -13.4553
vt -237.047 188.185
f 61/68/11 62/71/11 58/69/11

v 5.79637 4.68543 -8.67591
vt -164.94 0.0185929
f 63/72/11 62/71/11 61/68/11

v 1.98658 4.68543 -9.33711
vt -14.9482 26.0501
f 64/73/11 62/71/11 63/72/11

v 1.65787 4.68543 -13.4572
vt -2.00718 188.259
f 64/73/11 65/74/11 62/71/11

v 1.65768 4.68543 -12.8372
vt -1.99949 163.849
f 64/73/11 66/75/11 65/74/11

v 1.65736 4.68543 -11.8372
vt -1.9871 124.479
f 64/73/11 67/76/11 66/75/11

v 1.65721 4.68543 -11.3372
vt -1.9809 104.794
f 64/73/11 68/77/11 67/76/11

v 1.65689 4.68543 -10.3372
vt -1.9685 65.4242
f 64/73/11 69/78/11 68/77/11

v 1.65658 4.68543 -9.33721
vt -1.95611 26.0542
f 69/78/11 64/73/11 70/79/11

usemtl _Tile_Ceramic_Natural_7
vt -1.17822 6.64098
vn 4.09539e-016 1 -1.46674e-015
vt -1.41293 6.6409
vt -1.17844 7.35221
f 70/80/12 64/81/12 69/82/12

usemtl _Color_C03_1
vt -1.9479 -8.46378e-007
vn 0.000315191 3.24846e-008 -1
v 1.98658 8.28543 -9.33711
vt -14.94 141.732
vt -14.94 -8.4638e-007
f 70/83/13 71/84/13 64/85/13

v 1.65658 8.28543 -9.33721
vt -1.9479 141.732
f 71/84/13 70/83/13 72/86/13

usemtl _7
vt -0.647611 0.962408
vn -0.000315191 -3.24846e-008 1
vt -0.647611 1.70186
vt -0.539874 0.962408
f 64/87/14 71/88/14 70/89/14

usemtl _Color_C03_1
vt 26.0548 141.732
vn 1 -1.44384e-014 0.00031484
v 1.98637 4.68543 -8.67711
vt 0.0705225 5.85192e-013
vt 26.0548 5.85192e-013
f 71/90/15 73/91/15 64/92/15

v 1.98637 8.28543 -8.67711
vt 0.0705225 141.732
f 73/91/15 71/90/15 74/93/15

usemtl _7
vt 2.83308 1.70186
vn -1 1.44384e-014 -0.00031484
vt 3.04856 1.70186
vt 2.83308 0.962408
f 74/94/16 71/95/16 73/96/16

vt 3.04856 0.962408
f 64/97/16 73/96/16 71/95/16

usemtl FrontColor
vt -14.9401 0.0658188
f 63/72/11 73/98/11 64/73/11

usemtl _Color_C03_1
vn 0.00031484 -2.13891e-015 -1
vt -164.94 3.98055e-013
vt -14.94 3.69633e-013
f 74/84/17 63/99/17 73/100/17

v 5.79637 6.78543 -8.67591
vt -164.94 82.6772
f 63/99/17 74/84/17 75/101/17

usemtl _7
vt -0.647612 0.962408
vn -0.00031484 2.13891e-015 1
vt -1.89149 0.962408
vt -0.647612 1.70186
f 73/102/18 63/103/18 74/104/18

usemtl _Tile_Ceramic_Natural_7
vt -1.41278 6.17149
vt -4.12259 6.17063
f 64/81/12 73/105/12 63/106/12

vt -5.42523 9.56994
f 63/106/12 62/107/12 64/81/12

vt -4.79827 6.17042
f 61/108/12 62/107/12 63/106/12

vt -5.1896 6.63971
f 58/109/12 62/107/12 61/108/12

usemtl FrontColor
v 7.62658 4.68543 -9.33533
vt -236.995 25.9802
f 58/69/11 62/71/11 76/110/11

usemtl _Tile_Ceramic_Natural_7
vt -5.42431 6.63964
f 76/111/12 62/107/12 58/109/12

usemtl FrontColor
v 7.62706 4.68543 -10.8653
vt -237.014 86.2164
f 76/110/11 62/71/11 77/112/11

usemtl _Tile_Ceramic_Natural_7
vt -5.42465 7.72783
f 77/113/12 62/107/12 76/111/12

usemtl FrontColor
v 7.62736 4.68543 -11.8153
vt -237.026 123.618
f 77/112/11 62/71/11 78/114/11

usemtl _Tile_Ceramic_Natural_7
vt -5.42486 8.40351
f 78/115/12 62/107/12 77/113/12

usemtl _Color_C03_1
v 7.62736 6.78543 -11.8153
vt -123.693 82.6772
vn -1 7.17206e-014 -0.00031484
vt -188.259 1.73379e-011
vt -123.693 1.80485e-011
f 79/116/19 62/117/19 78/118/19

v 7.62787 8.28543 -13.4553
vt -188.259 141.732
f 62/117/19 79/116/19 80/119/19

usemtl _7
vt -3.85822 0.962408
vn 1 -7.17206e-014 0.00031484
vt -4.39364 0.962408
vt -3.85822 1.39376
f 78/120/20 62/121/20 79/122/20

vt -4.39364 1.70186
f 80/123/20 79/122/20 62/121/20

usemtl _Color_C03_1
v 7.62706 6.78543 -10.8653
vt -86.291 82.6772
f 81/124/19 80/119/19 79/116/19

v 7.62658 8.28543 -9.33533
f 80/119/19 81/124/19 82/64/19

usemtl _7
vt -3.04856 1.70186
vt -3.54807 1.39376
f 82/125/20 81/126/20 80/123/20

usemtl _Color_C03_1
vt -86.291 1.69969e-011
f 77/127/19 82/64/19 81/124/19

vt -26.0548 1.71106e-011
f 82/64/19 77/127/19 76/128/19

usemtl _7
vt -3.54807 0.962408
f 76/66/20 77/129/20 82/125/20

f 81/126/20 82/125/20 77/129/20

usemtl _Color_C03_1
vt -223.995 4.50571e-013
vn 0.00031484 -2.02141e-015 -1
vt -236.987 141.732
vt -236.987 1.66354e-013
f 58/130/21 82/131/21 76/132/21

vt -223.995 141.732
f 82/131/21 58/130/21 60/133/21

usemtl _7
vt -2.48894 0.962408
vn -0.00031484 2.02141e-015 1
vt -2.48894 1.70186
vt -2.38121 0.962408
f 76/134/22 82/135/22 58/136/22

vt -2.38121 1.70186
f 60/137/22 58/136/22 82/135/22

f 60/125/10 57/67/10 58/66/10

f 79/122/20 80/123/20 81/126/20

usemtl _Color_C03_1
v 1.65787 8.28543 -13.4572
vt 1.94791 141.732
vn -0.00031484 -7.67847e-016 1
vt 236.987 1.96506e-013
vt 236.987 141.732
f 83/138/23 62/139/23 80/140/23

vt 1.94791 -1.16133e-013
f 62/139/23 83/138/23 65/141/23

usemtl _7
vt 0.539875 0.962408
vn 0.00031484 7.67847e-016 -1
vt 0.539875 1.70186
vt 2.48894 0.962408
f 65/142/24 83/143/24 62/144/24

usemtl _Color_C03_1
vt 188.259 141.732
vn 1 -3.21332e-014 0.00031484
v 1.65768 6.68543 -12.8372
vt 163.85 78.7402
vt 188.259 9.10141e-014
f 83/145/25 84/146/25 65/147/25

v 1.65736 6.68543 -11.8372
vt 124.48 78.7402
f 83/145/25 85/148/25 84/146/25

v 1.65721 6.68543 -11.3372
vt 104.795 78.7402
f 83/145/25 86/149/25 85/148/25

v 1.65689 6.68543 -10.3372
vt 65.4249 78.7402
f 83/145/25 87/150/25 86/149/25

f 72/90/25 87/150/25 83/145/25

vt 65.4249 4.03653e-013
f 72/90/25 69/151/25 87/150/25

vt 26.0548 2.25106e-012
f 69/151/25 72/90/25 70/152/25

usemtl BackColor
vn -1 3.21332e-014 -0.00031484
f 70/152/26 72/90/26 69/151/26

usemtl _7
vt -0.539874 1.70186
f 72/153/14 70/89/14 71/88/14

usemtl BackColor
f 87/150/26 69/151/26 72/90/26

usemtl _Color_C03_1
vt 65.4249 39.3701
f 87/150/25 69/151/25 6/154/25

usemtl BackColor
f 6/154/26 69/151/26 87/150/26

usemtl _Color_C03_1
vt 104.795 3.4681e-013
f 68/155/25 6/154/25 69/151/25

v 1.65721 5.68543 -11.3372
vt 104.795 39.3701
f 6/154/25 68/155/25 88/156/25

usemtl BackColor
f 69/151/26 6/154/26 68/155/26

f 88/156/26 68/155/26 6/154/26

usemtl _Color_C03_1
vt 124.48 1.76279e-013
f 88/156/25 68/155/25 67/157/25

usemtl BackColor
f 67/157/26 68/155/26 88/156/26

usemtl _Tile_Ceramic_Natural_7
vt -1.17878 8.41907
vt -1.17867 8.06345
f 67/158/12 68/159/12 64/81/12

f 68/159/12 69/82/12 64/81/12

vt -1.179 9.13031
f 66/160/12 67/158/12 64/81/12

usemtl _Color_C03_1
vt 163.85 9.10141e-014
vt 124.48 39.3701
f 66/161/25 34/162/25 67/157/25

v 1.65768 5.68543 -12.8372
vt 163.85 39.3701
f 34/162/25 66/161/25 89/163/25

usemtl BackColor
f 67/157/26 34/162/26 66/161/26

usemtl _Color_C03_1
f 85/148/25 67/157/25 34/162/25

f 85/148/25 86/149/25 67/157/25

usemtl BackColor
f 85/148/26 86/149/26 83/145/26

f 67/157/26 86/149/26 85/148/26

usemtl _Color_C03_1
f 88/156/25 67/157/25 86/149/25

usemtl BackColor
f 86/149/26 67/157/26 88/156/26

f 34/162/26 67/157/26 85/148/26

f 86/149/26 87/150/26 83/145/26

f 83/145/26 87/150/26 72/90/26

f 84/146/26 85/148/26 83/145/26

f 65/147/26 84/146/26 83/145/26

usemtl _Color_C03_1
f 89/163/25 65/147/25 84/146/25

f 89/163/25 66/161/25 65/147/25

usemtl BackColor
f 89/163/26 66/161/26 34/162/26

f 65/147/26 66/161/26 89/163/26

usemtl _Tile_Ceramic_Natural_7
vt -1.17914 9.57127
f 65/164/12 66/160/12 64/81/12

f 62/107/12 65/164/12 64/81/12

usemtl BackColor
f 84/146/26 65/147/26 89/163/26

usemtl _7
vt 2.48894 1.70186
f 80/165/24 62/144/24 83/143/24

usemtl _Tile_Ceramic_Natural_7
vt -5.18945 6.1703
f 59/166/12 58/109/12 61/108/12

usemtl _Color_C03_1
v 6.74637 6.78543 -8.67561
vt -202.342 82.6772
vt -223.995 4.8332e-013
vt -202.342 1.50841e-016
f 90/167/17 59/168/17 61/169/17

f 59/168/17 90/167/17 57/133/17

usemtl _7
vt -2.20164 0.962408
vt -2.20164 1.39376
f 61/170/18 59/136/18 90/171/18

f 57/137/18 90/171/18 59/136/18

usemtl _Color_C03_1
f 57/133/17 90/167/17 75/101/17

usemtl _7
vt -1.89149 1.39376
f 75/172/18 90/171/18 57/137/18

usemtl _Color_C03_1
f 57/133/17 75/101/17 74/84/17

usemtl _7
f 74/104/18 75/172/18 57/137/18

f 75/172/18 74/104/18 63/103/18

g Mesh8 CUA011 Model

l 73 74

l 73 64

l 73 63

l 63 75

l 63 61

l 61 59

l 61 90

l 75 90

l 59 57

l 59 58

l 58 60

l 58 76

l 76 82

l 76 77

l 77 81

l 77 78

l 78 62

l 78 79

l 79 81

l 62 80

l 65 62

l 65 83

l 65 66

l 66 67

l 67 68

l 68 69

l 69 70

l 70 72

l 70 64

l 64 71

l 72 71

l 72 83

l 83 80

l 82 80

l 60 82

l 57 60

l 74 57

l 74 71

g Mesh9 CUA011 Model

l 85 34

l 84 85

l 89 84

l 34 89

g Mesh10 CUA011 Model

l 88 86

l 88 6

l 6 87

l 86 87

g Mesh11 Model

v 138.951 3.33 -157.425
v 138.951 3.3 -157.425
l 91 92

g Mesh12 Model

v 117.469 3.4 -184.196
v 117.443 3.4 -184.095
l 93 94

