# Alias OBJ Model File
# Exported from SketchUp, (c) 2000-2012 Trimble Navigation Limited
# File units = meters

mtllib DES038.mtl

g Mesh1 DES038 Model

usemtl _Color_C03_1
v 11.9039 8.28543 -113.404
vt -23.6953 141.732
vn -1 1.11895e-013 -0.00031484
v 11.9053 4.68543 -117.622
vt -189.755 2.75191e-011
v 11.9039 4.68543 -113.404
vt -23.6953 2.9736e-011
f 1/1/1 2/2/1 3/3/1

v 11.9053 8.28543 -117.622
vt -189.755 141.732
f 2/2/1 1/1/1 4/4/1

usemtl _7
vt -37.0251 0.962408
vn 1 -1.11895e-013 0.00031484
vt -38.4021 0.962408
vt -37.0251 1.70186
f 3/5/2 2/6/2 1/7/2

usemtl FrontColor
vt -244.674 23.6183
vn -3.2195e-015 -1 -3.40565e-016
v 11.8678 4.68543 -117.637
vt -243.25 190.29
vt -244.726 189.678
f 3/8/3 5/9/3 2/10/3

v 11.8315 4.68543 -117.665
vt -241.823 191.385
f 3/8/3 6/11/3 5/9/3

v 11.8133 4.68543 -117.689
vt -241.106 192.32
f 3/8/3 7/12/3 6/11/3

v 11.5993 4.68543 -113.404
vt -232.682 23.622
f 8/13/3 7/12/3 3/8/3

v 10.743 4.68543 -117.689
vt -198.967 192.333
f 8/13/3 9/14/3 7/12/3

v 11.5992 4.68543 -112.804
vt -232.675 2.84154e-028
f 10/15/3 9/14/3 8/13/3

v 10.6452 4.68543 -112.804
vt -195.116 0.011825
f 11/16/3 9/14/3 10/15/3

v 10.6452 4.68543 -117.689
vt -195.116 192.335
f 11/16/3 12/17/3 9/14/3

v 8.74298 4.68543 -117.69
vt -120.227 192.358
f 11/16/3 13/18/3 12/17/3

v 7.77934 4.68543 -113.405
vt -82.2884 23.6694
f 11/16/3 14/19/3 13/18/3

v 7.77915 4.68543 -112.805
vt -82.281 0.0473499
f 14/19/3 11/16/3 15/20/3

usemtl _Tile_Ceramic_Natural_7
vt -5.53283 80.2314
vn 3.2195e-015 1 3.40565e-016
vt -7.57124 80.2307
vt -5.53296 80.6581
f 15/21/4 11/22/4 14/23/4

usemtl _Color_C03_1
v 7.77915 8.28543 -112.805
vt -82.281 141.732
vn 0.00031484 1.08865e-014 -1
vt -195.116 1.36344e-012
vt -82.281 1.24976e-012
f 16/24/5 11/25/5 15/26/5

v 11.5992 8.28543 -112.804
vt -232.675 141.732
f 11/25/5 16/24/5 17/27/5

usemtl _7
vt -2.52812 0.962408
vn -0.00031484 -1.08865e-014 1
vt -3.46381 0.962408
vt -2.52812 1.70186
f 15/28/6 11/29/6 16/30/6

vt -3.77526 1.70186
f 17/31/6 16/30/6 11/29/6

usemtl _Color_C03_1
vt -232.675 8.44676e-014
f 17/27/5 10/32/5 11/25/5

vt -0.0732552 141.732
vn -1 9.60452e-014 -0.00031484
vt -23.6953 2.24326e-011
vt -0.0732552 2.24326e-011
f 17/33/7 8/34/7 10/35/7

v 11.5993 8.28543 -113.404
f 8/34/7 17/33/7 18/1/7

usemtl _7
vt -36.8292 0.962408
vn 1 -9.60452e-014 0.00031484
vt -36.8292 1.70186
f 10/36/8 8/5/8 17/37/8

usemtl _Tile_Ceramic_Natural_7
vt -8.24989 80.6572
vt -7.64081 83.7051
vt -8.24975 80.2305
f 8/38/4 9/39/4 10/40/4

vt -8.40207 83.7049
f 7/41/4 9/39/4 8/38/4

usemtl _Color_C03_1
v 11.8133 8.28543 -117.689
vt 241.046 141.732
vn -0.00031484 -1.60396e-014 1
vt 198.907 -8.1222e-013
vt 241.046 -2.94385e-012
f 19/42/9 9/43/9 7/44/9

v 10.743 5.58543 -117.689
vt 198.907 35.4331
f 9/43/9 19/42/9 20/45/9

usemtl _7
vt 3.84468 0.962408
vn 0.00031484 1.60396e-014 -1
vt 3.49524 0.962408
vt 3.84468 1.70186
f 7/46/10 9/47/10 19/48/10

vt 3.49524 1.14727
f 20/49/10 19/48/10 9/47/10

usemtl _Color_C03_1
v 10.743 6.58543 -117.689
vt 198.907 74.8031
f 20/45/9 19/42/9 21/50/9

usemtl _7
vt 3.49524 1.35268
f 21/51/10 19/48/10 20/49/10

usemtl _Color_C03_1
v 8.74298 6.58543 -117.69
vt 120.167 74.8031
f 21/50/9 19/42/9 22/52/9

usemtl _7
vt 2.84229 1.35268
f 22/53/10 19/48/10 21/51/10

usemtl _Color_C03_1
v 7.67265 8.28543 -117.69
vt 78.0275 141.732
f 23/54/9 22/52/9 19/42/9

v 8.74298 5.58543 -117.69
vt 120.167 35.4331
f 23/54/9 24/55/9 22/52/9

v 7.67265 4.68543 -117.69
vt 78.0275 -2.68805e-012
f 25/56/9 24/55/9 23/54/9

vt 195.055 -1.77856e-012
f 25/56/9 12/57/9 24/55/9

vt 120.167 -3.08596e-012
f 12/57/9 25/56/9 13/58/9

usemtl _7
vt 2.84229 0.962408
vt 2.49285 0.962408
vt 3.46331 0.962408
f 13/59/10 25/60/10 12/61/10

usemtl FrontColor
vt -78.0881 192.372
f 14/19/3 25/62/3 13/18/3

v 7.65443 4.68543 -117.667
vt -77.3705 191.437
f 14/19/3 26/63/3 25/62/3

v 7.61817 4.68543 -117.639
vt -75.9433 190.342
f 14/19/3 27/64/3 26/63/3

v 7.57596 4.68543 -117.621
vt -74.2814 189.655
f 14/19/3 28/65/3 27/64/3

v 7.53067 4.68543 -117.615
vt -72.4981 189.421
f 14/19/3 29/66/3 28/65/3

v 7.48538 4.68543 -117.621
vt -70.715 189.656
f 14/19/3 30/67/3 29/66/3

v 7.44317 4.68543 -117.639
vt -69.0535 190.345
f 14/19/3 31/68/3 30/67/3

v 7.40694 4.68543 -117.667
vt -67.6269 191.44
f 14/19/3 32/69/3 31/68/3

v 7.37914 4.68543 -117.703
vt -66.5325 192.867
f 14/19/3 33/70/3 32/69/3

v 7.36167 4.68543 -117.745
vt -65.8447 194.529
f 14/19/3 34/71/3 33/70/3

v 7.35572 4.68543 -117.79
vt -65.6105 196.312
f 14/19/3 35/72/3 34/71/3

v 7.27934 4.68543 -113.405
vt -62.6034 23.6756
f 35/72/3 14/19/3 36/73/3

usemtl _Tile_Ceramic_Natural_7
vt -5.17734 80.6582
vt -5.23167 83.777
f 36/74/4 14/23/4 35/75/4

usemtl _Color_C03_1
vt -62.5959 1.37425e-012
vn 0.00031484 3.17617e-015 -1
v 7.77934 8.28543 -113.405
vt -82.281 1.17529e-012
f 36/76/11 37/24/11 14/77/11

v 7.27934 8.28543 -113.405
vt -62.5959 141.732
f 37/24/11 36/76/11 38/78/11

usemtl _7
vn -0.00031484 -3.17617e-015 1
vt -2.36488 0.962408
f 14/28/12 37/30/12 36/79/12

vt -2.36488 1.70186
f 38/80/12 36/79/12 37/30/12

usemtl _Color_C03_1
vt -23.6953 7.37412e-012
vn -1 9.46486e-014 -0.00031484
v 7.27922 8.28543 -113.005
vt -7.94727 141.732
f 36/81/13 39/82/13 38/1/13

v 7.27922 4.68543 -113.005
vt -7.94727 7.45939e-012
f 39/82/13 36/81/13 40/83/13

usemtl _7
vt -36.8945 0.962408
vn 1 -9.46486e-014 0.00031484
vt -36.8945 1.70186
f 40/84/14 36/5/14 39/85/14

usemtl FrontColor
vt -62.5984 7.92756
v 7.16445 4.68543 -118.705
vt -58.0801 232.338
f 40/86/3 41/87/3 36/73/3

v 6.49875 4.68543 -118.706
vt -31.8715 232.347
f 40/86/3 42/88/3 41/87/3

v 5.69101 4.68543 -118.706
vt -0.0706498 232.347
f 40/86/3 43/89/3 42/88/3

v 5.69076 4.68543 -117.918
vt -0.0608808 201.318
f 40/86/3 44/90/3 43/89/3

v 5.68922 4.68543 -113.006
vt 1.37256e-027 7.94727
f 44/90/3 40/86/3 45/91/3

usemtl _Tile_Ceramic_Natural_7
vt -4.04638 80.3741
vt -5.17725 80.3737
vt -4.04748 83.8674
f 45/92/4 40/93/4 44/94/4

usemtl _Color_C03_1
v 5.68922 8.28543 -113.006
vt 0.00250212 141.732
vn 0.00031484 -9.64973e-015 -1
vt -62.5959 1.61146e-012
vt 0.00250212 5.03015e-013
f 46/95/15 40/96/15 45/97/15

f 40/96/15 46/95/15 39/78/15

usemtl _7
vt -1.84578 0.962408
vn -0.00031484 9.64973e-015 1
vt -1.84578 1.70186
f 45/98/16 40/79/16 46/99/16

f 39/80/16 46/99/16 40/79/16

usemtl _Color_C03_1
vt 7.94727 4.26224e-013
vn 1 -4.07746e-014 0.00031484
v 5.69101 8.28543 -118.706
vt 232.357 141.732
vt 7.94727 141.732
f 45/100/17 47/101/17 46/102/17

vt 201.318 5.3991e-013
f 47/101/17 45/100/17 44/103/17

usemtl _7
vt 36.8945 1.70186
vn -1 4.07746e-014 -0.00031484
vt 38.7554 1.70186
vt 36.8945 0.962408
f 46/104/18 47/105/18 45/106/18

vt 38.498 0.962408
f 44/107/18 45/106/18 47/105/18

usemtl _Color_C03_1
vt 232.347 4.54645e-013
f 47/101/17 44/103/17 43/108/17

usemtl _7
vt 38.7553 0.962408
f 43/109/18 44/107/18 47/105/18

usemtl _Tile_Ceramic_Natural_7
vt -4.04766 84.4279
f 43/110/4 44/94/4 40/93/4

vt -4.62216 84.4279
f 42/111/4 43/110/4 40/93/4

vt -5.09563 84.4278
f 41/112/4 42/111/4 40/93/4

f 36/74/4 41/112/4 40/93/4

usemtl FrontColor
f 36/73/3 41/87/3 35/72/3

usemtl _Tile_Ceramic_Natural_7
f 35/75/4 41/112/4 36/74/4

usemtl FrontColor
v 7.43101 4.68543 -118.705
vt -68.5746 232.335
f 35/72/3 41/87/3 48/113/3

usemtl _Tile_Ceramic_Natural_7
vt -5.28521 84.4277
f 48/114/4 41/112/4 35/75/4

usemtl _Color_C03_1
v 7.43101 8.28543 -118.705
vt 68.5014 141.732
vn -0.00031484 -3.61252e-013 1
vt 58.0069 -8.17509e-011
vt 68.5014 -8.35699e-011
f 49/115/19 41/116/19 48/117/19

v 7.16445 6.78543 -118.705
vt 58.0069 82.6772
f 41/116/19 49/115/19 50/118/19

usemtl _7
vt 2.41385 0.962408
vn 0.00031484 3.61252e-013 -1
vt 2.32683 0.962408
vt 2.41385 1.70186
f 48/119/20 41/120/20 49/121/20

vt 2.32683 1.39376
f 50/122/20 49/121/20 41/120/20

usemtl _Color_C03_1
v 6.31445 6.78543 -118.706
vt 24.5424 82.6772
f 50/118/19 49/115/19 51/123/19

usemtl _7
vt 2.04932 1.39376
f 51/124/20 49/121/20 50/122/20

usemtl _Color_C03_1
vt -0.00250212 141.732
f 47/125/19 51/123/19 49/115/19

v 5.69101 4.68543 -118.706
vt -0.00250212 -8.35983e-011
f 52/126/19 51/123/19 47/125/19

v 6.31445 4.68543 -118.706
vt 24.5424 -8.38541e-011
f 51/123/19 52/126/19 53/127/19

usemtl _7
vt 2.04932 0.962408
vt 1.84578 0.962408
f 53/128/20 52/129/20 51/124/20

vt 1.84578 1.70186
f 47/130/20 51/124/20 52/129/20

f 49/121/20 51/124/20 47/130/20

usemtl _Color_C03_1
vt 232.357 3.40958e-013
f 47/101/17 43/108/17 52/131/17

usemtl _7
vt 38.7554 0.962408
f 52/132/18 43/109/18 47/105/18

usemtl _Color_C03_1
v 7.43077 4.68543 -117.934
vt -201.987 7.87559e-012
vn -1 8.30218e-014 -0.00031484
vt -232.357 141.732
vt -232.357 6.0566e-012
f 54/133/21 49/134/21 48/135/21

v 7.43077 8.28543 -117.934
vt -201.987 141.732
f 49/134/21 54/133/21 55/136/21

usemtl _7
vt -38.5035 1.70186
vn 1 -8.30218e-014 0.00031484
vt -38.5035 0.962408
vt -38.7554 1.70186
f 55/137/22 54/138/22 49/139/22

vt -38.7554 0.962408
f 48/140/22 49/139/22 54/138/22

usemtl FrontColor
v 7.41147 4.68543 -117.918
vt -67.8055 201.318
vt -68.565 201.966
f 56/141/3 48/113/3 54/142/3

v 7.41028 4.68543 -117.917
vt -67.7584 201.282
f 57/143/3 48/113/3 56/141/3

v 7.40702 4.68543 -117.914
vt -67.63 201.184
f 58/144/3 48/113/3 57/143/3

v 7.37919 4.68543 -117.878
vt -66.5346 199.757
f 59/145/3 48/113/3 58/144/3

v 7.3617 4.68543 -117.836
vt -65.8458 198.096
f 60/146/3 48/113/3 59/145/3

f 35/72/3 48/113/3 60/146/3

usemtl _Tile_Ceramic_Natural_7
vt -5.23592 83.8092
f 60/147/4 48/114/4 35/75/4

vt -5.24836 83.8392
f 59/148/4 48/114/4 60/147/4

vt -5.26815 83.865
f 58/149/4 48/114/4 59/148/4

vt -5.27047 83.8668
f 57/150/4 48/114/4 58/149/4

vt -5.27132 83.8674
f 56/151/4 48/114/4 57/150/4

vt -5.28504 83.8791
f 54/152/4 48/114/4 56/151/4

usemtl FrontColor
v 7.43077 4.68543 -117.932
vt -68.565 201.901
f 56/141/3 54/142/3 61/153/3

usemtl _Tile_Ceramic_Natural_7
vt -5.28504 83.8779
f 61/154/4 54/152/4 56/151/4

usemtl _Color_C03_2
vt -176.252 -9.40677e-012
vn -0.608512 8.99393e-014 -0.793545
vt -177.268 -8.46885e-012
vt -176.311 -9.69099e-012
f 57/155/23 61/156/23 56/157/23

vt -176.09 -8.46885e-012
vn -0.706884 4.51716e-014 -0.707329
f 61/156/23 57/155/23 58/158/24

usemtl _7
vt -25.3462 0.962408
vn 0.608512 -8.99393e-014 0.793545
vt -25.3542 0.962408
vt -25.3458 0.962408
f 56/159/25 61/160/25 57/161/25

vt -25.3444 0.962408
vn 0.706884 -4.51716e-014 0.707329
f 58/162/26 57/161/25 61/160/25

usemtl _Color_C03_2
v 7.40702 8.28543 -117.914
vt -176.09 141.732
f 61/156/23 58/158/24 62/163/24

usemtl _7
vt -25.3444 1.70186
f 62/164/26 58/162/26 61/160/25

usemtl _Color_C03_2
vt -200.759 2.2139e-012
v 7.37919 8.28543 -117.878
vt -198.96 141.732
vn -0.865868 -3.47095e-016 -0.500273
vt -200.759 141.732
f 58/165/24 63/166/27 62/167/24

vt -198.96 2.2139e-012
f 63/166/27 58/165/24 59/168/27

usemtl _7
vt -31.9916 0.962408
vn 0.865868 3.47095e-016 0.500273
vt -32.0065 0.962408
vt -31.9916 1.70186
f 59/169/28 58/170/26 63/171/28

vt -32.0065 1.70186
f 62/172/26 63/171/28 58/170/26

usemtl _Color_C03_2
vt -208.21 2.19327e-012
vn -0.965844 -2.85752e-016 -0.259123
vt -210.008 141.732
vt -210.008 2.19327e-012
f 60/173/29 63/174/27 59/175/27

v 7.3617 8.28543 -117.836
vt -208.21 141.732
f 63/174/27 60/173/29 64/176/29

usemtl _7
vt -36.4581 1.70186
vn 0.965844 2.85752e-016 0.259123
vt -36.4581 0.962408
vt -36.473 1.70186
f 64/177/30 60/178/30 63/179/28

usemtl _Color_C03_2
vt -203.209 2.17873e-012
vn -1 -2.04934e-016 -0.00031484
vt -205.008 141.732
vt -205.008 2.17873e-012
f 35/180/31 64/181/29 60/182/29

v 7.35572 8.28543 -117.79
vt -203.209 141.732
f 64/181/29 35/180/31 65/183/31

usemtl _7
vt -38.4395 1.70186
vn 1 2.04934e-016 0.00031484
vt -38.4395 0.962408
vt -38.4544 1.70186
f 65/184/32 35/185/32 64/186/30

usemtl _Color_C03_2
vt -184.299 2.17407e-012
vn -0.966007 -1.10151e-016 0.258515
vt -186.098 141.732
vt -186.098 2.17407e-012
f 34/187/33 65/188/31 35/189/31

v 7.36167 8.28543 -117.745
vt -184.299 141.732
f 65/188/31 34/187/33 66/190/33

usemtl _7
vt -37.8009 1.70186
vn 0.966007 1.10151e-016 -0.258515
vt -37.8009 0.962408
vt -37.8158 1.70186
f 66/191/34 34/192/34 65/193/32

usemtl _Color_C03_2
vt -154.566 2.18042e-012
v 7.37914 8.28543 -117.703
vt -152.768 141.732
vn -0.866183 -7.86111e-018 0.499727
vt -154.566 141.732
f 34/194/33 67/195/35 66/196/33

vt -152.768 2.18042e-012
f 67/195/35 34/194/33 33/197/35

usemtl _7
vt -34.5856 0.962408
vn 0.866183 7.86111e-018 -0.499727
vt -34.6005 0.962408
vt -34.5856 1.70186
f 33/198/36 34/199/34 67/200/36

usemtl _Tile_Ceramic_Natural_7
vt -5.24832 83.7147
vt -5.2359 83.7448
f 33/201/4 34/202/4 14/23/4

f 34/202/4 35/75/4 14/23/4

usemtl _7
vt -37.8158 0.962408
f 35/203/32 65/193/32 34/192/34

usemtl _Tile_Ceramic_Natural_7
vt -5.26809 83.689
f 32/204/4 33/201/4 14/23/4

usemtl _Color_C03_2
v 7.40694 8.28543 -117.667
vt -110.764 141.732
vn -0.707329 9.49645e-017 0.706884
vt -112.563 2.19595e-012
vt -110.764 2.19595e-012
f 68/205/37 33/206/35 32/207/37

vt -112.563 141.732
f 33/206/35 68/205/37 67/208/35

usemtl _7
vt -29.0129 0.962408
vn 0.707329 -9.49645e-017 -0.706884
vt -29.0278 0.962408
vt -29.0129 1.70186
f 32/209/38 33/210/36 68/211/38

vt -29.0278 1.70186
f 67/212/36 68/211/38 33/210/36

usemtl _Color_C03_2
vt -62.95 2.21634e-012
v 7.44317 8.28543 -117.639
vt -61.1514 141.732
vn -0.500273 1.91318e-016 0.865868
vt -62.95 141.732
f 32/213/37 69/214/39 68/215/37

vt -61.1514 2.21634e-012
f 69/214/39 32/213/37 31/216/39

usemtl _7
vt -21.4625 0.962408
vn 0.500273 -1.91318e-016 -0.865868
vt -21.4774 0.962408
vt -21.4625 1.70186
f 31/217/40 32/218/38 69/219/40

usemtl _Tile_Ceramic_Natural_7
vt -5.29386 83.6692
f 31/220/4 32/204/4 14/23/4

vt -5.32388 83.6567
f 30/221/4 31/220/4 14/23/4

usemtl _Color_C03_2
v 7.48538 8.28543 -117.621
vt -7.30973 141.732
vn -0.259123 2.74634e-016 0.965844
vt -9.10832 2.236e-012
vt -7.30973 2.236e-012
f 70/222/41 31/223/39 30/224/41

vt -9.10832 141.732
f 31/223/39 70/222/41 69/225/39

usemtl _7
vt -12.449 0.962408
vn 0.259123 -2.74634e-016 -0.965844
vt -12.4639 0.962408
vt -12.449 1.70186
f 30/226/42 31/227/40 70/228/42

vt -12.4639 1.70186
f 69/229/40 70/228/42 31/227/40

usemtl _Color_C03_2
vt 47.0914 2.27797e-012
vn -0.00031484 3.39234e-016 1
vt 45.2928 141.732
vt 45.2928 2.24955e-012
f 29/230/43 70/231/41 30/232/41

v 7.53067 8.28543 -117.615
vt 47.0914 141.732
f 70/231/41 29/230/43 71/233/43

usemtl _7
vt -2.60149 0.962408
vt -2.60149 1.70186
vt -2.58657 0.962408
vn 0.00031484 -3.39234e-016 -1
f 30/234/42 70/235/42 29/236/44

vt -2.58657 1.70186
f 71/237/44 29/236/44 70/235/42

usemtl _Color_C03_2
vt 96.546 2.28166e-012
v 7.57596 8.28543 -117.621
vt 98.3446 141.732
vn 0.258515 3.80716e-016 0.966007
vt 96.546 141.732
f 29/238/43 72/239/45 71/240/43

vt 98.3446 4.62666e-013
f 72/239/45 29/238/43 28/241/45

usemtl _7
vt 7.45263 0.962408
vn -0.258515 -3.80716e-016 -0.966007
vt 7.43772 0.962408
vt 7.45263 1.70186
f 28/242/46 29/243/44 72/244/46

usemtl _Tile_Ceramic_Natural_7
vt -5.38831 83.6567
vt -5.35609 83.6525
f 28/245/4 29/246/4 14/23/4

f 29/246/4 30/221/4 14/23/4

vt -5.41833 83.6691
f 27/247/4 28/245/4 14/23/4

usemtl _Color_C03_2
v 7.61817 8.28543 -117.639
vt 142.957 141.732
vn 0.499727 3.96253e-016 0.866183
vt 141.159 4.5544e-013
vt 142.957 4.5544e-013
f 73/248/47 28/249/45 27/250/47

vt 141.159 141.732
f 28/249/45 73/248/47 72/251/45

usemtl _7
vt 16.9845 0.962408
vn -0.499727 -3.96253e-016 -0.866183
vt 16.9695 0.962408
vt 16.9845 1.70186
f 27/252/48 28/253/46 73/254/48

vt 16.9695 1.70186
f 72/255/46 73/254/48 28/253/46

usemtl _Color_C03_2
vt 176.09 4.39196e-013
v 7.65443 8.28543 -117.667
vt 177.889 141.732
vn 0.706884 3.84785e-016 0.707329
vt 176.09 141.732
f 27/256/47 74/257/49 73/258/47

vt 177.889 4.39196e-013
f 74/257/49 27/256/47 26/259/49

usemtl _7
vt 25.3593 0.962408
vn -0.706884 -3.84785e-016 -0.707329
vt 25.3444 0.962408
vt 25.3593 1.70186
f 26/260/50 27/261/48 74/262/50

usemtl _Tile_Ceramic_Natural_7
vt -5.44412 83.6889
f 26/263/4 27/247/4 14/23/4

vt -5.45708 83.7058
f 25/264/4 26/263/4 14/23/4

usemtl _Color_C03_2
vt 200.138 141.732
vn 0.793162 3.69098e-016 0.609011
vt 198.96 4.18285e-013
vt 200.138 4.18285e-013
f 23/265/51 26/266/49 25/267/51

vt 198.96 141.732
f 26/266/49 23/265/51 74/268/49

usemtl _7
vt 31.9916 1.70186
vt 32.0014 1.70186
vn -0.793162 -3.69098e-016 -0.609011
vt 31.9916 0.962408
f 74/269/50 23/270/52 26/271/50

vt 32.0014 0.962408
f 25/272/52 26/271/50 23/270/52

vt 2.49285 1.70186
vt 2.84229 1.14727
f 23/273/10 24/274/10 25/60/10

f 22/53/10 24/274/10 23/273/10

f 19/48/10 22/53/10 23/273/10

f 24/274/10 12/61/10 25/60/10

usemtl _Color_C03_1
f 24/55/9 12/57/9 9/43/9

usemtl _7
f 9/47/10 12/61/10 24/274/10

usemtl _Tile_Ceramic_Natural_7
vt -7.57124 83.7051
f 9/39/4 12/275/4 11/22/4

vt -6.21834 83.7055
f 12/275/4 13/276/4 11/22/4

f 13/276/4 14/23/4 11/22/4

f 13/276/4 25/264/4 14/23/4

f 10/40/4 9/39/4 11/22/4

usemtl _7
vt -3.77526 0.962408
f 11/29/6 10/277/6 17/31/6

usemtl _Color_C03_1
f 9/43/9 20/45/9 24/55/9

usemtl _7
f 24/274/10 20/49/10 9/47/10

vt 25.3444 1.70186
f 73/278/48 74/262/50 27/261/48

vt 7.43772 1.70186
f 71/279/44 72/244/46 29/243/44

vt -21.4774 1.70186
f 68/280/38 69/219/40 32/218/38

vt -34.6005 1.70186
f 66/281/34 67/200/36 34/199/34

vt -38.4544 0.962408
f 60/282/30 64/186/30 35/185/32

vt -36.473 0.962408
f 59/283/28 63/179/28 60/178/30

usemtl _Color_C03_2
v 7.43077 8.28543 -117.932
vt -177.268 141.732
f 61/156/23 62/163/24 75/284/23

usemtl _7
vt -25.3542 1.70186
f 75/285/25 62/164/26 61/160/25

f 38/7/14 39/85/14 36/5/14

usemtl _Color_C04_1
vt -4.72048 1.55654e-013
vt -5.89876 141.732
vn -0.793545 4.39275e-017 0.608512
vt -5.89876 1.55654e-013
f 6/286/37 19/287/53 7/288/53

v 11.8315 8.28543 -117.665
vt -4.72048 141.732
f 19/287/53 6/286/37 76/289/37

usemtl _7
vt -28.1335 1.70186
vt -28.1335 0.962408
vt -28.1433 1.70186
vn 0.793545 -4.39275e-017 -0.608512
f 76/290/38 6/291/38 19/292/54

usemtl _Color_C04_1
vt 75.2492 1.85288e-013
v 11.8678 8.28543 -117.637
vt 77.0478 141.732
vn -0.500273 1.91321e-016 0.865868
vt 75.2492 141.732
f 6/293/37 77/294/55 76/295/37

vt 77.0478 1.85288e-013
f 77/294/55 6/293/37 5/296/55

usemtl _7
vt -20.3165 0.962408
vn 0.500273 -1.91321e-016 -0.865868
vt -20.3314 0.962408
vt -20.3165 1.70186
f 5/297/56 6/298/38 77/299/56

usemtl _Tile_Ceramic_Natural_7
vt -8.4408 83.6682
vt -8.41503 83.688
vt -8.46652 80.6572
f 5/300/4 6/301/4 3/302/4

f 6/301/4 7/41/4 3/302/4

usemtl _7
vt -28.1433 0.962408
f 7/303/54 19/292/54 6/291/38

usemtl _Tile_Ceramic_Natural_7
f 3/302/4 7/41/4 8/38/4

usemtl _Color_C03_1
vn 0.00031484 -3.53272e-014 -1
vt -244.666 3.19609e-012
vt -232.675 9.22354e-013
f 18/27/57 3/304/57 8/305/57

vt -244.666 141.732
f 3/304/57 18/27/57 1/306/57

usemtl _7
vn -0.00031484 3.53272e-014 1
vt -3.87471 0.962408
f 8/277/58 3/307/58 18/31/58

vt -3.87471 1.70186
f 1/308/58 18/31/58 3/307/58

f 18/7/8 17/37/8 8/5/8

usemtl _Tile_Ceramic_Natural_7
vt -8.46747 83.6571
f 2/309/4 5/300/4 3/302/4

usemtl _Color_C04_1
vt 153.426 141.732
vn -0.382974 2.34992e-016 0.923759
vt 151.828 2.05307e-013
vt 153.426 2.05307e-013
f 4/310/59 5/311/55 2/312/59

vt 151.828 141.732
f 5/311/55 4/310/59 77/313/55

usemtl _7
vt -11.1161 0.962408
vn 0.382974 -2.34992e-016 -0.923759
vt -11.1293 0.962408
vt -11.1161 1.70186
f 2/314/60 5/315/56 4/316/60

vt -11.1293 1.70186
f 77/317/56 4/316/60 5/315/56

vt -38.4021 1.70186
f 4/318/2 1/7/2 2/6/2

vt -20.3314 1.70186
f 76/319/38 77/299/56 6/298/38

g Mesh2 DES038 Model

l 1 4

l 3 1

l 3 2

l 3 8

l 8 18

l 10 8

l 10 17

l 10 11

l 11 15

l 15 16

l 15 14

l 14 36

l 14 37

l 37 38

l 36 38

l 40 36

l 45 40

l 45 46

l 44 45

l 43 44

l 42 43

l 41 42

l 48 41

l 54 48

l 54 61

l 54 55

l 55 49

l 49 47

l 48 49

l 52 47

l 53 52

l 53 51

l 51 50

l 41 50

l 47 46

l 46 39

l 40 39

l 39 38

l 61 56

l 61 75

l 75 62

l 62 63

l 63 64

l 64 65

l 65 66

l 66 67

l 67 68

l 68 69

l 69 70

l 70 71

l 71 72

l 72 73

l 73 74

l 74 23

l 25 23

l 26 25

l 27 26

l 28 27

l 29 28

l 30 29

l 31 30

l 32 31

l 33 32

l 34 33

l 35 34

l 60 35

l 59 60

l 58 59

l 57 58

l 56 57

l 13 25

l 13 12

l 12 9

l 7 9

l 7 6

l 7 19

l 19 76

l 23 19

l 76 77

l 77 4

l 2 4

l 5 2

l 6 5

l 17 16

l 17 18

l 1 18

g Mesh3 DES038 Model

l 20 21

l 24 20

l 24 22

l 21 22

