# Alias OBJ Model File
# Exported from SketchUp, (c) 2000-2012 Trimble Navigation Limited
# File units = meters

mtllib AUL029.mtl

g Mesh1 AUL029 Model

usemtl _Color_C03_3
v 12.5087 11.151 -66.9347
vt -122.11 141.732
vn -0.92213 4.72631e-016 0.38688
v 12.46 7.551 -67.0509
vt -127.074 1.35478e-013
v 12.5087 7.551 -66.9347
vt -122.11 1.35478e-013
f 1/1/1 2/2/1 3/3/1

v 12.46 11.151 -67.0509
vt -127.074 141.732
f 2/2/1 1/1/1 4/4/1

usemtl BackColor
vn 0.92213 -4.72631e-016 -0.38688
f 3/3/2 2/2/2 1/1/2

usemtl _Tile_Ceramic_Natural_14
vt 8.83686 47.5538
vn 1.64526e-015 1 5.66145e-016
v 13.0792 7.551 -61.8875
vt 9.27606 43.8919
vt 8.87145 47.4714
f 2/5/3 5/6/3 3/7/3

v 12.3592 7.551 -61.8878
vt 8.76542 43.892
f 5/6/3 2/5/3 6/8/3

usemtl _7
vt 4.03501 12.712
vn -1.64526e-015 -1 -5.66145e-016
vt 4.0679 13.7725
vt 4.27007 12.712
f 6/9/4 2/10/4 5/11/4

usemtl _Tile_Ceramic_Natural_14
v 12.574 7.551 -73.1677
vt 8.91776 51.892
f 7/12/3 6/8/3 2/5/3

v 11.9529 7.551 -73.1679
vt 8.47727 51.8921
f 8/13/3 6/8/3 7/12/3

v 12.359 7.551 -61.2578
vt 8.76527 43.4452
f 8/13/3 9/14/3 6/8/3

v 9.75295 7.551 -73.1686
vt 6.91699 51.8926
f 10/15/3 9/14/3 8/13/3

v 9.35295 7.551 -73.1688
vt 6.6333 51.8927
f 11/16/3 9/14/3 10/15/3

v 7.15295 7.551 -73.1695
vt 5.07301 51.8933
f 12/17/3 9/14/3 11/16/3

v 7.15295 7.551 -65.7101
vt 5.07301 46.6029
f 13/18/3 9/14/3 12/17/3

v 7.15295 7.551 -64.4641
vt 5.07301 45.7192
f 14/19/3 9/14/3 13/18/3

v 7.15295 7.551 -61.2595
vt 5.07301 43.4465
f 15/20/3 9/14/3 14/19/3

v 6.99483 7.551 -61.2595
vt 4.96087 43.4465
f 9/14/3 15/20/3 16/21/3

usemtl _7
vt 2.28365 12.583
vt 2.33528 12.583
vt 4.03494 12.5826
f 16/22/4 15/23/4 9/24/4

vt 2.33528 13.2412
f 14/25/4 9/24/4 15/23/4

vt 2.33528 13.4971
f 13/26/4 9/24/4 14/25/4

vt 2.33528 15.0293
f 12/27/4 9/24/4 13/26/4

vt 3.05353 15.0292
f 11/28/4 9/24/4 12/27/4

vt 3.18412 15.0291
f 10/29/4 9/24/4 11/28/4

vt 3.90237 15.029
f 8/30/4 9/24/4 10/29/4

f 6/9/4 9/24/4 8/30/4

usemtl _Tile_Ceramic_Natural_3
v 12.359 11.151 -61.2578
vt -820.551 18.9469
vn -1 2.84708e-016 -0.000328946
vt -822.101 10.0886
vt -820.551 10.0886
f 17/31/5 6/32/5 9/33/5

v 12.3592 11.151 -61.8878
vt -822.101 18.9469
f 6/32/5 17/31/5 18/34/5

usemtl BackColor
vt -0.0694698 1.73814e-013
vn 1 -2.84708e-016 0.000328946
vt -24.8726 5.71718e-013
vt -0.0694698 141.732
f 9/35/6 6/36/6 17/37/6

vt -24.8726 141.732
f 18/38/6 17/37/6 6/36/6

usemtl _Tile_Ceramic_Natural_3
v 13.0792 11.151 -61.8875
vt -822.322 18.9469
vn 0.000328946 -5.42711e-016 -1
f 19/39/7 6/33/7 18/31/7

vt -822.322 10.0886
f 6/33/7 19/39/7 5/40/7

usemtl BackColor
vt -239.536 4.68246e-013
vn -0.000328946 5.42711e-016 1
vt -239.536 141.732
vt -211.189 5.25089e-013
f 5/41/8 19/42/8 6/43/8

usemtl _Tile_Ceramic_Natural_3
v 13.079 11.151 -61.286
vt -823.802 18.9469
f 20/44/6 5/40/6 19/39/6

v 13.079 7.551 -61.286
vt -823.802 10.0886
f 5/40/6 20/44/6 21/45/6

usemtl BackColor
vt 1.18961 5.79789e-013
vt 1.18961 141.732
vt 24.8726 5.22945e-013
f 21/46/5 20/47/5 5/48/5

usemtl _Tile_Ceramic_Natural_3
v 14.809 11.151 -61.2854
vt -826.579 18.9469
vn 0.000328946 -1.12353e-014 -1
f 22/49/9 21/40/9 20/39/9

v 14.809 7.551 -61.2854
vt -826.579 10.0886
f 21/40/9 22/49/9 23/50/9

usemtl BackColor
vt -307.646 7.0209e-014
vn -0.000328946 1.12353e-014 1
vt -307.646 141.732
vt -239.536 5.24956e-013
f 23/51/10 22/52/10 21/53/10

usemtl _Tile_Ceramic_Natural_3
vn -1 5.08051e-015 -0.000328946
v 14.8096 7.551 -62.8962
vt -830.543 10.0886
f 22/49/11 24/54/11 23/50/11

v 14.8096 10.851 -62.8962
vt -830.543 18.2087
f 24/54/11 22/49/11 25/55/11

usemtl BackColor
vt -1.18961 1.61984e-012
vn 1 -5.08051e-015 0.000328946
vt -64.6044 2.01774e-012
vt -1.18961 141.732
f 23/56/12 24/57/12 22/58/12

usemtl _Tile_Ceramic_Natural_14
v 14.8096 7.551 -62.9462
vt 10.5033 44.6427
vt 10.5029 43.4648
vt 10.5032 44.6072
f 26/59/3 23/60/3 24/61/3

v 14.8101 7.551 -64.6462
vt 10.5037 45.8483
f 27/62/3 23/60/3 26/59/3

v 14.5902 7.551 -64.6962
vt 10.3476 45.8839
f 28/63/3 23/60/3 27/62/3

f 5/6/3 23/60/3 28/63/3

vt 9.27592 43.4652
f 23/60/3 5/6/3 21/64/3

usemtl _7
vt 4.27001 12.5884
vt 4.83482 12.5883
f 21/65/4 5/11/4 23/66/4

vt 4.76336 13.2889
f 28/67/4 23/66/4 5/11/4

vt 4.83518 13.2786
f 27/68/4 23/66/4 28/67/4

vt 4.83499 12.9294
f 26/69/4 23/66/4 27/68/4

vt 4.83499 12.9191
f 24/70/4 23/66/4 26/69/4

usemtl _Tile_Ceramic_Natural_14
v 14.8102 7.551 -64.6962
vt 10.5037 45.8838
f 28/63/3 27/62/3 29/71/3

usemtl _7
vt 4.83518 13.2889
f 29/72/4 27/68/4 28/67/4

usemtl _Tile_Ceramic_Natural_14
v 14.5909 7.551 -67.0262
vt 10.3482 47.5363
f 30/73/3 5/6/3 28/63/3

v 12.9316 7.551 -67.0268
vt 9.17135 47.5367
f 31/74/3 5/6/3 30/73/3

v 12.927 7.551 -66.9911
vt 9.16806 47.5114
f 32/75/3 5/6/3 31/74/3

v 12.8505 7.551 -66.8909
vt 9.11379 47.4403
f 33/76/3 5/6/3 32/75/3

v 12.7341 7.551 -66.8423
vt 9.03129 47.4059
f 34/77/3 5/6/3 33/76/3

v 12.6091 7.551 -66.8583
vt 8.9426 47.4173
f 35/78/3 5/6/3 34/77/3

f 3/7/3 5/6/3 35/78/3

usemtl _7
vt 4.08382 13.7487
f 3/79/4 5/11/4 2/10/4

vt 4.11658 13.733
f 35/80/4 5/11/4 3/79/4

vt 4.1574 13.7297
f 34/81/4 5/11/4 35/80/4

vt 4.19538 13.7397
f 33/82/4 5/11/4 34/81/4

vt 4.22036 13.7603
f 32/83/4 5/11/4 33/82/4

vt 4.22187 13.7676
f 31/84/4 5/11/4 32/83/4

vt 4.76361 13.7675
f 30/85/4 5/11/4 31/84/4

f 28/67/4 5/11/4 30/85/4

usemtl _Tile_Ceramic_Natural_3
v 14.5902 11.151 -64.6962
vt -1627.83 18.9469
vt -1633.56 10.0886
vt -1627.83 10.0886
f 36/86/5 30/87/5 28/88/5

v 14.5909 11.151 -67.0262
vt -1633.56 18.9469
f 30/87/5 36/86/5 37/89/5

usemtl BackColor
vt -135.471 1.33568e-012
vt -227.203 1.22199e-012
vt -135.471 141.732
f 28/90/6 30/91/6 36/92/6

vt -227.203 141.732
f 37/93/6 36/92/6 30/91/6

usemtl _Tile_Ceramic_Natural_3
v 12.9316 11.151 -67.0268
vt -1870.93 18.9469
vt -1866.84 10.0886
vt -1866.84 18.9469
f 38/94/8 30/95/8 37/96/8

vt -1870.93 10.0886
f 30/95/8 38/94/8 31/97/8

usemtl BackColor
vt 233.656 4.64366e-013
vt 233.656 141.732
vt 298.984 1.26017e-012
f 31/98/7 38/99/7 30/100/7

usemtl _Color_C03_3
v 12.927 11.151 -66.9911
vt 253.911 141.732
vn 0.991677 -2.12654e-016 0.12875
vt 255.328 3.84132e-013
vt 255.328 141.732
f 39/101/13 31/102/13 38/103/13

vt 253.911 4.40976e-013
f 31/102/13 39/101/13 32/104/13

usemtl BackColor
vn -0.991677 2.12654e-016 -0.12875
f 32/104/14 39/101/14 31/102/14

usemtl _Color_C03_3
v 12.8505 11.151 -66.8909
vt 316.175 141.732
vn 0.794777 1.02893e-016 0.606901
vt 321.138 3.929e-013
vt 321.138 141.732
f 40/105/15 32/106/15 39/107/15

vt 316.175 3.929e-013
f 32/106/15 40/105/15 33/108/15

usemtl BackColor
vn -0.794777 -1.02893e-016 -0.606901
f 33/108/16 40/105/16 32/106/16

usemtl _Color_C03_3
v 12.7341 11.151 -66.8423
vt 293.231 141.732
vn 0.385355 3.90927e-016 0.922768
vt 298.194 4.43177e-013
vt 298.194 141.732
f 41/109/17 33/110/17 40/111/17

vt 293.231 4.5273e-014
f 33/110/17 41/109/17 34/112/17

usemtl BackColor
vn -0.385355 -3.90927e-016 -0.922768
f 34/112/18 41/109/18 33/110/18

usemtl _Color_C03_3
vt 196.177 141.732
vn -0.12711 5.74428e-016 0.991889
vt 191.213 1.41769e-013
vt 196.177 1.41769e-013
f 41/113/19 35/114/19 34/115/19

v 12.6091 11.151 -66.8583
vt 191.213 141.732
f 35/114/19 41/113/19 42/116/19

usemtl BackColor
vn 0.12711 -5.74428e-016 -0.991889
f 34/115/20 35/114/20 41/113/20

f 42/116/20 41/113/20 35/114/20

usemtl _Color_C03_3
vt 42.3655 141.732
vn -0.605586 6.04327e-016 0.79578
vt 37.4021 1.8693e-013
vt 42.3655 1.8693e-013
f 42/117/21 3/118/21 35/119/21

vt 37.4021 141.732
f 3/118/21 42/117/21 1/120/21

usemtl BackColor
vn 0.605586 -6.04327e-016 -0.79578
f 35/119/22 3/118/22 42/117/22

f 1/120/22 42/117/22 3/118/22

f 40/111/18 33/110/18 41/109/18

f 39/107/16 32/106/16 40/105/16

f 38/103/14 31/102/14 39/101/14

vt 298.984 141.732
f 37/121/7 30/100/7 38/99/7

vt -64.6044 129.921
f 25/122/12 22/58/12 24/57/12

usemtl _Tile_Ceramic_Natural_3
v 14.8102 11.151 -64.6962
vt -834.972 18.9469
f 25/55/11 22/49/11 43/123/11

usemtl BackColor
f 43/92/12 22/58/12 25/122/12

usemtl _Tile_Ceramic_Natural_3
v 14.8102 10.851 -64.6962
vt -834.972 18.2087
f 25/55/11 43/123/11 44/124/11

usemtl BackColor
vt -135.471 129.921
f 44/125/12 43/92/12 25/122/12

f 20/42/10 21/53/10 22/52/10

vt 24.8726 141.732
f 19/126/5 5/48/5 20/47/5

vt -211.189 141.732
f 18/127/8 6/43/8 19/42/8

usemtl _Tile_Ceramic_Natural_3
vt -807.351 10.0886
vn 0.000328946 -3.204e-015 -1
f 16/128/23 17/31/23 9/33/23

v 6.99483 11.151 -61.2595
vt -807.351 18.9469
f 17/31/23 16/128/23 45/129/23

usemtl BackColor
vt -211.189 1.13909e-013
vn -0.000328946 3.204e-015 1
vt 2.28518e-005 9.09717e-013
f 9/130/24 17/127/24 16/131/24

vt 2.28518e-005 141.732
f 45/132/24 16/131/24 17/127/24

usemtl _7
vt 4.10514 15.029
f 7/133/4 6/9/4 8/30/4

f 2/10/4 6/9/4 7/133/4

usemtl _Tile_Ceramic_Natural_14
v 12.4758 7.551 -67.176
vt 8.84808 47.6425
f 7/12/3 2/5/3 46/134/3

usemtl _7
vt 4.07306 13.7982
f 46/135/4 2/10/4 7/133/4

usemtl _Color_C03_3
vt -253.271 3.96593e-014
vn -0.992097 2.14553e-016 -0.12547
v 12.4758 11.151 -67.176
vt -258.234 141.732
vt -258.234 4.37563e-013
f 2/136/25 47/137/25 46/138/25

vt -253.271 141.732
f 47/137/25 2/136/25 4/139/25

usemtl BackColor
vn 0.992097 -2.14553e-016 0.12547
f 4/139/26 2/136/26 47/137/26

f 4/4/2 1/1/2 2/2/2

f 46/138/26 47/137/26 2/136/26

usemtl _Color_C03_3
v 12.552 11.151 -67.2764
vt -321.007 141.732
vn -0.79678 -1.00895e-016 -0.60427
vt -316.043 3.94762e-013
vt -316.043 141.732
f 48/140/27 46/141/27 47/142/27

v 12.552 7.551 -67.2764
vt -321.007 3.37919e-013
f 46/141/27 48/140/27 49/143/27

usemtl BackColor
vn 0.79678 1.00895e-016 0.60427
f 47/142/28 46/141/28 48/140/28

f 49/143/28 48/140/28 46/141/28

usemtl _Color_C03_3
vt -293.643 141.732
vn -0.388404 -3.89364e-016 -0.921489
v 12.6681 7.551 -67.3254
vt -298.606 3.92992e-013
vt -293.643 3.92992e-013
f 48/144/29 50/145/29 49/146/29

v 12.6681 11.151 -67.3254
vt -298.606 141.732
f 50/145/29 48/144/29 51/147/29

usemtl BackColor
vn 0.388404 3.89364e-016 0.921489
f 49/146/30 50/145/30 48/144/30

usemtl _Tile_Ceramic_Natural_14
vt 8.9845 47.7485
v 12.5739 7.551 -72.8577
vt 8.91769 51.6721
vt 8.90211 47.7138
f 50/148/3 52/149/3 49/150/3

v 12.6791 7.551 -72.8577
vt 8.99228 51.6721
f 52/149/3 50/148/3 53/151/3

usemtl _7
vt 4.09793 13.8189
vt 4.10511 14.9653
vt 4.13586 13.8289
f 49/152/4 52/153/4 50/154/4

usemtl _Tile_Ceramic_Natural_14
f 7/12/3 49/150/3 52/149/3

f 7/12/3 46/134/3 49/150/3

usemtl _7
f 49/152/4 46/135/4 7/133/4

f 52/153/4 49/152/4 7/133/4

usemtl _Tile_Ceramic_Natural_3
vt -1871.81 10.0886
v 12.574 11.151 -73.1677
vt -1872.57 18.9469
vt -1872.57 10.0886
f 52/155/5 54/156/5 7/157/5

v 12.5739 11.151 -72.8577
vt -1871.81 18.9469
f 54/156/5 52/155/5 55/158/5

usemtl BackColor
vt -456.762 141.732
vt -456.762 1.48358e-012
vt -468.967 141.732
f 55/159/6 52/160/6 54/161/6

usemtl _Tile_Ceramic_Natural_3
v 12.6791 11.151 -72.8577
vt -1871.55 18.9469
f 52/155/8 56/162/8 55/158/8

vt -1871.55 10.0886
f 56/162/8 52/155/8 53/163/8

usemtl BackColor
vt 223.641 1.66898e-012
vt 219.5 1.66898e-012
vt 223.641 141.732
f 53/164/7 52/165/7 56/166/7

usemtl _7
vt 4.13944 14.9653
f 53/167/4 50/154/4 52/153/4

usemtl _Tile_Ceramic_Natural_14
v 12.6773 7.551 -67.3243
vt 8.99099 47.7477
f 53/151/3 50/148/3 57/168/3

usemtl _7
vt 4.13885 13.8287
f 57/169/4 50/154/4 53/167/4

usemtl _Tile_Ceramic_Natural_3
v 12.6773 11.151 -67.3243
vt -1634.29 18.9469
vt -1647.91 10.0886
vt -1634.29 10.0886
f 58/170/5 53/171/5 57/172/5

vt -1647.91 18.9469
f 53/171/5 58/170/5 56/173/5

usemtl BackColor
vt -238.912 4.04733e-013
vt -456.762 1.48476e-012
vt -238.912 141.732
f 57/174/6 53/175/6 58/176/6

f 56/159/6 58/176/6 53/175/6

vt 219.5 141.732
f 55/177/7 56/166/7 52/165/7

vt -468.967 1.48358e-012
f 7/178/6 54/161/6 52/160/6

usemtl _Tile_Ceramic_Natural_3
v 11.9529 8.451 -73.1679
vt -1873.34 12.3031
vn -0.000328946 4.49601e-014 1
f 59/179/31 7/155/31 54/158/31

vt -1885.15 10.0886
f 12/180/31 7/155/31 59/179/31

vt -1873.34 10.0886
f 12/180/31 8/181/31 7/155/31

vt -1879.74 10.0886
f 11/182/31 8/181/31 12/180/31

vt -1878.75 10.0886
f 8/181/31 11/182/31 10/183/31

usemtl BackColor
vt 108.433 2.1369e-011
vn 0.000328946 -4.49601e-014 -1
vt 92.6851 2.1369e-011
vt 195.047 2.21648e-011
f 10/184/32 11/185/32 8/186/32

vt 6.07094 2.25627e-011
f 12/187/32 8/186/32 11/185/32

vt 219.5 2.25059e-011
f 7/188/32 8/186/32 12/187/32

vt 195.047 35.4331
f 59/189/32 7/188/32 12/187/32

f 54/177/32 7/188/32 59/189/32

usemtl _Tile_Ceramic_Natural_3
v 11.9529 10.551 -73.1679
vt -1873.34 17.4705
f 59/179/31 54/158/31 60/190/31

usemtl BackColor
vt 195.047 118.11
f 60/191/32 54/177/32 59/189/32

usemtl _Tile_Ceramic_Natural_3
v 7.15295 10.551 -73.1695
vt -1885.15 17.4705
f 60/190/31 54/158/31 61/192/31

usemtl BackColor
vt 6.07094 118.11
f 61/193/32 54/177/32 60/191/32

usemtl _Tile_Ceramic_Natural_3
v 7.15295 11.151 -73.1695
vt -1885.15 18.9469
f 61/192/31 54/158/31 62/194/31

usemtl BackColor
vt 6.07094 141.732
f 62/195/32 54/177/32 61/193/32

usemtl Color_D03
vt 468.965 141.732
vn 1 3.81045e-014 3.22972e-015
v 7.15295 8.451 -73.1695
vt 468.965 35.4331
vt 468.965 118.11
f 62/196/33 63/197/33 61/198/33

vt 468.965 1.24072e-012
f 62/196/33 12/199/33 63/197/33

v 7.15295 10.386 -65.7101
vt 175.29 111.614
f 62/196/33 64/200/33 12/199/33

v 7.15295 10.386 -64.4641
vt 126.235 111.614
f 62/196/33 65/201/33 64/200/33

v 7.15295 11.151 -61.2595
vt 0.0694698 141.732
f 66/202/33 65/201/33 62/196/33

vt 126.235 1.12703e-012
f 66/202/33 14/203/33 65/201/33

vt 0.0694698 1.24072e-012
f 14/203/33 66/202/33 15/204/33

usemtl BackColor
vn -1 -3.81045e-014 -3.22972e-015
f 15/204/34 66/202/34 14/203/34

f 65/201/34 14/203/34 66/202/34

f 62/196/34 65/201/34 66/202/34

f 64/200/34 65/201/34 62/196/34

f 12/199/34 64/200/34 62/196/34

usemtl Color_D03
vt 175.29 1.18388e-012
f 12/199/33 64/200/33 13/205/33

usemtl BackColor
f 13/205/34 64/200/34 12/199/34

f 63/197/34 12/199/34 62/196/34

usemtl _Tile_Ceramic_Natural_3
v 9.35795 8.451 -73.1688
vt -1879.73 12.3031
vt -1885.15 12.3031
f 12/180/31 67/206/31 63/207/31

v 9.75795 8.451 -73.1686
vt -1878.74 12.3031
f 67/206/31 12/180/31 68/208/31

usemtl BackColor
vt 6.07094 35.4331
vt 92.882 35.4331
f 63/209/32 67/210/32 12/187/32

vt 108.63 35.4331
f 68/211/32 12/187/32 67/210/32

usemtl _Tile_Ceramic_Natural_3
f 12/180/31 59/179/31 68/208/31

usemtl BackColor
f 68/211/32 59/189/32 12/187/32

usemtl _Tile_Ceramic_Natural_3
v 9.75795 10.551 -73.1686
vt -1878.74 17.4705
f 69/212/31 67/206/31 68/208/31

v 9.35795 10.551 -73.1688
vt -1879.73 17.4705
f 67/206/31 69/212/31 70/213/31

usemtl BackColor
vt 108.63 118.11
f 68/211/32 67/210/32 69/214/32

vt 92.882 118.11
f 70/215/32 69/214/32 67/210/32

usemtl _Tile_Ceramic_Natural_3
f 70/213/31 69/212/31 60/190/31

usemtl BackColor
f 60/191/32 69/214/32 70/215/32

usemtl _Tile_Ceramic_Natural_3
f 70/213/31 60/190/31 61/192/31

usemtl BackColor
f 61/193/32 60/191/32 70/215/32

f 61/198/34 63/197/34 62/196/34

f 51/147/30 48/144/30 50/145/30

g Mesh2 AUL029 Model

l 2 3

l 2 4

l 46 2

l 46 47

l 49 46

l 50 49

l 50 51

l 57 50

l 57 58

l 53 57

l 53 56

l 52 53

l 52 55

l 52 7

l 7 54

l 8 7

l 8 10

l 11 10

l 11 12

l 12 63

l 12 13

l 13 64

l 13 14

l 14 15

l 65 14

l 64 65

l 15 66

l 15 16

l 9 16

l 6 9

l 6 18

l 5 6

l 5 19

l 21 5

l 23 21

l 23 22

l 24 23

l 24 25

l 24 26

l 26 27

l 27 29

l 29 28

l 28 30

l 28 36

l 36 37

l 30 37

l 30 31

l 31 38

l 32 31

l 33 32

l 34 33

l 34 41

l 35 34

l 35 42

l 3 35

l 3 1

l 4 1

l 47 4

l 48 47

l 49 48

l 51 48

l 1 42

l 42 41

l 41 40

l 33 40

l 40 39

l 32 39

l 39 38

l 37 38

l 25 44

l 44 43

l 43 22

l 22 20

l 21 20

l 20 19

l 19 18

l 18 17

l 9 17

l 17 45

l 16 45

l 62 66

l 62 54

l 61 62

l 61 70

l 63 61

l 67 63

l 67 70

l 55 54

l 55 56

l 56 58

g Mesh3 AUL029 Model

l 69 60

l 68 69

l 59 68

l 59 60

