# Alias OBJ Model File
# Exported from SketchUp, (c) 2000-2012 Trimble Navigation Limited
# File units = meters

mtllib COM011.mtl

g Mesh1 COM11 Model

usemtl _Tile_Ceramic_Natural_14
v 21.9577 7.551 -26.8409
vt 15.5728 19.0361
vn 3.5993e-015 1 -2.11041e-015
v 21.1379 7.551 -26.8438
vt 14.9914 19.0382
v 21.1379 7.551 -26.8412
vt 14.9914 19.0363
f 1/1/1 2/2/1 3/3/1

v 21.1379 7.551 -27.4512
vt 14.9914 19.4689
f 2/2/1 1/1/1 4/4/1

usemtl _7
vt 6.90105 5.51329
vn -3.5993e-015 -1 2.11041e-015
vt 6.90105 5.51383
vt 7.16869 5.51324
f 3/5/2 2/6/2 1/7/2

vt 6.90105 5.63859
f 4/8/2 1/7/2 2/6/2

usemtl _Tile_Ceramic_Natural_14
v 23.4479 7.551 -27.4504
vt 16.6297 19.4684
f 4/4/1 1/1/1 5/9/1

usemtl _7
vt 7.65521 5.63843
f 5/10/2 1/7/2 4/8/2

usemtl _Tile_Ceramic_Natural_14
v 24.3969 7.551 -24.2338
vt 17.3027 17.1871
f 1/1/1 6/11/1 5/9/1

v 21.9577 7.551 -24.2346
vt 15.5728 17.1877
f 1/1/1 7/12/1 6/11/1

v 21.9577 7.551 -26.7209
vt 15.5728 18.951
f 8/13/1 7/12/1 1/1/1

v 21.9571 7.551 -24.921
vt 15.5724 17.6744
f 9/14/1 7/12/1 8/13/1

v 21.9571 7.551 -24.9209
f 7/12/1 9/14/1 10/14/1

usemtl _7
vt 7.16849 5.11886
vt 7.16849 5.11887
vt 7.16869 4.97789
f 10/15/2 9/16/2 7/17/2

vt 7.16868 5.48859
f 8/18/2 7/17/2 9/16/2

f 1/7/2 7/17/2 8/18/2

vt 7.96502 4.97773
f 6/19/2 7/17/2 1/7/2

usemtl Color_D03
vt -32.2835 1.19437e-012
vn 0.000328946 -1.54861e-014 -1
v 24.3969 11.151 -24.2338
vt -128.313 141.732
vt -128.313 1.02384e-012
f 7/20/3 11/21/3 6/22/3

v 21.9569 7.551 -24.2346
vt -32.2497 1.30805e-012
f 11/21/3 7/20/3 12/23/3

usemtl BackColor
vn -0.000328946 1.54861e-014 1
f 6/22/4 11/21/4 7/20/4

usemtl Color_D03
vt -0.042208 141.732
vn -1 8.34741e-016 -0.000328946
v 24.3974 7.551 -25.9938
vt -69.3323 1.75557e-012
vt -0.042208 1.13029e-012
f 11/24/5 13/25/5 6/26/5

v 24.3974 9.651 -25.9938
vt -69.3335 82.6772
f 13/25/5 11/24/5 14/27/5

usemtl BackColor
vn 1 -8.34741e-016 0.000328946
f 6/26/6 13/25/6 11/24/6

f 14/27/6 11/24/6 13/25/6

usemtl Color_D03
v 24.3979 11.151 -27.4501
vt -126.668 141.732
f 14/27/5 11/24/5 15/28/5

usemtl BackColor
f 15/28/6 11/24/6 14/27/6

usemtl Color_D03
v 24.3977 9.651 -26.8438
vt -102.798 82.6772
f 14/27/5 15/28/5 16/29/5

usemtl BackColor
f 16/29/6 15/28/6 14/27/6

usemtl Color_D03
v 24.3979 7.551 -27.4501
vt -126.668 1.07108e-013
f 17/30/5 16/29/5 15/28/5

v 24.3977 7.551 -26.8438
vt -102.798 1.07345e-012
f 16/29/5 17/30/5 18/31/5

usemtl BackColor
f 18/31/6 17/30/6 16/29/6

f 15/28/6 16/29/6 17/30/6

usemtl Color_D03
vt 128.313 141.732
vn -0.000328946 5.91792e-015 1
v 24.3977 7.551 -27.4501
vt 128.305 1.37489e-012
vt 128.313 7.49612e-013
f 15/32/7 19/33/7 17/34/7

v 24.3969 7.551 -27.4501
vt 128.271 2.28438e-012
f 19/33/7 15/32/7 20/35/7

usemtl BackColor
vn 0.000328946 -5.91792e-015 -1
f 17/34/8 19/33/8 15/32/8

f 20/35/8 15/32/8 19/33/8

usemtl Color_D03
v 24.2979 9.651 -27.4501
vt 124.376 82.6772
f 20/35/7 15/32/7 21/36/7

usemtl BackColor
f 21/36/8 15/32/8 20/35/8

usemtl Color_D03
v 21.1379 11.151 -27.4512
vt -0.0337671 141.732
f 22/37/7 21/36/7 15/32/7

v 23.4479 9.651 -27.4504
vt 90.9111 82.6772
f 22/37/7 23/38/7 21/36/7

vt 90.9111 2.34123e-012
f 22/37/7 5/39/7 23/38/7

vt -0.0337671 2.00017e-012
f 5/39/7 22/37/7 4/40/7

usemtl BackColor
f 4/40/8 22/37/8 5/39/8

usemtl Color_D03
vt 126.668 141.732
vn 1 -5.61275e-015 0.000328946
v 21.1377 7.551 -26.8412
vt 102.652 4.54558e-013
vt 126.668 1.25037e-012
f 22/41/9 24/42/9 4/43/9

v 21.1377 11.151 -26.8412
vt 102.652 141.732
f 24/42/9 22/41/9 25/44/9

usemtl BackColor
vn -1 5.61275e-015 -0.000328946
f 25/44/10 22/41/10 24/42/10

f 4/43/10 24/42/10 22/41/10

usemtl Color_D03
vt 0.0337671 141.732
vn 0.000328946 1.29615e-014 -1
vt 0.0258672 -4.77874e-013
vt 0.0337671 -8.75778e-013
f 25/45/11 3/46/11 24/47/11

vt -32.2497 -7.99704e-014
f 3/46/11 25/45/11 1/48/11

usemtl BackColor
vn -0.000328946 -1.29615e-014 1
f 24/47/12 3/46/12 25/45/12

f 1/48/12 25/45/12 3/46/12

usemtl Color_D03
v 21.9577 11.151 -26.8409
vt -32.2497 141.732
f 1/48/11 25/45/11 26/49/11

usemtl BackColor
f 26/49/12 25/45/12 1/48/12

usemtl Color_D03
vn 1 -7.48131e-015 0.000328946
vt 97.928 2.98113e-013
vt 102.652 1.49183e-012
f 26/44/13 8/50/13 1/51/13

v 21.9577 10.551 -26.7209
vt 97.928 118.11
f 26/44/13 27/52/13 8/50/13

v 21.9571 10.551 -24.9209
vt 27.0619 118.11
f 26/44/13 28/53/13 27/52/13

v 21.9569 11.151 -24.2346
vt 0.042208 141.732
f 29/54/13 28/53/13 26/44/13

vt 27.0619 1.60551e-012
f 29/54/13 10/55/13 28/53/13

vt 0.042208 1.54867e-012
f 10/55/13 29/54/13 12/56/13

usemtl BackColor
vn -1 7.48131e-015 -0.000328946
f 12/56/14 29/54/14 10/55/14

usemtl Color_D03
f 11/21/3 12/23/3 29/49/3

usemtl BackColor
f 12/23/4 7/20/4 11/21/4

f 29/49/4 12/23/4 11/21/4

f 28/53/14 10/55/14 29/54/14

f 26/44/14 28/53/14 29/54/14

f 27/52/14 28/53/14 26/44/14

f 8/50/14 27/52/14 26/44/14

f 1/51/14 8/50/14 26/44/14

f 23/38/8 5/39/8 22/37/8

f 21/36/8 23/38/8 22/37/8

f 15/32/8 21/36/8 22/37/8

usemtl Color_D03
v 24.2979 7.551 -27.4501
vt 124.376 7.49612e-013
f 21/36/7 30/57/7 20/35/7

usemtl BackColor
f 20/35/8 30/57/8 21/36/8

usemtl _Tile_Ceramic_Natural_14
vt 17.2326 19.4682
vt 17.3027 19.4682
f 30/58/1 6/11/1 20/59/1

v 24.2579 7.551 -27.5502
vt 17.2042 19.5391
f 31/60/1 6/11/1 30/58/1

v 23.4879 7.551 -27.5504
vt 16.6581 19.5393
f 32/61/1 6/11/1 31/60/1

v 23.4479 7.551 -27.5504
vt 16.6297 19.5393
f 33/62/1 6/11/1 32/61/1

v 23.4479 7.551 -27.4512
vt 16.6297 19.4689
f 34/63/1 6/11/1 33/62/1

f 5/9/1 6/11/1 34/63/1

usemtl _7
f 5/10/2 6/19/2 1/7/2

vt 7.65521 5.63859
f 34/64/2 6/19/2 5/10/2

vt 7.65522 5.65898
f 33/65/2 6/19/2 34/64/2

vt 7.66828 5.65897
f 32/66/2 6/19/2 33/65/2

vt 7.91967 5.65892
f 31/67/2 6/19/2 32/66/2

vt 7.93272 5.63838
f 30/68/2 6/19/2 31/67/2

vt 7.96502 5.63837
f 20/69/2 6/19/2 30/68/2

usemtl _Tile_Ceramic_Natural_14
v 24.2979 7.551 -27.4512
vt 17.2326 19.4689
f 35/70/1 31/60/1 30/58/1

v 24.2979 7.551 -27.5501
vt 17.2326 19.5391
f 31/60/1 35/70/1 36/71/1

usemtl _7
vt 7.93273 5.65892
vt 7.93272 5.63859
f 36/72/2 35/73/2 31/67/2

f 30/68/2 31/67/2 35/73/2

usemtl Color_D03
v 24.3974 7.551 -25.9938
vt -69.3335 1.75557e-012
f 37/74/5 13/25/5 14/27/5

usemtl BackColor
f 14/27/6 13/25/6 37/74/6

usemtl _Tile_Ceramic_Natural_14
v 21.9571 7.551 -26.7209
vt 15.5724 18.951
f 8/13/1 38/75/1 9/14/1

usemtl _7
vt 7.16849 5.48859
f 9/16/2 38/76/2 8/18/2

g Mesh2 COM11 Model

l 38 9

l 8 1

l 8 27

l 27 28

l 10 28

l 10 7

l 10 12

l 6 7

l 20 6

l 20 30

l 17 15

l 18 17

l 18 16

l 14 16

l 37 14

l 6 13

l 6 11

l 11 15

l 11 29

l 12 29

l 26 29

l 26 25

l 1 26

l 1 3

l 3 2

l 24 4

l 24 25

l 25 22

l 4 22

l 4 5

l 2 4

l 5 23

l 21 23

l 30 21

l 30 35

l 35 36

l 36 31

l 31 32

l 32 33

l 34 33

l 22 15

