# Alias OBJ Model File
# Exported from SketchUp, (c) 2000-2012 Trimble Navigation Limited
# File units = meters

mtllib DES009.mtl

g Mesh1 ventana2_1 DES009 Model

usemtl Color_000
v 29.2365 9.12261 -23.2573
vt 1.37598 26.4413
vn -1 2.84708e-016 -0.000328946
v 29.2365 9.00361 -23.2783
vt 0.549204 21.7563
v 29.2365 9.00361 -23.2573
vt 1.37598 21.7563
f 1/1/1 2/2/1 3/3/1

v 29.2365 9.12261 -23.2783
vt 0.549204 26.4413
f 2/2/1 1/1/1 4/4/1

usemtl BackColor
vn 1 -2.84708e-016 0.000328946
f 3/3/2 2/2/2 1/1/2

usemtl Color_000
v 29.2365 9.001 -23.2922
vt 0 21.6535
f 2/2/1 5/5/1 3/3/1

v 29.2365 9.851 -23.2922
vt 0 55.1181
f 5/5/1 2/2/1 6/6/1

usemtl BackColor
f 6/6/2 2/2/2 5/5/2

usemtl Color_000
f 6/6/1 2/2/1 4/4/1

usemtl BackColor
f 4/4/2 2/2/2 6/6/2

f 4/4/2 1/1/2 2/2/2

usemtl Color_000
v 29.2365 9.801 -23.2422
vt 1.9685 53.1496
f 1/1/1 7/7/1 4/4/1

f 3/3/1 7/7/1 1/1/1

v 29.2365 8.501 -23.2422
vt 1.9685 1.9685
f 3/3/1 8/8/1 7/7/1

f 5/5/1 8/8/1 3/3/1

v 29.2365 8.451 -23.2922
vt 0 0
f 9/9/1 8/8/1 5/5/1

v 29.2362 8.501 -22.1922
vt 43.3071 1.9685
f 8/8/1 9/9/1 10/10/1

usemtl BackColor
f 5/5/2 8/8/2 9/9/2

f 3/3/2 8/8/2 5/5/2

f 7/7/2 8/8/2 3/3/2

usemtl M_0128_White
v 29.2865 8.501 -23.2422
vn -0.000328946 5.42711e-016 1
vt 4.54747e-013 53.1496
vt 4.54747e-013 1.9685
f 11/8/3 7/11/3 8/12/3

v 29.2865 9.801 -23.2422
f 7/11/3 11/8/3 12/7/3

usemtl BackColor
vn 0.000328946 -5.42711e-016 -1
f 8/12/4 7/11/4 11/8/4

f 12/7/4 11/8/4 7/11/4

usemtl FrontColor
v 29.2865 9.851 -23.2922
vt 9.09495e-013 55.1181
f 13/13/1 11/8/1 12/7/1

v 29.2865 8.451 -23.2922
vt 9.09495e-013 0
f 14/14/1 11/8/1 13/13/1

v 29.2862 8.501 -22.1922
f 11/8/1 14/14/1 15/10/1

usemtl M_0128_White
f 13/13/2 11/8/2 14/14/2

f 12/7/2 11/8/2 13/13/2

usemtl Translucent_Glass_Blue
vn -1 3.83492e-015 -0.000328946
v 29.2862 9.801 -22.1922
vt 43.3071 53.1496
f 11/8/5 16/15/5 12/7/5

f 16/15/5 11/8/5 15/10/5

vn 1 -3.83492e-015 0.000328946
f 15/10/6 11/8/6 16/15/6

usemtl M_0128_White
vn 2.84843e-016 1 -4.08333e-016
vt 43.3071 4.54747e-013
f 11/8/7 10/16/7 15/10/7

vt 1.9685 4.54747e-013
f 10/16/7 11/8/7 8/17/7

usemtl BackColor
vn -2.84843e-016 -1 4.08333e-016
f 8/17/8 11/8/8 10/16/8

f 15/10/8 10/16/8 11/8/8

usemtl M_0128_White
vt -4.54747e-013 1.9685
vt -1.9685 53.1496
vt -1.9685 1.9685
f 10/18/4 16/19/4 15/20/4

v 29.2362 9.801 -22.1922
vt -4.54747e-013 53.1496
f 16/19/4 10/18/4 17/21/4

usemtl BackColor
f 17/21/3 10/18/3 16/19/3

usemtl Color_000
v 29.2362 8.501 -22.1422
vt 45.2756 1.9685
f 10/10/1 18/22/1 17/15/1

f 9/9/1 18/22/1 10/10/1

v 29.2362 8.451 -22.1422
vt 45.2756 0
f 18/22/1 9/9/1 19/23/1

usemtl BackColor
f 19/23/2 9/9/2 18/22/2

usemtl FrontColor
vt -9.09495e-013 1.9685
vn -2.84887e-016 -1 5.42617e-016
vt -45.2756 4.54747e-013
f 14/24/9 19/25/9 9/9/9

v 29.2862 8.451 -22.1422
vt -45.2756 1.9685
f 19/25/9 14/24/9 20/26/9

usemtl BackColor
vn 2.84887e-016 1 -5.42617e-016
f 9/9/10 19/25/10 14/24/10

f 20/26/10 14/24/10 19/25/10

usemtl FrontColor
v 29.2862 8.501 -22.1422
f 21/22/1 14/14/1 20/23/1

f 14/14/1 21/22/1 15/10/1

usemtl M_0128_White
f 20/23/2 14/14/2 21/22/2

f 15/10/2 21/22/2 14/14/2

usemtl FrontColor
f 15/10/1 21/22/1 16/15/1

usemtl M_0128_White
f 16/15/2 21/22/2 15/10/2

usemtl FrontColor
v 29.2862 9.801 -22.1422
vt 45.2756 53.1496
f 16/15/1 21/22/1 22/27/1

usemtl M_0128_White
f 22/27/2 21/22/2 16/15/2

f 22/7/3 18/12/3 21/8/3

v 29.2362 9.801 -22.1422
vt 5.24223e-030 53.1496
f 18/12/3 22/7/3 23/28/3

usemtl BackColor
f 23/28/4 22/7/4 18/12/4

usemtl M_0128_White
v 29.2358 9.801 -21.1422
vt -84.6457 0
vt -45.2756 0
f 22/26/9 24/29/9 23/30/9

v 29.2859 9.801 -21.2612
vt -79.9606 1.9685
f 24/29/9 22/26/9 25/31/9

usemtl BackColor
f 23/30/10 24/29/10 22/26/10

usemtl Color_000
vt 84.6457 53.1496
v 29.2358 9.851 -21.0922
vt 86.6142 55.1181
f 24/32/1 26/33/1 23/27/1

v 29.2358 9.12261 -21.1283
vt 85.1949 26.4413
f 27/34/1 26/33/1 24/32/1

v 29.2358 9.12261 -21.1073
vt 86.0216 26.4413
f 28/35/1 26/33/1 27/34/1

v 29.2358 9.00361 -21.1073
vt 86.0216 21.7563
f 29/36/1 26/33/1 28/35/1

v 29.2358 8.451 -21.0922
vt 86.6142 0
f 29/36/1 30/37/1 26/33/1

v 29.2358 8.501 -21.1422
vt 84.6457 1.9685
f 31/38/1 30/37/1 29/36/1

f 30/37/1 31/38/1 19/23/1

usemtl BackColor
f 19/23/2 31/38/2 30/37/2

usemtl Color_000
f 18/22/1 19/23/1 31/38/1

usemtl FrontColor
vt -4.54747e-013 0
f 21/20/4 19/39/4 18/18/4

vt -1.9685 0
f 19/39/4 21/20/4 20/40/4

usemtl BackColor
f 18/18/3 19/39/3 21/20/3

f 31/38/2 19/23/2 18/22/2

usemtl M_0128_White
vt 84.6457 1.94109e-031
vn 2.84915e-016 1 -6.27216e-016
vt 45.2756 4.54747e-013
f 31/41/11 21/22/11 18/42/11

v 29.2858 8.501 -21.1422
f 21/22/11 31/41/11 32/38/11

usemtl BackColor
vn -2.84915e-016 -1 6.27216e-016
f 18/42/12 21/22/12 31/41/12

f 21/8/4 18/12/4 22/7/4

usemtl Translucent_Glass_Blue
vn -1 9.49112e-015 -0.000328946
vt 79.9606 53.1496
f 21/22/13 25/43/13 22/27/13

v 29.2858 9.801 -21.1422
f 21/22/13 33/32/13 25/43/13

f 33/32/13 21/22/13 32/38/13

vn 1 -9.49112e-015 0.000328946
f 32/38/14 21/22/14 33/32/14

usemtl BackColor
f 32/38/12 31/41/12 21/22/12

usemtl M_0128_White
vt -9.80069e-030 1.9685
f 31/44/4 33/19/4 32/20/4

vt -9.80069e-030 53.1496
f 33/19/4 31/44/4 24/45/4

usemtl BackColor
f 24/45/3 31/44/3 33/19/3

usemtl Color_000
v 29.2358 9.00361 -21.1283
vt 85.1949 21.7563
f 31/38/1 34/46/1 24/32/1

f 34/46/1 31/38/1 29/36/1

usemtl BackColor
f 24/32/2 34/46/2 31/38/2

usemtl Color_000
f 24/32/1 34/46/1 27/34/1

usemtl BackColor
f 27/34/2 34/46/2 24/32/2

usemtl Color_000
f 34/46/1 28/35/1 27/34/1

f 28/35/1 34/46/1 29/36/1

usemtl BackColor
f 29/36/2 34/46/2 28/35/2

f 29/36/2 31/38/2 34/46/2

f 29/36/2 30/37/2 31/38/2

f 26/33/2 30/37/2 29/36/2

usemtl FrontColor
v 29.2858 8.451 -21.0922
vt 1.9685 0
vt 1.36424e-012 55.1181
vt 1.36424e-012 0
f 35/47/3 26/48/3 30/49/3

v 29.2858 9.851 -21.0922
vt 1.9685 55.1181
f 26/48/3 35/47/3 36/50/3

usemtl BackColor
f 30/49/4 26/48/4 35/47/4

f 36/50/4 35/47/4 26/48/4

usemtl FrontColor
f 32/38/1 35/37/1 36/33/1

f 35/37/1 32/38/1 20/23/1

usemtl M_0128_White
f 20/23/2 32/38/2 35/37/2

usemtl FrontColor
f 21/22/1 20/23/1 32/38/1

usemtl BackColor
f 20/40/3 21/20/3 19/39/3

usemtl M_0128_White
f 32/38/2 20/23/2 21/22/2

usemtl FrontColor
vt -86.6142 1.9685
f 35/51/9 19/25/9 20/26/9

vt -86.6142 1.36424e-012
f 19/25/9 35/51/9 30/52/9

usemtl BackColor
f 20/26/10 19/25/10 35/51/10

f 30/52/10 35/51/10 19/25/10

usemtl M_0128_White
f 36/33/2 35/37/2 32/38/2

usemtl FrontColor
f 32/38/1 36/33/1 33/32/1

usemtl M_0128_White
f 33/32/2 36/33/2 32/38/2

usemtl FrontColor
f 33/32/1 36/33/1 25/43/1

usemtl M_0128_White
f 25/43/2 36/33/2 33/32/2

usemtl FrontColor
f 25/43/1 36/33/1 22/27/1

usemtl M_0128_White
f 22/27/2 36/33/2 25/43/2

usemtl FrontColor
v 29.2862 9.851 -22.1422
vt 45.2756 55.1181
f 22/27/1 36/33/1 37/53/1

usemtl M_0128_White
f 37/53/2 36/33/2 22/27/2

usemtl FrontColor
vt 86.6142 1.36424e-012
vt 86.6142 1.9685
f 37/22/10 26/54/10 36/55/10

v 29.2362 9.851 -22.1422
f 26/54/10 37/22/10 38/23/10

usemtl BackColor
f 38/23/9 37/22/9 26/54/9

usemtl FrontColor
vt -1.9685 55.1181
vt -5.24223e-030 53.1496
vt -5.24223e-030 55.1181
f 37/56/4 23/57/4 38/58/4

f 23/57/4 37/56/4 22/19/4

usemtl BackColor
f 38/58/3 23/57/3 37/56/3

usemtl Color_000
f 17/15/1 23/27/1 38/53/1

f 17/15/1 18/22/1 23/27/1

usemtl BackColor
f 17/15/2 18/22/2 10/10/2

f 23/27/2 18/22/2 17/15/2

f 38/53/2 23/27/2 17/15/2

usemtl Color_000
f 23/27/1 26/33/1 38/53/1

usemtl BackColor
f 23/27/2 26/33/2 24/32/2

f 38/53/2 26/33/2 23/27/2

f 24/32/2 26/33/2 27/34/2

f 27/34/2 26/33/2 28/35/2

f 28/35/2 26/33/2 29/36/2

f 27/34/2 28/35/2 34/46/2

usemtl Color_000
f 17/15/1 38/53/1 7/7/1

usemtl BackColor
f 7/7/2 38/53/2 17/15/2

usemtl Color_000
f 6/6/1 7/7/1 38/53/1

f 6/6/1 4/4/1 7/7/1

usemtl BackColor
f 7/7/2 4/4/2 6/6/2

f 4/4/2 7/7/2 1/1/2

f 1/1/2 7/7/2 3/3/2

f 38/53/2 7/7/2 6/6/2

usemtl Color_000
v 29.2362 9.851 -22.1922
vt 43.3071 55.1181
f 6/6/1 38/53/1 39/59/1

usemtl BackColor
f 39/59/2 38/53/2 6/6/2

usemtl FrontColor
f 37/22/10 39/16/10 38/23/10

v 29.2862 9.851 -22.1922
f 39/16/10 37/22/10 40/10/10

usemtl BackColor
f 40/10/9 37/22/9 39/16/9

usemtl FrontColor
f 13/13/1 37/53/1 40/59/1

f 13/13/1 12/7/1 37/53/1

usemtl M_0128_White
f 37/53/2 12/7/2 13/13/2

usemtl FrontColor
v 29.2862 9.801 -22.2192
vt 42.2441 53.1496
f 41/60/1 37/53/1 12/7/1

f 16/15/1 37/53/1 41/60/1

f 16/15/1 22/27/1 37/53/1

usemtl M_0128_White
f 37/53/2 22/27/2 16/15/2

usemtl BackColor
f 22/19/3 37/56/3 23/57/3

usemtl M_0128_White
f 41/60/2 37/53/2 16/15/2

f 12/7/2 37/53/2 41/60/2

vt -43.3071 4.54747e-013
vt -42.2441 1.9685
f 17/61/9 12/20/9 41/62/9

vt -1.9685 4.54747e-013
f 12/20/9 17/61/9 7/63/9

usemtl BackColor
f 7/63/10 17/61/10 12/20/10

f 41/62/10 12/20/10 17/61/10

usemtl Translucent_Glass_Blue
f 12/7/5 16/15/5 41/60/5

f 12/7/6 16/15/6 11/8/6

f 41/60/6 16/15/6 12/7/6

usemtl M_0128_White
vt -43.3071 1.9685
f 17/61/9 41/62/9 16/64/9

usemtl BackColor
f 16/64/10 41/62/10 17/61/10

usemtl M_0128_White
f 40/59/2 37/53/2 13/13/2

usemtl FrontColor
vt 9.09495e-013 1.9685
f 13/65/10 39/16/10 40/10/10

f 39/16/10 13/65/10 6/9/10

usemtl BackColor
f 6/9/9 13/65/9 39/16/9

usemtl FrontColor
f 13/56/4 5/5/4 6/6/4

f 5/5/4 13/56/4 9/9/4

usemtl BackColor
f 6/6/3 5/5/3 13/56/3

f 9/9/3 13/56/3 5/5/3

usemtl FrontColor
f 9/9/4 13/56/4 14/40/4

usemtl BackColor
f 14/40/3 13/56/3 9/9/3

f 40/10/9 39/16/9 13/65/9

f 38/23/9 39/16/9 37/22/9

f 10/10/2 18/22/2 9/9/2

f 10/10/2 9/9/2 8/8/2

f 36/55/9 26/54/9 37/22/9

f 25/31/10 22/26/10 24/29/10

usemtl Translucent_Glass_Blue
f 22/27/14 25/43/14 21/22/14

f 25/43/14 33/32/14 21/22/14

usemtl M_0128_White
vt -84.6457 1.9685
f 24/29/9 25/31/9 33/66/9

usemtl BackColor
f 33/66/10 25/31/10 24/29/10

f 32/20/3 33/19/3 31/44/3

f 15/20/3 16/19/3 10/18/3

usemtl M_0128_White
f 15/10/2 14/14/2 11/8/2

usemtl BackColor
f 3/3/2 5/5/2 2/2/2

g Mesh2 ventana2_1 DES009 Model

l 2 3

l 4 2

l 1 4

l 3 1

g Mesh3 ventana2_1 DES009 Model

l 11 15

l 11 8

l 12 11

l 12 7

l 41 12

l 16 41

l 16 17

l 16 15

l 15 10

l 8 10

l 7 8

l 17 7

l 17 10

g Mesh4 ventana2_1 DES009 Model

l 5 6

l 9 5

l 14 9

l 14 13

l 20 14

l 21 20

l 21 18

l 22 21

l 22 23

l 37 22

l 40 37

l 13 40

l 13 6

l 6 39

l 40 39

l 39 38

l 37 38

l 37 36

l 36 26

l 36 35

l 35 30

l 35 20

l 20 19

l 18 19

l 18 31

l 23 18

l 24 23

l 31 24

l 32 31

l 32 33

l 21 32

l 33 24

l 33 25

l 25 22

l 38 23

l 38 26

l 26 30

l 30 19

l 19 9

g Mesh5 ventana2_1 DES009 Model

l 29 28

l 34 29

l 27 34

l 28 27

g Mesh6 DES009 Model

usemtl Color_D03
v 28.7267 11.151 -23.8724
vt -111.11 141.732
v 28.7267 7.551 -23.7924
vt -107.96 4.85285e-014
v 28.7267 11.151 -23.7924
vt -107.96 141.732
f 42/67/1 43/68/1 44/69/1

v 28.7267 7.551 -23.8724
vt -111.11 4.85285e-014
f 43/68/1 42/67/1 45/70/1

usemtl BackColor
f 44/69/2 43/68/2 42/67/2

usemtl Color_D03
vt 170.45 -5.66308e-015
vn -0.000328946 -5.24553e-017 1
v 29.2367 11.151 -23.7922
vt 190.529 141.732
vt 170.45 141.732
f 43/71/15 46/72/15 44/73/15

v 29.2358 7.551 -23.7922
vt 190.493 -5.66308e-015
f 47/74/15 46/72/15 43/71/15

v 29.2367 7.551 -23.7922
vt 190.529 -5.66308e-015
f 46/72/15 47/74/15 48/75/15

usemtl BackColor
vn 0.000328946 5.24553e-017 -1
f 48/75/16 47/74/16 46/72/16

f 43/71/16 46/72/16 47/74/16

f 44/73/16 46/72/16 43/71/16

usemtl _Tile_Ceramic_Natural_14
vt 20.3736 16.874
vn 6.26702e-015 1 -1.9162e-016
v 29.2358 7.551 -21.0516
vt 20.7346 14.9302
vt 20.7346 16.8739
f 43/76/17 49/77/17 47/78/17

v 25.5658 7.551 -21.0528
vt 18.1318 14.9311
f 49/77/17 43/76/17 50/79/17

usemtl _7
vt 8.34666 4.32434
vn -6.26702e-015 -1 1.9162e-016
vt 9.37862 4.88706
vt 9.54483 4.32409
f 50/80/18 43/81/18 49/82/18

usemtl _Tile_Ceramic_Natural_14
vt 20.3736 16.9308
f 45/83/17 50/79/17 43/76/17

v 24.6158 7.551 -21.0531
vt 17.458 14.9313
f 45/83/17 51/84/17 50/79/17

v 24.4967 7.551 -23.8738
vt 17.3736 16.9318
f 52/85/17 51/84/17 45/83/17

v 24.4967 7.551 -21.0532
vt 17.3736 14.9313
f 52/85/17 53/86/17 51/84/17

v 24.4967 7.551 -23.7338
vt 17.3735 16.8325
f 54/87/17 53/86/17 52/85/17

v 24.4964 7.551 -22.7838
vt 17.3733 16.1587
f 55/88/17 53/86/17 54/87/17

v 24.4958 7.551 -21.0532
vt 17.3729 14.9313
f 53/86/17 55/88/17 56/89/17

usemtl _7
vt 7.99733 4.32441
vt 7.99751 4.67989
vt 7.99763 4.32441
f 56/90/18 55/91/18 53/92/18

usemtl Color_D03
vt 68.1962 6.45874e-013
vn 1 -4.88243e-014 0.000328946
v 24.4958 11.151 -21.0532
vt 0.0626737 141.732
vt 0.0626737 1.83959e-012
f 55/93/19 57/94/19 56/95/19

v 24.4964 10.551 -22.7838
vt 68.1962 118.11
f 57/94/19 55/93/19 58/96/19

usemtl BackColor
vn -1 4.88243e-014 -0.000328946
f 56/95/20 57/94/20 55/93/20

usemtl Color_D03
vt -8.63898 1.64943e-012
vn 0.000328946 -1.54863e-014 -1
vt -3.91457 1.64943e-012
vt -3.91457 141.732
f 51/97/21 56/98/21 57/99/21

vt -3.9511 8.53622e-013
f 56/98/21 51/97/21 53/100/21

usemtl BackColor
vn -0.000328946 1.54863e-014 1
f 53/100/22 51/97/22 56/98/22

usemtl _7
vt 8.0365 4.32441
vt 7.99763 4.90378
f 51/101/18 53/92/18 52/102/18

vt 7.99761 4.87502
f 52/102/18 53/92/18 54/103/18

f 54/103/18 53/92/18 55/91/18

usemtl _Tile_Ceramic_Natural_14
v 24.3967 7.551 -23.7338
vt 17.3026 16.8325
f 59/104/17 55/88/17 54/87/17

v 24.3964 7.551 -22.7838
vt 17.3024 16.1587
f 55/88/17 59/104/17 60/105/17

usemtl _7
vt 7.96486 4.67989
vt 7.96497 4.87503
f 60/106/18 59/107/18 55/91/18

f 54/103/18 55/91/18 59/107/18

usemtl Color_D03
vt 111.11 1.78274e-012
v 24.4967 10.551 -23.7338
vt 105.598 118.11
vt 105.598 1.78274e-012
f 52/108/19 61/109/19 54/110/19

v 24.4967 11.151 -23.8738
vt 111.11 141.732
f 62/111/19 61/109/19 52/108/19

f 62/111/19 58/96/19 61/109/19

f 57/94/19 58/96/19 62/111/19

usemtl BackColor
f 58/96/20 55/93/20 57/94/20

f 62/111/20 58/96/20 57/94/20

f 61/109/20 58/96/20 62/111/20

f 52/108/20 61/109/20 62/111/20

f 54/110/20 61/109/20 52/108/20

usemtl Color_D03
vt 3.91457 1.94823e-012
vn -0.000328946 3.20955e-015 1
vt 3.91457 141.732
f 52/112/23 42/73/23 62/113/23

vt 170.45 3.56612e-013
f 42/73/23 52/112/23 45/114/23

usemtl BackColor
vn 0.000328946 -3.20955e-015 -1
f 45/114/24 52/112/24 42/73/24

usemtl _7
vt 9.37863 4.90349
f 45/115/18 51/101/18 52/102/18

f 50/80/18 51/101/18 45/115/18

usemtl _Tile_Ceramic_Natural_14
v 25.5658 7.551 -21.0516
vt 18.1318 14.9302
f 50/79/17 51/84/17 63/116/17

usemtl _7
vt 8.34666 4.32409
f 63/117/18 51/101/18 50/80/18

usemtl _Tile_Ceramic_Natural_14
v 24.6158 7.551 -21.0516
vt 17.458 14.9302
f 63/116/17 51/84/17 64/118/17

usemtl _7
vt 8.0365 4.32409
f 64/119/18 51/101/18 63/117/18

f 43/81/18 50/80/18 45/115/18

usemtl BackColor
f 45/70/2 42/67/2 43/68/2

f 62/113/24 42/73/24 52/112/24

f 57/99/22 56/98/22 51/97/22

usemtl Color_D03
v 24.6158 9.651 -21.0531
vt -8.63898 82.6772
f 51/97/21 57/99/21 65/120/21

usemtl BackColor
f 65/120/22 57/99/22 51/97/22

usemtl Color_D03
v 29.2358 11.151 -21.0516
vt -190.529 141.732
f 65/120/21 57/99/21 66/121/21

usemtl BackColor
f 66/121/22 57/99/22 65/120/22

usemtl Color_D03
v 25.5658 9.651 -21.0528
vt -46.0406 82.6772
f 66/121/21 67/122/21 65/120/21

vt -46.0406 1.30837e-012
f 66/121/21 50/123/21 67/122/21

vt -190.529 5.7814e-014
f 50/123/21 66/121/21 49/124/21

usemtl BackColor
f 49/124/22 66/121/22 50/123/22

usemtl Color_D03
vt -0.0626737 141.732
vn -1 1.13016e-014 -0.000328946
v 29.2358 9.851 -21.0922
vt -1.6608 90.5512
vt -0.0626737 2.21012e-012
f 66/125/25 68/126/25 49/127/25

f 68/126/25 66/125/25 46/69/25

usemtl BackColor
vn 1 -1.13016e-014 0.000328946
f 49/127/26 68/126/26 66/125/26

usemtl Color_D03
v 29.2358 7.551 -21.0922
vt -1.6608 2.21012e-012
f 68/126/25 69/128/25 49/127/25

v 29.2358 8.451 -21.0922
vt -1.6608 35.4331
f 69/128/25 68/126/25 70/129/25

usemtl BackColor
f 49/127/26 69/128/26 68/126/26

usemtl _Tile_Ceramic_Natural_14
vt 20.7346 14.959
f 47/78/17 49/77/17 69/130/17

usemtl _7
vt 9.54483 4.88702
f 47/131/18 49/82/18 43/81/18

vt 9.54483 4.33243
f 69/132/18 49/82/18 47/131/18

usemtl BackColor
f 70/129/26 68/126/26 69/128/26

usemtl Color_D03
v 29.2365 8.451 -23.2922
vt -88.275 35.4331
f 69/128/25 70/129/25 71/133/25

usemtl BackColor
f 71/133/26 70/129/26 69/128/26

usemtl Color_D03
v 29.2365 7.551 -23.2922
vt -88.275 2.15327e-012
f 69/128/25 71/133/25 72/134/25

usemtl BackColor
f 72/134/26 71/133/26 69/128/26

usemtl Color_D03
f 71/133/25 46/69/25 72/134/25

v 29.2365 9.851 -23.2922
vt -88.275 90.5512
f 73/135/25 46/69/25 71/133/25

f 68/126/25 46/69/25 73/135/25

usemtl BackColor
f 46/69/26 66/125/26 68/126/26

f 73/135/26 46/69/26 68/126/26

f 71/133/26 46/69/26 73/135/26

f 72/134/26 46/69/26 71/133/26

usemtl Color_D03
vt -107.96 2.15327e-012
f 72/134/25 46/69/25 48/136/25

usemtl BackColor
f 48/136/26 46/69/26 72/134/26

f 67/122/22 50/123/22 66/121/22

f 65/120/22 67/122/22 66/121/22

g Mesh7 DES009 Model

l 43 45

l 43 44

l 47 43

l 48 46

l 72 48

l 69 72

l 69 49

l 47 69

l 49 66

l 49 50

l 50 67

l 50 63

l 63 64

l 51 64

l 51 65

l 51 53

l 56 57

l 55 56

l 55 58

l 60 55

l 60 59

l 59 54

l 54 61

l 52 54

l 52 62

l 45 52

l 45 42

l 44 42

l 46 44

l 46 66

l 66 57

l 62 57

l 42 62

l 58 61

l 67 65

g Mesh8 DES009 Model

l 73 68

l 71 73

l 70 71

l 70 68

