# Alias OBJ Model File
# Exported from SketchUp, (c) 2000-2012 Trimble Navigation Limited
# File units = meters

mtllib DES037.mtl

g Mesh1 ventana1_1 DES037 Model

usemtl Color_000
v 1.54097 9.901 -38.9013
vt 84.6457 0
vn 4.80478e-017 1 -2.83193e-016
v 1.49097 9.901 -36.8013
vt 1.9685 1.9685
v 1.54097 9.901 -36.8013
vt 1.9685 9.09495e-013
f 1/1/1 2/2/1 3/3/1

v 1.49097 9.901 -38.9013
vt 84.6457 1.9685
f 2/2/1 1/1/1 4/4/1

vn -4.80478e-017 -1 2.83193e-016
f 3/3/2 2/2/2 1/1/2

vt 1.9685 57.0866
vn 3.34533e-012 -2.83193e-016 -1
v 1.54097 10.501 -36.8013
vt 9.09495e-013 80.7087
vt 9.09495e-013 57.0866
f 2/5/3 5/6/3 3/7/3

v 1.49097 10.501 -36.8013
vt 1.9685 80.7087
f 5/6/3 2/5/3 6/8/3

vn -3.34533e-012 2.83193e-016 1
f 3/7/4 5/6/4 2/5/4

v 1.54097 10.551 -36.7513
vt 0 82.6772
vn 1 -4.80478e-017 3.34533e-012
f 7/9/5 3/5/5 5/8/5

v 1.54097 9.851 -36.7513
vt 0 55.1181
f 8/10/5 3/5/5 7/9/5

v 1.54097 9.851 -38.9513
vt 86.6142 55.1181
f 8/10/5 9/11/5 3/5/5

v 1.54097 9.851 -37.9013
vt 45.2756 55.1181
f 9/11/5 8/10/5 10/12/5

vn -1 4.80478e-017 -3.34533e-012
f 10/12/6 8/10/6 9/11/6

usemtl Color_F17
vt 45.2756 9.09495e-013
v 1.49097 9.851 -36.7513
vt 0 1.9685
vt 0 0
f 10/13/1 11/14/1 8/15/1

v 1.49097 9.851 -37.9013
vt 45.2756 1.9685
f 11/14/1 10/13/1 12/16/1

usemtl Color_000
f 8/15/2 11/14/2 10/13/2

vt -1.9685 55.1181
v 1.54097 9.011 -36.7513
vt 0 22.0472
f 11/17/4 13/18/4 8/10/4

v 1.49097 9.011 -36.7513
vt -1.9685 22.0472
f 13/18/4 11/17/4 14/19/4

f 8/10/3 13/18/3 11/17/3

v 1.54097 9.14284 -36.7707
vt 0.762775 27.238
f 13/18/5 15/20/5 8/10/5

v 1.54097 9.00784 -36.7707
vt 0.762775 21.923
f 13/18/5 16/21/5 15/20/5

v 1.54097 8.501 -36.8013
f 13/18/5 17/2/5 16/21/5

v 1.54097 8.451 -36.7513
f 18/15/5 17/2/5 13/18/5

v 1.54097 8.501 -37.9013
f 18/15/5 19/16/5 17/2/5

v 1.54097 8.451 -37.9013
vt 45.2756 0
f 19/16/5 18/15/5 20/22/5

f 20/22/6 18/15/6 19/16/6

usemtl Color_F17
v 1.49097 8.451 -37.9013
vt -45.2756 1.9685
vt -45.2756 9.09495e-013
f 18/15/2 21/23/2 20/24/2

v 1.49097 8.451 -36.7513
f 21/23/2 18/15/2 22/14/2

usemtl Color_000
f 22/14/1 18/15/1 21/23/1

vt -1.9685 0
f 18/15/4 14/19/4 22/25/4

f 14/19/4 18/15/4 13/18/4

f 13/18/3 18/15/3 14/19/3

f 13/18/6 17/2/6 18/15/6

f 16/21/6 17/2/6 13/18/6

v 1.54097 9.00784 -36.7897
vt 1.51081 21.923
f 16/21/5 17/2/5 23/26/5

f 23/26/6 17/2/6 16/21/6

v 1.54097 9.801 -36.8013
vt 1.9685 53.1496
f 24/27/5 23/26/5 17/2/5

v 1.54097 9.14284 -36.7897
vt 1.51081 27.238
f 23/26/5 24/27/5 25/28/5

f 17/2/6 23/26/6 24/27/6

f 25/28/6 24/27/6 23/26/6

f 25/28/5 24/27/5 15/20/5

f 15/20/6 24/27/6 25/28/6

f 8/10/5 15/20/5 24/27/5

f 8/10/6 15/20/6 13/18/6

f 24/27/6 15/20/6 8/10/6

f 8/10/5 24/27/5 10/12/5

f 10/12/6 24/27/6 8/10/6

v 1.54097 9.801 -37.8513
vt 43.3071 53.1496
f 26/29/5 10/12/5 24/27/5

v 1.54097 9.801 -37.9013
vt 45.2756 53.1496
f 26/29/5 27/30/5 10/12/5

v 1.54097 8.501 -37.8513
vt 43.3071 1.9685
f 28/31/5 27/30/5 26/29/5

f 27/30/5 28/31/5 19/16/5

f 19/16/6 28/31/6 27/30/6

f 17/2/5 19/16/5 28/31/5

f 17/2/6 19/16/6 18/15/6

f 28/31/6 19/16/6 17/2/6

vt 43.3071 0
v 1.49097 8.501 -36.8013
f 28/32/1 29/2/1 17/3/1

v 1.49097 8.501 -37.8513
f 29/2/1 28/32/1 30/31/1

f 17/3/2 29/2/2 28/32/2

vt 9.09495e-013 53.1496
vt 9.09495e-013 1.9685
f 29/2/3 24/33/3 17/34/3

v 1.49097 9.801 -36.8013
f 24/33/3 29/2/3 31/27/3

f 17/34/4 24/33/4 29/2/4

f 31/27/4 29/2/4 24/33/4

usemtl Color_F17
v 1.49097 9.00784 -36.7897
f 31/27/5 32/26/5 29/2/5

v 1.49097 9.14284 -36.7897
f 32/26/5 31/27/5 33/28/5

usemtl Color_000
f 29/2/6 32/26/6 31/27/6

usemtl Color_F17
v 1.49097 9.00784 -36.7707
f 34/21/5 29/2/5 32/26/5

vt -2.27923e-031 22.0472
f 14/35/5 29/2/5 34/21/5

vt -2.27923e-031 0
f 22/36/5 29/2/5 14/35/5

v 1.49097 8.501 -37.9013
f 22/36/5 35/16/5 29/2/5

f 35/16/5 22/36/5 21/22/5

usemtl Color_000
f 21/22/6 22/36/6 35/16/6

f 29/2/6 35/16/6 22/36/6

usemtl Color_F17
f 29/2/5 35/16/5 30/31/5

usemtl Color_000
f 30/31/6 35/16/6 29/2/6

usemtl Color_F17
v 1.49097 9.801 -37.9013
f 36/30/5 30/31/5 35/16/5

v 1.49097 9.801 -37.8513
f 30/31/5 36/30/5 37/29/5

usemtl Color_000
f 35/16/6 30/31/6 36/30/6

f 37/29/6 36/30/6 30/31/6

usemtl Color_F17
f 37/29/5 36/30/5 12/12/5

usemtl Color_000
f 12/12/6 36/30/6 37/29/6

usemtl Color_F17
vt -9.09495e-013 53.1496
vt -1.9685 53.1496
f 27/37/4 12/17/4 36/38/4

vt -9.09495e-013 55.1181
f 12/17/4 27/37/4 10/39/4

usemtl Color_000
f 10/39/3 27/37/3 12/17/3

f 10/12/6 27/30/6 26/29/6

v 1.54097 9.801 -38.9013
vt 84.6457 53.1496
f 10/12/5 27/30/5 38/40/5

f 38/40/6 27/30/6 10/12/6

usemtl Color_F17
v 1.49097 9.801 -38.9013
vt -84.6457 1.9685
vt -84.6457 0
f 27/24/2 39/41/2 38/42/2

f 39/41/2 27/24/2 36/23/2

usemtl Color_000
f 36/23/1 27/24/1 39/41/1

f 36/38/3 12/17/3 27/37/3

f 12/12/5 36/30/5 39/40/5

f 39/40/6 36/30/6 12/12/6

usemtl Translucent_Glass_Blue
v 1.49097 8.501 -38.9013
f 36/30/5 40/4/5 39/40/5

f 40/4/5 36/30/5 35/16/5

f 35/16/6 36/30/6 40/4/6

usemtl Color_000
f 27/33/3 35/2/3 36/27/3

f 35/2/3 27/33/3 19/34/3

f 19/34/4 27/33/4 35/2/4

f 36/27/4 35/2/4 27/33/4

usemtl Color_F17
vt 1.9685 0
f 19/34/3 21/43/3 35/2/3

vt 9.09495e-013 0
f 21/43/3 19/34/3 20/44/3

usemtl Color_000
f 20/44/4 19/34/4 21/43/4

v 1.54097 8.451 -38.9513
vt 86.6142 5.68434e-014
f 41/45/5 19/16/5 20/22/5

v 1.54097 8.501 -38.9013
f 19/16/5 41/45/5 42/4/5

f 20/22/6 19/16/6 41/45/6

f 42/4/6 41/45/6 19/16/6

v 1.54097 9.00784 -38.9377
vt 86.0777 21.923
f 42/4/5 41/45/5 43/46/5

f 43/46/6 41/45/6 42/4/6

f 43/46/5 41/45/5 9/11/5

f 9/11/6 41/45/6 43/46/6

usemtl Color_F17
v 1.49097 8.451 -38.9513
vt 1.9685 5.68434e-014
vt -1.00286e-029 55.1181
vt -1.00286e-029 5.68434e-014
f 44/47/3 9/48/3 41/49/3

v 1.49097 9.851 -38.9513
vt 1.9685 55.1181
f 9/48/3 44/47/3 45/50/3

usemtl Color_000
f 41/49/4 9/48/4 44/47/4

f 45/50/4 44/47/4 9/48/4

v 1.49097 9.00784 -38.9377
f 46/46/5 44/45/5 45/11/5

f 40/4/5 44/45/5 46/46/5

f 35/16/5 44/45/5 40/4/5

f 44/45/5 35/16/5 21/22/5

f 21/22/6 35/16/6 44/45/6

f 35/2/4 21/43/4 19/34/4

vn 4.80478e-017 1 -3.73432e-016
f 42/1/7 35/16/7 19/13/7

f 35/16/7 42/1/7 40/4/7

vn -4.80478e-017 -1 3.73432e-016
f 19/13/8 35/16/8 42/1/8

f 40/4/8 42/1/8 35/16/8

vt 9.80069e-030 1.9685
vt -1.9685 1.9685
f 42/51/4 39/38/4 40/52/4

vt 9.80069e-030 53.1496
f 39/38/4 42/51/4 38/53/4

f 38/53/3 42/51/3 39/38/3

v 1.54097 9.00784 -38.9187
vt 85.3297 21.923
f 42/4/5 47/54/5 38/40/5

f 47/54/5 42/4/5 43/46/5

f 38/40/6 47/54/6 42/4/6

v 1.54097 9.14284 -38.9187
vt 85.3297 27.238
f 38/40/5 47/54/5 48/55/5

f 48/55/6 47/54/6 38/40/6

usemtl Color_F17
v 1.49097 9.00784 -38.9187
vt 1.9685 21.923
vt -9.87989e-030 27.238
vt -9.87989e-030 21.923
f 49/56/3 48/57/3 47/58/3

v 1.49097 9.14284 -38.9187
vt 1.9685 27.238
f 48/57/3 49/56/3 50/59/3

usemtl Color_000
f 47/58/4 48/57/4 49/56/4

v 1.54097 9.14284 -38.9377
vt 86.0777 27.238
f 47/54/5 51/60/5 48/55/5

f 51/60/5 47/54/5 43/46/5

f 43/46/6 47/54/6 51/60/6

f 43/46/6 42/4/6 47/54/6

usemtl Color_F17
vt 86.0777 0
vt 85.3297 1.9685
vt 85.3297 0
f 43/61/1 49/62/1 47/63/1

vt 86.0777 1.9685
f 49/62/1 43/61/1 46/64/1

usemtl Color_000
f 47/63/2 49/62/2 43/61/2

f 46/64/2 43/61/2 49/62/2

vt -9.9665e-030 27.238
vt -9.9665e-030 21.923
f 46/56/3 51/65/3 43/66/3

v 1.49097 9.14284 -38.9377
f 51/65/3 46/56/3 52/59/3

f 43/66/4 51/65/4 46/56/4

f 43/46/5 9/11/5 51/60/5

f 51/60/6 9/11/6 43/46/6

f 51/60/5 9/11/5 48/55/5

f 48/55/6 9/11/6 51/60/6

f 48/55/5 9/11/5 38/40/5

f 38/40/6 9/11/6 48/55/6

f 38/40/5 9/11/5 10/12/5

f 10/12/6 9/11/6 38/40/6

usemtl Color_F17
vt 86.6142 0
f 9/67/1 12/16/1 10/13/1

vt 86.6142 1.9685
f 12/16/1 9/67/1 45/68/1

usemtl Color_000
f 10/13/2 12/16/2 9/67/2

f 12/16/2 10/13/2 11/14/2

usemtl Color_F17
vt -2.27923e-031 55.1181
f 45/11/5 11/69/5 12/12/5

f 11/69/5 45/11/5 2/5/5

usemtl Color_000
f 12/12/6 11/69/6 45/11/6

usemtl Color_F17
f 11/69/5 31/27/5 12/12/5

v 1.49097 9.14284 -36.7707
f 11/69/5 53/20/5 31/27/5

f 14/35/5 53/20/5 11/69/5

f 14/35/5 34/21/5 53/20/5

usemtl Color_000
f 34/21/6 29/2/6 14/35/6

f 32/26/6 29/2/6 34/21/6

f 33/28/5 34/21/5 32/26/5

f 34/21/5 33/28/5 53/20/5

f 32/26/6 34/21/6 33/28/6

usemtl Color_F17
vt 0.762775 1.9685
vt 1.51081 0
vt 1.51081 1.9685
f 34/70/1 23/71/1 32/72/1

vt 0.762775 0
f 23/71/1 34/70/1 16/73/1

usemtl Color_000
f 16/73/2 34/70/2 23/71/2

usemtl Color_F17
vt -8.83178e-032 27.238
vt -8.83178e-032 21.923
f 34/56/3 15/74/3 16/75/3

f 15/74/3 34/56/3 53/59/3

usemtl Color_000
f 16/75/4 15/74/4 34/56/4

f 16/21/5 25/28/5 15/20/5

f 25/28/5 16/21/5 23/26/5

f 23/26/6 16/21/6 25/28/6

f 15/20/6 25/28/6 16/21/6

f 25/71/1 53/70/1 15/73/1

f 53/70/1 25/71/1 33/72/1

f 15/73/2 53/70/2 25/71/2

f 53/59/4 34/56/4 15/74/4

f 53/20/6 33/28/6 34/21/6

f 33/72/2 25/71/2 53/70/2

usemtl Color_F17
vt -1.9685 27.238
vt 1.74929e-031 21.923
vt 1.74929e-031 27.238
f 33/76/4 23/77/4 25/78/4

vt -1.9685 21.923
f 23/77/4 33/76/4 32/79/4

usemtl Color_000
f 25/78/3 23/77/3 33/76/3

f 32/79/3 33/76/3 23/77/3

f 33/28/6 31/27/6 32/26/6

usemtl Color_F17
f 33/28/5 31/27/5 53/20/5

usemtl Color_000
f 53/20/6 31/27/6 33/28/6

f 31/27/6 53/20/6 11/69/6

f 11/69/6 53/20/6 14/35/6

f 53/20/6 34/21/6 14/35/6

f 14/19/3 11/17/3 13/18/3

f 12/12/6 31/27/6 11/69/6

usemtl Color_F17
f 37/29/5 12/12/5 31/27/5

usemtl Color_000
f 31/27/6 12/12/6 37/29/6

usemtl Translucent_Glass_Blue
f 29/2/5 37/29/5 31/27/5

f 37/29/5 29/2/5 30/31/5

f 30/31/6 29/2/6 37/29/6

usemtl Color_000
f 30/31/2 28/32/2 29/2/2

vt 5.01431e-030 1.9685
f 28/80/4 37/38/4 30/52/4

vt 5.01431e-030 53.1496
f 37/38/4 28/80/4 26/81/4

f 26/81/3 28/80/3 37/38/3

f 26/29/6 27/30/6 28/31/6

f 30/52/3 37/38/3 28/80/3

usemtl Color_F17
vt -1.9685 9.09495e-013
vt -43.3071 1.9685
vt -43.3071 0
f 24/82/2 37/83/2 26/84/2

f 37/83/2 24/82/2 31/52/2

usemtl Color_000
f 31/52/1 24/82/1 37/83/1

f 26/84/1 37/83/1 24/82/1

f 24/27/6 10/12/6 26/29/6

usemtl Translucent_Glass_Blue
f 31/27/6 37/29/6 29/2/6

usemtl Color_000
f 32/72/2 23/71/2 34/70/2

f 15/20/6 16/21/6 13/18/6

f 14/35/6 29/2/6 22/36/6

f 22/25/3 14/19/3 18/15/3

f 2/5/6 45/11/6 11/69/6

usemtl Color_F17
vt 84.6457 57.0866
f 45/11/5 4/85/5 2/5/5

v 1.49097 10.551 -38.9513
vt 86.6142 82.6772
f 4/85/5 45/11/5 54/86/5

usemtl Color_000
f 2/5/6 4/85/6 45/11/6

f 4/4/2 1/1/2 2/2/2

vt 9.80069e-030 57.0866
v 1.49097 10.501 -38.9013
vt -1.9685 80.7087
vt -1.9685 57.0866
f 1/87/4 55/88/4 4/89/4

v 1.54097 10.501 -38.9013
vt 9.80069e-030 80.7087
f 55/88/4 1/87/4 56/90/4

f 56/90/3 1/87/3 55/88/3

v 1.54097 10.551 -38.9513
vt 84.6457 80.7087
f 1/85/5 57/86/5 56/91/5

f 1/85/5 9/11/5 57/86/5

f 9/11/5 1/85/5 3/5/5

f 3/5/6 1/85/6 9/11/6

f 57/86/6 9/11/6 1/85/6

usemtl Color_F17
vt -1.00286e-029 82.6772
f 45/50/3 57/92/3 9/48/3

vt 1.9685 82.6772
f 57/92/3 45/50/3 54/93/3

usemtl Color_000
f 9/48/4 57/92/4 45/50/4

f 54/93/4 45/50/4 57/92/4

f 54/86/6 45/11/6 4/85/6

usemtl Color_F17
f 4/85/5 54/86/5 55/91/5

usemtl Color_000
f 55/91/6 54/86/6 4/85/6

usemtl Color_F17
f 55/91/5 54/86/5 6/8/5

usemtl Color_000
f 6/8/6 54/86/6 55/91/6

usemtl Color_F17
v 1.49097 10.551 -36.7513
vt -2.27923e-031 82.6772
f 58/94/5 6/8/5 54/86/5

f 58/94/5 2/5/5 6/8/5

f 11/69/5 2/5/5 58/94/5

usemtl Color_000
f 58/94/6 2/5/6 11/69/6

f 6/8/6 2/5/6 58/94/6

f 6/8/4 2/5/4 5/6/4

usemtl Translucent_Glass_Blue
vn 1 -6.05785e-016 3.35047e-012
f 4/85/9 6/8/9 2/5/9

f 6/8/9 4/85/9 55/91/9

vn -1 6.05785e-016 -3.35047e-012
f 2/5/10 6/8/10 4/85/10

f 55/91/10 4/85/10 6/8/10

usemtl Color_000
f 4/89/3 55/88/3 1/87/3

usemtl Color_F17
f 55/41/2 5/82/2 6/52/2

f 5/82/2 55/41/2 56/42/2

usemtl Color_000
f 6/52/1 5/82/1 55/41/1

f 56/42/1 55/41/1 5/82/1

f 56/91/5 57/86/5 5/8/5

f 56/91/6 57/86/6 1/85/6

f 5/8/6 57/86/6 56/91/6

f 7/9/5 5/8/5 57/86/5

f 5/8/6 3/5/6 7/9/6

f 7/9/6 3/5/6 8/10/6

f 3/5/6 9/11/6 8/10/6

vt -1.9685 82.6772
f 58/95/4 8/10/4 7/9/4

f 8/10/4 58/95/4 11/17/4

f 7/9/3 8/10/3 58/95/3

f 11/17/3 58/95/3 8/10/3

f 57/67/1 58/14/1 7/15/1

f 58/14/1 57/67/1 54/68/1

f 7/15/2 58/14/2 57/67/2

f 54/68/2 57/67/2 58/14/2

f 54/86/6 6/8/6 58/94/6

f 57/86/6 5/8/6 7/9/6

f 45/68/2 9/67/2 12/16/2

f 39/40/5 45/11/5 12/12/5

f 50/55/5 45/11/5 39/40/5

f 52/60/5 45/11/5 50/55/5

f 46/46/5 45/11/5 52/60/5

f 45/11/6 44/45/6 46/46/6

f 46/46/6 44/45/6 40/4/6

f 40/4/6 44/45/6 35/16/6

f 49/54/5 40/4/5 46/46/5

f 40/4/5 49/54/5 39/40/5

f 39/40/6 49/54/6 40/4/6

f 39/40/5 49/54/5 50/55/5

f 50/55/6 49/54/6 39/40/6

f 49/54/5 52/60/5 50/55/5

f 52/60/5 49/54/5 46/46/5

f 46/46/6 49/54/6 52/60/6

f 46/46/6 40/4/6 49/54/6

f 50/55/6 52/60/6 49/54/6

f 50/62/1 51/61/1 52/64/1

f 51/61/1 50/62/1 48/63/1

f 48/63/2 50/62/2 51/61/2

f 50/59/4 49/56/4 48/57/4

f 52/64/2 51/61/2 50/62/2

f 52/59/4 46/56/4 51/65/4

f 52/60/6 45/11/6 46/46/6

f 50/55/6 45/11/6 52/60/6

f 39/40/6 45/11/6 50/55/6

f 12/12/6 45/11/6 39/40/6

f 48/55/6 51/60/6 47/54/6

usemtl Translucent_Glass_Blue
f 39/40/6 40/4/6 36/30/6

usemtl Color_000
f 40/52/3 39/38/3 42/51/3

f 38/42/1 39/41/1 27/24/1

usemtl Color_F17
vt -86.6142 1.9685
f 44/96/2 20/24/2 21/23/2

vt -86.6142 0
f 20/24/2 44/96/2 41/97/2

usemtl Color_000
f 21/23/1 20/24/1 44/96/1

f 20/24/1 21/23/1 18/15/1

f 41/97/1 44/96/1 20/24/1

g Mesh2 ventana1_1 DES037 Model

l 2 4

l 2 3

l 6 2

l 55 6

l 4 55

l 4 1

l 3 1

l 5 3

l 6 5

l 56 5

l 55 56

l 1 56

g Mesh3 ventana1_1 DES037 Model

l 44 41

l 44 45

l 21 44

l 35 21

l 35 19

l 36 35

l 39 36

l 39 38

l 40 39

l 40 42

l 35 40

l 42 38

l 19 42

l 19 20

l 27 19

l 38 27

l 10 27

l 10 8

l 12 10

l 12 11

l 45 12

l 45 54

l 45 9

l 41 9

l 20 41

l 21 20

l 22 21

l 14 22

l 11 14

l 58 11

l 54 58

l 54 57

l 9 57

l 9 10

l 57 7

l 7 8

l 58 7

l 11 8

l 8 13

l 14 13

l 13 18

l 22 18

l 18 20

l 12 36

l 36 27

g Mesh4 ventana1_1 DES037 Model

l 51 43

l 48 51

l 50 48

l 50 52

l 49 50

l 46 49

l 52 46

l 52 51

l 46 43

l 43 47

l 47 48

l 49 47

g Mesh5 ventana1_1 DES037 Model

l 53 33

l 34 53

l 32 34

l 33 32

l 33 25

l 15 25

l 16 15

l 23 16

l 25 23

l 32 23

l 34 16

l 53 15

g Mesh6 ventana1_1 DES037 Model

l 37 30

l 37 31

l 37 26

l 26 28

l 26 24

l 24 17

l 31 24

l 31 29

l 29 30

l 29 17

l 17 28

l 30 28

g Mesh7 DES037 Model

usemtl _Color_C03_3
v 2.8314 11.151 -36.5335
vt -37.0152 141.732
vn 0.608214 -6.03987e-016 -0.793773
v 2.93401 7.551 -36.4549
vt -42.1048 2.50602e-013
v 2.8314 7.551 -36.5335
vt -37.0152 2.50602e-013
f 59/98/11 60/99/11 61/100/11

v 2.93401 11.151 -36.4549
vt -42.1048 141.732
f 60/99/11 59/98/11 62/101/11

usemtl BackColor
vn -0.608214 6.03987e-016 0.793773
f 61/100/12 60/99/12 59/98/12

usemtl _Tile_Ceramic_Natural_14
v 4.33216 7.551 -39.1422
vt 3.07245 27.7604
vn -6.4003e-015 1 3.12513e-015
vt 2.00808 25.9103
vt 2.08086 25.8545
f 63/102/13 61/103/13 60/104/13

v 2.80711 7.551 -36.537
vt 1.99086 25.9127
f 63/102/13 64/105/13 61/103/13

v 2.70159 7.551 -36.5501
vt 1.91602 25.9221
f 63/102/13 65/106/13 64/105/13

v 2.58246 7.551 -36.4999
vt 1.83153 25.8865
f 63/102/13 66/107/13 65/106/13

v 2.50434 7.551 -36.3969
vt 1.77613 25.8134
f 63/102/13 67/108/13 66/107/13

v 1.54176 7.551 -39.1422
vt 1.09344 27.7604
f 68/109/13 67/108/13 63/102/13

v 2.49605 7.551 -36.3313
vt 1.77025 25.7669
f 68/109/13 69/110/13 67/108/13

v 1.54169 7.551 -38.9513
vt 1.0934 27.6251
f 70/111/13 69/110/13 68/109/13

v 1.54097 7.551 -36.7513
vt 1.09289 26.0648
f 71/112/13 69/110/13 70/111/13

v 1.54083 7.551 -36.3313
vt 1.09279 25.7669
f 69/110/13 71/112/13 72/113/13

usemtl BackColor
vt 1.96306 0.0550402
vn 6.4003e-015 -1 -3.12513e-015
vt 1.9685 16.5905
vt 39.57 0.0550402
f 72/114/14 71/115/14 69/116/14

usemtl Color_D03
vt 16.5911 3.75894e-014
vn 1 -1.91485e-014 0.000328946
v 1.54083 11.151 -36.3313
vt 0.055686 141.732
vt 0.055686 6.62867e-013
f 71/117/15 73/118/15 72/119/15

vt 16.5911 35.4331
f 73/118/15 71/117/15 18/120/15

usemtl BackColor
vn -1 1.91485e-014 -0.000328946
f 72/119/16 73/118/16 71/117/16

usemtl Color_D03
v 2.49601 11.151 -36.331
vt -39.5684 141.732
vn 0.000328946 -2.24627e-014 -1
vt -1.96305 6.26528e-013
vt -1.96305 141.732
f 74/121/17 72/122/17 73/123/17

v 2.49601 7.551 -36.331
vt -39.5684 2.28625e-013
f 72/122/17 74/121/17 75/124/17

usemtl BackColor
vn -0.000328946 2.24627e-014 1
f 75/124/18 74/121/18 72/122/18

usemtl _Color_C03_3
vt -5.00698 141.732
vn -0.992097 1.90976e-014 -0.12547
vt -5.01945 1.20434e-012
vt -5.00698 9.76963e-013
f 74/125/19 69/126/19 75/127/19

v 2.50434 11.151 -36.3969
vt -7.62206 141.732
f 69/126/19 74/125/19 76/128/19

usemtl BackColor
vn 0.992097 -1.90976e-014 0.12547
f 75/127/20 69/126/20 74/125/20

f 76/128/20 74/125/20 69/126/20

usemtl _Color_C03_3
vt -7.62206 9.76963e-013
f 69/126/19 76/128/19 67/129/19

usemtl BackColor
f 67/129/20 76/128/20 69/126/20

usemtl _Color_C03_3
v 2.58246 11.151 -36.4999
vt -31.2991 141.732
vn -0.79678 -1.00895e-016 -0.60427
vt -26.2094 2.24327e-013
vt -26.2094 141.732
f 77/130/21 67/131/21 76/132/21

vt -31.2991 2.24327e-013
f 67/131/21 77/130/21 66/133/21

usemtl BackColor
vn 0.79678 1.00895e-016 0.60427
f 76/132/22 67/131/22 77/130/22

f 66/133/22 77/130/22 67/131/22

usemtl _Color_C03_3
vt -42.1976 141.732
vn -0.388404 -3.89364e-016 -0.921489
vt -47.2872 2.23276e-013
vt -42.1976 2.23276e-013
f 77/134/23 65/135/23 66/136/23

v 2.70159 11.151 -36.5501
vt -47.2872 141.732
f 65/135/23 77/134/23 78/137/23

usemtl BackColor
vn 0.388404 3.89364e-016 0.921489
f 66/136/24 65/135/24 77/134/24

vt 47.6621 8.66922
vt 42.972 6.69239
vt 111.858 110.719
f 65/138/14 66/139/14 63/140/14

vt 39.8965 2.63708
f 66/139/14 67/141/14 63/140/14

vt 1.99947 110.719
f 63/140/14 67/141/14 68/142/14

f 67/141/14 69/116/14 68/142/14

vt 1.997 103.205
f 68/142/14 69/116/14 70/143/14

f 70/143/14 69/116/14 71/115/14

usemtl Color_D03
vt 103.205 6.06024e-013
f 70/144/15 18/120/15 71/117/15

v 1.54169 8.451 -38.9513
vt 103.205 35.4331
f 18/120/15 70/144/15 79/145/15

usemtl BackColor
f 71/117/16 18/120/16 70/144/16

f 18/120/16 71/117/16 73/118/16

usemtl Color_D03
v 1.54097 10.551 -36.7513
vt 16.5911 118.11
f 73/118/15 18/120/15 80/146/15

usemtl BackColor
f 80/146/16 18/120/16 73/118/16

usemtl Color_D03
v 1.54176 11.151 -39.1431
vt 110.756 141.732
f 73/118/15 80/146/15 81/147/15

usemtl BackColor
f 81/147/16 80/146/16 73/118/16

usemtl Color_D03
v 1.54169 10.551 -38.9513
vt 103.205 118.11
f 81/147/15 80/146/15 82/148/15

usemtl BackColor
f 82/148/16 80/146/16 81/147/16

usemtl Color_D03
vt 110.719 6.06024e-013
f 81/147/15 82/148/15 68/149/15

usemtl BackColor
f 68/149/16 82/148/16 81/147/16

usemtl Color_D03
f 79/145/15 68/149/15 82/148/15

f 79/145/15 70/144/15 68/149/15

usemtl BackColor
f 79/145/16 70/144/16 18/120/16

f 68/149/16 70/144/16 79/145/16

f 82/148/16 68/149/16 79/145/16

usemtl Color_D03
v 1.54176 7.551 -39.1431
vt 110.756 6.06024e-013
f 81/147/15 68/149/15 83/150/15

usemtl BackColor
f 83/150/16 68/149/16 81/147/16

usemtl Color_D03
vt 111.821 1.88209e-012
vn -0.000328946 7.24175e-015 1
vt 1.96305 141.732
vt 1.96305 1.3705e-012
f 63/151/25 81/152/25 83/153/25

v 5.79083 7.551 -39.1417
vt 169.249 2.16631e-012
f 81/152/25 63/151/25 84/154/25

usemtl BackColor
vn 0.000328946 -7.24175e-015 -1
f 83/153/26 81/152/26 63/151/26

f 84/154/26 63/151/26 81/152/26

usemtl _Tile_Ceramic_Natural_14
v 5.79083 7.551 -36.3299
vt 4.10697 25.7659
vt 4.10697 27.7601
f 63/102/13 85/155/13 84/156/13

v 4.33216 7.551 -36.3313
vt 3.07245 25.7669
f 86/157/13 85/155/13 63/102/13

v 4.33216 7.551 -36.3304
vt 3.07245 25.7663
f 85/155/13 86/157/13 87/158/13

usemtl BackColor
vt 111.858 0.0188907
vt 111.858 0.0550402
vt 169.286 1.05506e-027
f 87/159/14 86/160/14 85/161/14

f 63/140/14 85/161/14 86/160/14

vt 169.286 110.7
f 84/162/14 85/161/14 63/140/14

usemtl _Tile_Ceramic_Natural_14
v 2.98363 7.551 -36.3355
vt 2.11605 25.7699
f 63/102/13 88/163/13 86/157/13

f 63/102/13 60/104/13 88/163/13

usemtl BackColor
vt 56.8127 4.91871
vt 52.7727 8.01429
f 60/164/14 61/165/14 63/140/14

vt 51.8166 8.15078
f 61/165/14 64/166/14 63/140/14

usemtl _Color_C03_3
v 2.80711 11.151 -36.537
vt -50.1448 141.732
vn 0.132577 -5.75597e-016 -0.991173
vt -51.1106 2.36261e-013
vn 0.141313 -5.7743e-016 -0.989965
vt -50.1448 2.36261e-013
f 89/167/27 61/168/28 64/169/27

vt -51.1106 141.732
f 61/168/28 89/167/27 59/170/28

usemtl BackColor
vn -0.132577 5.75597e-016 0.991173
vn -0.141313 5.7743e-016 0.989965
f 64/169/29 61/168/30 89/167/29

f 59/170/30 89/167/29 61/168/30

usemtl _Color_C03_3
vt -50.4085 2.35695e-013
vt -46.2217 141.732
vn 0.12383 -5.73718e-016 -0.992303
vt -50.4085 141.732
f 64/171/27 78/172/31 89/173/27

vt -46.2217 2.35695e-013
f 78/172/31 64/171/27 65/174/31

usemtl BackColor
vn -0.12383 5.73718e-016 0.992303
f 65/174/32 64/171/29 78/172/32

f 64/166/14 65/138/14 63/140/14

f 89/173/29 78/172/32 64/171/29

f 78/137/24 77/134/24 65/135/24

vt 58.7663 0.218927
f 88/175/14 60/164/14 63/140/14

usemtl _Color_C03_3
vt -17.2644 2.5299e-013
vn 0.923404 -4.71338e-016 -0.383829
v 2.98363 11.151 -36.3355
vt -22.3541 141.732
vt -22.3541 2.5299e-013
f 60/176/33 90/177/33 88/178/33

vt -17.2644 141.732
f 90/177/33 60/176/33 62/179/33

usemtl BackColor
vn -0.923404 4.71338e-016 0.383829
f 88/178/34 90/177/34 60/176/34

f 62/179/34 60/176/34 90/177/34

f 62/101/12 59/98/12 60/99/12

f 86/160/14 88/175/14 63/140/14

usemtl _Tile_Ceramic_Natural_14
v 2.98309 7.551 -36.3313
vt 2.11567 25.7669
f 86/157/13 88/163/13 91/180/13

usemtl BackColor
vt 58.745 0.0550402
f 91/181/14 88/175/14 86/160/14

usemtl Color_D03
vt -111.858 1.13776e-012
vn 0.000328946 -1.59795e-014 -1
v 2.98421 11.151 -36.3309
vt -58.7889 141.732
vt -169.286 1.42198e-012
f 87/182/35 92/183/35 85/184/35

v 2.98421 7.551 -36.3309
vt -58.7889 2.28264e-013
f 92/183/35 87/182/35 93/185/35

usemtl BackColor
vn -0.000328946 1.59795e-014 1
f 93/185/36 87/182/36 92/183/36

f 85/184/36 92/183/36 87/182/36

usemtl Color_D03
v 5.79083 11.151 -36.3299
vt -169.286 141.732
f 85/184/35 92/183/35 94/186/35

usemtl BackColor
f 94/186/36 92/183/36 85/184/36

usemtl Color_D03
vt -0.055686 141.732
vn -1 3.6524e-014 -0.000328946
v 5.79087 7.551 -36.4599
vt -5.1738 7.60408e-012
vt -0.055686 7.60408e-012
f 94/187/37 95/188/37 85/189/37

v 5.79087 9.651 -36.4599
vt -5.1738 82.6772
f 95/188/37 94/187/37 96/190/37

usemtl BackColor
vn 1 -3.6524e-014 0.000328946
f 85/189/38 95/188/38 94/187/38

f 96/190/38 94/187/38 95/188/38

usemtl Color_D03
v 5.79176 11.151 -39.1417
vt -110.756 141.732
f 97/191/37 96/190/37 94/187/37

v 5.79115 9.651 -37.3099
vt -38.6384 82.6772
f 96/190/37 97/191/37 98/192/37

usemtl BackColor
f 94/187/38 96/190/38 97/191/38

f 98/192/38 97/191/38 96/190/38

usemtl Color_D03
v 5.79115 7.551 -37.3099
vt -38.6384 6.75143e-012
f 98/192/37 97/191/37 99/193/37

usemtl BackColor
f 99/193/38 97/191/38 98/192/38

usemtl Color_D03
v 5.79176 7.551 -39.1417
vt -110.756 7.54723e-012
f 99/193/37 97/191/37 100/194/37

usemtl BackColor
f 100/194/38 97/191/38 99/193/38

usemtl Color_D03
vt 169.286 141.732
vt 169.286 2.16631e-012
f 97/195/25 84/154/25 100/196/25

f 81/152/25 84/154/25 97/195/25

usemtl BackColor
f 97/195/26 84/154/26 81/152/26

f 100/196/26 84/154/26 97/195/26

f 73/123/18 72/122/18 74/121/18

g Mesh8 DES037 Model

l 60 61

l 60 62

l 88 60

l 88 90

l 91 88

l 86 91

l 85 87

l 95 85

l 95 96

l 96 98

l 99 98

l 99 100

l 100 97

l 97 81

l 97 94

l 85 94

l 85 84

l 84 63

l 63 83

l 68 63

l 68 70

l 83 81

l 81 73

l 72 73

l 71 72

l 70 71

l 72 75

l 69 72

l 67 69

l 66 67

l 66 77

l 65 66

l 65 78

l 64 65

l 61 64

l 61 59

l 62 59

l 90 62

v 2.98303 11.151 -36.3309
l 101 90

l 59 89

l 89 78

l 78 77

l 77 76

l 67 76

l 76 74

l 75 74

l 73 74

l 94 92

l 93 92

l 87 93

g Mesh9 DES037 Model

l 82 80

l 79 82

l 79 18

l 18 80

