# Alias OBJ Model File
# Exported from SketchUp, (c) 2000-2012 Trimble Navigation Limited
# File units = meters

mtllib DES006.mtl

g Mesh1 DES006 Model

usemtl Translucent_Glass_Blue
v 29.2337 8.501 -14.5922
vt 99.3371 37.4016
vn 1 -8.88507e-015 0.000328946
v 29.2333 9.801 -13.5422
vt 57.9985 88.5827
v 29.2333 8.501 -13.5422
vt 57.9985 37.4016
f 1/1/1 2/2/1 3/3/1

v 29.2337 9.801 -14.5922
vt 99.3371 88.5827
f 2/2/1 1/1/1 4/4/1

vn -1 8.88507e-015 -0.000328946
f 3/3/2 2/2/2 1/1/2

f 4/4/2 1/1/2 2/2/2

g Mesh2 DES006 Model

usemtl _Color_C03_3
v 21.4338 7.551 -12.102
vt 5.68819 1.77423e-012
vn 0.921875 -6.59049e-015 0.387487
v 21.4221 11.151 -12.0742
vt 4.50162 141.732
v 21.4221 7.551 -12.0742
vt 4.50162 1.77423e-012
f 5/5/3 6/6/3 7/7/3

v 21.4338 11.151 -12.102
vt 5.68819 141.732
f 6/6/3 5/5/3 8/8/3

usemtl BackColor
vn -0.921875 6.59049e-015 -0.387487
f 7/7/4 6/6/4 5/5/4

usemtl Color_D03
v 28.9429 11.151 -12.0717
vt -307.477 141.732
vn 0.000328946 -1.61731e-018 -1
vt -11.3857 1.7053e-012
vt -11.3857 141.732
f 9/9/5 7/10/5 6/11/5

v 28.9429 7.551 -12.0717
vt -307.477 1.25056e-012
f 7/10/5 9/9/5 10/12/5

usemtl BackColor
vn -0.000328946 1.61731e-018 1
f 10/12/6 9/9/6 7/10/6

usemtl Color_D03
v 28.9429 11.151 -12.2323
vt -6.42368 141.732
vn -1 6.42016e-015 -0.000328946
vt -0.101143 3.2246e-012
vt -0.101143 141.732
f 11/13/7 10/14/7 9/15/7

v 28.9429 7.551 -12.2323
vt -6.42368 2.03089e-012
f 10/14/7 11/13/7 12/16/7

usemtl BackColor
vn 1 -6.42016e-015 0.000328946
f 9/15/8 10/14/8 11/13/8

f 12/16/8 11/13/8 10/14/8

usemtl FrontColor
vn 0.000328946 9.62232e-015 -1
v 29.2329 7.551 -12.2322
vt -318.894 -4.96728e-015
vt -307.477 -4.96728e-015
f 11/9/9 13/17/9 12/18/9

v 29.2329 11.151 -12.2322
vt -318.894 141.732
f 13/17/9 11/9/9 14/19/9

usemtl BackColor
vn -0.000328946 -9.62232e-015 1
f 12/18/10 13/17/10 11/9/10

usemtl _Tile_Ceramic_Natural_14
v 29.2337 7.551 -14.6422
vt 20.7331 10.3846
vn 3.6989e-015 1 -2.44307e-015
vt 20.5269 8.6754
vt 20.7326 8.67534
f 15/20/11 12/21/11 13/22/11

v 29.2338 7.551 -14.9516
vt 20.7332 10.604
f 16/23/11 12/21/11 15/20/11

v 21.9838 7.551 -14.954
vt 15.5913 10.6057
f 17/24/11 12/21/11 16/23/11

vt 20.5268 8.56151
f 17/24/11 10/25/11 12/21/11

v 21.9835 7.551 -14.104
vt 15.5911 10.0028
f 18/26/11 10/25/11 17/24/11

v 21.9835 7.551 -13.9876
vt 15.5911 9.9203
f 19/27/11 10/25/11 18/26/11

vt 15.2013 8.58297
f 5/28/11 10/25/11 19/27/11

vt 15.193 8.56326
f 10/25/11 5/28/11 7/29/11

usemtl _7
vt 6.99385 2.48009
vn -3.6989e-015 -1 2.44307e-015
vt 6.99766 2.4858
vt 9.44918 2.47958
f 7/30/12 5/31/12 10/32/12

vt 7.17711 2.87312
f 19/33/12 10/32/12 5/31/12

vt 7.17712 2.89702
f 18/34/12 10/32/12 19/33/12

vt 7.17721 3.07162
f 17/35/12 10/32/12 18/34/12

vt 9.4492 2.51257
f 12/36/12 10/32/12 17/35/12

vt 9.54417 3.07113
f 16/37/12 12/36/12 17/35/12

vt 9.54414 3.00758
f 15/38/12 12/36/12 16/37/12

vt 9.54388 2.51255
f 13/39/12 12/36/12 15/38/12

usemtl _Tile_Ceramic_Natural_14
v 29.233 7.551 -12.4422
vt 20.7326 8.82427
f 15/20/11 13/22/11 20/40/11

usemtl _7
vt 9.5439 2.55569
f 20/41/12 13/39/12 15/38/12

usemtl Color_D03
v 29.233 8.451 -12.4422
vt -14.6914 35.4331
vn -1 2.54677e-014 -0.000328946
vt -14.6914 8.17832e-012
vt -6.42368 8.17832e-012
f 21/42/13 20/43/13 13/44/13

v 29.2333 8.451 -13.4922
vt -56.03 35.4331
f 20/43/13 21/42/13 22/45/13

usemtl BackColor
vn 1 -2.54677e-014 0.000328946
f 13/44/14 20/43/14 21/42/14

f 22/45/14 21/42/14 20/43/14

usemtl Color_D03
vt -101.306 9.31519e-012
f 20/43/13 22/45/13 15/46/13

usemtl BackColor
f 15/46/14 22/45/14 20/43/14

usemtl Color_D03
v 29.2337 8.451 -14.6422
vt -101.306 35.4331
f 15/46/13 22/45/13 23/47/13

usemtl BackColor
f 23/47/14 22/45/14 15/46/14

usemtl Color_D03
v 29.2337 9.851 -14.6422
vt -101.306 90.5512
f 15/46/13 23/47/13 24/48/13

usemtl BackColor
f 24/48/14 23/47/14 15/46/14

usemtl Color_D03
vt -113.487 8.12148e-012
f 15/46/13 24/48/13 16/49/13

usemtl BackColor
f 16/49/14 24/48/14 15/46/14

usemtl Color_D03
v 29.2338 11.151 -14.9516
vt -113.487 141.732
f 16/49/13 24/48/13 25/50/13

usemtl BackColor
f 25/50/14 24/48/14 16/49/14

usemtl Color_D03
v 29.2333 9.851 -13.5422
vt -57.9985 90.5512
f 26/51/13 25/50/13 24/48/13

v 29.2333 9.851 -13.4922
vt -56.03 90.5512
f 27/52/13 25/50/13 26/51/13

v 29.233 9.851 -12.4422
vt -14.6914 90.5512
f 28/53/13 25/50/13 27/52/13

f 28/53/13 14/13/13 25/50/13

f 14/13/13 28/53/13 13/44/13

usemtl BackColor
f 13/44/14 28/53/14 14/13/14

usemtl Color_D03
f 13/44/13 28/53/13 21/42/13

usemtl BackColor
f 21/42/14 28/53/14 13/44/14

f 25/50/14 14/13/14 28/53/14

f 27/52/14 25/50/14 28/53/14

f 26/51/14 25/50/14 27/52/14

f 24/48/14 25/50/14 26/51/14

f 14/19/10 11/9/10 13/17/10

usemtl Color_D03
vt 318.894 141.732
vn -0.000328946 9.29656e-015 1
vt 33.4608 1.50979e-012
vt 318.894 1.05504e-012
f 25/54/15 17/55/15 16/56/15

v 21.9838 10.551 -14.954
vt 33.4608 118.11
f 17/55/15 25/54/15 29/57/15

usemtl BackColor
vn 0.000328946 -9.29656e-015 -1
f 16/56/16 17/55/16 25/54/16

f 29/57/16 25/54/16 17/55/16

usemtl Color_D03
v 21.9838 11.151 -14.954
vt 33.4608 141.732
f 29/57/15 25/54/15 30/58/15

usemtl BackColor
f 30/58/16 25/54/16 29/57/16

usemtl Color_D03
vt 113.487 141.732
vn 1 -5.7145e-015 0.000328946
v 21.9835 10.551 -14.104
vt 80.0224 118.11
vt 113.487 118.11
f 30/59/17 31/60/17 29/61/17

v 21.9835 11.151 -13.9876
vt 75.4402 141.732
f 32/62/17 31/60/17 30/59/17

vt 75.4402 1.89651e-012
f 31/60/17 32/62/17 19/63/17

usemtl BackColor
vn -1 5.7145e-015 -0.000328946
f 30/59/18 31/60/18 32/62/18

f 29/61/18 31/60/18 30/59/18

f 19/63/18 32/62/18 31/60/18

usemtl Color_D03
v 21.1335 11.151 -13.9879
vt -0.00379912 141.732
vn -0.000328946 -1.283e-014 1
vt 33.4608 7.37402e-013
f 33/64/19 19/65/19 32/58/19

v 21.1335 7.551 -13.9879
vt -0.00379912 3.96342e-013
f 19/65/19 33/64/19 34/66/19

usemtl BackColor
vn 0.000328946 1.283e-014 -1
f 34/66/20 33/64/20 19/65/20

usemtl Color_D03
v 21.1329 11.151 -12.3651
vt 11.5494 141.732
vn 1 -9.62654e-015 0.000328946
vt 75.4402 1.36421e-012
f 35/67/21 34/68/21 33/62/21

v 21.1329 7.551 -12.3651
vt 11.5494 1.70527e-012
f 34/68/21 35/67/21 36/69/21

usemtl BackColor
vn -1 9.62654e-015 -0.000328946
f 36/69/22 35/67/22 34/68/22

usemtl _Color_C03_3
vt -1.42262 141.732
vn -0.123177 3.95262e-016 -0.992385
v 21.2258 7.551 -12.3766
vt -5.10769 1.70077e-012
vt -1.42262 1.70077e-012
f 35/70/23 37/71/23 36/72/23

v 21.2258 11.151 -12.3766
vt -5.10769 141.732
f 37/71/23 35/70/23 38/73/23

usemtl BackColor
vn 0.123177 -3.95262e-016 0.992385
f 36/72/24 37/71/24 35/70/24

usemtl _Tile_Ceramic_Natural_14
vt 15.0538 8.77774
vt 14.9883 9.9205
vt 14.9879 8.76956
f 37/74/11 34/75/11 36/76/11

f 34/75/11 37/74/11 19/27/11

usemtl _7
vt 6.89943 2.53984
vt 6.8996 2.87318
vt 6.92975 2.54221
f 36/77/12 34/78/12 37/79/12

f 19/33/12 37/79/12 34/78/12

usemtl _Tile_Ceramic_Natural_14
v 21.342 7.551 -12.3276
vt 15.1362 8.74296
f 19/27/11 37/74/11 39/80/11

usemtl _7
vt 6.96767 2.53213
f 39/81/12 37/79/12 19/33/12

usemtl _Color_C03_3
vt 1.30044 141.732
vn 0.38901 -1.55982e-015 -0.921233
vt -3.66292 1.72477e-012
vt 1.30044 1.72477e-012
f 38/82/25 39/83/25 37/84/25

v 21.342 11.151 -12.3276
vt -3.66292 141.732
f 39/83/25 38/82/25 40/85/25

usemtl BackColor
vn -0.38901 1.55982e-015 0.921233
f 37/84/26 39/83/26 38/82/26

f 40/85/26 38/82/26 39/83/26

usemtl _Color_C03_3
v 21.4181 11.151 -12.2271
vt -1.90228 141.732
vn 0.797177 -7.71038e-015 -0.603746
vt 3.06108 1.80277e-012
vt 3.06108 141.732
f 41/86/27 39/87/27 40/88/27

v 21.4181 7.551 -12.2271
vt -1.90228 1.80277e-012
f 39/87/27 41/86/27 42/89/27

usemtl BackColor
vn -0.797177 7.71038e-015 0.603746
f 42/89/28 41/86/28 39/87/28

usemtl _Color_C03_3
vt -0.29658 141.732
vn 0.99218 -1.51415e-014 -0.124817
vt 4.66678 1.88551e-012
vt 4.66678 141.732
f 8/90/29 42/91/29 41/92/29

vt -0.29658 1.88551e-012
f 42/91/29 8/90/29 5/93/29

usemtl BackColor
vn -0.99218 1.51415e-014 0.124817
f 5/93/30 8/90/30 42/91/30

f 8/8/4 5/5/4 6/6/4

f 41/92/30 42/91/30 8/90/30

usemtl _Tile_Ceramic_Natural_14
vt 15.1901 8.67168
f 19/27/11 42/94/11 5/28/11

f 19/27/11 39/80/11 42/94/11

usemtl _7
vt 6.99252 2.51149
f 42/95/12 39/81/12 19/33/12

f 5/31/12 42/95/12 19/33/12

usemtl BackColor
f 40/88/28 39/87/28 41/86/28

f 38/73/24 35/70/24 37/71/24

f 33/62/22 34/68/22 35/67/22

f 32/58/20 19/65/20 33/64/20

usemtl Color_D03
vt 80.0224 1.89651e-012
f 31/60/17 19/63/17 18/96/17

usemtl BackColor
f 18/96/18 19/63/18 31/60/18

f 6/11/6 7/10/6 9/9/6

g Mesh3 DES006 Model

usemtl Translucent_Glass_Blue
v 29.2333 8.501 -13.4922
vt 56.03 37.4016
vn 1 -2.84708e-016 0.000328946
v 29.233 9.801 -12.4922
vt 16.6599 88.5827
v 29.233 8.501 -12.4922
vt 16.6599 37.4016
f 43/97/31 44/98/31 45/99/31

v 29.2333 9.801 -13.4922
vt 56.03 88.5827
f 44/98/31 43/97/31 46/100/31

vn -1 2.84708e-016 -0.000328946
f 45/99/32 44/98/32 43/97/32

f 46/100/32 43/97/32 44/98/32

g Mesh4 DES006 Model

l 2 4

l 2 3

l 1 3

l 4 1

g Mesh5 DES006 Model

l 7 5

l 7 6

l 10 7

l 10 9

l 10 12

l 12 13

l 12 11

l 11 14

l 9 11

l 9 6

l 6 8

l 5 8

l 5 42

l 42 39

l 42 41

l 41 40

l 8 41

l 39 40

l 39 37

l 37 38

l 37 36

l 36 35

l 34 36

l 19 34

l 19 32

l 18 19

l 18 31

l 18 17

l 16 17

l 16 25

l 16 15

l 20 15

l 13 20

l 13 14

l 14 25

l 25 30

l 29 30

l 17 29

l 31 29

l 30 32

l 32 33

l 34 33

l 33 35

l 38 35

l 40 38

g Mesh6 DES006 Model

l 21 28

l 21 22

l 22 23

l 23 24

l 26 24

l 27 26

l 27 28

g Mesh7 DES006 Model

l 43 45

l 46 43

l 44 46

l 45 44

