# Alias OBJ Model File
# Exported from SketchUp, (c) 2000-2012 Trimble Navigation Limited
# File units = meters

mtllib DES019.mtl

g Mesh1 DES019 Model

usemtl _Color_C03_3
v 21.348 7.551 -30.5289
vt 3.82859 1.54211e-012
vn 0.797177 -5.54708e-016 -0.603746
v 21.4241 11.151 -30.4284
vt -1.13477 141.732
v 21.4241 7.551 -30.4284
vt -1.13477 1.54211e-012
f 1/1/1 2/2/1 3/3/1

v 21.348 11.151 -30.5289
vt 3.82859 141.732
f 2/2/1 1/1/1 4/4/1

usemtl BackColor
vn -0.797177 5.54708e-016 0.603746
f 3/3/2 2/2/2 1/1/2

usemtl _Color_C03_3
vt 5.62203 141.732
vn 0.99218 -3.50387e-016 -0.124817
v 21.4398 7.551 -30.3033
vt 0.658676 1.48214e-012
vt 5.62203 1.53898e-012
f 2/5/3 5/6/3 3/7/3

v 21.4398 11.151 -30.3033
vt 0.658676 141.732
f 5/6/3 2/5/3 6/8/3

usemtl BackColor
vn -0.99218 3.50387e-016 0.124817
f 6/8/4 2/5/4 5/6/4

f 3/7/4 5/6/4 2/5/4

usemtl _Tile_Ceramic_Natural_14
v 22.7494 7.551 -32.089
vt 16.1344 22.7581
vn 4.11393e-015 1 2.68727e-015
vt 15.1944 21.5804
vt 15.2055 21.4917
f 7/9/5 3/10/5 5/11/5

vt 15.1404 21.6517
f 7/9/5 1/12/5 3/10/5

v 21.2318 7.551 -30.5779
vt 15.058 21.6865
f 7/9/5 8/13/5 1/12/5

v 21.1394 7.551 -32.0895
vt 14.9925 22.7585
f 9/14/5 8/13/5 7/9/5

v 21.1394 7.551 -30.5664
vt 14.9925 21.6783
f 8/13/5 9/14/5 10/15/5

usemtl _7
vt 6.90155 6.27847
vn -4.11393e-015 -1 -2.68727e-015
vt 6.90155 6.59132
vt 6.93171 6.28083
f 10/16/6 9/17/6 8/18/6

vt 7.42718 6.59121
f 7/19/6 8/18/6 9/17/6

vt 6.96963 6.27076
f 1/20/6 8/18/6 7/19/6

usemtl _Color_C03_3
v 21.2318 11.151 -30.5779
vt 1.67498 141.732
vn 0.38901 -6.10701e-016 -0.921233
vt -3.28838 1.54294e-012
vt 1.67498 1.54294e-012
f 11/21/7 1/22/7 8/23/7

vt -3.28838 141.732
f 1/22/7 11/21/7 4/24/7

usemtl BackColor
vn -0.38901 6.10701e-016 0.921233
f 8/23/8 1/22/8 11/21/8

f 4/24/8 11/21/8 1/22/8

f 4/4/2 1/1/2 2/2/2

usemtl _7
vt 6.99448 6.25011
f 3/25/6 1/20/6 7/19/6

vt 6.99961 6.22442
f 5/26/6 3/25/6 7/19/6

usemtl _Tile_Ceramic_Natural_14
v 23.9888 7.551 -30.2486
vt 17.0134 21.4529
f 5/11/5 12/27/5 7/9/5

v 21.4172 7.551 -30.2494
vt 15.1895 21.4535
f 12/27/5 5/11/5 13/28/5

usemtl _7
vt 6.99222 6.21336
vt 7.83181 6.21318
f 13/29/6 5/26/6 12/30/6

usemtl _Color_C03_3
vt 6.57576 141.732
vn 0.921875 -5.22101e-017 0.387487
vt 4.27529 1.47846e-012
vt 6.57576 1.47846e-012
f 6/31/9 13/32/9 5/33/9

v 21.4172 11.151 -30.2494
vt 4.27529 141.732
f 13/32/9 6/31/9 14/34/9

usemtl BackColor
vn -0.921875 5.22101e-017 -0.387487
f 14/34/10 6/31/10 13/32/10

f 5/33/10 13/32/10 6/31/10

usemtl Color_D03
v 23.9888 11.151 -30.2486
vt -112.201 141.732
vn 0.000328946 -3.211e-015 -1
vt -10.9541 1.47805e-012
vt -10.9541 141.732
f 15/35/11 13/36/11 14/37/11

vt -112.201 1.18512e-016
f 13/36/11 15/35/11 12/38/11

usemtl BackColor
vn -0.000328946 3.211e-015 1
f 12/38/12 15/35/12 13/36/12

usemtl Color_D03
vt -0.036908 141.732
vn -1 7.61806e-015 -0.000328946
v 23.9894 7.551 -32.0886
vt -72.4779 2.6169e-012
vt -0.036908 8.54751e-013
f 15/39/13 16/40/13 12/41/13

v 23.9894 11.151 -32.0886
vt -72.4779 141.732
f 16/40/13 15/39/13 17/42/13

usemtl BackColor
vn 1 -7.61806e-015 0.000328946
f 12/41/14 16/40/14 15/39/14

f 17/42/14 15/39/14 16/40/14

usemtl Color_D03
v 23.5994 7.551 -32.0887
vt 96.8463 1.49024e-011
vn -0.000328946 1.80516e-013 1
vt 112.201 1.48455e-011
vt 112.201 141.732
f 18/43/15 16/44/15 17/45/15

v 23.9888 7.551 -32.0886
vt 112.177 1.42771e-011
f 16/44/15 18/43/15 19/46/15

usemtl BackColor
vn 0.000328946 -1.80516e-013 -1
f 19/46/16 18/43/16 16/44/16

usemtl _Tile_Ceramic_Natural_14
vt 16.7372 22.7579
vt 17.0134 22.7578
f 18/47/5 12/27/5 19/48/5

v 23.2859 7.551 -32.0895
vt 16.5148 22.7585
f 20/49/5 12/27/5 18/47/5

v 23.1248 7.551 -32.0895
vt 16.4006 22.7585
f 21/50/5 12/27/5 20/49/5

v 22.7495 7.551 -32.0895
vt 16.1344 22.7585
f 22/51/5 12/27/5 21/50/5

v 22.7494 7.551 -32.0895
f 23/51/5 12/27/5 22/51/5

f 7/9/5 12/27/5 23/51/5

usemtl _7
f 7/19/6 12/30/6 5/26/6

vt 7.42718 6.59132
f 23/52/6 12/30/6 7/19/6

vt 7.42719 6.59132
f 22/53/6 12/30/6 23/52/6

vt 7.54973 6.59132
f 21/54/6 12/30/6 22/53/6

vt 7.60232 6.59132
f 20/55/6 12/30/6 21/54/6

vt 7.70468 6.59115
f 18/56/6 12/30/6 20/55/6

vt 7.83181 6.59113
f 19/57/6 12/30/6 18/56/6

usemtl _Tile_Ceramic_Natural_14
v 23.5994 7.551 -32.0895
vt 16.7372 22.7585
f 24/58/5 20/49/5 18/47/5

usemtl _7
vt 7.70468 6.59132
f 18/56/6 20/55/6 24/59/6

usemtl BackColor
f 17/45/16 16/44/16 18/43/16

usemtl Color_D03
v 23.5994 9.651 -32.0887
vt 96.8463 82.6772
f 18/43/15 17/45/15 25/60/15

usemtl BackColor
f 25/60/16 17/45/16 18/43/16

usemtl Color_D03
v 21.1394 11.151 -32.0895
vt -0.00411583 141.732
f 25/60/15 17/45/15 26/61/15

usemtl BackColor
f 26/61/16 17/45/16 25/60/16

usemtl Color_D03
v 22.7494 9.651 -32.089
vt 63.3817 82.6772
f 26/61/15 27/62/15 25/60/15

vt 63.3817 1.45613e-011
f 26/61/15 7/63/15 27/62/15

vt -0.00411583 1.37087e-011
f 7/63/15 26/61/15 9/64/15

usemtl BackColor
f 9/64/16 26/61/16 7/63/16

usemtl Color_D03
vt 72.4779 141.732
vn 1 -5.61697e-015 0.000328946
v 21.1389 7.551 -30.5664
vt 12.5122 1.47791e-012
vt 72.4779 6.25254e-013
f 26/65/17 28/66/17 9/67/17

v 21.1389 11.151 -30.5664
vt 12.5122 141.732
f 28/66/17 26/65/17 29/68/17

usemtl BackColor
vn -1 5.61697e-015 -0.000328946
f 29/68/18 26/65/18 28/66/18

f 9/67/18 28/66/18 26/65/18

f 27/62/16 7/63/16 26/61/16

f 25/60/16 27/62/16 26/61/16

f 14/37/12 13/36/12 15/35/12

g Mesh2 DES019 Model

l 3 1

l 3 2

l 5 3

l 13 5

l 13 14

l 12 13

l 12 15

l 16 12

l 16 17

l 19 18

l 19 12

l 18 25

l 20 24

l 21 20

l 22 21

l 7 27

l 7 9

l 9 26

l 28 9

l 28 29

l 29 26

l 17 26

l 17 15

l 15 14

l 14 6

l 5 6

l 6 2

l 2 4

l 1 4

l 1 8

l 8 11

l 8 10

l 10 9

l 4 11

l 25 27

