# Alias OBJ Model File
# Exported from SketchUp, (c) 2000-2012 Trimble Navigation Limited
# File units = meters

mtllib DES044.mtl

g Mesh1 ventana2_1 DES0443 Model

usemtl Color_000
v 4.28373 9.12261 -14.7355
vt 1.37598 26.4413
vn -1 2.84708e-016 -0.000328946
v 4.28373 9.00361 -14.7565
vt 0.549204 21.7563
v 4.28373 9.00361 -14.7355
vt 1.37598 21.7563
f 1/1/1 2/2/1 3/3/1

v 4.28373 9.12261 -14.7565
vt 0.549204 26.4413
f 2/2/1 1/1/1 4/4/1

usemtl BackColor
vn 1 -2.84708e-016 0.000328946
f 3/3/2 2/2/2 1/1/2

usemtl Color_000
v 4.28374 9.001 -14.7704
vt 0 21.6535
f 2/2/1 5/5/1 3/3/1

v 4.28374 9.851 -14.7704
vt 0 55.1181
f 5/5/1 2/2/1 6/6/1

usemtl BackColor
f 6/6/2 2/2/2 5/5/2

usemtl Color_000
f 6/6/1 2/2/1 4/4/1

usemtl BackColor
f 4/4/2 2/2/2 6/6/2

f 4/4/2 1/1/2 2/2/2

usemtl Color_000
v 4.28372 9.801 -14.7204
vt 1.9685 53.1496
f 1/1/1 7/7/1 4/4/1

f 3/3/1 7/7/1 1/1/1

v 4.28372 8.501 -14.7204
vt 1.9685 1.9685
f 3/3/1 8/8/1 7/7/1

f 5/5/1 8/8/1 3/3/1

v 4.28374 8.451 -14.7704
vt 0 0
f 9/9/1 8/8/1 5/5/1

v 4.28338 8.501 -13.6704
vt 43.3071 1.9685
f 8/8/1 9/9/1 10/10/1

usemtl BackColor
f 5/5/2 8/8/2 9/9/2

f 3/3/2 8/8/2 5/5/2

f 7/7/2 8/8/2 3/3/2

usemtl M_0128_White
v 4.33372 8.501 -14.7204
vn -0.000328946 5.42711e-016 1
vt 4.54747e-013 53.1496
vt 4.54747e-013 1.9685
f 11/8/3 7/11/3 8/12/3

v 4.33372 9.801 -14.7204
f 7/11/3 11/8/3 12/7/3

usemtl BackColor
vn 0.000328946 -5.42711e-016 -1
f 8/12/4 7/11/4 11/8/4

f 12/7/4 11/8/4 7/11/4

usemtl FrontColor
v 4.33374 9.851 -14.7704
vt 9.09495e-013 55.1181
f 13/13/1 11/8/1 12/7/1

v 4.33374 8.451 -14.7704
vt 9.09495e-013 0
f 14/14/1 11/8/1 13/13/1

v 4.33338 8.501 -13.6704
f 11/8/1 14/14/1 15/10/1

usemtl M_0128_White
f 13/13/2 11/8/2 14/14/2

f 12/7/2 11/8/2 13/13/2

usemtl Translucent_Glass_Blue
vn -1 3.83492e-015 -0.000328946
v 4.33338 9.801 -13.6704
vt 43.3071 53.1496
f 11/8/5 16/15/5 12/7/5

f 16/15/5 11/8/5 15/10/5

vn 1 -3.83492e-015 0.000328946
f 15/10/6 11/8/6 16/15/6

usemtl M_0128_White
vn 2.84843e-016 1 -4.08333e-016
vt 43.3071 4.54747e-013
f 11/8/7 10/16/7 15/10/7

vt 1.9685 4.54747e-013
f 10/16/7 11/8/7 8/17/7

usemtl BackColor
vn -2.84843e-016 -1 4.08333e-016
f 8/17/8 11/8/8 10/16/8

f 15/10/8 10/16/8 11/8/8

usemtl M_0128_White
vt -4.54747e-013 1.9685
vt -1.9685 53.1496
vt -1.9685 1.9685
f 10/18/4 16/19/4 15/20/4

v 4.28338 9.801 -13.6704
vt -4.54747e-013 53.1496
f 16/19/4 10/18/4 17/21/4

usemtl BackColor
f 17/21/3 10/18/3 16/19/3

usemtl Color_000
v 4.28336 8.501 -13.6204
vt 45.2756 1.9685
f 10/10/1 18/22/1 17/15/1

f 9/9/1 18/22/1 10/10/1

v 4.28336 8.451 -13.6204
vt 45.2756 0
f 18/22/1 9/9/1 19/23/1

usemtl BackColor
f 19/23/2 9/9/2 18/22/2

usemtl FrontColor
vt -9.09495e-013 1.9685
vn -2.84887e-016 -1 5.42617e-016
vt -45.2756 4.54747e-013
f 14/24/9 19/25/9 9/9/9

v 4.33336 8.451 -13.6204
vt -45.2756 1.9685
f 19/25/9 14/24/9 20/26/9

usemtl BackColor
vn 2.84887e-016 1 -5.42617e-016
f 9/9/10 19/25/10 14/24/10

f 20/26/10 14/24/10 19/25/10

usemtl FrontColor
v 4.33336 8.501 -13.6204
f 21/22/1 14/14/1 20/23/1

f 14/14/1 21/22/1 15/10/1

usemtl M_0128_White
f 20/23/2 14/14/2 21/22/2

f 15/10/2 21/22/2 14/14/2

usemtl FrontColor
f 15/10/1 21/22/1 16/15/1

usemtl M_0128_White
f 16/15/2 21/22/2 15/10/2

usemtl FrontColor
v 4.33336 9.801 -13.6204
vt 45.2756 53.1496
f 16/15/1 21/22/1 22/27/1

usemtl M_0128_White
f 22/27/2 21/22/2 16/15/2

f 22/7/3 18/12/3 21/8/3

v 4.28336 9.801 -13.6204
vt 5.24223e-030 53.1496
f 18/12/3 22/7/3 23/28/3

usemtl BackColor
f 23/28/4 22/7/4 18/12/4

usemtl M_0128_White
v 4.28303 9.801 -12.6204
vt -84.6457 0
vt -45.2756 0
f 22/26/9 24/29/9 23/30/9

v 4.33307 9.801 -12.7394
vt -79.9606 1.9685
f 24/29/9 22/26/9 25/31/9

usemtl BackColor
f 23/30/10 24/29/10 22/26/10

usemtl Color_000
vt 84.6457 53.1496
v 4.28302 9.851 -12.5704
vt 86.6142 55.1181
f 24/32/1 26/33/1 23/27/1

v 4.28303 9.12261 -12.6065
vt 85.1949 26.4413
f 27/34/1 26/33/1 24/32/1

v 4.28302 9.12261 -12.5855
vt 86.0216 26.4413
f 28/35/1 26/33/1 27/34/1

v 4.28302 9.00361 -12.5855
vt 86.0216 21.7563
f 29/36/1 26/33/1 28/35/1

v 4.28302 8.451 -12.5704
vt 86.6142 0
f 29/36/1 30/37/1 26/33/1

v 4.28303 8.501 -12.6204
vt 84.6457 1.9685
f 31/38/1 30/37/1 29/36/1

f 30/37/1 31/38/1 19/23/1

usemtl BackColor
f 19/23/2 31/38/2 30/37/2

usemtl Color_000
f 18/22/1 19/23/1 31/38/1

usemtl FrontColor
vt -4.54747e-013 0
f 21/20/4 19/39/4 18/18/4

vt -1.9685 0
f 19/39/4 21/20/4 20/40/4

usemtl BackColor
f 18/18/3 19/39/3 21/20/3

f 31/38/2 19/23/2 18/22/2

usemtl M_0128_White
vt 84.6457 1.94109e-031
vn 2.84915e-016 1 -6.27216e-016
vt 45.2756 4.54747e-013
f 31/41/11 21/22/11 18/42/11

v 4.33303 8.501 -12.6204
f 21/22/11 31/41/11 32/38/11

usemtl BackColor
vn -2.84915e-016 -1 6.27216e-016
f 18/42/12 21/22/12 31/41/12

f 21/8/4 18/12/4 22/7/4

usemtl Translucent_Glass_Blue
vn -1 9.49112e-015 -0.000328946
vt 79.9606 53.1496
f 21/22/13 25/43/13 22/27/13

v 4.33303 9.801 -12.6204
f 21/22/13 33/32/13 25/43/13

f 33/32/13 21/22/13 32/38/13

vn 1 -9.49112e-015 0.000328946
f 32/38/14 21/22/14 33/32/14

usemtl BackColor
f 32/38/12 31/41/12 21/22/12

usemtl M_0128_White
vt -9.80069e-030 1.9685
f 31/44/4 33/19/4 32/20/4

vt -9.80069e-030 53.1496
f 33/19/4 31/44/4 24/45/4

usemtl BackColor
f 24/45/3 31/44/3 33/19/3

usemtl Color_000
v 4.28303 9.00361 -12.6065
vt 85.1949 21.7563
f 31/38/1 34/46/1 24/32/1

f 34/46/1 31/38/1 29/36/1

usemtl BackColor
f 24/32/2 34/46/2 31/38/2

usemtl Color_000
f 24/32/1 34/46/1 27/34/1

usemtl BackColor
f 27/34/2 34/46/2 24/32/2

usemtl Color_000
f 34/46/1 28/35/1 27/34/1

f 28/35/1 34/46/1 29/36/1

usemtl BackColor
f 29/36/2 34/46/2 28/35/2

f 29/36/2 31/38/2 34/46/2

f 29/36/2 30/37/2 31/38/2

f 26/33/2 30/37/2 29/36/2

usemtl FrontColor
v 4.33302 8.451 -12.5704
vt 1.9685 0
vt 1.36424e-012 55.1181
vt 1.36424e-012 0
f 35/47/3 26/48/3 30/49/3

v 4.33302 9.851 -12.5704
vt 1.9685 55.1181
f 26/48/3 35/47/3 36/50/3

usemtl BackColor
f 30/49/4 26/48/4 35/47/4

f 36/50/4 35/47/4 26/48/4

usemtl FrontColor
f 32/38/1 35/37/1 36/33/1

f 35/37/1 32/38/1 20/23/1

usemtl M_0128_White
f 20/23/2 32/38/2 35/37/2

usemtl FrontColor
f 21/22/1 20/23/1 32/38/1

usemtl BackColor
f 20/40/3 21/20/3 19/39/3

usemtl M_0128_White
f 32/38/2 20/23/2 21/22/2

usemtl FrontColor
vt -86.6142 1.9685
f 35/51/9 19/25/9 20/26/9

vt -86.6142 1.36424e-012
f 19/25/9 35/51/9 30/52/9

usemtl BackColor
f 20/26/10 19/25/10 35/51/10

f 30/52/10 35/51/10 19/25/10

usemtl M_0128_White
f 36/33/2 35/37/2 32/38/2

usemtl FrontColor
f 32/38/1 36/33/1 33/32/1

usemtl M_0128_White
f 33/32/2 36/33/2 32/38/2

usemtl FrontColor
f 33/32/1 36/33/1 25/43/1

usemtl M_0128_White
f 25/43/2 36/33/2 33/32/2

usemtl FrontColor
f 25/43/1 36/33/1 22/27/1

usemtl M_0128_White
f 22/27/2 36/33/2 25/43/2

usemtl FrontColor
v 4.33336 9.851 -13.6204
vt 45.2756 55.1181
f 22/27/1 36/33/1 37/53/1

usemtl M_0128_White
f 37/53/2 36/33/2 22/27/2

usemtl FrontColor
vt 86.6142 1.36424e-012
vt 86.6142 1.9685
f 37/22/10 26/54/10 36/55/10

v 4.28336 9.851 -13.6204
f 26/54/10 37/22/10 38/23/10

usemtl BackColor
f 38/23/9 37/22/9 26/54/9

usemtl FrontColor
vt -1.9685 55.1181
vt -5.24223e-030 53.1496
vt -5.24223e-030 55.1181
f 37/56/4 23/57/4 38/58/4

f 23/57/4 37/56/4 22/19/4

usemtl BackColor
f 38/58/3 23/57/3 37/56/3

usemtl Color_000
f 17/15/1 23/27/1 38/53/1

f 17/15/1 18/22/1 23/27/1

usemtl BackColor
f 17/15/2 18/22/2 10/10/2

f 23/27/2 18/22/2 17/15/2

f 38/53/2 23/27/2 17/15/2

usemtl Color_000
f 23/27/1 26/33/1 38/53/1

usemtl BackColor
f 23/27/2 26/33/2 24/32/2

f 38/53/2 26/33/2 23/27/2

f 24/32/2 26/33/2 27/34/2

f 27/34/2 26/33/2 28/35/2

f 28/35/2 26/33/2 29/36/2

f 27/34/2 28/35/2 34/46/2

usemtl Color_000
f 17/15/1 38/53/1 7/7/1

usemtl BackColor
f 7/7/2 38/53/2 17/15/2

usemtl Color_000
f 6/6/1 7/7/1 38/53/1

f 6/6/1 4/4/1 7/7/1

usemtl BackColor
f 7/7/2 4/4/2 6/6/2

f 4/4/2 7/7/2 1/1/2

f 1/1/2 7/7/2 3/3/2

f 38/53/2 7/7/2 6/6/2

usemtl Color_000
v 4.28338 9.851 -13.6704
vt 43.3071 55.1181
f 6/6/1 38/53/1 39/59/1

usemtl BackColor
f 39/59/2 38/53/2 6/6/2

usemtl FrontColor
f 37/22/10 39/16/10 38/23/10

v 4.33338 9.851 -13.6704
f 39/16/10 37/22/10 40/10/10

usemtl BackColor
f 40/10/9 37/22/9 39/16/9

usemtl FrontColor
f 13/13/1 37/53/1 40/59/1

f 13/13/1 12/7/1 37/53/1

usemtl M_0128_White
f 37/53/2 12/7/2 13/13/2

usemtl FrontColor
v 4.33339 9.801 -13.6974
vt 42.2441 53.1496
f 41/60/1 37/53/1 12/7/1

f 16/15/1 37/53/1 41/60/1

f 16/15/1 22/27/1 37/53/1

usemtl M_0128_White
f 37/53/2 22/27/2 16/15/2

usemtl BackColor
f 22/19/3 37/56/3 23/57/3

usemtl M_0128_White
f 41/60/2 37/53/2 16/15/2

f 12/7/2 37/53/2 41/60/2

vt -43.3071 4.54747e-013
vt -42.2441 1.9685
f 17/61/9 12/20/9 41/62/9

vt -1.9685 4.54747e-013
f 12/20/9 17/61/9 7/63/9

usemtl BackColor
f 7/63/10 17/61/10 12/20/10

f 41/62/10 12/20/10 17/61/10

usemtl Translucent_Glass_Blue
f 12/7/5 16/15/5 41/60/5

f 12/7/6 16/15/6 11/8/6

f 41/60/6 16/15/6 12/7/6

usemtl M_0128_White
vt -43.3071 1.9685
f 17/61/9 41/62/9 16/64/9

usemtl BackColor
f 16/64/10 41/62/10 17/61/10

usemtl M_0128_White
f 40/59/2 37/53/2 13/13/2

usemtl FrontColor
vt 9.09495e-013 1.9685
f 13/65/10 39/16/10 40/10/10

f 39/16/10 13/65/10 6/9/10

usemtl BackColor
f 6/9/9 13/65/9 39/16/9

usemtl FrontColor
f 13/56/4 5/5/4 6/6/4

f 5/5/4 13/56/4 9/9/4

usemtl BackColor
f 6/6/3 5/5/3 13/56/3

f 9/9/3 13/56/3 5/5/3

usemtl FrontColor
f 9/9/4 13/56/4 14/40/4

usemtl BackColor
f 14/40/3 13/56/3 9/9/3

f 40/10/9 39/16/9 13/65/9

f 38/23/9 39/16/9 37/22/9

f 10/10/2 18/22/2 9/9/2

f 10/10/2 9/9/2 8/8/2

f 36/55/9 26/54/9 37/22/9

f 25/31/10 22/26/10 24/29/10

usemtl Translucent_Glass_Blue
f 22/27/14 25/43/14 21/22/14

f 25/43/14 33/32/14 21/22/14

usemtl M_0128_White
vt -84.6457 1.9685
f 24/29/9 25/31/9 33/66/9

usemtl BackColor
f 33/66/10 25/31/10 24/29/10

f 32/20/3 33/19/3 31/44/3

f 15/20/3 16/19/3 10/18/3

usemtl M_0128_White
f 15/10/2 14/14/2 11/8/2

usemtl BackColor
f 3/3/2 5/5/2 2/2/2

g Mesh2 ventana2_1 DES0443 Model

l 2 3

l 4 2

l 1 4

l 3 1

g Mesh3 ventana2_1 DES0443 Model

l 11 15

l 11 8

l 12 11

l 12 7

l 41 12

l 16 41

l 16 17

l 16 15

l 15 10

l 8 10

l 7 8

l 17 7

l 17 10

g Mesh4 ventana2_1 DES0443 Model

l 5 6

l 9 5

l 14 9

l 14 13

l 20 14

l 21 20

l 21 18

l 22 21

l 22 23

l 37 22

l 40 37

l 13 40

l 13 6

l 6 39

l 40 39

l 39 38

l 37 38

l 37 36

l 36 26

l 36 35

l 35 30

l 35 20

l 20 19

l 18 19

l 18 31

l 23 18

l 24 23

l 31 24

l 32 31

l 32 33

l 21 32

l 33 24

l 33 25

l 25 22

l 38 23

l 38 26

l 26 30

l 30 19

l 19 9

g Mesh5 ventana2_1 DES0443 Model

l 29 28

l 34 29

l 27 34

l 28 27

g Mesh6 DES0443 Model

usemtl Color_D03
v 11.8638 11.151 -14.8704
vt -110.045 141.732
vn -1 2.05101e-015 -0.000328946
v 11.8635 10.551 -13.9321
vt -73.1039 118.11
v 11.8634 11.151 -13.7579
vt -66.2488 141.732
f 42/67/15 43/68/15 44/69/15

v 11.8637 10.551 -14.7821
vt -106.568 118.11
f 43/68/15 42/67/15 45/70/15

usemtl BackColor
vn 1 -2.05101e-015 0.000328946
f 44/69/16 43/68/16 42/67/16

usemtl Color_D03
v 11.8635 7.551 -13.9321
vt -73.1039 7.8259e-013
f 46/71/15 44/69/15 43/68/15

v 11.8634 7.551 -13.7579
vt -66.2488 7.8259e-013
f 44/69/15 46/71/15 47/72/15

usemtl BackColor
f 47/72/16 46/71/16 44/69/16

usemtl _Tile_Ceramic_Natural_14
v 11.8638 7.551 -14.8704
vt 8.41402 10.5464
vn -2.40792e-015 1 -8.69742e-015
vt 8.41376 9.7574
vt 8.4138 9.88089
f 48/73/17 47/74/17 46/75/17

v 4.63292 7.551 -12.2703
vt 3.28576 8.70235
f 48/73/17 49/76/17 47/74/17

v 4.33377 7.551 -14.8728
vt 3.0736 10.5481
f 50/77/17 49/76/17 48/73/17

v 4.33374 7.551 -14.7704
vt 3.07357 10.4755
f 51/78/17 49/76/17 50/77/17

v 4.33302 7.551 -12.5704
vt 3.07306 8.91519
f 52/79/17 49/76/17 51/78/17

v 4.33292 7.551 -12.2704
vt 3.07299 8.70242
f 49/76/17 52/79/17 53/80/17

usemtl _7
vt 1.4146 2.5204
vn 2.40792e-015 -1 8.69742e-015
vt 1.41463 2.58202
vt 1.51254 2.52038
f 53/81/18 52/82/18 49/83/18

usemtl Color_D03
vt 19.3984 1.53533e-012
v 4.33292 11.151 -12.2704
vt 7.58742 141.732
vt 7.58742 2.84776e-013
f 52/84/2 54/85/2 53/86/2

v 4.33302 8.451 -12.5704
vt 19.3984 35.4331
f 54/85/2 52/84/2 55/87/2

usemtl BackColor
f 53/86/1 54/85/1 52/84/1

usemtl Color_D03
vt -1.96212 141.732
vt -13.7731 2.88335e-013
vt -1.96212 2.88335e-013
f 54/88/4 49/89/4 53/90/4

v 4.63292 11.151 -12.2703
vt -13.7731 141.732
f 49/89/4 54/88/4 56/91/4

usemtl BackColor
f 53/90/3 49/89/3 54/88/3

f 56/91/3 54/88/3 49/89/3

usemtl Color_D03
v 4.63285 11.151 -12.0803
vt 0.107106 141.732
vt 7.58742 2.88138e-013
f 57/92/2 49/93/2 56/85/2

v 4.63285 7.551 -12.0803
vt 0.107106 2.88138e-013
f 49/93/2 57/92/2 58/94/2

usemtl BackColor
f 58/94/1 57/92/1 49/93/1

usemtl Color_D03
v 12.5533 7.551 -12.0777
vt -325.602 1.7622e-012
vt -13.7731 2.84275e-013
f 57/91/4 59/95/4 58/96/4

v 12.5533 11.151 -12.0777
vt -325.602 141.732
f 59/95/4 57/91/4 60/97/4

usemtl BackColor
f 58/96/3 59/95/3 57/91/3

usemtl _Tile_Ceramic_Natural_14
vt 8.90306 8.56575
vt 3.28571 8.5676
f 59/98/17 49/76/17 58/99/17

v 12.5419 7.551 -12.1049
vt 8.89496 8.58504
f 49/76/17 59/98/17 61/100/17

usemtl _7
vt 1.51252 2.48135
vt 4.09837 2.48081
f 58/101/18 49/83/18 59/102/18

vt 4.09465 2.4864
f 61/103/18 59/102/18 49/83/18

usemtl _Color_C03_3
vt 125.969 1.90408e-012
vn -0.92213 4.72712e-016 0.38688
v 12.5419 11.151 -12.1049
vt 124.808 141.732
vt 124.808 1.90408e-012
f 59/104/19 62/105/19 61/106/19

vt 125.969 141.732
f 62/105/19 59/104/19 60/107/19

usemtl BackColor
vn 0.92213 -4.72712e-016 -0.38688
f 60/107/20 59/104/20 62/105/20

f 60/97/3 57/91/3 59/95/3

f 61/106/20 62/105/20 59/104/20

usemtl _Color_C03_3
v 12.5577 11.151 -12.23
vt -46.8227 141.732
vn -0.992097 2.14553e-016 -0.12547
vt -41.8593 1.83133e-012
vt -41.8593 141.732
f 63/108/21 61/109/21 62/110/21

v 12.5577 7.551 -12.23
vt -46.8227 1.83133e-012
f 61/109/21 63/108/21 64/111/21

usemtl BackColor
vn 0.992097 -2.14553e-016 0.12547
f 62/110/22 61/109/22 63/108/22

f 64/111/22 63/108/22 61/109/22

usemtl _Color_C03_3
v 12.6339 11.151 -12.3304
vt -206.596 141.732
vn -0.79678 -1.00895e-016 -0.60427
vt -201.633 1.73632e-012
vt -201.633 141.732
f 65/112/23 64/113/23 63/114/23

v 12.6339 7.551 -12.3304
vt -206.596 1.73632e-012
f 64/113/23 65/112/23 66/115/23

usemtl BackColor
vn 0.79678 1.00895e-016 0.60427
f 63/114/24 64/113/24 65/112/24

f 66/115/24 65/112/24 64/113/24

usemtl _Color_C03_3
vt -306.827 141.732
vn -0.388404 -3.89364e-016 -0.921489
v 12.6929 7.551 -12.3553
vt -309.35 1.71599e-012
vt -306.827 1.71599e-012
f 65/116/25 67/117/25 66/118/25

v 12.6929 11.151 -12.3553
vt -309.35 141.732
f 67/117/25 65/116/25 68/119/25

usemtl BackColor
vn 0.388404 3.89364e-016 0.921489
f 66/118/26 67/117/26 65/116/26

usemtl _Tile_Ceramic_Natural_14
v 12.6934 7.551 -13.7577
vt 9.00242 9.75721
vt 8.96021 8.74499
vt 9.00209 8.76264
f 69/120/17 66/121/17 67/122/17

vt 8.90618 8.67375
f 69/120/17 64/123/17 66/121/17

f 69/120/17 61/100/17 64/123/17

f 61/100/17 69/120/17 47/74/17

usemtl _7
vt 3.87313 2.82594
vt 4.14411 2.82588
f 47/124/18 69/125/18 61/103/18

usemtl Color_D03
v 12.6934 11.151 -13.7577
vt 331.096 141.732
vt 298.419 2.06484e-013
vt 331.096 2.06484e-013
f 70/126/3 47/127/3 69/128/3

vt 298.419 141.732
f 47/127/3 70/126/3 44/129/3

usemtl BackColor
f 69/128/4 47/127/4 70/126/4

f 44/129/4 70/126/4 47/127/4

usemtl Color_D03
vt -11.0385 1.85641e-012
vt -66.2488 2.64796e-013
f 67/130/1 70/69/1 69/131/1

vt -11.0385 141.732
f 70/69/1 67/130/1 68/132/1

usemtl BackColor
f 68/132/2 67/130/2 70/69/2

f 68/119/26 65/116/26 67/117/26

f 69/131/2 70/69/2 67/130/2

usemtl _7
vt 4.14396 2.53784
vt 4.12468 2.53272
f 67/133/18 66/134/18 69/125/18

vt 4.09981 2.51209
f 66/134/18 64/135/18 69/125/18

f 64/135/18 61/103/18 69/125/18

usemtl _Tile_Ceramic_Natural_14
f 49/76/17 61/100/17 47/74/17

usemtl _7
f 47/124/18 61/103/18 49/83/18

vt 3.87325 3.05444
f 47/124/18 49/83/18 48/136/18

vt 1.41488 3.05495
f 48/136/18 49/83/18 50/137/18

vt 1.41487 3.03391
f 50/137/18 49/83/18 51/138/18

f 51/138/18 49/83/18 52/82/18

usemtl Color_D03
vt 106.013 5.58633e-016
f 51/139/2 55/87/2 52/84/2

v 4.33374 8.451 -14.7704
vt 106.013 35.4331
f 55/87/2 51/139/2 71/140/2

usemtl BackColor
f 52/84/1 55/87/1 51/139/1

f 55/87/1 52/84/1 54/85/1

usemtl Color_D03
v 4.33302 9.851 -12.5704
vt 19.3984 90.5512
f 54/85/2 55/87/2 72/141/2

usemtl BackColor
f 72/141/1 55/87/1 54/85/1

usemtl Color_D03
v 4.33377 11.151 -14.8728
vt 110.045 141.732
f 54/85/2 72/141/2 73/142/2

usemtl BackColor
f 73/142/1 72/141/1 54/85/1

usemtl Color_D03
v 4.33374 9.851 -14.7704
vt 106.013 90.5512
f 73/142/2 72/141/2 74/143/2

usemtl BackColor
f 74/143/1 72/141/1 73/142/1

usemtl Color_D03
f 73/142/2 74/143/2 71/140/2

usemtl BackColor
f 71/140/1 74/143/1 73/142/1

usemtl Color_D03
vt 110.045 5.58633e-016
f 73/142/2 71/140/2 50/144/2

usemtl BackColor
f 50/144/1 71/140/1 73/142/1

usemtl Color_D03
f 71/140/2 51/139/2 50/144/2

usemtl BackColor
f 71/140/1 51/139/1 55/87/1

f 50/144/1 51/139/1 71/140/1

usemtl Color_D03
vt 298.419 1.76503e-012
vt 1.96212 141.732
vt 1.96212 5.97229e-014
f 48/145/3 73/146/3 50/147/3

f 73/146/3 48/145/3 42/129/3

usemtl BackColor
f 50/147/4 73/146/4 48/145/4

f 42/129/4 48/145/4 73/146/4

usemtl Color_D03
v 11.8637 7.551 -14.7821
vt -106.568 7.25746e-013
vt -110.045 2.31736e-012
f 75/148/15 42/67/15 48/149/15

f 45/70/15 42/67/15 75/148/15

usemtl BackColor
f 45/70/16 42/67/16 43/68/16

f 75/148/16 42/67/16 45/70/16

f 48/149/16 42/67/16 75/148/16

usemtl _Tile_Ceramic_Natural_14
vt 8.414 10.4837
f 48/73/17 46/75/17 75/150/17

usemtl _7
vt 3.87315 2.8617
f 46/151/18 47/124/18 48/136/18

vt 3.87324 3.0363
f 75/152/18 46/151/18 48/136/18

usemtl BackColor
f 56/85/1 49/93/1 57/92/1

f 43/68/16 44/69/16 46/71/16

g Mesh7 DES0443 Model

l 44 42

l 47 44

l 47 46

l 69 47

l 69 70

l 67 69

l 67 68

l 67 66

l 66 65

l 66 64

l 64 63

l 64 61

l 61 62

l 61 59

l 59 60

l 58 59

l 58 49

l 58 57

l 57 56

l 57 60

l 62 60

l 63 62

l 65 63

l 68 65

l 68 70

l 70 44

l 49 56

l 49 53

l 53 54

l 53 52

l 51 52

l 51 50

l 50 73

l 50 48

l 48 42

l 75 48

l 75 45

l 46 75

l 46 43

l 43 45

l 73 42

l 54 73

l 56 54

g Mesh8 DES0443 Model

l 55 72

l 71 55

l 71 74

l 72 74

