# Alias OBJ Model File
# Exported from SketchUp, (c) 2000-2012 Trimble Navigation Limited
# File units = meters

mtllib DES015.mtl

g Mesh1 DES015 Model

usemtl Color_D03
v 21.1379 7.551 -27.5512
vt 0.0422191 1.3074e-012
vn 1 -2.24658e-014 0.000328946
v 21.1388 11.151 -30.106
vt 100.626 141.732
v 21.1379 11.151 -27.5512
vt 0.0422191 141.732
f 1/1/1 2/2/1 3/3/1

v 21.1388 7.551 -30.106
vt 100.626 1.02318e-012
f 2/2/1 1/1/1 4/4/1

usemtl BackColor
vn -1 2.24658e-014 -0.000328946
f 3/3/2 2/2/2 1/1/2

f 4/4/2 1/1/2 2/2/2

usemtl _Tile_Ceramic_Natural_14
v 24.3979 7.551 -27.5512
vt 17.3035 19.5398
vn 8.82403e-015 1 -1.82582e-015
vt 14.992 21.3518
vt 14.9915 19.5398
f 5/5/3 4/6/3 1/7/3

v 21.1655 7.551 -30.0948
vt 15.011 21.3438
f 4/6/3 5/5/3 6/8/3

usemtl _7
vt 6.90106 5.65913
vn -8.82403e-015 -1 1.82582e-015
vt 6.90133 6.1839
vt 7.96538 5.65913
f 1/9/4 4/10/4 5/11/4

vt 6.91007 6.18161
f 6/12/4 5/11/4 4/10/4

usemtl _Tile_Ceramic_Natural_14
v 21.2906 7.551 -30.1108
vt 15.0997 21.3552
f 6/8/3 5/5/3 7/13/3

usemtl _7
vt 6.95089 6.18488
f 7/14/4 5/11/4 6/12/4

usemtl _Tile_Ceramic_Natural_14
v 21.3401 7.551 -30.1484
vt 15.1348 21.3819
f 7/13/3 5/5/3 8/15/3

usemtl _7
vt 6.96707 6.19261
f 8/16/4 5/11/4 7/14/4

usemtl _Tile_Ceramic_Natural_14
v 24.3988 7.551 -30.1484
vt 17.3041 21.3819
f 8/15/3 5/5/3 9/17/3

usemtl _7
vt 7.96565 6.19261
f 9/18/4 5/11/4 8/16/4

usemtl Color_D03
vt -0.0844382 1.43575e-012
vn -1 1.11865e-014 -0.000328946
v 24.3988 11.151 -30.1484
vt -102.338 141.732
vt -102.338 1.43575e-012
f 5/19/5 10/20/5 9/21/5

v 24.3979 7.551 -27.5501
vt -0.0422191 1.4926e-012
f 11/22/5 10/20/5 5/19/5

v 24.3979 11.151 -27.5501
vt -0.0422191 141.732
f 10/20/5 11/22/5 12/23/5

usemtl BackColor
vn 1 -1.11865e-014 0.000328946
f 12/23/6 11/22/6 10/20/6

usemtl Color_D03
vt -128.346 5.65867e-014
vn 0.000328946 6.07949e-015 -1
v 24.2979 9.651 -27.5501
vt -124.409 82.6772
vt -128.346 141.732
f 11/24/7 13/25/7 12/26/7

v 24.2979 7.551 -27.5501
vt -124.409 5.65867e-014
f 13/25/7 11/24/7 14/27/7

usemtl BackColor
vn -0.000328946 -6.07949e-015 1
f 14/27/8 11/24/8 13/25/8

f 12/26/8 13/25/8 11/24/8

usemtl Color_D03
vt 1.38878e-005 141.732
f 13/25/7 3/28/7 12/26/7

v 23.4479 9.651 -27.5504
vt -90.9449 82.6772
f 15/29/7 3/28/7 13/25/7

vt 1.38878e-005 1.30714e-012
f 15/29/7 1/30/7 3/28/7

v 23.4479 7.551 -27.5504
vt -90.9449 4.54491e-013
f 1/30/7 15/29/7 16/31/7

usemtl BackColor
f 16/31/8 15/29/8 1/30/8

f 3/28/8 1/30/8 15/29/8

f 13/25/8 3/28/8 15/29/8

f 12/26/8 3/28/8 13/25/8

f 5/19/6 10/20/6 11/22/6

f 9/21/6 10/20/6 5/19/6

usemtl Color_D03
vt 128.346 141.732
vn -0.000328946 9.62785e-015 1
v 21.3415 7.551 -30.1494
vt 7.97867 2.23585e-012
vt 128.346 9.85293e-013
f 10/32/9 17/33/9 9/34/9

v 21.3415 11.151 -30.1494
vt 7.97867 141.732
f 17/33/9 10/32/9 18/35/9

usemtl BackColor
vn 0.000328946 -9.62785e-015 -1
f 9/34/10 17/33/10 10/32/10

f 18/35/10 10/32/10 17/33/10

usemtl _Color_C03_3
vt 65.7831 1.1544e-012
vn 0.605063 -1.25476e-015 0.796178
vt 68.2984 1.1544e-012
vt 68.2984 141.732
f 7/36/11 17/37/11 18/38/11

vt 68.233 5.29127e-013
f 17/37/11 7/36/11 8/39/11

usemtl BackColor
vn -0.605063 1.25476e-015 -0.796178
f 8/39/12 7/36/12 17/37/12

f 18/38/12 17/37/12 7/36/12

usemtl _Color_C03_3
v 21.2906 11.151 -30.1108
vt 65.7831 141.732
f 7/36/11 18/38/11 19/40/11

usemtl BackColor
f 19/40/12 18/38/12 7/36/12

usemtl _Color_C03_3
v 21.1655 11.151 -30.0948
vt 13.7466 141.732
vn 0.126457 5.02235e-016 0.991972
vt 18.71 1.3004e-012
vt 18.71 141.732
f 20/41/13 7/42/13 19/43/13

vt 13.7466 1.07303e-012
f 7/42/13 20/41/13 6/44/13

usemtl BackColor
vn -0.126457 -5.02235e-016 -0.991972
f 6/44/14 20/41/14 7/42/14

usemtl _Color_C03_3
vt -37.6659 141.732
vn -0.385962 6.10528e-016 0.922515
vt -38.8074 1.07986e-012
vt -37.6659 1.07986e-012
f 20/45/15 4/46/15 6/47/15

vt -38.8074 141.732
f 4/46/15 20/45/15 2/48/15

usemtl BackColor
vn 0.385962 -6.10528e-016 -0.922515
f 6/47/16 4/46/16 20/45/16

f 2/48/16 20/45/16 4/46/16

f 19/43/14 7/42/14 20/41/14

g Mesh2 DES015 Model

l 4 2

l 1 4

l 1 3

l 16 1

l 16 15

l 15 13

l 14 13

l 14 11

l 11 5

l 11 12

l 12 10

l 3 12

l 3 2

l 2 20

l 20 19

l 6 20

l 4 6

l 6 7

l 7 8

l 7 19

l 19 18

l 17 18

l 8 17

l 9 8

l 9 10

l 5 9

l 1 5

l 9 17

l 10 18

