# Alias OBJ Model File
# Exported from SketchUp, (c) 2000-2012 Trimble Navigation Limited
# File units = meters

mtllib DES033.mtl

g Mesh1 des033 Model

usemtl _Color_C03_3
v 12.7027 11.151 -42.0596
vt 132.614 141.732
vn -0.12711 5.74428e-016 0.991889
v 12.7009 7.551 -42.0598
vt 132.542 1.60948e-012
v 12.7027 7.551 -42.0596
vt 132.614 1.60948e-012
f 1/1/1 2/2/1 3/3/1

v 12.7009 11.151 -42.0598
vt 132.542 141.732
f 2/2/1 1/1/1 4/4/1

usemtl BackColor
vn 0.12711 -5.74428e-016 -0.991889
f 3/3/2 2/2/2 1/1/2

usemtl _Tile_Ceramic_Natural_14
vt 9.00774 29.8296
vn -7.7839e-015 1 -3.73942e-016
v 12.7018 7.551 -39.2113
vt 9.00835 27.8094
vt 9.00902 29.8295
f 2/5/3 5/6/3 3/7/3

v 12.6006 7.551 -42.1361
vt 8.93659 29.8838
f 6/8/3 5/6/3 2/5/3

v 12.5622 7.551 -42.2277
vt 8.90934 29.9487
f 7/9/3 5/6/3 6/8/3

v 8.94277 7.551 -42.2289
vt 6.34239 29.9496
f 8/10/3 5/6/3 7/9/3

v 8.94214 7.551 -40.3089
vt 6.34194 28.5879
f 9/11/3 5/6/3 8/10/3

v 8.94186 7.551 -39.4589
vt 6.34175 27.985
f 10/12/3 5/6/3 9/11/3

v 8.94178 7.551 -39.2125
vt 6.34169 27.8103
f 5/6/3 10/12/3 11/13/3

usemtl BackColor
vt 4.42463e-028 0.0486944
vn 7.7839e-015 -1 3.73942e-016
vt 0.00319058 9.7481
vt 148.031 -1.64293e-028
f 11/14/4 10/15/4 5/16/4

usemtl Color_D03
v 8.94186 9.651 -39.4589
vt 9.7481 82.6772
vn 1 -2.84708e-016 0.000328946
vt 0.0486944 5.68434e-014
vt 9.7481 5.68434e-014
f 12/17/5 11/18/5 10/19/5

v 8.94178 11.151 -39.2125
vt 0.0486944 141.732
f 12/17/5 13/20/5 11/18/5

v 8.94277 11.151 -42.2289
vt 118.803 141.732
f 13/20/5 12/17/5 14/21/5

usemtl BackColor
vn -1 2.84708e-016 -0.000328946
f 14/21/6 12/17/6 13/20/6

usemtl Color_D03
v 8.94214 9.651 -40.3089
vt 43.2127 82.6772
f 14/21/5 12/17/5 15/22/5

usemtl BackColor
f 15/22/6 12/17/6 14/21/6

usemtl Color_D03
vt 118.803 -4.56041e-021
f 14/21/5 15/22/5 8/23/5

usemtl BackColor
f 8/23/6 15/22/6 14/21/6

usemtl Color_D03
vt 43.2127 1.59162e-012
f 8/23/5 15/22/5 9/24/5

usemtl BackColor
f 9/24/6 15/22/6 8/23/6

vt 0.0390639 118.803
vt 0.0141986 43.2127
f 8/25/4 5/16/4 9/26/4

vt 142.535 118.756
f 7/27/4 5/16/4 8/25/4

vt 144.048 115.151
f 6/28/4 5/16/4 7/27/4

vt 147.997 112.146
f 2/29/4 5/16/4 6/28/4

vt 148.068 112.137
f 3/30/4 5/16/4 2/29/4

usemtl Color_D03
v 12.7018 11.151 -39.2113
vt -0.0486944 141.732
vt -112.185 1.57692e-012
vt -0.0486944 1.63376e-012
f 16/31/6 3/32/6 5/33/6

vt -112.185 141.732
f 3/32/6 16/31/6 1/34/6

usemtl BackColor
f 5/33/5 3/32/5 16/31/5

f 1/34/5 16/31/5 3/32/5

usemtl Color_D03
vt -148.031 1.59164e-012
vn 0.000328946 -5.42711e-016 -1
vt 1.60178e-005 141.732
vt -148.031 141.732
f 5/35/7 13/36/7 16/37/7

vt 1.60178e-005 5.68698e-014
f 13/36/7 5/35/7 11/38/7

usemtl BackColor
vn -0.000328946 5.42711e-016 1
f 11/38/8 5/35/8 13/36/8

f 16/37/8 13/36/8 5/35/8

f 11/18/6 13/20/6 12/17/6

f 10/19/6 11/18/6 12/17/6

usemtl _Color_C03_3
vt 49.8594 141.732
vn -0.605586 6.04327e-016 0.79578
vt 44.8961 1.64287e-012
vt 49.8594 1.64287e-012
f 4/39/9 6/40/9 2/41/9

v 12.6006 11.151 -42.1361
vt 44.8961 141.732
f 6/40/9 4/39/9 17/42/9

usemtl BackColor
vn 0.605586 -6.04327e-016 -0.79578
f 2/41/10 6/40/10 4/39/10

f 17/42/10 4/39/10 6/40/10

usemtl _Color_C03_3
v 12.5622 11.151 -42.2277
vt -54.3647 141.732
vn -0.92213 4.72631e-016 0.38688
vt -50.4554 1.61861e-012
vt -50.4554 141.732
f 18/43/11 6/44/11 17/45/11

vt -54.3647 1.61861e-012
f 6/44/11 18/43/11 7/46/11

usemtl BackColor
vn 0.92213 -4.72631e-016 -0.38688
f 17/45/12 6/44/12 18/43/12

f 7/46/12 18/43/12 6/44/12

usemtl Color_D03
vt -1.60178e-005 141.732
vt 142.496 1.59925e-012
vt 142.496 141.732
f 14/47/8 7/48/8 18/49/8

vt -1.60178e-005 6.44758e-014
f 7/48/8 14/47/8 8/50/8

usemtl BackColor
f 8/50/7 14/47/7 7/48/7

f 18/49/7 7/48/7 14/47/7

f 4/4/2 1/1/2 2/2/2

f 9/26/4 5/16/4 10/15/4

g Mesh2 des033 Model

l 2 3

l 2 4

l 6 2

l 6 17

l 7 6

l 8 7

l 9 8

l 9 15

l 10 9

l 10 11

l 10 12

l 12 15

l 11 13

l 11 5

l 5 16

l 5 3

l 3 1

l 4 1

l 17 4

l 18 17

l 14 18

l 13 14

l 13 16

l 16 1

l 8 14

l 7 18

