# Alias OBJ Model File
# Exported from SketchUp, (c) 2000-2012 Trimble Navigation Limited
# File units = meters

mtllib DES013.mtl

g Mesh1 ventana1_1 DES013 Model

usemtl Color_000
v 32.0871 9.901 -26.9813
vt 84.6457 0
vn 4.80478e-017 1 -2.83193e-016
v 32.0371 9.901 -24.8813
vt 1.9685 1.9685
v 32.0871 9.901 -24.8813
vt 1.9685 9.09495e-013
f 1/1/1 2/2/1 3/3/1

v 32.0371 9.901 -26.9813
vt 84.6457 1.9685
f 2/2/1 1/1/1 4/4/1

vn -4.80478e-017 -1 2.83193e-016
f 3/3/2 2/2/2 1/1/2

vt 1.9685 57.0866
vn 3.34533e-012 -2.83193e-016 -1
v 32.0871 10.501 -24.8813
vt 9.09495e-013 80.7087
vt 9.09495e-013 57.0866
f 2/5/3 5/6/3 3/7/3

v 32.0371 10.501 -24.8813
vt 1.9685 80.7087
f 5/6/3 2/5/3 6/8/3

vn -3.34533e-012 2.83193e-016 1
f 3/7/4 5/6/4 2/5/4

v 32.0871 10.551 -24.8313
vt 0 82.6772
vn 1 -4.80478e-017 3.34533e-012
f 7/9/5 3/5/5 5/8/5

v 32.0871 9.851 -24.8313
vt 0 55.1181
f 8/10/5 3/5/5 7/9/5

v 32.0871 9.851 -27.0313
vt 86.6142 55.1181
f 8/10/5 9/11/5 3/5/5

v 32.0871 9.851 -25.9813
vt 45.2756 55.1181
f 9/11/5 8/10/5 10/12/5

vn -1 4.80478e-017 -3.34533e-012
f 10/12/6 8/10/6 9/11/6

usemtl Color_F17
vt 45.2756 9.09495e-013
v 32.0371 9.851 -24.8313
vt 0 1.9685
vt 0 0
f 10/13/1 11/14/1 8/15/1

v 32.0371 9.851 -25.9813
vt 45.2756 1.9685
f 11/14/1 10/13/1 12/16/1

usemtl Color_000
f 8/15/2 11/14/2 10/13/2

vt -1.9685 55.1181
v 32.0871 9.011 -24.8313
vt 0 22.0472
f 11/17/4 13/18/4 8/10/4

v 32.0371 9.011 -24.8313
vt -1.9685 22.0472
f 13/18/4 11/17/4 14/19/4

f 8/10/3 13/18/3 11/17/3

v 32.0871 9.14284 -24.8507
vt 0.762775 27.238
f 13/18/5 15/20/5 8/10/5

v 32.0871 9.00784 -24.8507
vt 0.762775 21.923
f 13/18/5 16/21/5 15/20/5

v 32.0871 8.501 -24.8813
f 13/18/5 17/2/5 16/21/5

v 32.0871 8.451 -24.8313
f 18/15/5 17/2/5 13/18/5

v 32.0871 8.501 -25.9813
f 18/15/5 19/16/5 17/2/5

v 32.0871 8.451 -25.9813
vt 45.2756 0
f 19/16/5 18/15/5 20/22/5

f 20/22/6 18/15/6 19/16/6

usemtl Color_F17
v 32.0371 8.451 -25.9813
vt -45.2756 1.9685
vt -45.2756 9.09495e-013
f 18/15/2 21/23/2 20/24/2

v 32.0371 8.451 -24.8313
f 21/23/2 18/15/2 22/14/2

usemtl Color_000
f 22/14/1 18/15/1 21/23/1

vt -1.9685 0
f 18/15/4 14/19/4 22/25/4

f 14/19/4 18/15/4 13/18/4

f 13/18/3 18/15/3 14/19/3

f 13/18/6 17/2/6 18/15/6

f 16/21/6 17/2/6 13/18/6

v 32.0871 9.00784 -24.8697
vt 1.51081 21.923
f 16/21/5 17/2/5 23/26/5

f 23/26/6 17/2/6 16/21/6

v 32.0871 9.801 -24.8813
vt 1.9685 53.1496
f 24/27/5 23/26/5 17/2/5

v 32.0871 9.14284 -24.8697
vt 1.51081 27.238
f 23/26/5 24/27/5 25/28/5

f 17/2/6 23/26/6 24/27/6

f 25/28/6 24/27/6 23/26/6

f 25/28/5 24/27/5 15/20/5

f 15/20/6 24/27/6 25/28/6

f 8/10/5 15/20/5 24/27/5

f 8/10/6 15/20/6 13/18/6

f 24/27/6 15/20/6 8/10/6

f 8/10/5 24/27/5 10/12/5

f 10/12/6 24/27/6 8/10/6

v 32.0871 9.801 -25.9313
vt 43.3071 53.1496
f 26/29/5 10/12/5 24/27/5

v 32.0871 9.801 -25.9813
vt 45.2756 53.1496
f 26/29/5 27/30/5 10/12/5

v 32.0871 8.501 -25.9313
vt 43.3071 1.9685
f 28/31/5 27/30/5 26/29/5

f 27/30/5 28/31/5 19/16/5

f 19/16/6 28/31/6 27/30/6

f 17/2/5 19/16/5 28/31/5

f 17/2/6 19/16/6 18/15/6

f 28/31/6 19/16/6 17/2/6

vt 43.3071 0
v 32.0371 8.501 -24.8813
f 28/32/1 29/2/1 17/3/1

v 32.0371 8.501 -25.9313
f 29/2/1 28/32/1 30/31/1

f 17/3/2 29/2/2 28/32/2

vt 9.09495e-013 53.1496
vt 9.09495e-013 1.9685
f 29/2/3 24/33/3 17/34/3

v 32.0371 9.801 -24.8813
f 24/33/3 29/2/3 31/27/3

f 17/34/4 24/33/4 29/2/4

f 31/27/4 29/2/4 24/33/4

usemtl Color_F17
v 32.0371 9.00784 -24.8697
f 31/27/5 32/26/5 29/2/5

v 32.0371 9.14284 -24.8697
f 32/26/5 31/27/5 33/28/5

usemtl Color_000
f 29/2/6 32/26/6 31/27/6

usemtl Color_F17
v 32.0371 9.00784 -24.8507
f 34/21/5 29/2/5 32/26/5

vt -2.27923e-031 22.0472
f 14/35/5 29/2/5 34/21/5

vt -2.27923e-031 0
f 22/36/5 29/2/5 14/35/5

v 32.0371 8.501 -25.9813
f 22/36/5 35/16/5 29/2/5

f 35/16/5 22/36/5 21/22/5

usemtl Color_000
f 21/22/6 22/36/6 35/16/6

f 29/2/6 35/16/6 22/36/6

usemtl Color_F17
f 29/2/5 35/16/5 30/31/5

usemtl Color_000
f 30/31/6 35/16/6 29/2/6

usemtl Color_F17
v 32.0371 9.801 -25.9813
f 36/30/5 30/31/5 35/16/5

v 32.0371 9.801 -25.9313
f 30/31/5 36/30/5 37/29/5

usemtl Color_000
f 35/16/6 30/31/6 36/30/6

f 37/29/6 36/30/6 30/31/6

usemtl Color_F17
f 37/29/5 36/30/5 12/12/5

usemtl Color_000
f 12/12/6 36/30/6 37/29/6

usemtl Color_F17
vt -9.09495e-013 53.1496
vt -1.9685 53.1496
f 27/37/4 12/17/4 36/38/4

vt -9.09495e-013 55.1181
f 12/17/4 27/37/4 10/39/4

usemtl Color_000
f 10/39/3 27/37/3 12/17/3

f 10/12/6 27/30/6 26/29/6

v 32.0871 9.801 -26.9813
vt 84.6457 53.1496
f 10/12/5 27/30/5 38/40/5

f 38/40/6 27/30/6 10/12/6

usemtl Color_F17
v 32.0371 9.801 -26.9813
vt -84.6457 1.9685
vt -84.6457 0
f 27/24/2 39/41/2 38/42/2

f 39/41/2 27/24/2 36/23/2

usemtl Color_000
f 36/23/1 27/24/1 39/41/1

f 36/38/3 12/17/3 27/37/3

f 12/12/5 36/30/5 39/40/5

f 39/40/6 36/30/6 12/12/6

usemtl Translucent_Glass_Blue
v 32.0371 8.501 -26.9813
f 36/30/5 40/4/5 39/40/5

f 40/4/5 36/30/5 35/16/5

f 35/16/6 36/30/6 40/4/6

usemtl Color_000
f 27/33/3 35/2/3 36/27/3

f 35/2/3 27/33/3 19/34/3

f 19/34/4 27/33/4 35/2/4

f 36/27/4 35/2/4 27/33/4

usemtl Color_F17
vt 1.9685 0
f 19/34/3 21/43/3 35/2/3

vt 9.09495e-013 0
f 21/43/3 19/34/3 20/44/3

usemtl Color_000
f 20/44/4 19/34/4 21/43/4

v 32.0871 8.451 -27.0313
vt 86.6142 5.68434e-014
f 41/45/5 19/16/5 20/22/5

v 32.0871 8.501 -26.9813
f 19/16/5 41/45/5 42/4/5

f 20/22/6 19/16/6 41/45/6

f 42/4/6 41/45/6 19/16/6

v 32.0871 9.00784 -27.0177
vt 86.0777 21.923
f 42/4/5 41/45/5 43/46/5

f 43/46/6 41/45/6 42/4/6

f 43/46/5 41/45/5 9/11/5

f 9/11/6 41/45/6 43/46/6

usemtl Color_F17
v 32.0371 8.451 -27.0313
vt 1.9685 5.68434e-014
vt -1.00286e-029 55.1181
vt -1.00286e-029 5.68434e-014
f 44/47/3 9/48/3 41/49/3

v 32.0371 9.851 -27.0313
vt 1.9685 55.1181
f 9/48/3 44/47/3 45/50/3

usemtl Color_000
f 41/49/4 9/48/4 44/47/4

f 45/50/4 44/47/4 9/48/4

v 32.0371 9.00784 -27.0177
f 46/46/5 44/45/5 45/11/5

f 40/4/5 44/45/5 46/46/5

f 35/16/5 44/45/5 40/4/5

f 44/45/5 35/16/5 21/22/5

f 21/22/6 35/16/6 44/45/6

f 35/2/4 21/43/4 19/34/4

vn 4.80478e-017 1 -3.73432e-016
f 42/1/7 35/16/7 19/13/7

f 35/16/7 42/1/7 40/4/7

vn -4.80478e-017 -1 3.73432e-016
f 19/13/8 35/16/8 42/1/8

f 40/4/8 42/1/8 35/16/8

vt 9.80069e-030 1.9685
vt -1.9685 1.9685
f 42/51/4 39/38/4 40/52/4

vt 9.80069e-030 53.1496
f 39/38/4 42/51/4 38/53/4

f 38/53/3 42/51/3 39/38/3

v 32.0871 9.00784 -26.9987
vt 85.3297 21.923
f 42/4/5 47/54/5 38/40/5

f 47/54/5 42/4/5 43/46/5

f 38/40/6 47/54/6 42/4/6

v 32.0871 9.14284 -26.9987
vt 85.3297 27.238
f 38/40/5 47/54/5 48/55/5

f 48/55/6 47/54/6 38/40/6

usemtl Color_F17
v 32.0371 9.00784 -26.9987
vt 1.9685 21.923
vt -9.87989e-030 27.238
vt -9.87989e-030 21.923
f 49/56/3 48/57/3 47/58/3

v 32.0371 9.14284 -26.9987
vt 1.9685 27.238
f 48/57/3 49/56/3 50/59/3

usemtl Color_000
f 47/58/4 48/57/4 49/56/4

v 32.0871 9.14284 -27.0177
vt 86.0777 27.238
f 47/54/5 51/60/5 48/55/5

f 51/60/5 47/54/5 43/46/5

f 43/46/6 47/54/6 51/60/6

f 43/46/6 42/4/6 47/54/6

usemtl Color_F17
vt 86.0777 0
vt 85.3297 1.9685
vt 85.3297 0
f 43/61/1 49/62/1 47/63/1

vt 86.0777 1.9685
f 49/62/1 43/61/1 46/64/1

usemtl Color_000
f 47/63/2 49/62/2 43/61/2

f 46/64/2 43/61/2 49/62/2

vt -9.9665e-030 27.238
vt -9.9665e-030 21.923
f 46/56/3 51/65/3 43/66/3

v 32.0371 9.14284 -27.0177
f 51/65/3 46/56/3 52/59/3

f 43/66/4 51/65/4 46/56/4

f 43/46/5 9/11/5 51/60/5

f 51/60/6 9/11/6 43/46/6

f 51/60/5 9/11/5 48/55/5

f 48/55/6 9/11/6 51/60/6

f 48/55/5 9/11/5 38/40/5

f 38/40/6 9/11/6 48/55/6

f 38/40/5 9/11/5 10/12/5

f 10/12/6 9/11/6 38/40/6

usemtl Color_F17
vt 86.6142 0
f 9/67/1 12/16/1 10/13/1

vt 86.6142 1.9685
f 12/16/1 9/67/1 45/68/1

usemtl Color_000
f 10/13/2 12/16/2 9/67/2

f 12/16/2 10/13/2 11/14/2

usemtl Color_F17
vt -2.27923e-031 55.1181
f 45/11/5 11/69/5 12/12/5

f 11/69/5 45/11/5 2/5/5

usemtl Color_000
f 12/12/6 11/69/6 45/11/6

usemtl Color_F17
f 11/69/5 31/27/5 12/12/5

v 32.0371 9.14284 -24.8507
f 11/69/5 53/20/5 31/27/5

f 14/35/5 53/20/5 11/69/5

f 14/35/5 34/21/5 53/20/5

usemtl Color_000
f 34/21/6 29/2/6 14/35/6

f 32/26/6 29/2/6 34/21/6

f 33/28/5 34/21/5 32/26/5

f 34/21/5 33/28/5 53/20/5

f 32/26/6 34/21/6 33/28/6

usemtl Color_F17
vt 0.762775 1.9685
vt 1.51081 0
vt 1.51081 1.9685
f 34/70/1 23/71/1 32/72/1

vt 0.762775 0
f 23/71/1 34/70/1 16/73/1

usemtl Color_000
f 16/73/2 34/70/2 23/71/2

usemtl Color_F17
vt -8.83178e-032 27.238
vt -8.83178e-032 21.923
f 34/56/3 15/74/3 16/75/3

f 15/74/3 34/56/3 53/59/3

usemtl Color_000
f 16/75/4 15/74/4 34/56/4

f 16/21/5 25/28/5 15/20/5

f 25/28/5 16/21/5 23/26/5

f 23/26/6 16/21/6 25/28/6

f 15/20/6 25/28/6 16/21/6

f 25/71/1 53/70/1 15/73/1

f 53/70/1 25/71/1 33/72/1

f 15/73/2 53/70/2 25/71/2

f 53/59/4 34/56/4 15/74/4

f 53/20/6 33/28/6 34/21/6

f 33/72/2 25/71/2 53/70/2

usemtl Color_F17
vt -1.9685 27.238
vt 1.74929e-031 21.923
vt 1.74929e-031 27.238
f 33/76/4 23/77/4 25/78/4

vt -1.9685 21.923
f 23/77/4 33/76/4 32/79/4

usemtl Color_000
f 25/78/3 23/77/3 33/76/3

f 32/79/3 33/76/3 23/77/3

f 33/28/6 31/27/6 32/26/6

usemtl Color_F17
f 33/28/5 31/27/5 53/20/5

usemtl Color_000
f 53/20/6 31/27/6 33/28/6

f 31/27/6 53/20/6 11/69/6

f 11/69/6 53/20/6 14/35/6

f 53/20/6 34/21/6 14/35/6

f 14/19/3 11/17/3 13/18/3

f 12/12/6 31/27/6 11/69/6

usemtl Color_F17
f 37/29/5 12/12/5 31/27/5

usemtl Color_000
f 31/27/6 12/12/6 37/29/6

usemtl Translucent_Glass_Blue
f 29/2/5 37/29/5 31/27/5

f 37/29/5 29/2/5 30/31/5

f 30/31/6 29/2/6 37/29/6

usemtl Color_000
f 30/31/2 28/32/2 29/2/2

vt 5.01431e-030 1.9685
f 28/80/4 37/38/4 30/52/4

vt 5.01431e-030 53.1496
f 37/38/4 28/80/4 26/81/4

f 26/81/3 28/80/3 37/38/3

f 26/29/6 27/30/6 28/31/6

f 30/52/3 37/38/3 28/80/3

usemtl Color_F17
vt -1.9685 9.09495e-013
vt -43.3071 1.9685
vt -43.3071 0
f 24/82/2 37/83/2 26/84/2

f 37/83/2 24/82/2 31/52/2

usemtl Color_000
f 31/52/1 24/82/1 37/83/1

f 26/84/1 37/83/1 24/82/1

f 24/27/6 10/12/6 26/29/6

usemtl Translucent_Glass_Blue
f 31/27/6 37/29/6 29/2/6

usemtl Color_000
f 32/72/2 23/71/2 34/70/2

f 15/20/6 16/21/6 13/18/6

f 14/35/6 29/2/6 22/36/6

f 22/25/3 14/19/3 18/15/3

f 2/5/6 45/11/6 11/69/6

usemtl Color_F17
vt 84.6457 57.0866
f 45/11/5 4/85/5 2/5/5

v 32.0371 10.551 -27.0313
vt 86.6142 82.6772
f 4/85/5 45/11/5 54/86/5

usemtl Color_000
f 2/5/6 4/85/6 45/11/6

f 4/4/2 1/1/2 2/2/2

vt 9.80069e-030 57.0866
v 32.0371 10.501 -26.9813
vt -1.9685 80.7087
vt -1.9685 57.0866
f 1/87/4 55/88/4 4/89/4

v 32.0871 10.501 -26.9813
vt 9.80069e-030 80.7087
f 55/88/4 1/87/4 56/90/4

f 56/90/3 1/87/3 55/88/3

v 32.0871 10.551 -27.0313
vt 84.6457 80.7087
f 1/85/5 57/86/5 56/91/5

f 1/85/5 9/11/5 57/86/5

f 9/11/5 1/85/5 3/5/5

f 3/5/6 1/85/6 9/11/6

f 57/86/6 9/11/6 1/85/6

usemtl Color_F17
vt -1.00286e-029 82.6772
f 45/50/3 57/92/3 9/48/3

vt 1.9685 82.6772
f 57/92/3 45/50/3 54/93/3

usemtl Color_000
f 9/48/4 57/92/4 45/50/4

f 54/93/4 45/50/4 57/92/4

f 54/86/6 45/11/6 4/85/6

usemtl Color_F17
f 4/85/5 54/86/5 55/91/5

usemtl Color_000
f 55/91/6 54/86/6 4/85/6

usemtl Color_F17
f 55/91/5 54/86/5 6/8/5

usemtl Color_000
f 6/8/6 54/86/6 55/91/6

usemtl Color_F17
v 32.0371 10.551 -24.8313
vt -2.27923e-031 82.6772
f 58/94/5 6/8/5 54/86/5

f 58/94/5 2/5/5 6/8/5

f 11/69/5 2/5/5 58/94/5

usemtl Color_000
f 58/94/6 2/5/6 11/69/6

f 6/8/6 2/5/6 58/94/6

f 6/8/4 2/5/4 5/6/4

usemtl Translucent_Glass_Blue
vn 1 -6.05785e-016 3.35047e-012
f 4/85/9 6/8/9 2/5/9

f 6/8/9 4/85/9 55/91/9

vn -1 6.05785e-016 -3.35047e-012
f 2/5/10 6/8/10 4/85/10

f 55/91/10 4/85/10 6/8/10

usemtl Color_000
f 4/89/3 55/88/3 1/87/3

usemtl Color_F17
f 55/41/2 5/82/2 6/52/2

f 5/82/2 55/41/2 56/42/2

usemtl Color_000
f 6/52/1 5/82/1 55/41/1

f 56/42/1 55/41/1 5/82/1

f 56/91/5 57/86/5 5/8/5

f 56/91/6 57/86/6 1/85/6

f 5/8/6 57/86/6 56/91/6

f 7/9/5 5/8/5 57/86/5

f 5/8/6 3/5/6 7/9/6

f 7/9/6 3/5/6 8/10/6

f 3/5/6 9/11/6 8/10/6

vt -1.9685 82.6772
f 58/95/4 8/10/4 7/9/4

f 8/10/4 58/95/4 11/17/4

f 7/9/3 8/10/3 58/95/3

f 11/17/3 58/95/3 8/10/3

f 57/67/1 58/14/1 7/15/1

f 58/14/1 57/67/1 54/68/1

f 7/15/2 58/14/2 57/67/2

f 54/68/2 57/67/2 58/14/2

f 54/86/6 6/8/6 58/94/6

f 57/86/6 5/8/6 7/9/6

f 45/68/2 9/67/2 12/16/2

f 39/40/5 45/11/5 12/12/5

f 50/55/5 45/11/5 39/40/5

f 52/60/5 45/11/5 50/55/5

f 46/46/5 45/11/5 52/60/5

f 45/11/6 44/45/6 46/46/6

f 46/46/6 44/45/6 40/4/6

f 40/4/6 44/45/6 35/16/6

f 49/54/5 40/4/5 46/46/5

f 40/4/5 49/54/5 39/40/5

f 39/40/6 49/54/6 40/4/6

f 39/40/5 49/54/5 50/55/5

f 50/55/6 49/54/6 39/40/6

f 49/54/5 52/60/5 50/55/5

f 52/60/5 49/54/5 46/46/5

f 46/46/6 49/54/6 52/60/6

f 46/46/6 40/4/6 49/54/6

f 50/55/6 52/60/6 49/54/6

f 50/62/1 51/61/1 52/64/1

f 51/61/1 50/62/1 48/63/1

f 48/63/2 50/62/2 51/61/2

f 50/59/4 49/56/4 48/57/4

f 52/64/2 51/61/2 50/62/2

f 52/59/4 46/56/4 51/65/4

f 52/60/6 45/11/6 46/46/6

f 50/55/6 45/11/6 52/60/6

f 39/40/6 45/11/6 50/55/6

f 12/12/6 45/11/6 39/40/6

f 48/55/6 51/60/6 47/54/6

usemtl Translucent_Glass_Blue
f 39/40/6 40/4/6 36/30/6

usemtl Color_000
f 40/52/3 39/38/3 42/51/3

f 38/42/1 39/41/1 27/24/1

usemtl Color_F17
vt -86.6142 1.9685
f 44/96/2 20/24/2 21/23/2

vt -86.6142 0
f 20/24/2 44/96/2 41/97/2

usemtl Color_000
f 21/23/1 20/24/1 44/96/1

f 20/24/1 21/23/1 18/15/1

f 41/97/1 44/96/1 20/24/1

g Mesh2 ventana1_1 DES013 Model

l 2 4

l 2 3

l 6 2

l 55 6

l 4 55

l 4 1

l 3 1

l 5 3

l 6 5

l 56 5

l 55 56

l 1 56

g Mesh3 ventana1_1 DES013 Model

l 44 41

l 44 45

l 21 44

l 35 21

l 35 19

l 36 35

l 39 36

l 39 38

l 40 39

l 40 42

l 35 40

l 42 38

l 19 42

l 19 20

l 27 19

l 38 27

l 10 27

l 10 8

l 12 10

l 12 11

l 45 12

l 45 54

l 45 9

l 41 9

l 20 41

l 21 20

l 22 21

l 14 22

l 11 14

l 58 11

l 54 58

l 54 57

l 9 57

l 9 10

l 57 7

l 7 8

l 58 7

l 11 8

l 8 13

l 14 13

l 13 18

l 22 18

l 18 20

l 12 36

l 36 27

g Mesh4 ventana1_1 DES013 Model

l 51 43

l 48 51

l 50 48

l 50 52

l 49 50

l 46 49

l 52 46

l 52 51

l 46 43

l 43 47

l 47 48

l 49 47

g Mesh5 ventana1_1 DES013 Model

l 53 33

l 34 53

l 32 34

l 33 32

l 33 25

l 15 25

l 16 15

l 23 16

l 25 23

l 32 23

l 34 16

l 53 15

g Mesh6 ventana1_1 DES013 Model

l 37 30

l 37 31

l 37 26

l 26 28

l 26 24

l 24 17

l 31 24

l 31 29

l 29 30

l 29 17

l 17 28

l 30 28

g Mesh7 DES013 Model

usemtl Color_D03
v 30.5669 11.151 -24.4418
vt -8.31634 141.732
vn -1 -1.04767e-016 -0.000328946
v 30.5669 7.551 -24.2318
vt -0.0486278 9.56914e-013
v 30.5669 11.151 -24.2318
vt -0.0486278 141.732
f 59/98/11 60/99/11 61/100/11

v 30.5669 7.551 -24.2324
vt -0.0709316 9.56914e-013
f 60/99/11 59/98/11 62/101/11

usemtl BackColor
vn 1 1.04767e-016 0.000328946
f 61/100/12 60/99/12 59/98/12

usemtl Color_D03
vt -89.9551 141.732
vn 0.000328946 1.34962e-015 -1
vt -89.9551 9.66272e-013
v 29.2369 7.551 -24.2322
vt -37.5929 1.59155e-012
f 61/102/13 60/103/13 63/104/13

usemtl BackColor
vn -0.000328946 -1.34962e-015 1
f 63/104/14 60/103/14 61/102/14

usemtl Color_D03
v 28.282 11.151 -24.2325
vt 1.58437e-005 141.732
f 63/104/13 64/105/13 61/102/13

v 28.8446 7.551 -24.2324
vt -22.1514 1.53471e-012
f 65/106/13 64/105/13 63/104/13

v 28.282 7.551 -24.2325
vt 1.58437e-005 1.53471e-012
f 64/105/13 65/106/13 66/107/13

usemtl BackColor
f 66/107/14 65/106/14 64/105/14

usemtl _Tile_Ceramic_Natural_14
vt 20.4572 17.1861
vn 6.89103e-015 1 -3.49391e-015
v 28.282 7.551 -27.1364
vt 20.0582 19.2457
vt 20.0582 17.1862
f 65/108/15 67/109/15 66/110/15

v 28.8446 7.551 -27.1362
vt 20.4572 19.2455
f 67/109/15 65/108/15 68/111/15

usemtl _7
vt 9.23343 4.97747
vn -6.89103e-015 -1 3.49391e-015
vt 9.23343 5.57393
vt 9.41712 4.97743
f 66/112/16 67/113/16 65/114/16

usemtl Color_D03
vt 114.373 1.53476e-012
vn 1 5.95379e-011 -4.41873e-010
vt 0.0486278 141.732
vt 0.0486278 1.53476e-012
f 67/115/17 64/116/17 66/117/17

v 28.282 9.651 -27.1364
vt 114.373 82.6772
f 64/116/17 67/115/17 69/118/17

vn -1 -5.95379e-011 4.41873e-010
f 66/117/18 64/116/18 67/115/18

f 69/118/18 67/115/18 64/116/18

vt -0.0380989 0.000215104
vn -0.000333111 1.88072e-006 1
v 28.9375 10.054 -27.1362
vt 25.7712 98.5435
vt -0.0380989 82.6774
f 67/119/19 70/120/19 69/121/19

vt 22.1134 0.000215102
f 68/122/19 70/120/19 67/119/19

v 28.9375 7.551 -27.1361
vt 25.7712 0.000215102
f 70/120/19 68/122/19 71/123/19

usemtl BackColor
vn 0.000333111 -1.88072e-006 -1
f 71/123/20 68/122/20 70/120/20

usemtl _Tile_Ceramic_Natural_14
vt 21.6786 17.1861
vt 20.5231 19.2455
f 68/111/15 62/124/15 71/125/15

f 68/111/15 65/108/15 62/124/15

usemtl _7
vt 9.41712 5.57389
f 68/126/16 65/114/16 67/113/16

vt 9.97938 4.97743
f 62/127/16 65/114/16 68/126/16

vt 9.44745 5.57388
f 71/128/16 62/127/16 68/126/16

usemtl _Tile_Ceramic_Natural_14
v 29.9595 7.551 -27.1358
vt 21.2479 19.2453
f 71/125/15 62/124/15 72/129/15

usemtl _7
vt 9.78111 5.57381
f 72/130/16 62/127/16 71/128/16

usemtl _Tile_Ceramic_Natural_14
v 30.5669 7.551 -24.4418
vt 21.6787 17.3346
f 72/129/15 62/124/15 73/131/15

usemtl _7
vt 9.97941 5.02045
f 73/132/16 62/127/16 72/130/16

usemtl Color_D03
vt -8.31634 1.18429e-012
f 62/101/11 59/98/11 73/133/11

usemtl BackColor
f 62/101/12 59/98/12 60/99/12

f 73/133/12 59/98/12 62/101/12

usemtl Color_D03
vn 0.000328946 -5.42711e-016 -1
v 31.0869 7.551 -24.4416
vt -110.428 1.25507e-012
vt -89.9551 1.19823e-012
f 59/102/21 74/134/21 73/135/21

v 31.0869 11.151 -24.4416
vt -110.428 141.732
f 74/134/21 59/102/21 75/136/21

usemtl BackColor
vn -0.000328946 5.42711e-016 1
f 73/135/22 74/134/22 59/102/22

usemtl _Tile_Ceramic_Natural_14
v 32.0378 7.551 -27.1351
vt 22.7218 19.2448
vt 22.0475 17.3345
f 76/137/15 73/131/15 74/138/15

f 72/129/15 73/131/15 76/137/15

usemtl _7
vt 10.4596 5.57367
f 76/139/16 73/132/16 72/130/16

vt 10.1492 5.02041
f 74/140/16 73/132/16 76/139/16

usemtl _Tile_Ceramic_Natural_14
v 32.0378 7.551 -27.0313
vt 22.7218 19.1711
f 76/137/15 74/138/15 77/141/15

usemtl _7
vt 10.4596 5.55234
f 77/142/16 74/140/16 76/139/16

usemtl _Tile_Ceramic_Natural_14
v 32.0369 7.551 -24.2324
vt 22.7212 17.1861
f 77/141/15 74/138/15 78/143/15

usemtl _7
vt 10.4593 4.97743
f 78/144/16 74/140/16 77/142/16

usemtl _Tile_Ceramic_Natural_14
v 31.0869 7.551 -24.2324
vt 22.0474 17.1861
f 78/143/15 74/138/15 79/145/15

usemtl _7
vt 10.1492 4.97743
f 79/146/16 74/140/16 78/144/16

usemtl Color_D03
vt 8.31634 141.732
vn 1 1.56863e-016 0.000328946
vt 0.0776659 9.49016e-013
vt 8.31634 1.23323e-012
f 75/147/23 79/148/23 74/149/23

v 31.0869 11.151 -24.2316
f 80/116/23 79/148/23 75/147/23

v 31.0869 7.551 -24.2316
vt 0.0486278 1.17639e-012
f 79/148/23 80/116/23 81/150/23

usemtl BackColor
vn -1 -1.56863e-016 -0.000328946
f 81/150/24 80/116/24 79/148/24

usemtl Color_D03
v 32.0369 11.151 -24.2313
vt -147.829 141.732
vt -110.428 1.19374e-012
f 82/151/21 81/152/21 80/136/21

v 32.0369 7.551 -24.2313
vt -147.829 2.63908e-017
f 81/152/21 82/151/21 83/153/21

usemtl BackColor
f 83/153/22 82/151/22 81/152/22

usemtl Color_D03
v 32.0371 11.151 -24.8313
vt -23.6707 141.732
vn -1 6.9295e-015 -0.000328946
vt -0.0486278 1.02438e-012
f 84/154/25 83/155/25 82/100/25

vt -0.089969 1.19491e-012
f 83/155/25 84/154/25 78/156/25

usemtl BackColor
vn 1 -6.9295e-015 0.000328946
f 82/100/26 83/155/26 84/154/26

f 78/156/26 84/154/26 83/155/26

usemtl Color_D03
v 32.0371 7.551 -24.8313
vt -23.6707 1.42229e-012
f 78/156/25 84/154/25 85/157/25

usemtl BackColor
f 85/157/26 84/154/26 78/156/26

usemtl Color_D03
v 32.0371 10.551 -24.8313
vt -23.6707 118.11
f 85/157/25 84/154/25 86/158/25

usemtl BackColor
f 86/158/26 84/154/26 85/157/26

usemtl Color_D03
v 32.0378 11.151 -27.0313
vt -110.285 141.732
f 87/159/25 86/158/25 84/154/25

v 32.0378 10.551 -27.0313
vt -110.285 118.11
f 86/158/25 87/159/25 88/160/25

usemtl BackColor
f 84/154/26 86/158/26 87/159/26

f 88/160/26 87/159/26 86/158/26

usemtl Color_D03
v 32.0378 11.151 -27.1351
vt -114.372 141.732
f 88/160/25 87/159/25 89/161/25

usemtl BackColor
f 89/161/26 87/159/26 88/160/26

usemtl Color_D03
v 32.0378 8.451 -27.0313
vt -110.285 35.4331
f 88/160/25 89/161/25 90/162/25

usemtl BackColor
f 90/162/26 89/161/26 88/160/26

usemtl Color_D03
vt -110.285 1.36544e-012
f 90/162/25 89/161/25 77/163/25

usemtl BackColor
f 77/163/26 89/161/26 90/162/26

usemtl Color_D03
vt -114.372 1.36544e-012
f 77/163/25 89/161/25 76/164/25

usemtl BackColor
f 76/164/26 89/161/26 77/163/26

usemtl Color_D03
vt 147.829 141.732
vt 66.0074 0.000215103
vt 147.829 0.000215103
f 89/165/19 72/166/19 76/167/19

v 29.9595 10.054 -27.1358
vt 66.0074 98.5435
f 72/166/19 89/165/19 91/168/19

usemtl BackColor
f 76/167/20 72/166/20 89/165/20

f 91/168/20 89/165/20 72/166/20

usemtl Color_D03
f 91/168/19 89/165/19 70/120/19

usemtl BackColor
f 70/120/20 89/165/20 91/168/20

usemtl Color_D03
v 28.282 11.151 -27.1364
vt -0.0380989 141.732
f 92/169/19 70/120/19 89/165/19

f 69/121/19 70/120/19 92/169/19

usemtl BackColor
f 69/121/20 70/120/20 67/119/20

f 92/169/20 70/120/20 69/121/20

f 89/165/20 70/120/20 92/169/20

usemtl Color_D03
vt 114.373 141.732
f 92/170/17 64/116/17 69/118/17

f 69/118/18 64/116/18 92/170/18

usemtl BackColor
f 67/119/20 70/120/20 68/122/20

usemtl Color_D03
f 85/157/25 90/162/25 77/163/25

v 32.0371 8.451 -24.8313
vt -23.6707 35.4331
f 85/157/25 93/171/25 90/162/25

f 85/157/25 86/158/25 93/171/25

usemtl BackColor
f 93/171/26 86/158/26 85/157/26

f 90/162/26 93/171/26 85/157/26

f 77/163/26 90/162/26 85/157/26

usemtl _Tile_Ceramic_Natural_14
vt 22.7213 17.6109
f 77/141/15 78/143/15 85/172/15

usemtl _7
vt 10.4594 5.10046
f 85/173/16 78/144/16 77/142/16

usemtl BackColor
f 80/136/22 81/152/22 82/151/22

f 75/147/24 79/148/24 80/116/24

f 74/149/24 79/148/24 75/147/24

f 75/136/22 59/102/22 74/134/22

f 63/104/14 64/105/14 65/106/14

f 61/102/14 64/105/14 63/104/14

usemtl Color_D03
v 29.2369 11.151 -24.2322
vt -37.5929 141.732
f 61/102/13 64/105/13 94/174/13

usemtl BackColor
f 94/174/14 64/105/14 61/102/14

g Mesh8 DES013 Model

l 73 62

l 73 59

l 74 73

l 79 74

l 81 80

l 83 81

l 83 78

l 83 82

l 82 84

l 82 80

l 80 75

l 74 75

l 75 59

l 59 61

l 60 61

l 65 62

l 65 66

l 63 65

l 60 63

l 66 64

l 66 67

l 68 67

l 71 68

l 71 72

l 70 71

l 91 70

l 72 91

l 76 72

l 76 89

l 77 76

l 85 77

l 78 85

l 79 78

l 87 89

l 87 84

l 89 92

l 64 92

l 94 64

l 61 94

l 69 92

l 67 69

g Mesh9 DES013 Model

l 93 86

l 93 90

l 90 88

l 88 86

