# Alias OBJ Model File
# Exported from SketchUp, (c) 2000-2012 Trimble Navigation Limited
# File units = meters

mtllib DES007.mtl

g Mesh1 ventana2_1 DES007 Model

usemtl Color_000
v 29.2346 9.12261 -17.2573
vt 1.37598 26.4413
vn -1 2.84708e-016 -0.000328946
v 29.2346 9.00361 -17.2783
vt 0.549204 21.7563
v 29.2346 9.00361 -17.2573
vt 1.37598 21.7563
f 1/1/1 2/2/1 3/3/1

v 29.2346 9.12261 -17.2783
vt 0.549204 26.4413
f 2/2/1 1/1/1 4/4/1

usemtl BackColor
vn 1 -2.84708e-016 0.000328946
f 3/3/2 2/2/2 1/1/2

usemtl Color_000
v 29.2346 9.001 -17.2922
vt 0 21.6535
f 2/2/1 5/5/1 3/3/1

v 29.2346 9.851 -17.2922
vt 0 55.1181
f 5/5/1 2/2/1 6/6/1

usemtl BackColor
f 6/6/2 2/2/2 5/5/2

usemtl Color_000
f 6/6/1 2/2/1 4/4/1

usemtl BackColor
f 4/4/2 2/2/2 6/6/2

f 4/4/2 1/1/2 2/2/2

usemtl Color_000
v 29.2346 9.801 -17.2422
vt 1.9685 53.1496
f 1/1/1 7/7/1 4/4/1

f 3/3/1 7/7/1 1/1/1

v 29.2346 8.501 -17.2422
vt 1.9685 1.9685
f 3/3/1 8/8/1 7/7/1

f 5/5/1 8/8/1 3/3/1

v 29.2346 8.451 -17.2922
vt 0 0
f 9/9/1 8/8/1 5/5/1

v 29.2342 8.501 -16.1922
vt 43.3071 1.9685
f 8/8/1 9/9/1 10/10/1

usemtl BackColor
f 5/5/2 8/8/2 9/9/2

f 3/3/2 8/8/2 5/5/2

f 7/7/2 8/8/2 3/3/2

usemtl M_0128_White
v 29.2846 8.501 -17.2422
vn -0.000328946 5.42711e-016 1
vt 4.54747e-013 53.1496
vt 4.54747e-013 1.9685
f 11/8/3 7/11/3 8/12/3

v 29.2846 9.801 -17.2422
f 7/11/3 11/8/3 12/7/3

usemtl BackColor
vn 0.000328946 -5.42711e-016 -1
f 8/12/4 7/11/4 11/8/4

f 12/7/4 11/8/4 7/11/4

usemtl FrontColor
v 29.2846 9.851 -17.2922
vt 9.09495e-013 55.1181
f 13/13/1 11/8/1 12/7/1

v 29.2846 8.451 -17.2922
vt 9.09495e-013 0
f 14/14/1 11/8/1 13/13/1

v 29.2842 8.501 -16.1922
f 11/8/1 14/14/1 15/10/1

usemtl M_0128_White
f 13/13/2 11/8/2 14/14/2

f 12/7/2 11/8/2 13/13/2

usemtl Translucent_Glass_Blue
vn -1 3.83492e-015 -0.000328946
v 29.2842 9.801 -16.1922
vt 43.3071 53.1496
f 11/8/5 16/15/5 12/7/5

f 16/15/5 11/8/5 15/10/5

vn 1 -3.83492e-015 0.000328946
f 15/10/6 11/8/6 16/15/6

usemtl M_0128_White
vn 2.84843e-016 1 -4.08333e-016
vt 43.3071 4.54747e-013
f 11/8/7 10/16/7 15/10/7

vt 1.9685 4.54747e-013
f 10/16/7 11/8/7 8/17/7

usemtl BackColor
vn -2.84843e-016 -1 4.08333e-016
f 8/17/8 11/8/8 10/16/8

f 15/10/8 10/16/8 11/8/8

usemtl M_0128_White
vt -4.54747e-013 1.9685
vt -1.9685 53.1496
vt -1.9685 1.9685
f 10/18/4 16/19/4 15/20/4

v 29.2342 9.801 -16.1922
vt -4.54747e-013 53.1496
f 16/19/4 10/18/4 17/21/4

usemtl BackColor
f 17/21/3 10/18/3 16/19/3

usemtl Color_000
v 29.2342 8.501 -16.1422
vt 45.2756 1.9685
f 10/10/1 18/22/1 17/15/1

f 9/9/1 18/22/1 10/10/1

v 29.2342 8.451 -16.1422
vt 45.2756 0
f 18/22/1 9/9/1 19/23/1

usemtl BackColor
f 19/23/2 9/9/2 18/22/2

usemtl FrontColor
vt -9.09495e-013 1.9685
vn -2.84887e-016 -1 5.42617e-016
vt -45.2756 4.54747e-013
f 14/24/9 19/25/9 9/9/9

v 29.2842 8.451 -16.1422
vt -45.2756 1.9685
f 19/25/9 14/24/9 20/26/9

usemtl BackColor
vn 2.84887e-016 1 -5.42617e-016
f 9/9/10 19/25/10 14/24/10

f 20/26/10 14/24/10 19/25/10

usemtl FrontColor
v 29.2842 8.501 -16.1422
f 21/22/1 14/14/1 20/23/1

f 14/14/1 21/22/1 15/10/1

usemtl M_0128_White
f 20/23/2 14/14/2 21/22/2

f 15/10/2 21/22/2 14/14/2

usemtl FrontColor
f 15/10/1 21/22/1 16/15/1

usemtl M_0128_White
f 16/15/2 21/22/2 15/10/2

usemtl FrontColor
v 29.2842 9.801 -16.1422
vt 45.2756 53.1496
f 16/15/1 21/22/1 22/27/1

usemtl M_0128_White
f 22/27/2 21/22/2 16/15/2

f 22/7/3 18/12/3 21/8/3

v 29.2342 9.801 -16.1422
vt 5.24223e-030 53.1496
f 18/12/3 22/7/3 23/28/3

usemtl BackColor
f 23/28/4 22/7/4 18/12/4

usemtl M_0128_White
v 29.2339 9.801 -15.1422
vt -84.6457 0
vt -45.2756 0
f 22/26/9 24/29/9 23/30/9

v 29.2839 9.801 -15.2612
vt -79.9606 1.9685
f 24/29/9 22/26/9 25/31/9

usemtl BackColor
f 23/30/10 24/29/10 22/26/10

usemtl Color_000
vt 84.6457 53.1496
v 29.2338 9.851 -15.0922
vt 86.6142 55.1181
f 24/32/1 26/33/1 23/27/1

v 29.2339 9.12261 -15.1283
vt 85.1949 26.4413
f 27/34/1 26/33/1 24/32/1

v 29.2339 9.12261 -15.1073
vt 86.0216 26.4413
f 28/35/1 26/33/1 27/34/1

v 29.2339 9.00361 -15.1073
vt 86.0216 21.7563
f 29/36/1 26/33/1 28/35/1

v 29.2338 8.451 -15.0922
vt 86.6142 0
f 29/36/1 30/37/1 26/33/1

v 29.2339 8.501 -15.1422
vt 84.6457 1.9685
f 31/38/1 30/37/1 29/36/1

f 30/37/1 31/38/1 19/23/1

usemtl BackColor
f 19/23/2 31/38/2 30/37/2

usemtl Color_000
f 18/22/1 19/23/1 31/38/1

usemtl FrontColor
vt -4.54747e-013 0
f 21/20/4 19/39/4 18/18/4

vt -1.9685 0
f 19/39/4 21/20/4 20/40/4

usemtl BackColor
f 18/18/3 19/39/3 21/20/3

f 31/38/2 19/23/2 18/22/2

usemtl M_0128_White
vt 84.6457 1.94109e-031
vn 2.84915e-016 1 -6.27216e-016
vt 45.2756 4.54747e-013
f 31/41/11 21/22/11 18/42/11

v 29.2839 8.501 -15.1422
f 21/22/11 31/41/11 32/38/11

usemtl BackColor
vn -2.84915e-016 -1 6.27216e-016
f 18/42/12 21/22/12 31/41/12

f 21/8/4 18/12/4 22/7/4

usemtl Translucent_Glass_Blue
vn -1 9.49112e-015 -0.000328946
vt 79.9606 53.1496
f 21/22/13 25/43/13 22/27/13

v 29.2839 9.801 -15.1422
f 21/22/13 33/32/13 25/43/13

f 33/32/13 21/22/13 32/38/13

vn 1 -9.49112e-015 0.000328946
f 32/38/14 21/22/14 33/32/14

usemtl BackColor
f 32/38/12 31/41/12 21/22/12

usemtl M_0128_White
vt -9.80069e-030 1.9685
f 31/44/4 33/19/4 32/20/4

vt -9.80069e-030 53.1496
f 33/19/4 31/44/4 24/45/4

usemtl BackColor
f 24/45/3 31/44/3 33/19/3

usemtl Color_000
v 29.2339 9.00361 -15.1283
vt 85.1949 21.7563
f 31/38/1 34/46/1 24/32/1

f 34/46/1 31/38/1 29/36/1

usemtl BackColor
f 24/32/2 34/46/2 31/38/2

usemtl Color_000
f 24/32/1 34/46/1 27/34/1

usemtl BackColor
f 27/34/2 34/46/2 24/32/2

usemtl Color_000
f 34/46/1 28/35/1 27/34/1

f 28/35/1 34/46/1 29/36/1

usemtl BackColor
f 29/36/2 34/46/2 28/35/2

f 29/36/2 31/38/2 34/46/2

f 29/36/2 30/37/2 31/38/2

f 26/33/2 30/37/2 29/36/2

usemtl FrontColor
v 29.2838 8.451 -15.0922
vt 1.9685 0
vt 1.36424e-012 55.1181
vt 1.36424e-012 0
f 35/47/3 26/48/3 30/49/3

v 29.2838 9.851 -15.0922
vt 1.9685 55.1181
f 26/48/3 35/47/3 36/50/3

usemtl BackColor
f 30/49/4 26/48/4 35/47/4

f 36/50/4 35/47/4 26/48/4

usemtl FrontColor
f 32/38/1 35/37/1 36/33/1

f 35/37/1 32/38/1 20/23/1

usemtl M_0128_White
f 20/23/2 32/38/2 35/37/2

usemtl FrontColor
f 21/22/1 20/23/1 32/38/1

usemtl BackColor
f 20/40/3 21/20/3 19/39/3

usemtl M_0128_White
f 32/38/2 20/23/2 21/22/2

usemtl FrontColor
vt -86.6142 1.9685
f 35/51/9 19/25/9 20/26/9

vt -86.6142 1.36424e-012
f 19/25/9 35/51/9 30/52/9

usemtl BackColor
f 20/26/10 19/25/10 35/51/10

f 30/52/10 35/51/10 19/25/10

usemtl M_0128_White
f 36/33/2 35/37/2 32/38/2

usemtl FrontColor
f 32/38/1 36/33/1 33/32/1

usemtl M_0128_White
f 33/32/2 36/33/2 32/38/2

usemtl FrontColor
f 33/32/1 36/33/1 25/43/1

usemtl M_0128_White
f 25/43/2 36/33/2 33/32/2

usemtl FrontColor
f 25/43/1 36/33/1 22/27/1

usemtl M_0128_White
f 22/27/2 36/33/2 25/43/2

usemtl FrontColor
v 29.2842 9.851 -16.1422
vt 45.2756 55.1181
f 22/27/1 36/33/1 37/53/1

usemtl M_0128_White
f 37/53/2 36/33/2 22/27/2

usemtl FrontColor
vt 86.6142 1.36424e-012
vt 86.6142 1.9685
f 37/22/10 26/54/10 36/55/10

v 29.2342 9.851 -16.1422
f 26/54/10 37/22/10 38/23/10

usemtl BackColor
f 38/23/9 37/22/9 26/54/9

usemtl FrontColor
vt -1.9685 55.1181
vt -5.24223e-030 53.1496
vt -5.24223e-030 55.1181
f 37/56/4 23/57/4 38/58/4

f 23/57/4 37/56/4 22/19/4

usemtl BackColor
f 38/58/3 23/57/3 37/56/3

usemtl Color_000
f 17/15/1 23/27/1 38/53/1

f 17/15/1 18/22/1 23/27/1

usemtl BackColor
f 17/15/2 18/22/2 10/10/2

f 23/27/2 18/22/2 17/15/2

f 38/53/2 23/27/2 17/15/2

usemtl Color_000
f 23/27/1 26/33/1 38/53/1

usemtl BackColor
f 23/27/2 26/33/2 24/32/2

f 38/53/2 26/33/2 23/27/2

f 24/32/2 26/33/2 27/34/2

f 27/34/2 26/33/2 28/35/2

f 28/35/2 26/33/2 29/36/2

f 27/34/2 28/35/2 34/46/2

usemtl Color_000
f 17/15/1 38/53/1 7/7/1

usemtl BackColor
f 7/7/2 38/53/2 17/15/2

usemtl Color_000
f 6/6/1 7/7/1 38/53/1

f 6/6/1 4/4/1 7/7/1

usemtl BackColor
f 7/7/2 4/4/2 6/6/2

f 4/4/2 7/7/2 1/1/2

f 1/1/2 7/7/2 3/3/2

f 38/53/2 7/7/2 6/6/2

usemtl Color_000
v 29.2342 9.851 -16.1922
vt 43.3071 55.1181
f 6/6/1 38/53/1 39/59/1

usemtl BackColor
f 39/59/2 38/53/2 6/6/2

usemtl FrontColor
f 37/22/10 39/16/10 38/23/10

v 29.2842 9.851 -16.1922
f 39/16/10 37/22/10 40/10/10

usemtl BackColor
f 40/10/9 37/22/9 39/16/9

usemtl FrontColor
f 13/13/1 37/53/1 40/59/1

f 13/13/1 12/7/1 37/53/1

usemtl M_0128_White
f 37/53/2 12/7/2 13/13/2

usemtl FrontColor
v 29.2842 9.801 -16.2192
vt 42.2441 53.1496
f 41/60/1 37/53/1 12/7/1

f 16/15/1 37/53/1 41/60/1

f 16/15/1 22/27/1 37/53/1

usemtl M_0128_White
f 37/53/2 22/27/2 16/15/2

usemtl BackColor
f 22/19/3 37/56/3 23/57/3

usemtl M_0128_White
f 41/60/2 37/53/2 16/15/2

f 12/7/2 37/53/2 41/60/2

vt -43.3071 4.54747e-013
vt -42.2441 1.9685
f 17/61/9 12/20/9 41/62/9

vt -1.9685 4.54747e-013
f 12/20/9 17/61/9 7/63/9

usemtl BackColor
f 7/63/10 17/61/10 12/20/10

f 41/62/10 12/20/10 17/61/10

usemtl Translucent_Glass_Blue
f 12/7/5 16/15/5 41/60/5

f 12/7/6 16/15/6 11/8/6

f 41/60/6 16/15/6 12/7/6

usemtl M_0128_White
vt -43.3071 1.9685
f 17/61/9 41/62/9 16/64/9

usemtl BackColor
f 16/64/10 41/62/10 17/61/10

usemtl M_0128_White
f 40/59/2 37/53/2 13/13/2

usemtl FrontColor
vt 9.09495e-013 1.9685
f 13/65/10 39/16/10 40/10/10

f 39/16/10 13/65/10 6/9/10

usemtl BackColor
f 6/9/9 13/65/9 39/16/9

usemtl FrontColor
f 13/56/4 5/5/4 6/6/4

f 5/5/4 13/56/4 9/9/4

usemtl BackColor
f 6/6/3 5/5/3 13/56/3

f 9/9/3 13/56/3 5/5/3

usemtl FrontColor
f 9/9/4 13/56/4 14/40/4

usemtl BackColor
f 14/40/3 13/56/3 9/9/3

f 40/10/9 39/16/9 13/65/9

f 38/23/9 39/16/9 37/22/9

f 10/10/2 18/22/2 9/9/2

f 10/10/2 9/9/2 8/8/2

f 36/55/9 26/54/9 37/22/9

f 25/31/10 22/26/10 24/29/10

usemtl Translucent_Glass_Blue
f 22/27/14 25/43/14 21/22/14

f 25/43/14 33/32/14 21/22/14

usemtl M_0128_White
vt -84.6457 1.9685
f 24/29/9 25/31/9 33/66/9

usemtl BackColor
f 33/66/10 25/31/10 24/29/10

f 32/20/3 33/19/3 31/44/3

f 15/20/3 16/19/3 10/18/3

usemtl M_0128_White
f 15/10/2 14/14/2 11/8/2

usemtl BackColor
f 3/3/2 5/5/2 2/2/2

g Mesh2 ventana2_1 DES007 Model

l 2 3

l 4 2

l 1 4

l 3 1

g Mesh3 ventana2_1 DES007 Model

l 11 15

l 11 8

l 12 11

l 12 7

l 41 12

l 16 41

l 16 17

l 16 15

l 15 10

l 8 10

l 7 8

l 17 7

l 17 10

g Mesh4 ventana2_1 DES007 Model

l 5 6

l 9 5

l 14 9

l 14 13

l 20 14

l 21 20

l 21 18

l 22 21

l 22 23

l 37 22

l 40 37

l 13 40

l 13 6

l 6 39

l 40 39

l 39 38

l 37 38

l 37 36

l 36 26

l 36 35

l 35 30

l 35 20

l 20 19

l 18 19

l 18 31

l 23 18

l 24 23

l 31 24

l 32 31

l 32 33

l 21 32

l 33 24

l 33 25

l 25 22

l 38 23

l 38 26

l 26 30

l 30 19

l 19 9

g Mesh5 ventana2_1 DES007 Model

l 29 28

l 34 29

l 27 34

l 28 27

g Mesh6 DES007 Model

usemtl Color_D03
v 28.9347 11.151 -17.6023
vt -100.522 141.732
vn -1 1.12255e-014 -0.000328946
v 28.9348 7.551 -18.0317
vt -117.428 3.56066e-012
v 28.9347 7.551 -17.6023
vt -100.522 3.56066e-012
f 42/67/15 43/68/15 44/69/15

v 28.9348 11.151 -18.0317
vt -117.428 141.732
f 43/68/15 42/67/15 45/70/15

usemtl BackColor
vn 1 -1.12255e-014 0.000328946
f 44/69/16 43/68/16 42/67/16

usemtl _Tile_Ceramic_Natural_14
vt 20.5211 12.7885
vn 1.8539e-015 1 -8.66962e-016
v 21.9842 7.551 -16.024
vt 15.5916 11.3645
vt 20.521 12.4839
f 43/71/17 46/72/17 44/73/17

v 21.4046 7.551 -18.0317
vt 15.1805 12.7885
f 47/74/17 46/72/17 43/71/17

v 21.387 7.551 -17.9898
vt 15.1681 12.7588
f 48/75/17 46/72/17 47/74/17

v 21.3644 7.551 -16.6442
vt 15.152 11.8044
f 49/76/17 46/72/17 48/75/17

v 21.3644 7.551 -16.0242
vt 15.152 11.3647
f 46/72/17 49/76/17 50/77/17

usemtl _7
vt 6.97498 3.29144
vn -1.8539e-015 -1 8.66962e-016
vt 6.97498 3.41879
vt 7.17733 3.2914
f 50/78/18 49/79/18 46/80/18

vt 6.98235 3.69519
f 48/81/18 46/80/18 49/79/18

vt 6.9881 3.70379
f 47/82/18 46/80/18 48/81/18

vt 9.44656 3.70379
f 43/83/18 46/80/18 47/82/18

vt 9.44651 3.61559
f 44/84/18 46/80/18 43/83/18

usemtl _Tile_Ceramic_Natural_14
v 28.9348 7.551 -15.0517
vt 20.5211 10.675
f 46/72/17 51/85/17 44/73/17

v 21.9841 7.551 -15.904
vt 15.5916 11.2794
f 52/86/17 51/85/17 46/72/17

v 21.9838 7.551 -15.054
vt 15.5914 10.6766
f 51/85/17 52/86/17 53/87/17

usemtl _7
vt 7.17722 3.09216
vt 7.17731 3.26675
vt 9.44656 3.09169
f 53/88/18 52/89/18 51/90/18

f 46/80/18 51/90/18 52/89/18

f 44/84/18 51/90/18 46/80/18

usemtl _Tile_Ceramic_Natural_14
v 28.9348 7.551 -17.6023
vt 20.5211 12.4839
f 44/73/17 51/85/17 54/91/17

usemtl _7
vt 9.44656 3.61559
f 54/92/18 51/90/18 44/84/18

usemtl _Tile_Ceramic_Natural_14
v 29.2338 7.551 -15.0516
vt 20.7332 10.6749
f 54/91/17 51/85/17 55/93/17

usemtl _7
vt 9.54418 3.09167
f 55/94/18 51/90/18 54/92/18

usemtl Color_D03
vt -33.4439 6.25996e-013
vn 0.000328946 -6.84461e-015 -1
vt -318.877 1.71248e-013
vt -307.105 1.71248e-013
f 53/95/19 55/96/19 51/97/19

v 29.2338 11.151 -15.0516
vt -318.877 141.732
f 55/96/19 53/95/19 56/98/19

usemtl BackColor
vn -0.000328946 6.84461e-015 1
f 51/97/20 55/96/20 53/95/20

f 56/98/20 53/95/20 55/96/20

usemtl Color_D03
v 21.9838 10.551 -15.054
vt -33.4439 118.11
f 56/98/19 53/95/19 57/99/19

usemtl BackColor
f 57/99/20 53/95/20 56/98/20

usemtl Color_D03
v 21.9838 11.151 -15.054
vt -33.4439 141.732
f 56/98/19 57/99/19 58/100/19

usemtl BackColor
f 58/100/20 57/99/20 56/98/20

usemtl Color_D03
v 21.9841 10.551 -15.904
vt 33.5695 118.11
vt 0.104893 141.732
vt 0.104893 118.11
f 59/101/2 58/102/2 57/103/2

v 21.9842 11.151 -16.024
vt 38.2939 141.732
f 58/102/2 59/101/2 60/104/2

usemtl BackColor
f 57/103/1 58/102/1 59/101/1

f 60/104/1 59/101/1 58/102/1

usemtl Color_D03
vt 38.2939 2.36895e-013
f 60/104/2 59/101/2 46/105/2

usemtl BackColor
f 46/105/1 59/101/1 60/104/1

usemtl Color_D03
vt 33.5695 2.36895e-013
f 46/105/2 59/101/2 52/106/2

usemtl BackColor
f 52/106/1 59/101/1 46/105/1

usemtl Color_D03
vt -9.04252 1.16215e-012
vn 0.000328946 -1.1051e-014 -1
vt -33.4439 6.50559e-013
f 50/107/21 60/100/21 46/108/21

v 21.3642 11.151 -16.0242
vt -9.03449 141.732
f 60/100/21 50/107/21 61/109/21

usemtl BackColor
vn -0.000328946 1.1051e-014 1
f 46/108/22 60/100/22 50/107/22

f 61/109/22 50/107/22 60/100/22

usemtl Color_D03
v 21.3642 7.551 -16.0242
vt -9.03449 4.23185e-013
f 61/109/21 50/107/21 62/110/21

usemtl BackColor
f 62/110/22 50/107/22 61/109/22

usemtl Color_D03
vt 62.7033 1.53589e-012
vn 1 -6.41594e-015 0.000328946
vt 38.2939 5.79647e-014
f 49/111/23 61/104/23 62/112/23

v 21.3644 11.151 -16.6442
vt 62.7033 141.732
f 61/104/23 49/111/23 63/113/23

usemtl BackColor
vn -1 6.41594e-015 -0.000328946
f 62/112/24 61/104/24 49/111/24

f 63/113/24 49/111/24 61/104/24

usemtl Color_D03
vt -9.03449 1.27699e-012
vn 0.000328946 3.20454e-015 -1
v 21.1344 11.151 -16.6443
vt 0.020626 141.732
f 49/114/25 64/115/25 63/109/25

v 21.1344 7.551 -16.6443
vt 0.020626 1.22015e-012
f 64/115/25 49/114/25 65/116/25

usemtl BackColor
vn -0.000328946 -3.20454e-015 1
f 65/116/26 49/114/26 64/115/26

usemtl _Tile_Ceramic_Natural_14
v 21.1348 7.551 -17.9088
vt 14.9892 12.7013
vt 14.9889 11.8045
f 49/76/17 66/117/17 65/118/17

v 21.1615 7.551 -17.8976
vt 15.0082 12.6933
f 66/117/17 49/76/17 67/119/17

usemtl _7
vt 6.89989 3.41881
vt 6.90002 3.67855
f 65/120/18 66/121/18 49/79/18

usemtl Color_D03
vt 112.487 5.68186e-013
vn 1 -1.20297e-014 0.000328946
vt 62.7033 1.42084e-012
f 66/122/27 64/113/27 65/123/27

v 21.1348 11.151 -17.9088
vt 112.487 141.732
f 64/113/27 66/122/27 68/124/27

usemtl BackColor
vn -1 1.20297e-014 -0.000328946
f 65/123/28 64/113/28 66/122/28

f 68/124/28 66/122/28 64/113/28

usemtl _Color_C03_3
vt -43.4008 6.31802e-013
vn -0.385962 6.10609e-016 0.922515
v 21.1615 11.151 -17.8976
vt -42.2593 141.732
vt -43.4008 141.732
f 66/125/29 69/126/29 68/127/29

vt -42.2593 6.31802e-013
f 69/126/29 66/125/29 67/128/29

usemtl BackColor
vn 0.385962 -6.10609e-016 -0.922515
f 67/128/30 66/125/30 69/126/30

usemtl _7
vt 6.90876 3.67625
f 67/129/18 49/79/18 66/121/18

usemtl _Tile_Ceramic_Natural_14
v 21.2866 7.551 -17.9136
vt 15.0969 12.7047
f 67/119/17 49/76/17 70/130/17

usemtl _7
vt 6.94958 3.67952
f 70/131/18 49/79/18 67/129/18

usemtl _Tile_Ceramic_Natural_14
f 70/130/17 49/76/17 48/75/17

usemtl _7
f 48/81/18 49/79/18 70/131/18

usemtl _Color_C03_3
v 21.387 11.151 -17.9898
vt 77.91 141.732
vn 0.605063 2.59645e-016 0.796178
vt 72.9466 5.90785e-013
vt 77.91 5.90785e-013
f 71/132/31 70/133/31 48/134/31

v 21.2866 11.151 -17.9136
vt 72.9466 141.732
f 70/133/31 71/132/31 72/135/31

usemtl BackColor
vn -0.605063 -2.59645e-016 -0.796178
f 48/134/32 70/133/32 71/132/32

f 72/135/32 71/132/32 70/133/32

usemtl _Color_C03_3
vt 20.1934 141.732
vn 0.126457 5.02235e-016 0.991972
vt 15.23 6.24188e-013
vt 20.1934 6.24188e-013
f 72/136/33 67/137/33 70/138/33

vt 15.23 141.732
f 67/137/33 72/136/33 69/139/33

usemtl BackColor
vn -0.126457 -5.02235e-016 -0.991972
f 70/138/34 67/137/34 72/136/34

f 69/139/34 72/136/34 67/137/34

usemtl _Color_C03_3
vt 110.494 -3.68952e-013
vn 0.921875 -2.62898e-014 0.387487
v 21.4056 11.151 -18.0342
vt 112.388 141.732
vt 110.494 141.732
f 48/140/35 73/141/35 71/142/35

vt 112.283 -5.96325e-013
f 73/141/35 48/140/35 47/143/35

usemtl BackColor
vn -0.921875 2.62898e-014 -0.387487
f 71/142/36 73/141/36 48/140/36

f 47/143/36 48/140/36 73/141/36

usemtl _Color_C03_3
v 21.4056 7.551 -18.0342
vt 112.388 -3.68952e-013
f 73/141/35 47/143/35 74/144/35

usemtl BackColor
f 74/144/36 47/143/36 73/141/36

usemtl Color_D03
vt 10.6401 9.45756e-013
vn -0.000328946 3.21322e-015 1
vt 307.066 141.732
vt 10.6401 141.732
f 74/145/37 45/146/37 73/147/37

vt 307.066 4.91008e-013
f 45/146/37 74/145/37 43/148/37

usemtl BackColor
vn 0.000328946 -3.21322e-015 -1
f 43/148/38 74/145/38 45/146/38

f 73/147/38 45/146/38 74/145/38

f 45/70/16 42/67/16 43/68/16

f 68/127/30 69/126/30 66/125/30

f 63/109/26 64/115/26 49/114/26

usemtl Color_D03
vt -0.104893 141.732
vn -1 -1.23277e-014 -0.000328946
v 29.2338 7.551 -15.0922
vt -1.70302 -3.76049e-012
vt -0.104893 -3.76049e-012
f 56/149/39 75/150/39 55/151/39

v 29.2338 8.451 -15.0922
vt -1.70302 35.4331
f 75/150/39 56/149/39 76/152/39

usemtl BackColor
vn 1 1.23277e-014 0.000328946
f 55/151/40 75/150/40 56/149/40

usemtl _Tile_Ceramic_Natural_14
v 29.2338 7.551 -17.6022
vt 20.7332 12.4838
vt 20.7332 10.7037
f 77/153/17 55/93/17 75/154/17

f 54/91/17 55/93/17 77/153/17

usemtl _7
vt 9.54418 3.61557
f 77/155/18 55/94/18 54/92/18

vt 9.54419 3.10001
f 75/156/18 55/94/18 77/155/18

usemtl Color_D03
vt 318.844 -5.34029e-013
vn -0.000328946 -6.44353e-015 1
v 29.2347 11.151 -17.6022
vt 318.877 141.732
vt 307.072 -4.77186e-013
f 77/157/41 78/158/41 54/159/41

v 29.2347 7.551 -17.6022
vt 318.877 -5.34029e-013
f 78/158/41 77/157/41 79/160/41

usemtl BackColor
vn 0.000328946 6.44353e-015 -1
f 79/160/42 77/157/42 78/158/42

f 54/159/42 78/158/42 77/157/42

usemtl Color_D03
f 42/146/41 54/159/41 78/158/41

vt 307.066 -5.34029e-013
f 54/159/41 42/146/41 44/161/41

usemtl BackColor
f 44/161/42 42/146/42 54/159/42

f 78/158/42 54/159/42 42/146/42

usemtl Color_D03
vt -100.522 -3.81733e-012
v 29.2346 9.794 -17.2922
vt -88.3172 88.3071
f 79/162/39 80/163/39 78/67/39

v 29.2346 7.551 -17.2922
vt -88.3172 -2.62362e-012
f 81/164/39 80/163/39 79/162/39

v 29.2346 8.451 -17.2922
vt -88.3172 35.4331
f 81/164/39 82/165/39 80/163/39

f 75/150/39 82/165/39 81/164/39

f 75/150/39 76/152/39 82/165/39

usemtl BackColor
f 76/152/40 56/149/40 75/150/40

usemtl Color_D03
v 29.2338 9.851 -15.0922
vt -1.70302 90.5512
f 56/149/39 83/166/39 76/152/39

f 83/166/39 56/149/39 78/67/39

usemtl BackColor
f 76/152/40 83/166/40 56/149/40

usemtl Color_D03
v 29.2338 9.794 -15.0922
vt -1.70302 88.3071
f 84/167/39 76/152/39 83/166/39

usemtl BackColor
f 83/166/40 76/152/40 84/167/40

f 78/67/40 56/149/40 83/166/40

usemtl Color_D03
v 29.2346 9.851 -17.2922
vt -88.3172 90.5512
f 83/166/39 78/67/39 85/168/39

usemtl BackColor
f 85/168/40 78/67/40 83/166/40

usemtl Color_D03
f 85/168/39 78/67/39 80/163/39

usemtl BackColor
f 80/163/40 78/67/40 85/168/40

f 78/67/40 80/163/40 79/162/40

f 79/162/40 80/163/40 81/164/40

f 80/163/40 82/165/40 81/164/40

f 81/164/40 82/165/40 75/150/40

f 82/165/40 76/152/40 75/150/40

g Mesh7 DES007 Model

l 43 44

l 43 45

l 43 74

l 43 47

l 48 47

l 48 71

l 70 48

l 70 72

l 67 70

l 66 67

l 65 66

l 65 64

l 49 65

l 49 63

l 50 49

l 46 50

l 52 46

l 52 59

l 52 53

l 51 53

l 55 51

l 55 75

l 55 56

l 56 78

l 56 58

l 58 60

l 57 58

l 59 57

l 53 57

l 46 60

l 60 61

l 62 61

l 62 49

l 61 63

l 63 64

l 68 64

l 66 68

l 68 69

l 67 69

l 69 72

l 72 71

l 71 73

l 74 73

l 47 74

l 45 73

l 45 42

l 44 42

l 54 77

l 75 77

l 81 75

l 79 81

l 79 78

l 42 78

g Mesh8 DES007 Model

l 83 85

l 84 83

l 76 84

l 82 76

l 82 80

l 80 85

