# Alias OBJ Model File
# Exported from SketchUp, (c) 2000-2012 Trimble Navigation Limited
# File units = meters

mtllib DES038.mtl

g Mesh1 ventana1_1 FRD038 Model

usemtl Color_000
v 1.53985 9.901 -35.5013
vt 84.6457 0
vn 4.80478e-017 1 -2.83193e-016
v 1.48985 9.901 -33.4013
vt 1.9685 1.9685
v 1.53985 9.901 -33.4013
vt 1.9685 9.09495e-013
f 1/1/1 2/2/1 3/3/1

v 1.48985 9.901 -35.5013
vt 84.6457 1.9685
f 2/2/1 1/1/1 4/4/1

vn -4.80478e-017 -1 2.83193e-016
f 3/3/2 2/2/2 1/1/2

vt 1.9685 57.0866
vn 3.34533e-012 -2.83193e-016 -1
v 1.53985 10.501 -33.4013
vt 9.09495e-013 80.7087
vt 9.09495e-013 57.0866
f 2/5/3 5/6/3 3/7/3

v 1.48985 10.501 -33.4013
vt 1.9685 80.7087
f 5/6/3 2/5/3 6/8/3

vn -3.34533e-012 2.83193e-016 1
f 3/7/4 5/6/4 2/5/4

v 1.53985 10.551 -33.3513
vt 0 82.6772
vn 1 -4.80478e-017 3.34533e-012
f 7/9/5 3/5/5 5/8/5

v 1.53985 9.851 -33.3513
vt 0 55.1181
f 8/10/5 3/5/5 7/9/5

v 1.53985 9.851 -35.5513
vt 86.6142 55.1181
f 8/10/5 9/11/5 3/5/5

v 1.53985 9.851 -34.5013
vt 45.2756 55.1181
f 9/11/5 8/10/5 10/12/5

vn -1 4.80478e-017 -3.34533e-012
f 10/12/6 8/10/6 9/11/6

usemtl Color_F17
vt 45.2756 9.09495e-013
v 1.48985 9.851 -33.3513
vt 0 1.9685
vt 0 0
f 10/13/1 11/14/1 8/15/1

v 1.48985 9.851 -34.5013
vt 45.2756 1.9685
f 11/14/1 10/13/1 12/16/1

usemtl Color_000
f 8/15/2 11/14/2 10/13/2

vt -1.9685 55.1181
v 1.53985 9.011 -33.3513
vt 0 22.0472
f 11/17/4 13/18/4 8/10/4

v 1.48985 9.011 -33.3513
vt -1.9685 22.0472
f 13/18/4 11/17/4 14/19/4

f 8/10/3 13/18/3 11/17/3

v 1.53985 9.14284 -33.3707
vt 0.762775 27.238
f 13/18/5 15/20/5 8/10/5

v 1.53985 9.00784 -33.3707
vt 0.762775 21.923
f 13/18/5 16/21/5 15/20/5

v 1.53985 8.501 -33.4013
f 13/18/5 17/2/5 16/21/5

v 1.53985 8.451 -33.3513
f 18/15/5 17/2/5 13/18/5

v 1.53985 8.501 -34.5013
f 18/15/5 19/16/5 17/2/5

v 1.53985 8.451 -34.5013
vt 45.2756 0
f 19/16/5 18/15/5 20/22/5

f 20/22/6 18/15/6 19/16/6

usemtl Color_F17
v 1.48985 8.451 -34.5013
vt -45.2756 1.9685
vt -45.2756 9.09495e-013
f 18/15/2 21/23/2 20/24/2

v 1.48985 8.451 -33.3513
f 21/23/2 18/15/2 22/14/2

usemtl Color_000
f 22/14/1 18/15/1 21/23/1

vt -1.9685 0
f 18/15/4 14/19/4 22/25/4

f 14/19/4 18/15/4 13/18/4

f 13/18/3 18/15/3 14/19/3

f 13/18/6 17/2/6 18/15/6

f 16/21/6 17/2/6 13/18/6

v 1.53985 9.00784 -33.3897
vt 1.51081 21.923
f 16/21/5 17/2/5 23/26/5

f 23/26/6 17/2/6 16/21/6

v 1.53985 9.801 -33.4013
vt 1.9685 53.1496
f 24/27/5 23/26/5 17/2/5

v 1.53985 9.14284 -33.3897
vt 1.51081 27.238
f 23/26/5 24/27/5 25/28/5

f 17/2/6 23/26/6 24/27/6

f 25/28/6 24/27/6 23/26/6

f 25/28/5 24/27/5 15/20/5

f 15/20/6 24/27/6 25/28/6

f 8/10/5 15/20/5 24/27/5

f 8/10/6 15/20/6 13/18/6

f 24/27/6 15/20/6 8/10/6

f 8/10/5 24/27/5 10/12/5

f 10/12/6 24/27/6 8/10/6

v 1.53985 9.801 -34.4513
vt 43.3071 53.1496
f 26/29/5 10/12/5 24/27/5

v 1.53985 9.801 -34.5013
vt 45.2756 53.1496
f 26/29/5 27/30/5 10/12/5

v 1.53985 8.501 -34.4513
vt 43.3071 1.9685
f 28/31/5 27/30/5 26/29/5

f 27/30/5 28/31/5 19/16/5

f 19/16/6 28/31/6 27/30/6

f 17/2/5 19/16/5 28/31/5

f 17/2/6 19/16/6 18/15/6

f 28/31/6 19/16/6 17/2/6

vt 43.3071 0
v 1.48985 8.501 -33.4013
f 28/32/1 29/2/1 17/3/1

v 1.48985 8.501 -34.4513
f 29/2/1 28/32/1 30/31/1

f 17/3/2 29/2/2 28/32/2

vt 9.09495e-013 53.1496
vt 9.09495e-013 1.9685
f 29/2/3 24/33/3 17/34/3

v 1.48985 9.801 -33.4013
f 24/33/3 29/2/3 31/27/3

f 17/34/4 24/33/4 29/2/4

f 31/27/4 29/2/4 24/33/4

usemtl Color_F17
v 1.48985 9.00784 -33.3897
f 31/27/5 32/26/5 29/2/5

v 1.48985 9.14284 -33.3897
f 32/26/5 31/27/5 33/28/5

usemtl Color_000
f 29/2/6 32/26/6 31/27/6

usemtl Color_F17
v 1.48985 9.00784 -33.3707
f 34/21/5 29/2/5 32/26/5

vt -2.27923e-031 22.0472
f 14/35/5 29/2/5 34/21/5

vt -2.27923e-031 0
f 22/36/5 29/2/5 14/35/5

v 1.48985 8.501 -34.5013
f 22/36/5 35/16/5 29/2/5

f 35/16/5 22/36/5 21/22/5

usemtl Color_000
f 21/22/6 22/36/6 35/16/6

f 29/2/6 35/16/6 22/36/6

usemtl Color_F17
f 29/2/5 35/16/5 30/31/5

usemtl Color_000
f 30/31/6 35/16/6 29/2/6

usemtl Color_F17
v 1.48985 9.801 -34.5013
f 36/30/5 30/31/5 35/16/5

v 1.48985 9.801 -34.4513
f 30/31/5 36/30/5 37/29/5

usemtl Color_000
f 35/16/6 30/31/6 36/30/6

f 37/29/6 36/30/6 30/31/6

usemtl Color_F17
f 37/29/5 36/30/5 12/12/5

usemtl Color_000
f 12/12/6 36/30/6 37/29/6

usemtl Color_F17
vt -9.09495e-013 53.1496
vt -1.9685 53.1496
f 27/37/4 12/17/4 36/38/4

vt -9.09495e-013 55.1181
f 12/17/4 27/37/4 10/39/4

usemtl Color_000
f 10/39/3 27/37/3 12/17/3

f 10/12/6 27/30/6 26/29/6

v 1.53985 9.801 -35.5013
vt 84.6457 53.1496
f 10/12/5 27/30/5 38/40/5

f 38/40/6 27/30/6 10/12/6

usemtl Color_F17
v 1.48985 9.801 -35.5013
vt -84.6457 1.9685
vt -84.6457 0
f 27/24/2 39/41/2 38/42/2

f 39/41/2 27/24/2 36/23/2

usemtl Color_000
f 36/23/1 27/24/1 39/41/1

f 36/38/3 12/17/3 27/37/3

f 12/12/5 36/30/5 39/40/5

f 39/40/6 36/30/6 12/12/6

usemtl Translucent_Glass_Blue
v 1.48985 8.501 -35.5013
f 36/30/5 40/4/5 39/40/5

f 40/4/5 36/30/5 35/16/5

f 35/16/6 36/30/6 40/4/6

usemtl Color_000
f 27/33/3 35/2/3 36/27/3

f 35/2/3 27/33/3 19/34/3

f 19/34/4 27/33/4 35/2/4

f 36/27/4 35/2/4 27/33/4

usemtl Color_F17
vt 1.9685 0
f 19/34/3 21/43/3 35/2/3

vt 9.09495e-013 0
f 21/43/3 19/34/3 20/44/3

usemtl Color_000
f 20/44/4 19/34/4 21/43/4

v 1.53985 8.451 -35.5513
vt 86.6142 5.68434e-014
f 41/45/5 19/16/5 20/22/5

v 1.53985 8.501 -35.5013
f 19/16/5 41/45/5 42/4/5

f 20/22/6 19/16/6 41/45/6

f 42/4/6 41/45/6 19/16/6

v 1.53985 9.00784 -35.5377
vt 86.0777 21.923
f 42/4/5 41/45/5 43/46/5

f 43/46/6 41/45/6 42/4/6

f 43/46/5 41/45/5 9/11/5

f 9/11/6 41/45/6 43/46/6

usemtl Color_F17
v 1.48985 8.451 -35.5513
vt 1.9685 5.68434e-014
vt -1.00286e-029 55.1181
vt -1.00286e-029 5.68434e-014
f 44/47/3 9/48/3 41/49/3

v 1.48985 9.851 -35.5513
vt 1.9685 55.1181
f 9/48/3 44/47/3 45/50/3

usemtl Color_000
f 41/49/4 9/48/4 44/47/4

f 45/50/4 44/47/4 9/48/4

v 1.48985 9.00784 -35.5377
f 46/46/5 44/45/5 45/11/5

f 40/4/5 44/45/5 46/46/5

f 35/16/5 44/45/5 40/4/5

f 44/45/5 35/16/5 21/22/5

f 21/22/6 35/16/6 44/45/6

f 35/2/4 21/43/4 19/34/4

vn 4.80478e-017 1 -3.73432e-016
f 42/1/7 35/16/7 19/13/7

f 35/16/7 42/1/7 40/4/7

vn -4.80478e-017 -1 3.73432e-016
f 19/13/8 35/16/8 42/1/8

f 40/4/8 42/1/8 35/16/8

vt 9.80069e-030 1.9685
vt -1.9685 1.9685
f 42/51/4 39/38/4 40/52/4

vt 9.80069e-030 53.1496
f 39/38/4 42/51/4 38/53/4

f 38/53/3 42/51/3 39/38/3

v 1.53985 9.00784 -35.5187
vt 85.3297 21.923
f 42/4/5 47/54/5 38/40/5

f 47/54/5 42/4/5 43/46/5

f 38/40/6 47/54/6 42/4/6

v 1.53985 9.14284 -35.5187
vt 85.3297 27.238
f 38/40/5 47/54/5 48/55/5

f 48/55/6 47/54/6 38/40/6

usemtl Color_F17
v 1.48985 9.00784 -35.5187
vt 1.9685 21.923
vt -9.87989e-030 27.238
vt -9.87989e-030 21.923
f 49/56/3 48/57/3 47/58/3

v 1.48985 9.14284 -35.5187
vt 1.9685 27.238
f 48/57/3 49/56/3 50/59/3

usemtl Color_000
f 47/58/4 48/57/4 49/56/4

v 1.53985 9.14284 -35.5377
vt 86.0777 27.238
f 47/54/5 51/60/5 48/55/5

f 51/60/5 47/54/5 43/46/5

f 43/46/6 47/54/6 51/60/6

f 43/46/6 42/4/6 47/54/6

usemtl Color_F17
vt 86.0777 0
vt 85.3297 1.9685
vt 85.3297 0
f 43/61/1 49/62/1 47/63/1

vt 86.0777 1.9685
f 49/62/1 43/61/1 46/64/1

usemtl Color_000
f 47/63/2 49/62/2 43/61/2

f 46/64/2 43/61/2 49/62/2

vt -9.9665e-030 27.238
vt -9.9665e-030 21.923
f 46/56/3 51/65/3 43/66/3

v 1.48985 9.14284 -35.5377
f 51/65/3 46/56/3 52/59/3

f 43/66/4 51/65/4 46/56/4

f 43/46/5 9/11/5 51/60/5

f 51/60/6 9/11/6 43/46/6

f 51/60/5 9/11/5 48/55/5

f 48/55/6 9/11/6 51/60/6

f 48/55/5 9/11/5 38/40/5

f 38/40/6 9/11/6 48/55/6

f 38/40/5 9/11/5 10/12/5

f 10/12/6 9/11/6 38/40/6

usemtl Color_F17
vt 86.6142 0
f 9/67/1 12/16/1 10/13/1

vt 86.6142 1.9685
f 12/16/1 9/67/1 45/68/1

usemtl Color_000
f 10/13/2 12/16/2 9/67/2

f 12/16/2 10/13/2 11/14/2

usemtl Color_F17
vt -2.27923e-031 55.1181
f 45/11/5 11/69/5 12/12/5

f 11/69/5 45/11/5 2/5/5

usemtl Color_000
f 12/12/6 11/69/6 45/11/6

usemtl Color_F17
f 11/69/5 31/27/5 12/12/5

v 1.48985 9.14284 -33.3707
f 11/69/5 53/20/5 31/27/5

f 14/35/5 53/20/5 11/69/5

f 14/35/5 34/21/5 53/20/5

usemtl Color_000
f 34/21/6 29/2/6 14/35/6

f 32/26/6 29/2/6 34/21/6

f 33/28/5 34/21/5 32/26/5

f 34/21/5 33/28/5 53/20/5

f 32/26/6 34/21/6 33/28/6

usemtl Color_F17
vt 0.762775 1.9685
vt 1.51081 0
vt 1.51081 1.9685
f 34/70/1 23/71/1 32/72/1

vt 0.762775 0
f 23/71/1 34/70/1 16/73/1

usemtl Color_000
f 16/73/2 34/70/2 23/71/2

usemtl Color_F17
vt -8.83178e-032 27.238
vt -8.83178e-032 21.923
f 34/56/3 15/74/3 16/75/3

f 15/74/3 34/56/3 53/59/3

usemtl Color_000
f 16/75/4 15/74/4 34/56/4

f 16/21/5 25/28/5 15/20/5

f 25/28/5 16/21/5 23/26/5

f 23/26/6 16/21/6 25/28/6

f 15/20/6 25/28/6 16/21/6

f 25/71/1 53/70/1 15/73/1

f 53/70/1 25/71/1 33/72/1

f 15/73/2 53/70/2 25/71/2

f 53/59/4 34/56/4 15/74/4

f 53/20/6 33/28/6 34/21/6

f 33/72/2 25/71/2 53/70/2

usemtl Color_F17
vt -1.9685 27.238
vt 1.74929e-031 21.923
vt 1.74929e-031 27.238
f 33/76/4 23/77/4 25/78/4

vt -1.9685 21.923
f 23/77/4 33/76/4 32/79/4

usemtl Color_000
f 25/78/3 23/77/3 33/76/3

f 32/79/3 33/76/3 23/77/3

f 33/28/6 31/27/6 32/26/6

usemtl Color_F17
f 33/28/5 31/27/5 53/20/5

usemtl Color_000
f 53/20/6 31/27/6 33/28/6

f 31/27/6 53/20/6 11/69/6

f 11/69/6 53/20/6 14/35/6

f 53/20/6 34/21/6 14/35/6

f 14/19/3 11/17/3 13/18/3

f 12/12/6 31/27/6 11/69/6

usemtl Color_F17
f 37/29/5 12/12/5 31/27/5

usemtl Color_000
f 31/27/6 12/12/6 37/29/6

usemtl Translucent_Glass_Blue
f 29/2/5 37/29/5 31/27/5

f 37/29/5 29/2/5 30/31/5

f 30/31/6 29/2/6 37/29/6

usemtl Color_000
f 30/31/2 28/32/2 29/2/2

vt 5.01431e-030 1.9685
f 28/80/4 37/38/4 30/52/4

vt 5.01431e-030 53.1496
f 37/38/4 28/80/4 26/81/4

f 26/81/3 28/80/3 37/38/3

f 26/29/6 27/30/6 28/31/6

f 30/52/3 37/38/3 28/80/3

usemtl Color_F17
vt -1.9685 9.09495e-013
vt -43.3071 1.9685
vt -43.3071 0
f 24/82/2 37/83/2 26/84/2

f 37/83/2 24/82/2 31/52/2

usemtl Color_000
f 31/52/1 24/82/1 37/83/1

f 26/84/1 37/83/1 24/82/1

f 24/27/6 10/12/6 26/29/6

usemtl Translucent_Glass_Blue
f 31/27/6 37/29/6 29/2/6

usemtl Color_000
f 32/72/2 23/71/2 34/70/2

f 15/20/6 16/21/6 13/18/6

f 14/35/6 29/2/6 22/36/6

f 22/25/3 14/19/3 18/15/3

f 2/5/6 45/11/6 11/69/6

usemtl Color_F17
vt 84.6457 57.0866
f 45/11/5 4/85/5 2/5/5

v 1.48985 10.551 -35.5513
vt 86.6142 82.6772
f 4/85/5 45/11/5 54/86/5

usemtl Color_000
f 2/5/6 4/85/6 45/11/6

f 4/4/2 1/1/2 2/2/2

vt 9.80069e-030 57.0866
v 1.48985 10.501 -35.5013
vt -1.9685 80.7087
vt -1.9685 57.0866
f 1/87/4 55/88/4 4/89/4

v 1.53985 10.501 -35.5013
vt 9.80069e-030 80.7087
f 55/88/4 1/87/4 56/90/4

f 56/90/3 1/87/3 55/88/3

v 1.53985 10.551 -35.5513
vt 84.6457 80.7087
f 1/85/5 57/86/5 56/91/5

f 1/85/5 9/11/5 57/86/5

f 9/11/5 1/85/5 3/5/5

f 3/5/6 1/85/6 9/11/6

f 57/86/6 9/11/6 1/85/6

usemtl Color_F17
vt -1.00286e-029 82.6772
f 45/50/3 57/92/3 9/48/3

vt 1.9685 82.6772
f 57/92/3 45/50/3 54/93/3

usemtl Color_000
f 9/48/4 57/92/4 45/50/4

f 54/93/4 45/50/4 57/92/4

f 54/86/6 45/11/6 4/85/6

usemtl Color_F17
f 4/85/5 54/86/5 55/91/5

usemtl Color_000
f 55/91/6 54/86/6 4/85/6

usemtl Color_F17
f 55/91/5 54/86/5 6/8/5

usemtl Color_000
f 6/8/6 54/86/6 55/91/6

usemtl Color_F17
v 1.48985 10.551 -33.3513
vt -2.27923e-031 82.6772
f 58/94/5 6/8/5 54/86/5

f 58/94/5 2/5/5 6/8/5

f 11/69/5 2/5/5 58/94/5

usemtl Color_000
f 58/94/6 2/5/6 11/69/6

f 6/8/6 2/5/6 58/94/6

f 6/8/4 2/5/4 5/6/4

usemtl Translucent_Glass_Blue
vn 1 -6.05785e-016 3.35047e-012
f 4/85/9 6/8/9 2/5/9

f 6/8/9 4/85/9 55/91/9

vn -1 6.05785e-016 -3.35047e-012
f 2/5/10 6/8/10 4/85/10

f 55/91/10 4/85/10 6/8/10

usemtl Color_000
f 4/89/3 55/88/3 1/87/3

usemtl Color_F17
f 55/41/2 5/82/2 6/52/2

f 5/82/2 55/41/2 56/42/2

usemtl Color_000
f 6/52/1 5/82/1 55/41/1

f 56/42/1 55/41/1 5/82/1

f 56/91/5 57/86/5 5/8/5

f 56/91/6 57/86/6 1/85/6

f 5/8/6 57/86/6 56/91/6

f 7/9/5 5/8/5 57/86/5

f 5/8/6 3/5/6 7/9/6

f 7/9/6 3/5/6 8/10/6

f 3/5/6 9/11/6 8/10/6

vt -1.9685 82.6772
f 58/95/4 8/10/4 7/9/4

f 8/10/4 58/95/4 11/17/4

f 7/9/3 8/10/3 58/95/3

f 11/17/3 58/95/3 8/10/3

f 57/67/1 58/14/1 7/15/1

f 58/14/1 57/67/1 54/68/1

f 7/15/2 58/14/2 57/67/2

f 54/68/2 57/67/2 58/14/2

f 54/86/6 6/8/6 58/94/6

f 57/86/6 5/8/6 7/9/6

f 45/68/2 9/67/2 12/16/2

f 39/40/5 45/11/5 12/12/5

f 50/55/5 45/11/5 39/40/5

f 52/60/5 45/11/5 50/55/5

f 46/46/5 45/11/5 52/60/5

f 45/11/6 44/45/6 46/46/6

f 46/46/6 44/45/6 40/4/6

f 40/4/6 44/45/6 35/16/6

f 49/54/5 40/4/5 46/46/5

f 40/4/5 49/54/5 39/40/5

f 39/40/6 49/54/6 40/4/6

f 39/40/5 49/54/5 50/55/5

f 50/55/6 49/54/6 39/40/6

f 49/54/5 52/60/5 50/55/5

f 52/60/5 49/54/5 46/46/5

f 46/46/6 49/54/6 52/60/6

f 46/46/6 40/4/6 49/54/6

f 50/55/6 52/60/6 49/54/6

f 50/62/1 51/61/1 52/64/1

f 51/61/1 50/62/1 48/63/1

f 48/63/2 50/62/2 51/61/2

f 50/59/4 49/56/4 48/57/4

f 52/64/2 51/61/2 50/62/2

f 52/59/4 46/56/4 51/65/4

f 52/60/6 45/11/6 46/46/6

f 50/55/6 45/11/6 52/60/6

f 39/40/6 45/11/6 50/55/6

f 12/12/6 45/11/6 39/40/6

f 48/55/6 51/60/6 47/54/6

usemtl Translucent_Glass_Blue
f 39/40/6 40/4/6 36/30/6

usemtl Color_000
f 40/52/3 39/38/3 42/51/3

f 38/42/1 39/41/1 27/24/1

usemtl Color_F17
vt -86.6142 1.9685
f 44/96/2 20/24/2 21/23/2

vt -86.6142 0
f 20/24/2 44/96/2 41/97/2

usemtl Color_000
f 21/23/1 20/24/1 44/96/1

f 20/24/1 21/23/1 18/15/1

f 41/97/1 44/96/1 20/24/1

g Mesh2 ventana1_1 FRD038 Model

l 2 4

l 2 3

l 6 2

l 55 6

l 4 55

l 4 1

l 3 1

l 5 3

l 6 5

l 56 5

l 55 56

l 1 56

g Mesh3 ventana1_1 FRD038 Model

l 44 41

l 44 45

l 21 44

l 35 21

l 35 19

l 36 35

l 39 36

l 39 38

l 40 39

l 40 42

l 35 40

l 42 38

l 19 42

l 19 20

l 27 19

l 38 27

l 10 27

l 10 8

l 12 10

l 12 11

l 45 12

l 45 54

l 45 9

l 41 9

l 20 41

l 21 20

l 22 21

l 14 22

l 11 14

l 58 11

l 54 58

l 54 57

l 9 57

l 9 10

l 57 7

l 7 8

l 58 7

l 11 8

l 8 13

l 14 13

l 13 18

l 22 18

l 18 20

l 12 36

l 36 27

g Mesh4 ventana1_1 FRD038 Model

l 51 43

l 48 51

l 50 48

l 50 52

l 49 50

l 46 49

l 52 46

l 52 51

l 46 43

l 43 47

l 47 48

l 49 47

g Mesh5 ventana1_1 FRD038 Model

l 53 33

l 34 53

l 32 34

l 33 32

l 33 25

l 15 25

l 16 15

l 23 16

l 25 23

l 32 23

l 34 16

l 53 15

g Mesh6 ventana1_1 FRD038 Model

l 37 30

l 37 31

l 37 26

l 26 28

l 26 24

l 24 17

l 31 24

l 31 29

l 29 30

l 29 17

l 17 28

l 30 28

g Mesh7 FRD038 Model

usemtl _Color_C03_3
v 2.96699 7.551 -36.2073
vt 128.615 1.59565e-013
vn 0.794777 6.37236e-015 0.606901
v 2.88853 11.151 -36.1045
vt 123.525 141.732
v 2.88853 7.551 -36.1045
vt 123.525 1.59565e-013
f 59/98/11 60/99/11 61/100/11

v 2.96699 11.151 -36.2073
vt 128.615 141.732
f 60/99/11 59/98/11 62/101/11

usemtl BackColor
vn -0.794777 -6.37236e-015 -0.606901
f 61/100/12 60/99/12 59/98/12

usemtl _Color_C03_3
vt 94.5017 141.732
vn 0.385355 8.60179e-016 0.922768
v 2.76924 7.551 -36.0547
vt 89.412 7.17353e-014
vt 94.5017 7.17353e-014
f 60/102/13 63/103/13 61/104/13

v 2.76924 11.151 -36.0547
vt 89.412 141.732
f 63/103/13 60/102/13 64/105/13

usemtl BackColor
vn -0.385355 -8.60179e-016 -0.922768
f 61/104/14 63/103/14 60/102/14

usemtl _Tile_Ceramic_Natural_14
vt 1.964 25.5707
vn 4.96817e-016 1 -9.75219e-015
v 4.8914 7.551 -33.2249
vt 3.46908 23.5638
vt 2.0486 25.6061
f 63/106/15 65/107/15 61/108/15

v 2.64101 7.551 -36.0712
vt 1.87306 25.5824
f 66/109/15 65/107/15 63/106/15

v 2.53814 7.551 -36.1495
vt 1.8001 25.6379
f 67/110/15 65/107/15 66/109/15

v 1.54081 7.551 -36.2613
vt 1.09277 25.7173
f 68/111/15 65/107/15 67/110/15

v 1.54058 7.551 -35.5613
vt 1.09261 25.2208
f 69/112/15 65/107/15 68/111/15

v 1.54058 7.551 -35.5513
vt 1.09261 25.2137
f 70/113/15 65/107/15 69/112/15

v 1.53985 7.551 -33.3513
vt 1.09209 23.6534
f 71/114/15 65/107/15 70/113/15

v 1.53984 7.551 -33.3175
vt 1.09209 23.6294
f 72/115/15 65/107/15 71/114/15

v 1.53982 7.551 -33.2475
vt 1.09207 23.5798
f 73/116/15 65/107/15 72/115/15

v 1.53982 7.551 -33.2249
vt 1.09207 23.5638
f 65/107/15 73/116/15 74/117/15

usemtl BackColor
vt 1.96716 -1.60856e-026
vn -4.96817e-016 -1 9.75219e-015
vt 1.96716 0.890174
vt 133.919 -8.40971e-027
f 74/118/16 73/119/16 65/120/16

usemtl FrontColor
vt -0.000645514 2.83817e-007
vn -1 1.44277e-007 -0.000328145
v 1.53982 11.151 -33.2475
vt -0.89082 141.732
vt -0.89082 2.83775e-007
f 74/121/17 75/122/17 73/123/17

v 1.53982 11.151 -33.2249
vt -0.000645514 141.732
f 75/122/17 74/121/17 76/124/17

usemtl Color_D03
vn 1 -1.44277e-007 0.000328145
f 76/124/18 74/121/18 75/122/18

v 4.8914 11.151 -33.2249
vt -133.919 141.732
vn 0 0 -1
vt -1.96716 1.64846e-012
vt -1.96716 141.732
f 77/125/19 74/126/19 76/127/19

vt -133.919 7.95808e-013
f 74/126/19 77/125/19 65/128/19

usemtl BackColor
vn -0 -0 1
f 65/128/20 77/125/20 74/126/20

usemtl Color_D03
v 5.79011 11.151 -34.1272
vt -144.645 141.732
vn -0.708506 -8.84735e-015 -0.705705
vt -94.5074 -4.36503e-014
vt -94.5074 141.732
f 78/129/21 65/130/21 77/131/21

v 5.79011 7.551 -34.1272
vt -144.645 4.11097e-013
f 65/130/21 78/129/21 79/132/21

usemtl BackColor
vn 0.708506 8.84735e-015 0.705705
f 77/131/22 65/130/22 78/129/22

f 79/132/22 78/129/22 65/130/22

usemtl Color_D03
vt -35.5784 141.732
vn -1 -1.42679e-015 -0.000328946
v 5.79049 7.551 -35.2799
vt -80.9623 1.56363e-013
vt -35.5784 1.00901e-012
f 78/133/23 80/134/23 79/135/23

v 5.79049 9.651 -35.2799
vt -80.9623 82.6772
f 80/134/23 78/133/23 81/136/23

usemtl BackColor
vn 1 1.42679e-015 0.000328946
f 79/135/24 80/134/24 78/133/24

usemtl _Tile_Ceramic_Natural_14
v 5.79081 7.551 -36.2599
vt 4.10696 25.7163
vt 4.10646 24.2037
vt 4.10673 25.0212
f 82/137/15 79/138/15 80/139/15

f 82/137/15 65/107/15 79/138/15

v 2.97394 7.551 -36.2609
vt 2.10918 25.7169
f 83/140/15 65/107/15 82/137/15

vt 2.10425 25.6789
f 59/141/15 65/107/15 83/140/15

f 61/108/15 65/107/15 59/141/15

usemtl BackColor
vt 55.0661 113.372
vt 50.3696 111.41
f 61/142/16 65/120/16 63/143/16

vt 58.155 117.417
f 59/144/16 65/120/16 61/142/16

vt 58.4288 119.526
f 83/145/16 65/120/16 59/144/16

vt 169.329 119.489
f 82/146/16 65/120/16 83/145/16

vt 169.301 35.5227
f 79/147/16 65/120/16 82/146/16

vt 169.316 80.9066
f 80/148/16 79/147/16 82/146/16

usemtl _Tile_Ceramic_Natural_14
v 5.79077 7.551 -36.1299
vt 4.10693 25.6241
f 82/137/15 80/139/15 84/149/15

usemtl BackColor
vt 169.327 114.371
f 84/150/16 80/148/16 82/146/16

usemtl Color_D03
vt -114.427 9.52171e-013
v 5.79081 11.151 -36.2599
vt -119.545 141.732
vt -119.545 8.95328e-013
f 84/151/23 85/152/23 82/153/23

v 5.79077 9.651 -36.1299
vt -114.427 82.6772
f 86/154/23 85/152/23 84/151/23

f 81/136/23 85/152/23 86/154/23

f 85/152/23 81/136/23 78/133/23

usemtl BackColor
f 78/133/24 81/136/24 85/152/24

f 81/136/24 78/133/24 80/134/24

f 86/154/24 85/152/24 81/136/24

f 84/151/24 85/152/24 86/154/24

f 82/153/24 85/152/24 84/151/24

usemtl Color_D03
v 2.97394 11.151 -36.2609
vt 58.3895 141.732
vn -0.000328946 -9.62067e-015 1
vt 169.29 -1.32338e-014
vt 169.29 141.732
f 87/155/25 82/156/25 85/157/25

vt 58.3895 -1.1501e-012
f 82/156/25 87/155/25 83/158/25

usemtl BackColor
vn 0.000328946 9.62067e-015 -1
f 83/158/26 87/155/26 82/156/26

usemtl _Color_C03_3
vt 123.927 141.732
vn 0.991677 -9.00572e-015 0.12875
vt 126.054 3.83226e-013
vt 126.054 141.732
f 62/159/27 83/160/27 87/161/27

vt 123.927 3.83226e-013
f 83/160/27 62/159/27 59/162/27

usemtl BackColor
vn -0.991677 9.00572e-015 -0.12875
f 59/162/28 62/159/28 83/160/28

f 62/101/12 59/98/12 60/99/12

f 87/161/28 83/160/28 62/159/28

f 85/157/26 82/156/26 87/155/26

vt 45.3213 112.057
f 63/143/16 65/120/16 66/163/16

vt 41.271 115.14
f 66/163/16 65/120/16 67/164/16

vt 2.00619 119.544
f 67/164/16 65/120/16 68/165/16

vt 1.99712 91.9852
f 68/165/16 65/120/16 69/166/16

vt 1.997 91.5915
f 69/166/16 65/120/16 70/167/16

vt 1.9685 4.97736
f 70/167/16 65/120/16 71/168/16

vt 1.96807 3.64608
f 71/168/16 65/120/16 72/169/16

f 72/169/16 65/120/16 73/119/16

usemtl FrontColor
v 1.53984 11.151 -33.3175
vt -3.64673 141.732
vt -3.64673 2.83775e-007
f 73/123/17 88/170/17 72/171/17

f 73/123/17 75/122/17 88/170/17

usemtl Color_D03
f 73/123/18 75/122/18 74/121/18

f 88/170/18 75/122/18 73/123/18

f 72/171/18 88/170/18 73/123/18

usemtl FrontColor
vt -4.978 2.83776e-007
f 72/171/17 88/170/17 71/172/17

usemtl Color_D03
f 71/172/18 88/170/18 72/171/18

usemtl FrontColor
v 1.53985 10.551 -33.3513
vt -4.978 118.11
f 71/172/17 88/170/17 89/173/17

usemtl Color_D03
f 89/173/18 88/170/18 71/172/18

usemtl FrontColor
v 1.54081 11.151 -36.2613
f 90/152/17 89/173/17 88/170/17

v 1.54058 10.551 -35.5513
vt -91.5922 118.11
f 89/173/17 90/152/17 91/174/17

usemtl Color_D03
f 88/170/18 89/173/18 90/152/18

f 91/174/18 90/152/18 89/173/18

usemtl FrontColor
v 1.54058 8.451 -35.5513
vt -91.5922 35.4331
f 91/174/17 90/152/17 92/175/17

usemtl Color_D03
f 92/175/18 90/152/18 91/174/18

usemtl FrontColor
vt -91.5922 2.83786e-007
f 92/175/17 90/152/17 70/176/17

usemtl Color_D03
f 70/176/18 90/152/18 92/175/18

usemtl FrontColor
vt -91.9859 2.83786e-007
f 70/176/17 90/152/17 69/177/17

usemtl Color_D03
f 69/177/18 90/152/18 70/176/18

usemtl FrontColor
vt -119.545 2.83788e-007
f 69/177/17 90/152/17 68/178/17

usemtl Color_D03
f 68/178/18 90/152/18 69/177/18

vt 1.96687 1.46094e-014
vn -0.000328946 -3.20628e-015 1
v 2.49133 11.151 -36.261
vt 39.3889 141.732
vt 1.96687 141.732
f 68/179/29 93/180/29 90/181/29

v 2.49133 7.551 -36.261
vt 39.3889 -3.83295e-013
f 93/180/29 68/179/29 94/182/29

usemtl BackColor
vn 0.000328946 3.20628e-015 -1
f 94/182/30 68/179/30 93/180/30

usemtl _Tile_Ceramic_Natural_14
vt 1.7669 25.717
f 68/111/15 67/110/15 94/183/15

usemtl BackColor
vt 39.4282 119.532
f 94/184/16 67/164/16 68/165/16

usemtl _Color_C03_3
vt -90.2066 2.10793e-012
vn -0.92213 2.55189e-014 0.38688
vt -94.97 141.732
vt -94.97 2.10793e-012
f 67/185/31 93/186/31 94/187/31

v 2.53814 11.151 -36.1495
vt -90.2066 141.732
f 93/186/31 67/185/31 95/188/31

usemtl BackColor
vn 0.92213 -2.55189e-014 -0.38688
f 95/188/32 67/185/32 93/186/32

usemtl _Color_C03_3
vt -36.8843 3.0286e-012
vn -0.605586 2.59701e-014 0.79578
v 2.64101 11.151 -36.0712
vt -31.7947 141.732
vt -36.8843 141.732
f 67/189/33 96/190/33 95/191/33

vt -31.7947 3.0286e-012
f 96/190/33 67/189/33 66/192/33

usemtl BackColor
vn 0.605586 -2.59701e-014 -0.79578
f 66/192/34 67/189/34 96/190/34

f 95/191/34 96/190/34 67/189/34

usemtl _Color_C03_3
vt 30.71 8.67801e-013
vn -0.12711 7.42287e-015 0.991889
vt 35.7997 141.732
vt 30.71 141.732
f 66/193/35 64/194/35 96/195/35

vt 35.7997 8.67801e-013
f 64/194/35 66/193/35 63/196/35

usemtl BackColor
vn 0.12711 -7.42287e-015 -0.991889
f 63/196/36 66/193/36 64/194/36

f 96/195/36 64/194/36 66/193/36

f 64/105/14 60/102/14 63/103/14

f 94/187/32 93/186/32 67/185/32

f 90/181/30 93/180/30 68/179/30

usemtl FrontColor
f 71/172/17 92/175/17 70/176/17

vt -4.978 35.4331
f 71/172/17 18/197/17 92/175/17

f 71/172/17 89/173/17 18/197/17

usemtl Color_D03
f 18/197/18 89/173/18 71/172/18

f 92/175/18 18/197/18 71/172/18

f 70/176/18 92/175/18 71/172/18

usemtl BackColor
f 76/127/20 74/126/20 77/125/20

g Mesh8 FRD038 Model

l 61 59

l 61 60

l 63 61

l 66 63

l 66 96

l 67 66

l 67 95

l 94 67

l 94 93

l 94 68

l 68 90

l 68 69

l 70 69

l 71 70

l 72 71

l 73 72

l 74 73

l 74 76

l 65 74

l 79 65

l 80 79

l 80 81

l 80 84

l 84 82

l 84 86

l 86 81

l 82 85

l 82 83

l 83 87

l 59 83

l 59 62

l 60 62

l 64 60

l 63 64

l 96 64

l 95 96

l 93 95

l 93 90

l 90 88

l 88 75

l 75 76

l 77 76

l 65 77

l 78 77

l 85 78

l 85 87

l 62 87

l 79 78

g Mesh9 FRD038 Model

l 18 89

l 92 18

l 92 91

l 89 91

