# Alias OBJ Model File
# Exported from SketchUp, (c) 2000-2012 Trimble Navigation Limited
# File units = meters

mtllib DES043.mtl

g Mesh1 ventana2_1 DES043 Model

usemtl Color_000
v 4.28458 9.12261 -17.3355
vt 1.37598 26.4413
vn -1 2.84708e-016 -0.000328946
v 4.28459 9.00361 -17.3565
vt 0.549204 21.7563
v 4.28458 9.00361 -17.3355
vt 1.37598 21.7563
f 1/1/1 2/2/1 3/3/1

v 4.28459 9.12261 -17.3565
vt 0.549204 26.4413
f 2/2/1 1/1/1 4/4/1

usemtl BackColor
vn 1 -2.84708e-016 0.000328946
f 3/3/2 2/2/2 1/1/2

usemtl Color_000
v 4.28459 9.001 -17.3704
vt 0 21.6535
f 2/2/1 5/5/1 3/3/1

v 4.28459 9.851 -17.3704
vt 0 55.1181
f 5/5/1 2/2/1 6/6/1

usemtl BackColor
f 6/6/2 2/2/2 5/5/2

usemtl Color_000
f 6/6/1 2/2/1 4/4/1

usemtl BackColor
f 4/4/2 2/2/2 6/6/2

f 4/4/2 1/1/2 2/2/2

usemtl Color_000
v 4.28458 9.801 -17.3204
vt 1.9685 53.1496
f 1/1/1 7/7/1 4/4/1

f 3/3/1 7/7/1 1/1/1

v 4.28458 8.501 -17.3204
vt 1.9685 1.9685
f 3/3/1 8/8/1 7/7/1

f 5/5/1 8/8/1 3/3/1

v 4.28459 8.451 -17.3704
vt 0 0
f 9/9/1 8/8/1 5/5/1

v 4.28423 8.501 -16.2704
vt 43.3071 1.9685
f 8/8/1 9/9/1 10/10/1

usemtl BackColor
f 5/5/2 8/8/2 9/9/2

f 3/3/2 8/8/2 5/5/2

f 7/7/2 8/8/2 3/3/2

usemtl M_0128_White
v 4.33458 8.501 -17.3204
vn -0.000328946 5.42711e-016 1
vt 4.54747e-013 53.1496
vt 4.54747e-013 1.9685
f 11/8/3 7/11/3 8/12/3

v 4.33458 9.801 -17.3204
f 7/11/3 11/8/3 12/7/3

usemtl BackColor
vn 0.000328946 -5.42711e-016 -1
f 8/12/4 7/11/4 11/8/4

f 12/7/4 11/8/4 7/11/4

usemtl FrontColor
v 4.33459 9.851 -17.3704
vt 9.09495e-013 55.1181
f 13/13/1 11/8/1 12/7/1

v 4.33459 8.451 -17.3704
vt 9.09495e-013 0
f 14/14/1 11/8/1 13/13/1

v 4.33423 8.501 -16.2704
f 11/8/1 14/14/1 15/10/1

usemtl M_0128_White
f 13/13/2 11/8/2 14/14/2

f 12/7/2 11/8/2 13/13/2

usemtl Translucent_Glass_Blue
vn -1 3.83492e-015 -0.000328946
v 4.33423 9.801 -16.2704
vt 43.3071 53.1496
f 11/8/5 16/15/5 12/7/5

f 16/15/5 11/8/5 15/10/5

vn 1 -3.83492e-015 0.000328946
f 15/10/6 11/8/6 16/15/6

usemtl M_0128_White
vn 2.84843e-016 1 -4.08333e-016
vt 43.3071 4.54747e-013
f 11/8/7 10/16/7 15/10/7

vt 1.9685 4.54747e-013
f 10/16/7 11/8/7 8/17/7

usemtl BackColor
vn -2.84843e-016 -1 4.08333e-016
f 8/17/8 11/8/8 10/16/8

f 15/10/8 10/16/8 11/8/8

usemtl M_0128_White
vt -4.54747e-013 1.9685
vt -1.9685 53.1496
vt -1.9685 1.9685
f 10/18/4 16/19/4 15/20/4

v 4.28423 9.801 -16.2704
vt -4.54747e-013 53.1496
f 16/19/4 10/18/4 17/21/4

usemtl BackColor
f 17/21/3 10/18/3 16/19/3

usemtl Color_000
v 4.28422 8.501 -16.2204
vt 45.2756 1.9685
f 10/10/1 18/22/1 17/15/1

f 9/9/1 18/22/1 10/10/1

v 4.28422 8.451 -16.2204
vt 45.2756 0
f 18/22/1 9/9/1 19/23/1

usemtl BackColor
f 19/23/2 9/9/2 18/22/2

usemtl FrontColor
vt -9.09495e-013 1.9685
vn -2.84887e-016 -1 5.42617e-016
vt -45.2756 4.54747e-013
f 14/24/9 19/25/9 9/9/9

v 4.33422 8.451 -16.2204
vt -45.2756 1.9685
f 19/25/9 14/24/9 20/26/9

usemtl BackColor
vn 2.84887e-016 1 -5.42617e-016
f 9/9/10 19/25/10 14/24/10

f 20/26/10 14/24/10 19/25/10

usemtl FrontColor
v 4.33422 8.501 -16.2204
f 21/22/1 14/14/1 20/23/1

f 14/14/1 21/22/1 15/10/1

usemtl M_0128_White
f 20/23/2 14/14/2 21/22/2

f 15/10/2 21/22/2 14/14/2

usemtl FrontColor
f 15/10/1 21/22/1 16/15/1

usemtl M_0128_White
f 16/15/2 21/22/2 15/10/2

usemtl FrontColor
v 4.33422 9.801 -16.2204
vt 45.2756 53.1496
f 16/15/1 21/22/1 22/27/1

usemtl M_0128_White
f 22/27/2 21/22/2 16/15/2

f 22/7/3 18/12/3 21/8/3

v 4.28422 9.801 -16.2204
vt 5.24223e-030 53.1496
f 18/12/3 22/7/3 23/28/3

usemtl BackColor
f 23/28/4 22/7/4 18/12/4

usemtl M_0128_White
v 4.28389 9.801 -15.2204
vt -84.6457 0
vt -45.2756 0
f 22/26/9 24/29/9 23/30/9

v 4.33393 9.801 -15.3394
vt -79.9606 1.9685
f 24/29/9 22/26/9 25/31/9

usemtl BackColor
f 23/30/10 24/29/10 22/26/10

usemtl Color_000
vt 84.6457 53.1496
v 4.28387 9.851 -15.1704
vt 86.6142 55.1181
f 24/32/1 26/33/1 23/27/1

v 4.28388 9.12261 -15.2065
vt 85.1949 26.4413
f 27/34/1 26/33/1 24/32/1

v 4.28388 9.12261 -15.1855
vt 86.0216 26.4413
f 28/35/1 26/33/1 27/34/1

v 4.28388 9.00361 -15.1855
vt 86.0216 21.7563
f 29/36/1 26/33/1 28/35/1

v 4.28387 8.451 -15.1704
vt 86.6142 0
f 29/36/1 30/37/1 26/33/1

v 4.28389 8.501 -15.2204
vt 84.6457 1.9685
f 31/38/1 30/37/1 29/36/1

f 30/37/1 31/38/1 19/23/1

usemtl BackColor
f 19/23/2 31/38/2 30/37/2

usemtl Color_000
f 18/22/1 19/23/1 31/38/1

usemtl FrontColor
vt -4.54747e-013 0
f 21/20/4 19/39/4 18/18/4

vt -1.9685 0
f 19/39/4 21/20/4 20/40/4

usemtl BackColor
f 18/18/3 19/39/3 21/20/3

f 31/38/2 19/23/2 18/22/2

usemtl M_0128_White
vt 84.6457 1.94109e-031
vn 2.84915e-016 1 -6.27216e-016
vt 45.2756 4.54747e-013
f 31/41/11 21/22/11 18/42/11

v 4.33389 8.501 -15.2204
f 21/22/11 31/41/11 32/38/11

usemtl BackColor
vn -2.84915e-016 -1 6.27216e-016
f 18/42/12 21/22/12 31/41/12

f 21/8/4 18/12/4 22/7/4

usemtl Translucent_Glass_Blue
vn -1 9.49112e-015 -0.000328946
vt 79.9606 53.1496
f 21/22/13 25/43/13 22/27/13

v 4.33389 9.801 -15.2204
f 21/22/13 33/32/13 25/43/13

f 33/32/13 21/22/13 32/38/13

vn 1 -9.49112e-015 0.000328946
f 32/38/14 21/22/14 33/32/14

usemtl BackColor
f 32/38/12 31/41/12 21/22/12

usemtl M_0128_White
vt -9.80069e-030 1.9685
f 31/44/4 33/19/4 32/20/4

vt -9.80069e-030 53.1496
f 33/19/4 31/44/4 24/45/4

usemtl BackColor
f 24/45/3 31/44/3 33/19/3

usemtl Color_000
v 4.28388 9.00361 -15.2065
vt 85.1949 21.7563
f 31/38/1 34/46/1 24/32/1

f 34/46/1 31/38/1 29/36/1

usemtl BackColor
f 24/32/2 34/46/2 31/38/2

usemtl Color_000
f 24/32/1 34/46/1 27/34/1

usemtl BackColor
f 27/34/2 34/46/2 24/32/2

usemtl Color_000
f 34/46/1 28/35/1 27/34/1

f 28/35/1 34/46/1 29/36/1

usemtl BackColor
f 29/36/2 34/46/2 28/35/2

f 29/36/2 31/38/2 34/46/2

f 29/36/2 30/37/2 31/38/2

f 26/33/2 30/37/2 29/36/2

usemtl FrontColor
v 4.33387 8.451 -15.1704
vt 1.9685 0
vt 1.36424e-012 55.1181
vt 1.36424e-012 0
f 35/47/3 26/48/3 30/49/3

v 4.33387 9.851 -15.1704
vt 1.9685 55.1181
f 26/48/3 35/47/3 36/50/3

usemtl BackColor
f 30/49/4 26/48/4 35/47/4

f 36/50/4 35/47/4 26/48/4

usemtl FrontColor
f 32/38/1 35/37/1 36/33/1

f 35/37/1 32/38/1 20/23/1

usemtl M_0128_White
f 20/23/2 32/38/2 35/37/2

usemtl FrontColor
f 21/22/1 20/23/1 32/38/1

usemtl BackColor
f 20/40/3 21/20/3 19/39/3

usemtl M_0128_White
f 32/38/2 20/23/2 21/22/2

usemtl FrontColor
vt -86.6142 1.9685
f 35/51/9 19/25/9 20/26/9

vt -86.6142 1.36424e-012
f 19/25/9 35/51/9 30/52/9

usemtl BackColor
f 20/26/10 19/25/10 35/51/10

f 30/52/10 35/51/10 19/25/10

usemtl M_0128_White
f 36/33/2 35/37/2 32/38/2

usemtl FrontColor
f 32/38/1 36/33/1 33/32/1

usemtl M_0128_White
f 33/32/2 36/33/2 32/38/2

usemtl FrontColor
f 33/32/1 36/33/1 25/43/1

usemtl M_0128_White
f 25/43/2 36/33/2 33/32/2

usemtl FrontColor
f 25/43/1 36/33/1 22/27/1

usemtl M_0128_White
f 22/27/2 36/33/2 25/43/2

usemtl FrontColor
v 4.33422 9.851 -16.2204
vt 45.2756 55.1181
f 22/27/1 36/33/1 37/53/1

usemtl M_0128_White
f 37/53/2 36/33/2 22/27/2

usemtl FrontColor
vt 86.6142 1.36424e-012
vt 86.6142 1.9685
f 37/22/10 26/54/10 36/55/10

v 4.28422 9.851 -16.2204
f 26/54/10 37/22/10 38/23/10

usemtl BackColor
f 38/23/9 37/22/9 26/54/9

usemtl FrontColor
vt -1.9685 55.1181
vt -5.24223e-030 53.1496
vt -5.24223e-030 55.1181
f 37/56/4 23/57/4 38/58/4

f 23/57/4 37/56/4 22/19/4

usemtl BackColor
f 38/58/3 23/57/3 37/56/3

usemtl Color_000
f 17/15/1 23/27/1 38/53/1

f 17/15/1 18/22/1 23/27/1

usemtl BackColor
f 17/15/2 18/22/2 10/10/2

f 23/27/2 18/22/2 17/15/2

f 38/53/2 23/27/2 17/15/2

usemtl Color_000
f 23/27/1 26/33/1 38/53/1

usemtl BackColor
f 23/27/2 26/33/2 24/32/2

f 38/53/2 26/33/2 23/27/2

f 24/32/2 26/33/2 27/34/2

f 27/34/2 26/33/2 28/35/2

f 28/35/2 26/33/2 29/36/2

f 27/34/2 28/35/2 34/46/2

usemtl Color_000
f 17/15/1 38/53/1 7/7/1

usemtl BackColor
f 7/7/2 38/53/2 17/15/2

usemtl Color_000
f 6/6/1 7/7/1 38/53/1

f 6/6/1 4/4/1 7/7/1

usemtl BackColor
f 7/7/2 4/4/2 6/6/2

f 4/4/2 7/7/2 1/1/2

f 1/1/2 7/7/2 3/3/2

f 38/53/2 7/7/2 6/6/2

usemtl Color_000
v 4.28423 9.851 -16.2704
vt 43.3071 55.1181
f 6/6/1 38/53/1 39/59/1

usemtl BackColor
f 39/59/2 38/53/2 6/6/2

usemtl FrontColor
f 37/22/10 39/16/10 38/23/10

v 4.33423 9.851 -16.2704
f 39/16/10 37/22/10 40/10/10

usemtl BackColor
f 40/10/9 37/22/9 39/16/9

usemtl FrontColor
f 13/13/1 37/53/1 40/59/1

f 13/13/1 12/7/1 37/53/1

usemtl M_0128_White
f 37/53/2 12/7/2 13/13/2

usemtl FrontColor
v 4.33424 9.801 -16.2974
vt 42.2441 53.1496
f 41/60/1 37/53/1 12/7/1

f 16/15/1 37/53/1 41/60/1

f 16/15/1 22/27/1 37/53/1

usemtl M_0128_White
f 37/53/2 22/27/2 16/15/2

usemtl BackColor
f 22/19/3 37/56/3 23/57/3

usemtl M_0128_White
f 41/60/2 37/53/2 16/15/2

f 12/7/2 37/53/2 41/60/2

vt -43.3071 4.54747e-013
vt -42.2441 1.9685
f 17/61/9 12/20/9 41/62/9

vt -1.9685 4.54747e-013
f 12/20/9 17/61/9 7/63/9

usemtl BackColor
f 7/63/10 17/61/10 12/20/10

f 41/62/10 12/20/10 17/61/10

usemtl Translucent_Glass_Blue
f 12/7/5 16/15/5 41/60/5

f 12/7/6 16/15/6 11/8/6

f 41/60/6 16/15/6 12/7/6

usemtl M_0128_White
vt -43.3071 1.9685
f 17/61/9 41/62/9 16/64/9

usemtl BackColor
f 16/64/10 41/62/10 17/61/10

usemtl M_0128_White
f 40/59/2 37/53/2 13/13/2

usemtl FrontColor
vt 9.09495e-013 1.9685
f 13/65/10 39/16/10 40/10/10

f 39/16/10 13/65/10 6/9/10

usemtl BackColor
f 6/9/9 13/65/9 39/16/9

usemtl FrontColor
f 13/56/4 5/5/4 6/6/4

f 5/5/4 13/56/4 9/9/4

usemtl BackColor
f 6/6/3 5/5/3 13/56/3

f 9/9/3 13/56/3 5/5/3

usemtl FrontColor
f 9/9/4 13/56/4 14/40/4

usemtl BackColor
f 14/40/3 13/56/3 9/9/3

f 40/10/9 39/16/9 13/65/9

f 38/23/9 39/16/9 37/22/9

f 10/10/2 18/22/2 9/9/2

f 10/10/2 9/9/2 8/8/2

f 36/55/9 26/54/9 37/22/9

f 25/31/10 22/26/10 24/29/10

usemtl Translucent_Glass_Blue
f 22/27/14 25/43/14 21/22/14

f 25/43/14 33/32/14 21/22/14

usemtl M_0128_White
vt -84.6457 1.9685
f 24/29/9 25/31/9 33/66/9

usemtl BackColor
f 33/66/10 25/31/10 24/29/10

f 32/20/3 33/19/3 31/44/3

f 15/20/3 16/19/3 10/18/3

usemtl M_0128_White
f 15/10/2 14/14/2 11/8/2

usemtl BackColor
f 3/3/2 5/5/2 2/2/2

g Mesh2 ventana2_1 DES043 Model

l 2 3

l 4 2

l 1 4

l 3 1

g Mesh3 ventana2_1 DES043 Model

l 11 15

l 11 8

l 12 11

l 12 7

l 41 12

l 16 41

l 16 17

l 16 15

l 15 10

l 8 10

l 7 8

l 17 7

l 17 10

g Mesh4 ventana2_1 DES043 Model

l 5 6

l 9 5

l 14 9

l 14 13

l 20 14

l 21 20

l 21 18

l 22 21

l 22 23

l 37 22

l 40 37

l 13 40

l 13 6

l 6 39

l 40 39

l 39 38

l 37 38

l 37 36

l 36 26

l 36 35

l 35 30

l 35 20

l 20 19

l 18 19

l 18 31

l 23 18

l 24 23

l 31 24

l 32 31

l 32 33

l 21 32

l 33 24

l 33 25

l 25 22

l 38 23

l 38 26

l 26 30

l 30 19

l 19 9

g Mesh5 ventana2_1 DES043 Model

l 29 28

l 34 29

l 27 34

l 28 27

g Mesh6 DES043 Model

usemtl Color_D03
v 12.5143 11.151 -16.6077
vt -64.5692 141.732
v 12.5141 7.551 -15.9877
vt -40.1598 2.6278e-013
v 12.5141 11.151 -15.9877
vt -40.1598 141.732
f 42/67/1 43/68/1 44/69/1

v 12.5143 7.551 -16.6077
vt -64.5692 2.6278e-013
f 43/68/1 42/67/1 45/70/1

usemtl BackColor
f 44/69/2 43/68/2 42/67/2

usemtl Color_D03
v 11.8641 7.551 -15.9879
vt -298.423 1.78394e-012
vt -324.013 141.732
vt -324.013 1.92325e-013
f 46/71/4 44/72/4 43/73/4

v 11.8641 11.151 -15.9879
vt -298.423 141.732
f 44/72/4 46/71/4 47/74/4

usemtl BackColor
f 43/73/3 44/72/3 46/71/3

f 47/74/3 46/71/3 44/72/3

usemtl Color_D03
v 11.8641 7.551 -15.8521
vt -34.8102 1.96813e-012
vn -1 6.90227e-016 -0.000328946
vt -40.1598 1.96813e-012
f 48/75/15 47/69/15 46/76/15

v 11.8641 10.551 -15.8521
vt -34.8102 118.11
f 49/77/15 47/69/15 48/75/15

v 11.8638 10.551 -15.0021
vt -1.34558 118.11
f 50/78/15 47/69/15 49/77/15

v 11.8638 11.151 -14.9704
vt -0.098165 141.732
f 50/78/15 51/79/15 47/69/15

v 11.8638 7.551 -14.9704
vt -0.098165 1.96813e-012
f 51/79/15 50/78/15 52/80/15

usemtl BackColor
vn 1 -6.90227e-016 0.000328946
f 52/80/16 50/78/16 51/79/16

usemtl Color_D03
v 11.8638 7.551 -15.0021
vt -1.34558 1.96813e-012
f 52/80/15 50/78/15 53/81/15

usemtl BackColor
f 53/81/16 50/78/16 52/80/16

usemtl _Tile_Ceramic_Natural_14
vt 8.41425 11.2426
vn -2.23247e-015 1 -6.74364e-016
vt 8.41405 10.6173
vt 8.41405 10.6398
f 48/82/17 52/83/17 53/84/17

v 4.65481 7.551 -18.0303
vt 3.30129 12.7875
f 54/85/17 52/83/17 48/82/17

v 4.65468 7.551 -17.6303
vt 3.30119 12.5038
f 55/86/17 52/83/17 54/85/17

v 4.33468 7.551 -17.6304
vt 3.07424 12.5038
f 56/87/17 52/83/17 55/86/17

v 4.33459 7.551 -17.3704
vt 3.07418 12.3194
f 57/88/17 52/83/17 56/87/17

v 4.33387 7.551 -15.1704
vt 3.07367 10.7592
f 58/89/17 52/83/17 57/88/17

v 4.33381 7.551 -14.9728
vt 3.07362 10.619
f 52/83/17 58/89/17 59/90/17

usemtl _7
vt 1.41489 3.07549
vn 2.23247e-015 -1 6.74364e-016
vt 1.41491 3.11607
vt 3.87326 3.07498
f 59/91/18 58/92/18 52/93/18

usemtl Color_D03
vt 7.87634 1.47776e-012
vn 1 8.35518e-017 0.000328946
v 4.33381 11.151 -14.9728
vt 0.098165 141.732
vt 0.098165 2.84053e-013
f 58/94/19 60/95/19 59/96/19

v 4.33387 9.851 -15.1704
vt 7.87634 90.5512
f 60/95/19 58/94/19 61/97/19

usemtl BackColor
vn -1 -8.35518e-017 -0.000328946
f 59/96/20 60/95/20 58/94/20

usemtl Color_D03
vt -1.96591 141.732
vt -298.423 1.7622e-012
vt -1.96591 2.8427e-013
f 60/98/4 52/99/4 59/100/4

f 52/99/4 60/98/4 51/74/4

usemtl BackColor
f 59/100/3 52/99/3 60/98/3

f 51/74/3 60/98/3 52/99/3

f 61/97/20 58/94/20 60/95/20

usemtl Color_D03
v 4.33387 8.451 -15.1704
vt 7.87634 35.4331
f 61/97/19 58/94/19 62/101/19

usemtl BackColor
f 62/101/20 58/94/20 61/97/20

usemtl Color_D03
vt 94.4905 -1.64256e-016
f 62/101/19 58/94/19 57/102/19

usemtl BackColor
f 57/102/20 58/94/20 62/101/20

usemtl _7
vt 1.41515 3.56796
f 57/103/18 52/93/18 58/92/18

vt 1.41517 3.62136
f 56/104/18 52/93/18 57/103/18

vt 1.51965 3.62134
f 55/105/18 52/93/18 56/104/18

vt 1.51969 3.7035
f 54/106/18 52/93/18 55/105/18

vt 3.87336 3.25608
f 48/107/18 52/93/18 54/106/18

vt 3.87327 3.08149
f 53/108/18 52/93/18 48/107/18

usemtl _Tile_Ceramic_Natural_14
vt 8.41428 11.339
f 54/85/17 48/82/17 46/109/17

usemtl _7
vt 3.87337 3.28399
f 46/110/18 48/107/18 54/106/18

usemtl BackColor
f 46/76/16 47/69/16 48/75/16

f 48/75/16 47/69/16 49/77/16

f 49/77/16 47/69/16 50/78/16

f 47/69/16 51/79/16 50/78/16

usemtl _Tile_Ceramic_Natural_14
v 12.578 7.551 -18.0277
vt 8.92055 12.7856
f 54/85/17 46/109/17 63/111/17

usemtl _7
vt 4.10642 3.70297
f 63/112/18 46/110/18 54/106/18

usemtl _Tile_Ceramic_Natural_14
vt 8.87542 11.7785
f 63/111/17 46/109/17 45/113/17

usemtl _7
vt 4.08565 3.4113
f 45/114/18 46/110/18 63/112/18

usemtl _Tile_Ceramic_Natural_14
vt 8.87528 11.3388
f 45/113/17 46/109/17 43/115/17

usemtl _7
vt 4.08558 3.28395
f 43/116/18 46/110/18 45/114/18

usemtl BackColor
f 45/70/2 42/67/2 43/68/2

usemtl Color_D03
v 12.6943 11.151 -16.6077
vt -331.1 141.732
vt -324.013 2.05573e-013
f 64/117/4 45/118/4 42/72/4

v 12.6943 7.551 -16.6077
vt -331.1 1.48729e-013
f 45/118/4 64/117/4 65/119/4

usemtl BackColor
f 65/119/3 64/117/3 45/118/3

usemtl Color_D03
v 12.6948 7.551 -17.9162
vt -116.085 1.79957e-012
vt -64.5692 2.07954e-013
f 64/67/1 66/120/1 65/121/1

v 12.6948 11.151 -17.9162
vt -116.085 141.732
f 66/120/1 64/67/1 67/122/1

usemtl BackColor
f 65/121/2 66/120/2 64/67/2

usemtl _Tile_Ceramic_Natural_14
v 12.693 7.551 -17.9164
vt 9.00211 12.7067
vt 9.00308 11.7785
vt 9.00339 12.7065
f 68/123/17 65/124/17 66/125/17

v 12.5926 7.551 -17.9927
vt 8.93096 12.7608
f 69/126/17 65/124/17 68/123/17

f 63/111/17 65/124/17 69/126/17

f 63/111/17 45/113/17 65/124/17

usemtl _7
vt 4.14442 3.41128
f 65/127/18 45/114/18 63/112/18

vt 4.11121 3.69578
f 69/128/18 65/127/18 63/112/18

vt 4.14397 3.6801
f 68/129/18 65/127/18 69/128/18

vt 4.14456 3.68006
f 66/130/18 65/127/18 68/129/18

usemtl _Color_C03_3
v 12.693 11.151 -17.9164
vt 193.217 141.732
vn -0.605586 6.04327e-016 0.79578
vt 188.254 1.88224e-012
vt 193.217 1.88224e-012
f 70/131/21 69/132/21 68/133/21

v 12.5926 11.151 -17.9927
vt 188.254 141.732
f 69/132/21 70/131/21 71/134/21

usemtl BackColor
vn 0.605586 -6.04327e-016 -0.79578
f 68/133/22 69/132/22 70/131/22

f 71/134/22 70/131/22 69/132/22

usemtl _Color_C03_3
vt 16.8303 141.732
vn -0.92213 4.72794e-016 0.38688
vt 15.3374 1.86968e-012
vt 16.8303 1.86968e-012
f 71/135/23 63/136/23 69/137/23

v 12.578 11.151 -18.0277
vt 15.3374 141.732
f 63/136/23 71/135/23 72/138/23

usemtl BackColor
vn 0.92213 -4.72794e-016 -0.38688
f 69/137/24 63/136/24 71/135/24

f 72/138/24 71/135/24 63/136/24

usemtl Color_D03
v 4.65481 11.151 -18.0303
vt 14.5643 141.732
vt 326.5 1.77069e-012
vt 326.5 141.732
f 73/139/3 63/140/3 72/141/3

vt 14.5643 1.54331e-012
f 63/140/3 73/139/3 54/142/3

usemtl BackColor
f 54/142/4 73/139/4 63/140/4

usemtl Color_D03
v 4.65468 11.151 -17.6303
vt 104.727 141.732
vt 120.475 1.48208e-012
vt 120.475 141.732
f 74/143/2 54/144/2 73/145/2

vt 104.727 1.74677e-013
f 54/144/2 74/143/2 55/146/2

usemtl BackColor
f 55/146/1 74/143/1 54/144/1

usemtl Color_D03
v 4.33468 11.151 -17.6304
vt 1.96591 141.732
vt 14.5643 2.27367e-013
f 75/147/3 55/148/3 74/139/3

vt 1.96591 5.68363e-014
f 55/148/3 75/147/3 56/149/3

usemtl BackColor
f 56/149/4 75/147/4 55/148/4

usemtl Color_D03
v 4.33459 9.851 -17.3704
vt 94.4905 90.5512
vt 104.727 -1.64256e-016
f 75/143/19 76/150/19 56/151/19

f 75/143/19 61/97/19 76/150/19

f 61/97/19 75/143/19 60/95/19

usemtl BackColor
f 60/95/20 75/143/20 61/97/20

f 76/150/20 61/97/20 75/143/20

f 56/151/20 76/150/20 75/143/20

usemtl Color_D03
v 4.33459 8.451 -17.3704
vt 94.4905 35.4331
f 77/152/19 56/151/19 76/150/19

f 77/152/19 57/102/19 56/151/19

f 62/101/19 57/102/19 77/152/19

usemtl BackColor
f 77/152/20 57/102/20 62/101/20

f 56/151/20 57/102/20 77/152/20

f 76/150/20 56/151/20 77/152/20

f 74/139/4 55/148/4 75/147/4

f 73/145/1 54/144/1 74/143/1

f 72/141/4 63/140/4 73/139/4

f 67/122/2 64/67/2 66/120/2

f 42/72/3 45/118/3 64/117/3

g Mesh7 DES043 Model

l 43 45

l 43 44

l 46 43

l 46 47

l 48 46

l 48 49

l 53 48

l 53 50

l 52 53

l 52 51

l 59 52

l 59 60

l 59 58

l 57 58

l 57 56

l 56 75

l 56 55

l 55 74

l 55 54

l 54 73

l 54 63

l 63 69

l 63 72

l 72 71

l 73 72

l 74 73

l 75 74

l 60 75

l 60 51

l 51 47

l 47 44

l 44 42

l 45 42

l 65 45

l 65 64

l 65 66

l 66 67

l 68 66

l 69 68

l 69 71

l 71 70

l 68 70

l 64 67

l 64 42

l 50 49

g Mesh8 DES043 Model

l 62 61

l 77 62

l 77 76

l 61 76

