# Alias OBJ Model File
# Exported from SketchUp, (c) 2000-2012 Trimble Navigation Limited
# File units = meters

mtllib DES0043.mtl

g Mesh1 ventana2_1 DES004 Model

usemtl Color_000
v 29.2317 9.12261 -8.68727
vt 1.37598 26.4413
vn -1 2.84708e-016 -0.000328946
v 29.2317 9.00361 -8.70827
vt 0.549204 21.7563
v 29.2317 9.00361 -8.68727
vt 1.37598 21.7563
f 1/1/1 2/2/1 3/3/1

v 29.2317 9.12261 -8.70827
vt 0.549204 26.4413
f 2/2/1 1/1/1 4/4/1

usemtl BackColor
vn 1 -2.84708e-016 0.000328946
f 3/3/2 2/2/2 1/1/2

usemtl Color_000
v 29.2318 9.001 -8.72222
vt 0 21.6535
f 2/2/1 5/5/1 3/3/1

v 29.2318 9.851 -8.72222
vt 0 55.1181
f 5/5/1 2/2/1 6/6/1

usemtl BackColor
f 6/6/2 2/2/2 5/5/2

usemtl Color_000
f 6/6/1 2/2/1 4/4/1

usemtl BackColor
f 4/4/2 2/2/2 6/6/2

f 4/4/2 1/1/2 2/2/2

usemtl Color_000
v 29.2317 9.801 -8.67222
vt 1.9685 53.1496
f 1/1/1 7/7/1 4/4/1

f 3/3/1 7/7/1 1/1/1

v 29.2317 8.501 -8.67222
vt 1.9685 1.9685
f 3/3/1 8/8/1 7/7/1

f 5/5/1 8/8/1 3/3/1

v 29.2318 8.451 -8.72222
vt 0 0
f 9/9/1 8/8/1 5/5/1

v 29.2314 8.501 -7.62222
vt 43.3071 1.9685
f 8/8/1 9/9/1 10/10/1

usemtl BackColor
f 5/5/2 8/8/2 9/9/2

f 3/3/2 8/8/2 5/5/2

f 7/7/2 8/8/2 3/3/2

usemtl M_0128_White
v 29.2817 8.501 -8.67221
vn -0.000328946 5.42711e-016 1
vt 4.54747e-013 53.1496
vt 4.54747e-013 1.9685
f 11/8/3 7/11/3 8/12/3

v 29.2817 9.801 -8.67221
f 7/11/3 11/8/3 12/7/3

usemtl BackColor
vn 0.000328946 -5.42711e-016 -1
f 8/12/4 7/11/4 11/8/4

f 12/7/4 11/8/4 7/11/4

usemtl FrontColor
v 29.2818 9.851 -8.72221
vt 9.09495e-013 55.1181
f 13/13/1 11/8/1 12/7/1

v 29.2818 8.451 -8.72221
vt 9.09495e-013 0
f 14/14/1 11/8/1 13/13/1

v 29.2814 8.501 -7.62221
f 11/8/1 14/14/1 15/10/1

usemtl M_0128_White
f 13/13/2 11/8/2 14/14/2

f 12/7/2 11/8/2 13/13/2

usemtl Translucent_Glass_Blue
vn -1 3.83492e-015 -0.000328946
v 29.2814 9.801 -7.62221
vt 43.3071 53.1496
f 11/8/5 16/15/5 12/7/5

f 16/15/5 11/8/5 15/10/5

vn 1 -3.83492e-015 0.000328946
f 15/10/6 11/8/6 16/15/6

usemtl M_0128_White
vn 2.84843e-016 1 -4.08333e-016
vt 43.3071 4.54747e-013
f 11/8/7 10/16/7 15/10/7

vt 1.9685 4.54747e-013
f 10/16/7 11/8/7 8/17/7

usemtl BackColor
vn -2.84843e-016 -1 4.08333e-016
f 8/17/8 11/8/8 10/16/8

f 15/10/8 10/16/8 11/8/8

usemtl M_0128_White
vt -4.54747e-013 1.9685
vt -1.9685 53.1496
vt -1.9685 1.9685
f 10/18/4 16/19/4 15/20/4

v 29.2314 9.801 -7.62222
vt -4.54747e-013 53.1496
f 16/19/4 10/18/4 17/21/4

usemtl BackColor
f 17/21/3 10/18/3 16/19/3

usemtl Color_000
v 29.2314 8.501 -7.57222
vt 45.2756 1.9685
f 10/10/1 18/22/1 17/15/1

f 9/9/1 18/22/1 10/10/1

v 29.2314 8.451 -7.57222
vt 45.2756 0
f 18/22/1 9/9/1 19/23/1

usemtl BackColor
f 19/23/2 9/9/2 18/22/2

usemtl FrontColor
vt -9.09495e-013 1.9685
vn -2.84887e-016 -1 5.42617e-016
vt -45.2756 4.54747e-013
f 14/24/9 19/25/9 9/9/9

v 29.2814 8.451 -7.57221
vt -45.2756 1.9685
f 19/25/9 14/24/9 20/26/9

usemtl BackColor
vn 2.84887e-016 1 -5.42617e-016
f 9/9/10 19/25/10 14/24/10

f 20/26/10 14/24/10 19/25/10

usemtl FrontColor
v 29.2814 8.501 -7.57221
f 21/22/1 14/14/1 20/23/1

f 14/14/1 21/22/1 15/10/1

usemtl M_0128_White
f 20/23/2 14/14/2 21/22/2

f 15/10/2 21/22/2 14/14/2

usemtl FrontColor
f 15/10/1 21/22/1 16/15/1

usemtl M_0128_White
f 16/15/2 21/22/2 15/10/2

usemtl FrontColor
v 29.2814 9.801 -7.57221
vt 45.2756 53.1496
f 16/15/1 21/22/1 22/27/1

usemtl M_0128_White
f 22/27/2 21/22/2 16/15/2

f 22/7/3 18/12/3 21/8/3

v 29.2314 9.801 -7.57222
vt 5.24223e-030 53.1496
f 18/12/3 22/7/3 23/28/3

usemtl BackColor
f 23/28/4 22/7/4 18/12/4

usemtl M_0128_White
v 29.231 9.801 -6.57222
vt -84.6457 0
vt -45.2756 0
f 22/26/9 24/29/9 23/30/9

v 29.2811 9.801 -6.69121
vt -79.9606 1.9685
f 24/29/9 22/26/9 25/31/9

usemtl BackColor
f 23/30/10 24/29/10 22/26/10

usemtl Color_000
vt 84.6457 53.1496
v 29.231 9.851 -6.52222
vt 86.6142 55.1181
f 24/32/1 26/33/1 23/27/1

v 29.231 9.12261 -6.55827
vt 85.1949 26.4413
f 27/34/1 26/33/1 24/32/1

v 29.231 9.12261 -6.53727
vt 86.0216 26.4413
f 28/35/1 26/33/1 27/34/1

v 29.231 9.00361 -6.53727
vt 86.0216 21.7563
f 29/36/1 26/33/1 28/35/1

v 29.231 8.451 -6.52222
vt 86.6142 0
f 29/36/1 30/37/1 26/33/1

v 29.231 8.501 -6.57222
vt 84.6457 1.9685
f 31/38/1 30/37/1 29/36/1

f 30/37/1 31/38/1 19/23/1

usemtl BackColor
f 19/23/2 31/38/2 30/37/2

usemtl Color_000
f 18/22/1 19/23/1 31/38/1

usemtl FrontColor
vt -4.54747e-013 0
f 21/20/4 19/39/4 18/18/4

vt -1.9685 0
f 19/39/4 21/20/4 20/40/4

usemtl BackColor
f 18/18/3 19/39/3 21/20/3

f 31/38/2 19/23/2 18/22/2

usemtl M_0128_White
vt 84.6457 1.94109e-031
vn 2.84915e-016 1 -6.27216e-016
vt 45.2756 4.54747e-013
f 31/41/11 21/22/11 18/42/11

v 29.281 8.501 -6.57221
f 21/22/11 31/41/11 32/38/11

usemtl BackColor
vn -2.84915e-016 -1 6.27216e-016
f 18/42/12 21/22/12 31/41/12

f 21/8/4 18/12/4 22/7/4

usemtl Translucent_Glass_Blue
vn -1 9.49112e-015 -0.000328946
vt 79.9606 53.1496
f 21/22/13 25/43/13 22/27/13

v 29.281 9.801 -6.57221
f 21/22/13 33/32/13 25/43/13

f 33/32/13 21/22/13 32/38/13

vn 1 -9.49112e-015 0.000328946
f 32/38/14 21/22/14 33/32/14

usemtl BackColor
f 32/38/12 31/41/12 21/22/12

usemtl M_0128_White
vt -9.80069e-030 1.9685
f 31/44/4 33/19/4 32/20/4

vt -9.80069e-030 53.1496
f 33/19/4 31/44/4 24/45/4

usemtl BackColor
f 24/45/3 31/44/3 33/19/3

usemtl Color_000
v 29.231 9.00361 -6.55827
vt 85.1949 21.7563
f 31/38/1 34/46/1 24/32/1

f 34/46/1 31/38/1 29/36/1

usemtl BackColor
f 24/32/2 34/46/2 31/38/2

usemtl Color_000
f 24/32/1 34/46/1 27/34/1

usemtl BackColor
f 27/34/2 34/46/2 24/32/2

usemtl Color_000
f 34/46/1 28/35/1 27/34/1

f 28/35/1 34/46/1 29/36/1

usemtl BackColor
f 29/36/2 34/46/2 28/35/2

f 29/36/2 31/38/2 34/46/2

f 29/36/2 30/37/2 31/38/2

f 26/33/2 30/37/2 29/36/2

usemtl FrontColor
v 29.281 8.451 -6.52221
vt 1.9685 0
vt 1.36424e-012 55.1181
vt 1.36424e-012 0
f 35/47/3 26/48/3 30/49/3

v 29.281 9.851 -6.52221
vt 1.9685 55.1181
f 26/48/3 35/47/3 36/50/3

usemtl BackColor
f 30/49/4 26/48/4 35/47/4

f 36/50/4 35/47/4 26/48/4

usemtl FrontColor
f 32/38/1 35/37/1 36/33/1

f 35/37/1 32/38/1 20/23/1

usemtl M_0128_White
f 20/23/2 32/38/2 35/37/2

usemtl FrontColor
f 21/22/1 20/23/1 32/38/1

usemtl BackColor
f 20/40/3 21/20/3 19/39/3

usemtl M_0128_White
f 32/38/2 20/23/2 21/22/2

usemtl FrontColor
vt -86.6142 1.9685
f 35/51/9 19/25/9 20/26/9

vt -86.6142 1.36424e-012
f 19/25/9 35/51/9 30/52/9

usemtl BackColor
f 20/26/10 19/25/10 35/51/10

f 30/52/10 35/51/10 19/25/10

usemtl M_0128_White
f 36/33/2 35/37/2 32/38/2

usemtl FrontColor
f 32/38/1 36/33/1 33/32/1

usemtl M_0128_White
f 33/32/2 36/33/2 32/38/2

usemtl FrontColor
f 33/32/1 36/33/1 25/43/1

usemtl M_0128_White
f 25/43/2 36/33/2 33/32/2

usemtl FrontColor
f 25/43/1 36/33/1 22/27/1

usemtl M_0128_White
f 22/27/2 36/33/2 25/43/2

usemtl FrontColor
v 29.2814 9.851 -7.57221
vt 45.2756 55.1181
f 22/27/1 36/33/1 37/53/1

usemtl M_0128_White
f 37/53/2 36/33/2 22/27/2

usemtl FrontColor
vt 86.6142 1.36424e-012
vt 86.6142 1.9685
f 37/22/10 26/54/10 36/55/10

v 29.2314 9.851 -7.57222
f 26/54/10 37/22/10 38/23/10

usemtl BackColor
f 38/23/9 37/22/9 26/54/9

usemtl FrontColor
vt -1.9685 55.1181
vt -5.24223e-030 53.1496
vt -5.24223e-030 55.1181
f 37/56/4 23/57/4 38/58/4

f 23/57/4 37/56/4 22/19/4

usemtl BackColor
f 38/58/3 23/57/3 37/56/3

usemtl Color_000
f 17/15/1 23/27/1 38/53/1

f 17/15/1 18/22/1 23/27/1

usemtl BackColor
f 17/15/2 18/22/2 10/10/2

f 23/27/2 18/22/2 17/15/2

f 38/53/2 23/27/2 17/15/2

usemtl Color_000
f 23/27/1 26/33/1 38/53/1

usemtl BackColor
f 23/27/2 26/33/2 24/32/2

f 38/53/2 26/33/2 23/27/2

f 24/32/2 26/33/2 27/34/2

f 27/34/2 26/33/2 28/35/2

f 28/35/2 26/33/2 29/36/2

f 27/34/2 28/35/2 34/46/2

usemtl Color_000
f 17/15/1 38/53/1 7/7/1

usemtl BackColor
f 7/7/2 38/53/2 17/15/2

usemtl Color_000
f 6/6/1 7/7/1 38/53/1

f 6/6/1 4/4/1 7/7/1

usemtl BackColor
f 7/7/2 4/4/2 6/6/2

f 4/4/2 7/7/2 1/1/2

f 1/1/2 7/7/2 3/3/2

f 38/53/2 7/7/2 6/6/2

usemtl Color_000
v 29.2314 9.851 -7.62222
vt 43.3071 55.1181
f 6/6/1 38/53/1 39/59/1

usemtl BackColor
f 39/59/2 38/53/2 6/6/2

usemtl FrontColor
f 37/22/10 39/16/10 38/23/10

v 29.2814 9.851 -7.62221
f 39/16/10 37/22/10 40/10/10

usemtl BackColor
f 40/10/9 37/22/9 39/16/9

usemtl FrontColor
f 13/13/1 37/53/1 40/59/1

f 13/13/1 12/7/1 37/53/1

usemtl M_0128_White
f 37/53/2 12/7/2 13/13/2

usemtl FrontColor
v 29.2814 9.801 -7.64921
vt 42.2441 53.1496
f 41/60/1 37/53/1 12/7/1

f 16/15/1 37/53/1 41/60/1

f 16/15/1 22/27/1 37/53/1

usemtl M_0128_White
f 37/53/2 22/27/2 16/15/2

usemtl BackColor
f 22/19/3 37/56/3 23/57/3

usemtl M_0128_White
f 41/60/2 37/53/2 16/15/2

f 12/7/2 37/53/2 41/60/2

vt -43.3071 4.54747e-013
vt -42.2441 1.9685
f 17/61/9 12/20/9 41/62/9

vt -1.9685 4.54747e-013
f 12/20/9 17/61/9 7/63/9

usemtl BackColor
f 7/63/10 17/61/10 12/20/10

f 41/62/10 12/20/10 17/61/10

usemtl Translucent_Glass_Blue
f 12/7/5 16/15/5 41/60/5

f 12/7/6 16/15/6 11/8/6

f 41/60/6 16/15/6 12/7/6

usemtl M_0128_White
vt -43.3071 1.9685
f 17/61/9 41/62/9 16/64/9

usemtl BackColor
f 16/64/10 41/62/10 17/61/10

usemtl M_0128_White
f 40/59/2 37/53/2 13/13/2

usemtl FrontColor
vt 9.09495e-013 1.9685
f 13/65/10 39/16/10 40/10/10

f 39/16/10 13/65/10 6/9/10

usemtl BackColor
f 6/9/9 13/65/9 39/16/9

usemtl FrontColor
f 13/56/4 5/5/4 6/6/4

f 5/5/4 13/56/4 9/9/4

usemtl BackColor
f 6/6/3 5/5/3 13/56/3

f 9/9/3 13/56/3 5/5/3

usemtl FrontColor
f 9/9/4 13/56/4 14/40/4

usemtl BackColor
f 14/40/3 13/56/3 9/9/3

f 40/10/9 39/16/9 13/65/9

f 38/23/9 39/16/9 37/22/9

f 10/10/2 18/22/2 9/9/2

f 10/10/2 9/9/2 8/8/2

f 36/55/9 26/54/9 37/22/9

f 25/31/10 22/26/10 24/29/10

usemtl Translucent_Glass_Blue
f 22/27/14 25/43/14 21/22/14

f 25/43/14 33/32/14 21/22/14

usemtl M_0128_White
vt -84.6457 1.9685
f 24/29/9 25/31/9 33/66/9

usemtl BackColor
f 33/66/10 25/31/10 24/29/10

f 32/20/3 33/19/3 31/44/3

f 15/20/3 16/19/3 10/18/3

usemtl M_0128_White
f 15/10/2 14/14/2 11/8/2

usemtl BackColor
f 3/3/2 5/5/2 2/2/2

g Mesh2 ventana2_1 DES004 Model

l 2 3

l 4 2

l 1 4

l 3 1

g Mesh3 ventana2_1 DES004 Model

l 11 15

l 11 8

l 12 11

l 12 7

l 41 12

l 16 41

l 16 17

l 16 15

l 15 10

l 8 10

l 7 8

l 17 7

l 17 10

g Mesh4 ventana2_1 DES004 Model

l 5 6

l 9 5

l 14 9

l 14 13

l 20 14

l 21 20

l 21 18

l 22 21

l 22 23

l 37 22

l 40 37

l 13 40

l 13 6

l 6 39

l 40 39

l 39 38

l 37 38

l 37 36

l 36 26

l 36 35

l 35 30

l 35 20

l 20 19

l 18 19

l 18 31

l 23 18

l 24 23

l 31 24

l 32 31

l 32 33

l 21 32

l 33 24

l 33 25

l 25 22

l 38 23

l 38 26

l 26 30

l 30 19

l 19 9

g Mesh5 ventana2_1 DES004 Model

l 29 28

l 34 29

l 27 34

l 28 27

g Mesh6 DES004 Model

usemtl Color_D03
v 21.2909 11.151 -6.02484
vt -6.29659 141.732
v 28.8909 7.551 -6.02234
vt -305.509 1.53483e-012
v 21.2909 7.551 -6.02484
vt -6.29659 1.30745e-012
f 42/67/4 43/68/4 44/69/4

v 28.8909 11.151 -6.02234
vt -305.509 141.732
f 43/68/4 42/67/4 45/70/4

usemtl BackColor
f 44/69/3 43/68/3 42/67/3

usemtl _Tile_Ceramic_Natural_14
vt 20.49 4.27116
vn -9.22131e-016 1 -4.5207e-015
v 21.2909 7.551 -6.22484
vt 15.0999 4.41478
vt 15.0999 4.27293
f 43/71/15 46/72/15 44/73/15

v 21.9815 7.551 -7.95912
vt 15.5897 5.64477
f 46/72/15 43/71/15 47/74/15

usemtl _7
vt 6.95098 1.23753
vn 9.22131e-016 -1 4.5207e-015
vt 6.95101 1.27861
vt 9.43221 1.23701
f 44/75/16 46/76/16 43/77/16

usemtl Color_D03
vt 7.97451 1.30919e-012
vt 0.100496 141.732
vt 0.100496 1.30919e-012
f 46/78/2 42/79/2 44/80/2

v 21.2909 11.151 -6.22484
vt 7.97451 141.732
f 42/79/2 46/78/2 48/81/2

usemtl BackColor
f 44/80/1 42/79/1 46/78/1

f 48/81/1 46/78/1 42/79/1

usemtl Color_D03
vt -6.29659 1.31173e-012
v 21.1309 11.151 -6.22489
vt 0.00262319 141.732
f 46/82/4 49/83/4 48/67/4

v 21.1309 7.551 -6.22489
vt 0.00262319 1.31173e-012
f 49/83/4 46/82/4 50/84/4

usemtl BackColor
f 50/84/3 46/82/3 49/83/3

usemtl _Tile_Ceramic_Natural_14
v 21.1315 7.551 -7.9594
vt 14.9869 5.64497
vt 14.9865 4.41481
f 46/72/15 51/85/15 50/86/15

f 51/85/15 46/72/15 47/74/15

usemtl _7
vt 6.89877 1.27862
vt 6.89896 1.6349
f 50/87/16 51/88/16 46/76/16

usemtl Color_D03
vt 76.2625 -7.46843e-019
vt 7.97451 1.3074e-012
f 51/89/2 49/81/2 50/90/2

v 21.1315 11.151 -7.9594
vt 76.2625 141.732
f 49/81/2 51/89/2 52/91/2

usemtl BackColor
f 50/90/1 49/81/1 51/89/1

f 52/91/1 51/89/1 49/81/1

usemtl Color_D03
vt -0.00262319 4.13885e-014
v 21.9815 11.151 -7.95912
vt 33.4619 141.732
vt -0.00262319 141.732
f 51/92/3 53/93/3 52/94/3

vt 33.4619 4.13885e-014
f 53/93/3 51/92/3 47/95/3

usemtl BackColor
f 47/95/4 51/92/4 53/93/4

usemtl _7
vt 7.17646 1.63484
f 47/96/16 46/76/16 51/88/16

f 47/96/16 43/77/16 46/76/16

usemtl _Tile_Ceramic_Natural_14
v 21.9815 7.551 -8.07912
vt 15.5897 5.72988
f 47/74/15 43/71/15 54/97/15

usemtl _7
vt 7.17647 1.65949
f 54/98/16 43/77/16 47/96/16

usemtl _Tile_Ceramic_Natural_14
v 21.9818 7.551 -8.92912
vt 15.5899 6.33271
f 54/97/15 43/71/15 55/99/15

usemtl _7
vt 7.17657 1.83408
f 55/100/16 43/77/16 54/98/16

usemtl _Tile_Ceramic_Natural_14
v 28.8909 7.551 -6.24234
vt 20.49 4.42719
f 55/99/15 43/71/15 56/101/15

usemtl _7
vt 9.43223 1.2822
f 56/102/16 43/77/16 55/100/16

usemtl Color_D03
vt -0.100496 1.62175e-012
v 28.8909 11.151 -6.24234
vt -8.76191 141.732
vt -8.76191 9.96476e-013
f 43/103/1 57/104/1 56/105/1

vt -0.100496 141.732
f 57/104/1 43/103/1 45/106/1

usemtl BackColor
f 45/106/2 43/103/2 57/104/2

f 45/70/3 42/67/3 43/68/3

f 56/105/2 57/104/2 43/103/2

usemtl Color_D03
v 29.2309 7.551 -6.24222
vt -318.895 1.14162e-012
vt -305.509 9.1425e-013
f 57/70/4 58/107/4 56/108/4

v 29.2309 11.151 -6.24222
vt -318.895 141.732
f 58/107/4 57/70/4 59/109/4

usemtl BackColor
f 56/108/3 58/107/3 57/70/3

usemtl _Tile_Ceramic_Natural_14
v 29.2318 7.551 -8.72222
vt 20.7317 6.18597
vt 20.7312 4.42711
f 60/110/15 56/101/15 58/111/15

v 29.2318 7.551 -8.92674
vt 20.7318 6.33102
f 61/112/15 56/101/15 60/110/15

f 55/99/15 56/101/15 61/112/15

usemtl _7
vt 9.54353 1.83359
f 61/113/16 56/102/16 55/100/16

vt 9.5435 1.79158
f 60/114/16 56/102/16 61/113/16

vt 9.54324 1.28218
f 58/115/16 56/102/16 60/114/16

usemtl _Tile_Ceramic_Natural_14
v 29.231 7.551 -6.52222
vt 20.7312 4.62569
f 60/110/15 58/111/15 62/116/15

usemtl _7
vt 9.54327 1.33969
f 62/117/16 58/115/16 60/114/16

usemtl Color_D03
v 29.231 8.451 -6.52222
vt -19.7855 35.4331
vn -1 -8.3689e-017 -0.000328946
vt -19.7855 1.11018e-012
vt -8.76191 1.11018e-012
f 63/118/17 62/119/17 58/120/17

v 29.2318 8.451 -8.72222
vt -106.4 35.4331
f 62/119/17 63/118/17 64/121/17

usemtl BackColor
vn 1 8.3689e-017 0.000328946
f 58/120/18 62/119/18 63/118/18

f 64/121/18 63/118/18 62/119/18

usemtl Color_D03
vt -106.4 8.25963e-013
f 62/119/17 64/121/17 60/122/17

usemtl BackColor
f 60/122/18 64/121/18 62/119/18

usemtl Color_D03
v 29.2318 11.151 -8.92674
vt -114.452 141.732
f 64/121/17 65/123/17 60/122/17

v 29.2318 9.851 -8.72222
vt -106.4 90.5512
f 66/124/17 65/123/17 64/121/17

v 29.231 9.851 -6.52222
vt -19.7855 90.5512
f 67/125/17 65/123/17 66/124/17

f 67/125/17 59/104/17 65/123/17

f 59/104/17 67/125/17 58/120/17

usemtl BackColor
f 58/120/18 67/125/18 59/104/18

usemtl Color_D03
f 58/120/17 67/125/17 63/118/17

usemtl BackColor
f 63/118/18 67/125/18 58/120/18

f 65/123/18 59/104/18 67/125/18

f 66/124/18 65/123/18 67/125/18

f 64/121/18 65/123/18 66/124/18

f 60/122/18 65/123/18 64/121/18

usemtl Color_D03
vt -114.452 1.05334e-012
f 60/122/17 65/123/17 61/126/17

usemtl BackColor
f 61/126/18 65/123/18 60/122/18

usemtl Color_D03
vt 318.895 141.732
vt 33.4619 1.65373e-012
vt 318.895 1.14214e-012
f 65/127/3 55/128/3 61/129/3

v 21.9818 10.551 -8.92912
vt 33.4619 118.11
f 55/128/3 65/127/3 68/130/3

usemtl BackColor
f 61/129/4 55/128/4 65/127/4

f 68/130/4 65/127/4 55/128/4

usemtl Color_D03
v 21.9818 11.151 -8.92912
f 68/130/3 65/127/3 69/93/3

usemtl BackColor
f 69/93/4 65/127/4 68/130/4

usemtl Color_D03
vt 114.452 141.732
v 21.9815 10.551 -8.07912
vt 80.9869 118.11
vt 114.452 118.11
f 69/131/2 70/132/2 68/133/2

f 53/91/2 70/132/2 69/131/2

vt 76.2625 9.5269e-015
f 70/132/2 53/91/2 47/134/2

usemtl BackColor
f 69/131/1 70/132/1 53/91/1

f 68/133/1 70/132/1 69/131/1

f 47/134/1 53/91/1 70/132/1

usemtl Color_D03
vt 80.9869 9.5269e-015
f 70/132/2 47/134/2 54/135/2

usemtl BackColor
f 54/135/1 47/134/1 70/132/1

f 59/109/3 57/70/3 58/107/3

f 52/94/4 53/93/4 51/92/4

f 48/67/3 49/83/3 46/82/3

g Mesh7 DES004 Model

l 44 43

l 44 42

l 46 44

l 50 46

l 50 49

l 51 50

l 47 51

l 47 53

l 54 47

l 54 70

l 54 55

l 61 55

l 61 65

l 60 61

l 62 60

l 58 62

l 58 59

l 56 58

l 43 56

l 43 45

l 42 45

l 48 42

l 49 48

l 52 49

l 53 52

l 69 53

l 68 69

l 70 68

l 55 68

l 65 69

l 59 65

l 57 59

l 45 57

l 56 57

l 51 52

l 46 48

g Mesh8 DES004 Model

l 64 66

l 63 64

l 63 67

l 67 66

