# Alias OBJ Model File
# Exported from SketchUp, (c) 2000-2012 Trimble Navigation Limited
# File units = meters

mtllib DES042.mtl

g Mesh1 ventana2_1 LAB042 Model

usemtl Color_000
v 4.28569 9.12261 -20.6855
vt 1.37598 26.4413
vn -1 2.84708e-016 -0.000328946
v 4.28569 9.00361 -20.7065
vt 0.549204 21.7563
v 4.28569 9.00361 -20.6855
vt 1.37598 21.7563
f 1/1/1 2/2/1 3/3/1

v 4.28569 9.12261 -20.7065
vt 0.549204 26.4413
f 2/2/1 1/1/1 4/4/1

usemtl BackColor
vn 1 -2.84708e-016 0.000328946
f 3/3/2 2/2/2 1/1/2

usemtl Color_000
v 4.2857 9.001 -20.7204
vt 0 21.6535
f 2/2/1 5/5/1 3/3/1

v 4.2857 9.851 -20.7204
vt 0 55.1181
f 5/5/1 2/2/1 6/6/1

usemtl BackColor
f 6/6/2 2/2/2 5/5/2

usemtl Color_000
f 6/6/1 2/2/1 4/4/1

usemtl BackColor
f 4/4/2 2/2/2 6/6/2

f 4/4/2 1/1/2 2/2/2

usemtl Color_000
v 4.28568 9.801 -20.6704
vt 1.9685 53.1496
f 1/1/1 7/7/1 4/4/1

f 3/3/1 7/7/1 1/1/1

v 4.28568 8.501 -20.6704
vt 1.9685 1.9685
f 3/3/1 8/8/1 7/7/1

f 5/5/1 8/8/1 3/3/1

v 4.2857 8.451 -20.7204
vt 0 0
f 9/9/1 8/8/1 5/5/1

v 4.28533 8.501 -19.6204
vt 43.3071 1.9685
f 8/8/1 9/9/1 10/10/1

usemtl BackColor
f 5/5/2 8/8/2 9/9/2

f 3/3/2 8/8/2 5/5/2

f 7/7/2 8/8/2 3/3/2

usemtl M_0128_White
v 4.33568 8.501 -20.6704
vn -0.000328946 5.42711e-016 1
vt 4.54747e-013 53.1496
vt 4.54747e-013 1.9685
f 11/8/3 7/11/3 8/12/3

v 4.33568 9.801 -20.6704
f 7/11/3 11/8/3 12/7/3

usemtl BackColor
vn 0.000328946 -5.42711e-016 -1
f 8/12/4 7/11/4 11/8/4

f 12/7/4 11/8/4 7/11/4

usemtl FrontColor
v 4.3357 9.851 -20.7204
vt 9.09495e-013 55.1181
f 13/13/1 11/8/1 12/7/1

v 4.3357 8.451 -20.7204
vt 9.09495e-013 0
f 14/14/1 11/8/1 13/13/1

v 4.33533 8.501 -19.6204
f 11/8/1 14/14/1 15/10/1

usemtl M_0128_White
f 13/13/2 11/8/2 14/14/2

f 12/7/2 11/8/2 13/13/2

usemtl Translucent_Glass_Blue
vn -1 3.83492e-015 -0.000328946
v 4.33533 9.801 -19.6204
vt 43.3071 53.1496
f 11/8/5 16/15/5 12/7/5

f 16/15/5 11/8/5 15/10/5

vn 1 -3.83492e-015 0.000328946
f 15/10/6 11/8/6 16/15/6

usemtl M_0128_White
vn 2.84843e-016 1 -4.08333e-016
vt 43.3071 4.54747e-013
f 11/8/7 10/16/7 15/10/7

vt 1.9685 4.54747e-013
f 10/16/7 11/8/7 8/17/7

usemtl BackColor
vn -2.84843e-016 -1 4.08333e-016
f 8/17/8 11/8/8 10/16/8

f 15/10/8 10/16/8 11/8/8

usemtl M_0128_White
vt -4.54747e-013 1.9685
vt -1.9685 53.1496
vt -1.9685 1.9685
f 10/18/4 16/19/4 15/20/4

v 4.28533 9.801 -19.6204
vt -4.54747e-013 53.1496
f 16/19/4 10/18/4 17/21/4

usemtl BackColor
f 17/21/3 10/18/3 16/19/3

usemtl Color_000
v 4.28532 8.501 -19.5704
vt 45.2756 1.9685
f 10/10/1 18/22/1 17/15/1

f 9/9/1 18/22/1 10/10/1

v 4.28532 8.451 -19.5704
vt 45.2756 0
f 18/22/1 9/9/1 19/23/1

usemtl BackColor
f 19/23/2 9/9/2 18/22/2

usemtl FrontColor
vt -9.09495e-013 1.9685
vn -2.84887e-016 -1 5.42617e-016
vt -45.2756 4.54747e-013
f 14/24/9 19/25/9 9/9/9

v 4.33532 8.451 -19.5704
vt -45.2756 1.9685
f 19/25/9 14/24/9 20/26/9

usemtl BackColor
vn 2.84887e-016 1 -5.42617e-016
f 9/9/10 19/25/10 14/24/10

f 20/26/10 14/24/10 19/25/10

usemtl FrontColor
v 4.33532 8.501 -19.5704
f 21/22/1 14/14/1 20/23/1

f 14/14/1 21/22/1 15/10/1

usemtl M_0128_White
f 20/23/2 14/14/2 21/22/2

f 15/10/2 21/22/2 14/14/2

usemtl FrontColor
f 15/10/1 21/22/1 16/15/1

usemtl M_0128_White
f 16/15/2 21/22/2 15/10/2

usemtl FrontColor
v 4.33532 9.801 -19.5704
vt 45.2756 53.1496
f 16/15/1 21/22/1 22/27/1

usemtl M_0128_White
f 22/27/2 21/22/2 16/15/2

f 22/7/3 18/12/3 21/8/3

v 4.28532 9.801 -19.5704
vt 5.24223e-030 53.1496
f 18/12/3 22/7/3 23/28/3

usemtl BackColor
f 23/28/4 22/7/4 18/12/4

usemtl M_0128_White
v 4.28499 9.801 -18.5704
vt -84.6457 0
vt -45.2756 0
f 22/26/9 24/29/9 23/30/9

v 4.33503 9.801 -18.6894
vt -79.9606 1.9685
f 24/29/9 22/26/9 25/31/9

usemtl BackColor
f 23/30/10 24/29/10 22/26/10

usemtl Color_000
vt 84.6457 53.1496
v 4.28497 9.851 -18.5204
vt 86.6142 55.1181
f 24/32/1 26/33/1 23/27/1

v 4.28498 9.12261 -18.5565
vt 85.1949 26.4413
f 27/34/1 26/33/1 24/32/1

v 4.28498 9.12261 -18.5355
vt 86.0216 26.4413
f 28/35/1 26/33/1 27/34/1

v 4.28498 9.00361 -18.5355
vt 86.0216 21.7563
f 29/36/1 26/33/1 28/35/1

v 4.28497 8.451 -18.5204
vt 86.6142 0
f 29/36/1 30/37/1 26/33/1

v 4.28499 8.501 -18.5704
vt 84.6457 1.9685
f 31/38/1 30/37/1 29/36/1

f 30/37/1 31/38/1 19/23/1

usemtl BackColor
f 19/23/2 31/38/2 30/37/2

usemtl Color_000
f 18/22/1 19/23/1 31/38/1

usemtl FrontColor
vt -4.54747e-013 0
f 21/20/4 19/39/4 18/18/4

vt -1.9685 0
f 19/39/4 21/20/4 20/40/4

usemtl BackColor
f 18/18/3 19/39/3 21/20/3

f 31/38/2 19/23/2 18/22/2

usemtl M_0128_White
vt 84.6457 1.94109e-031
vn 2.84915e-016 1 -6.27216e-016
vt 45.2756 4.54747e-013
f 31/41/11 21/22/11 18/42/11

v 4.33499 8.501 -18.5704
f 21/22/11 31/41/11 32/38/11

usemtl BackColor
vn -2.84915e-016 -1 6.27216e-016
f 18/42/12 21/22/12 31/41/12

f 21/8/4 18/12/4 22/7/4

usemtl Translucent_Glass_Blue
vn -1 9.49112e-015 -0.000328946
vt 79.9606 53.1496
f 21/22/13 25/43/13 22/27/13

v 4.33499 9.801 -18.5704
f 21/22/13 33/32/13 25/43/13

f 33/32/13 21/22/13 32/38/13

vn 1 -9.49112e-015 0.000328946
f 32/38/14 21/22/14 33/32/14

usemtl BackColor
f 32/38/12 31/41/12 21/22/12

usemtl M_0128_White
vt -9.80069e-030 1.9685
f 31/44/4 33/19/4 32/20/4

vt -9.80069e-030 53.1496
f 33/19/4 31/44/4 24/45/4

usemtl BackColor
f 24/45/3 31/44/3 33/19/3

usemtl Color_000
v 4.28498 9.00361 -18.5565
vt 85.1949 21.7563
f 31/38/1 34/46/1 24/32/1

f 34/46/1 31/38/1 29/36/1

usemtl BackColor
f 24/32/2 34/46/2 31/38/2

usemtl Color_000
f 24/32/1 34/46/1 27/34/1

usemtl BackColor
f 27/34/2 34/46/2 24/32/2

usemtl Color_000
f 34/46/1 28/35/1 27/34/1

f 28/35/1 34/46/1 29/36/1

usemtl BackColor
f 29/36/2 34/46/2 28/35/2

f 29/36/2 31/38/2 34/46/2

f 29/36/2 30/37/2 31/38/2

f 26/33/2 30/37/2 29/36/2

usemtl FrontColor
v 4.33497 8.451 -18.5204
vt 1.9685 0
vt 1.36424e-012 55.1181
vt 1.36424e-012 0
f 35/47/3 26/48/3 30/49/3

v 4.33497 9.851 -18.5204
vt 1.9685 55.1181
f 26/48/3 35/47/3 36/50/3

usemtl BackColor
f 30/49/4 26/48/4 35/47/4

f 36/50/4 35/47/4 26/48/4

usemtl FrontColor
f 32/38/1 35/37/1 36/33/1

f 35/37/1 32/38/1 20/23/1

usemtl M_0128_White
f 20/23/2 32/38/2 35/37/2

usemtl FrontColor
f 21/22/1 20/23/1 32/38/1

usemtl BackColor
f 20/40/3 21/20/3 19/39/3

usemtl M_0128_White
f 32/38/2 20/23/2 21/22/2

usemtl FrontColor
vt -86.6142 1.9685
f 35/51/9 19/25/9 20/26/9

vt -86.6142 1.36424e-012
f 19/25/9 35/51/9 30/52/9

usemtl BackColor
f 20/26/10 19/25/10 35/51/10

f 30/52/10 35/51/10 19/25/10

usemtl M_0128_White
f 36/33/2 35/37/2 32/38/2

usemtl FrontColor
f 32/38/1 36/33/1 33/32/1

usemtl M_0128_White
f 33/32/2 36/33/2 32/38/2

usemtl FrontColor
f 33/32/1 36/33/1 25/43/1

usemtl M_0128_White
f 25/43/2 36/33/2 33/32/2

usemtl FrontColor
f 25/43/1 36/33/1 22/27/1

usemtl M_0128_White
f 22/27/2 36/33/2 25/43/2

usemtl FrontColor
v 4.33532 9.851 -19.5704
vt 45.2756 55.1181
f 22/27/1 36/33/1 37/53/1

usemtl M_0128_White
f 37/53/2 36/33/2 22/27/2

usemtl FrontColor
vt 86.6142 1.36424e-012
vt 86.6142 1.9685
f 37/22/10 26/54/10 36/55/10

v 4.28532 9.851 -19.5704
f 26/54/10 37/22/10 38/23/10

usemtl BackColor
f 38/23/9 37/22/9 26/54/9

usemtl FrontColor
vt -1.9685 55.1181
vt -5.24223e-030 53.1496
vt -5.24223e-030 55.1181
f 37/56/4 23/57/4 38/58/4

f 23/57/4 37/56/4 22/19/4

usemtl BackColor
f 38/58/3 23/57/3 37/56/3

usemtl Color_000
f 17/15/1 23/27/1 38/53/1

f 17/15/1 18/22/1 23/27/1

usemtl BackColor
f 17/15/2 18/22/2 10/10/2

f 23/27/2 18/22/2 17/15/2

f 38/53/2 23/27/2 17/15/2

usemtl Color_000
f 23/27/1 26/33/1 38/53/1

usemtl BackColor
f 23/27/2 26/33/2 24/32/2

f 38/53/2 26/33/2 23/27/2

f 24/32/2 26/33/2 27/34/2

f 27/34/2 26/33/2 28/35/2

f 28/35/2 26/33/2 29/36/2

f 27/34/2 28/35/2 34/46/2

usemtl Color_000
f 17/15/1 38/53/1 7/7/1

usemtl BackColor
f 7/7/2 38/53/2 17/15/2

usemtl Color_000
f 6/6/1 7/7/1 38/53/1

f 6/6/1 4/4/1 7/7/1

usemtl BackColor
f 7/7/2 4/4/2 6/6/2

f 4/4/2 7/7/2 1/1/2

f 1/1/2 7/7/2 3/3/2

f 38/53/2 7/7/2 6/6/2

usemtl Color_000
v 4.28533 9.851 -19.6204
vt 43.3071 55.1181
f 6/6/1 38/53/1 39/59/1

usemtl BackColor
f 39/59/2 38/53/2 6/6/2

usemtl FrontColor
f 37/22/10 39/16/10 38/23/10

v 4.33533 9.851 -19.6204
f 39/16/10 37/22/10 40/10/10

usemtl BackColor
f 40/10/9 37/22/9 39/16/9

usemtl FrontColor
f 13/13/1 37/53/1 40/59/1

f 13/13/1 12/7/1 37/53/1

usemtl M_0128_White
f 37/53/2 12/7/2 13/13/2

usemtl FrontColor
v 4.33534 9.801 -19.6474
vt 42.2441 53.1496
f 41/60/1 37/53/1 12/7/1

f 16/15/1 37/53/1 41/60/1

f 16/15/1 22/27/1 37/53/1

usemtl M_0128_White
f 37/53/2 22/27/2 16/15/2

usemtl BackColor
f 22/19/3 37/56/3 23/57/3

usemtl M_0128_White
f 41/60/2 37/53/2 16/15/2

f 12/7/2 37/53/2 41/60/2

vt -43.3071 4.54747e-013
vt -42.2441 1.9685
f 17/61/9 12/20/9 41/62/9

vt -1.9685 4.54747e-013
f 12/20/9 17/61/9 7/63/9

usemtl BackColor
f 7/63/10 17/61/10 12/20/10

f 41/62/10 12/20/10 17/61/10

usemtl Translucent_Glass_Blue
f 12/7/5 16/15/5 41/60/5

f 12/7/6 16/15/6 11/8/6

f 41/60/6 16/15/6 12/7/6

usemtl M_0128_White
vt -43.3071 1.9685
f 17/61/9 41/62/9 16/64/9

usemtl BackColor
f 16/64/10 41/62/10 17/61/10

usemtl M_0128_White
f 40/59/2 37/53/2 13/13/2

usemtl FrontColor
vt 9.09495e-013 1.9685
f 13/65/10 39/16/10 40/10/10

f 39/16/10 13/65/10 6/9/10

usemtl BackColor
f 6/9/9 13/65/9 39/16/9

usemtl FrontColor
f 13/56/4 5/5/4 6/6/4

f 5/5/4 13/56/4 9/9/4

usemtl BackColor
f 6/6/3 5/5/3 13/56/3

f 9/9/3 13/56/3 5/5/3

usemtl FrontColor
f 9/9/4 13/56/4 14/40/4

usemtl BackColor
f 14/40/3 13/56/3 9/9/3

f 40/10/9 39/16/9 13/65/9

f 38/23/9 39/16/9 37/22/9

f 10/10/2 18/22/2 9/9/2

f 10/10/2 9/9/2 8/8/2

f 36/55/9 26/54/9 37/22/9

f 25/31/10 22/26/10 24/29/10

usemtl Translucent_Glass_Blue
f 22/27/14 25/43/14 21/22/14

f 25/43/14 33/32/14 21/22/14

usemtl M_0128_White
vt -84.6457 1.9685
f 24/29/9 25/31/9 33/66/9

usemtl BackColor
f 33/66/10 25/31/10 24/29/10

f 32/20/3 33/19/3 31/44/3

f 15/20/3 16/19/3 10/18/3

usemtl M_0128_White
f 15/10/2 14/14/2 11/8/2

usemtl BackColor
f 3/3/2 5/5/2 2/2/2

g Mesh2 ventana2_1 LAB042 Model

l 2 3

l 4 2

l 1 4

l 3 1

g Mesh3 ventana2_1 LAB042 Model

l 11 15

l 11 8

l 12 11

l 12 7

l 41 12

l 16 41

l 16 17

l 16 15

l 15 10

l 8 10

l 7 8

l 17 7

l 17 10

g Mesh4 ventana2_1 LAB042 Model

l 5 6

l 9 5

l 14 9

l 14 13

l 20 14

l 21 20

l 21 18

l 22 21

l 22 23

l 37 22

l 40 37

l 13 40

l 13 6

l 6 39

l 40 39

l 39 38

l 37 38

l 37 36

l 36 26

l 36 35

l 35 30

l 35 20

l 20 19

l 18 19

l 18 31

l 23 18

l 24 23

l 31 24

l 32 31

l 32 33

l 21 32

l 33 24

l 33 25

l 25 22

l 38 23

l 38 26

l 26 30

l 30 19

l 19 9

g Mesh5 ventana2_1 LAB042 Model

l 29 28

l 34 29

l 27 34

l 28 27

g Mesh6 LAB042 Model

usemtl Color_D03
v 11.8359 11.151 -21.3779
vt -128.06 141.732
vn -1 -2.627e-018 -0.000328946
v 11.836 7.551 -21.5479
vt -134.753 6.24497e-013
v 11.8359 7.551 -21.3779
vt -128.06 1.81821e-012
f 42/67/15 43/68/15 44/69/15

v 11.836 10.551 -21.5479
vt -134.753 118.11
f 43/68/15 42/67/15 45/70/15

usemtl BackColor
vn 1 2.627e-018 0.000328946
f 44/69/16 43/68/16 42/67/16

usemtl _Tile_Ceramic_Natural_14
v 11.8367 7.551 -23.7279
vt 8.39481 16.8283
vn 1.90018e-015 1 1.12113e-015
vt 8.39426 15.1617
vt 8.3943 15.2822
f 46/71/17 44/72/17 43/73/17

v 4.6549 7.551 -18.3003
vt 3.30135 12.9789
f 46/71/17 47/74/17 44/72/17

v 4.65484 7.551 -18.3004
vt 3.30131 12.979
f 46/71/17 48/75/17 47/74/17

v 4.63669 7.551 -23.7279
vt 3.28843 16.8283
f 49/76/17 48/75/17 46/71/17

v 4.63664 7.551 -23.5803
vt 3.2884 16.7236
f 50/77/17 48/75/17 49/76/17

v 4.33664 7.551 -23.5803
vt 3.07563 16.7236
f 51/78/17 48/75/17 50/77/17

v 4.33655 7.551 -23.3204
vt 3.07557 16.5393
f 52/79/17 48/75/17 51/78/17

v 4.33583 7.551 -21.1204
vt 3.07506 14.979
f 53/80/17 48/75/17 52/79/17

v 4.3357 7.551 -20.7204
vt 3.07496 14.6953
f 54/81/17 48/75/17 53/80/17

v 4.33497 7.551 -18.5204
vt 3.07445 13.135
f 55/82/17 48/75/17 54/81/17

v 4.3349 7.551 -18.3004
vt 3.0744 12.979
f 48/75/17 55/82/17 56/83/17

usemtl _7
vt 1.41525 3.75898
vn -1.90018e-015 -1 -1.12113e-015
vt 1.41527 3.80417
vt 1.5197 3.75898
f 56/84/18 55/85/18 48/86/18

usemtl Color_D03
vt 15.4613 1.5575e-012
vn 1 1.73755e-014 0.000328946
v 4.33497 9.851 -18.5204
vt 15.4613 90.5512
vt 6.7999 1.61434e-012
f 55/87/19 57/88/19 56/89/19

v 4.33497 8.451 -18.5204
vt 15.4613 35.4331
f 57/88/19 55/87/19 58/90/19

usemtl BackColor
vn -1 -1.73755e-014 -0.000328946
f 56/89/20 57/88/20 55/87/20

usemtl Color_D03
v 4.3349 11.151 -18.3004
vt 6.7999 141.732
f 57/88/19 59/91/19 56/89/19

v 4.33664 11.151 -23.5804
vt 214.674 141.732
f 59/91/19 57/88/19 60/92/19

usemtl BackColor
f 60/92/20 57/88/20 59/91/20

usemtl Color_D03
v 4.3357 9.851 -20.7204
vt 102.075 90.5512
f 60/92/19 57/88/19 61/93/19

usemtl BackColor
f 61/93/20 57/88/20 60/92/20

usemtl Color_D03
v 4.33583 9.851 -21.1204
vt 117.824 90.5512
f 60/92/19 61/93/19 62/94/19

usemtl BackColor
f 62/94/20 61/93/20 60/92/20

usemtl Color_D03
v 4.3357 8.451 -20.7204
vt 102.075 35.4331
f 62/94/19 61/93/19 63/95/19

usemtl BackColor
f 63/95/20 61/93/20 62/94/20

usemtl Color_D03
vt 117.824 1.50066e-012
f 63/95/19 53/96/19 62/94/19

vt 102.075 1.50066e-012
f 63/95/19 54/97/19 53/96/19

f 58/90/19 54/97/19 63/95/19

f 58/90/19 55/87/19 54/97/19

usemtl BackColor
f 58/90/20 55/87/20 57/88/20

f 54/97/20 55/87/20 58/90/20

usemtl _7
vt 1.41551 4.25606
f 54/98/18 48/86/18 55/85/18

vt 1.41555 4.33822
f 53/99/18 48/86/18 54/98/18

vt 1.41579 4.79011
f 52/100/18 48/86/18 53/99/18

vt 1.41581 4.8435
f 51/101/18 48/86/18 52/100/18

vt 1.51376 4.8435
f 50/102/18 48/86/18 51/101/18

vt 1.51377 4.87382
f 49/103/18 48/86/18 50/102/18

vt 3.86441 4.87382
f 46/104/18 48/86/18 49/103/18

vt 1.51972 3.75896
f 47/105/18 48/86/18 46/104/18

usemtl _Tile_Ceramic_Natural_14
v 4.65484 7.551 -18.3003
vt 3.30131 12.9789
f 47/74/17 48/75/17 64/106/17

usemtl _7
vt 1.5197 3.75896
f 64/107/18 48/86/18 47/105/18

usemtl Color_D03
vt -1.96342 1.6114e-012
vn 0.000328946 5.44931e-015 -1
vt -14.5618 1.55456e-012
vt -14.5596 1.55456e-012
f 56/108/21 47/109/21 64/110/21

v 4.6549 11.151 -18.3003
vt -14.5618 141.732
f 47/109/21 56/108/21 65/111/21

usemtl BackColor
vn -0.000328946 -5.44931e-015 1
f 64/110/22 47/109/22 56/108/22

f 65/111/22 56/108/22 47/109/22

usemtl Color_D03
vt -1.96342 141.732
f 65/111/21 56/108/21 59/112/21

usemtl BackColor
f 59/112/22 56/108/22 65/111/22

f 56/89/20 59/91/20 57/88/20

usemtl Color_D03
v 4.65484 11.151 -18.1303
vt 0.106989 141.732
vn 1 -1.14271e-014 0.000328946
vt 6.7999 1.75802e-012
f 66/113/23 47/114/23 65/91/23

v 4.65484 7.551 -18.1303
vt 0.106989 1.81486e-012
f 47/114/23 66/113/23 67/115/23

usemtl BackColor
vn -1 1.14271e-014 -0.000328946
f 67/115/24 66/113/24 47/114/24

usemtl Color_D03
vn 0.000328946 -6.4213e-015 -1
v 12.5462 7.551 -18.1277
vt -325.247 1.87652e-012
vt -14.5618 1.64915e-012
f 66/111/25 68/116/25 67/117/25

v 12.5462 11.151 -18.1277
vt -325.247 141.732
f 68/116/25 66/111/25 69/118/25

usemtl BackColor
vn -0.000328946 6.4213e-015 1
f 67/117/26 68/116/26 66/111/26

f 69/118/26 66/111/26 68/116/26

usemtl _Color_C03_3
v 12.5597 11.151 -18.2341
vt -45.0291 141.732
vn -0.992097 3.67658e-015 -0.12547
vt -40.8087 3.06218e-012
vt -40.8087 141.732
f 70/119/27 68/120/27 69/121/27

v 12.5466 7.551 -18.1303
vt -40.9118 2.09584e-012
f 68/120/27 70/119/27 71/122/27

usemtl BackColor
vn 0.992097 -3.67658e-015 0.12547
f 69/121/28 68/120/28 70/119/28

f 71/122/28 70/119/28 68/120/28

usemtl _Color_C03_3
v 12.5597 7.551 -18.2341
vt -45.0291 2.4369e-012
f 71/122/27 70/119/27 72/123/27

usemtl BackColor
f 72/123/28 70/119/28 71/122/28

usemtl _Color_C03_3
vt -200.193 141.732
vn -0.79678 -1.00895e-016 -0.60427
v 12.6359 7.551 -18.3345
vt -205.156 1.22462e-012
vt -200.193 1.22462e-012
f 70/124/29 73/125/29 72/126/29

v 12.6359 11.151 -18.3345
vt -205.156 141.732
f 73/125/29 70/124/29 74/127/29

usemtl BackColor
vn 0.79678 1.00895e-016 0.60427
f 72/126/30 73/125/30 70/124/30

usemtl _Tile_Ceramic_Natural_14
v 12.6958 7.551 -21.0677
vt 9.00412 14.9416
vt 8.90758 12.932
vt 8.96161 13.0032
f 75/128/17 72/129/17 73/130/17

vt 8.89828 12.8584
f 75/128/17 71/131/17 72/129/17

v 12.5059 7.551 -21.0677
vt 8.86944 14.9416
f 76/132/17 71/131/17 75/128/17

v 12.5058 7.551 -21.0677
vt 8.86937 14.9416
f 77/133/17 71/131/17 76/132/17

v 11.8367 7.551 -21.3777
vt 8.39481 15.1615
f 78/134/17 71/131/17 77/133/17

f 44/72/17 71/131/17 78/134/17

f 47/74/17 71/131/17 44/72/17

vt 3.30131 12.8584
f 71/131/17 47/74/17 67/135/17

usemtl _7
vt 1.5197 3.72404
vt 4.09617 3.72404
f 67/136/18 47/105/18 71/137/18

vt 3.86416 4.39112
f 44/138/18 71/137/18 47/105/18

vt 3.86441 4.39108
f 78/139/18 71/137/18 44/138/18

vt 4.08286 4.3274
f 77/140/18 71/137/18 78/139/18

vt 4.0829 4.32739
f 76/141/18 71/137/18 77/140/18

vt 4.14489 4.32739
f 75/142/18 71/137/18 76/141/18

vt 4.10045 3.74535
f 72/143/18 71/137/18 75/142/18

vt 4.12533 3.76599
f 73/144/18 72/143/18 75/142/18

usemtl _Tile_Ceramic_Natural_14
v 12.6949 7.551 -18.3594
vt 9.00349 13.0209
f 75/128/17 73/130/17 79/145/17

usemtl _7
vt 4.1446 3.7711
f 79/146/18 73/144/18 75/142/18

usemtl _Color_C03_3
vt -306.125 141.732
vn -0.388404 -3.89364e-016 -0.921489
vt -308.648 1.20376e-012
vt -306.125 1.20376e-012
f 74/147/31 79/148/31 73/149/31

v 12.6949 11.151 -18.3594
vt -308.648 141.732
f 79/148/31 74/147/31 80/150/31

usemtl BackColor
vn 0.388404 3.89364e-016 0.921489
f 73/149/32 79/148/32 74/147/32

f 80/150/32 74/147/32 79/148/32

usemtl Color_D03
v 12.6958 11.151 -21.0677
vt -115.855 141.732
vn -1 1.16266e-014 -0.000328946
vt -9.23046 5.10008e-012
vt -9.23046 141.732
f 81/151/33 79/152/33 80/153/33

vt -115.855 5.04324e-012
f 79/152/33 81/151/33 75/154/33

usemtl BackColor
vn 1 -1.16266e-014 0.000328946
f 80/153/34 79/152/34 81/151/34

f 75/154/34 81/151/34 79/152/34

usemtl Color_D03
vt 323.617 7.74038e-013
vn -0.000328946 -3.6224e-015 1
vt 331.097 7.74038e-013
vt 331.097 141.732
f 77/155/35 75/156/35 81/157/35

v 12.5059 7.551 -21.0677
vt 323.621 1.48761e-013
f 75/156/35 77/155/35 82/158/35

usemtl BackColor
vn 0.000328946 3.6224e-015 -1
f 82/158/36 77/155/36 75/156/36

usemtl _Tile_Ceramic_Natural_14
f 82/132/17 77/133/17 76/132/17

usemtl _7
vt 4.0829 4.3274
f 76/141/18 77/140/18 82/159/18

usemtl BackColor
f 81/157/36 75/156/36 77/155/36

usemtl Color_D03
v 12.5058 11.151 -21.0677
vt 323.617 141.732
f 77/155/35 81/157/35 83/160/35

usemtl BackColor
f 83/160/36 81/157/36 77/155/36

usemtl Color_D03
v 12.5059 11.151 -21.3777
vn -1 1.8052e-014 -0.000328946
vt -115.855 7.03565e-012
f 84/67/37 77/161/37 83/151/37

v 12.5059 7.551 -21.3777
vt -128.06 5.84194e-012
f 77/161/37 84/67/37 85/162/37

usemtl BackColor
vn 1 -1.8052e-014 0.000328946
f 83/151/38 77/161/38 84/67/38

f 85/162/38 84/67/38 77/161/38

usemtl Color_D03
vn -0.000328946 2.57694e-014 1
v 11.8367 7.551 -21.3779
vt 297.269 5.06217e-012
vt 323.617 3.30002e-012
f 84/160/39 86/163/39 85/164/39

vt 297.239 5.11901e-012
f 86/163/39 84/160/39 44/165/39

usemtl BackColor
vn 0.000328946 -2.57694e-014 -1
f 85/164/40 86/163/40 84/160/40

f 44/165/40 84/160/40 86/163/40

usemtl Color_D03
vt 297.239 141.732
f 44/165/39 84/160/39 42/166/39

usemtl BackColor
f 42/166/40 84/160/40 44/165/40

usemtl _Tile_Ceramic_Natural_14
vt 8.39481 15.1617
f 86/167/17 44/72/17 78/134/17

usemtl _7
vt 3.86441 4.39112
f 78/139/18 44/138/18 86/168/18

usemtl _Tile_Ceramic_Natural_14
vt 8.86944 15.1615
f 85/169/17 78/134/17 77/133/17

usemtl _7
vt 4.0829 4.39108
f 77/140/18 78/139/18 85/170/18

usemtl BackColor
f 74/127/30 70/124/30 73/125/30

usemtl _7
f 44/138/18 47/105/18 46/104/18

vt 3.86418 4.42604
f 43/171/18 44/138/18 46/104/18

usemtl _Tile_Ceramic_Natural_14
v 11.8366 7.551 -23.3479
vt 8.39472 16.5588
f 46/71/17 43/73/17 87/172/17

usemtl _7
vt 3.86437 4.79577
f 87/173/18 43/171/18 46/104/18

usemtl _Tile_Ceramic_Natural_14
v 11.8367 7.551 -21.5479
vt 8.39481 15.2822
f 88/174/17 87/172/17 43/73/17

v 11.8367 7.551 -23.3479
vt 8.39481 16.5588
f 87/172/17 88/174/17 89/175/17

usemtl _7
vt 3.86441 4.42604
f 43/171/18 87/173/18 88/176/18

vt 3.86441 4.79577
f 89/177/18 88/176/18 87/173/18

usemtl _Tile_Ceramic_Natural_14
v 11.8367 7.551 -23.3479
f 89/175/17 88/174/17 90/175/17

usemtl _7
vt 3.86441 4.79576
f 90/178/18 88/176/18 89/177/18

usemtl _Tile_Ceramic_Natural_14
v 11.956 7.551 -21.5479
vt 8.47941 15.2822
f 91/179/17 90/175/17 88/174/17

v 11.9566 7.551 -23.3479
vt 8.47983 16.5588
f 90/175/17 91/179/17 92/180/17

usemtl _7
vt 3.90335 4.42604
f 88/176/18 90/178/18 91/181/18

vt 3.90355 4.79576
f 92/182/18 91/181/18 90/178/18

usemtl Color_D03
vt 297.244 6.27962e-012
vn -0.000328946 2.19701e-014 1
v 11.9566 10.551 -23.3479
vt 301.963 118.11
vt 297.239 6.27962e-012
f 89/183/41 93/184/41 87/185/41

vt 301.963 6.27962e-012
f 93/184/41 89/183/41 92/186/41

usemtl BackColor
vn 0.000328946 -2.19701e-014 -1
f 92/186/42 89/183/42 93/184/42

f 87/185/42 93/184/42 89/183/42

usemtl Color_D03
v 11.8366 10.551 -23.3479
vt 297.239 118.11
f 87/185/41 93/184/41 94/187/41

usemtl BackColor
f 94/187/42 93/184/42 87/185/42

usemtl Color_D03
vt -205.619 118.11
vt -220.579 1.76137e-012
vt -205.619 1.76137e-012
f 94/188/15 46/189/15 87/190/15

v 11.8367 11.151 -23.7279
vt -220.579 141.732
f 46/189/15 94/188/15 95/191/15

usemtl BackColor
f 87/190/16 46/189/16 94/188/16

f 95/191/16 94/188/16 46/189/16

usemtl Color_D03
f 45/70/15 95/191/15 94/188/15

f 95/191/15 45/70/15 42/67/15

usemtl BackColor
f 42/67/16 45/70/16 95/191/16

f 45/70/16 42/67/16 43/68/16

usemtl Color_D03
vt -297.239 118.11
vn 0.000328946 1.32926e-014 -1
vt -297.267 -6.54343e-013
vt -297.239 -1.16593e-012
f 45/192/43 88/193/43 43/194/43

v 11.956 10.551 -21.5479
vt -301.963 118.11
f 96/195/43 88/193/43 45/192/43

v 11.956 7.551 -21.5479
vt -301.963 -1.79121e-012
f 88/193/43 96/195/43 97/196/43

usemtl BackColor
vn -0.000328946 -1.32926e-014 1
f 97/196/44 96/195/44 88/193/44

f 45/192/44 88/193/44 96/195/44

f 43/194/44 88/193/44 45/192/44

f 94/188/16 95/191/16 45/70/16

usemtl Color_D03
v 4.63669 11.151 -23.7303
vt 13.7744 141.732
vn -0.000328946 -1.60371e-014 1
vt 297.239 -1.77531e-012
f 98/197/45 46/198/45 95/166/45

v 4.63669 7.551 -23.7303
vt 13.7744 -2.05953e-012
f 46/198/45 98/197/45 99/199/45

usemtl BackColor
vn 0.000328946 1.60371e-014 -1
f 99/199/46 98/197/46 46/198/46

usemtl Color_D03
vt 220.579 141.732
vn 1 -3.8465e-015 0.000328946
vt 220.486 1.53091e-012
vt 220.579 1.53091e-012
f 98/200/47 49/201/47 99/202/47

v 4.63664 11.151 -23.5803
f 100/92/47 49/201/47 98/200/47

vt 214.674 1.53091e-012
f 49/201/47 100/92/47 50/203/47

usemtl BackColor
vn -1 3.8465e-015 -0.000328946
f 50/203/48 100/92/48 49/201/48

usemtl Color_D03
vn -0.000328946 3.21067e-015 1
v 4.33664 7.551 -23.5804
vt 1.96342 2.16718e-012
vt 13.7744 2.16718e-012
f 100/197/49 101/204/49 50/205/49

vt 1.96342 141.732
f 101/204/49 100/197/49 60/206/49

usemtl BackColor
vn 0.000328946 -3.21067e-015 -1
f 50/205/50 101/204/50 100/197/50

f 60/206/50 100/197/50 101/204/50

usemtl Color_D03
vt 214.67 1.5575e-012
vt 214.674 1.44381e-012
f 60/92/19 51/207/19 101/208/19

v 4.33655 9.851 -23.3204
vt 204.438 90.5512
f 60/92/19 102/209/19 51/207/19

f 60/92/19 62/94/19 102/209/19

usemtl BackColor
f 102/209/20 62/94/20 60/92/20

f 51/207/20 102/209/20 60/92/20

usemtl Color_D03
v 4.33655 8.451 -23.3204
vt 204.438 35.4331
f 103/210/19 51/207/19 102/209/19

vt 204.438 1.44381e-012
f 103/210/19 52/211/19 51/207/19

v 4.33583 8.451 -21.1204
vt 117.824 35.4331
f 104/212/19 52/211/19 103/210/19

f 104/212/19 53/96/19 52/211/19

f 62/94/19 53/96/19 104/212/19

usemtl BackColor
f 62/94/20 53/96/20 63/95/20

f 104/212/20 53/96/20 62/94/20

f 52/211/20 53/96/20 104/212/20

f 103/210/20 52/211/20 104/212/20

f 51/207/20 52/211/20 103/210/20

f 102/209/20 51/207/20 103/210/20

f 53/96/20 54/97/20 63/95/20

f 63/95/20 54/97/20 58/90/20

f 101/208/20 51/207/20 60/92/20

f 98/200/48 49/201/48 100/92/48

f 99/202/48 49/201/48 98/200/48

f 95/166/46 46/198/46 98/197/46

f 65/91/24 47/114/24 66/113/24

g Mesh7 LAB042 Model

l 42 95

l 44 42

l 44 43

l 85 86

l 85 84

l 77 85

l 77 83

l 75 82

l 75 81

l 75 79

l 76 75

l 79 73

l 79 80

l 80 74

l 81 80

l 81 83

l 83 84

l 84 42

l 74 70

l 73 74

l 73 72

l 72 70

l 72 71

l 71 68

l 67 71

l 67 47

l 67 66

l 67 68

l 68 69

l 70 69

l 66 69

l 66 65

l 47 65

l 64 56

l 48 56

l 56 59

l 56 55

l 54 55

l 54 53

l 52 53

l 52 51

l 51 50

l 50 49

l 50 100

l 50 101

l 101 60

l 59 60

l 65 59

l 100 60

l 100 98

l 95 98

l 46 95

l 87 46

l 87 94

l 89 92

l 90 92

l 92 93

l 91 92

l 91 88

l 88 97

l 43 45

l 45 94

l 96 45

l 97 96

l 94 93

l 46 99

l 46 49

l 49 99

l 99 98

l 78 85

g Mesh8 LAB042 Model

l 102 62

l 103 102

l 103 104

l 104 62

g Mesh9 LAB042 Model

l 58 57

l 63 58

l 63 61

l 57 61

