# Alias OBJ Model File
# Exported from SketchUp, (c) 2000-2012 Trimble Navigation Limited
# File units = meters

mtllib COM036.mtl

g Mesh1 COM036 Model

usemtl _Color_D03_2
v 5.86232 0.210119 -16.7127
vt 9.2019 -3.38115e-012
vn 0.00841171 -2.85487e-014 0.999965
v 5.75232 3.21012 -16.7118
vt 4.87119 118.11
v 5.75232 0.210119 -16.7118
vt 4.87119 -3.50195e-012
f 1/1/1 2/2/1 3/3/1

v 5.86232 3.21012 -16.7127
vt 9.2019 118.11
f 2/2/1 1/1/1 4/4/1

usemtl M_0128_White
vn -0.00841171 2.85487e-014 -0.999965
f 3/3/2 2/2/2 1/1/2

usemtl _Color_D03_2
vt 157.51 118.11
vn 0.999965 -9.38307e-014 -0.00841171
v 5.76225 0.210119 -15.5318
vt 111.053 1.47314e-012
vt 157.51 1.45183e-012
f 2/5/3 5/6/3 3/7/3

v 5.76225 3.14012 -15.5318
vt 111.053 115.354
f 2/5/3 6/8/3 5/6/3

v 5.77024 3.14012 -14.5818
vt 73.6517 115.354
f 2/5/3 7/9/3 6/8/3

v 5.78598 3.21012 -12.7101
vt -0.0409765 118.11
f 8/10/3 7/9/3 2/5/3

v 5.78598 0.210119 -12.7101
vt -0.0409765 3.61898e-012
f 7/9/3 8/10/3 9/11/3

usemtl M_0128_White
vn -0.999965 9.38307e-014 0.00841171
f 2/5/4 7/9/4 8/10/4

f 6/8/4 7/9/4 2/5/4

f 5/6/4 6/8/4 2/5/4

usemtl _Color_D03_2
vt 4.87119 115.354
vn 0.00841171 -1.77976e-013 0.999965
v 5.66225 0.210119 -15.531
vt 0.934181 -1.87488e-011
vt 4.87119 -1.87488e-011
f 6/12/5 10/13/5 5/14/5

v 5.66225 3.14012 -15.531
vt 0.934181 115.354
f 10/13/5 6/12/5 11/15/5

usemtl M_0128_White
vn -0.00841171 1.77976e-013 -0.999965
f 5/14/6 10/13/6 6/12/6

usemtl _Tile_Ceramic_Natural_14
v 5.66259 0.210119 -15.491
vt 43.1966 24.6933
vn 1.17638e-014 1 -4.12423e-015
vt 43.1682 24.7643
vt 43.1682 24.6933
f 12/16/7 5/17/7 10/18/7

v 5.66288 0.210119 -15.456
vt 43.2214 24.6933
f 5/17/7 12/16/7 13/19/7

usemtl M_0128_White
vt -1.19529e-026 111.057
vn -1.17638e-014 -1 4.12423e-015
vt 3.93687 111.09
vt 0.0132468 109.482
f 10/20/8 5/21/8 12/22/8

vt 0.0248377 108.105
f 13/23/8 12/22/8 5/21/8

usemtl _Tile_Ceramic_Natural_14
v 5.6699 0.210119 -14.621
vt 43.8136 24.6933
f 5/17/7 13/19/7 14/24/7

usemtl M_0128_White
vt 0.301364 75.2317
f 14/25/8 13/23/8 5/21/8

usemtl _Tile_Ceramic_Natural_14
v 5.67024 0.210119 -14.581
vt 43.842 24.6933
f 5/17/7 14/24/7 15/26/7

usemtl M_0128_White
vt 0.314611 73.657
f 15/27/8 14/25/8 5/21/8

usemtl _Tile_Ceramic_Natural_14
v 5.77024 0.210119 -14.5818
vt 43.842 24.7643
f 5/17/7 15/26/7 16/28/7

usemtl M_0128_White
vt 4.25148 73.6901
f 16/29/8 15/27/8 5/21/8

usemtl _Color_D03_2
v 5.67024 3.14012 -14.581
vt -0.934181 115.354
vn -0.00841171 2.57017e-013 -0.999965
vt -4.87119 -1.54126e-011
vt -0.934181 -1.80913e-011
f 17/30/9 16/31/9 15/32/9

vt -4.87119 115.354
f 16/31/9 17/30/9 7/33/9

usemtl M_0128_White
vn 0.00841171 -2.57017e-013 0.999965
f 15/32/10 16/31/10 17/30/10

f 7/33/10 17/30/10 16/31/10

usemtl _Color_D03_2
vt 73.6517 3.97425e-012
f 16/34/3 7/9/3 9/11/3

usemtl M_0128_White
f 9/11/4 7/9/4 16/34/4

f 9/11/4 8/10/4 7/9/4

usemtl _Color_D03_2
v 7.78591 3.21012 -12.7269
vt -83.6113 118.11
vn -0.00841171 2.05016e-013 -0.999965
vt -4.87119 3.17032e-012
vt -4.87119 118.11
f 18/35/11 9/36/11 8/37/11

v 7.78591 0.210119 -12.7269
vt -83.6113 4.56043e-013
f 9/36/11 18/35/11 19/38/11

usemtl M_0128_White
vn 0.00841171 -2.05016e-013 0.999965
f 19/38/12 18/35/12 9/36/12

usemtl _Color_D03_2
v 7.77732 3.21012 -13.7487
vt -40.1872 118.11
vn -0.999965 9.74083e-014 0.00841171
vt 0.0409765 8.59208e-012
vt 0.0409765 118.11
f 20/39/13 19/40/13 18/41/13

v 7.78478 0.210119 -12.8609
vt -5.23461 8.58498e-012
f 19/40/13 20/39/13 21/42/13

usemtl M_0128_White
vn 0.999965 -9.74083e-014 -0.00841171
f 18/41/14 19/40/14 20/39/14

f 21/42/14 20/39/14 19/40/14

usemtl _Color_D03_2
v 7.78007 0.210119 -13.4219
vt -27.3212 8.4855e-012
f 21/42/13 20/39/13 22/43/13

usemtl M_0128_White
f 22/43/14 20/39/14 21/42/14

usemtl _Color_D03_2
v 7.77732 0.210119 -13.7487
vt -40.1872 8.54234e-012
f 22/43/13 20/39/13 23/44/13

usemtl M_0128_White
f 23/44/14 20/39/14 22/43/14

usemtl _Tile_Ceramic_Natural_14
v 7.76218 0.210119 -15.5486
vt 43.1682 26.1827
vt 44.6766 26.1827
vt 44.4448 26.1827
f 24/45/7 22/46/7 23/47/7

v 7.75225 0.210119 -16.7286
vt 42.3313 26.1827
f 25/48/7 22/46/7 24/45/7

v 7.66225 0.210119 -16.7278
vt 42.3313 26.1189
f 26/49/7 22/46/7 25/48/7

vt 45.1695 26.1827
f 26/49/7 19/50/7 22/46/7

vt 42.3313 24.8423
f 1/51/7 19/50/7 26/49/7

vt 45.1695 24.7643
f 1/51/7 9/52/7 19/50/7

f 1/51/7 16/28/7 9/52/7

f 1/51/7 5/17/7 16/28/7

vt 42.3313 24.7643
f 5/17/7 1/51/7 3/53/7

usemtl M_0128_White
vt 3.54609 157.545
vt 7.87664 157.582
f 3/54/8 1/55/8 5/21/8

f 16/29/8 5/21/8 1/55/8

vt 4.87136 1.86446e-011
f 9/56/8 16/29/8 1/55/8

vt 83.6087 0.662339
f 19/57/8 9/56/8 1/55/8

vt 78.7403 158.178
f 26/58/8 19/57/8 1/55/8

vt 83.3786 28.0236
f 22/59/8 19/57/8 26/58/8

usemtl _Tile_Ceramic_Natural_14
vt 45.0745 26.1827
f 22/46/7 19/50/7 21/60/7

usemtl M_0128_White
vt 83.5644 5.93774
f 21/61/8 19/57/8 22/59/8

vt 82.2835 158.208
f 25/62/8 22/59/8 26/58/8

vt 82.6742 111.753
f 24/63/8 22/59/8 25/62/8

vt 83.2703 40.8891
f 23/64/8 22/59/8 24/63/8

usemtl _Color_D03_2
vt -111.053 1.03652e-011
vn -0.999965 1.13347e-013 0.00841171
v 7.75225 3.21012 -16.7286
vt -157.51 118.11
vt -157.51 1.05997e-011
f 24/65/15 27/66/15 25/67/15

v 7.76218 3.21012 -15.5486
vt -111.053 118.11
f 27/66/15 24/65/15 28/68/15

usemtl M_0128_White
vn 0.999965 -1.13347e-013 -0.00841171
f 28/68/16 24/65/16 27/66/16

f 25/67/16 27/66/16 24/65/16

usemtl _Color_D03_2
v 7.66225 3.21012 -16.7278
vt 80.068 118.11
vn 0.00841171 -8.32868e-014 0.999965
vt 83.6113 -1.19959e-011
vt 83.6113 118.11
f 29/69/17 25/70/17 27/71/17

vt 80.068 -1.25572e-011
f 25/70/17 29/69/17 26/72/17

usemtl M_0128_White
vn -0.00841171 8.32868e-014 -0.999965
f 26/72/18 29/69/18 25/70/18

usemtl _Color_D03_2
v 7.66124 3.21012 -16.8478
vt -162.234 118.11
vn -0.999965 7.84503e-014 0.00841171
vt -157.51 6.84269e-012
f 30/73/19 26/74/19 29/66/19

v 7.66124 0.210119 -16.8478
vt -162.234 6.28136e-012
f 26/74/19 30/73/19 31/75/19

usemtl M_0128_White
vn 0.999965 -7.84503e-014 -0.00841171
f 29/66/20 26/74/20 30/73/20

f 31/75/20 30/73/20 26/74/20

usemtl _Tile_Ceramic_Natural_14
vt 42.2462 26.1189
f 1/51/7 26/49/7 31/76/7

usemtl M_0128_White
vt 78.7005 162.902
f 31/77/8 26/58/8 1/55/8

usemtl _Tile_Ceramic_Natural_14
v 5.86131 0.210119 -16.8327
vt 42.2462 24.8423
f 31/76/7 32/78/7 1/51/7

usemtl M_0128_White
vt 7.8369 162.306
f 1/55/8 32/79/8 31/77/8

usemtl _Color_D03_2
v 5.86131 3.21012 -16.8327
vt 162.234 118.11
vn 0.999965 -9.80123e-014 -0.00841171
vt 157.51 2.01745e-012
vt 162.234 1.92508e-012
f 33/80/21 1/81/21 32/82/21

f 1/81/21 33/80/21 4/5/21

usemtl M_0128_White
vn -0.999965 9.80123e-014 0.00841171
f 4/5/22 33/80/22 1/81/22

f 32/82/22 1/81/22 33/80/22

f 4/4/2 1/1/2 2/2/2

f 27/71/18 25/70/18 29/69/18

f 3/7/4 5/6/4 2/5/4

f 8/37/12 9/36/12 18/35/12

f 11/15/6 6/12/6 10/13/6

g Mesh2 COM036 Model

l 9 8

l 9 16

l 19 9

l 19 18

l 21 19

l 22 21

l 23 22

l 23 20

l 24 23

l 24 28

l 25 24

l 25 27

l 25 26

l 26 31

l 26 29

l 27 29

l 27 28

l 29 30

l 31 30

l 31 32

l 1 32

l 1 4

l 3 1

l 3 2

l 5 3

l 5 6

l 10 5

l 10 11

l 10 12

l 12 13

l 13 14

l 14 15

l 15 17

l 15 16

l 16 7

l 7 6

l 17 7

l 11 6

l 4 2

l 4 33

l 32 33

l 8 2

l 18 8

l 20 18

g Mesh3 Model

v 145.914 3.3 -184.316
v 145.914 3.33 -184.316
l 34 35

g Mesh4 Model

v 138.951 3.33 -157.425
v 138.951 3.3 -157.425
l 36 37

