# Alias OBJ Model File
# Exported from SketchUp, (c) 2000-2012 Trimble Navigation Limited
# File units = meters

mtllib COM006.mtl

g Mesh1 COM006 Model

usemtl _Color_D03_2
v 19.9535 3.81012 -16.6312
vt -149.667 141.732
vn -0.999965 4.97594e-014 0.00841171
v 19.9545 0.210119 -16.5112
vt -144.942 4.7242e-012
v 19.9545 3.81012 -16.5112
vt -144.942 141.732
f 1/1/1 2/2/1 3/3/1

v 19.9539 0.210119 -16.5812
vt -147.698 4.42577e-012
f 2/2/1 1/1/1 4/4/1

usemtl M_0128_White
vn 0.999965 -4.97594e-014 -0.00841171
f 3/3/2 2/2/2 1/1/2

usemtl _Color_D03_2
vt 75.235 3.30484e-013
vn 0.00841171 -4.48499e-015 0.999965
v 20.0345 3.81012 -16.5119
vt 78.3846 141.732
vt 75.235 141.732
f 2/5/3 5/6/3 3/7/3

v 20.0345 0.210119 -16.5119
vt 78.3846 8.88994e-014
f 5/6/3 2/5/3 6/8/3

usemtl M_0128_White
vn -0.00841171 4.48499e-015 -0.999965
f 6/8/4 2/5/4 5/6/4

usemtl _Tile_Ceramic_Natural_14
vt 14.1521 11.7101
vn 5.45584e-015 1 4.72849e-015
v 20.0497 0.210119 -14.7002
vt 14.2197 10.4256
vt 14.2089 11.7106
f 2/9/5 7/10/5 6/11/5

v 20.0655 0.210119 -12.8302
vt 14.2308 9.09945
f 2/9/5 8/12/5 7/10/5

v 19.9355 0.210119 -12.8291
vt 14.1386 9.09868
f 2/9/5 9/13/5 8/12/5

vt 14.1517 11.7597
f 4/14/5 9/13/5 2/9/5

v 19.9535 0.210119 -16.6312
vt 14.1514 11.7952
f 10/15/5 9/13/5 4/14/5

v 19.9035 0.210119 -16.6308
vt 14.116 11.7949
f 11/16/5 9/13/5 10/15/5

v 18.2355 0.210119 -12.8148
vt 12.933 9.08854
f 11/16/5 12/17/5 9/13/5

v 18.2036 0.210119 -16.6165
vt 12.9103 11.7848
f 13/18/5 12/17/5 11/16/5

v 18.1546 0.210119 -16.4961
vt 12.8756 11.6993
f 14/19/5 12/17/5 13/18/5

v 18.1055 0.210119 -12.8137
vt 12.8408 9.08776
f 14/19/5 15/20/5 12/17/5

v 18.0971 0.210119 -13.8155
vt 12.8348 9.79823
f 14/19/5 16/21/5 15/20/5

v 18.082 0.210119 -15.6154
vt 12.8241 11.0748
f 14/19/5 17/22/5 16/21/5

v 18.0746 0.210119 -16.4954
vt 12.8188 11.6989
f 17/22/5 14/19/5 18/23/5

usemtl M_0128_White
vt -6.70653e-027 144.947
vn -5.45584e-015 -1 -4.72849e-015
vt 3.14949 144.974
vt 0.291429 110.303
f 18/24/6 14/25/6 17/26/6

usemtl _Color_D03_2
vt 4.36886 6.43123e-013
v 18.0746 3.21012 -16.4954
vt 1.21926 118.11
vt 1.21926 5.79174e-013
f 14/27/3 19/28/3 18/29/3

v 18.1546 3.21012 -16.4961
vt 4.36886 118.11
f 19/28/3 14/27/3 20/30/3

usemtl M_0128_White
f 18/29/4 19/28/4 14/27/4

usemtl _Color_D03_2
vt 144.942 118.11
vn 0.999965 -4.85804e-015 -0.00841171
vt 110.297 1.13569e-012
vt 144.942 1.23516e-012
f 19/31/7 17/32/7 18/33/7

v 18.082 3.21012 -15.6154
vt 110.297 118.11
f 17/32/7 19/31/7 21/34/7

usemtl M_0128_White
vn -0.999965 4.85804e-015 0.00841171
f 21/34/8 19/31/8 17/32/8

f 18/33/8 17/32/8 19/31/8

f 20/30/4 14/27/4 19/28/4

usemtl _Color_D03_2
vt 144.942 1.87346e-012
vn 0.999965 -1.3282e-013 -0.00841171
v 18.1536 3.21012 -16.6161
vt 149.667 118.11
f 14/35/9 22/36/9 20/31/9

v 18.154 0.210119 -16.5661
vt 147.698 1.60346e-012
f 22/36/9 14/35/9 23/37/9

usemtl M_0128_White
vn -0.999965 1.3282e-013 0.00841171
f 20/31/10 22/36/10 14/35/10

f 23/37/10 14/35/10 22/36/10

usemtl _Tile_Ceramic_Natural_14
vt 12.8752 11.749
f 13/18/5 23/38/5 14/19/5

v 18.1536 0.210119 -16.6161
vt 12.8749 11.7845
f 23/38/5 13/18/5 24/39/5

usemtl M_0128_White
vt 3.10975 149.698
vt 5.07819 149.715
vt 3.12631 147.73
f 24/40/6 13/41/6 23/42/6

f 14/25/6 23/42/6 13/41/6

vt 6.33723 0.043052
f 13/41/6 12/43/6 14/25/6

vt 72.005 150.278
f 11/44/6 12/43/6 13/41/6

vt 73.264 0.60604
f 9/45/6 12/43/6 11/44/6

usemtl _Color_D03_2
v 20.0655 3.81012 -12.8302
vt -78.3846 141.732
vn -0.00841171 -3.27751e-016 -0.999965
vt -73.2665 2.84183e-014
vt -6.33737 5.5422e-013
f 25/46/11 9/47/11 12/48/11

vt -78.3846 -3.36154e-018
f 9/47/11 25/46/11 8/49/11

usemtl M_0128_White
vn 0.00841171 3.27751e-016 0.999965
f 8/49/12 25/46/12 9/47/12

usemtl _Color_D03_2
v 20.0497 3.81012 -14.7002
vt -73.6118 141.732
vn -0.999965 8.66747e-014 0.00841171
vt 0.0102564 6.79396e-012
vt 0.0102564 141.732
f 26/50/13 8/51/13 25/52/13

vt -73.6118 7.35529e-012
f 8/51/13 26/50/13 7/53/13

usemtl M_0128_White
vn 0.999965 -8.66747e-014 -0.00841171
f 25/52/14 8/51/14 26/50/14

f 7/53/14 26/50/14 8/51/14

usemtl _Color_D03_2
v 20.1497 3.81012 -14.701
vt -82.3216 141.732
vn -0.00841171 2.06563e-013 -0.999965
vt -78.3846 -1.46441e-011
f 27/54/15 7/55/15 26/46/15

v 20.0997 0.210119 -14.7006
vt -80.3531 -1.47152e-011
f 27/54/15 28/56/15 7/55/15

v 20.1497 0.210119 -14.701
vt -82.3216 -1.48928e-011
f 28/56/15 27/54/15 29/57/15

usemtl M_0128_White
vn 0.00841171 -2.06563e-013 0.999965
f 29/57/16 27/54/16 28/56/16

f 7/55/16 28/56/16 27/54/16

usemtl _Tile_Ceramic_Natural_14
v 20.0918 0.210119 -15.6506
vt 14.2495 11.0997
vt 14.2551 10.4259
f 30/58/5 7/10/5 28/59/5

v 20.0418 0.210119 -15.6501
vt 14.214 11.0994
f 7/10/5 30/58/5 31/60/5

usemtl M_0128_White
vt 77.448 111.669
vt 79.4165 111.685
vt 77.7626 74.2685
f 31/61/6 30/62/6 7/63/6

usemtl _Color_D03_2
vt 80.3531 -1.07775e-011
vn 0.00841171 -1.03547e-013 0.999965
v 20.1418 3.81012 -15.651
vt 82.3216 141.732
vt 78.3846 -1.06851e-011
f 30/64/17 32/65/17 31/66/17

v 20.1418 0.210119 -15.651
vt 82.3216 -1.10119e-011
f 32/65/17 30/64/17 33/67/17

usemtl M_0128_White
vn -0.00841171 1.03547e-013 -0.999965
f 33/67/18 30/64/18 32/65/18

usemtl _Tile_Ceramic_Natural_14
vt 14.2849 11.1
f 30/58/5 28/59/5 33/68/5

usemtl M_0128_White
vt 79.7311 74.2851
f 28/69/6 7/63/6 30/62/6

vt 81.3849 111.702
f 33/70/6 28/69/6 30/62/6

usemtl _Tile_Ceramic_Natural_14
vt 14.2906 10.4262
f 33/68/5 28/59/5 29/71/5

usemtl M_0128_White
vt 81.6995 74.3017
f 29/72/6 28/69/6 33/70/6

f 31/66/18 32/65/18 30/64/18

usemtl _Color_D03_2
v 20.0418 3.81012 -15.6501
f 31/66/17 32/65/17 34/6/17

usemtl M_0128_White
f 34/6/18 32/65/18 31/66/18

usemtl _Color_D03_2
vt -111.013 1.19081e-012
vt -111.013 141.732
f 5/3/8 31/73/8 34/74/8

vt -144.942 1.11976e-012
f 31/73/8 5/3/8 6/75/8

usemtl M_0128_White
f 34/74/7 31/73/7 5/3/7

f 6/75/7 5/3/7 31/73/7

usemtl _Tile_Ceramic_Natural_14
f 6/11/5 7/10/5 31/60/5

usemtl M_0128_White
vt 77.1626 145.597
vt 74.0131 145.57
f 6/76/6 7/63/6 2/77/6

f 31/61/6 7/63/6 6/76/6

vt 78.3819 0.649092
f 7/63/6 8/78/6 2/77/6

f 8/78/6 9/45/6 2/77/6

vt 73.9899 148.326
f 2/77/6 9/45/6 4/79/6

vt 73.9734 150.294
f 4/79/6 9/45/6 10/80/6

f 10/80/6 9/45/6 11/44/6

usemtl _Color_D03_2
vt -149.667 4.63183e-012
f 4/4/1 1/1/1 10/81/1

usemtl M_0128_White
f 4/4/2 1/1/2 2/2/2

f 10/81/2 1/1/2 4/4/2

f 26/46/16 7/55/16 27/54/16

f 12/48/12 9/47/12 25/46/12

usemtl _Color_D03_2
v 18.1055 3.81012 -12.8137
vt -1.21926 141.732
f 12/48/11 35/82/11 25/46/11

vt -1.21926 5.47115e-013
f 35/82/11 12/48/11 15/83/11

usemtl M_0128_White
f 15/83/12 12/48/12 35/82/12

vt 1.2193 1.77351e-011
f 12/43/6 15/84/6 14/25/6

vt 0.887534 39.4393
f 15/84/6 16/85/6 14/25/6

usemtl _Color_D03_2
v 18.0971 3.81012 -13.8155
vt 39.4305 141.732
vt -0.0102564 5.53041e-013
vt 39.4305 7.8752e-013
f 36/86/7 15/87/7 16/88/7

vt -0.0102564 141.732
f 15/87/7 36/86/7 35/89/7

usemtl M_0128_White
f 35/89/8 36/86/8 15/87/8

f 16/88/8 15/87/8 36/86/8

f 16/85/6 17/26/6 14/25/6

f 25/46/12 35/82/12 12/48/12

usemtl _Color_D03_2
vt 149.667 1.80951e-012
f 22/36/9 23/37/9 24/90/9

usemtl M_0128_White
f 24/90/10 23/37/10 22/36/10

f 3/7/4 5/6/4 2/5/4

g Mesh2 COM006 Model

l 10 1

l 4 10

l 4 2

l 2 3

l 2 6

l 6 31

l 6 5

l 3 5

l 1 3

l 5 34

l 31 34

l 31 30

l 33 30

l 33 29

l 33 32

l 32 34

l 29 28

l 29 27

l 27 26

l 7 26

l 8 7

l 9 8

l 12 9

l 12 15

l 15 16

l 15 35

l 36 35

l 16 36

l 16 17

l 17 18

l 17 21

l 19 21

l 18 19

l 14 18

l 23 14

l 23 24

l 13 24

l 13 11

l 11 10

l 24 22

l 22 20

l 14 20

l 20 19

l 25 35

l 8 25

l 26 25

l 7 28

g Mesh3 Model

v 145.914 3.3 -184.316
v 145.914 3.33 -184.316
l 37 38

g Mesh4 Model

v 138.951 3.33 -157.425
v 138.951 3.3 -157.425
l 39 40

g Mesh5 Model

v -0.779044 8.56012 -66.7768
v -0.789043 8.56012 -66.7767
l 41 42

