# Alias OBJ Model File
# Exported from SketchUp, (c) 2000-2012 Trimble Navigation Limited
# File units = meters

mtllib COM008.mtl

g Mesh1 COM008 Model

usemtl _Color_D03_2
v 19.9327 0.210119 -28.6165
vt 78.5094 9.84252
vn 0.00841171 -5.44121e-013 0.999965
v 19.8527 -0.0398807 -28.6158
vt 75.3598 -8.37485e-011
v 19.9327 -0.0398807 -28.6165
vt 78.5094 -8.40541e-011
f 1/1/1 2/2/1 3/3/1

v 19.8527 0.210119 -28.6158
vt 75.3598 9.84252
f 2/2/1 1/1/1 4/4/1

usemtl M_0128_White
vn -0.00841171 5.44121e-013 -0.999965
f 3/3/2 2/2/2 1/1/2

f 4/4/2 1/1/2 2/2/2

usemtl _Tile_Ceramic_Natural_14
v 19.9317 0.210119 -28.7365
vt 14.1359 20.3805
vn 2.95564e-014 1 -6.45277e-015
vt 14.0799 20.2949
vt 14.1367 20.2954
f 5/5/3 4/6/3 1/7/3

v 19.8517 0.210119 -28.7358
vt 14.0792 20.38
f 4/6/3 5/5/3 6/8/3

usemtl M_0128_White
vt 74.0131 160.404
vn -2.95564e-014 -1 6.45277e-015
vt 77.1626 160.43
vt 74.0529 155.68
f 6/9/4 5/10/4 4/11/4

vt 77.2024 155.706
f 1/12/4 4/11/4 5/10/4

usemtl _Color_D03_2
vn 0.00841171 -1.11549e-013 0.999965
v 19.8527 3.81012 -28.6158
vt 75.3598 151.575
f 1/1/5 7/13/5 4/4/5

v 19.9327 3.81012 -28.6165
vt 78.5094 151.575
f 7/13/5 1/1/5 8/14/5

usemtl M_0128_White
vn -0.00841171 1.11549e-013 -0.999965
f 4/4/6 7/13/6 1/1/6

usemtl _Color_D03_2
v 19.8517 3.81012 -28.7358
vt -159.776 151.575
vn -0.999965 2.77574e-015 0.00841171
vt -155.051 9.84252
vt -155.051 151.575
f 9/15/7 4/16/7 7/17/7

vt -159.776 9.84252
f 4/16/7 9/15/7 6/18/7

usemtl M_0128_White
vn 0.999965 -2.77574e-015 -0.00841171
f 7/17/8 4/16/8 9/15/8

f 6/18/8 9/15/8 4/16/8

usemtl _Color_D03_2
vn -0.999965 9.54655e-014 0.00841171
vt -155.051 7.81243e-012
f 6/18/9 2/19/9 4/16/9

v 19.8522 -0.0398807 -28.6708
vt -157.217 7.56019e-012
f 2/19/9 6/18/9 10/20/9

usemtl M_0128_White
vn 0.999965 -9.54655e-014 -0.00841171
f 4/16/10 2/19/10 6/18/10

f 10/20/10 6/18/10 2/19/10

usemtl _Color_D03_2
v 19.8517 -0.0398807 -28.7358
vt -159.776 7.77691e-012
f 10/20/9 6/18/9 11/21/9

usemtl M_0128_White
f 11/21/10 6/18/10 10/20/10

usemtl _Tile_Ceramic_Natural_14
v 19.8017 0.210119 -28.7354
vt 14.0437 20.3797
vn 4.18866e-015 1 4.49188e-015
f 12/22/11 4/6/11 6/8/11

v 19.9658 0.210119 -24.678
vt 14.1602 17.5021
f 12/22/11 13/23/11 4/6/11

v 18.1017 0.210119 -28.7211
vt 12.8381 20.3696
f 14/24/11 13/23/11 12/22/11

v 18.0527 0.210119 -28.6007
vt 12.8034 20.2842
f 15/25/11 13/23/11 14/24/11

v 18.0059 0.210119 -24.6615
vt 12.7701 17.4904
f 15/25/11 16/26/11 13/23/11

v 18.0044 0.210119 -24.8403
vt 12.7691 17.6172
f 15/25/11 17/27/11 16/26/11

v 17.9961 0.210119 -25.8201
vt 12.7632 18.3121
f 15/25/11 18/28/11 17/27/11

v 17.981 0.210119 -27.62
vt 12.7525 19.5887
f 15/25/11 19/29/11 18/28/11

v 17.9728 0.210119 -28.6
vt 12.7466 20.2837
f 19/29/11 15/25/11 20/30/11

usemtl M_0128_White
vt 0.0397404 155.057
vn -4.18866e-015 -1 -4.49188e-015
vt 3.18924 155.084
vt 0.364287 116.476
f 20/31/12 15/32/12 19/33/12

usemtl _Color_D03_2
vt 1.34403 9.84252
vn 0.00841171 -7.0467e-014 0.999965
v 18.0527 -0.0398807 -28.6007
vt 4.49364 -9.73585e-012
vt 4.49364 9.84252
f 20/34/13 21/35/13 15/36/13

v 17.9728 -0.0398807 -28.6
vt 1.34403 -1.00059e-011
f 21/35/13 20/34/13 22/37/13

usemtl M_0128_White
vn -0.00841171 7.0467e-014 -0.999965
f 22/37/14 20/34/14 21/35/14

f 15/36/14 21/35/14 20/34/14

usemtl _Color_D03_2
vt 155.051 1.68284e-012
vn 0.999965 -1.0964e-013 -0.00841171
v 18.0517 0.210119 -28.7206
vt 159.776 9.84252
vt 155.051 9.84252
f 21/38/15 23/39/15 15/40/15

v 18.0523 -0.0398807 -28.6557
vt 157.217 1.1748e-012
f 23/39/15 21/38/15 24/41/15

usemtl M_0128_White
vn -0.999965 1.0964e-013 0.00841171
f 15/40/16 23/39/16 21/38/16

usemtl _Color_D03_2
v 18.0517 3.21012 -28.7206
vt 159.776 127.953
vn 0.999965 -6.11268e-014 -0.00841171
f 25/42/17 15/40/17 23/39/17

v 18.0527 3.21012 -28.6007
vt 155.051 127.953
f 15/40/17 25/42/17 26/43/17

usemtl M_0128_White
vn -0.999965 6.11268e-014 0.00841171
f 26/43/18 25/42/18 15/40/18

f 23/39/18 15/40/18 25/42/18

usemtl _Tile_Ceramic_Natural_14
vt 12.8027 20.3693
vn 2.75188e-014 1 1.9509e-014
f 23/44/19 20/30/19 15/25/19

v 17.9717 0.210119 -28.72
vt 12.7459 20.3688
f 20/30/19 23/44/19 27/45/19

usemtl M_0128_White
vt -2.70854e-013 159.781
vn -2.75188e-014 -1 -1.9509e-014
vt 3.14949 159.808
f 27/46/20 23/47/20 20/31/20

f 15/32/20 20/31/20 23/47/20

usemtl _Color_D03_2
vt 4.49364 127.953
vn 0.00841171 -1.31453e-013 0.999965
f 26/48/21 20/34/21 15/36/21

v 17.9728 3.21012 -28.6
vt 1.34403 127.953
f 20/34/21 26/48/21 28/49/21

usemtl M_0128_White
vn -0.00841171 1.31453e-013 -0.999965
f 15/36/22 20/34/22 26/48/22

f 28/49/22 26/48/22 20/34/22

usemtl _Color_D03_2
vn 0.999965 -2.93294e-015 -0.00841171
vt 116.469 9.84252
f 28/43/23 19/50/23 20/40/23

v 17.981 3.21012 -27.62
vt 116.469 127.953
f 19/50/23 28/43/23 29/51/23

usemtl M_0128_White
vn -0.999965 2.93294e-015 0.00841171
f 29/51/24 28/43/24 19/50/24

f 20/40/24 19/50/24 28/43/24

usemtl _Tile_Ceramic_Natural_14
f 14/24/11 23/44/11 15/25/11

usemtl M_0128_White
vt 5.11793 159.824
f 15/32/12 23/47/12 14/52/12

vt 78.5067 0.649092
f 14/52/12 13/53/12 15/32/12

vt 72.0447 160.387
f 12/54/12 13/53/12 14/52/12

f 4/11/12 13/53/12 12/54/12

usemtl _Tile_Ceramic_Natural_14
v 19.9492 0.210119 -26.6559
vt 14.1484 18.9049
f 4/6/11 13/23/11 30/55/11

usemtl M_0128_White
vt 77.8517 78.5204
f 30/56/12 13/53/12 4/11/12

usemtl _Tile_Ceramic_Natural_14
v 19.9492 0.210119 -26.6529
vt 14.1484 18.9028
f 30/55/11 13/23/11 31/57/11

usemtl M_0128_White
vt 77.8526 78.4022
f 31/58/12 13/53/12 30/56/12

usemtl _Tile_Ceramic_Natural_14
v 19.9643 0.210119 -24.8568
vt 14.1591 17.6289
f 31/57/11 13/23/11 32/59/11

usemtl M_0128_White
vt 78.4475 7.68801
f 32/60/12 13/53/12 31/58/12

usemtl _Color_D03_2
vt 0.011306 9.84252
vn -0.999965 5.43522e-015 0.00841171
v 19.9492 3.81012 -26.6529
vt -77.7446 151.575
vt -7.02786 9.84252
f 13/61/25 33/62/25 32/63/25

v 19.9658 3.81012 -24.678
vt 0.011306 151.575
f 33/62/25 13/61/25 34/64/25

usemtl M_0128_White
vn 0.999965 -5.43522e-015 -0.00841171
f 34/64/26 13/61/26 33/62/26

usemtl _Color_D03_2
vt -1.34403 9.84252
vn -0.00841171 4.48499e-015 -0.999965
vt -78.5094 151.575
vt -78.5094 9.84252
f 16/65/27 34/66/27 13/67/27

v 18.0059 3.81012 -24.6615
vt -1.34403 151.575
f 34/66/27 16/65/27 35/68/27

usemtl M_0128_White
vn 0.00841171 -4.48499e-015 0.999965
f 13/67/28 34/66/28 16/65/28

f 35/68/28 16/65/28 34/66/28

usemtl _Color_D03_2
vt -0.011306 9.84252
vn 0.999965 -3.49559e-015 -0.00841171
v 17.9961 3.81012 -25.8201
vt 45.6025 151.575
vt -0.011306 151.575
f 16/69/29 36/70/29 35/71/29

vt 7.02786 9.84252
f 36/70/29 16/69/29 17/72/29

usemtl M_0128_White
vn -0.999965 3.49559e-015 0.00841171
f 35/71/30 36/70/30 16/69/30

f 17/72/30 16/69/30 36/70/30

vt 1.34408 2.07352e-011
vt 1.28487 7.03892
f 16/73/12 17/74/12 15/32/12

vt 0.960392 45.6122
f 17/74/12 18/75/12 15/32/12

usemtl _Color_D03_2
vt 45.6025 9.84252
f 36/70/29 17/72/29 18/76/29

usemtl M_0128_White
f 18/76/30 17/72/30 36/70/30

f 18/75/12 19/33/12 15/32/12

f 13/53/12 16/73/12 15/32/12

f 32/63/26 33/62/26 13/61/26

usemtl _Color_D03_2
vt -77.7446 9.84252
f 32/63/25 33/62/25 31/77/25

usemtl M_0128_White
f 31/77/26 33/62/26 32/63/26

usemtl _Color_D03_2
v 20.0492 0.210119 -26.6538
vt -82.4464 9.84252
f 37/78/27 31/67/27 33/66/27

v 20.0492 -0.0398807 -26.6538
vt -82.4464 -2.03023e-013
f 38/79/27 31/67/27 37/78/27

v 19.9492 -0.0398807 -26.6529
vt -78.5094 -3.48684e-013
f 31/67/27 38/79/27 39/80/27

usemtl M_0128_White
f 39/80/28 38/79/28 31/67/28

f 37/78/28 31/67/28 38/79/28

f 33/66/28 31/67/28 37/78/28

usemtl _Color_D03_2
v 20.0492 3.81012 -26.6538
vt -82.4464 151.575
f 37/78/27 33/66/27 40/81/27

usemtl M_0128_White
f 40/81/28 33/66/28 37/78/28

usemtl _Tile_Ceramic_Natural_14
f 4/6/11 30/55/11 1/7/11

usemtl M_0128_White
f 1/12/12 30/56/12 4/11/12

usemtl _Tile_Ceramic_Natural_14
v 19.9412 0.210119 -27.6029
vt 14.1427 19.5765
f 1/7/11 30/55/11 41/82/11

usemtl M_0128_White
vt 77.538 115.802
f 41/83/12 30/56/12 1/12/12

usemtl _Tile_Ceramic_Natural_14
v 20.0412 0.210119 -27.6038
vt 14.2136 19.5771
f 30/55/11 42/84/11 41/82/11

v 20.0415 0.210119 -27.5638
vt 14.2139 19.5488
f 42/84/11 30/55/11 43/85/11

usemtl M_0128_White
vt 81.4749 115.836
f 41/83/12 42/86/12 30/56/12

usemtl _Color_D03_2
vt 82.4464 9.84252
v 19.9412 3.81012 -27.6029
f 42/87/28 44/14/28 41/1/28

v 20.0412 3.81012 -27.6038
vt 82.4464 151.575
f 44/14/28 42/87/28 45/88/28

usemtl M_0128_White
f 41/1/27 44/14/27 42/87/27

usemtl _Color_D03_2
vn -0.999965 4.85804e-015 0.00841171
vt -115.146 9.84252
vt -115.146 151.575
f 8/17/31 41/89/31 44/90/31

f 41/89/31 8/17/31 1/16/31

usemtl M_0128_White
vn 0.999965 -4.85804e-015 -0.00841171
f 44/90/32 41/89/32 8/17/32

f 1/16/32 8/17/32 41/89/32

f 8/14/6 1/1/6 7/13/6

f 45/88/27 42/87/27 44/14/27

vt 81.4882 114.261
f 43/91/12 30/56/12 42/86/12

usemtl _Tile_Ceramic_Natural_14
v 20.0492 0.210119 -26.6568
vt 14.2193 18.9055
f 43/85/11 30/55/11 46/92/11

usemtl M_0128_White
vt 81.7885 78.5535
f 46/93/12 30/56/12 43/91/12

usemtl _Tile_Ceramic_Natural_14
v 20.0489 0.210119 -26.6938
vt 14.219 18.9318
f 43/85/11 46/92/11 47/94/11

usemtl M_0128_White
vt 81.7763 80.0101
f 47/95/12 46/93/12 43/91/12

usemtl _Tile_Ceramic_Natural_14
v 20.0435 0.210119 -27.3364
vt 14.2152 19.3875
f 43/85/11 47/94/11 48/96/11

usemtl M_0128_White
vt 81.5635 105.308
f 48/97/12 47/95/12 43/91/12

f 6/9/12 4/11/12 12/54/12

f 24/41/16 21/38/16 23/39/16

usemtl _Color_D03_2
v 18.0517 -0.0398807 -28.7206
vt 159.776 1.38441e-012
f 23/39/15 24/41/15 49/98/15

usemtl M_0128_White
f 49/98/16 24/41/16 23/39/16

g Mesh2 COM008 Model

l 2 3

l 2 4

l 10 2

l 11 10

l 11 6

l 6 9

l 6 5

l 12 6

l 14 12

l 14 23

l 23 27

l 49 23

l 49 24

l 24 21

l 21 15

l 21 22

l 22 20

l 20 28

l 20 19

l 27 20

l 15 20

l 15 26

l 23 15

l 23 25

l 25 26

l 28 26

l 28 29

l 19 29

l 19 18

l 18 17

l 18 36

l 36 35

l 16 35

l 16 17

l 13 16

l 13 32

l 13 34

l 35 34

l 34 33

l 31 33

l 31 32

l 30 31

l 46 30

l 47 46

l 48 47

l 43 48

l 42 43

l 42 41

l 42 45

l 45 44

l 41 44

l 1 41

l 3 1

l 1 8

l 5 1

l 1 4

l 4 7

l 6 4

l 7 8

l 9 7

l 8 44

l 39 31

l 39 38

l 38 37

l 37 40

l 33 40

g Mesh3 Model

v 145.914 3.3 -184.316
v 145.914 3.33 -184.316
l 50 51

g Mesh4 Model

v 138.951 3.33 -157.425
v 138.951 3.3 -157.425
l 52 53

g Mesh5 Model

v -0.779044 8.56012 -66.7768
v -0.789043 8.56012 -66.7767
l 54 55

