# Alias OBJ Model File
# Exported from SketchUp, (c) 2000-2012 Trimble Navigation Limited
# File units = meters

mtllib COM020.mtl

g Mesh1 COM020 Model

usemtl _Color_D03_2
v 14.5346 0.210119 -60.4654
vt 158.493 5.85817e-013
vn 0.00841171 -2.33097e-015 0.999965
v 13.7596 2.31012 -60.4589
vt 127.981 82.6772
v 13.7596 0.210119 -60.4589
vt 127.981 4.79235e-013
f 1/1/1 2/2/1 3/3/1

v 14.5346 3.81012 -60.4654
vt 158.493 141.732
f 2/2/1 1/1/1 4/4/1

usemtl M_0128_White
vn -0.00841171 2.33097e-015 -0.999965
f 3/3/2 2/2/2 1/1/2

usemtl _Color_D03_2
vt -160.198 82.6772
vn -0.999965 2.90857e-015 0.00841171
v 13.7588 0.210119 -60.5589
vt -164.135 1.50201e-012
vt -160.198 1.22489e-012
f 2/5/3 5/6/3 3/7/3

v 13.7588 2.31012 -60.5589
vt -164.135 82.6772
f 5/6/3 2/5/3 6/8/3

usemtl M_0128_White
vn 0.999965 -2.90857e-015 -0.00841171
f 3/7/4 5/6/4 2/5/4

usemtl _Tile_Ceramic_Natural_14
v 13.7188 0.210119 -60.5585
vt 9.72963 42.9493
vn 3.95336e-015 1 4.27864e-015
vt 9.75859 42.8786
vt 9.758 42.9496
f 7/9/5 3/10/5 5/11/5

v 14.5688 0.210119 -56.3955
vt 10.3325 39.9968
f 7/9/5 8/12/5 3/10/5

v 13.5039 0.210119 -56.3866
vt 9.57721 39.9905
f 7/9/5 9/13/5 8/12/5

v 12.8838 0.210119 -60.5515
vt 9.13745 42.9443
f 10/14/5 9/13/5 7/9/5

v 12.8488 0.210119 -60.5512
vt 9.11263 42.9441
f 11/15/5 9/13/5 10/14/5

v 12.8096 0.210119 -60.4509
vt 9.08486 42.873
f 12/16/5 9/13/5 11/15/5

v 12.7597 0.210119 -60.4505
vt 9.0494 42.8727
f 13/17/5 9/13/5 12/16/5

v 12.6597 0.210119 -60.4496
vt 8.97848 42.8721
f 14/18/5 9/13/5 13/17/5

v 12.6097 0.210119 -60.4492
vt 8.94302 42.8718
f 15/19/5 9/13/5 14/18/5

v 11.7039 0.210119 -56.3714
vt 8.30066 39.9797
f 15/19/5 16/20/5 9/13/5

v 12.6088 0.210119 -60.5492
vt 8.94242 42.9427
f 17/21/5 16/20/5 15/19/5

v 11.6597 0.210119 -60.4412
vt 8.26928 42.8661
f 17/21/5 18/22/5 16/20/5

v 11.6588 0.210119 -60.5412
vt 8.26869 42.937
f 18/22/5 17/21/5 19/23/5

usemtl M_0128_White
vt 43.9218 164.51
vn -3.95336e-015 -1 -4.27864e-015
vt 81.322 164.825
vt 43.9549 160.573
f 19/24/6 17/25/6 18/26/6

vt 45.6964 0.346072
f 16/27/6 18/26/6 17/25/6

usemtl _Tile_Ceramic_Natural_14
v 10.659 0.210119 -56.3626
vt 7.55955 39.9735
f 18/22/5 20/28/5 16/20/5

v 10.6584 0.210119 -56.4326
vt 7.55913 40.0232
f 18/22/5 21/29/5 20/28/5

v 10.6432 0.210119 -58.2326
vt 7.54839 41.2997
f 18/22/5 22/30/5 21/29/5

v 10.6247 0.210119 -60.4325
vt 7.53527 42.8599
f 22/30/5 18/22/5 23/31/5

usemtl M_0128_White
vt 3.2083 160.231
vt 3.93687 73.6194
f 23/32/6 18/26/6 22/33/6

usemtl _Color_D03_2
v 11.6597 2.31012 -60.4412
vt 45.304 82.6772
vt 4.55599 1.26083e-012
vt 45.304 1.0832e-012
f 24/34/1 23/35/1 18/36/1

v 10.6247 3.81012 -60.4325
vt 4.55599 141.732
f 23/35/1 24/34/1 25/37/1

usemtl M_0128_White
f 18/36/2 23/35/2 24/34/2

f 25/37/2 24/34/2 23/35/2

usemtl _Color_D03_2
f 25/37/1 24/34/1 4/4/1

usemtl M_0128_White
f 4/4/2 24/34/2 25/37/2

usemtl _Color_D03_2
v 12.8096 2.31012 -60.4509
vt 90.5796 82.6772
f 26/38/1 4/4/1 24/34/1

f 2/2/1 4/4/1 26/38/1

usemtl M_0128_White
f 4/4/2 1/1/2 2/2/2

usemtl _Color_D03_2
v 14.5531 0.210119 -58.2655
vt -73.5837 4.37375e-012
vn -0.999965 2.45025e-014 0.00841171
vt -160.198 141.732
vt -160.198 4.84271e-012
f 27/39/7 4/40/7 1/41/7

v 14.5531 2.06012 -58.2655
vt -73.5837 72.8346
f 28/42/7 4/40/7 27/39/7

v 14.5682 2.06012 -56.4655
vt -2.71758 72.8346
f 29/43/7 4/40/7 28/42/7

v 14.5688 3.81012 -56.3955
vt 0.038325 141.732
f 29/43/7 30/44/7 4/40/7

vt 0.038325 4.09664e-012
f 30/44/7 29/43/7 8/45/7

usemtl M_0128_White
vn 0.999965 -2.45025e-014 -0.00841171
f 8/45/8 29/43/8 30/44/8

usemtl _Color_D03_2
v 14.5682 0.210119 -56.4655
vt -2.71758 3.88347e-012
f 31/46/7 8/45/7 29/43/7

usemtl M_0128_White
f 29/43/8 8/45/8 31/46/8

usemtl _Tile_Ceramic_Natural_14
vt 10.3321 40.0465
f 3/10/5 8/12/5 31/47/5

usemtl M_0128_White
vt 126.629 161.269
vt 158.488 1.29487
vt 125.021 165.192
f 3/48/6 8/49/6 7/50/6

vt 158.465 4.05068
f 31/51/6 8/49/6 3/48/6

usemtl _Tile_Ceramic_Natural_14
vt 10.3082 42.8833
f 3/10/5 31/47/5 1/52/5

usemtl M_0128_White
vt 157.14 161.525
f 1/53/6 31/51/6 3/48/6

usemtl _Tile_Ceramic_Natural_14
vt 10.3213 41.323
f 1/52/5 31/47/5 27/54/5

usemtl M_0128_White
vt 157.868 74.9143
f 27/55/6 31/51/6 1/53/6

usemtl _Tile_Ceramic_Natural_14
v 14.6031 0.210119 -58.2659
vt 10.3568 41.3233
f 31/47/5 32/56/5 27/54/5

v 14.6182 0.210119 -56.466
vt 10.3675 40.0468
f 32/56/5 31/47/5 33/57/5

usemtl M_0128_White
vt 159.837 74.9309
f 27/55/6 32/58/6 31/51/6

usemtl _7
vt 4.92742 0.0431594
vn 0.00841171 -9.4788e-014 0.999965
vt 4.9111 0.423157
vt 4.9111 0.0431594
f 32/59/9 28/60/9 27/61/9

v 14.6531 0.210119 -58.2663
vt 4.94375 0.0431594
f 28/60/9 32/59/9 34/62/9

usemtl M_0128_White
vt 158.493 -6.48458e-012
vn -0.00841171 9.4788e-014 -0.999965
vt 158.493 72.8346
vt 160.462 -6.41352e-012
f 27/63/10 28/64/10 32/65/10

f 27/39/8 4/40/8 28/42/8

f 1/41/8 4/40/8 27/39/8

f 28/42/8 4/40/8 29/43/8

f 4/40/8 30/44/8 29/43/8

vt 162.43 -5.05639e-012
f 34/66/10 32/65/10 28/64/10

usemtl _Tile_Ceramic_Natural_14
vt 10.3923 41.3236
f 32/56/5 33/57/5 34/67/5

usemtl M_0128_White
vt 160.433 4.06724
f 33/68/6 31/51/6 32/58/6

usemtl _Color_D03_2
vt -158.493 72.8346
vn -0.00841171 9.51589e-014 -0.999965
vt -160.462 -8.80718e-014
vt -158.493 -2.58602e-013
f 29/69/11 33/70/11 31/71/11

v 14.6682 2.06012 -56.4664
vt -162.43 72.8346
f 35/72/11 33/70/11 29/69/11

v 14.6682 0.210119 -56.4664
vt -162.43 -1.09388e-013
f 33/70/11 35/72/11 36/73/11

usemtl M_0128_White
vn 0.00841171 -9.51589e-014 0.999965
f 36/73/12 35/72/12 33/70/12

f 29/69/12 33/70/12 35/72/12

f 31/71/12 33/70/12 29/69/12

usemtl _Tile_Ceramic_Natural_14
vt 10.403 40.0471
f 34/67/5 33/57/5 36/74/5

usemtl M_0128_White
vt 161.805 74.9474
f 34/75/6 33/68/6 32/58/6

vt 162.401 4.0838
f 36/76/6 33/68/6 34/75/6

usemtl _7
v 14.6531 2.06012 -58.2663
vt 4.94375 0.423157
f 28/60/9 34/62/9 37/77/9

usemtl M_0128_White
vt 162.43 72.8346
f 37/78/10 34/66/10 28/64/10

vt 116.56 0.942177
f 8/49/6 9/79/6 7/50/6

usemtl _Color_D03_2
vt -116.564 4.47814e-013
vn -0.00841171 4.48499e-015 -0.999965
vt -158.493 141.732
vt -158.493 2.13335e-013
f 9/80/13 30/81/13 8/82/13

v 13.5039 3.81012 -56.3866
vt -116.564 141.732
f 30/81/13 9/80/13 38/83/13

usemtl M_0128_White
vn 0.00841171 -4.48499e-015 0.999965
f 8/82/14 30/81/14 9/80/14

f 38/83/14 9/80/14 30/81/14

vt 92.1484 164.916
f 7/50/6 9/79/6 10/84/6

vt 90.7705 164.904
f 10/84/6 9/79/6 11/85/6

vt 89.2289 160.954
f 11/85/6 9/79/6 12/86/6

vt 87.2604 160.938
f 12/86/6 9/79/6 13/87/6

vt 83.3236 160.904
f 13/87/6 9/79/6 14/88/6

vt 81.3551 160.888
f 14/88/6 9/79/6 15/89/6

f 9/79/6 16/27/6 15/89/6

f 15/89/6 16/27/6 17/25/6

usemtl _Color_D03_2
vt -160.198 1.70208e-012
vn -0.999965 4.85804e-015 0.00841171
v 12.6088 2.31012 -60.5492
vt -164.135 1.69497e-012
f 15/90/15 39/8/15 17/91/15

v 12.6097 2.31012 -60.4492
f 39/8/15 15/90/15 40/5/15

usemtl M_0128_White
vn 0.999965 -4.85804e-015 -0.00841171
f 40/5/16 15/90/16 39/8/16

usemtl _Color_D03_2
vt 82.7056 9.26877e-013
vt 82.7056 82.6772
f 15/92/1 26/38/1 40/93/1

vt 88.6111 9.26877e-013
f 13/94/1 26/38/1 15/92/1

vt 90.5796 8.62929e-013
f 26/38/1 13/94/1 12/95/1

usemtl M_0128_White
f 12/95/2 13/94/2 26/38/2

f 15/92/2 26/38/2 13/94/2

f 40/93/2 26/38/2 15/92/2

usemtl _Color_D03_2
f 40/93/1 26/38/1 24/34/1

usemtl M_0128_White
f 24/34/2 26/38/2 40/93/2

f 24/34/2 4/4/2 26/38/2

f 26/38/2 4/4/2 2/2/2

usemtl _Color_D03_2
vt -89.2289 160.954
vn -2.3923e-014 -1 -7.8936e-015
vt -126.596 165.206
vt -126.629 161.269
f 26/96/17 6/97/17 2/98/17

v 12.8088 2.31012 -60.5509
vt -89.1958 164.891
f 6/97/17 26/96/17 41/99/17

usemtl M_0128_White
vn 2.3923e-014 1 7.8936e-015
f 41/99/18 26/96/18 6/97/18

usemtl _Color_D03_2
vt 160.198 9.29064e-013
vn 0.999965 3.39238e-015 -0.00841171
vt 164.135 82.6772
vt 160.198 82.6772
f 12/100/19 41/101/19 26/102/19

v 12.8088 0.210119 -60.5509
vt 164.135 7.44323e-013
f 41/101/19 12/100/19 42/103/19

usemtl M_0128_White
vn -0.999965 -3.39238e-015 0.00841171
f 26/102/20 41/101/20 12/100/20

f 42/103/20 12/100/20 41/101/20

usemtl _Tile_Ceramic_Natural_14
vt 9.08426 42.9439
f 11/15/5 42/104/5 12/16/5

usemtl M_0128_White
vt 89.1958 164.891
f 12/86/6 42/105/6 11/85/6

f 2/98/18 6/97/18 26/96/18

f 6/8/4 2/5/4 5/6/4

usemtl _Color_D03_2
vt -43.9549 160.573
vn -4.92596e-015 -1 -8.0534e-015
vt -81.322 164.825
vt -81.3551 160.888
f 24/106/21 39/107/21 40/108/21

v 11.6588 2.31012 -60.5412
vt -43.9218 164.51
f 39/107/21 24/106/21 43/109/21

usemtl M_0128_White
vn 4.92596e-015 1 8.0534e-015
f 43/109/22 24/106/22 39/107/22

usemtl _Color_D03_2
vt 160.198 1.6767e-012
f 18/110/16 43/101/16 24/102/16

vt 164.135 1.74776e-012
f 43/101/16 18/110/16 19/111/16

usemtl M_0128_White
f 24/102/15 43/101/15 18/110/15

f 19/111/15 18/110/15 43/101/15

f 40/108/22 39/107/22 24/106/22

usemtl _Color_D03_2
vt 84.6741 9.19772e-013
f 15/92/1 14/112/1 13/94/1

usemtl M_0128_White
f 13/94/2 14/112/2 15/92/2

f 17/91/16 39/8/16 15/90/16

vt 126.596 165.206
f 5/113/6 3/48/6 7/50/6

usemtl _Color_D03_2
v 10.6432 2.06012 -58.2326
vt 73.5837 72.8346
vn 0.999965 -5.15988e-015 -0.00841171
vt 160.198 1.65776e-012
vt 160.198 141.732
f 44/114/23 23/115/23 25/116/23

vt 73.5837 1.3167e-012
f 23/115/23 44/114/23 22/117/23

usemtl M_0128_White
vn -0.999965 5.15988e-015 0.00841171
f 22/117/24 44/114/24 23/115/24

usemtl _Color_D03_2
vt 4.55599 72.8346
vn 0.00841171 -5.82768e-016 0.999965
v 10.5432 0.210119 -58.2317
vt 0.618987 1.25031e-012
vt 4.55599 1.25031e-012
f 44/118/25 45/119/25 22/120/25

v 10.5432 2.06012 -58.2317
vt 0.618987 72.8346
f 45/119/25 44/118/25 46/121/25

usemtl M_0128_White
vn -0.00841171 5.82768e-016 -0.999965
f 22/120/26 45/119/26 44/118/26

usemtl _Tile_Ceramic_Natural_14
v 10.5584 0.210119 -56.4318
vt 7.48821 40.0226
vt 7.47747 41.2991
f 47/122/5 22/30/5 45/123/5

f 22/30/5 47/122/5 21/29/5

usemtl M_0128_White
vt -5.11244e-027 73.5863
vt 0.596105 2.72269
f 45/124/6 22/33/6 47/125/6

vt 4.53297 2.75581
f 21/126/6 47/125/6 22/33/6

usemtl _Color_D03_2
v 10.5584 2.06012 -56.4318
vt -0.618987 72.8346
vn -0.00841171 2.14366e-015 -0.999965
vt -4.55599 9.39196e-013
vt -0.618987 7.61561e-013
f 48/127/27 21/128/27 47/129/27

v 10.6584 2.06012 -56.4326
vt -4.55599 72.8346
f 21/128/27 48/127/27 49/130/27

usemtl M_0128_White
vn 0.00841171 -2.14366e-015 0.999965
f 47/129/28 21/128/28 48/127/28

f 49/130/28 48/127/28 21/128/28

usemtl _Color_D03_2
vt 2.71758 9.6853e-013
vt 2.71758 72.8346
vt -0.038325 9.82741e-013
f 21/131/23 49/132/23 20/133/23

usemtl M_0128_White
f 20/133/24 49/132/24 21/131/24

usemtl _Color_D03_2
v 10.659 3.81012 -56.3626
vt -0.038325 141.732
f 49/132/23 50/134/23 20/133/23

f 50/134/23 49/132/23 25/116/23

usemtl M_0128_White
f 25/116/24 49/132/24 50/134/24

usemtl _Color_D03_2
f 25/116/23 49/132/23 44/114/23

usemtl M_0128_White
f 44/114/24 49/132/24 25/116/24

f 25/116/24 23/115/24 44/114/24

f 20/133/24 50/134/24 49/132/24

usemtl _Color_D03_2
v 11.7039 3.81012 -56.3714
vt -45.6977 141.732
vn -0.00841171 1.17041e-014 -0.999965
vt -4.55599 9.59681e-013
vt -4.55599 141.732
f 51/135/29 20/136/29 50/137/29

vt -45.6977 7.89151e-013
f 20/136/29 51/135/29 16/138/29

usemtl M_0128_White
vn 0.00841171 -1.17041e-014 0.999965
f 16/138/30 51/135/30 20/136/30

f 50/137/30 20/136/30 51/135/30

vt 4.55616 2.04636e-011
f 16/27/6 20/139/6 18/26/6

f 20/139/6 21/126/6 18/26/6

f 21/126/6 22/33/6 18/26/6

f 46/121/26 44/118/26 45/119/26

g Mesh2 COM020 Model

l 21 49

l 21 47

l 21 20

l 20 50

l 16 20

l 16 51

l 9 16

l 8 9

l 8 30

l 31 8

l 31 29

l 31 33

l 33 36

l 36 34

l 36 35

l 35 29

l 29 28

l 37 28

l 34 37

l 32 34

l 27 32

l 27 28

l 27 1

l 1 4

l 1 3

l 3 2

l 5 3

l 5 6

l 7 5

l 10 7

l 11 10

l 42 11

l 42 41

l 42 12

l 12 13

l 12 26

l 26 2

l 41 26

l 41 6

l 6 2

l 13 14

l 14 15

l 15 40

l 17 15

l 17 39

l 19 17

l 19 43

l 19 18

l 18 23

l 18 24

l 24 40

l 43 24

l 43 39

l 39 40

l 23 25

l 23 22

l 22 45

l 22 44

l 46 44

l 46 45

l 47 45

l 48 47

l 48 49

l 49 44

l 25 4

l 50 25

l 51 50

l 30 4

l 30 38

l 9 38

g Mesh3 Model

v 145.914 3.3 -184.316
v 145.914 3.33 -184.316
l 52 53

g Mesh4 Model

v 138.951 3.33 -157.425
v 138.951 3.3 -157.425
l 54 55

g Mesh5 Model

v 11.1597 3.21012 -1.58992
v 8.10982 3.21012 -1.56427
l 56 57

g Mesh6 Model

v 12.1723 -0.0398807 -0.103386
v 11.1723 -0.0398807 -0.0949738
l 58 59

