# Alias OBJ Model File
# Exported from SketchUp, (c) 2000-2012 Trimble Navigation Limited
# File units = meters

mtllib COM031.mtl

g Mesh1 Group1 Model

usemtl _Color_D03_2
v 5.68576 0.210119 -24.6247
vt -4.87391 1.00205e-012
vn -0.00841171 4.48499e-015 -0.999965
v 7.68569 3.21012 -24.6415
vt -83.6141 118.11
v 7.68569 0.210119 -24.6415
vt -83.6141 4.99219e-014
f 1/1/1 2/2/1 3/3/1

v 5.68576 3.21012 -24.6247
vt -4.87391 118.11
f 2/2/1 1/1/1 4/4/1

usemtl M_0128_White
vn 0.00841171 -4.48499e-015 0.999965
f 3/3/2 2/2/2 1/1/2

usemtl _Color_D03_2
vt 0.0409993 118.11
vn -0.999965 1.15523e-013 0.00841171
v 7.67727 2.96012 -25.6415
vt -39.3291 108.268
vt 0.0409993 9.70911e-012
f 2/5/3 5/6/3 3/7/3

v 7.65389 3.21012 -28.4214
vt -148.778 118.11
f 5/6/3 2/5/3 6/8/3

usemtl M_0128_White
vn 0.999965 -1.15523e-013 -0.00841171
f 3/7/4 5/6/4 2/5/4

usemtl _Color_D03_2
v 7.67727 0.210119 -25.6415
vt -39.3291 9.65937e-012
f 7/9/3 3/7/3 5/6/3

usemtl M_0128_White
f 5/6/4 3/7/4 7/9/4

usemtl _Tile_Ceramic_Natural_14
v 7.56389 0.210119 -28.4206
vt 5.36446 20.1565
vn 3.61912e-015 1 8.08023e-015
vt 5.45084 17.4763
vt 5.44488 18.1854
f 8/10/5 3/11/5 7/12/5

v 5.89929 0.210119 -28.5266
vt 4.1839 20.2316
f 9/13/5 3/11/5 8/10/5

v 5.76396 0.210119 -28.4055
vt 4.08791 20.1457
f 10/14/5 3/11/5 9/13/5

vt 4.03245 17.4643
f 10/14/5 1/15/5 3/11/5

v 5.66994 0.210119 -26.5046
vt 4.02124 18.7976
f 10/14/5 11/16/5 1/15/5

v 5.66195 0.210119 -27.4546
vt 4.01557 19.4713
f 10/14/5 12/17/5 11/16/5

v 5.65396 0.210119 -28.4046
vt 4.0099 20.1451
f 12/17/5 10/14/5 13/18/5

usemtl M_0128_White
vt 3.62226 148.814
vn -3.61912e-015 -1 -8.08023e-015
vt 7.95281 148.85
vt 3.93687 111.413
f 13/19/6 10/20/6 12/21/6

usemtl _Color_D03_2
v 5.76396 3.21012 -28.4055
vt 9.20461 118.11
vn 0.00841171 -4.41692e-014 0.999965
vt 4.87391 -4.8732e-012
vt 9.20461 -5.15031e-012
f 14/22/7 13/23/7 10/24/7

v 5.65396 3.21012 -28.4046
vt 4.87391 118.11
f 13/23/7 14/22/7 15/25/7

usemtl M_0128_White
vn -0.00841171 4.41692e-014 -0.999965
f 10/24/8 13/23/8 14/22/8

f 15/25/8 14/22/8 13/23/8

usemtl _Color_D03_2
vt 148.778 118.11
vn 0.999965 -5.95769e-015 -0.00841171
vt 111.376 6.47209e-013
vt 148.778 1.72723e-012
f 15/26/9 12/27/9 13/28/9

v 5.66195 3.14012 -27.4546
vt 111.376 115.354
f 15/26/9 16/29/9 12/27/9

v 5.66994 3.14012 -26.5046
vt 73.9747 115.354
f 15/26/9 17/30/9 16/29/9

vt -0.0409993 118.11
f 4/31/9 17/30/9 15/26/9

vt -0.0409993 1.0309e-012
f 17/30/9 4/31/9 1/32/9

usemtl M_0128_White
vn -0.999965 5.95769e-015 0.00841171
f 15/26/10 17/30/10 4/31/10

f 16/29/10 17/30/10 15/26/10

f 12/27/10 16/29/10 15/26/10

f 13/28/10 12/27/10 15/26/10

f 1/32/10 4/31/10 17/30/10

f 4/4/2 1/1/2 2/2/2

usemtl _Color_D03_2
vt 73.9747 1.17301e-012
f 17/30/9 1/32/9 11/33/9

usemtl M_0128_White
f 11/33/10 1/32/10 17/30/10

vt 4.87408 2.02363e-011
vt 4.25148 74.0131
f 1/34/6 11/35/6 10/20/6

f 11/35/6 12/21/6 10/20/6

usemtl _Tile_Ceramic_Natural_14
v 5.61994 0.210119 -26.5042
vt 3.98578 18.7973
f 12/17/5 18/36/5 11/16/5

v 5.61195 0.210119 -27.4542
vt 3.98011 19.471
f 19/37/5 18/36/5 12/17/5

v 5.56995 0.210119 -26.5038
vt 3.95032 18.797
f 19/37/5 20/38/5 18/36/5

v 5.56961 0.210119 -26.5438
vt 3.95008 18.8254
f 19/37/5 21/39/5 20/38/5

v 5.56259 0.210119 -27.3788
vt 3.9451 19.4176
f 19/37/5 22/40/5 21/39/5

v 5.56229 0.210119 -27.4138
vt 3.94489 19.4424
f 19/37/5 23/41/5 22/40/5

v 5.56195 0.210119 -27.4537
vt 3.94465 19.4707
f 23/41/5 19/37/5 24/42/5

usemtl M_0128_White
vt -2.21153e-027 111.38
vt 1.96843 111.397
vt 0.0132468 109.806
f 24/43/6 19/44/6 23/45/6

vt 0.0248377 108.428
f 22/46/6 23/45/6 19/44/6

vt 0.301364 75.5548
f 21/47/6 22/46/6 19/44/6

vt 0.314611 73.98
f 20/48/6 21/47/6 19/44/6

vt 2.28305 73.9966
f 18/49/6 20/48/6 19/44/6

f 12/21/6 18/49/6 19/44/6

f 11/35/6 18/49/6 12/21/6

vt 83.6115 0.662339
f 3/50/6 1/34/6 10/20/6

vt 13.281 153.619
f 9/51/6 3/50/6 10/20/6

vt 78.8164 149.446
f 8/52/6 3/50/6 9/51/6

vt 83.2803 40.031
f 7/53/6 3/50/6 8/52/6

usemtl _Tile_Ceramic_Natural_14
v 7.65389 0.210119 -28.4214
vt 5.42829 20.157
f 8/10/5 7/12/5 25/54/5

usemtl M_0128_White
vt 82.3596 149.476
f 25/55/6 7/53/6 8/52/6

usemtl _Tile_Ceramic_Natural_14
v 7.66213 0.210119 -27.4414
vt 5.43414 19.462
f 25/54/5 7/12/5 26/56/5

usemtl M_0128_White
vt 82.6842 110.895
f 26/57/6 7/53/6 25/55/6

usemtl _Color_D03_2
vt -110.195 1.01567e-011
vt -148.778 1.02633e-011
f 26/58/3 6/8/3 25/59/3

v 7.66213 2.96012 -27.4414
vt -110.195 108.268
f 27/60/3 6/8/3 26/58/3

f 5/6/3 6/8/3 27/60/3

usemtl M_0128_White
f 6/8/4 2/5/4 5/6/4

f 27/60/4 6/8/4 5/6/4

f 26/58/4 6/8/4 27/60/4

f 25/59/4 6/8/4 26/58/4

usemtl _Color_D03_2
vt 83.6141 118.11
vn 0.00841171 -5.10805e-015 0.999965
vt 80.0708 4.83484e-013
vt 83.6141 -1.56004e-013
f 6/61/11 8/62/11 25/63/11

v 7.56389 3.21012 -28.4206
vt 80.0708 118.11
f 8/62/11 6/61/11 28/64/11

usemtl M_0128_White
vn -0.00841171 5.10805e-015 -0.999965
f 25/63/12 8/62/12 6/61/12

f 28/64/12 6/61/12 8/62/12

usemtl _Color_D03_2
v 7.56288 3.21012 -28.5406
vt -153.502 118.11
vn -0.999965 7.87367e-014 0.00841171
vt -148.778 7.54796e-012
f 29/65/13 8/66/13 28/8/13

v 7.56288 0.210119 -28.5406
vt -153.502 7.68296e-012
f 8/66/13 29/65/13 30/67/13

usemtl BackColor
vn 0.999965 -7.87367e-014 -0.00841171
f 28/8/14 8/66/14 29/65/14

f 30/67/14 29/65/14 8/66/14

usemtl _Tile_Ceramic_Natural_14
vt 5.36375 20.2416
f 9/13/5 8/10/5 30/68/5

usemtl M_0128_White
vt 78.7767 154.17
f 30/69/6 8/52/6 9/51/6

usemtl _Tile_Ceramic_Natural_14
v 5.76295 0.210119 -28.5255
vt 4.0872 20.2308
f 9/13/5 31/70/5 10/14/5

usemtl M_0128_White
vt 7.91307 153.574
f 10/20/6 31/71/6 9/51/6

usemtl _Color_D03_2
v 5.76295 3.21012 -28.5255
vt 153.502 118.11
vn 0.999965 -5.99862e-014 -0.00841171
vt 148.778 1.97323e-012
vt 153.502 3.21668e-012
f 32/72/15 10/73/15 31/74/15

f 10/73/15 32/72/15 14/26/15

usemtl M_0128_White
vn -0.999965 5.99862e-014 0.00841171
f 14/26/16 32/72/16 10/73/16

f 31/74/16 10/73/16 32/72/16

g Mesh2 Group1 Model

l 10 14

l 10 31

l 13 10

l 13 15

l 12 13

l 12 16

l 19 12

l 19 24

l 23 24

l 22 23

l 21 22

l 20 21

l 20 18

l 18 11

l 11 1

l 11 17

l 17 16

l 1 4

l 3 1

l 3 2

l 7 3

l 7 5

l 26 7

l 26 25

l 26 27

l 5 27

l 25 6

l 8 25

l 8 28

l 8 30

l 30 9

l 29 30

l 28 29

l 6 28

l 2 6

l 4 2

l 15 4

l 14 15

l 14 32

l 31 32

l 9 31

g Mesh3 Model

v 145.914 3.3 -184.316
v 145.914 3.33 -184.316
l 33 34

g Mesh4 Model

v 138.951 3.33 -157.425
v 138.951 3.3 -157.425
l 35 36

