# Alias OBJ Model File
# Exported from SketchUp, (c) 2000-2012 Trimble Navigation Limited
# File units = meters

mtllib CUA002.mtl

g Mesh1 CUA002 Model

usemtl _7
v 17.8805 3.21012 -3.90154
vt -1.22461 0.659372
vn -0.999965 6.78314e-015 0.00841171
v 17.8961 0.210119 -2.0466
vt -0.618999 0.0431594
v 17.8961 3.21012 -2.0466
vt -0.618999 0.659372
f 1/1/1 2/2/1 3/3/1

v 17.8805 0.210119 -3.90154
vt -1.22461 0.0431594
f 2/2/1 1/1/1 4/4/1

usemtl M_0128_White
vt 0.00584997 118.11
vn 0.999965 -6.78314e-015 -0.00841171
vt 0.00584997 1.87928e-011
vt -73.0256 118.11
f 3/5/2 2/6/2 1/7/2

usemtl _7
v 15.6562 0.210119 -2.02776
vt -5.11678 0.0431594
vn -0.00841171 4.48499e-015 -0.999965
vt -5.84809 0.659372
vt -5.84809 0.0431594
f 5/8/3 3/9/3 2/10/3

v 15.6562 3.21012 -2.02776
vt -5.11678 0.659372
f 3/9/3 5/8/3 6/11/3

usemtl M_0128_White
vt -88.8844 1.81899e-011
vn 0.00841171 -4.48499e-015 0.999965
vt -88.8844 118.11
vt -0.695432 2.6148e-011
f 2/12/4 3/13/4 5/14/4

vt -0.695432 118.11
f 6/15/4 5/14/4 3/13/4

usemtl _7
vt 0.618999 0.0431594
vn 0.999965 -2.4109e-014 -0.00841171
v 15.6385 3.21012 -4.12769
vt 1.3046 0.659372
vt 0.618999 0.659372
f 5/16/5 7/17/5 6/18/5

v 15.6385 0.210119 -4.12769
vt 1.3046 0.0431594
f 7/17/5 5/16/5 8/19/5

usemtl M_0128_White
vt -0.00584997 118.11
vn -0.999965 2.4109e-014 0.00841171
vt 82.6713 118.11
vt -0.00584997 2.61647e-011
f 6/20/6 7/21/6 5/22/6

vt 82.6713 7.5201e-012
f 8/23/6 5/22/6 7/21/6

usemtl _Tile_Ceramic_Natural_14
vt 11.1037 1.43813
vn 5.35979e-014 1 -2.3376e-013
v 15.9485 0.210119 -4.13029
vt 11.311 2.92929
vt 11.0912 2.92744
f 5/24/7 9/25/7 8/26/7

vt 12.6923 1.45149
f 9/25/7 5/24/7 2/27/7

usemtl M_0128_White
vt -4.02163e-025 82.6742
vn -5.35979e-014 -1 2.3376e-013
vt 12.2043 82.7769
vt 0.695456 1.63709e-011
f 8/28/8 9/29/8 5/30/8

usemtl _7
v 15.9485 3.21012 -4.13029
vt 5.21799 0.659372
vt 5.11678 0.0431594
vt 5.21799 0.0431594
f 10/31/4 8/32/4 9/33/4

vt 5.11678 0.659372
f 8/32/4 10/31/4 7/34/4

usemtl M_0128_White
vt 12.9002 -3.7078e-013
vt 0.695432 7.13255e-012
vt 12.9002 118.11
f 9/35/3 8/36/3 10/37/3

vt 0.695432 118.11
f 7/38/3 10/37/3 8/36/3

vt 88.8813 0.74182
f 2/39/8 5/30/8 9/29/8

usemtl _Tile_Ceramic_Natural_14
v 16.7985 0.210119 -4.13744
vt 11.9138 2.93436
f 9/25/7 2/27/7 11/40/7

usemtl M_0128_White
vt 45.6677 83.0584
f 11/41/8 2/39/8 9/29/8

usemtl _Tile_Ceramic_Natural_14
v 16.8335 0.210119 -4.13774
vt 11.9386 2.93457
f 11/40/7 2/27/7 12/42/7

usemtl M_0128_White
vt 47.0456 83.07
f 12/43/8 2/39/8 11/41/8

usemtl _Tile_Ceramic_Natural_14
v 17.0905 0.210119 -3.89489
vt 12.1209 2.76233
f 12/42/7 2/27/7 13/44/7

usemtl M_0128_White
vt 57.1657 73.5091
f 13/45/8 2/39/8 12/43/8

usemtl _Tile_Ceramic_Natural_14
vt 12.6812 2.76705
f 13/44/7 2/27/7 4/46/7

usemtl M_0128_White
vt 88.267 73.7707
f 4/47/8 2/39/8 13/45/8

vt -73.0256 4.53932e-012
f 4/48/2 1/7/2 2/6/2

usemtl _7
vt 5.84809 0.659372
vt 5.59017 0.0431594
vt 5.84809 0.0431594
f 1/49/4 13/50/4 4/51/4

v 17.0905 3.21012 -3.89489
vt 5.59017 0.659372
f 13/50/4 1/49/4 14/52/4

usemtl M_0128_White
vt 88.8844 3.60889e-012
vt 57.782 3.92863e-012
vt 88.8844 118.11
f 4/53/3 13/54/3 1/55/3

vt 57.782 118.11
f 14/56/3 1/55/3 13/54/3

usemtl _7
v 17.0885 3.21012 -4.13988
vt -1.3046 0.659372
vn -0.999965 4.85804e-015 0.00841171
f 15/57/9 13/4/9 14/1/9

v 17.0886 0.210119 -4.11988
vt -1.29807 0.0431594
f 13/4/9 15/57/9 16/58/9

usemtl M_0128_White
vn 0.999965 -4.85804e-015 -0.00841171
vt -73.0256 4.53686e-012
vt -82.6713 118.11
f 14/7/10 13/59/10 15/60/10

vt -81.8839 4.60791e-012
f 16/61/10 15/60/10 13/59/10

usemtl _7
v 17.0885 0.210119 -4.13988
vt -1.3046 0.0431594
f 16/58/9 15/57/9 17/62/9

usemtl M_0128_White
vt -82.6713 2.78892e-012
f 17/63/10 15/60/10 16/61/10

usemtl _7
vt 5.50692 0.0431594
f 15/52/4 12/64/4 17/50/4

vt 5.49549 0.0431594
f 12/64/4 15/52/4 11/65/4

usemtl M_0128_White
vt 57.782 2.13744e-012
vt 47.7427 2.2156e-012
f 17/66/3 12/67/3 15/56/3

usemtl _Tile_Ceramic_Natural_14
vt 12.1196 2.9219
vt 12.1195 2.93609
f 12/42/7 16/68/7 17/69/7

f 12/42/7 13/44/7 16/68/7

usemtl M_0128_White
vt 57.0912 82.3671
f 16/70/8 13/45/8 12/43/8

vt 57.0846 83.1544
f 17/71/8 16/70/8 12/43/8

vt 46.3647 2.25112e-012
f 11/72/3 15/56/3 12/67/3

usemtl _7
v 16.7985 3.21012 -4.13744
vt 5.49549 0.659372
f 11/65/4 15/52/4 18/73/4

usemtl M_0128_White
vt 46.3647 118.11
f 18/74/3 15/56/3 11/72/3

g Mesh2 CUA002 Model

l 13 14

l 4 13

l 4 1

l 4 2

l 2 3

l 5 2

l 5 6

l 8 5

l 8 7

l 9 8

l 11 9

l 11 18

l 11 12

l 12 17

l 17 15

l 16 17

l 13 16

l 15 18

l 15 14

l 1 14

l 1 3

l 6 3

l 7 6

l 7 10

l 9 10

g Mesh3 Model

v 145.914 3.3 -184.316
v 145.914 3.33 -184.316
l 19 20

g Mesh4 Model

v 138.951 3.33 -157.425
v 138.951 3.3 -157.425
l 21 22

g Mesh5 Model

v -0.779044 8.56012 -66.7768
v -0.789043 8.56012 -66.7767
l 23 24

