# Alias OBJ Model File
# Exported from SketchUp, (c) 2000-2012 Trimble Navigation Limited
# File units = meters

mtllib DES009.mtl

g Mesh1 ventana1_2_1 DES009 Model

usemtl White
v 25.15 2.31012 -25.3934
vt 84.6457 0
vn 4.89559e-015 1 4.44397e-015
v 25.1823 2.31012 -27.4938
vt 1.9685 1.9685
v 25.1323 2.31012 -27.4934
vt 1.9685 -1.13687e-013
f 1/1/1 2/2/1 3/3/1

v 25.2 2.31012 -25.3939
vt 84.6457 1.9685
f 2/2/1 1/1/1 4/4/1

usemtl M_0128_White
vn -4.89559e-015 -1 -4.44397e-015
f 3/3/2 2/2/2 1/1/2

usemtl White
vt 1.9685 57.0866
vn 0.00841171 -4.48499e-015 0.999965
v 25.1323 2.91012 -27.4934
vt -1.13687e-013 80.7087
vt -1.13687e-013 57.0866
f 2/5/3 5/6/3 3/7/3

v 25.1823 2.91012 -27.4938
vt 1.9685 80.7087
f 5/6/3 2/5/3 6/8/3

usemtl M_0128_White
vn -0.00841171 4.48499e-015 -0.999965
f 3/7/4 5/6/4 2/5/4

usemtl Color_000
v 25.1319 2.96012 -27.5434
vt 2.27374e-013 82.6772
vn -0.999965 4.85804e-015 0.00841171
f 7/9/5 3/5/5 5/8/5

v 25.1319 2.26012 -27.5434
vt 2.47704e-042 55.1181
f 8/10/5 3/5/5 7/9/5

vt 84.6457 57.0866
f 3/5/5 8/10/5 1/11/5

usemtl M_0128_White
vn 0.999965 -4.85804e-015 -0.00841171
f 7/9/6 3/5/6 8/10/6

f 5/8/6 3/5/6 7/9/6

usemtl Color_000
v 25.1504 2.96012 -25.3434
vt 86.6142 82.6772
f 7/9/5 5/8/5 9/12/5

usemtl M_0128_White
f 9/12/6 5/8/6 7/9/6

usemtl Color_000
v 25.15 2.91012 -25.3934
vt 84.6457 80.7087
f 10/13/5 9/12/5 5/8/5

f 1/11/5 9/12/5 10/13/5

v 25.1504 2.26012 -25.3434
vt 86.6142 55.1181
f 1/11/5 11/14/5 9/12/5

f 8/10/5 11/14/5 1/11/5

v 25.1416 2.26012 -26.3934
vt 45.2756 55.1181
f 11/14/5 8/10/5 12/15/5

usemtl M_0128_White
f 12/15/6 8/10/6 11/14/6

usemtl Color_F17
vt 45.2756 -1.13687e-013
v 25.1819 2.26012 -27.5438
vt 0 1.9685
vt 0 -1.13687e-013
f 12/16/1 13/17/1 8/18/1

v 25.1916 2.26012 -26.3938
vt 45.2756 1.9685
f 13/17/1 12/16/1 14/19/1

usemtl M_0128_White
f 8/18/2 13/17/2 12/16/2

usemtl Color_F17
vt -1.9685 55.1181
v 25.1319 1.42012 -27.5434
vt 0 22.0472
vt 1.13687e-013 55.1181
f 13/20/4 15/21/4 8/22/4

v 25.1819 1.42012 -27.5438
vt -1.9685 22.0472
f 15/21/4 13/20/4 16/23/4

usemtl M_0128_White
f 8/22/3 15/21/3 13/20/3

usemtl Color_000
v 25.1321 1.55196 -27.524
vt 0.762775 27.238
f 15/21/5 17/24/5 8/10/5

v 25.1321 1.41696 -27.524
vt 0.762775 21.923
f 15/21/5 18/25/5 17/24/5

v 25.1323 0.910119 -27.4934
f 15/21/5 19/2/5 18/25/5

v 25.1319 0.860119 -27.5434
vt 0 0
f 20/26/5 19/2/5 15/21/5

v 25.1416 0.910119 -26.3934
f 20/26/5 21/19/5 19/2/5

v 25.1416 0.860119 -26.3934
vt 45.2756 -6.39488e-014
f 21/19/5 20/26/5 22/27/5

usemtl M_0128_White
f 22/27/6 20/26/6 21/19/6

usemtl Color_F17
v 25.1916 0.860119 -26.3938
vt -45.2756 1.9685
vt -45.2756 -1.02318e-012
f 20/26/2 23/28/2 22/29/2

v 25.1819 0.860119 -27.5438
f 23/28/2 20/26/2 24/17/2

usemtl M_0128_White
f 24/17/1 20/26/1 23/28/1

usemtl Color_F17
vt -1.9685 0
f 20/26/4 16/23/4 24/30/4

f 16/23/4 20/26/4 15/21/4

usemtl M_0128_White
f 15/21/3 20/26/3 16/23/3

f 15/21/6 19/2/6 20/26/6

f 18/25/6 19/2/6 15/21/6

usemtl Color_000
v 25.1322 1.41696 -27.505
vt 1.51081 21.923
f 18/25/5 19/2/5 25/31/5

usemtl M_0128_White
f 25/31/6 19/2/6 18/25/6

usemtl Color_000
v 25.1323 2.21012 -27.4934
vt 1.9685 53.1496
f 26/32/5 25/31/5 19/2/5

v 25.1322 1.55196 -27.505
vt 1.51081 27.238
f 25/31/5 26/32/5 27/33/5

usemtl M_0128_White
f 19/2/6 25/31/6 26/32/6

f 27/33/6 26/32/6 25/31/6

usemtl Color_000
f 27/33/5 26/32/5 17/24/5

usemtl M_0128_White
f 17/24/6 26/32/6 27/33/6

usemtl Color_000
f 8/10/5 17/24/5 26/32/5

usemtl M_0128_White
f 8/10/6 17/24/6 15/21/6

f 26/32/6 17/24/6 8/10/6

usemtl Color_000
v 25.1411 2.21012 -26.4434
vt 43.3071 53.1496
f 8/10/5 26/32/5 28/34/5

usemtl M_0128_White
f 28/34/6 26/32/6 8/10/6

usemtl Color_000
vt -1.9685 -1.13687e-013
v 25.1911 2.21012 -26.4438
vt -43.3071 1.9685
vt -43.3071 -1.13687e-013
f 26/35/2 29/36/2 28/37/2

v 25.1823 2.21012 -27.4938
vt -1.9685 1.9685
f 29/36/2 26/35/2 30/38/2

usemtl M_0128_White
f 30/38/1 26/35/1 29/36/1

usemtl White
vt -1.13687e-013 53.1496
v 25.1823 0.910119 -27.4938
f 26/39/3 31/2/3 30/32/3

vt -1.02318e-012 1.9685
f 31/2/3 26/39/3 19/40/3

usemtl M_0128_White
f 19/40/4 26/39/4 31/2/4

f 30/32/4 31/2/4 26/39/4

usemtl Color_F17
v 25.1822 1.41696 -27.5054
f 32/31/5 31/2/5 30/32/5

v 25.1821 1.41696 -27.5244
f 31/2/5 32/31/5 33/25/5

usemtl Color_000
f 33/25/6 32/31/6 31/2/6

usemtl M_0128_White
v 25.1821 1.55196 -27.5244
f 32/31/5 34/24/5 33/25/5

v 25.1822 1.55196 -27.5054
f 34/24/5 32/31/5 35/33/5

f 33/25/6 34/24/6 32/31/6

usemtl Color_F17
vt -4.28903e-029 22.0472
f 16/41/5 33/25/5 34/24/5

f 16/41/5 31/2/5 33/25/5

vt -4.28903e-029 0
f 24/42/5 31/2/5 16/41/5

v 25.1911 0.910119 -26.4438
vt 43.3071 1.9685
f 24/42/5 36/43/5 31/2/5

v 25.1916 0.910119 -26.3938
f 24/42/5 37/19/5 36/43/5

f 37/19/5 24/42/5 23/27/5

usemtl Color_000
f 23/27/6 24/42/6 37/19/6

f 36/43/6 37/19/6 24/42/6

usemtl Color_F17
v 25.1916 2.21012 -26.3938
vt 45.2756 53.1496
f 38/44/5 36/43/5 37/19/5

f 36/43/5 38/44/5 29/34/5

usemtl Color_000
f 37/19/6 36/43/6 38/44/6

f 29/34/6 38/44/6 36/43/6

usemtl Color_F17
f 29/34/5 38/44/5 30/32/5

usemtl Color_000
f 30/32/6 38/44/6 29/34/6

usemtl Color_F17
f 30/32/5 38/44/5 14/15/5

usemtl Color_000
f 14/15/6 38/44/6 30/32/6

usemtl Color_F17
v 25.1416 2.21012 -26.3934
vt 1.13687e-013 53.1496
vt -1.9685 53.1496
f 39/45/4 14/20/4 38/46/4

f 14/20/4 39/45/4 12/22/4

usemtl M_0128_White
f 12/22/3 39/45/3 14/20/3

usemtl Color_000
f 28/34/5 39/44/5 12/15/5

v 25.1411 0.910119 -26.4434
f 40/43/5 39/44/5 28/34/5

f 39/44/5 40/43/5 21/19/5

usemtl M_0128_White
f 21/19/6 40/43/6 39/44/6

usemtl Color_000
f 19/2/5 21/19/5 40/43/5

usemtl M_0128_White
f 19/2/6 21/19/6 20/26/6

f 40/43/6 21/19/6 19/2/6

usemtl White
vt 1.9685 -1.02318e-012
vt 43.3071 -1.02318e-012
f 36/43/1 19/47/1 40/48/1

f 19/47/1 36/43/1 31/2/1

usemtl M_0128_White
f 31/2/2 36/43/2 19/47/2

usemtl Color_000
f 31/2/6 36/43/6 24/42/6

usemtl Translucent_Glass_Blue
f 29/34/5 31/2/5 36/43/5

f 31/2/5 29/34/5 30/32/5

f 36/43/6 31/2/6 29/34/6

f 30/32/6 29/34/6 31/2/6

usemtl Color_000
f 30/32/6 31/2/6 32/31/6

usemtl Color_F17
f 32/31/5 30/32/5 35/33/5

usemtl Color_000
f 35/33/6 30/32/6 32/31/6

usemtl Color_F17
vt -4.28903e-029 55.1181
f 13/49/5 35/33/5 30/32/5

f 13/49/5 34/24/5 35/33/5

f 16/41/5 34/24/5 13/49/5

usemtl Color_000
f 34/24/6 33/25/6 16/41/6

usemtl Color_F17
vt 1.9685 27.238
vt -1.66195e-029 21.923
vt 1.9685 21.923
f 34/50/3 18/51/3 33/52/3

vt -1.13687e-013 27.238
f 18/51/3 34/50/3 17/53/3

usemtl M_0128_White
f 17/53/4 34/50/4 18/51/4

vt 1.51081 -2.27374e-013
vt 0.762775 1.9685
vt 0.762775 -1.13687e-013
f 27/54/1 34/55/1 17/56/1

vt 1.51081 1.9685
f 34/55/1 27/54/1 35/57/1

f 17/56/2 34/55/2 27/54/2

f 35/57/2 27/54/2 34/55/2

usemtl Color_F17
vt -1.9685 27.238
vt 1.13687e-013 21.923
vt 2.27374e-013 27.238
f 35/58/4 25/59/4 27/60/4

vt -1.9685 21.923
f 25/59/4 35/58/4 32/61/4

usemtl M_0128_White
f 27/60/3 25/59/3 35/58/3

f 27/33/5 18/25/5 25/31/5

f 18/25/5 27/33/5 17/24/5

f 25/31/6 18/25/6 27/33/6

usemtl Color_F17
vt 1.51081 -1.13687e-013
vt 0.762775 0
f 25/62/1 33/55/1 18/63/1

f 33/55/1 25/62/1 32/57/1

usemtl M_0128_White
f 18/63/2 33/55/2 25/62/2

f 33/52/4 18/51/4 34/50/4

f 32/57/2 25/62/2 33/55/2

f 32/61/3 35/58/3 25/59/3

f 35/33/6 32/31/6 34/24/6

usemtl Color_000
f 35/33/6 34/24/6 13/49/6

f 13/49/6 34/24/6 16/41/6

usemtl M_0128_White
f 16/23/3 13/20/3 15/21/3

usemtl Color_000
f 30/32/6 35/33/6 13/49/6

usemtl Color_F17
f 13/49/5 30/32/5 14/15/5

usemtl Color_000
f 14/15/6 30/32/6 13/49/6

v 25.2004 2.26012 -25.3439
f 41/14/5 13/49/5 14/15/5

f 13/49/5 41/14/5 2/5/5

f 14/15/6 13/49/6 41/14/6

usemtl M_0128_White
f 14/19/2 12/16/2 13/17/2

usemtl Color_F17
vt 86.6142 -1.13687e-013
f 11/64/1 14/19/1 12/16/1

vt 86.6142 1.9685
f 14/19/1 11/64/1 41/65/1

usemtl M_0128_White
f 12/16/2 14/19/2 11/64/2

f 41/65/2 11/64/2 14/19/2

usemtl Color_F17
vt 1.9685 55.1181
vt -1.13687e-013 82.6772
vt -1.13687e-013 55.1181
f 41/66/3 9/67/3 11/68/3

v 25.2004 2.96012 -25.3439
vt 1.9685 82.6772
f 9/67/3 41/66/3 42/69/3

usemtl M_0128_White
f 11/68/4 9/67/4 41/66/4

f 9/12/6 11/14/6 1/11/6

f 1/11/6 11/14/6 8/10/6

f 1/11/6 8/10/6 3/5/6

f 10/13/6 9/12/6 1/11/6

f 5/8/6 9/12/6 10/13/6

usemtl White
v 25.2 2.91012 -25.3939
vt -1.9685 80.7087
vt 1.84428e-027 57.0866
vt 1.84428e-027 80.7087
f 43/70/4 1/71/4 10/72/4

vt -1.9685 57.0866
f 1/71/4 43/70/4 4/73/4

usemtl M_0128_White
f 10/72/3 1/71/3 43/70/3

f 4/73/3 43/70/3 1/71/3

usemtl Color_000
f 4/11/5 42/12/5 43/13/5

f 42/12/5 4/11/5 41/14/5

f 41/14/6 4/11/6 42/12/6

f 2/5/5 41/14/5 4/11/5

f 2/5/6 41/14/6 13/49/6

f 4/11/6 41/14/6 2/5/6

usemtl M_0128_White
f 4/4/2 1/1/2 2/2/2

usemtl Translucent_Glass_Blue
f 43/13/5 2/5/5 4/11/5

f 2/5/5 43/13/5 6/8/5

f 4/11/6 2/5/6 43/13/6

f 6/8/6 43/13/6 2/5/6

usemtl Color_000
f 43/13/5 42/12/5 6/8/5

f 43/13/6 42/12/6 4/11/6

f 6/8/6 42/12/6 43/13/6

v 25.1819 2.96012 -27.5438
vt -4.28903e-029 82.6772
f 6/8/5 42/12/5 44/74/5

f 44/74/6 42/12/6 6/8/6

usemtl Color_F17
vt 2.27374e-013 0
f 7/75/1 42/65/1 44/17/1

f 42/65/1 7/75/1 9/64/1

usemtl M_0128_White
f 44/17/2 42/65/2 7/75/2

f 9/64/2 7/75/2 42/65/2

f 42/69/4 41/66/4 9/67/4

usemtl Color_F17
vt 4.95408e-042 82.6772
vt -1.9685 82.6772
f 13/20/4 7/76/4 44/77/4

f 7/76/4 13/20/4 8/22/4

usemtl M_0128_White
f 8/22/3 13/20/3 7/76/3

f 44/77/3 7/76/3 13/20/3

usemtl Color_000
f 13/49/5 2/5/5 44/74/5

f 44/74/6 2/5/6 13/49/6

f 44/74/5 2/5/5 6/8/5

f 6/8/6 2/5/6 44/74/6

usemtl M_0128_White
f 6/8/4 2/5/4 5/6/4

usemtl Color_F17
v 25.2004 0.860119 -25.3439
vt 1.9685 0
f 11/68/3 45/78/3 41/66/3

v 25.1504 0.860119 -25.3434
vt -1.13687e-013 -6.39488e-014
f 45/78/3 11/68/3 46/79/3

usemtl M_0128_White
f 46/79/4 11/68/4 45/78/4

usemtl Color_000
v 25.1503 1.41696 -25.3571
vt 86.0777 21.923
vt 86.6142 -6.39488e-014
f 47/80/5 46/81/5 11/14/5

v 25.15 0.910119 -25.3934
f 48/4/5 46/81/5 47/80/5

f 46/81/5 48/4/5 22/27/5

usemtl M_0128_White
f 22/27/6 48/4/6 46/81/6

usemtl Color_000
f 22/27/5 48/4/5 21/19/5

usemtl M_0128_White
f 21/19/6 48/4/6 22/27/6

usemtl White
vt 84.6457 -9.09495e-013
vn 4.89635e-015 1 4.5342e-015
vt 45.2756 -1.13687e-012
f 48/82/7 37/19/7 21/83/7

v 25.2 0.910119 -25.3939
f 37/19/7 48/82/7 49/4/7

usemtl M_0128_White
vn -4.89635e-015 -1 -4.5342e-015
f 21/83/8 37/19/8 48/82/8

usemtl Color_F17
vt -1.02318e-012 -6.39488e-014
vt -1.13687e-012 1.9685
f 22/84/3 37/2/3 21/85/3

vt 1.9685 -6.39488e-014
f 37/2/3 22/84/3 23/86/3

usemtl M_0128_White
f 21/85/4 37/2/4 22/84/4

usemtl White
f 37/2/3 39/39/3 21/85/3

f 39/39/3 37/2/3 38/32/3

usemtl M_0128_White
f 21/85/4 39/39/4 37/2/4

f 38/32/4 37/2/4 39/39/4

usemtl Translucent_Glass_Blue
v 25.2 2.21012 -25.3939
vt 84.6457 53.1496
f 37/19/5 50/87/5 38/44/5

f 50/87/5 37/19/5 49/4/5

f 49/4/6 37/19/6 50/87/6

usemtl M_0128_White
f 49/4/8 48/82/8 37/19/8

usemtl White
v 25.15 2.21012 -25.3934
vt 1.84428e-027 53.1496
vt 9.09495e-013 1.9685
f 51/88/4 49/38/4 48/89/4

f 49/38/4 51/88/4 50/46/4

usemtl M_0128_White
f 48/89/3 49/38/3 51/88/3

f 50/46/3 51/88/3 49/38/3

usemtl Color_000
vt -45.2756 -1.13687e-013
vt -84.6457 1.9685
vt -84.6457 0
f 39/90/2 50/91/2 51/92/2

f 50/91/2 39/90/2 38/28/2

usemtl M_0128_White
f 38/28/1 39/90/1 50/91/1

f 38/46/3 14/20/3 39/45/3

f 38/44/5 41/14/5 14/15/5

f 50/87/5 41/14/5 38/44/5

v 25.2003 1.55196 -25.3575
vt 86.0777 27.238
f 52/93/5 41/14/5 50/87/5

v 25.2003 1.41696 -25.3575
f 53/80/5 41/14/5 52/93/5

vt 86.6142 0
f 53/80/5 45/94/5 41/14/5

f 45/94/5 53/80/5 49/4/5

usemtl Color_000
f 49/4/6 53/80/6 45/94/6

usemtl M_0128_White
v 25.2001 1.41696 -25.3765
vt 85.3297 21.923
f 49/4/5 53/80/5 54/95/5

usemtl Color_000
f 54/95/6 53/80/6 49/4/6

usemtl M_0128_White
v 25.2001 1.55196 -25.3765
vt 85.3297 27.238
f 53/80/5 55/96/5 54/95/5

f 55/96/5 53/80/5 52/93/5

f 54/95/6 55/96/6 53/80/6

usemtl Color_F17
v 25.1501 1.41696 -25.3761
vt -1.85919e-027 21.923
f 55/50/3 56/97/3 54/52/3

v 25.1501 1.55196 -25.3761
f 56/97/3 55/50/3 57/53/3

usemtl M_0128_White
f 57/53/4 55/50/4 56/97/4

vt 85.3297 -1.13687e-013
vt 86.0777 1.9685
vt 85.3297 1.9685
f 57/98/1 52/99/1 55/100/1

v 25.1503 1.55196 -25.3571
vt 86.0777 0
f 52/99/1 57/98/1 58/101/1

f 55/100/2 52/99/2 57/98/2

f 52/93/6 53/80/6 55/96/6

vt -1.87548e-027 27.238
f 58/102/3 53/52/3 52/50/3

vt -1.87548e-027 21.923
f 53/52/3 58/102/3 47/103/3

f 47/103/4 58/102/4 53/52/4

usemtl Color_000
f 47/80/5 11/14/5 58/93/5

usemtl M_0128_White
f 11/14/6 46/81/6 47/80/6

f 47/80/6 46/81/6 48/4/6

usemtl Color_000
f 48/4/5 47/80/5 56/95/5

usemtl M_0128_White
f 56/95/6 47/80/6 48/4/6

usemtl Color_F17
vt 85.3297 0
f 53/99/1 56/104/1 47/101/1

f 56/104/1 53/99/1 54/100/1

usemtl M_0128_White
f 54/100/2 53/99/2 56/104/2

f 47/101/2 56/104/2 53/99/2

f 47/80/5 57/96/5 56/95/5

f 57/96/5 47/80/5 58/93/5

f 56/95/6 57/96/6 47/80/6

usemtl Color_000
f 51/87/5 56/95/5 57/96/5

f 56/95/5 51/87/5 48/4/5

usemtl M_0128_White
f 48/4/6 51/87/6 56/95/6

f 57/96/6 56/95/6 51/87/6

usemtl Color_000
f 51/87/5 57/96/5 58/93/5

usemtl M_0128_White
f 58/93/6 57/96/6 51/87/6

f 58/101/2 57/98/2 52/99/2

f 58/93/6 47/80/6 57/96/6

f 58/93/6 11/14/6 47/80/6

usemtl Color_000
f 58/93/5 11/14/5 51/87/5

usemtl M_0128_White
f 51/87/6 11/14/6 58/93/6

usemtl Color_000
f 51/87/5 11/14/5 39/44/5

usemtl M_0128_White
f 39/44/6 11/14/6 51/87/6

usemtl Color_000
f 39/44/5 11/14/5 12/15/5

usemtl M_0128_White
f 12/15/6 11/14/6 39/44/6

f 12/15/6 39/44/6 28/34/6

f 28/34/6 39/44/6 40/43/6

usemtl White
vt 1.02318e-012 1.9685
f 28/45/4 36/38/4 40/105/4

f 36/38/4 28/45/4 29/46/4

usemtl M_0128_White
f 40/105/3 36/38/3 28/45/3

f 40/48/2 19/47/2 36/43/2

f 29/46/3 28/45/3 36/38/3

f 28/37/1 29/36/1 26/35/1

usemtl Color_000
f 8/10/5 28/34/5 12/15/5

usemtl M_0128_White
f 12/15/6 28/34/6 8/10/6

f 51/92/1 50/91/1 39/90/1

f 52/50/4 53/52/4 58/102/4

usemtl Color_000
f 52/93/6 41/14/6 53/80/6

f 50/87/6 41/14/6 52/93/6

f 38/44/6 41/14/6 50/87/6

f 14/15/6 41/14/6 38/44/6

usemtl Translucent_Glass_Blue
f 38/44/6 50/87/6 37/19/6

usemtl M_0128_White
f 50/87/5 55/96/5 52/93/5

f 50/87/5 54/95/5 55/96/5

f 54/95/5 50/87/5 49/4/5

usemtl Color_000
f 49/4/6 50/87/6 54/95/6

f 55/96/6 54/95/6 50/87/6

usemtl M_0128_White
f 54/52/4 56/97/4 55/50/4

usemtl Color_000
f 52/93/6 55/96/6 50/87/6

f 41/14/6 45/94/6 53/80/6

usemtl M_0128_White
f 41/66/4 45/78/4 11/68/4

f 37/19/5 45/94/5 49/4/5

f 45/94/5 37/19/5 23/27/5

usemtl Color_000
f 23/27/6 37/19/6 45/94/6

usemtl M_0128_White
f 23/86/4 22/84/4 37/2/4

f 22/29/1 23/28/1 20/26/1

usemtl Color_F17
vt -86.6142 1.9685
f 45/106/2 22/29/2 23/28/2

vt -86.6142 -1.13687e-013
f 22/29/2 45/106/2 46/107/2

usemtl M_0128_White
f 23/28/1 22/29/1 45/106/1

f 46/107/1 45/106/1 22/29/1

usemtl Color_000
f 49/4/6 45/94/6 37/19/6

usemtl M_0128_White
f 17/24/6 27/33/6 18/25/6

f 17/24/6 18/25/6 15/21/6

usemtl Color_000
f 33/25/6 31/2/6 16/41/6

f 16/41/6 31/2/6 24/42/6

usemtl M_0128_White
f 24/30/3 16/23/3 20/26/3

g Mesh2 ventana1_2_1 DES009 Model

l 2 4

l 2 3

l 6 2

l 43 6

l 4 43

l 4 1

l 3 1

l 5 3

l 6 5

l 10 5

l 43 10

l 1 10

g Mesh3 ventana1_2_1 DES009 Model

l 45 46

l 45 41

l 23 45

l 37 23

l 37 21

l 38 37

l 50 38

l 50 51

l 49 50

l 49 48

l 37 49

l 48 51

l 21 48

l 21 22

l 39 21

l 51 39

l 12 39

l 12 8

l 14 12

l 14 13

l 41 14

l 41 42

l 41 11

l 46 11

l 22 46

l 23 22

l 24 23

l 16 24

l 13 16

l 44 13

l 42 44

l 42 9

l 11 9

l 11 12

l 9 7

l 7 8

l 44 7

l 13 8

l 8 15

l 16 15

l 15 20

l 24 20

l 20 22

l 14 38

l 38 39

g Mesh4 ventana1_2_1 DES009 Model

l 58 47

l 57 58

l 55 57

l 55 52

l 54 55

l 53 54

l 52 53

l 52 58

l 53 47

l 47 56

l 56 57

l 54 56

g Mesh5 ventana1_2_1 DES009 Model

l 34 35

l 33 34

l 32 33

l 35 32

l 35 27

l 17 27

l 18 17

l 25 18

l 27 25

l 32 25

l 33 18

l 34 17

g Mesh6 ventana1_2_1 DES009 Model

l 29 36

l 29 30

l 29 28

l 28 40

l 28 26

l 26 19

l 30 26

l 30 31

l 31 36

l 31 19

l 19 40

l 36 40

g Mesh7 DES009 Model

usemtl _Color_D03_2
v 25.1305 3.81012 -27.7066
vt 201.382 141.732
v 22.5856 0.210119 -27.6852
vt 101.185 6.24042e-013
v 25.1305 0.210119 -27.7066
vt 201.382 1.05345e-013
f 59/108/3 60/109/3 61/110/3

v 20.0407 0.210119 -27.6638
vt 0.988506 1.13563e-012
f 60/109/3 59/108/3 62/111/3

usemtl M_0128_White
f 61/110/4 60/109/4 59/108/4

usemtl _Tile_Ceramic_Natural_14
v 24.8327 0.210119 -25.064
vt 17.6119 17.7759
vt 17.8231 19.65
vt 16.0182 19.6349
f 63/112/1 61/113/1 60/114/1

v 25.1307 0.210119 -27.6895
vt 17.8232 19.638
f 61/113/1 63/112/1 64/115/1

usemtl M_0128_White
vt 100.193 118.358
vt 200.387 119.201
vt 188.663 15.1619
f 60/116/2 61/117/2 63/118/2

vt 200.392 118.53
f 64/119/2 63/118/2 61/117/2

usemtl _Tile_Ceramic_Natural_14
v 25.1319 0.210119 -27.5434
vt 17.824 19.5343
f 64/115/1 63/112/1 65/120/1

usemtl M_0128_White
vt 200.441 112.776
f 65/121/2 63/118/2 64/119/2

usemtl _Tile_Ceramic_Natural_14
v 25.1333 0.210119 -27.3792
vt 17.825 19.4179
f 65/120/1 63/112/1 66/122/1

usemtl M_0128_White
vt 200.495 106.311
f 66/123/2 63/118/2 65/121/2

usemtl _Tile_Ceramic_Natural_14
v 25.1527 0.210119 -25.0667
vt 17.8388 17.7778
f 66/122/1 63/112/1 67/124/1

usemtl M_0128_White
vt 201.261 15.2678
f 67/125/2 63/118/2 66/123/2

usemtl _Color_D03_2
vt -188.784 -4.03749e-015
v 25.1527 3.81012 -25.0667
vt -201.382 141.732
vt -201.382 -6.08809e-014
f 63/126/4 68/127/4 67/128/4

v 24.8327 3.81012 -25.064
vt -188.784 141.732
f 68/127/4 63/126/4 69/129/4

usemtl M_0128_White
f 67/128/3 68/127/3 63/126/3

usemtl _Color_D03_2
vt -13.5744 141.732
vn -0.999965 3.33511e-015 0.00841171
v 25.1504 2.96012 -25.3434
vt -24.4718 108.268
vt -13.5744 6.71631e-013
f 68/130/9 70/131/9 67/132/9

vt -117.511 141.732
f 70/131/9 68/130/9 59/133/9

usemtl M_0128_White
vn 0.999965 -3.33511e-015 -0.00841171
f 67/132/10 70/131/10 68/130/10

usemtl _Color_D03_2
v 25.1504 0.860119 -25.3434
vt -24.4718 25.5906
f 71/134/9 67/132/9 70/131/9

v 25.1504 0.210119 -25.3434
vt -24.4718 9.8427e-013
f 67/132/9 71/134/9 72/135/9

usemtl M_0128_White
f 72/135/10 71/134/10 67/132/10

usemtl _Color_D03_2
v 25.1319 0.860119 -27.5434
vt -111.086 25.5906
f 72/135/9 71/134/9 73/136/9

usemtl M_0128_White
f 73/136/10 71/134/10 72/135/10

usemtl _Color_D03_2
v 25.1504 0.210119 -25.3467
vt -24.598 9.77165e-013
f 72/135/9 73/136/9 74/137/9

usemtl M_0128_White
f 74/137/10 73/136/10 72/135/10

usemtl _Color_D03_2
vt -104.621 1.24717e-012
f 74/137/9 73/136/9 66/138/9

usemtl M_0128_White
f 66/138/10 73/136/10 74/137/10

usemtl _Color_D03_2
vt -111.086 1.30401e-012
f 66/138/9 73/136/9 65/139/9

usemtl M_0128_White
f 65/139/10 73/136/10 66/138/10

usemtl _Color_D03_2
f 73/136/9 59/133/9 65/139/9

v 25.1319 2.96012 -27.5434
vt -111.086 108.268
f 75/140/9 59/133/9 73/136/9

f 70/131/9 59/133/9 75/140/9

usemtl M_0128_White
f 59/133/10 68/130/10 70/131/10

f 75/140/10 59/133/10 70/131/10

f 73/136/10 59/133/10 75/140/10

f 65/139/10 59/133/10 73/136/10

usemtl _Color_D03_2
vt -116.84 1.36086e-012
f 65/139/9 59/133/9 64/141/9

usemtl M_0128_White
f 64/141/10 59/133/10 65/139/10

usemtl _Color_D03_2
v 25.1305 0.210119 -27.7034
vt -117.385 1.30401e-012
f 64/141/9 59/133/9 76/142/9

usemtl M_0128_White
f 76/142/10 59/133/10 64/141/10

usemtl _Color_D03_2
vt -117.511 1.30401e-012
f 76/142/9 59/133/9 61/143/9

usemtl M_0128_White
f 61/143/10 59/133/10 76/142/10

usemtl _Tile_Ceramic_Natural_14
vt 17.8231 19.6478
f 61/113/1 64/115/1 76/144/1

usemtl M_0128_White
vt 200.388 119.075
f 76/145/2 64/119/2 61/117/2

usemtl _Tile_Ceramic_Natural_14
vt 17.8371 17.9763
f 66/122/1 67/124/1 74/146/1

usemtl M_0128_White
vt 201.168 26.2911
f 74/147/2 67/125/2 66/123/2

usemtl _Tile_Ceramic_Natural_14
vt 17.8372 17.9741
f 74/146/1 67/124/1 72/148/1

usemtl M_0128_White
vt 201.169 26.1649
f 72/149/2 67/125/2 74/147/2

f 70/131/10 67/132/10 71/134/10

f 69/129/3 63/126/3 68/127/3

usemtl _Color_D03_2
v 24.8341 0.210119 -24.8978
vt -7.03085 9.45541e-013
vt -13.5744 9.73962e-013
f 77/150/5 69/130/5 63/151/5

v 24.8356 0.210119 -24.719
vt 0.00831532 9.17119e-013
f 78/152/5 69/130/5 77/150/5

v 24.8356 3.81012 -24.719
vt 0.00831532 141.732
f 69/130/5 78/152/5 79/153/5

usemtl M_0128_White
f 79/153/6 78/152/6 69/130/6

usemtl _Color_D03_2
v 20.0658 0.210119 -24.6789
vt -0.988506 9.09532e-013
vt -188.784 3.72941e-017
f 80/154/4 79/129/4 78/155/4

v 20.0658 3.81012 -24.6789
vt -0.988506 141.732
f 79/129/4 80/154/4 81/156/4

usemtl M_0128_White
f 78/155/3 79/129/3 80/154/3

f 81/156/3 80/154/3 79/129/3

usemtl _Color_D03_2
vt -0.00831532 9.14297e-013
v 20.0492 3.81012 -26.6538
vt 77.7476 141.732
vt -0.00831532 141.732
f 80/157/6 82/158/6 81/159/6

v 20.0643 0.210119 -24.8576
vt 7.03085 1.15588e-012
f 82/158/6 80/157/6 83/160/6

usemtl M_0128_White
f 81/159/5 82/158/5 80/157/5

f 83/160/5 80/157/5 82/158/5

usemtl _Tile_Ceramic_Natural_14
vt 14.23 17.6295
vt 14.2311 17.5027
f 60/114/1 83/161/1 80/162/1

v 20.0492 0.210119 -26.6538
vt 14.2193 18.9034
f 60/114/1 84/163/1 83/161/1

v 20.0492 0.210119 -26.6568
vt 14.2193 18.9055
f 60/114/1 85/164/1 84/163/1

v 20.0489 0.210119 -26.6938
vt 14.219 18.9318
f 60/114/1 86/165/1 85/164/1

v 20.0435 0.210119 -27.3364
vt 14.2152 19.3875
f 60/114/1 87/166/1 86/165/1

v 20.0415 0.210119 -27.5638
vt 14.2139 19.5488
f 60/114/1 88/167/1 87/166/1

v 20.0412 0.210119 -27.6038
vt 14.2136 19.5771
f 60/114/1 89/168/1 88/167/1

vt 14.2133 19.6197
f 89/168/1 60/114/1 62/169/1

usemtl M_0128_White
vt -8.13976e-027 117.516
vt 0.0198702 115.153
f 62/170/2 60/116/2 89/171/2

f 62/111/4 59/108/4 60/109/4

usemtl _Color_D03_2
v 20.0407 3.81012 -27.6638
vt 0.988506 141.732
f 62/111/3 59/108/3 90/172/3

usemtl M_0128_White
f 90/172/4 59/108/4 62/111/4

vt 0.033117 113.579
f 88/173/2 89/171/2 60/116/2

vt 0.108428 104.626
f 87/174/2 88/173/2 60/116/2

vt 0.321234 79.3279
f 86/175/2 87/174/2 60/116/2

vt 0.333488 77.8713
f 85/176/2 86/175/2 60/116/2

vt 0.334481 77.7532
f 84/177/2 85/176/2 60/116/2

vt 0.92933 7.03892
f 83/178/2 84/177/2 60/116/2

usemtl _Color_D03_2
vt 77.7476 1.43299e-012
f 82/158/6 83/160/6 84/179/6

usemtl M_0128_White
f 84/179/5 83/160/5 82/158/5

vt 0.988541 1.43245e-011
f 80/180/2 83/178/2 60/116/2

usemtl _Tile_Ceramic_Natural_14
vt 17.6139 17.5312
f 60/114/1 80/162/1 78/181/1

usemtl M_0128_White
vt 188.777 1.57968
f 78/182/2 80/180/2 60/116/2

usemtl _Tile_Ceramic_Natural_14
vt 17.6129 17.658
f 60/114/1 78/181/1 77/183/1

usemtl M_0128_White
vt 188.718 8.6186
f 77/184/2 78/182/2 60/116/2

f 77/150/6 69/130/6 78/152/6

f 63/151/6 69/130/6 77/150/6

usemtl _Tile_Ceramic_Natural_14
f 60/114/1 77/183/1 63/112/1

usemtl M_0128_White
f 63/118/2 77/184/2 60/116/2

g Mesh8 DES009 Model

l 61 59

l 61 60

l 61 76

l 76 64

l 64 65

l 65 66

l 74 66

l 72 74

l 67 72

l 67 68

l 67 63

l 63 69

l 63 77

l 77 78

l 78 79

l 80 78

l 80 81

l 83 80

l 84 83

l 84 82

l 85 84

l 86 85

l 87 86

l 88 87

l 89 88

l 62 89

l 62 90

l 60 62

l 59 90

l 59 68

l 68 69

l 69 79

l 81 79

l 81 82

g Mesh9 DES009 Model

l 75 70

l 73 75

l 71 73

l 71 70

g Mesh10 Model

v 145.914 3.3 -184.316
v 145.914 3.33 -184.316
l 91 92

g Mesh11 Model

v 138.951 3.33 -157.425
v 138.951 3.3 -157.425
l 93 94

g Mesh12 Model

v -0.779044 8.56012 -66.7768
v -0.789043 8.56012 -66.7767
l 95 96

