# Alias OBJ Model File
# Exported from SketchUp, (c) 2000-2012 Trimble Navigation Limited
# File units = meters

mtllib DES038.mtl

g Mesh1 ventana2_1 DES038 Model

usemtl Color_000
v 0.893553 1.53173 -15.3559
vt 1.37598 26.4413
vn -0.999965 4.85804e-015 0.00841171
v 0.893377 1.41273 -15.3769
vt 0.549204 21.7563
v 0.893553 1.41273 -15.3559
vt 1.37598 21.7563
f 1/1/1 2/2/1 3/3/1

v 0.893377 1.53173 -15.3769
vt 0.549204 26.4413
f 2/2/1 1/1/1 4/4/1

vn 0.999965 -4.85804e-015 -0.00841171
f 3/3/2 2/2/2 1/1/2

v 0.893259 1.41012 -15.3908
vt 0 21.6535
f 2/2/1 5/5/1 3/3/1

v 0.893259 2.26012 -15.3908
vt 0 55.1181
f 5/5/1 2/2/1 6/6/1

f 6/6/2 2/2/2 5/5/2

f 6/6/1 2/2/1 4/4/1

f 4/4/2 2/2/2 6/6/2

f 4/4/2 1/1/2 2/2/2

v 0.89368 2.21012 -15.3408
vt 1.9685 53.1496
f 1/1/1 7/7/1 4/4/1

f 3/3/1 7/7/1 1/1/1

v 0.89368 0.910119 -15.3408
vt 1.9685 1.9685
f 3/3/1 8/8/1 7/7/1

f 5/5/1 8/8/1 3/3/1

v 0.893259 0.860119 -15.3908
vt 0 0
f 9/9/1 8/8/1 5/5/1

v 0.902512 0.910119 -14.2909
vt 43.3071 1.9685
f 8/8/1 9/9/1 10/10/1

f 5/5/2 8/8/2 9/9/2

f 3/3/2 8/8/2 5/5/2

f 7/7/2 8/8/2 3/3/2

usemtl M_0128_White
v 0.943678 0.910119 -15.3413
vn 0.00841171 -4.48499e-015 0.999965
vt 4.54747e-013 53.1496
vt 4.54747e-013 1.9685
f 11/8/3 7/11/3 8/12/3

v 0.943678 2.21012 -15.3413
f 7/11/3 11/8/3 12/7/3

usemtl Color_000
vn -0.00841171 4.48499e-015 -0.999965
f 8/12/4 7/11/4 11/8/4

f 12/7/4 11/8/4 7/11/4

v 0.943258 2.26012 -15.3913
vt 9.09495e-013 55.1181
f 13/13/1 11/8/1 12/7/1

v 0.943258 0.860119 -15.3913
vt 9.09495e-013 0
f 14/14/1 11/8/1 13/13/1

v 0.95251 0.910119 -14.2913
f 11/8/1 14/14/1 15/10/1

usemtl M_0128_White
f 13/13/2 11/8/2 14/14/2

f 12/7/2 11/8/2 13/13/2

usemtl Translucent_Glass_Blue
vn -0.999965 8.40825e-015 0.00841171
v 0.95251 2.21012 -14.2913
vt 43.3071 53.1496
f 11/8/5 16/15/5 12/7/5

f 16/15/5 11/8/5 15/10/5

vn 0.999965 -8.40825e-015 -0.00841171
f 15/10/6 11/8/6 16/15/6

usemtl M_0128_White
vn 4.89672e-015 1 4.57825e-015
vt 43.3071 4.54747e-013
f 11/8/7 10/16/7 15/10/7

vt 1.9685 4.54747e-013
f 10/16/7 11/8/7 8/17/7

usemtl Color_000
vn -4.89672e-015 -1 -4.57825e-015
f 8/17/8 11/8/8 10/16/8

f 15/10/8 10/16/8 11/8/8

usemtl M_0128_White
vt -4.54747e-013 1.9685
vt -1.9685 53.1496
vt -1.9685 1.9685
f 10/18/4 16/19/4 15/20/4

v 0.902512 2.21012 -14.2909
vt -4.54747e-013 53.1496
f 16/19/4 10/18/4 17/21/4

usemtl Color_000
f 17/21/3 10/18/3 16/19/3

v 0.902933 0.910119 -14.2409
vt 45.2756 1.9685
f 10/10/1 18/22/1 17/15/1

f 9/9/1 18/22/1 10/10/1

v 0.902933 0.860119 -14.2409
vt 45.2756 0
f 18/22/1 9/9/1 19/23/1

f 19/23/2 9/9/2 18/22/2

vt -9.09495e-013 1.9685
vn -4.89559e-015 -1 -4.44397e-015
vt -45.2756 4.54747e-013
f 14/24/9 19/25/9 9/9/9

v 0.952931 0.860119 -14.2413
vt -45.2756 1.9685
f 19/25/9 14/24/9 20/26/9

vn 4.89559e-015 1 4.44397e-015
f 9/9/10 19/25/10 14/24/10

f 20/26/10 14/24/10 19/25/10

v 0.952931 0.910119 -14.2413
f 21/22/1 14/14/1 20/23/1

f 14/14/1 21/22/1 15/10/1

usemtl M_0128_White
f 20/23/2 14/14/2 21/22/2

f 15/10/2 21/22/2 14/14/2

usemtl Color_000
f 15/10/1 21/22/1 16/15/1

usemtl M_0128_White
f 16/15/2 21/22/2 15/10/2

usemtl Color_000
v 0.952931 2.21012 -14.2413
vt 45.2756 53.1496
f 16/15/1 21/22/1 22/27/1

usemtl M_0128_White
f 22/27/2 21/22/2 16/15/2

f 22/7/3 18/12/3 21/8/3

v 0.902933 2.21012 -14.2409
vt 5.24223e-030 53.1496
f 18/12/3 22/7/3 23/28/3

usemtl Color_000
f 23/28/4 22/7/4 18/12/4

usemtl M_0128_White
v 0.911344 2.21012 -13.2409
vt -84.6457 0
vt -45.2756 0
f 22/26/9 24/29/9 23/30/9

v 0.960342 2.21012 -13.3603
vt -79.9606 1.9685
f 24/29/9 22/26/9 25/31/9

usemtl Color_000
f 23/30/10 24/29/10 22/26/10

vt 84.6457 53.1496
v 0.911765 2.26012 -13.1909
vt 86.6142 55.1181
f 24/32/1 26/33/1 23/27/1

v 0.911462 1.53173 -13.227
vt 85.1949 26.4413
f 27/34/1 26/33/1 24/32/1

v 0.911638 1.53173 -13.206
vt 86.0216 26.4413
f 28/35/1 26/33/1 27/34/1

v 0.911638 1.41273 -13.206
vt 86.0216 21.7563
f 29/36/1 26/33/1 28/35/1

v 0.911765 0.860119 -13.1909
vt 86.6142 0
f 29/36/1 30/37/1 26/33/1

v 0.911344 0.910119 -13.2409
vt 84.6457 1.9685
f 31/38/1 30/37/1 29/36/1

f 30/37/1 31/38/1 19/23/1

f 19/23/2 31/38/2 30/37/2

f 18/22/1 19/23/1 31/38/1

vt -4.54747e-013 0
f 21/20/4 19/39/4 18/18/4

vt -1.9685 0
f 19/39/4 21/20/4 20/40/4

f 18/18/3 19/39/3 21/20/3

f 31/38/2 19/23/2 18/22/2

usemtl M_0128_White
vt 84.6457 1.94109e-031
vn 4.89488e-015 1 4.35937e-015
vt 45.2756 4.54747e-013
f 31/41/11 21/22/11 18/42/11

v 0.961343 0.910119 -13.2413
f 21/22/11 31/41/11 32/38/11

usemtl Color_000
vn -4.89488e-015 -1 -4.35937e-015
f 18/42/12 21/22/12 31/41/12

f 21/8/4 18/12/4 22/7/4

usemtl Translucent_Glass_Blue
vn -0.999965 1.40645e-014 0.00841171
vt 79.9606 53.1496
f 21/22/13 25/43/13 22/27/13

v 0.961343 2.21012 -13.2413
f 21/22/13 33/32/13 25/43/13

f 33/32/13 21/22/13 32/38/13

vn 0.999965 -1.40645e-014 -0.00841171
f 32/38/14 21/22/14 33/32/14

usemtl Color_000
f 32/38/12 31/41/12 21/22/12

usemtl M_0128_White
vt -9.80069e-030 1.9685
f 31/44/4 33/19/4 32/20/4

vt -9.80069e-030 53.1496
f 33/19/4 31/44/4 24/45/4

usemtl Color_000
f 24/45/3 31/44/3 33/19/3

v 0.911462 1.41273 -13.227
vt 85.1949 21.7563
f 31/38/1 34/46/1 24/32/1

f 34/46/1 31/38/1 29/36/1

f 24/32/2 34/46/2 31/38/2

f 24/32/1 34/46/1 27/34/1

f 27/34/2 34/46/2 24/32/2

f 34/46/1 28/35/1 27/34/1

f 28/35/1 34/46/1 29/36/1

f 29/36/2 34/46/2 28/35/2

f 29/36/2 31/38/2 34/46/2

f 29/36/2 30/37/2 31/38/2

f 26/33/2 30/37/2 29/36/2

v 0.961763 0.860119 -13.1913
vt 1.9685 0
vt 1.36424e-012 55.1181
vt 1.36424e-012 0
f 35/47/3 26/48/3 30/49/3

v 0.961763 2.26012 -13.1913
vt 1.9685 55.1181
f 26/48/3 35/47/3 36/50/3

f 30/49/4 26/48/4 35/47/4

f 36/50/4 35/47/4 26/48/4

f 32/38/1 35/37/1 36/33/1

f 35/37/1 32/38/1 20/23/1

usemtl M_0128_White
f 20/23/2 32/38/2 35/37/2

usemtl Color_000
f 21/22/1 20/23/1 32/38/1

f 20/40/3 21/20/3 19/39/3

usemtl M_0128_White
f 32/38/2 20/23/2 21/22/2

usemtl Color_000
vt -86.6142 1.9685
f 35/51/9 19/25/9 20/26/9

vt -86.6142 1.36424e-012
f 19/25/9 35/51/9 30/52/9

f 20/26/10 19/25/10 35/51/10

f 30/52/10 35/51/10 19/25/10

usemtl M_0128_White
f 36/33/2 35/37/2 32/38/2

usemtl Color_000
f 32/38/1 36/33/1 33/32/1

usemtl M_0128_White
f 33/32/2 36/33/2 32/38/2

usemtl Color_000
f 33/32/1 36/33/1 25/43/1

usemtl M_0128_White
f 25/43/2 36/33/2 33/32/2

usemtl Color_000
f 25/43/1 36/33/1 22/27/1

usemtl M_0128_White
f 22/27/2 36/33/2 25/43/2

usemtl Color_000
v 0.952931 2.26012 -14.2413
vt 45.2756 55.1181
f 22/27/1 36/33/1 37/53/1

usemtl M_0128_White
f 37/53/2 36/33/2 22/27/2

usemtl Color_000
vt 86.6142 1.36424e-012
vt 86.6142 1.9685
f 37/22/10 26/54/10 36/55/10

v 0.902933 2.26012 -14.2409
f 26/54/10 37/22/10 38/23/10

f 38/23/9 37/22/9 26/54/9

vt -1.9685 55.1181
vt -5.24223e-030 53.1496
vt -5.24223e-030 55.1181
f 37/56/4 23/57/4 38/58/4

f 23/57/4 37/56/4 22/19/4

f 38/58/3 23/57/3 37/56/3

f 17/15/1 23/27/1 38/53/1

f 17/15/1 18/22/1 23/27/1

f 17/15/2 18/22/2 10/10/2

f 23/27/2 18/22/2 17/15/2

f 38/53/2 23/27/2 17/15/2

f 23/27/1 26/33/1 38/53/1

f 23/27/2 26/33/2 24/32/2

f 38/53/2 26/33/2 23/27/2

f 24/32/2 26/33/2 27/34/2

f 27/34/2 26/33/2 28/35/2

f 28/35/2 26/33/2 29/36/2

f 27/34/2 28/35/2 34/46/2

f 17/15/1 38/53/1 7/7/1

f 7/7/2 38/53/2 17/15/2

f 6/6/1 7/7/1 38/53/1

f 6/6/1 4/4/1 7/7/1

f 7/7/2 4/4/2 6/6/2

f 4/4/2 7/7/2 1/1/2

f 1/1/2 7/7/2 3/3/2

f 38/53/2 7/7/2 6/6/2

v 0.902512 2.26012 -14.2909
vt 43.3071 55.1181
f 6/6/1 38/53/1 39/59/1

f 39/59/2 38/53/2 6/6/2

f 37/22/10 39/16/10 38/23/10

v 0.95251 2.26012 -14.2913
f 39/16/10 37/22/10 40/10/10

f 40/10/9 37/22/9 39/16/9

f 13/13/1 37/53/1 40/59/1

f 13/13/1 12/7/1 37/53/1

usemtl M_0128_White
f 37/53/2 12/7/2 13/13/2

usemtl Color_000
v 0.952283 2.21012 -14.3183
vt 42.2441 53.1496
f 41/60/1 37/53/1 12/7/1

f 16/15/1 37/53/1 41/60/1

f 16/15/1 22/27/1 37/53/1

usemtl M_0128_White
f 37/53/2 22/27/2 16/15/2

usemtl Color_000
f 22/19/3 37/56/3 23/57/3

usemtl M_0128_White
f 41/60/2 37/53/2 16/15/2

f 12/7/2 37/53/2 41/60/2

vt -43.3071 4.54747e-013
vt -42.2441 1.9685
f 17/61/9 12/20/9 41/62/9

vt -1.9685 4.54747e-013
f 12/20/9 17/61/9 7/63/9

usemtl Color_000
f 7/63/10 17/61/10 12/20/10

f 41/62/10 12/20/10 17/61/10

usemtl Translucent_Glass_Blue
f 12/7/5 16/15/5 41/60/5

f 12/7/6 16/15/6 11/8/6

f 41/60/6 16/15/6 12/7/6

usemtl M_0128_White
vt -43.3071 1.9685
f 17/61/9 41/62/9 16/64/9

usemtl Color_000
f 16/64/10 41/62/10 17/61/10

usemtl M_0128_White
f 40/59/2 37/53/2 13/13/2

usemtl Color_000
vt 9.09495e-013 1.9685
f 13/65/10 39/16/10 40/10/10

f 39/16/10 13/65/10 6/9/10

f 6/9/9 13/65/9 39/16/9

f 13/56/4 5/5/4 6/6/4

f 5/5/4 13/56/4 9/9/4

f 6/6/3 5/5/3 13/56/3

f 9/9/3 13/56/3 5/5/3

f 9/9/4 13/56/4 14/40/4

f 14/40/3 13/56/3 9/9/3

f 40/10/9 39/16/9 13/65/9

f 38/23/9 39/16/9 37/22/9

f 10/10/2 18/22/2 9/9/2

f 10/10/2 9/9/2 8/8/2

f 36/55/9 26/54/9 37/22/9

f 25/31/10 22/26/10 24/29/10

usemtl Translucent_Glass_Blue
f 22/27/14 25/43/14 21/22/14

f 25/43/14 33/32/14 21/22/14

usemtl M_0128_White
vt -84.6457 1.9685
f 24/29/9 25/31/9 33/66/9

usemtl Color_000
f 33/66/10 25/31/10 24/29/10

f 32/20/3 33/19/3 31/44/3

f 15/20/3 16/19/3 10/18/3

usemtl M_0128_White
f 15/10/2 14/14/2 11/8/2

usemtl Color_000
f 3/3/2 5/5/2 2/2/2

g Mesh2 ventana2_1 DES038 Model

l 2 3

l 4 2

l 1 4

l 3 1

g Mesh3 ventana2_1 DES038 Model

l 11 15

l 11 8

l 12 11

l 12 7

l 41 12

l 16 41

l 16 17

l 16 15

l 15 10

l 8 10

l 7 8

l 17 7

l 17 10

g Mesh4 ventana2_1 DES038 Model

l 5 6

l 9 5

l 14 9

l 14 13

l 20 14

l 21 20

l 21 18

l 22 21

l 22 23

l 37 22

l 40 37

l 13 40

l 13 6

l 6 39

l 40 39

l 39 38

l 37 38

l 37 36

l 36 26

l 36 35

l 35 30

l 35 20

l 20 19

l 18 19

l 18 31

l 23 18

l 24 23

l 31 24

l 32 31

l 32 33

l 21 32

l 33 24

l 33 25

l 25 22

l 38 23

l 38 26

l 26 30

l 30 19

l 19 9

g Mesh5 ventana2_1 DES038 Model

l 29 28

l 34 29

l 27 34

l 28 27

g Mesh6 DES038 Model

usemtl _Color_D03_2
v 5.66174 3.21012 -15.591
vt 188.696 118.11
vn 0.00841171 -3.70329e-015 0.999965
v 4.41979 0.210119 -15.5805
vt 139.798 4.39062e-012
v 5.66174 0.210119 -15.591
vt 188.696 9.1837e-014
f 42/67/15 43/68/15 44/69/15

v 0.941912 3.21012 -15.5513
vt 2.86898 118.11
f 45/70/15 43/68/15 42/67/15

v 0.941912 0.210119 -15.5513
vt 2.86898 9.37383e-013
f 46/71/15 43/68/15 45/70/15

v 3.30183 0.210119 -15.5711
vt 95.7824 5.5369e-013
f 47/72/15 43/68/15 46/71/15

v 3.87981 0.210119 -15.576
vt 118.538 4.32897e-013
f 43/68/15 47/72/15 48/73/15

usemtl M_0128_White
vn -0.00841171 3.70329e-015 -0.999965
f 48/73/16 47/72/16 43/68/16

usemtl _Tile_Ceramic_Natural_14
vt 43.1257 23.0196
vn 7.74208e-015 1 -1.47575e-014
v 4.44403 0.210119 -12.6988
vt 45.1695 23.8125
vt 43.1257 23.4295
f 47/74/17 49/75/17 48/76/17

v 1.22614 0.210119 -12.6718
vt 45.1695 21.5302
f 47/74/17 50/77/17 49/75/17

v 1.22369 0.210119 -12.9635
vt 44.9626 21.5302
f 47/74/17 51/78/17 50/77/17

v 0.963698 0.210119 -12.9614
vt 44.9626 21.3458
f 47/74/17 52/79/17 51/78/17

v 0.961763 0.210119 -13.1913
vt 44.7994 21.3458
f 47/74/17 53/80/17 52/79/17

v 0.960306 0.210119 -13.3645
vt 44.6766 21.3458
f 47/74/17 54/81/17 53/80/17

v 0.957221 0.210119 -13.7314
vt 44.4164 21.3458
f 47/74/17 55/82/17 54/81/17

v 0.943258 0.210119 -15.3913
vt 43.2392 21.3458
f 47/74/17 56/83/17 55/82/17

vt 43.1257 21.3458
f 56/83/17 47/74/17 46/84/17

usemtl M_0128_White
vt 1.91545 113.366
vn -7.74208e-015 -1 1.47575e-014
vt 94.8255 114.148
vt 1.96843 107.067
f 46/85/18 47/86/18 56/87/18

f 46/71/16 43/68/16 47/72/16

f 45/70/16 43/68/16 46/71/16

f 42/67/16 43/68/16 45/70/16

f 44/69/16 43/68/16 42/67/16

usemtl _Tile_Ceramic_Natural_14
vt 43.1257 23.8125
vt 43.1257 24.6933
f 43/88/17 49/75/17 44/89/17

f 48/76/17 49/75/17 43/88/17

usemtl M_0128_White
vt 117.581 114.339
vt 139.794 1.0657
f 48/90/18 49/91/18 47/86/18

vt 138.84 114.518
f 43/92/18 49/91/18 48/90/18

vt 187.736 114.929
f 44/93/18 49/91/18 43/92/18

usemtl _Tile_Ceramic_Natural_14
v 5.66259 0.210119 -15.491
vt 43.1966 24.6933
f 44/89/17 49/75/17 57/94/17

usemtl M_0128_White
vt 187.769 110.993
f 57/95/18 49/91/18 44/93/18

usemtl _Tile_Ceramic_Natural_14
v 5.67705 0.210119 -13.7711
vt 44.4164 24.6933
f 57/94/17 49/75/17 58/96/17

usemtl M_0128_White
vt 188.338 43.2805
f 58/97/18 49/91/18 57/95/18

usemtl _Tile_Ceramic_Natural_14
v 5.68599 0.210119 -12.7093
vt 45.1695 24.6933
f 58/96/17 49/75/17 59/98/17

usemtl M_0128_White
vt 188.69 1.47702
f 59/99/18 49/91/18 58/97/18

usemtl _Color_D03_2
v 5.68599 3.21012 -12.7093
vt -188.696 118.11
vn -0.00841171 4.83107e-015 -0.999965
vt -188.696 5.32582e-016
vt -139.798 8.8539e-012
f 60/100/19 59/101/19 49/102/19

usemtl M_0128_White
vn 0.00841171 -4.83107e-015 0.999965
f 49/102/20 59/101/20 60/100/20

usemtl _Color_D03_2
vt 0.110241 118.11
vn -0.999965 9.09923e-015 0.00841171
v 5.67024 3.14012 -14.581
vt -73.5825 115.354
vt 0.110241 1.71699e-012
f 60/103/21 61/104/21 59/105/21

vt -113.346 118.11
f 61/104/21 60/103/21 42/106/21

usemtl M_0128_White
vn 0.999965 -9.09923e-015 -0.00841171
f 59/105/22 61/104/22 60/103/22

usemtl _Color_D03_2
vt -41.6948 1.88041e-012
f 59/105/21 61/104/21 58/107/21

usemtl M_0128_White
f 58/107/22 61/104/22 59/105/22

usemtl _Color_D03_2
v 5.67024 0.210119 -14.581
vt -73.5825 1.9941e-012
f 62/108/21 58/107/21 61/104/21

usemtl M_0128_White
f 61/104/22 58/107/22 62/108/22

usemtl _Tile_Ceramic_Natural_14
vt 43.842 24.6933
f 57/94/17 58/96/17 62/109/17

usemtl M_0128_White
vt 188.07 75.1671
f 62/110/18 58/97/18 57/95/18

usemtl _Tile_Ceramic_Natural_14
v 5.66288 0.210119 -15.456
vt 43.2214 24.6933
f 57/94/17 62/109/17 63/111/17

usemtl M_0128_White
vt 187.78 109.615
f 63/112/18 62/110/18 57/95/18

usemtl _Tile_Ceramic_Natural_14
v 5.6699 0.210119 -14.621
vt 43.8136 24.6933
f 63/111/17 62/109/17 64/113/17

usemtl M_0128_White
vt 188.057 76.7419
f 64/114/18 62/110/18 63/112/18

f 42/106/22 60/103/22 61/104/22

usemtl _Color_D03_2
v 5.66225 3.14012 -15.531
vt -110.984 115.354
f 61/104/21 42/106/21 65/115/21

usemtl M_0128_White
f 65/115/22 42/106/22 61/104/22

usemtl _Color_D03_2
v 5.66225 0.210119 -15.531
vt -110.984 2.17173e-012
f 65/115/21 42/106/21 66/116/21

usemtl M_0128_White
f 66/116/22 42/106/22 65/115/22

usemtl _Color_D03_2
vt -113.346 2.22858e-012
f 66/116/21 42/106/21 44/117/21

usemtl M_0128_White
f 44/117/22 42/106/22 66/116/22

usemtl _Tile_Ceramic_Natural_14
vt 43.1682 24.6933
f 44/89/17 57/94/17 66/118/17

usemtl M_0128_White
vt 187.756 112.567
f 66/119/18 57/95/18 44/93/18

usemtl _Color_D03_2
v 1.22614 3.21012 -12.6718
vt -13.1052 118.11
f 49/102/19 67/120/19 60/100/19

vt -13.1052 4.5528e-013
f 67/120/19 49/102/19 50/121/19

usemtl M_0128_White
f 50/121/20 49/102/20 67/120/20

vt 13.1057 2.13731e-011
f 49/91/18 50/122/18 47/86/18

vt 13.009 11.4876
f 50/122/18 51/123/18 47/86/18

usemtl _Color_D03_2
v 1.22369 3.21012 -12.9635
vt 11.3777 118.11
vt -0.110241 5.18413e-013
vt 11.3777 9.7316e-013
f 68/124/2 50/125/2 51/126/2

vt -0.110241 118.11
f 50/125/2 68/124/2 67/127/2

usemtl M_0128_White
f 67/127/1 68/124/1 50/125/1

f 51/126/1 50/125/1 68/124/1

usemtl _Color_D03_2
vt -13.1052 8.58466e-013
v 0.963698 3.21012 -12.9614
vt -2.86898 118.11
f 51/128/4 69/129/4 68/120/4

vt -2.86898 8.5136e-013
f 69/129/4 51/128/4 52/130/4

usemtl M_0128_White
f 52/130/3 51/128/3 69/129/3

vt 2.77318 11.4015
f 51/123/18 52/131/18 47/86/18

vt 2.69701 20.4563
f 52/131/18 53/132/18 47/86/18

usemtl _Color_D03_2
vt 20.4329 6.39215e-013
v 0.961763 0.860119 -13.1913
vt 20.4329 25.5906
vt 11.3777 9.16327e-013
f 53/133/2 70/134/2 52/135/2

v 0.943258 0.860119 -15.3913
vt 107.047 25.5906
f 70/134/2 53/133/2 71/136/2

usemtl M_0128_White
f 52/135/1 70/134/1 53/133/1

usemtl _Color_D03_2
v 0.961763 2.26012 -13.1913
vt 20.4329 80.7087
f 72/137/2 52/135/2 70/134/2

f 72/137/2 69/124/2 52/135/2

vt 113.346 118.11
f 69/124/2 72/137/2 45/138/2

usemtl M_0128_White
f 45/138/1 72/137/1 69/124/1

usemtl _Color_D03_2
v 0.943258 2.26012 -15.3913
vt 107.047 80.7087
f 45/138/2 72/137/2 73/139/2

usemtl M_0128_White
f 73/139/1 72/137/1 45/138/1

usemtl _Color_D03_2
f 45/138/2 73/139/2 71/136/2

usemtl M_0128_White
f 71/136/1 73/139/1 45/138/1

usemtl _Color_D03_2
vt 107.047 1.37107e-012
f 45/138/2 71/136/2 56/140/2

usemtl M_0128_White
f 56/140/1 71/136/1 45/138/1

usemtl _Color_D03_2
vt 41.6948 1.02291e-012
f 71/136/2 55/141/2 56/140/2

vt 27.252 1.57667e-011
f 71/136/2 54/142/2 55/141/2

f 71/136/2 53/133/2 54/142/2

usemtl M_0128_White
f 71/136/1 53/133/1 70/134/1

f 54/142/1 53/133/1 71/136/1

vt 2.63965 27.2751
f 53/132/18 54/143/18 47/86/18

vt 2.51816 41.7174
f 54/143/18 55/144/18 47/86/18

f 55/141/1 54/142/1 71/136/1

f 56/140/1 55/141/1 71/136/1

f 55/144/18 56/87/18 47/86/18

usemtl _Color_D03_2
vt 113.346 1.37107e-012
f 45/138/2 56/140/2 46/145/2

usemtl M_0128_White
f 46/145/1 56/140/1 45/138/1

f 52/135/1 69/124/1 72/137/1

f 70/134/1 52/135/1 72/137/1

f 68/120/3 69/129/3 51/128/3

f 60/100/20 67/120/20 49/102/20

g Mesh7 DES038 Model

l 46 45

l 47 46

l 48 47

l 43 48

l 44 43

l 44 42

l 66 44

l 66 65

l 66 57

l 57 63

l 63 64

l 64 62

l 62 61

l 58 62

l 59 58

l 59 60

l 59 49

l 49 50

l 50 67

l 50 51

l 51 68

l 51 52

l 52 69

l 52 53

l 54 53

l 55 54

l 56 55

l 46 56

l 68 69

l 67 68

l 60 67

l 60 42

l 42 45

l 45 69

l 61 65

g Mesh8 DES038 Model

l 73 72

l 71 73

l 71 70

l 70 72

g Mesh9 Model

v 145.914 3.3 -184.316
v 145.914 3.33 -184.316
l 74 75

g Mesh10 Model

v 138.951 3.33 -157.425
v 138.951 3.3 -157.425
l 76 77

g Mesh11 Model

v -0.779044 8.56012 -66.7768
v -0.789043 8.56012 -66.7767
l 78 79

