# Alias OBJ Model File
# Exported from SketchUp, (c) 2000-2012 Trimble Navigation Limited
# File units = meters

mtllib LAB005.mtl

g Mesh1 LAB005 Model

usemtl Color_D03
v 4.07807 3.003 -11.9038
vt 5.10475 118.228
vn 0.130085 7.0689e-017 -0.991503
v 4.21357 0 -11.886
vt -0.275681 -2.75039e-015
v 4.07807 0 -11.9038
vt 5.10475 -2.75039e-015
f 1/1/1 2/2/1 3/3/1

v 4.21357 2.028 -11.886
vt -0.275681 79.8425
f 2/2/1 1/1/1 4/4/1

usemtl BackColor
vn -0.130085 -7.0689e-017 0.991503
f 3/3/2 2/2/2 1/1/2

usemtl _Tile_Ceramic_Natural_14
vt 9.56928 5.44056
vn 0 1 -0
v 4.47815 0 -16.6992
vt 9.75693 8.85414
vt 9.47318 5.45317
f 2/5/3 5/6/3 3/7/3

v 5.57856 0 -11.707
vt 10.5374 5.31355
f 5/6/3 2/5/3 6/8/3

usemtl BackColor
vt 0 39.2417
vn -0 -1 0
vt 15.7514 228.036
vt 5.33471 38.5418
f 3/9/4 5/10/4 2/11/4

usemtl Color_D03
vt 228.556 -1.43294e-016
vn 0.996538 -4.39195e-017 0.0831425
vt 39.1058 118.228
vt 39.1058 -1.43294e-016
f 5/12/5 1/13/5 3/14/5

v 4.15772 3.003 -12.8586
vt 76.8245 118.228
f 1/13/5 5/12/5 7/15/5

usemtl BackColor
vn -0.996538 4.39195e-017 -0.0831425
f 3/14/6 1/13/6 5/12/6

f 7/15/6 5/12/6 1/13/6

usemtl Color_D03
v 4.47815 3.003 -16.6992
vt 228.556 118.228
f 7/15/5 5/12/5 8/16/5

usemtl BackColor
f 8/16/6 5/12/6 7/15/6

usemtl Color_D03
vt 15.7514 0
vn 0 0 1
v 11.6752 3.003 -16.6992
vt 299.099 118.228
vt 15.7514 118.228
f 5/17/7 9/18/7 8/19/7

v 11.6752 0 -16.6992
vt 299.099 0
f 9/18/7 5/17/7 10/20/7

usemtl BackColor
vn -0 -0 -1
f 10/20/8 5/17/8 9/18/8

usemtl _Tile_Ceramic_Natural_14
vt 14.8612 8.85414
f 5/6/3 6/8/3 10/21/3

usemtl BackColor
vt 59.0745 31.4912
f 6/22/4 2/11/4 5/10/4

vt 299.099 228.036
f 10/23/4 6/22/4 5/10/4

usemtl _Tile_Ceramic_Natural_14
v 11.6752 0 -10.9071
vt 14.8612 4.74626
f 10/21/3 6/8/3 11/24/3

usemtl BackColor
f 11/20/4 6/22/4 10/23/4

usemtl Color_D03
v 5.57856 2.028 -11.707
vt -54.476 79.8425
vt -296.558 -2.75039e-015
vt -54.476 -2.75039e-015
f 12/25/1 11/26/1 6/27/1

v 11.6752 3.003 -10.9071
vt -296.558 118.228
f 11/26/1 12/25/1 13/28/1

usemtl BackColor
f 6/27/2 11/26/2 12/25/2

f 13/28/2 12/25/2 11/26/2

usemtl Color_D03
f 13/28/1 12/25/1 1/1/1

usemtl BackColor
f 1/1/2 12/25/2 13/28/2

usemtl Color_D03
f 4/4/1 1/1/1 12/25/1

usemtl BackColor
f 4/4/2 1/1/2 2/2/2

f 12/25/2 1/1/2 4/4/2

usemtl Color_D03
vt -228.036 118.228
vn -1 0 -0
vt 0 0
vt 0 118.228
f 9/29/9 11/30/9 13/31/9

vt -228.036 0
f 11/30/9 9/29/9 10/32/9

usemtl BackColor
vn 1 -0 0
f 13/31/10 11/30/10 9/29/10

f 10/32/10 9/29/10 11/30/10

f 8/19/8 9/18/8 5/17/8

g Mesh2 LAB005 Model

l 11 6

l 11 13

l 10 11

l 5 10

l 3 5

l 2 3

l 2 4

l 2 6

l 12 6

l 4 12

l 3 1

l 1 13

l 7 1

l 7 8

l 9 8

l 13 9

l 10 9

l 5 8

