# Alias OBJ Model File
# Exported from SketchUp, (c) 2000-2012 Trimble Navigation Limited
# File units = meters

mtllib CUA003.mtl

g Mesh1 CUA003 Model

usemtl _7
v 18.0624 -0.0592488 -7.36945
vt 5.86934 -0.01217
vn -0.0113292 1.07798e-017 0.999936
v 18.0449 -0.309249 -7.36965
vt 5.86362 -0.063521
v 18.0624 -0.309249 -7.36945
vt 5.86934 -0.063521
f 1/1/1 2/2/1 3/3/1

v 18.0449 2.44075 -7.36965
vt 5.86362 0.501341
f 2/2/1 1/1/1 4/4/1

vn 0.0113292 -1.07798e-017 -0.999936
f 3/3/2 2/2/2 1/1/2

f 4/4/2 1/1/2 2/2/2

v 18.0624 2.94075 -7.36945
vt 5.86934 0.604043
f 4/4/1 1/1/1 5/5/1

f 5/5/2 1/1/2 4/4/2

v 18.063 -0.0592488 -7.41945
vt 2.48894 -0.01217
vn 0.999936 -7.17656e-016 0.0113292
vt 2.47261 0.604043
vt 2.47261 -0.01217
f 6/6/3 5/7/3 1/8/3

v 18.0633 2.94075 -7.44945
vt 2.49873 0.604043
f 5/7/3 6/6/3 7/9/3

vn -0.999936 7.17656e-016 -0.0113292
f 1/8/4 5/7/4 6/6/4

f 7/9/4 6/6/4 5/7/4

v 18.0633 -0.0592488 -7.44945
vt 2.49873 -0.01217
f 7/9/3 6/6/3 8/10/3

f 8/10/4 6/6/4 7/9/4

usemtl _Tile_Ceramic_Natural_15
vt 12.8102 5.22656
vn -9.60283e-014 1 -4.07329e-014
v 19.4624 -0.0592488 -2.94331
vt 13.8031 2.08745
vt 12.8106 5.26202
f 1/11/5 9/12/5 6/13/5

v 18.0396 -0.0592488 -5.35158
vt 12.794 3.79545
f 10/14/5 9/12/5 1/11/5

v 18.0125 -0.0592488 -2.95974
vt 12.7748 2.0991
f 9/12/5 10/14/5 11/15/5

usemtl _7
vt 5.88066 0.607943
vn 9.60283e-014 -1 4.07329e-014
vt 5.88951 1.09924
vt 6.35402 0.604568
f 11/16/6 10/17/6 9/18/6

vt 5.89697 1.51372
f 1/19/6 9/18/6 10/17/6

vt 5.89716 1.52399
f 6/20/6 9/18/6 1/19/6

usemtl _Tile_Ceramic_Natural_15
v 19.5123 -0.0592488 -7.35303
vt 13.8385 5.21491
f 6/13/5 9/12/5 12/21/5

usemtl _7
vt 6.37033 1.51034
f 12/22/6 9/18/6 6/20/6

usemtl _Tile_Ceramic_Natural_15
v 19.4799 -0.0592488 -2.94311
vt 13.8155 2.08731
f 12/21/5 9/12/5 13/23/5

usemtl _7
vt 6.35973 0.604528
f 13/24/6 9/18/6 12/22/6

usemtl _Color_D03_1
vt -57.7639 9.84252
vn 0.0113292 -6.27343e-015 -0.999936
v 17.995 2.94075 -2.95993
vt 0.0116982 127.953
vt -58.4529 9.84252
f 9/25/7 14/26/7 13/27/7

vt -0.677278 9.84252
f 11/28/7 14/26/7 9/25/7

v 18.0125 -0.309249 -2.95974
vt -0.677278 8.18127e-012
f 15/29/7 14/26/7 11/28/7

v 17.995 -0.309249 -2.95993
vt 0.0116982 2.42409e-014
f 14/26/7 15/29/7 16/30/7

usemtl _7
vt -5.86362 -0.063521
vn -0.0113292 6.27343e-015 0.999936
vt -5.86934 -0.063521
vt -5.86362 0.604043
f 16/31/8 15/32/8 14/33/8

vt -5.86934 -0.01217
f 11/34/8 14/33/8 15/32/8

vt -6.34273 -0.01217
f 9/35/8 14/33/8 11/34/8

vt -6.34844 -0.01217
f 13/36/8 14/33/8 9/35/8

usemtl _Color_D03_1
v 20.3098 -0.0592488 -2.93371
vt -91.13 9.84252
f 13/27/7 14/26/7 17/37/7

usemtl _7
vt -6.61942 -0.01217
f 17/38/8 14/33/8 13/36/8

usemtl _Color_D03_1
v 20.3098 2.94075 -2.93371
vt -91.13 127.953
f 17/37/7 14/26/7 18/39/7

usemtl _7
vt -6.61942 0.604043
f 18/40/8 14/33/8 17/38/8

usemtl _Color_D03_1
v 20.3192 2.94075 -3.76365
vt -33.7097 127.953
vn -0.999936 4.62436e-016 -0.0113292
vt -1.0325 9.84252
vt -1.0325 127.953
f 19/41/9 17/42/9 18/43/9

v 20.3192 -0.0592488 -3.76365
vt -33.7097 9.84252
f 17/42/9 19/41/9 20/44/9

usemtl _7
vt -1.03285 0.604043
vn 0.999936 -4.62436e-016 0.0113292
vt -1.03285 -0.01217
vt -1.30382 0.604043
f 18/45/10 17/46/10 19/47/10

vt -1.30382 -0.01217
f 20/48/10 19/47/10 17/46/10

usemtl _Color_D03_1
v 19.4893 2.94075 -3.77306
vt 58.4529 127.953
vn -0.0113292 -4.79067e-017 0.999936
vt 91.13 9.84252
vt 91.13 127.953
f 21/49/11 20/50/11 19/51/11

v 19.4893 -0.0592488 -3.77306
vt 58.4529 9.84252
f 20/50/11 21/49/11 22/52/11

usemtl _7
vt 6.34844 -0.01217
vn 0.0113292 4.79067e-017 -0.999936
vt 6.34844 0.604043
vt 6.61942 -0.01217
f 22/53/12 21/54/12 20/55/12

usemtl _Color_D03_1
v 19.4904 2.94075 -3.87305
vt -37.6467 127.953
f 23/56/9 22/44/9 21/41/9

v 19.4904 -0.0592488 -3.87305
vt -37.6467 9.84252
f 22/44/9 23/56/9 24/57/9

usemtl _7
vt -1.33647 0.604043
f 21/47/10 22/48/10 23/58/10

vt -1.33647 -0.01217
f 24/59/10 23/58/10 22/48/10

usemtl _Color_D03_1
v 20.3203 -0.0592488 -3.86365
vt -58.4529 127.953
f 25/37/12 24/27/12 23/60/12

v 19.5904 -0.0592488 -3.87192
vt -62.3899 9.84252
f 24/27/12 25/37/12 26/61/12

usemtl _7
vt -6.38109 -0.01217
f 26/62/11 25/38/11 24/36/11

usemtl _Tile_Ceramic_Natural_15
v 20.3311 -0.0592488 -4.81359
vt 14.4192 3.41389
vt 13.8939 2.74604
vt 14.4116 2.74018
f 27/63/5 26/64/5 25/65/5

v 19.5012 -0.0592488 -4.82299
vt 13.8306 3.42056
f 28/66/5 26/64/5 27/63/5

vt 13.823 2.74684
f 26/64/5 28/66/5 24/67/5

usemtl _7
vt 6.36317 0.795541
vt 6.36669 0.990663
vt 6.39582 0.795309
f 24/68/6 28/69/6 26/70/6

usemtl _Tile_Ceramic_Natural_15
f 12/21/5 24/67/5 28/66/5

vt 13.8222 2.67593
f 12/21/5 22/71/5 24/67/5

f 12/21/5 13/23/5 22/71/5

usemtl _7
vt 6.3628 0.775002
f 22/72/6 13/24/6 12/22/6

usemtl _Tile_Ceramic_Natural_15
vt 14.4041 2.08064
f 17/73/5 22/71/5 13/23/5

vt 14.4108 2.66926
f 22/71/5 17/73/5 20/74/5

usemtl _7
vt 6.63069 0.602596
f 13/24/6 22/72/6 17/75/6

vt 6.63376 0.773071
f 20/76/6 17/75/6 22/72/6

f 24/68/6 22/72/6 12/22/6

f 28/69/6 24/68/6 12/22/6

usemtl _Tile_Ceramic_Natural_15
v 19.507 -0.0592488 -5.33496
vt 13.8347 3.78366
f 12/21/5 28/66/5 29/77/5

usemtl _7
vt 6.36858 1.09582
f 29/78/6 28/69/6 12/22/6

usemtl _Color_D03_1
vt -75.0482 9.84252
vn -0.999936 -4.80546e-015 -0.0113292
v 19.5298 2.94075 -7.35283
vt -174.655 127.953
vt -95.2057 9.84252
f 28/79/13 30/80/13 29/81/13

v 19.5012 2.94075 -4.82299
vt -75.0482 127.953
f 30/80/13 28/79/13 31/82/13

usemtl _7
vt -1.64663 0.604043
vn 0.999936 4.80546e-015 0.0113292
vt -1.64663 -0.01217
vt -2.47261 0.604043
f 31/83/14 28/84/14 30/85/14

usemtl _Color_D03_1
vn -0.0113292 -8.24509e-015 0.999936
f 27/50/15 31/49/15 28/52/15

v 20.3311 2.94075 -4.81359
f 31/49/15 27/50/15 32/51/15

usemtl _7
vn 0.0113292 8.24509e-015 -0.999936
f 28/53/16 31/54/16 27/55/16

vt 6.61942 0.604043
f 32/86/16 27/55/16 31/54/16

usemtl _Color_D03_1
f 25/57/9 32/82/9 27/79/9

v 20.3203 2.94075 -3.86365
f 32/82/9 25/57/9 33/56/9

usemtl _7
f 33/58/10 25/59/10 32/83/10

usemtl _Color_D03_1
f 25/37/12 23/60/12 33/39/12

usemtl _7
vt -6.34844 0.604043
f 23/87/11 24/36/11 25/38/11

f 33/40/11 23/87/11 25/38/11

f 27/84/10 32/83/10 25/59/10

vt 6.63413 0.79361
vt 6.63765 0.988731
f 25/88/6 26/70/6 27/89/6

f 27/89/6 26/70/6 28/69/6

vt -1.81378 -0.01217
f 29/90/14 30/85/14 28/84/14

usemtl _Color_D03_1
v 19.507 -0.309249 -5.33496
vt -95.2057 3.52406e-012
f 29/81/13 30/80/13 34/91/13

usemtl _7
vt -1.81378 -0.063521
f 34/92/14 30/85/14 29/90/14

usemtl _Color_D03_1
v 19.5298 -0.309249 -7.35283
vt -174.655 -2.80893e-013
f 34/91/13 30/80/13 35/93/13

usemtl _7
vt -2.47261 -0.063521
f 35/94/14 30/85/14 34/92/14

usemtl _Color_D03_1
v 19.5298 2.44075 -7.35283
vt -174.655 108.268
f 35/93/13 30/80/13 36/95/13

usemtl _7
vt -2.47261 0.501341
f 36/96/14 30/85/14 35/94/14

v 19.5123 2.94075 -7.35303
vt 6.34273 0.604043
vn -0.0113292 1.14851e-017 0.999936
vt 6.34844 0.501341
f 37/97/17 36/98/17 30/54/17

vt 6.34273 -0.01217
f 12/99/17 36/98/17 37/97/17

v 19.5298 -0.0592488 -7.35283
f 36/98/17 12/99/17 38/53/17

vn 0.0113292 -1.14851e-017 -0.999936
f 38/53/18 12/99/18 36/98/18

usemtl _Tile_Ceramic_Natural_15
v 19.5135 -0.0592488 -5.33488
vt 13.8393 3.78361
vt 13.8509 5.21477
f 12/21/5 39/100/5 38/101/5

f 39/100/5 12/21/5 29/77/5

usemtl _7
vt 6.3707 1.09581
f 29/78/6 12/22/6 39/102/6

vt 6.37605 1.5103
f 38/103/6 39/102/6 12/22/6

usemtl _Tile_Ceramic_Natural_15
v 19.5363 -0.0592488 -7.35275
vt 13.8556 5.21472
f 38/101/5 39/100/5 40/104/5

usemtl _7
vt 6.37817 1.51029
f 40/105/6 39/102/6 38/103/6

f 37/97/18 36/98/18 12/99/18

f 30/54/18 36/98/18 37/97/18

v 19.5132 2.94075 -7.43302
vt -2.49873 0.604043
vn -0.999936 6.41038e-015 -0.0113292
vt -2.47261 -0.01217
f 41/106/19 12/107/19 37/85/19

v 19.5129 -0.0592488 -7.40302
vt -2.48894 -0.01217
f 12/107/19 41/106/19 42/108/19

vn 0.999936 -6.41038e-015 0.0113292
f 37/85/20 12/107/20 41/106/20

f 42/108/20 41/106/20 12/107/20

v 19.5132 -0.0592488 -7.43302
vt -2.49873 -0.01217
f 42/108/19 41/106/19 43/109/19

f 43/109/20 41/106/20 42/108/20

usemtl _Tile_Ceramic_Natural_15
vt 13.8389 5.25037
f 6/13/5 12/21/5 42/110/5

usemtl _7
vt 6.37052 1.52061
f 42/111/6 12/22/6 6/20/6

usemtl _Color_D03_1
vt -174.655 9.84252
f 35/93/13 36/95/13 38/112/13

usemtl _7
f 38/107/14 36/96/14 35/94/14

f 19/86/12 20/55/12 21/54/12

usemtl _Color_D03_1
vt 174.655 2.8422e-014
vn 0.999936 2.90539e-017 0.0113292
vt 1.0325 127.953
vt 1.0325 1.77639e-014
f 2/113/21 14/114/21 16/115/21

v 18.0449 2.94075 -7.36965
vt 174.655 127.953
f 14/114/21 2/113/21 44/116/21

usemtl _7
vt 1.03285 -0.063521
vn -0.999936 -2.90539e-017 -0.0113292
vt 1.03285 0.604043
vt 2.47261 -0.063521
f 16/117/22 14/118/22 2/119/22

f 44/7/22 2/119/22 14/118/22

usemtl _Color_D03_1
vt 174.655 108.268
f 44/116/21 2/113/21 4/120/21

usemtl _7
vt 2.47261 0.501341
f 4/121/22 2/119/22 44/7/22

vt 5.86362 0.604043
f 4/4/1 5/5/1 44/122/1

f 44/122/2 5/5/2 4/4/2

g Mesh2 CUA003 Model

l 3 2

l 3 1

l 1 5

l 6 1

l 8 6

l 8 7

l 5 7

l 5 44

l 4 44

l 2 4

l 16 2

l 16 14

l 15 16

l 15 11

l 9 11

l 9 13

l 13 17

l 17 18

l 20 17

l 20 19

l 22 20

l 22 21

l 24 22

l 24 23

l 24 26

l 26 25

l 25 33

l 27 25

l 27 32

l 28 27

l 28 31

l 29 28

l 34 29

l 34 35

l 35 38

l 12 38

l 12 37

l 42 12

l 43 42

l 43 41

l 37 41

l 37 30

l 36 30

l 38 36

l 38 40

l 40 39

l 29 39

l 31 30

l 32 31

l 32 33

l 23 33

l 21 23

l 19 21

l 19 18

l 18 14

l 14 44

l 42 6

l 10 11

l 1 10

g Mesh3 Model

v 21.5154 10.5 62.8597
v 21.5454 10.5 62.7436
l 45 46

g Mesh4 Model

v -222.959 3.3 -279.837
v -222.959 3.33 -279.837
l 47 48

g Mesh5 Model

v 35.416 5.65 -204.781
v 33.9777 5.65 -205.153
l 49 50

g Mesh6 Model

v 21.9178 -0.309249 -34.57
v 22.118 -0.309249 -34.5677
l 51 52

