# Alias OBJ Model File
# Exported from SketchUp, (c) 2000-2012 Trimble Navigation Limited
# File units = meters

mtllib CUA038.mtl

g Mesh1 CUA038 Model

usemtl _Color_D03_1
v 8.445 2.94075 -9.83357
vt 0.0159591 118.11
vn 0.0113292 3.73901e-014 -0.999936
v 11.227 -0.0592488 -9.80205
vt -109.521 3.72771e-013
v 8.445 -0.0592488 -9.83357
vt 0.0159591 -5.26666e-014
f 1/1/1 2/2/1 3/3/1

v 11.603 -0.0592488 -9.79779
vt -124.323 5.9748e-013
f 2/2/1 1/1/1 4/4/1

usemtl _7
vt -2.72055 -0.01217
vn -0.0113292 -3.73901e-014 0.999936
vt -3.62888 -0.01217
vt -2.72055 0.604043
f 3/5/2 2/6/2 1/7/2

usemtl _Tile_Ceramic_Natural_15
vt 51.8891 26.6772
vn -4.15282e-015 1 4.89221e-014
v 8.445 -0.0592488 -11.8497
vt 50.4593 24.6878
vt 51.8891 24.704
f 2/8/3 5/9/3 3/10/3

v 11.603 -0.0592488 -11.8497
vt 50.4339 26.9274
f 5/9/3 2/8/3 6/11/3

usemtl _7
vt 2.7571 2.01986
vn 4.15282e-015 -1 -4.89221e-014
vt 2.7571 2.43398
vt 3.66538 2.01338
f 3/12/4 5/13/4 2/14/4

usemtl _Color_D03_1
v 8.445 2.94075 -11.8497
vt 80.7848 118.11
vn 1 -4.81274e-016 -2.62844e-029
vt 1.40866 1.78196e-044
vt 80.7848 4.33475e-012
f 7/15/5 3/16/5 5/17/5

vt 1.40866 118.11
f 3/16/5 7/15/5 1/18/5

usemtl _7
vt 3.21044 0.604043
vn -1 4.81274e-016 2.62844e-029
vt 3.86867 0.604043
vt 3.21044 -0.01217
f 1/19/6 7/20/6 3/21/6

vt 3.86867 -0.01217
f 5/22/6 3/21/6 7/20/6

usemtl _Color_D03_1
vt 0 4.6442e-013
vn 0 -4.79092e-014 1
v 11.603 2.94075 -11.8497
vt 124.331 118.11
vt 5.68434e-014 118.11
f 5/23/7 8/24/7 7/25/7

vt 124.331 4.6442e-013
f 8/24/7 5/23/7 6/26/7

usemtl _7
vt 3.78811 -0.01217
vn -0 4.79092e-014 -1
vt 2.7571 -0.01217
vt 3.78811 0.604043
f 6/27/8 5/28/8 8/29/8

vt 3.78811 2.43398
f 6/30/4 2/14/4 5/13/4

usemtl _Tile_Ceramic_Natural_15
vt 51.8891 26.9439
f 6/11/3 2/8/3 4/31/3

usemtl _7
vt 3.78811 2.01251
f 4/32/4 2/14/4 6/30/4

vt -3.75163 -0.01217
f 4/33/2 1/7/2 2/6/2

usemtl _Color_D03_1
v 11.603 2.94075 -9.79779
vt -124.323 118.11
f 4/4/1 1/1/1 9/34/1

usemtl _7
vt -3.75163 0.604043
f 9/35/2 1/7/2 4/33/2

usemtl _Color_D03_1
vt 2.00094e-015 118.11
vn -1 5.33119e-016 1.60937e-017
v 11.603 2.04375 -10.182
vt -15.126 82.7953
vt -4.88653e-012 7.1643e-013
f 9/36/9 10/37/9 4/38/9

vt -80.7848 118.11
f 10/37/9 9/36/9 8/39/9

usemtl _7
vt -3.19876 -0.01217
vn 1 -5.33119e-016 -1.60937e-017
vt -3.32419 0.419795
vt -3.19876 0.604043
f 4/40/10 10/41/10 9/42/10

usemtl _Color_D03_1
v 11.603 -0.0592488 -10.182
vt -15.126 2.00473e-012
f 11/43/9 4/38/9 10/37/9

usemtl _Tile_Ceramic_Natural_15
vt 51.6166 26.9408
f 6/11/3 4/31/3 11/44/3

usemtl _7
vt 3.78811 2.09142
f 11/45/4 4/32/4 6/30/4

vt -3.32419 -0.01217
f 10/41/10 4/40/10 11/46/10

usemtl _Tile_Ceramic_Natural_15
v 11.603 -0.0592488 -11.119
vt 50.9521 26.9333
f 6/11/3 11/44/3 12/47/3

usemtl _7
vt 3.78811 2.28389
f 12/48/4 11/45/4 6/30/4

usemtl _Color_D03_1
vt -52.0158 3.19045e-012
vt -80.7848 4.40104e-012
f 12/49/9 8/39/9 6/50/9

v 11.603 2.04375 -11.119
vt -52.0158 82.7953
f 13/51/9 8/39/9 12/49/9

f 10/37/9 8/39/9 13/51/9

usemtl _7
vt -3.86867 0.604043
f 8/52/10 9/42/10 10/41/10

vt -3.6301 0.419795
f 13/53/10 8/52/10 10/41/10

vt -3.6301 -0.01217
f 12/54/10 8/52/10 13/53/10

vt -3.86867 -0.01217
f 6/55/10 8/52/10 12/54/10

vt 2.7571 0.604043
f 7/56/8 8/29/8 5/28/8

g Mesh2 CUA038 Model

l 7 8

l 1 7

l 9 1

l 8 9

l 6 8

l 5 6

l 3 5

l 2 3

l 4 2

l 4 9

l 11 4

l 10 11

l 13 10

l 13 12

l 6 12

l 12 11

l 3 1

l 5 7

g Mesh3 Model

v 21.5154 10.5 62.8597
v 21.5454 10.5 62.7436
l 14 15

g Mesh4 Model

v -222.959 3.3 -279.837
v -222.959 3.33 -279.837
l 16 17

g Mesh5 Model

v 35.416 5.65 -204.781
v 33.9777 5.65 -205.153
l 18 19

