# Alias OBJ Model File
# Exported from SketchUp, (c) 2000-2012 Trimble Navigation Limited
# File units = meters

mtllib DES019.mtl

g Mesh1 ventana1_1_1 DES019 Model

usemtl M_0128_White
v 21.1969 2.04075 -75.0533
vt 84.6457 -4.47642e-013
vn 4.61863e-016 1 5.31427e-017
v 23.2962 2.04075 -74.9795
vt 1.9685 1.9685
v 23.2968 2.04075 -75.0295
vt 1.9685 -4.47642e-013
f 1/1/1 2/2/1 3/3/1

v 21.2424 2.04075 -75.0028
vt 82.8346 1.9685
f 2/2/1 1/1/1 4/4/1

usemtl _Color_000_1
vn -4.61863e-016 -1 -5.31427e-017
f 3/3/2 2/2/2 1/1/2

usemtl M_0128_White
vt 1.9685 57.0866
vn -0.999936 4.62436e-016 -0.0113292
v 23.2968 2.64075 -75.0295
vt -4.47642e-013 80.7087
vt -4.47642e-013 57.0866
f 2/5/3 5/6/3 3/7/3

v 23.2962 2.64075 -74.9795
vt 1.9685 80.7087
f 5/6/3 2/5/3 6/8/3

usemtl _Color_000_1
vn 0.999936 -4.62436e-016 0.0113292
f 3/7/4 5/6/4 2/5/4

usemtl Color_000
v 23.3468 2.69075 -75.0289
vt -1.57412e-046 82.6772
vn 0.0113292 4.79067e-017 -0.999936
f 7/9/5 3/5/5 5/8/5

v 23.3468 1.99075 -75.0289
vt -1.57412e-046 55.1181
f 8/10/5 3/5/5 7/9/5

v 21.1469 1.99075 -75.0539
vt 86.6142 55.1181
f 8/10/5 9/11/5 3/5/5

v 22.1969 1.99075 -75.042
vt 45.2756 55.1181
f 9/11/5 8/10/5 10/12/5

usemtl _Color_000_1
vn -0.0113292 -4.79067e-017 0.999936
f 10/12/6 8/10/6 9/11/6

usemtl Color_F17
vt 45.2756 -2.20268e-013
v 23.3462 1.99075 -74.9789
vt 9.09495e-013 1.9685
vt 0 7.10543e-015
f 10/13/1 11/14/1 8/15/1

v 22.1963 1.99075 -74.992
vt 45.2756 1.9685
f 11/14/1 10/13/1 12/16/1

usemtl _Color_000_1
f 8/15/2 11/14/2 10/13/2

usemtl Color_F17
vt -1.9685 55.1181
v 23.3468 1.15075 -75.0289
vt -7.10543e-015 22.0472
vt -7.10543e-015 55.1181
f 11/17/4 13/18/4 8/19/4

v 23.3462 1.15075 -74.9789
vt -1.9685 22.0472
f 13/18/4 11/17/4 14/20/4

usemtl _Color_000_1
f 8/19/3 13/18/3 11/17/3

usemtl Color_000
vt -1.57412e-046 22.0472
v 23.3274 1.2826 -75.0291
vt 0.762775 27.238
f 13/21/5 15/22/5 8/10/5

v 23.3274 1.1476 -75.0291
vt 0.762775 21.923
f 13/21/5 16/23/5 15/22/5

v 23.2968 0.640751 -75.0295
f 13/21/5 17/2/5 16/23/5

v 23.3468 0.590751 -75.0289
vt 0 0
f 18/24/5 17/2/5 13/21/5

v 22.2469 0.640751 -75.0414
vt 43.3071 1.9685
f 18/24/5 19/25/5 17/2/5

v 22.1969 0.640751 -75.042
f 18/24/5 20/16/5 19/25/5

v 22.1969 0.590751 -75.042
vt 45.2756 -3.55271e-015
f 20/16/5 18/24/5 21/26/5

usemtl _Color_000_1
f 21/26/6 18/24/6 20/16/6

usemtl Color_F17
v 23.3462 0.590751 -74.9789
vt -9.09495e-013 1.9685
vt -45.2756 -2.27374e-013
f 22/27/2 21/28/2 18/24/2

v 22.1963 0.590751 -74.992
vt -45.2756 1.9685
f 21/28/2 22/27/2 23/29/2

usemtl _Color_000_1
f 18/24/1 21/28/1 22/27/1

f 23/29/1 22/27/1 21/28/1

usemtl Color_F17
v 22.1963 0.640751 -74.992
vt 9.09495e-013 0
f 24/16/5 22/30/5 23/26/5

v 22.2463 0.640751 -74.9914
f 22/30/5 24/16/5 25/25/5

usemtl Color_000
f 23/26/6 22/30/6 24/16/6

f 25/25/6 24/16/6 22/30/6

usemtl Color_F17
v 22.1963 1.94075 -74.992
vt 45.2756 53.1496
f 26/31/5 25/25/5 24/16/5

v 22.2463 1.94075 -74.9914
vt 43.3071 53.1496
f 25/25/5 26/31/5 27/32/5

usemtl Color_000
f 24/16/6 25/25/6 26/31/6

f 27/32/6 26/31/6 25/25/6

usemtl Color_F17
f 27/32/5 26/31/5 12/12/5

usemtl Color_000
f 12/12/6 26/31/6 27/32/6

usemtl Color_F17
v 22.1969 1.94075 -75.042
vt 2.20268e-013 53.1496
vt -1.9685 53.1496
f 28/33/4 12/17/4 26/34/4

vt 2.20268e-013 55.1181
f 12/17/4 28/33/4 10/35/4

usemtl _Color_000_1
f 10/35/3 28/33/3 12/17/3

usemtl Color_000
v 22.2469 1.94075 -75.0414
f 29/32/5 28/31/5 10/12/5

f 19/25/5 28/31/5 29/32/5

f 28/31/5 19/25/5 20/16/5

usemtl _Color_000_1
f 20/16/6 19/25/6 28/31/6

f 19/25/6 20/16/6 18/24/6

f 17/2/6 19/25/6 18/24/6

usemtl M_0128_White
vt 43.3071 -4.54747e-013
v 23.2962 0.640751 -74.9795
vt 1.9685 -4.54747e-013
f 19/36/1 30/2/1 17/37/1

f 30/2/1 19/36/1 25/25/1

usemtl _Color_000_1
f 17/37/2 30/2/2 19/36/2

usemtl M_0128_White
v 23.2968 1.94075 -75.0295
vt -4.47642e-013 53.1496
vt -4.54747e-013 1.9685
f 30/2/3 31/38/3 17/39/3

v 23.2962 1.94075 -74.9795
vt 1.9685 53.1496
f 31/38/3 30/2/3 32/40/3

usemtl _Color_000_1
f 17/39/4 31/38/4 30/2/4

usemtl Color_000
v 23.3084 1.1476 -75.0294
vt 1.51081 21.923
f 31/40/5 33/41/5 17/2/5

v 23.3084 1.2826 -75.0294
vt 1.51081 27.238
f 33/41/5 31/40/5 34/42/5

usemtl _Color_000_1
f 17/2/6 33/41/6 31/40/6

usemtl Color_000
f 16/23/5 17/2/5 33/41/5

usemtl _Color_000_1
f 16/23/6 17/2/6 13/21/6

f 33/41/6 17/2/6 16/23/6

usemtl Color_000
f 34/42/5 16/23/5 33/41/5

f 16/23/5 34/42/5 15/22/5

usemtl _Color_000_1
f 33/41/6 16/23/6 34/42/6

usemtl Color_F17
vt 1.51081 -4.61853e-013
v 23.3269 1.1476 -74.9792
vt 0.762775 1.9685
vt 0.762775 -2.20268e-013
f 33/43/1 35/44/1 16/45/1

v 23.3079 1.1476 -74.9794
vt 1.51081 1.9685
f 35/44/1 33/43/1 36/46/1

usemtl _Color_000_1
f 16/45/2 35/44/2 33/43/2

usemtl Color_F17
vt 1.9685 21.923
vt -2.20268e-013 27.238
vt -2.20268e-013 21.923
f 35/47/3 15/48/3 16/49/3

v 23.3269 1.2826 -74.9792
vt 1.9685 27.238
f 15/48/3 35/47/3 37/50/3

usemtl _Color_000_1
f 16/49/4 15/48/4 35/47/4

f 15/22/6 34/42/6 16/23/6

f 34/43/1 37/44/1 15/45/1

v 23.3079 1.2826 -74.9794
f 37/44/1 34/43/1 38/46/1

f 15/45/2 37/44/2 34/43/2

f 37/50/4 35/47/4 15/48/4

f 35/23/5 38/42/5 37/22/5

f 38/42/5 35/23/5 36/41/5

usemtl Color_000
f 36/41/6 35/23/6 38/42/6

usemtl Color_F17
f 35/23/5 30/2/5 36/41/5

vt 9.09495e-013 22.0472
f 14/51/5 30/2/5 35/23/5

f 22/30/5 30/2/5 14/51/5

f 22/30/5 25/25/5 30/2/5

usemtl Color_000
f 30/2/6 25/25/6 22/30/6

usemtl _Color_000_1
f 25/25/2 19/36/2 30/2/2

usemtl M_0128_White
vt -1.9685 1.9685
vt 4.54747e-013 1.9685
f 29/33/4 25/52/4 19/53/4

f 25/52/4 29/33/4 27/34/4

usemtl _Color_000_1
f 19/53/3 25/52/3 29/33/3

f 27/34/3 29/33/3 25/52/3

usemtl M_0128_White
vt -43.3071 -2.20268e-013
v 22.2813 1.94075 -74.991
vt -41.9291 1.9685
vt -43.3071 1.9685
f 29/54/2 39/55/2 27/56/2

vt -1.9685 -4.47642e-013
f 31/57/2 39/55/2 29/54/2

f 39/55/2 31/57/2 32/52/2

usemtl _Color_000_1
f 32/52/1 31/57/1 39/55/1

f 32/40/4 30/2/4 31/38/4

usemtl Color_F17
f 32/40/5 36/41/5 30/2/5

f 36/41/5 32/40/5 38/42/5

usemtl Color_000
f 30/2/6 36/41/6 32/40/6

f 36/41/6 30/2/6 35/23/6

f 35/23/6 30/2/6 14/51/6

f 14/51/6 30/2/6 22/30/6

usemtl Color_F17
vt -1.9685 0
f 22/58/4 13/18/4 14/20/4

f 13/18/4 22/58/4 18/24/4

usemtl _Color_000_1
f 18/24/3 22/58/3 13/18/3

f 14/20/3 13/18/3 22/58/3

f 14/20/3 11/17/3 13/18/3

usemtl Color_F17
vt 9.09495e-013 55.1181
f 14/51/5 37/22/5 11/59/5

f 14/51/5 35/23/5 37/22/5

usemtl Color_000
f 37/22/6 35/23/6 14/51/6

f 37/22/6 38/42/6 35/23/6

usemtl _Color_000_1
f 38/46/2 34/43/2 37/44/2

usemtl Color_F17
vt -1.9685 27.238
vt 4.61853e-013 21.923
vt 4.61853e-013 27.238
f 38/60/4 33/61/4 34/62/4

vt -1.9685 21.923
f 33/61/4 38/60/4 36/63/4

usemtl _Color_000_1
f 34/62/3 33/61/3 38/60/3

f 34/42/6 31/40/6 33/41/6

usemtl Color_000
f 34/42/5 31/40/5 15/22/5

usemtl _Color_000_1
f 15/22/6 31/40/6 34/42/6

usemtl Color_000
f 8/10/5 15/22/5 31/40/5

usemtl _Color_000_1
f 8/10/6 15/22/6 13/21/6

f 31/40/6 15/22/6 8/10/6

usemtl Color_000
f 8/10/5 31/40/5 10/12/5

usemtl _Color_000_1
f 10/12/6 31/40/6 8/10/6

usemtl Color_000
f 29/32/5 10/12/5 31/40/5

usemtl _Color_000_1
f 10/12/6 28/31/6 29/32/6

usemtl Color_000
v 21.1969 1.94075 -75.0533
vt 84.6457 53.1496
f 10/12/5 28/31/5 40/64/5

usemtl _Color_000_1
f 40/64/6 28/31/6 10/12/6

usemtl M_0128_White
vt -84.6457 -4.61853e-013
vt -45.2756 -2.20268e-013
f 26/29/2 40/65/2 28/66/2

v 21.2424 1.94075 -75.0028
vt -82.8346 1.9685
f 40/65/2 26/29/2 41/67/2

usemtl _Color_000_1
f 28/66/1 40/65/1 26/29/1

f 41/67/1 26/29/1 40/65/1

vt 82.8346 53.1496
f 12/12/5 26/31/5 41/68/5

f 26/34/3 12/17/3 28/33/3

usemtl Color_000
f 41/68/6 26/31/6 12/12/6

usemtl Translucent_Glass_Blue
vn 0.0113292 -8.00857e-015 -0.999936
v 21.1964 1.94075 -75.0033
f 26/31/7 42/64/7 41/68/7

v 21.1964 0.640751 -75.0033
vt 84.6457 1.9685
f 26/31/7 43/69/7 42/64/7

f 43/69/7 26/31/7 24/16/7

vn -0.0113292 8.00857e-015 0.999936
f 24/16/8 26/31/8 43/69/8

usemtl M_0128_White
vt -2.20268e-013 53.1496
f 28/70/3 24/2/3 26/40/3

vt -2.27374e-013 1.9685
f 24/2/3 28/70/3 20/71/3

usemtl _Color_000_1
f 20/71/4 28/70/4 24/2/4

f 26/40/4 24/2/4 28/70/4

usemtl Color_F17
vt 1.9685 -3.55271e-015
f 20/71/3 23/72/3 24/2/3

vt -2.27374e-013 -3.55271e-015
f 23/72/3 20/71/3 21/73/3

usemtl _Color_000_1
f 21/73/4 20/71/4 23/72/4

usemtl Color_000
v 21.1469 0.590751 -75.0539
vt 86.6142 0
f 44/74/5 20/16/5 21/26/5

v 21.1969 0.640751 -75.0533
f 20/16/5 44/74/5 45/69/5

usemtl _Color_000_1
f 21/26/6 20/16/6 44/74/6

f 45/69/6 44/74/6 20/16/6

usemtl Color_000
v 21.1606 1.1476 -75.0537
vt 86.0777 21.923
f 45/69/5 44/74/5 46/75/5

usemtl _Color_000_1
f 46/75/6 44/74/6 45/69/6

usemtl Color_000
f 46/75/5 44/74/5 9/11/5

usemtl _Color_000_1
f 9/11/6 44/74/6 46/75/6

usemtl Color_F17
v 21.1464 0.590751 -75.0039
vt 1.9685 3.55271e-015
vt -1.91883e-030 55.1181
vt -7.10543e-015 0
f 47/76/3 9/77/3 44/78/3

v 21.1464 1.99075 -75.0039
vt 1.9685 55.1181
f 9/77/3 47/76/3 48/79/3

usemtl _Color_000_1
f 44/78/4 9/77/4 47/76/4

f 48/79/4 47/76/4 9/77/4

v 21.16 1.1476 -75.0037
vt 86.6142 3.55271e-015
f 49/75/5 47/80/5 48/11/5

f 43/69/5 47/80/5 49/75/5

f 24/16/5 47/80/5 43/69/5

f 47/80/5 24/16/5 23/26/5

usemtl Color_000
f 23/26/6 24/16/6 47/80/6

usemtl _Color_000_1
f 24/2/4 23/72/4 20/71/4

usemtl M_0128_White
vt 84.6457 -4.54747e-013
vn 3.7163e-016 1 5.21203e-017
vt 45.2756 -2.27374e-013
f 45/81/9 24/16/9 20/82/9

f 24/16/9 45/81/9 43/69/9

usemtl _Color_000_1
vn -3.7163e-016 -1 -5.21203e-017
f 20/82/10 24/16/10 45/81/10

f 43/69/10 45/81/10 24/16/10

usemtl M_0128_White
f 45/53/4 42/34/4 43/52/4

vt 4.61853e-013 53.1496
f 42/34/4 45/53/4 40/83/4

usemtl _Color_000_1
f 40/83/3 45/53/3 42/34/3

usemtl Color_000
v 21.1796 1.1476 -75.0535
vt 85.3297 21.923
f 45/69/5 50/84/5 40/64/5

f 50/84/5 45/69/5 46/75/5

usemtl _Color_000_1
f 40/64/6 50/84/6 45/69/6

usemtl Color_000
v 21.1796 1.2826 -75.0535
vt 85.3297 27.238
f 40/64/5 50/84/5 51/85/5

usemtl _Color_000_1
f 51/85/6 50/84/6 40/64/6

usemtl Color_F17
v 21.179 1.1476 -75.0035
vt -4.54747e-013 27.238
vt -4.54747e-013 21.923
f 52/47/3 51/86/3 50/87/3

v 21.179 1.2826 -75.0035
f 51/86/3 52/47/3 53/50/3

usemtl _Color_000_1
f 50/87/4 51/86/4 52/47/4

usemtl Color_000
v 21.1606 1.2826 -75.0537
vt 86.0777 27.238
f 50/84/5 54/88/5 51/85/5

f 54/88/5 50/84/5 46/75/5

usemtl _Color_000_1
f 46/75/6 50/84/6 54/88/6

f 46/75/6 45/69/6 50/84/6

usemtl Color_F17
vt 86.0777 1.9685
vt 85.3297 -4.54747e-013
vt 86.0777 2.34479e-013
f 49/89/1 50/90/1 46/91/1

vt 85.3297 1.9685
f 50/90/1 49/89/1 52/92/1

usemtl _Color_000_1
f 52/92/2 49/89/2 50/90/2

v 21.16 1.2826 -75.0037
f 55/88/5 52/84/5 49/75/5

f 52/84/5 55/88/5 53/85/5

usemtl Color_000
f 49/75/6 52/84/6 55/88/6

usemtl _Color_000_1
f 52/84/5 43/69/5 49/75/5

f 43/69/5 52/84/5 42/64/5

usemtl Color_000
f 42/64/6 52/84/6 43/69/6

usemtl _Color_000_1
f 42/64/5 52/84/5 53/85/5

usemtl Color_000
f 53/85/6 52/84/6 42/64/6

f 53/85/6 55/88/6 52/84/6

usemtl _Color_000_1
f 51/90/1 55/89/1 53/92/1

f 55/89/1 51/90/1 54/91/1

f 53/92/2 55/89/2 51/90/2

f 55/88/5 48/11/5 53/85/5

f 49/75/5 48/11/5 55/88/5

usemtl Color_000
f 48/11/6 47/80/6 49/75/6

f 49/75/6 47/80/6 43/69/6

f 43/69/6 47/80/6 24/16/6

f 49/75/6 43/69/6 52/84/6

f 55/88/6 48/11/6 49/75/6

f 53/85/6 48/11/6 55/88/6

usemtl _Color_000_1
f 53/85/5 48/11/5 42/64/5

usemtl Color_000
f 42/64/6 48/11/6 53/85/6

usemtl _Color_000_1
f 42/64/5 48/11/5 41/68/5

usemtl Color_000
f 41/68/6 48/11/6 42/64/6

usemtl _Color_000_1
f 41/68/5 48/11/5 12/12/5

usemtl Color_000
f 12/12/6 48/11/6 41/68/6

usemtl Color_F17
f 48/11/5 11/59/5 12/12/5

f 11/59/5 48/11/5 2/5/5

usemtl Color_000
f 12/12/6 11/59/6 48/11/6

usemtl _Color_000_1
f 12/16/2 10/13/2 11/14/2

usemtl Color_F17
f 9/74/1 12/16/1 10/13/1

vt 86.6142 1.9685
f 12/16/1 9/74/1 48/93/1

usemtl _Color_000_1
f 10/13/2 12/16/2 9/74/2

f 48/93/2 9/74/2 12/16/2

usemtl Color_F17
v 21.1469 2.69075 -75.0539
vt -1.91883e-030 82.6772
f 48/79/3 56/94/3 9/77/3

v 21.1464 2.69075 -75.0039
vt 1.9685 82.6772
f 56/94/3 48/79/3 57/95/3

usemtl _Color_000_1
f 9/77/4 56/94/4 48/79/4

usemtl Color_000
vt 84.6457 57.0866
vt 86.6142 82.6772
f 1/96/5 9/11/5 56/97/5

f 9/11/5 1/96/5 3/5/5

usemtl _Color_000_1
f 3/5/6 1/96/6 9/11/6

f 56/97/6 9/11/6 1/96/6

usemtl Color_000
v 21.1969 2.64075 -75.0533
vt 84.6457 80.7087
f 1/96/5 56/97/5 58/98/5

usemtl _Color_000_1
f 58/98/6 56/97/6 1/96/6

usemtl Color_000
f 58/98/5 56/97/5 7/9/5

usemtl _Color_000_1
f 7/9/6 56/97/6 58/98/6

usemtl Color_F17
v 23.3462 2.69075 -74.9789
f 56/74/1 59/14/1 7/15/1

f 59/14/1 56/74/1 57/93/1

usemtl _Color_000_1
f 7/15/2 59/14/2 56/74/2

usemtl Color_F17
vt -1.9685 82.6772
vt -7.10543e-015 82.6772
f 59/99/4 8/19/4 7/100/4

f 8/19/4 59/99/4 11/17/4

usemtl _Color_000_1
f 7/100/3 8/19/3 59/99/3

f 7/9/6 3/5/6 8/10/6

f 5/8/6 3/5/6 7/9/6

usemtl Color_000
f 7/9/5 5/8/5 58/98/5

usemtl _Color_000_1
f 58/98/6 5/8/6 7/9/6

usemtl M_0128_White
v 21.1964 2.64075 -75.0033
vt -84.6457 1.9685
f 5/57/2 60/101/2 58/65/2

f 60/101/2 5/57/2 6/52/2

usemtl _Color_000_1
f 6/52/1 5/57/1 60/101/1

f 6/8/4 2/5/4 5/6/4

usemtl Color_F17
vt 9.09495e-013 82.6772
f 59/102/5 2/5/5 6/8/5

f 11/59/5 2/5/5 59/102/5

usemtl Color_000
f 2/5/6 48/11/6 11/59/6

usemtl Color_F17
v 21.1964 2.04075 -75.0033
f 48/11/5 61/96/5 2/5/5

f 61/96/5 48/11/5 57/97/5

usemtl Color_000
f 2/5/6 61/96/6 48/11/6

usemtl Color_F17
vt 82.8346 57.0866
f 4/103/5 2/5/5 61/96/5

usemtl _Color_000_1
f 4/4/2 1/1/2 2/2/2

usemtl M_0128_White
f 4/4/1 1/1/1 61/69/1

usemtl _Color_000_1
f 61/69/2 1/1/2 4/4/2

usemtl M_0128_White
vt 4.47642e-013 57.0866
vt -1.9685 80.7087
vt -1.9685 57.0866
f 1/104/4 60/105/4 61/106/4

vt 4.61853e-013 80.7087
f 60/105/4 1/104/4 58/107/4

usemtl _Color_000_1
f 58/107/3 1/104/3 60/105/3

f 61/106/3 60/105/3 1/104/3

usemtl Color_F17
f 61/96/5 57/97/5 60/98/5

usemtl Color_000
f 57/97/6 48/11/6 61/96/6

usemtl _Color_000_1
f 57/95/4 48/79/4 56/94/4

f 57/93/2 56/74/2 59/14/2

usemtl Color_F17
f 60/98/5 57/97/5 59/102/5

usemtl Color_000
f 60/98/6 57/97/6 61/96/6

f 59/102/6 57/97/6 60/98/6

usemtl Color_F17
f 59/102/5 6/8/5 60/98/5

usemtl Color_000
f 6/8/6 2/5/6 59/102/6

usemtl Translucent_Glass_Blue
vn 0.0113292 1.55403e-014 -0.999936
f 6/8/11 2/5/11 4/103/11

vn -0.0113292 -1.55403e-014 0.999936
f 4/103/12 2/5/12 6/8/12

usemtl Color_000
f 61/96/6 2/5/6 4/103/6

usemtl Translucent_Glass_Blue
f 60/98/11 4/103/11 61/96/11

f 4/103/11 60/98/11 6/8/11

f 61/96/12 4/103/12 60/98/12

f 6/8/12 60/98/12 4/103/12

usemtl Color_000
f 60/98/6 6/8/6 59/102/6

f 59/102/6 2/5/6 11/59/6

usemtl _Color_000_1
f 11/17/3 59/99/3 8/19/3

f 58/65/1 60/101/1 5/57/1

f 3/5/6 9/11/6 8/10/6

usemtl Color_000
f 40/64/5 9/11/5 10/12/5

f 51/85/5 9/11/5 40/64/5

f 54/88/5 9/11/5 51/85/5

f 46/75/5 9/11/5 54/88/5

usemtl _Color_000_1
f 54/88/6 9/11/6 46/75/6

f 51/85/6 9/11/6 54/88/6

f 40/64/6 9/11/6 51/85/6

f 10/12/6 9/11/6 40/64/6

f 54/91/2 51/90/2 55/89/2

f 51/85/6 54/88/6 50/84/6

vt 2.34479e-013 27.238
f 54/108/3 49/47/3 55/50/3

vt 2.34479e-013 21.923
f 49/47/3 54/108/3 46/109/3

f 46/109/4 54/108/4 49/47/4

f 55/50/4 49/47/4 54/108/4

f 46/91/2 50/90/2 49/89/2

usemtl Color_F17
f 11/59/5 32/40/5 12/12/5

f 11/59/5 37/22/5 32/40/5

usemtl Color_000
f 11/59/6 37/22/6 14/51/6

f 32/40/6 37/22/6 11/59/6

usemtl Color_F17
f 38/42/5 32/40/5 37/22/5

usemtl Color_000
f 38/42/6 32/40/6 36/41/6

f 37/22/6 32/40/6 38/42/6

usemtl _Color_000_1
f 36/63/3 38/60/3 33/61/3

f 36/46/2 33/43/2 35/44/2

usemtl Color_000
f 12/12/6 32/40/6 11/59/6

usemtl Color_F17
vt 41.9291 53.1496
f 39/110/5 12/12/5 32/40/5

f 27/32/5 12/12/5 39/110/5

usemtl Color_000
f 39/110/6 12/12/6 27/32/6

f 32/40/6 12/12/6 39/110/6

usemtl Translucent_Glass_Blue
vn 0.0113292 -7.67165e-015 -0.999936
f 32/40/13 27/32/13 39/110/13

f 30/2/13 27/32/13 32/40/13

f 27/32/13 30/2/13 25/25/13

vn -0.0113292 7.67165e-015 0.999936
f 25/25/14 30/2/14 27/32/14

f 32/40/14 27/32/14 30/2/14

f 39/110/14 27/32/14 32/40/14

usemtl _Color_000_1
f 27/56/1 39/55/1 29/54/1

f 29/54/1 39/55/1 31/57/1

f 31/40/6 10/12/6 29/32/6

usemtl M_0128_White
f 40/65/2 41/67/2 42/101/2

usemtl _Color_000_1
f 42/101/1 41/67/1 40/65/1

usemtl Translucent_Glass_Blue
f 41/68/8 42/64/8 26/31/8

f 42/64/8 43/69/8 26/31/8

usemtl _Color_000_1
f 43/52/3 42/34/3 45/53/3

f 53/50/4 52/47/4 51/86/4

usemtl Color_F17
vt -86.6142 -7.10543e-015
vt -86.6142 1.9685
f 44/111/2 23/29/2 47/112/2

f 23/29/2 44/111/2 21/28/2

usemtl _Color_000_1
f 21/28/1 44/111/1 23/29/1

f 47/112/1 23/29/1 44/111/1

f 29/32/6 28/31/6 19/25/6

f 15/22/6 16/23/6 13/21/6

f 13/21/6 17/2/6 18/24/6

g Mesh2 ventana1_1_1 DES019 Model

l 2 4

l 2 3

l 6 2

l 60 6

l 61 60

l 61 1

l 4 61

l 3 1

l 5 3

l 6 5

l 58 5

l 60 58

l 1 58

g Mesh3 ventana1_1_1 DES019 Model

l 47 44

l 47 48

l 23 47

l 24 23

l 24 20

l 26 24

l 12 26

l 12 11

l 48 12

l 48 57

l 48 9

l 44 9

l 21 44

l 20 21

l 20 45

l 28 20

l 40 28

l 45 40

l 43 45

l 24 43

l 43 42

l 42 40

l 42 41

l 41 26

l 26 28

l 10 28

l 10 8

l 12 10

l 9 10

l 9 56

l 57 56

l 57 59

l 59 11

l 59 7

l 7 8

l 56 7

l 11 8

l 11 14

l 14 13

l 14 22

l 22 18

l 22 23

l 23 21

l 18 21

l 13 18

l 8 13

g Mesh4 ventana1_1_1 DES019 Model

l 54 46

l 51 54

l 53 51

l 53 55

l 52 53

l 49 52

l 55 49

l 55 54

l 49 46

l 46 50

l 50 51

l 52 50

g Mesh5 ventana1_1_1 DES019 Model

l 37 38

l 35 37

l 36 35

l 38 36

l 38 34

l 15 34

l 16 15

l 33 16

l 34 33

l 36 33

l 35 16

l 37 15

g Mesh6 ventana1_1_1 DES019 Model

l 27 25

l 27 39

l 27 29

l 29 19

l 29 31

l 31 17

l 32 31

l 32 30

l 39 32

l 30 25

l 30 17

l 17 19

l 25 19

g Mesh7 DES019 Model

usemtl _Tile_Ceramic_Natural_15
v 22.4248 -0.0592488 -71.979
vt 15.9041 51.049
vn 2.71992e-013 1 -1.05207e-013
v 20.7003 -0.0592488 -74.4689
vt 14.681 52.8148
v 20.6721 -0.0592488 -71.979
vt 14.661 51.049
f 62/113/15 63/114/15 64/115/15

v 20.9103 -0.0592488 -74.4665
vt 14.83 52.8131
f 63/114/15 62/113/15 65/116/15

usemtl _7
vt 6.74896 14.7848
vn -2.71992e-013 -1 1.05207e-013
vt 6.75817 15.2962
vt 7.32118 14.7848
f 64/117/16 63/118/16 62/119/16

usemtl _Tile_Ceramic_Natural_3
vt 183.806 -0.145789
vn 0.999936 -1.88996e-013 0.0113292
v 20.6721 2.94075 -71.979
vt 177.679 7.2361
vt 177.679 -0.145789
f 63/120/17 66/121/17 64/122/17

v 20.7003 2.94075 -74.4689
vt 183.806 7.2361
f 66/121/17 63/120/17 67/123/17

usemtl _7
vt 23.5745 -0.01217
vn -0.999936 1.88996e-013 -0.0113292
vt 23.5745 0.604043
vt 24.3874 -0.01217
f 64/124/18 66/125/18 63/126/18

usemtl _Tile_Ceramic_Natural_3
v 22.4248 2.02275 -71.979
vt -55.1791 4.97724
vn 7.92815e-016 -1.83661e-015 -1
vt -50.8663 -0.145789
vt -50.8663 7.2361
f 68/127/19 64/128/19 66/129/19

vt -55.1791 -0.145789
f 64/128/19 68/127/19 62/130/19

usemtl _7
vt -7.32118 -0.01217
vn -7.92815e-016 1.83661e-015 1
vt -7.32118 0.415482
vt -6.74896 -0.01217
f 62/131/20 68/132/20 64/133/20

vt -6.74896 0.604043
f 66/134/20 64/133/20 68/132/20

usemtl _Tile_Ceramic_Natural_3
v 23.6662 2.94075 -71.979
vt -58.2338 7.2361
f 68/127/19 66/129/19 69/135/19

usemtl _7
vt -7.72648 0.604043
f 69/136/20 66/134/20 68/132/20

usemtl _Tile_Ceramic_Natural_3
v 23.2528 2.02275 -71.979
vt -57.2165 4.97724
f 69/135/19 70/137/19 68/127/19

v 23.2528 -0.0592488 -71.979
vt -57.2165 -0.145789
f 69/135/19 71/138/19 70/137/19

v 23.6662 -0.0592488 -71.979
vt -58.2338 -0.145789
f 71/138/19 69/135/19 72/139/19

usemtl _7
vt -7.72648 -0.01217
vt -7.5915 -0.01217
f 72/140/20 69/136/20 71/141/20

usemtl _Tile_Ceramic_Natural_3
v 23.6662 2.94075 -74.9744
vt -184.484 7.2361
vn -1 3.7889e-013 -7.84748e-028
vt -177.114 -0.145789
vt -177.114 7.2361
f 73/142/21 72/143/21 69/144/21

v 23.6662 -0.0592488 -74.9744
vt -184.484 -0.145789
f 72/143/21 73/142/21 74/145/21

usemtl _7
vt -23.4995 0.604043
vn 1 -3.7889e-013 7.84748e-028
vt -23.4995 -0.01217
vt -24.4774 0.604043
f 69/146/22 72/147/22 73/148/22

vt -24.4774 -0.01217
f 74/149/22 73/148/22 72/147/22

usemtl _Tile_Ceramic_Natural_15
v 23.6662 -0.0592488 -74.9753
vt 16.7845 53.174
vt 16.7845 51.049
vt 16.7845 53.1733
f 75/150/15 72/151/15 74/152/15

vt 16.4913 51.049
f 75/150/15 71/153/15 72/151/15

f 75/150/15 62/113/15 71/153/15

v 20.9164 -0.0592488 -75.0065
vt 14.8343 53.1961
f 76/154/15 62/113/15 75/150/15

v 20.916 -0.0592488 -74.9753
vt 14.8341 53.174
f 77/155/15 62/113/15 76/154/15

v 20.916 -0.0592488 -74.9744
vt 14.8341 53.1733
f 78/156/15 62/113/15 77/155/15

v 20.9133 -0.0592488 -74.7365
vt 14.8321 53.0046
f 79/157/15 62/113/15 78/156/15

f 65/116/15 62/113/15 79/157/15

usemtl _7
vt 6.82673 15.2957
f 65/158/16 62/119/16 63/118/16

vt 6.82773 15.3512
f 79/159/16 62/119/16 65/158/16

vt 6.82861 15.4001
f 78/160/16 62/119/16 79/159/16

vt 6.82861 15.4002
f 77/161/16 62/119/16 78/160/16

vt 6.82872 15.4066
f 76/162/16 62/119/16 77/161/16

vt 7.72648 15.4002
f 75/163/16 62/119/16 76/162/16

vt 7.5915 14.7848
f 71/164/16 62/119/16 75/163/16

vt 7.72648 14.7848
f 72/165/16 71/164/16 75/163/16

vt 7.72648 15.4001
f 74/166/16 72/165/16 75/163/16

usemtl _Tile_Ceramic_Natural_3
vt 56.1399 -0.145789
vn -0.0113292 2.70876e-014 0.999936
v 23.3462 0.590751 -74.9789
vt 55.3525 1.45362
vt 49.3732 -0.145789
f 75/167/23 80/168/23 76/169/23

v 23.6662 2.69075 -74.9753
vt 56.1399 6.62094
f 80/168/23 75/167/23 81/170/23

usemtl _7
vt 6.55086 -0.01217
vn 0.0113292 -2.70876e-014 -0.999936
vt 7.3442 0.121343
vt 7.44867 -0.01217
f 76/171/24 80/172/24 75/173/24

usemtl _Tile_Ceramic_Natural_3
v 21.1464 0.590751 -75.0039
vt 49.9392 1.45362
f 82/174/23 76/169/23 80/168/23

v 20.9164 2.94075 -75.0065
vt 49.3732 7.2361
f 76/169/23 82/174/23 83/175/23

usemtl _7
vt 6.55086 0.604043
vt 6.62595 0.121343
f 83/176/24 82/177/24 76/171/24

usemtl _Tile_Ceramic_Natural_3
v 21.1464 2.69075 -75.0039
vt 49.9392 6.62094
f 83/175/23 82/174/23 84/178/23

usemtl _7
vt 6.62595 0.552692
f 84/179/24 82/177/24 83/176/24

usemtl _Tile_Ceramic_Natural_3
v 23.3462 2.94075 -74.9789
vt 55.3525 7.2361
f 83/175/23 84/178/23 85/180/23

usemtl _7
vt 7.3442 0.604043
f 85/181/24 84/179/24 83/176/24

usemtl _Tile_Ceramic_Natural_3
v 23.6662 2.94075 -74.9753
vt 56.1399 7.2361
f 84/178/23 86/182/23 85/180/23

f 84/178/23 81/170/23 86/182/23

v 23.3462 2.69075 -74.9789
vt 55.3525 6.62094
f 87/183/23 81/170/23 84/178/23

f 80/168/23 81/170/23 87/183/23

usemtl _7
vt 7.44867 0.552692
f 81/184/24 75/173/24 80/172/24

vt 7.3442 0.552692
f 87/185/24 81/184/24 80/172/24

f 84/179/24 81/184/24 87/185/24

vt 7.44867 0.604043
f 86/186/24 81/184/24 84/179/24

f 85/181/24 86/186/24 84/179/24

usemtl _Tile_Ceramic_Natural_3
v 21.1464 2.94075 -75.0039
vt 49.9392 7.2361
f 83/175/23 85/180/23 88/187/23

usemtl _7
vt 6.62595 0.604043
f 88/188/24 85/181/24 83/176/24

f 80/172/24 76/171/24 82/177/24

usemtl _Tile_Ceramic_Natural_3
vt 185.134 7.2361
vn 0.999936 -1.93841e-014 0.0113292
vt 185.058 -0.145789
vt 185.134 -0.145789
f 83/189/25 77/190/25 76/191/25

vt 185.055 -0.145789
f 83/189/25 78/192/25 77/190/25

vt 184.47 -0.145789
f 83/189/25 79/193/25 78/192/25

v 20.9103 2.94075 -74.4665
f 89/123/25 79/193/25 83/189/25

f 79/193/25 89/123/25 65/120/25

usemtl _7
vn -0.999936 1.93841e-014 -0.0113292
vt 24.3874 0.604043
vt 24.4756 -0.01217
f 65/126/26 89/194/26 79/195/26

usemtl _Tile_Ceramic_Natural_3
vt 48.8565 -0.145789
f 89/175/6 63/196/6 65/169/6

vt 48.8565 7.2361
f 63/196/6 89/175/6 67/197/6

usemtl _7
vt 6.4823 -0.01217
f 65/171/5 63/198/5 89/176/5

vt 6.4823 0.604043
f 67/199/5 89/176/5 63/198/5

f 67/194/18 63/126/18 66/125/18

vt 24.5637 0.604043
f 83/200/26 79/195/26 89/194/26

vt 24.5532 -0.01217
f 78/201/26 79/195/26 83/200/26

vt 24.5535 -0.01217
f 77/202/26 78/201/26 83/200/26

vt 24.5637 -0.01217
f 76/203/26 77/202/26 83/200/26

vt -7.5915 0.415482
f 70/204/20 71/141/20 69/136/20

f 68/132/20 70/204/20 69/136/20

g Mesh8 DES019 Model

l 76 77

l 76 75

l 76 83

l 88 83

l 85 88

l 86 85

l 81 86

l 75 81

l 74 72

l 74 73

l 73 69

l 72 69

l 72 71

l 71 62

l 70 71

l 68 70

l 62 68

l 62 64

l 64 63

l 64 66

l 66 67

l 69 66

l 63 67

l 65 63

l 79 65

l 78 79

l 65 89

l 89 67

l 89 83

g Mesh9 DES019 Model

l 87 84

l 80 87

l 82 80

l 82 84

g Mesh10 Model

v 21.5154 10.5 62.8597
v 21.5454 10.5 62.7436
l 90 91

g Mesh11 Model

v -222.959 3.3 -279.837
v -222.959 3.33 -279.837
l 92 93

g Mesh12 Model

v 35.416 5.65 -204.781
v 33.9777 5.65 -205.153
l 94 95

