# Alias OBJ Model File
# Exported from SketchUp, (c) 2000-2012 Trimble Navigation Limited
# File units = meters

mtllib CUA004.mtl

g Mesh1 CUA004 Model

usemtl Translucent_Glass_Blue
v 27.1314 2.114 -80.573
vt 152.48 83.2283
vn -0.000286201 6.05142e-021 1
v 25.7035 0.686 -80.5734
vt 96.262 27.0079
v 27.1314 0.686 -80.573
vt 152.48 27.0079
f 1/1/1 2/2/1 3/3/1

v 25.7035 2.114 -80.5734
vt 96.262 83.2283
f 2/2/1 1/1/1 4/4/1

vn 0.000286201 -6.05142e-021 -1
f 3/3/2 2/2/2 1/1/2

f 4/4/2 1/1/2 2/2/2

usemtl FrontColor
vt -152.636 83.2283
vn -4.68702e-005 5.52819e-021 -1
v 30.9629 0.686 -80.5732
vt -303.482 27.0079
vt -152.636 27.0079
f 1/5/3 5/6/3 3/7/3

v 30.9629 3.063 -80.5732
vt -303.482 120.591
f 5/6/3 1/5/3 6/8/3

usemtl Color_D03
vn 4.68702e-005 -5.52819e-021 1
f 3/7/4 5/6/4 1/5/4

f 6/8/4 1/5/4 5/6/4

usemtl FrontColor
v 27.1314 3.063 -80.573
vt -152.636 120.591
f 6/8/3 1/5/3 7/9/3

usemtl Color_D03
f 7/9/4 1/5/4 6/8/4

usemtl FrontColor
vt -152.592 83.2282
vn 4.7107e-005 3.20026e-007 -1
v 23.255 3.063 -80.5732
vt 0.0221799 120.59
vt -152.592 120.59
f 1/10/5 8/11/5 7/12/5

v 25.5027 2.114 -80.5731
vt -88.4711 83.2282
f 9/13/5 8/11/5 1/10/5

v 25.3734 2.114 -80.5731
vt -83.3802 83.2282
f 10/14/5 8/11/5 9/13/5

v 24.4536 2.114 -80.5731
vt -47.1686 83.2282
f 11/15/5 8/11/5 10/14/5

v 23.463 2.114 -80.5732
vt -8.16734 83.2282
f 12/16/5 8/11/5 11/15/5

v 23.4035 2.114 -80.5732
vt -5.82561 83.2282
f 13/17/5 8/11/5 12/16/5

v 23.4035 2.114 -80.5732
vt -5.82273 83.2282
f 14/18/5 8/11/5 13/17/5

v 23.255 0 -80.5732
vt 0.0221799 -0.000150681
f 14/18/5 15/19/5 8/11/5

v 23.4035 -3.60956e-016 -80.5732
vt -5.82273 -0.000150682
f 15/19/5 14/18/5 16/20/5

usemtl Color_D03
vn -4.7107e-005 -3.20026e-007 1
f 16/20/6 14/18/6 15/19/6

f 8/11/6 15/19/6 14/18/6

usemtl FrontColor
v 23.255 0 -68.6138
vt 0 2.74932e-014
vn -1 0 -0
vt -470.841 120.591
vt -470.841 2.74932e-014
f 17/21/7 8/22/7 15/23/7

v 23.255 3.063 -68.6138
vt 0 120.591
f 8/22/7 17/21/7 18/24/7

usemtl Color_D03
vn 1 -0 0
f 18/24/8 17/21/8 8/22/8

usemtl FrontColor
vn 0 0 1
v 25.3735 3.063 -68.6138
vt 83.4053 120.591
f 17/21/9 19/25/9 18/24/9

v 25.3735 0 -68.6138
vt 83.4053 2.74932e-014
f 19/25/9 17/21/9 20/26/9

usemtl Color_D03
vn -0 -0 -1
f 20/26/10 17/21/10 19/25/10

usemtl FrontColor
vt -4.69084e-031 -5.65245e-031
vn 1.70618e-017 -1 2.05594e-017
vt -5.84491 470.841
vt -83.4053 -5.35988e-031
f 17/27/11 16/28/11 20/29/11

vt -4.69084e-031 470.841
f 16/28/11 17/27/11 15/30/11

usemtl _Tile_Ceramic_Natural_14
vt -18.625 26.8543
vn -1.70618e-017 1 -2.05594e-017
vt -18.625 18.3725
vt -18.7303 26.8543
f 15/31/12 17/32/12 16/33/12

usemtl Color_D03
f 15/23/8 8/22/8 17/21/8

usemtl _Tile_Ceramic_Natural_14
vt -20.1275 18.3725
f 20/34/12 16/33/12 17/32/12

usemtl FrontColor
v 24.2596 -3.49164e-016 -80.5732
vt -39.5521 470.841
f 20/29/11 16/28/11 21/35/11

usemtl _Tile_Ceramic_Natural_14
vt -19.3375 26.8543
f 21/36/12 16/33/12 20/34/12

usemtl FrontColor
v 24.3884 -3.75251e-016 -80.5731
vt -44.6237 470.84
f 20/29/11 21/35/11 22/37/11

usemtl _Tile_Ceramic_Natural_14
vt -19.4289 26.8543
f 22/38/12 21/36/12 20/34/12

usemtl M_0028_AntiqueWhite
v 24.3884 2.114 -80.5731
vt 44.4889 83.2283
vn -0.000286201 -1.85749e-015 1
vt 39.4173 -8.60857e-013
vt 44.4889 -8.61884e-013
f 23/39/13 21/40/13 22/41/13

v 23.4035 0 -80.5734
vt 5.71303 -8.47111e-013
f 21/40/13 23/39/13 24/42/13

usemtl BackColor
vn 0.000286201 1.85749e-015 -1
f 22/41/14 21/40/14 23/39/14

f 24/42/14 23/39/14 21/40/14

usemtl M_0028_AntiqueWhite
v 24.2596 2.114 -80.5732
vt 39.4173 83.2283
f 24/42/13 23/39/13 25/43/13

usemtl BackColor
f 25/43/14 23/39/14 24/42/14

usemtl M_0028_AntiqueWhite
v 23.4035 2.114 -80.5734
vt 5.71303 83.2283
f 24/42/13 25/43/13 26/44/13

usemtl BackColor
f 26/44/14 25/43/14 24/42/14

usemtl M_0028_AntiqueWhite
vt 44.4889 2.98097e-013
vn -0.000286201 6.06086e-016 1
v 25.3734 0.686 -80.5729
vt 83.2677 27.0079
f 22/45/15 27/46/15 23/39/15

v 25.3734 -6.98327e-016 -80.5729
vt 83.2677 2.85377e-013
f 27/46/15 22/45/15 28/47/15

usemtl BackColor
vn 0.000286201 -6.06086e-016 -1
f 28/47/16 22/45/16 27/46/16

usemtl FrontColor
vt -83.4024 470.829
f 20/29/11 22/37/11 28/48/11

usemtl _Tile_Ceramic_Natural_14
vt -20.1275 26.8541
f 28/49/12 22/38/12 20/34/12

usemtl FrontColor
v 25.3735 0 -78.3288
vt -83.4053 382.48
f 20/29/11 28/48/11 29/50/11

usemtl _Tile_Ceramic_Natural_14
vt -20.1275 25.2626
f 29/51/12 28/49/12 20/34/12

usemtl FrontColor
v 30.9629 0 -80.5732
vt -303.46 470.841
f 30/52/11 29/50/11 28/48/11

v 25.4265 0 -78.3288
vt -85.4919 382.48
f 29/50/11 30/52/11 31/53/11

usemtl _Tile_Ceramic_Natural_14
vt -24.0916 26.8543
f 28/49/12 29/51/12 30/54/12

vt -20.1651 25.2626
f 31/55/12 30/54/12 29/51/12

usemtl FrontColor
v 25.4265 0 -68.6138
vt -85.4919 -5.35256e-031
f 31/53/11 30/52/11 32/56/11

usemtl _Tile_Ceramic_Natural_14
vt -20.1651 18.3725
f 32/57/12 30/54/12 31/55/12

usemtl FrontColor
v 30.9629 0 -68.6138
vt -303.46 -4.58797e-031
f 32/56/11 30/52/11 33/58/11

usemtl _Tile_Ceramic_Natural_14
vt -24.0916 18.3725
f 33/59/12 30/54/12 32/57/12

usemtl FrontColor
vt 470.841 2.74932e-014
vn 1 0 -0
v 30.9629 3.063 -68.6138
f 30/60/17 34/24/17 33/21/17

vt 470.841 120.591
f 34/24/17 30/60/17 6/61/17

usemtl Color_D03
vn -1 -0 0
f 33/21/18 34/24/18 30/60/18

usemtl FrontColor
vt 303.46 120.591
vt 85.4919 2.74932e-014
vt 303.46 2.74932e-014
f 34/62/9 32/63/9 33/64/9

v 25.4265 3.063 -68.6138
vt 85.4919 120.591
f 32/63/9 34/62/9 35/65/9

usemtl Color_D03
f 33/64/10 32/63/10 34/62/10

f 35/65/10 34/62/10 32/63/10

usemtl FrontColor
v 25.4265 3.063 -78.3288
vt -382.48 120.591
f 36/66/7 32/21/7 35/24/7

vt -382.48 2.74932e-014
f 32/21/7 36/66/7 31/67/7

usemtl Color_D03
f 35/24/8 32/21/8 36/66/8

f 31/67/8 36/66/8 32/21/8

usemtl FrontColor
f 36/65/9 29/26/9 31/63/9

v 25.3735 3.063 -78.3288
f 29/26/9 36/65/9 37/25/9

usemtl Color_D03
f 31/63/10 29/26/10 36/65/10

f 37/25/10 36/65/10 29/26/10

usemtl FrontColor
vt 382.48 2.74932e-014
vt 382.48 120.591
f 19/24/17 29/68/17 37/69/17

f 29/68/17 19/24/17 20/21/17

usemtl Color_D03
f 20/21/18 19/24/18 29/68/18

f 37/69/18 29/68/18 19/24/18

f 6/61/18 30/60/18 34/24/18

usemtl FrontColor
vt 470.841 27.0079
f 6/61/17 30/60/17 5/70/17

usemtl Color_D03
f 5/70/18 30/60/18 6/61/18

usemtl FrontColor
vt -303.487 2.74919e-014
vn -5.70307e-005 2.79841e-021 -1
vt -83.4293 27.0079
vt -303.487 27.0079
f 30/71/19 27/72/19 5/73/19

vt -83.4293 -1.31756e-018
f 27/72/19 30/71/19 28/74/19

usemtl Color_D03
vn 5.70307e-005 -2.79841e-021 1
f 28/74/20 30/71/20 27/72/20

f 5/73/20 27/72/20 30/71/20

usemtl BackColor
f 23/39/16 27/46/16 22/45/16

usemtl M_0028_AntiqueWhite
v 25.3734 2.114 -80.5729
vt 83.2677 83.2283
f 23/39/15 27/46/15 38/75/15

usemtl BackColor
f 38/75/16 27/46/16 23/39/16

usemtl Color_D03
vt 84.184 27.0079
vn 0.00166035 -1.28899e-008 0.999999
v 25.7034 2.114 -80.5734
vt 97.1755 83.2283
vt 84.184 83.2283
f 27/76/21 39/77/21 38/78/21

v 25.7034 0.686 -80.5734
vt 97.1755 27.0079
f 39/77/21 27/76/21 40/79/21

usemtl BackColor
vn -0.00166035 1.28899e-008 -0.999999
f 40/79/22 27/76/22 39/77/22

f 38/78/22 39/77/22 27/76/22

usemtl Color_D03
vt 89.2749 83.2283
f 38/78/21 39/77/21 9/80/21

usemtl BackColor
f 9/80/22 39/77/22 38/78/22

usemtl M_0028_AntiqueWhite
vt 47.056 83.2283
f 23/39/15 38/75/15 11/81/15

usemtl BackColor
f 11/81/16 38/75/16 23/39/16

usemtl FrontColor
vt -44.6015 83.2282
f 11/15/5 23/82/5 12/16/5

usemtl Color_D03
f 12/16/6 23/82/6 11/15/6

f 11/15/6 8/11/6 12/16/6

f 10/14/6 8/11/6 11/15/6

f 9/13/6 8/11/6 10/14/6

f 1/10/6 8/11/6 9/13/6

f 7/12/6 8/11/6 1/10/6

f 12/16/6 8/11/6 13/17/6

f 13/17/6 8/11/6 14/18/6

f 18/24/10 19/25/10 17/21/10

g Mesh2 CUA004 Model

l 17 18

l 17 20

l 17 15

l 16 15

l 16 21

l 14 16

l 12 13

l 23 12

l 11 23

l 10 11

l 9 10

l 1 9

l 4 1

l 4 2

l 3 2

l 1 3

l 7 1

l 8 7

l 8 15

l 18 8

l 18 19

l 20 19

l 29 20

l 29 37

l 31 29

l 31 36

l 32 31

l 32 35

l 32 33

l 33 34

l 33 30

l 28 30

l 28 22

l 28 27

l 27 38

l 5 27

l 5 6

l 3 5

l 30 5

l 6 7

l 34 6

l 35 34

l 35 36

l 36 37

l 37 19

l 40 27

l 40 39

l 9 39

l 38 9

l 38 11

l 22 21

l 23 22

l 23 25

l 25 26

l 24 26

l 21 24

