# Alias OBJ Model File
# Exported from SketchUp, (c) 2000-2012 Trimble Navigation Limited
# File units = meters

mtllib CUA001.mtl

g Mesh1 CUA001 Model

usemtl FrontColor
v 2.64996 3.063 -80.5732
vt -1.42109e-014 120.591
vn 0 0 -1
v 3.1512 0 -80.5732
vt -19.734 0
v 2.64996 0 -80.5732
vt -1.42109e-014 0
f 1/1/1 2/2/1 3/3/1

v 3.1512 2.114 -80.5732
vt -19.734 83.2283
f 2/2/1 1/1/1 4/4/1

usemtl Color_D03
vn -0 -0 1
f 3/3/2 2/2/2 1/1/2

usemtl FrontColor
v 6.82762 0 -70.536
vt -164.475 0
vn 0 -1 -0
vt -1.42109e-014 395.163
vt -19.734 395.163
f 5/5/3 3/6/3 2/7/3

v 2.64996 0 -70.536
vt 0 0
f 3/6/3 5/5/3 6/8/3

usemtl _Tile_Ceramic_Natural_14
vt -4.01154 19.7358
vn -0 1 0
vt -6.97442 19.7358
vt -4.01154 26.8543
f 6/9/4 5/10/4 3/11/4

usemtl FrontColor
v 6.82762 3.063 -70.536
vt 164.475 120.591
vn 0 0 1
vt 164.475 0
f 7/12/5 6/8/5 5/13/5

v 2.64996 3.063 -70.536
vt 0 120.591
f 6/8/5 7/12/5 8/14/5

usemtl Color_D03
vn -0 -0 -1
f 5/13/6 6/8/6 7/12/6

f 8/14/6 7/12/6 6/8/6

usemtl FrontColor
vt -395.163 120.591
vn -1 0 -3.5962e-017
f 1/15/7 6/8/7 8/14/7

vt -395.163 0
f 6/8/7 1/15/7 3/16/7

usemtl Color_D03
vn 1 -0 3.5962e-017
f 8/14/8 6/8/8 1/15/8

f 3/16/8 1/15/8 6/8/8

usemtl FrontColor
v 6.82762 0 -80.5732
vt 395.163 0
vn 1 0 -0
f 9/17/9 7/14/9 5/8/9

v 6.82762 3.063 -80.1948
vt 380.266 120.591
f 7/14/9 9/17/9 10/18/9

usemtl Color_D03
vn -1 -0 0
f 5/8/10 7/14/10 9/17/10

f 10/18/10 9/17/10 7/14/10

usemtl FrontColor
v 6.82762 3.063 -80.5732
vt 395.163 120.591
f 10/18/9 9/17/9 11/19/9

usemtl Color_D03
f 11/19/10 9/17/10 10/18/10

usemtl FrontColor
v 5.12116 2.114 -80.5732
vt -97.2915 83.2283
vt -164.475 120.591
f 9/5/1 12/20/1 11/21/1

v 5.12116 0 -80.5732
vt -97.2915 0
f 12/20/1 9/5/1 13/22/1

usemtl Color_D03
f 13/22/2 9/5/2 12/20/2

usemtl FrontColor
vt -97.2915 395.163
vt -164.475 395.163
f 5/5/3 13/23/3 9/24/3

v 4.13618 0 -80.5732
vt -58.5127 395.163
f 5/5/3 14/25/3 13/23/3

f 5/5/3 2/7/3 14/25/3

usemtl _Tile_Ceramic_Natural_14
vt -4.36703 26.8543
f 2/26/4 3/11/4 5/10/4

vt -5.0656 26.8543
f 14/27/4 2/26/4 5/10/4

usemtl FrontColor
vt -58.5127 0
f 4/4/1 14/28/1 2/2/1

v 4.13618 2.114 -80.5732
vt -58.5127 83.2283
f 14/28/1 4/4/1 15/29/1

usemtl M_0028_AntiqueWhite
f 2/2/2 14/28/2 4/4/2

f 15/29/2 4/4/2 14/28/2

usemtl FrontColor
f 4/4/1 1/1/1 15/29/1

usemtl Color_D03
f 4/4/2 1/1/2 2/2/2

f 15/29/2 1/1/2 4/4/2

usemtl FrontColor
f 15/29/1 1/1/1 12/20/1

usemtl Color_D03
f 12/20/2 1/1/2 15/29/2

usemtl FrontColor
f 11/21/1 12/20/1 1/1/1

usemtl Color_D03
f 11/21/2 12/20/2 9/5/2

f 1/1/2 12/20/2 11/21/2

usemtl FrontColor
f 13/22/1 15/29/1 12/20/1

f 15/29/1 13/22/1 14/28/1

usemtl M_0028_AntiqueWhite
f 14/28/2 13/22/2 15/29/2

usemtl _Tile_Ceramic_Natural_14
vt -5.76416 26.8543
f 13/30/4 14/27/4 5/10/4

vt -6.97442 26.8543
f 9/31/4 13/30/4 5/10/4

usemtl M_0028_AntiqueWhite
f 12/20/2 15/29/2 13/22/2

g Mesh2 CUA001 Model

l 5 7

l 9 5

l 9 11

l 9 13

l 12 13

l 15 12

l 4 15

l 2 4

l 2 3

l 14 2

l 13 14

l 15 14

l 3 1

l 3 6

l 6 8

l 6 5

l 1 8

l 11 1

l 10 11

l 10 7

l 8 7

