# Alias OBJ Model File
# Exported from SketchUp, (c) 2000-2012 Trimble Navigation Limited
# File units = meters

mtllib CUA003.mtl

g Mesh1 CUA003 Model

usemtl FrontColor
v 12.6265 2.114 -80.5732
vt 0 83.2283
vn 0 0 -1
v 12.8136 0 -80.5732
vt -7.36632 0
v 12.6265 0 -80.5732
vt 0 0
f 1/1/1 2/2/1 3/3/1

v 12.8136 2.114 -80.5732
vt -7.36632 83.2283
f 2/2/1 1/1/1 4/4/1

usemtl Color_D03
vn -0 -0 1
f 3/3/2 2/2/2 1/1/2

usemtl FrontColor
vt -7.36632 470.841
vn 0 -1 -0
v 12.6265 0 -68.6138
vt 0 470.841
f 2/5/3 5/3/3 3/6/3

v 23.0059 0 -68.6138
vt -408.637 0
f 5/3/3 2/5/3 6/7/3

usemtl _Tile_Ceramic_Natural_14
vt -11.0871 26.8543
vn -0 1 0
vt -11.0871 18.3725
vt -11.2198 26.8543
f 3/8/4 5/9/4 2/10/4

usemtl FrontColor
vn -1 0 -0
v 12.6265 3.063 -80.5732
vt -470.841 120.591
vt -470.841 0
f 5/3/5 7/11/5 3/12/5

v 12.6265 3.063 -68.6138
vt 0 120.591
f 7/11/5 5/3/5 8/13/5

usemtl Color_D03
vn 1 -0 0
f 8/13/6 5/3/6 7/11/6

usemtl FrontColor
vn 0 0 1
v 23.0059 3.063 -68.6138
vt 408.637 120.591
f 5/3/7 9/14/7 8/13/7

vt 408.637 0
f 9/14/7 5/3/7 6/15/7

usemtl Color_D03
vn -0 -0 -1
f 6/15/8 5/3/8 9/14/8

usemtl _Tile_Ceramic_Natural_14
vt -18.4484 18.3725
f 6/16/4 2/10/4 5/9/4

usemtl FrontColor
v 13.7986 0 -80.5732
vt -46.1451 470.841
f 6/7/3 2/5/3 10/17/3

usemtl _Tile_Ceramic_Natural_14
vt -11.9184 26.8543
f 10/18/4 2/10/4 6/16/4

usemtl FrontColor
vt -46.1451 0
f 4/4/1 10/19/1 2/2/1

v 13.7986 2.114 -80.5732
vt -46.1451 83.2283
f 10/19/1 4/4/1 11/20/1

usemtl M_0028_AntiqueWhite
f 2/2/2 10/19/2 4/4/2

f 11/20/2 4/4/2 10/19/2

usemtl FrontColor
f 4/4/1 7/13/1 11/20/1

f 7/13/1 4/4/1 1/1/1

usemtl Color_D03
f 1/1/2 4/4/2 7/13/2

f 4/4/2 1/1/2 2/2/2

f 11/20/2 7/13/2 4/4/2

usemtl FrontColor
v 14.7836 2.114 -80.5732
vt -84.9238 83.2283
f 11/20/1 7/13/1 12/21/1

usemtl Color_D03
f 12/21/2 7/13/2 11/20/2

usemtl FrontColor
v 14.7836 3.063 -80.5732
vt -84.9238 120.591
f 12/21/1 7/13/1 13/22/1

usemtl Color_D03
f 13/22/2 7/13/2 12/21/2

usemtl FrontColor
vt -84.7775 120.591
vn 0.000310876 9.94158e-021 -1
v 15.4385 2.114 -80.573
vt -110.564 83.2283
vt -84.7775 83.2283
f 13/23/9 14/24/9 12/25/9

v 15.4385 3.063 -80.573
vt -110.564 120.591
f 14/24/9 13/23/9 15/26/9

usemtl Color_D03
vn -0.000310876 -9.94158e-021 1
f 12/25/10 14/24/10 13/23/10

f 15/26/10 13/23/10 14/24/10

usemtl FrontColor
vt -110.723 120.591
vn -2.69069e-005 -1.06097e-015 -1
v 16.4135 2.114 -80.573
vt -149.109 83.2283
vt -110.723 83.2283
f 15/27/11 16/28/11 14/29/11

v 16.8665 2.114 -80.573
vt -166.94 83.2283
f 16/28/11 15/27/11 17/30/11

usemtl Color_D03
vn 2.69069e-005 1.06097e-015 1
f 14/29/12 16/28/12 15/27/12

f 17/30/12 15/27/12 16/28/12

usemtl FrontColor
v 23.0059 2.114 -80.5732
vt -408.65 83.2283
f 17/30/11 15/27/11 18/31/11

usemtl Color_D03
f 18/31/12 15/27/12 17/30/12

usemtl FrontColor
v 23.0059 3.063 -80.5732
vt -408.65 120.591
f 18/31/11 15/27/11 19/32/11

usemtl Color_D03
f 19/32/12 15/27/12 18/31/12

usemtl FrontColor
vt 470.841 120.591
vn 1 3.6446e-017 1.20527e-016
v 23.0059 0.686 -80.5732
vt 470.841 27.0079
vt 470.841 83.2283
f 19/33/13 20/34/13 18/35/13

v 23.0059 0 -80.5732
vt 470.841 -1.48932e-014
f 19/33/13 21/36/13 20/34/13

vt 4.92518e-014 120.591
f 9/37/13 21/36/13 19/33/13

vt 4.92518e-014 -1.48932e-014
f 21/36/13 9/37/13 6/38/13

usemtl Color_D03
vn -1 -3.6446e-017 -1.20527e-016
f 6/38/14 9/37/14 21/36/14

f 19/33/14 21/36/14 9/37/14

f 20/34/14 21/36/14 19/33/14

usemtl FrontColor
vt -408.631 -7.22655e-014
vn 1.3435e-005 1.5348e-016 -1
v 15.4385 0.686 -80.5733
vt -110.704 27.0079
vt -408.631 27.0079
f 21/39/15 22/40/15 20/41/15

v 15.4385 0 -80.5733
vt -110.704 -7.22655e-014
f 22/40/15 21/39/15 23/42/15

usemtl Color_D03
vn -1.3435e-005 -1.5348e-016 1
f 23/42/16 21/39/16 22/40/16

f 20/41/16 22/40/16 21/39/16

usemtl FrontColor
v 16.8665 0.686 -80.5733
vt -166.921 27.0079
f 20/41/15 22/40/15 24/43/15

usemtl Color_D03
f 24/43/16 22/40/16 20/41/16

usemtl FrontColor
vt -110.783 27.0079
vn -0.000155252 -7.48045e-009 -1
vt -110.783 3.52201e-006
v 15.4385 0.686 -80.5733
vt -110.78 27.0079
f 22/44/17 23/45/17 25/46/17

usemtl Color_D03
vn 0.000155252 7.48045e-009 1
f 25/46/18 23/45/18 22/44/18

usemtl FrontColor
vt -84.9969 83.2283
f 23/45/17 12/47/17 25/46/17

v 14.7836 0 -80.5732
vt -84.9969 3.52201e-006
f 12/47/17 23/45/17 26/48/17

usemtl Color_D03
f 26/48/18 23/45/18 12/47/18

f 25/46/18 12/47/18 23/45/18

usemtl FrontColor
v 15.4385 2.114 -80.5733
vt -110.78 83.2283
f 25/46/17 12/47/17 27/49/17

usemtl Color_D03
f 27/49/18 12/47/18 25/46/18

usemtl FrontColor
vt -84.9238 0
f 26/50/1 11/20/1 12/21/1

f 11/20/1 26/50/1 10/19/1

usemtl M_0028_AntiqueWhite
f 10/19/2 26/50/2 11/20/2

usemtl FrontColor
vt -84.9238 470.841
f 6/7/3 10/17/3 26/51/3

usemtl _Tile_Ceramic_Natural_14
vt -12.6169 26.8543
f 26/52/4 10/18/4 6/16/4

usemtl FrontColor
vt -408.637 470.841
f 6/7/3 26/51/3 21/53/3

usemtl _Tile_Ceramic_Natural_14
vt -18.4484 26.8543
f 21/54/4 26/52/4 6/16/4

usemtl M_0028_AntiqueWhite
f 12/21/2 11/20/2 26/50/2

usemtl Color_D03
f 18/35/14 20/34/14 19/33/14

usemtl FrontColor
vt -408.661 27.0079
vn -5.00058e-005 0 -1
v 16.8665 2.114 -80.5729
vt -166.951 83.2283
vt -408.661 83.2283
f 20/55/19 28/56/19 18/57/19

v 16.8665 0.686 -80.5729
vt -166.951 27.0079
f 28/56/19 20/55/19 29/58/19

usemtl Color_D03
vn 5.00058e-005 -0 1
f 29/58/20 20/55/20 28/56/20

f 18/57/20 28/56/20 20/55/20

usemtl FrontColor
vt -470.841 83.2283
f 3/12/5 7/11/5 1/59/5

usemtl Color_D03
f 3/12/6 7/11/6 5/3/6

f 1/59/6 7/11/6 3/12/6

f 8/13/8 9/14/8 5/3/8

g Mesh2 CUA003 Model

l 3 1

l 2 3

l 2 4

l 10 2

l 26 10

l 12 26

l 14 12

l 14 16

l 15 14

l 19 15

l 18 19

l 17 18

l 16 17

l 18 28

l 20 18

l 20 24

l 21 20

l 23 21

l 23 22

l 26 23

l 21 26

l 6 21

l 6 9

l 5 6

l 5 8

l 3 5

l 8 9

l 7 8

l 1 7

l 4 1

l 11 4

l 12 11

l 12 13

l 27 12

l 25 27

l 24 22

l 13 15

l 13 7

l 11 10

l 9 19

l 29 20

l 28 29

