# Alias OBJ Model File
# Exported from SketchUp, (c) 2000-2012 Trimble Navigation Limited
# File units = meters

mtllib AUL016.mtl

g Mesh1 Group1 AUL016 Model

usemtl Color_D03
v 5.78887 6.426 -39.8629
vt -16.3522 117.126
vn -0.707107 7.08297e-016 -0.707107
v 5.74581 3.451 -39.8067
vt -13.5669 4.90241e-014
vn -0.866025 1.09279e-015 -0.5
v 5.74581 6.426 -39.8067
vt -13.5669 117.126
f 1/1/1 2/2/2 3/3/2

v 5.78887 3.451 -39.8629
vt -16.3522 4.90241e-014
f 2/2/2 1/1/1 4/4/1

usemtl BackColor
vn 0.866025 -1.09279e-015 0.5
vn 0.707107 -7.08297e-016 0.707107
f 3/3/3 2/2/3 1/1/4

usemtl Color_D03
v 5.71873 3.451 -39.7414
vt -12.5475 5.07974e-014
vn -0.965926 1.40282e-015 -0.258819
vt -15.3327 117.126
vt -15.3327 5.07974e-014
f 5/5/5 3/6/2 2/7/2

v 5.71873 6.426 -39.7414
vt -12.5475 117.126
f 3/6/2 5/5/5 6/8/5

usemtl BackColor
vn 0.965926 -1.40282e-015 0.258819
f 6/8/6 5/5/6 3/6/3

usemtl Color_D03
v 5.7095 3.451 -39.6712
vt -10.578 5.47224e-014
vn -1 1.61725e-015 -0
vt -13.3633 117.126
vt -13.3633 5.47224e-014
f 7/9/7 6/10/5 5/11/5

v 5.7095 6.426 -39.6712
vt -10.578 117.126
f 6/10/5 7/9/7 8/12/7

usemtl BackColor
vn 1 -1.61725e-015 0
f 8/12/8 7/9/8 6/10/6

usemtl Color_D03
v 5.71873 3.451 -39.6011
vt -7.79277 5.91883e-014
vn -0.965926 1.72146e-015 0.258819
vt -10.578 5.91883e-014
f 9/13/9 8/12/7 7/14/7

v 5.71873 6.426 -39.6011
vt -7.79277 117.126
f 8/12/7 9/13/9 10/15/9

usemtl BackColor
vn 0.965926 -1.72146e-015 -0.258819
f 10/15/10 9/13/10 8/12/8

usemtl Color_D03
v 5.74581 3.451 -39.5357
vt -4.38156 6.26588e-014
vn -0.866025 1.70836e-015 0.5
vt -7.1668 117.126
vt -7.1668 6.26588e-014
f 11/16/11 10/17/9 9/18/9

v 5.74581 6.426 -39.5357
vt -4.38156 117.126
f 10/17/9 11/16/11 12/19/11

usemtl BackColor
vn 0.866025 -1.70836e-015 -0.5
f 12/19/12 11/16/12 10/17/10

usemtl Color_D03
v 5.78887 3.451 -39.4796
vt -0.576843 6.41071e-014
vn -0.707107 1.57883e-015 0.707107
vt -3.36209 117.126
vt -3.36209 6.41071e-014
f 13/20/13 12/21/11 11/22/11

v 5.78887 6.426 -39.4796
vt -0.576843 117.126
f 12/21/11 13/20/13 14/23/13

usemtl BackColor
vn 0.707107 -1.57883e-015 -0.707107
f 14/23/14 13/20/14 12/21/12

usemtl Color_D03
vt 0.576843 6.32969e-014
v 5.845 6.426 -39.4365
vt 3.36209 117.126
vn -0.5 1.34172e-015 0.866025
vt 0.576843 117.126
f 13/24/13 15/25/15 14/26/13

v 5.845 3.451 -39.4365
vt 3.36209 3.48752e-014
f 15/25/15 13/24/13 16/27/15

usemtl BackColor
vn 0.5 -1.34172e-015 -0.866025
f 16/27/16 13/24/14 15/25/16

f 14/26/14 15/25/16 13/24/14

usemtl _7
vt 10.5134 11.6979
vn 5.74395e-015 1 -1.59983e-015
vt 10.5134 11.6191
vt 10.5317 11.6103
f 1/28/17 14/29/17 15/30/17

vt 10.4993 11.6863
f 3/31/17 14/29/17 1/28/17

vt 10.4993 11.6307
f 3/31/17 12/32/17 14/29/17

vt 10.4905 11.6729
f 6/33/17 12/32/17 3/31/17

vt 10.4905 11.6441
f 6/33/17 10/34/17 12/32/17

vt 10.4875 11.6585
f 10/34/17 6/33/17 8/35/17

usemtl BackColor
vt -6.72766e-013 10.6693
vn -5.74395e-015 -1 1.59983e-015
vt 0.363547 13.4307
vt 0.363547 7.90788
f 8/36/18 6/37/18 10/38/18

vt 1.42941 5.33465
f 12/39/18 10/38/18 6/37/18

vt 1.42941 16.0039
f 3/40/18 12/39/18 6/37/18

vt 3.12496 3.12496
f 14/41/18 12/39/18 3/40/18

vt 3.12496 18.2136
f 1/42/18 14/41/18 3/40/18

vt 5.33465 1.42941
f 15/43/18 14/41/18 1/42/18

usemtl _7
v 5.845 6.426 -39.9059
vt 10.5317 11.7067
f 1/28/17 15/30/17 17/44/17

usemtl BackColor
vt 5.33465 19.9092
f 17/45/18 15/43/18 1/42/18

usemtl _7
v 5.87768 6.426 -39.423
vt 10.5424 11.6075
f 17/44/17 15/30/17 18/46/17

usemtl BackColor
vt 6.62126 0.896481
f 18/47/18 15/43/18 17/45/18

usemtl Color_D03
vt 4.38156 117.126
v 5.91036 6.426 -39.4095
vt 7.1668 117.126
vn -0.258819 1.01316e-015 0.965926
vt 5.77418 117.126
vn -0.382683 1.1876e-015 0.92388
f 15/48/15 19/49/19 18/50/20

v 5.91036 3.451 -39.4095
vt 7.1668 6.08362e-014
f 15/48/15 20/51/19 19/49/19

vt 4.38156 3.24145e-014
f 20/51/19 15/48/15 16/52/15

usemtl BackColor
vn 0.258819 -1.01316e-015 -0.965926
f 16/52/16 15/48/16 20/51/21

f 19/49/21 20/51/21 15/48/16

usemtl Color_D03
vt 7.79277 5.79873e-014
v 5.9805 6.426 -39.4002
vt 10.578 117.126
vn 0 6.15563e-016 1
vt 7.79277 117.126
f 20/53/19 21/54/22 19/55/19

v 5.9805 3.451 -39.4002
vt 10.578 5.79873e-014
f 21/54/22 20/53/19 22/56/22

usemtl BackColor
vn -0 -6.15563e-016 -1
f 22/56/23 20/53/21 21/54/23

f 19/55/21 21/54/23 20/53/21

usemtl _7
v 5.91036 6.426 -39.933
vt 10.553 11.7123
vt 10.553 11.6047
vt 10.5759 11.6028
f 23/57/17 19/58/17 21/59/17

f 23/57/17 18/46/17 19/58/17

f 17/44/17 18/46/17 23/57/17

usemtl BackColor
vt 7.90788 20.975
f 23/60/18 18/47/18 17/45/18

vt 7.90788 0.363547
f 19/61/18 18/47/18 23/60/18

vn 0.382683 -1.1876e-015 -0.92388
f 18/50/24 19/49/21 15/48/16

vt 10.6693 -1.87381e-013
f 21/62/18 19/61/18 23/60/18

usemtl _7
v 5.9805 6.426 -39.9422
vt 10.5759 11.7142
f 23/57/17 21/59/17 24/63/17

usemtl BackColor
vt 10.6693 21.3386
f 24/64/18 21/62/18 23/60/18

usemtl _7
v 6.05064 6.426 -39.4095
vt 10.5988 11.6047
f 24/63/17 21/59/17 25/65/17

usemtl BackColor
vt 13.4307 0.363547
f 25/66/18 21/62/18 24/64/18

usemtl Color_D03
vt 10.578 5.62875e-014
vt 13.3633 117.126
vn 0.258819 1.76014e-016 0.965926
f 22/67/22 25/68/25 21/54/22

v 6.05064 3.451 -39.4095
vt 13.3633 5.62875e-014
f 25/68/25 22/67/22 26/69/25

usemtl BackColor
vn -0.258819 -1.76014e-016 -0.965926
f 26/69/26 22/67/23 25/68/26

f 21/54/23 25/68/26 22/67/23

usemtl Color_D03
vt 12.5475 5.70845e-014
v 6.116 6.426 -39.4365
vt 15.3327 117.126
vn 0.5 -2.7553e-016 0.866025
vt 12.5475 117.126
f 26/70/25 27/71/27 25/72/25

v 6.116 3.451 -39.4365
vt 15.3327 2.86628e-014
f 27/71/27 26/70/25 28/73/27

usemtl BackColor
vn -0.5 2.7553e-016 -0.866025
f 28/73/28 26/70/26 27/71/28

f 25/72/26 27/71/28 26/70/26

usemtl _7
v 6.05064 6.426 -39.933
vt 10.5988 11.7123
vt 10.6202 11.6103
f 29/74/17 25/65/17 27/75/17

f 24/63/17 25/65/17 29/74/17

usemtl BackColor
vt 13.4307 20.975
f 29/76/18 25/66/18 24/64/18

vt 16.0039 1.42941
f 27/77/18 25/66/18 29/76/18

usemtl _7
v 6.116 6.426 -39.9059
vt 10.6202 11.7067
f 29/74/17 27/75/17 30/78/17

usemtl BackColor
vt 16.0039 19.9092
f 30/79/18 27/77/18 29/76/18

usemtl _7
v 6.17213 6.426 -39.4796
vt 10.6385 11.6191
f 30/78/17 27/75/17 31/80/17

usemtl BackColor
vt 18.2136 3.12496
f 31/81/18 27/77/18 30/79/18

usemtl Color_D03
vt 13.5669 3.26929e-014
vt 16.3522 117.126
vt 13.5669 117.126
f 28/82/27 31/83/4 27/84/27

v 6.17213 3.451 -39.4796
vt 16.3522 3.26929e-014
f 31/83/4 28/82/27 32/85/4

usemtl BackColor
f 32/85/1 28/82/28 31/83/1

f 27/84/28 31/83/1 28/82/28

usemtl Color_D03
v 6.21519 3.451 -39.5357
vt 16.3522 3.98188e-014
vt 13.5669 3.98188e-014
f 33/86/3 31/84/4 32/87/4

v 6.21519 6.426 -39.5357
f 31/84/4 33/86/3 34/83/3

usemtl BackColor
f 32/87/1 31/84/1 33/86/2

f 34/83/2 33/86/2 31/84/1

usemtl Color_D03
v 6.24227 3.451 -39.6011
vt 15.3327 4.90022e-014
vt 12.5475 4.90022e-014
f 35/88/6 34/72/3 33/89/3

v 6.24227 6.426 -39.6011
f 34/72/3 35/88/6 36/71/6

usemtl BackColor
f 33/89/2 34/72/2 35/88/5

f 36/71/5 35/88/5 34/72/2

usemtl Color_D03
v 6.2515 3.451 -39.6712
vt 13.3633 5.85226e-014
vn 1 -1.61725e-015 -0
vt 10.578 5.85226e-014
f 37/90/29 36/54/6 35/91/6

v 6.2515 6.426 -39.6712
f 36/54/6 37/90/29 38/68/29

usemtl BackColor
vn -1 1.61725e-015 0
f 35/91/5 36/54/5 37/90/30

f 38/68/30 37/90/30 36/54/5

usemtl Color_D03
v 6.24227 3.451 -39.7414
vt 10.578 6.63882e-014
vt 7.79277 6.63882e-014
f 39/92/10 38/55/29 37/93/29

v 6.24227 6.426 -39.7414
f 38/55/29 39/92/10 40/54/10

usemtl BackColor
f 37/93/30 38/55/30 39/92/9

f 40/54/9 39/92/9 38/55/30

usemtl Color_D03
v 6.21519 3.451 -39.8067
vt 7.1668 7.08309e-014
vt 4.38156 7.08309e-014
f 41/94/12 40/48/10 39/95/10

v 6.21519 6.426 -39.8067
f 40/48/10 41/94/12 42/49/12

usemtl BackColor
f 39/95/9 40/48/9 41/94/11

f 42/49/11 41/94/11 40/48/9

usemtl Color_D03
v 6.17213 3.451 -39.8629
vt 3.36209 4.23357e-014
vt 0.576843 7.07574e-014
f 43/96/14 42/26/12 41/97/12

v 6.17213 6.426 -39.8629
f 42/26/12 43/96/14 44/25/14

usemtl BackColor
f 41/97/11 42/26/11 43/96/13

f 44/25/13 43/96/13 42/26/11

usemtl Color_D03
v 6.116 3.451 -39.9059
vt -0.576843 6.60354e-014
vt -3.36209 3.76137e-014
f 45/98/16 44/21/14 43/99/14

f 44/21/14 45/98/16 30/23/16

usemtl BackColor
f 43/99/13 44/21/13 45/98/15

f 30/23/15 45/98/15 44/21/13

usemtl Color_D03
vt -7.1668 5.75394e-014
f 45/100/16 29/19/21 30/17/16

v 6.05064 3.451 -39.933
vt -4.38156 5.75394e-014
f 29/19/21 45/100/16 46/101/21

usemtl BackColor
f 46/101/19 45/100/15 29/19/19

f 30/17/15 29/19/19 45/100/15

usemtl Color_D03
vt -10.578 4.69429e-014
vn 0 -6.15563e-016 -1
f 46/102/21 24/15/31 29/12/21

v 5.9805 3.451 -39.9422
vt -7.79277 4.69429e-014
f 24/15/31 46/102/21 47/103/31

usemtl BackColor
vn -0 6.15563e-016 1
f 47/103/32 46/102/19 24/15/32

f 29/12/19 24/15/32 46/102/19

usemtl Color_D03
vt -13.3633 3.63113e-014
f 47/104/31 23/12/26 24/10/31

v 5.91036 3.451 -39.933
vt -10.578 3.63113e-014
f 23/12/26 47/104/31 48/105/26

usemtl BackColor
f 48/105/25 47/104/32 23/12/25

f 24/10/32 23/12/25 47/104/32

usemtl Color_D03
v 5.845 3.451 -39.9059
vt -12.5475 5.60228e-014
vt -15.3327 2.7601e-014
f 49/106/28 23/6/26 48/107/26

f 23/6/26 49/106/28 17/8/28

usemtl BackColor
f 48/107/25 23/6/25 49/106/27

f 17/8/27 49/106/27 23/6/25

usemtl Color_D03
vt -16.3522 5.06179e-014
f 49/108/28 1/3/1 17/1/28

vt -13.5669 5.06179e-014
f 1/3/1 49/108/28 4/109/1

usemtl BackColor
f 4/109/4 49/108/27 1/3/4

f 17/1/27 1/3/4 49/108/27

f 4/4/4 1/1/4 2/2/3

usemtl _7
vt 10.6385 11.6979
f 30/78/17 31/80/17 44/110/17

usemtl BackColor
vt 18.2136 18.2136
f 44/111/18 31/81/18 30/79/18

usemtl _7
vt 10.6526 11.6307
f 44/110/17 31/80/17 34/112/17

usemtl BackColor
vt 19.9092 5.33465
f 34/113/18 31/81/18 44/111/18

usemtl _7
vt 10.6526 11.6863
f 44/110/17 34/112/17 42/114/17

usemtl BackColor
vt 19.9092 16.0039
f 42/115/18 34/113/18 44/111/18

usemtl _7
vt 10.6614 11.6441
f 42/114/17 34/112/17 36/116/17

usemtl BackColor
vt 20.975 7.90788
f 36/117/18 34/113/18 42/115/18

usemtl _7
vt 10.6614 11.6729
f 42/114/17 36/116/17 40/118/17

usemtl BackColor
vt 20.975 13.4307
f 40/119/18 36/117/18 42/115/18

usemtl _7
vt 10.6644 11.6585
f 40/118/17 36/116/17 38/120/17

usemtl BackColor
vt 21.3386 10.6693
f 38/121/18 36/117/18 40/119/18

f 11/22/12 12/21/12 13/20/14

f 9/18/10 10/17/10 11/16/12

f 7/14/8 8/12/8 9/13/10

f 5/11/6 6/10/6 7/9/8

f 2/7/3 3/6/3 5/5/6

g Mesh2 Group1 AUL016 Model

l 4 2

l 49 4

l 48 49

l 47 48

l 46 47

l 45 46

l 43 45

l 41 43

l 39 41

l 37 39

l 35 37

l 33 35

l 32 33

l 28 32

l 26 28

l 22 26

l 20 22

l 16 20

l 13 16

l 11 13

l 9 11

l 7 9

l 5 7

l 2 5

g Mesh3 Group1 AUL016 Model

l 1 3

l 17 1

l 23 17

l 24 23

l 29 24

l 30 29

l 44 30

l 42 44

l 40 42

l 38 40

l 36 38

l 34 36

l 31 34

l 27 31

l 25 27

l 21 25

l 19 21

l 18 19

l 15 18

l 14 15

l 12 14

l 10 12

l 8 10

l 6 8

l 3 6

g Mesh4 AUL016 Model

usemtl FrontColor
v 4.81767 3.451 -45.9366
vt -55.7607 318.555
vn -6.23968e-016 -1 3.65855e-016
v 4.42513 3.451 -42.1425
vt -40.3068 169.179
v 4.42513 3.451 -45.9366
vt -40.3068 318.555
f 50/122/33 51/123/33 52/124/33

v 12.3575 3.451 -37.8453
vt -352.605 -3.50847e-028
f 53/125/33 51/123/33 50/122/33

v 4.42461 3.451 -42.1409
vt -40.2862 169.118
f 53/125/33 54/126/33 51/123/33

v 4.41495 3.451 -42.1125
vt -39.9059 167.997
f 53/125/33 55/127/33 54/126/33

v 4.07863 3.451 -41.1208
vt -26.665 128.956
f 53/125/33 56/128/33 55/127/33

v 3.79388 3.451 -40.082
vt -15.4541 88.0565
f 53/125/33 57/129/33 56/128/33

v 3.57135 3.451 -39.028
vt -6.69325 46.5628
f 53/125/33 58/130/33 57/129/33

v 3.41184 3.451 -37.9627
vt -0.413264 4.62187
f 53/125/33 59/131/33 58/130/33

v 3.40134 3.451 -37.8453
vt 2.30545e-028 -1.35177e-028
f 59/131/33 53/125/33 60/132/33

usemtl _Tile_Ceramic_Natural_15
vt 6.45584 34.9767
vn 6.23968e-016 1 -3.65855e-016
vt 0.103956 34.9767
vt 6.4484 35.06
f 60/133/34 53/134/34 59/135/34

usemtl Color_D03
v 3.40134 6.426 -37.8453
vt 0 117.126
vn 0 0 -1
vt -352.605 7.38964e-013
vt 0 3.69482e-013
f 61/136/35 53/137/35 60/138/35

v 12.3575 6.426 -37.8453
vt -352.605 117.126
f 53/137/35 61/136/35 62/139/35

usemtl _7
vt 3.16437 3.6243
vn -0 -0 1
vt 0.240386 3.6243
vt 3.16437 4.23537
f 60/140/36 53/141/36 61/142/36

vt 0.240386 4.23537
f 62/143/36 61/142/36 53/141/36

usemtl Color_D03
v 12.1145 6.426 -37.8453
vt -343.038 117.126
f 62/139/35 61/136/35 63/144/35

usemtl _7
vt 0.319719 4.23537
f 63/145/36 61/142/36 62/143/36

usemtl Color_D03
vt 1.57645e-014 117.126
vn -1 -4.84889e-016 4.47087e-017
v 12.3575 5.783 -37.9259
vt -3.17017 91.811
vt 1.57645e-014 5.6799e-013
f 62/146/37 64/147/37 53/148/37

v 12.3575 6.426 -39.4997
vt -65.1313 117.126
f 64/147/37 62/146/37 65/149/37

usemtl _7
vt -8.08082 3.6243
vn 1 4.84889e-016 -4.47087e-017
vt -8.1071 4.1033
vt -8.08082 4.23537
f 53/150/38 64/151/38 62/152/38

usemtl Color_D03
v 12.3575 3.451 -37.9259
vt -3.17017 -4.43935e-016
f 66/153/37 53/148/37 64/147/37

usemtl FrontColor
v 12.3575 3.451 -39.3049
vt -352.605 57.4615
vt -352.605 3.17017
f 53/125/33 67/154/33 66/155/33

v 12.3575 3.451 -39.4997
vt -352.605 65.1313
f 53/125/33 68/156/33 67/154/33

v 9.42443 3.451 -45.9366
vt -237.13 318.555
f 53/125/33 69/157/33 68/156/33

v 8.77911 3.451 -45.9366
vt -211.723 318.555
f 53/125/33 70/158/33 69/157/33

f 53/125/33 50/122/33 70/158/33

usemtl _Tile_Ceramic_Natural_15
vt 5.45136 40.7152
vt 5.72975 38.0243
f 50/159/34 51/160/34 53/134/34

vt 5.72975 40.7152
f 52/161/34 51/160/34 50/159/34

usemtl Color_D03
vt 318.555 2.84019e-013
vn 1 4.91651e-018 -3.74185e-033
v 4.42513 6.426 -42.1425
vt 169.179 117.126
vt 169.179 3.97706e-013
f 52/162/39 71/163/39 51/164/39

v 4.42513 6.426 -45.9366
vt 318.555 117.126
f 71/163/39 52/162/39 72/165/39

usemtl _7
vt 18.0334 3.6243
vn -1 -4.91651e-018 3.74185e-033
vt 18.0334 4.23537
vt 19.2721 3.6243
f 51/166/40 71/167/40 52/168/40

usemtl FrontColor
v 4.42461 6.426 -42.1409
vt 173.097 117.126
vn 0.947015 -9.10166e-019 0.32119
vt 173.161 3.97889e-013
vt 173.161 117.126
f 73/169/41 51/170/41 71/171/41

vt 173.097 5.11576e-013
f 51/170/41 73/169/41 54/172/41

usemtl _7
vt 17.7679 3.6243
vn -0.947015 9.10166e-019 -0.32119
vt 17.7679 4.23537
vt 17.7684 3.6243
f 54/173/42 73/174/42 51/175/42

usemtl Color_D03
v 4.41495 6.426 -42.1125
vt 171.913 117.126
f 74/176/41 54/172/41 73/169/41

vt 171.913 5.11576e-013
f 54/172/41 74/176/41 55/177/41

usemtl _7
vt 17.7581 3.6243
vt 17.7581 4.23537
f 55/178/42 74/179/42 54/173/42

usemtl Color_D03
v 4.07863 6.426 -41.1208
vt 130.688 117.126
f 75/180/41 55/177/41 74/176/41

vt 130.688 5.11576e-013
f 55/177/41 75/180/41 56/181/41

usemtl _7
vt 17.4162 3.6243
vt 17.4162 4.23537
f 56/182/42 75/183/42 55/178/42

usemtl Color_D03
v 3.79388 6.426 -40.082
vt 89.0094 117.126
vn 0.964426 1.60397e-019 0.264354
vt 131.418 5.11592e-013
vt 131.418 117.126
f 76/184/43 56/185/43 75/186/43

vt 89.0094 5.11592e-013
f 56/185/43 76/184/43 57/187/43

usemtl _7
vt 17.2226 3.6243
vn -0.964426 -1.60397e-019 -0.264354
vt 17.2226 4.23537
vt 17.5743 3.6243
f 57/188/44 76/189/44 56/190/44

usemtl Color_D03
v 3.57135 6.426 -39.028
vt 46.9411 117.126
vn 0.978429 1.23039e-018 0.206583
vt 89.3496 5.11595e-013
vt 89.3496 117.126
f 77/191/45 57/192/45 76/193/45

vt 46.9411 5.11595e-013
f 57/192/45 77/191/45 58/194/45

usemtl _7
vt 16.9826 3.6243
vn -0.978429 -1.23039e-018 -0.206583
vt 16.9826 4.23537
vt 17.3343 3.6243
f 58/195/46 77/196/46 57/197/46

usemtl Color_D03
v 3.41184 6.426 -37.9627
vt 4.63211 117.126
vn 0.988975 2.29604e-018 0.148083
vt 47.0406 5.11591e-013
vt 47.0406 117.126
f 78/198/47 58/199/47 77/200/47

vt 4.63211 5.11591e-013
f 58/199/47 78/198/47 59/201/47

usemtl _7
vt 16.6971 3.6243
vn -0.988975 -2.29604e-018 -0.148083
vt 16.6971 4.23537
vt 17.0488 3.6243
f 59/202/48 78/203/48 58/204/48

usemtl Color_D03
vn 0.996026 1.54334e-019 0.0890597
vt 4.6403 5.11591e-013
vt 4.6403 117.126
f 61/136/49 59/205/49 78/206/49

f 59/205/49 61/136/49 60/138/49

usemtl _7
vt 16.6803 3.6243
vn -0.996026 -1.54334e-019 -0.0890597
vt 16.6803 4.23537
vt 16.7188 3.6243
f 60/207/50 61/208/50 59/209/50

vt 16.7188 4.23537
f 78/210/50 59/209/50 61/208/50

vt 17.0488 4.23537
f 77/211/48 58/204/48 78/203/48

usemtl _Tile_Ceramic_Natural_15
vt 6.33527 35.8155
f 58/212/34 59/135/34 53/134/34

vt 6.17745 36.563
f 57/213/34 58/212/34 53/134/34

vt 5.97549 37.2998
f 56/214/34 57/213/34 53/134/34

vt 5.73697 38.0031
f 55/215/34 56/214/34 53/134/34

vt 5.73012 38.0233
f 54/216/34 55/215/34 53/134/34

f 51/160/34 54/216/34 53/134/34

usemtl _7
vt 17.3343 4.23537
f 76/217/46 57/197/46 77/196/46

vt 17.5743 4.23537
f 75/218/44 56/190/44 76/189/44

f 74/179/42 55/178/42 75/183/42

f 73/174/42 54/173/42 74/179/42

vt 17.7684 4.23537
f 71/219/42 51/175/42 73/174/42

vt 19.2721 4.23537
f 72/220/40 52/168/40 71/167/40

usemtl Color_D03
vt 40.3068 2.78697e-013
vn 1.4713e-014 -1.73299e-017 1
v 4.81767 6.426 -45.9366
vt 55.7607 117.126
vt 40.3068 117.126
f 52/221/51 79/222/51 72/223/51

vt 55.7607 2.78697e-013
f 79/222/51 52/221/51 50/224/51

usemtl _7
vt 5.84769 3.6243
vn -1.4713e-014 1.73299e-017 -1
vt 5.71954 3.6243
vt 5.84769 4.23537
f 50/225/52 52/226/52 79/227/52

vt 5.71954 4.23537
f 72/228/52 79/227/52 52/226/52

usemtl Color_D03
v 4.81767 3.451 -46.2626
vt 331.389 2.83943e-013
vn 1 4.91651e-018 -0
vt 318.555 2.83943e-013
f 80/229/53 79/165/53 50/230/53

v 4.81767 6.426 -46.2626
vt 331.389 117.126
f 79/165/53 80/229/53 81/231/53

usemtl _7
vn -1 -4.91651e-018 0
vt 19.3785 3.6243
f 50/168/54 79/220/54 80/232/54

vt 19.3785 4.23537
f 81/233/54 80/232/54 79/220/54

usemtl Color_D03
vt 55.7607 2.78474e-013
vn -3.1581e-033 -1.73299e-017 1
v 8.77911 6.426 -46.2626
vt 211.723 117.126
f 80/234/55 82/235/55 81/222/55

v 8.77911 3.451 -46.2626
vt 211.723 2.50052e-013
f 82/235/55 80/234/55 83/236/55

usemtl _7
vt 7.14101 3.6243
vn 3.1581e-033 1.73299e-017 -1
vt 7.14101 4.23537
f 83/237/56 80/225/56 82/238/56

usemtl FrontColor
vt -211.723 331.389
vt -55.7607 331.389
f 83/239/33 50/122/33 80/240/33

f 70/158/33 50/122/33 83/239/33

usemtl _Tile_Ceramic_Natural_15
vt 2.64182 40.7152
f 70/241/34 50/159/34 53/134/34

vt 2.64182 40.9464
f 83/242/34 50/159/34 70/241/34

vt 5.45136 40.9464
f 80/243/34 50/159/34 83/242/34

usemtl Color_D03
vt -318.555 2.83176e-013
vn -1 -4.91651e-018 1.08874e-032
vt -331.389 117.126
vt -331.389 2.54754e-013
f 70/244/57 82/245/57 83/246/57

v 8.77911 6.426 -45.9366
vt -318.555 117.126
f 82/245/57 70/244/57 84/247/57

usemtl _7
vt -10.7224 4.23537
vn 1 4.91651e-018 -1.08874e-032
vt -10.7224 3.6243
vt -10.8289 4.23537
f 84/248/58 70/249/58 82/250/58

usemtl Color_D03
vt 211.723 2.78697e-013
vn 0 -1.73299e-017 1
v 9.42443 6.426 -45.9366
vt 237.13 117.126
f 70/251/59 85/252/59 84/235/59

vt 237.13 2.78697e-013
f 85/252/59 70/251/59 69/253/59

usemtl _7
vt 7.35169 3.6243
vn -0 1.73299e-017 -1
vt 7.35169 4.23537
f 69/254/60 70/237/60 85/255/60

usemtl _Tile_Ceramic_Natural_15
vt 2.18415 40.7152
f 69/256/34 70/241/34 53/134/34

vt 0.103956 36.15
f 68/257/34 69/256/34 53/134/34

usemtl FrontColor
v 13.4632 3.451 -46.2626
vt -396.136 331.389
f 69/157/33 86/258/33 68/156/33

v 9.42443 3.451 -46.2626
vt -237.13 331.389
f 86/258/33 69/157/33 87/259/33

usemtl _Tile_Ceramic_Natural_15
vt 2.18415 40.9464
vt -0.680228 40.9464
f 87/260/34 69/256/34 86/261/34

f 68/257/34 86/261/34 69/256/34

usemtl FrontColor
v 13.4632 3.451 -39.4997
vt -396.136 65.1313
f 68/156/33 86/258/33 88/262/33

usemtl _Tile_Ceramic_Natural_15
vt -0.680228 36.15
f 88/263/34 86/261/34 68/257/34

usemtl Color_D03
vt -65.1313 1.11739e-013
vn -1 -4.91651e-018 -2.09925e-033
v 13.4632 6.426 -46.2626
vt -331.389 2.25426e-013
f 88/264/61 89/245/61 86/265/61

v 13.4632 6.426 -39.4997
f 89/245/61 88/264/61 90/149/61

usemtl _7
vt -8.62092 4.23537
vn 1 4.91651e-018 2.09925e-033
vt -8.62092 3.6243
f 90/266/62 88/267/62 89/250/62

usemtl Color_D03
vt -396.136 1.12558e-013
vn -4.52587e-032 1.73299e-017 -1
vt -396.136 117.126
f 88/268/63 65/139/63 90/269/63

vt -352.605 -1.12872e-015
f 65/139/63 88/268/63 68/270/63

usemtl _7
vn 4.52587e-032 -1.73299e-017 1
vt -0.120599 3.6243
f 68/141/64 88/271/64 65/143/64

vt -0.120599 4.23537
f 90/272/64 65/143/64 88/271/64

usemtl Color_D03
vt -57.4615 -4.43935e-016
vt -65.1313 -1.70974e-013
f 67/273/37 65/149/37 68/274/37

v 12.3575 5.783 -39.3049
vt -57.4615 91.811
f 91/275/37 65/149/37 67/273/37

f 64/147/37 65/149/37 91/275/37

usemtl _7
f 65/266/38 62/152/38 64/151/38

vt -8.55732 4.1033
f 91/276/38 65/266/38 64/151/38

vt -8.55732 3.6243
f 67/277/38 65/266/38 91/276/38

f 68/267/38 65/266/38 67/277/38

usemtl _Tile_Ceramic_Natural_15
vt 0.103956 36.0119
f 67/278/34 68/257/34 53/134/34

vt 0.103956 35.0338
f 66/279/34 67/278/34 53/134/34

usemtl _7
vt -8.1071 3.6243
f 64/151/38 53/150/38 66/280/38

vt -10.8289 3.6243
f 86/281/62 89/250/62 88/267/62

usemtl Color_D03
vt 396.136 117.126
vn -3.09763e-033 -1.73299e-017 1
vt 237.13 2.50052e-013
vt 396.136 2.21631e-013
f 89/282/65 87/283/65 86/284/65

v 9.42443 6.426 -46.2626
f 87/283/65 89/282/65 92/252/65

usemtl _7
vt 8.67026 3.6243
vn 3.09763e-033 1.73299e-017 -1
vt 8.67026 4.23537
f 86/285/66 87/254/66 89/286/66

f 92/255/66 89/286/66 87/254/66

f 84/238/60 85/255/60 70/237/60

f 83/281/58 82/250/58 70/249/58

f 81/227/56 82/238/56 80/225/56

g Mesh5 AUL016 Model

l 88 68

l 88 86

l 88 90

l 90 89

l 90 65

l 68 65

l 67 68

l 66 67

l 53 66

l 60 53

l 59 60

l 58 59

l 57 58

l 56 57

l 55 56

l 54 55

l 54 51

l 54 73

l 73 71

l 73 74

l 55 74

l 74 75

l 56 75

l 75 76

l 57 76

l 76 77

l 58 77

l 77 78

l 59 78

l 78 61

l 60 61

l 61 63

l 63 62

l 53 62

l 62 65

l 51 71

l 52 51

l 52 50

l 52 72

l 72 71

l 72 79

l 50 79

l 50 80

l 83 80

l 83 70

l 83 82

l 82 84

l 82 81

l 80 81

l 79 81

l 70 84

l 70 69

l 87 69

l 86 87

l 86 89

l 89 92

l 87 92

l 69 85

l 84 85

l 64 66

l 91 64

l 67 91

