# Alias OBJ Model File
# Exported from SketchUp, (c) 2000-2012 Trimble Navigation Limited
# File units = meters

mtllib AUL017.mtl

g Mesh1 Group1 AUL017 Model

usemtl Color_D03
v 5.82913 6.426 -36.584
vt -16.3522 117.126
vn -0.707107 7.08297e-016 -0.707107
v 5.78607 3.451 -36.5278
vt -13.5669 4.90241e-014
vn -0.866025 1.09279e-015 -0.5
v 5.78607 6.426 -36.5278
vt -13.5669 117.126
f 1/1/1 2/2/2 3/3/2

v 5.82913 3.451 -36.584
vt -16.3522 4.90241e-014
f 2/2/2 1/1/1 4/4/1

usemtl BackColor
vn 0.866025 -1.09279e-015 0.5
vn 0.707107 -7.08297e-016 0.707107
f 3/3/3 2/2/3 1/1/4

usemtl Color_D03
v 5.75899 3.451 -36.4625
vt -12.5475 5.07974e-014
vn -0.965926 1.40282e-015 -0.258819
vt -15.3327 117.126
vt -15.3327 5.07974e-014
f 5/5/5 3/6/2 2/7/2

v 5.75899 6.426 -36.4625
vt -12.5475 117.126
f 3/6/2 5/5/5 6/8/5

usemtl BackColor
vn 0.965926 -1.40282e-015 0.258819
f 6/8/6 5/5/6 3/6/3

usemtl Color_D03
v 5.74976 3.451 -36.3923
vt -10.578 5.47224e-014
vn -1 1.61725e-015 -0
vt -13.3633 117.126
vt -13.3633 5.47224e-014
f 7/9/7 6/10/5 5/11/5

v 5.74976 6.426 -36.3923
vt -10.578 117.126
f 6/10/5 7/9/7 8/12/7

usemtl BackColor
vn 1 -1.61725e-015 0
f 8/12/8 7/9/8 6/10/6

usemtl Color_D03
v 5.75899 3.451 -36.3222
vt -7.79277 5.91883e-014
vn -0.965926 1.72146e-015 0.258819
vt -10.578 5.91883e-014
f 9/13/9 8/12/7 7/14/7

v 5.75899 6.426 -36.3222
vt -7.79277 117.126
f 8/12/7 9/13/9 10/15/9

usemtl BackColor
vn 0.965926 -1.72146e-015 -0.258819
f 10/15/10 9/13/10 8/12/8

usemtl Color_D03
v 5.78607 3.451 -36.2568
vt -4.38156 6.26588e-014
vn -0.866025 1.70836e-015 0.5
vt -7.1668 117.126
vt -7.1668 6.26588e-014
f 11/16/11 10/17/9 9/18/9

v 5.78607 6.426 -36.2568
vt -4.38156 117.126
f 10/17/9 11/16/11 12/19/11

usemtl BackColor
vn 0.866025 -1.70836e-015 -0.5
f 12/19/12 11/16/12 10/17/10

usemtl Color_D03
v 5.82913 3.451 -36.2007
vt -0.576843 6.41071e-014
vn -0.707107 1.57883e-015 0.707107
vt -3.36209 117.126
vt -3.36209 6.41071e-014
f 13/20/13 12/21/11 11/22/11

v 5.82913 6.426 -36.2007
vt -0.576843 117.126
f 12/21/11 13/20/13 14/23/13

usemtl BackColor
vn 0.707107 -1.57883e-015 -0.707107
f 14/23/14 13/20/14 12/21/12

usemtl Color_D03
vt 0.576843 6.32969e-014
v 5.88526 6.426 -36.1576
vt 3.36209 117.126
vn -0.5 1.34172e-015 0.866025
vt 0.576843 117.126
f 13/24/13 15/25/15 14/26/13

v 5.88526 3.451 -36.1576
vt 3.36209 3.48752e-014
f 15/25/15 13/24/13 16/27/15

usemtl BackColor
vn 0.5 -1.34172e-015 -0.866025
f 16/27/16 13/24/14 15/25/16

f 14/26/14 15/25/16 13/24/14

usemtl _7
vt 10.5134 11.6979
vn 5.74395e-015 1 -1.59983e-015
vt 10.5134 11.6191
vt 10.5317 11.6103
f 1/28/17 14/29/17 15/30/17

vt 10.4993 11.6863
f 3/31/17 14/29/17 1/28/17

vt 10.4993 11.6307
f 3/31/17 12/32/17 14/29/17

vt 10.4905 11.6729
f 6/33/17 12/32/17 3/31/17

vt 10.4905 11.6441
f 6/33/17 10/34/17 12/32/17

vt 10.4875 11.6585
f 10/34/17 6/33/17 8/35/17

usemtl BackColor
vt -6.72766e-013 10.6693
vn -5.74395e-015 -1 1.59983e-015
vt 0.363547 13.4307
vt 0.363547 7.90788
f 8/36/18 6/37/18 10/38/18

vt 1.42941 5.33465
f 12/39/18 10/38/18 6/37/18

vt 1.42941 16.0039
f 3/40/18 12/39/18 6/37/18

vt 3.12496 3.12496
f 14/41/18 12/39/18 3/40/18

vt 3.12496 18.2136
f 1/42/18 14/41/18 3/40/18

vt 5.33465 1.42941
f 15/43/18 14/41/18 1/42/18

usemtl _7
v 5.88526 6.426 -36.627
vt 10.5317 11.7067
f 1/28/17 15/30/17 17/44/17

usemtl BackColor
vt 5.33465 19.9092
f 17/45/18 15/43/18 1/42/18

usemtl _7
v 5.91794 6.426 -36.1441
vt 10.5424 11.6075
f 17/44/17 15/30/17 18/46/17

usemtl BackColor
vt 6.62126 0.896481
f 18/47/18 15/43/18 17/45/18

usemtl Color_D03
vt 4.38156 117.126
v 5.95062 6.426 -36.1306
vt 7.1668 117.126
vn -0.258819 1.01316e-015 0.965926
vt 5.77418 117.126
vn -0.382683 1.1876e-015 0.92388
f 15/48/15 19/49/19 18/50/20

v 5.95062 3.451 -36.1306
vt 7.1668 6.08362e-014
f 15/48/15 20/51/19 19/49/19

vt 4.38156 3.24145e-014
f 20/51/19 15/48/15 16/52/15

usemtl BackColor
vn 0.258819 -1.01316e-015 -0.965926
f 16/52/16 15/48/16 20/51/21

f 19/49/21 20/51/21 15/48/16

usemtl Color_D03
vt 7.79277 5.79873e-014
v 6.02076 6.426 -36.1213
vt 10.578 117.126
vn 0 6.15563e-016 1
vt 7.79277 117.126
f 20/53/19 21/54/22 19/55/19

v 6.02076 3.451 -36.1213
vt 10.578 5.79873e-014
f 21/54/22 20/53/19 22/56/22

usemtl BackColor
vn -0 -6.15563e-016 -1
f 22/56/23 20/53/21 21/54/23

f 19/55/21 21/54/23 20/53/21

usemtl _7
v 5.95062 6.426 -36.6541
vt 10.553 11.7123
vt 10.553 11.6047
vt 10.5759 11.6028
f 23/57/17 19/58/17 21/59/17

f 23/57/17 18/46/17 19/58/17

f 17/44/17 18/46/17 23/57/17

usemtl BackColor
vt 7.90788 20.975
f 23/60/18 18/47/18 17/45/18

vt 7.90788 0.363547
f 19/61/18 18/47/18 23/60/18

vn 0.382683 -1.1876e-015 -0.92388
f 18/50/24 19/49/21 15/48/16

vt 10.6693 -1.87381e-013
f 21/62/18 19/61/18 23/60/18

usemtl _7
v 6.02076 6.426 -36.6633
vt 10.5759 11.7142
f 23/57/17 21/59/17 24/63/17

usemtl BackColor
vt 10.6693 21.3386
f 24/64/18 21/62/18 23/60/18

usemtl _7
v 6.0909 6.426 -36.1306
vt 10.5988 11.6047
f 24/63/17 21/59/17 25/65/17

usemtl BackColor
vt 13.4307 0.363547
f 25/66/18 21/62/18 24/64/18

usemtl Color_D03
vt 10.578 5.62875e-014
vt 13.3633 117.126
vn 0.258819 1.76014e-016 0.965926
f 22/67/22 25/68/25 21/54/22

v 6.0909 3.451 -36.1306
vt 13.3633 5.62875e-014
f 25/68/25 22/67/22 26/69/25

usemtl BackColor
vn -0.258819 -1.76014e-016 -0.965926
f 26/69/26 22/67/23 25/68/26

f 21/54/23 25/68/26 22/67/23

usemtl Color_D03
vt 12.5475 5.70845e-014
v 6.15626 6.426 -36.1576
vt 15.3327 117.126
vn 0.5 -2.7553e-016 0.866025
vt 12.5475 117.126
f 26/70/25 27/71/27 25/72/25

v 6.15626 3.451 -36.1576
vt 15.3327 2.86628e-014
f 27/71/27 26/70/25 28/73/27

usemtl BackColor
vn -0.5 2.7553e-016 -0.866025
f 28/73/28 26/70/26 27/71/28

f 25/72/26 27/71/28 26/70/26

usemtl _7
v 6.0909 6.426 -36.6541
vt 10.5988 11.7123
vt 10.6202 11.6103
f 29/74/17 25/65/17 27/75/17

f 24/63/17 25/65/17 29/74/17

usemtl BackColor
vt 13.4307 20.975
f 29/76/18 25/66/18 24/64/18

vt 16.0039 1.42941
f 27/77/18 25/66/18 29/76/18

usemtl _7
v 6.15626 6.426 -36.627
vt 10.6202 11.7067
f 29/74/17 27/75/17 30/78/17

usemtl BackColor
vt 16.0039 19.9092
f 30/79/18 27/77/18 29/76/18

usemtl _7
v 6.21239 6.426 -36.2007
vt 10.6385 11.6191
f 30/78/17 27/75/17 31/80/17

usemtl BackColor
vt 18.2136 3.12496
f 31/81/18 27/77/18 30/79/18

usemtl Color_D03
vt 13.5669 3.26929e-014
vt 16.3522 117.126
vt 13.5669 117.126
f 28/82/27 31/83/4 27/84/27

v 6.21239 3.451 -36.2007
vt 16.3522 3.26929e-014
f 31/83/4 28/82/27 32/85/4

usemtl BackColor
f 32/85/1 28/82/28 31/83/1

f 27/84/28 31/83/1 28/82/28

usemtl Color_D03
v 6.25545 3.451 -36.2568
vt 16.3522 3.98188e-014
vt 13.5669 3.98188e-014
f 33/86/3 31/84/4 32/87/4

v 6.25545 6.426 -36.2568
f 31/84/4 33/86/3 34/83/3

usemtl BackColor
f 32/87/1 31/84/1 33/86/2

f 34/83/2 33/86/2 31/84/1

usemtl Color_D03
v 6.28253 3.451 -36.3222
vt 15.3327 4.90022e-014
vt 12.5475 4.90022e-014
f 35/88/6 34/72/3 33/89/3

v 6.28253 6.426 -36.3222
f 34/72/3 35/88/6 36/71/6

usemtl BackColor
f 33/89/2 34/72/2 35/88/5

f 36/71/5 35/88/5 34/72/2

usemtl Color_D03
v 6.29176 3.451 -36.3923
vt 13.3633 5.85226e-014
vn 1 -1.61725e-015 -0
vt 10.578 5.85226e-014
f 37/90/29 36/54/6 35/91/6

v 6.29176 6.426 -36.3923
f 36/54/6 37/90/29 38/68/29

usemtl BackColor
vn -1 1.61725e-015 0
f 35/91/5 36/54/5 37/90/30

f 38/68/30 37/90/30 36/54/5

usemtl Color_D03
v 6.28253 3.451 -36.4625
vt 10.578 6.63882e-014
vt 7.79277 6.63882e-014
f 39/92/10 38/55/29 37/93/29

v 6.28253 6.426 -36.4625
f 38/55/29 39/92/10 40/54/10

usemtl BackColor
f 37/93/30 38/55/30 39/92/9

f 40/54/9 39/92/9 38/55/30

usemtl Color_D03
v 6.25545 3.451 -36.5278
vt 7.1668 7.08309e-014
vt 4.38156 7.08309e-014
f 41/94/12 40/48/10 39/95/10

v 6.25545 6.426 -36.5278
f 40/48/10 41/94/12 42/49/12

usemtl BackColor
f 39/95/9 40/48/9 41/94/11

f 42/49/11 41/94/11 40/48/9

usemtl Color_D03
v 6.21239 3.451 -36.584
vt 3.36209 4.23357e-014
vt 0.576843 7.07574e-014
f 43/96/14 42/26/12 41/97/12

v 6.21239 6.426 -36.584
f 42/26/12 43/96/14 44/25/14

usemtl BackColor
f 41/97/11 42/26/11 43/96/13

f 44/25/13 43/96/13 42/26/11

usemtl Color_D03
v 6.15626 3.451 -36.627
vt -0.576843 6.60354e-014
vt -3.36209 3.76137e-014
f 45/98/16 44/21/14 43/99/14

f 44/21/14 45/98/16 30/23/16

usemtl BackColor
f 43/99/13 44/21/13 45/98/15

f 30/23/15 45/98/15 44/21/13

usemtl Color_D03
vt -7.1668 5.75394e-014
f 45/100/16 29/19/21 30/17/16

v 6.0909 3.451 -36.6541
vt -4.38156 5.75394e-014
f 29/19/21 45/100/16 46/101/21

usemtl BackColor
f 46/101/19 45/100/15 29/19/19

f 30/17/15 29/19/19 45/100/15

usemtl Color_D03
vt -10.578 4.69429e-014
vn 0 -6.15563e-016 -1
f 46/102/21 24/15/31 29/12/21

v 6.02076 3.451 -36.6633
vt -7.79277 4.69429e-014
f 24/15/31 46/102/21 47/103/31

usemtl BackColor
vn -0 6.15563e-016 1
f 47/103/32 46/102/19 24/15/32

f 29/12/19 24/15/32 46/102/19

usemtl Color_D03
vt -13.3633 3.63113e-014
f 47/104/31 23/12/26 24/10/31

v 5.95062 3.451 -36.6541
vt -10.578 3.63113e-014
f 23/12/26 47/104/31 48/105/26

usemtl BackColor
f 48/105/25 47/104/32 23/12/25

f 24/10/32 23/12/25 47/104/32

usemtl Color_D03
v 5.88526 3.451 -36.627
vt -12.5475 5.60228e-014
vt -15.3327 2.7601e-014
f 49/106/28 23/6/26 48/107/26

f 23/6/26 49/106/28 17/8/28

usemtl BackColor
f 48/107/25 23/6/25 49/106/27

f 17/8/27 49/106/27 23/6/25

usemtl Color_D03
vt -16.3522 5.06179e-014
f 49/108/28 1/3/1 17/1/28

vt -13.5669 5.06179e-014
f 1/3/1 49/108/28 4/109/1

usemtl BackColor
f 4/109/4 49/108/27 1/3/4

f 17/1/27 1/3/4 49/108/27

f 4/4/4 1/1/4 2/2/3

usemtl _7
vt 10.6385 11.6979
f 30/78/17 31/80/17 44/110/17

usemtl BackColor
vt 18.2136 18.2136
f 44/111/18 31/81/18 30/79/18

usemtl _7
vt 10.6526 11.6307
f 44/110/17 31/80/17 34/112/17

usemtl BackColor
vt 19.9092 5.33465
f 34/113/18 31/81/18 44/111/18

usemtl _7
vt 10.6526 11.6863
f 44/110/17 34/112/17 42/114/17

usemtl BackColor
vt 19.9092 16.0039
f 42/115/18 34/113/18 44/111/18

usemtl _7
vt 10.6614 11.6441
f 42/114/17 34/112/17 36/116/17

usemtl BackColor
vt 20.975 7.90788
f 36/117/18 34/113/18 42/115/18

usemtl _7
vt 10.6614 11.6729
f 42/114/17 36/116/17 40/118/17

usemtl BackColor
vt 20.975 13.4307
f 40/119/18 36/117/18 42/115/18

usemtl _7
vt 10.6644 11.6585
f 40/118/17 36/116/17 38/120/17

usemtl BackColor
vt 21.3386 10.6693
f 38/121/18 36/117/18 40/119/18

f 11/22/12 12/21/12 13/20/14

f 9/18/10 10/17/10 11/16/12

f 7/14/8 8/12/8 9/13/10

f 5/11/6 6/10/6 7/9/8

f 2/7/3 3/6/3 5/5/6

g Mesh2 Group1 AUL017 Model

l 4 2

l 49 4

l 48 49

l 47 48

l 46 47

l 45 46

l 43 45

l 41 43

l 39 41

l 37 39

l 35 37

l 33 35

l 32 33

l 28 32

l 26 28

l 22 26

l 20 22

l 16 20

l 13 16

l 11 13

l 9 11

l 7 9

l 5 7

l 2 5

g Mesh3 Group1 AUL017 Model

l 1 3

l 17 1

l 23 17

l 24 23

l 29 24

l 30 29

l 44 30

l 42 44

l 40 42

l 38 40

l 36 38

l 34 36

l 31 34

l 27 31

l 25 27

l 21 25

l 19 21

l 18 19

l 15 18

l 14 15

l 12 14

l 10 12

l 8 10

l 6 8

l 3 6

g Mesh4 AUL017 Model

usemtl FrontColor
v 3.31591 3.451 -36.8898
vt -1.26045 305.839
vn -8.73728e-016 -1 6.61331e-017
v 3.31591 3.451 -34.7364
vt -1.26045 221.06
v 3.28389 3.451 -35.8131
vt 3.97325e-028 263.45
f 50/122/33 51/123/33 52/124/33

v 3.39237 3.451 -37.7449
vt -4.27066 339.505
f 51/123/33 50/122/33 53/125/33

usemtl _Tile_Ceramic_Natural_15
vt 6.53914 33.5355
vn 8.73728e-016 1 -6.61331e-017
vt 6.51643 32.7718
vt 6.51643 34.2991
f 52/126/34 51/127/34 50/128/34

usemtl Color_D03
vt 263.333 4.54705e-013
vn 0.999558 5.42941e-018 -0.0297216
v 3.31591 6.426 -34.7364
vt 220.925 117.126
vt 220.925 4.54705e-013
f 52/129/35 54/130/35 51/131/35

v 3.28389 6.426 -35.8131
vt 263.333 117.126
f 54/130/35 52/129/35 55/132/35

usemtl _7
vt 15.5783 3.6243
vn -0.999558 -5.42941e-018 0.0297216
vt 15.5783 4.23537
vt 15.93 3.6243
f 51/133/36 54/134/36 52/135/36

usemtl Color_D03
v 3.41184 6.426 -33.6635
vt 177.661 117.126
vn 0.996026 6.44037e-018 -0.0890597
vt 220.069 4.54612e-013
vt 220.069 117.126
f 56/136/37 51/137/37 54/138/37

v 3.41184 3.451 -33.6635
vt 177.661 4.54612e-013
f 51/137/37 56/136/37 57/139/37

usemtl _7
vt 15.1223 3.6243
vn -0.996026 -6.44037e-018 0.0890597
vt 15.1223 4.23537
vt 15.474 3.6243
f 57/140/38 56/141/38 51/142/38

usemtl Color_D03
v 3.57135 6.426 -32.5982
vt 133.694 117.126
vn 0.988975 7.42857e-018 -0.148083
vt 176.102 4.54514e-013
vt 176.102 117.126
f 58/143/39 57/144/39 56/145/39

v 3.57135 3.451 -32.5982
vt 133.694 4.54514e-013
f 57/144/39 58/143/39 59/146/39

usemtl _7
vt 14.6274 3.6243
vn -0.988975 -7.42857e-018 0.148083
vt 14.6274 4.23537
vt 14.9791 3.6243
f 59/147/40 58/148/40 57/149/40

usemtl Color_D03
v 3.79388 6.426 -31.5443
vt 89.1799 117.126
vn 0.978429 8.39052e-018 -0.206583
vt 131.588 4.54417e-013
vt 131.588 117.126
f 60/150/41 59/151/41 58/152/41

v 3.79388 3.451 -31.5443
vt 89.1799 4.54417e-013
f 59/151/41 60/150/41 61/153/41

usemtl _7
vt 14.0953 3.6243
vn -0.978429 -8.39052e-018 0.206583
vt 14.0953 4.23537
vt 14.447 3.6243
f 61/154/42 60/155/42 59/156/42

usemtl Color_D03
v 4.07863 6.426 -30.5054
vt 44.2758 117.126
vn 0.964426 9.32282e-018 -0.264354
vt 86.6843 4.54332e-013
vt 86.6843 117.126
f 62/157/43 61/158/43 60/159/43

v 4.07863 3.451 -30.5054
vt 44.2758 4.54332e-013
f 61/158/43 62/157/43 63/160/43

usemtl _7
vt 13.5279 3.6243
vn -0.964426 -9.32282e-018 0.264354
vt 13.5279 4.23537
vt 13.8795 3.6243
f 63/161/44 62/162/44 61/163/44

usemtl Color_D03
v 4.4032 6.426 -29.5485
vt 1.76463 117.126
vn 0.947015 1.02222e-017 -0.32119
vt 41.5488 4.54266e-013
vt 41.5488 117.126
f 64/164/45 63/165/45 62/166/45

v 4.4032 3.451 -29.5485
vt 1.76463 4.54266e-013
f 63/165/45 64/164/45 65/167/45

usemtl _7
vt 12.9489 3.6243
vn -0.947015 -1.02222e-017 0.32119
vt 12.9489 4.23537
vt 13.2788 3.6243
f 65/168/46 64/169/46 63/170/46

usemtl Color_D03
v 4.42461 6.426 -29.4853
vt -0.859741 117.126
f 66/171/45 65/167/45 64/164/45

v 4.42461 3.451 -29.4853
vt -0.859741 4.54266e-013
f 65/167/45 66/171/45 67/172/45

usemtl _7
vt 12.9271 3.6243
vt 12.9271 4.23537
f 67/173/46 66/174/46 65/168/46

usemtl FrontColor
v 4.42513 6.426 -29.4838
vt -0.923903 117.126
f 68/175/45 67/172/45 66/171/45

v 4.42513 3.451 -29.4838
vt -0.923903 3.40579e-013
f 67/172/45 68/175/45 69/176/45

usemtl _7
vt 12.9266 3.6243
vt 12.9266 4.23537
f 69/177/46 68/178/46 67/173/46

usemtl Color_D03
v 4.42513 6.426 -29.3027
vt 7.13158 117.126
vn 1 4.91651e-018 3.91878e-032
vt 14.2632 3.4084e-013
vt 14.2632 117.126
f 70/179/47 69/180/47 68/181/47

v 4.42513 3.451 -29.3027
vt 7.13158 2.83996e-013
f 69/180/47 70/179/47 71/182/47

usemtl _7
vt 13.8415 3.6243
vn -1 -4.91651e-018 -3.91878e-032
vt 13.8415 4.23537
vt 13.9006 3.6243
f 71/183/48 70/184/48 69/185/48

usemtl Color_D03
vt -44.9308 117.126
vn 0 1.73299e-017 -1
v 4.80813 3.451 -29.3027
vt -60.0096 2.84094e-013
vt -44.9308 2.84094e-013
f 70/186/49 72/187/49 71/188/49

v 4.80813 6.426 -29.3027
vt -60.0096 117.126
f 72/187/49 70/186/49 73/189/49

usemtl _7
vt 2.83012 3.6243
vn -0 -1.73299e-017 1
vt 2.70508 3.6243
vt 2.83012 4.23537
f 71/190/50 72/191/50 70/192/50

usemtl FrontColor
vt -44.9308 7.13158
v 12.3575 3.451 -37.7449
vt -357.229 339.505
vt -60.0096 7.13158
f 71/193/33 74/194/33 72/195/33

vt -44.9308 14.2632
f 69/196/33 74/194/33 71/193/33

vt -44.9102 14.3239
f 67/197/33 74/194/33 69/196/33

vt -44.0673 16.8092
f 65/198/33 74/194/33 67/197/33

vt -31.2891 54.4854
f 63/199/33 74/194/33 65/198/33

vt -20.0782 95.3853
f 61/200/33 74/194/33 63/199/33

vt -11.3173 136.879
f 59/201/33 74/194/33 61/200/33

vt -5.03734 178.82
f 57/202/33 74/194/33 59/201/33

f 57/202/33 53/125/33 74/194/33

f 51/123/33 53/125/33 57/202/33

usemtl _Tile_Ceramic_Natural_15
vt 6.46221 34.9055
f 53/203/34 50/128/34 51/127/34

usemtl Color_D03
vt 338.536 3.12622e-013
vn 0.996026 -6.39751e-019 0.0890597
v 3.31591 6.426 -36.8898
vt 304.736 117.126
vt 304.736 4.54731e-013
f 53/204/51 75/205/51 50/206/51

v 3.39237 6.426 -37.7449
vt 338.536 117.126
f 75/205/51 53/204/51 76/207/51

usemtl _7
vt 16.3671 3.6243
vn -0.996026 6.39751e-019 -0.0890597
vt 16.3671 4.23537
vt 16.6474 3.6243
f 50/208/52 75/209/52 53/210/52

usemtl Color_D03
vn 0.999558 4.39927e-018 0.0297216
vt 305.742 4.54782e-013
vt 305.742 117.126
f 55/132/53 50/211/53 75/212/53

vt 263.333 4.54782e-013
f 50/211/53 55/132/53 52/213/53

usemtl _7
vt 15.9937 3.6243
vn -0.999558 -4.39927e-018 -0.0297216
vt 15.9937 4.23537
vt 16.3454 3.6243
f 52/214/54 55/215/54 50/216/54

vt 15.93 4.23537
f 55/217/36 52/135/36 54/134/36

vt 16.3454 4.23537
f 75/218/54 50/216/54 55/215/54

vt 16.6474 4.23537
f 76/219/52 53/210/52 75/209/52

usemtl Color_D03
vt 4.27066 3.12639e-013
vn 0 0 1
v 12.1145 6.426 -37.7449
vt 347.662 117.126
vt 4.27066 117.126
f 53/220/55 77/221/55 76/222/55

v 12.3575 6.426 -37.7449
vt 357.229 117.126
f 53/220/55 78/223/55 77/221/55

vt 357.229 8.52651e-014
f 78/223/55 53/220/55 74/224/55

usemtl _7
vt 8.30927 3.6243
vn -0 -0 -1
vt 5.38236 3.6243
vt 8.30927 4.23537
f 74/225/56 53/226/56 78/227/56

usemtl _Tile_Ceramic_Natural_15
vt 0.103956 34.9055
vt 6.4484 32.0109
f 74/228/34 53/203/34 57/229/34

f 57/229/34 53/203/34 51/127/34

vt 6.33527 31.2554
f 59/230/34 74/228/34 57/229/34

vt 6.17745 30.5079
f 61/231/34 74/228/34 59/230/34

vt 5.97549 29.7711
f 63/232/34 74/228/34 61/231/34

vt 5.7453 29.0924
f 65/233/34 74/228/34 63/232/34

vt 5.73012 29.0477
f 67/234/34 74/228/34 65/233/34

vt 5.72975 29.0466
f 69/235/34 74/228/34 67/234/34

vt 5.72975 28.9181
f 71/236/34 74/228/34 69/235/34

vt 5.45812 28.9181
f 72/237/34 74/228/34 71/236/34

usemtl FrontColor
v 4.80813 3.451 -29.1215
vt -60.0096 -2.22636e-029
f 72/195/33 74/194/33 79/238/33

usemtl _Tile_Ceramic_Natural_15
vt 5.45812 28.7896
f 79/239/34 74/228/34 72/237/34

usemtl FrontColor
v 11.4438 3.451 -29.1215
vt -321.257 -2.98407e-029
f 79/238/33 74/194/33 80/240/33

usemtl _Tile_Ceramic_Natural_15
vt 0.751959 28.7896
f 80/241/34 74/228/34 79/239/34

usemtl FrontColor
v 11.7152 3.451 -29.4267
vt -331.94 12.0157
f 80/240/33 74/194/33 81/242/33

usemtl _Tile_Ceramic_Natural_15
vt 0.559508 29.0061
f 81/243/34 74/228/34 80/241/34

usemtl FrontColor
v 12.2902 3.451 -30.0734
vt -354.577 37.4759
f 81/242/33 74/194/33 82/244/33

usemtl _Tile_Ceramic_Natural_15
vt 0.15172 29.4647
f 82/245/34 74/228/34 81/243/34

usemtl FrontColor
v 12.3575 3.451 -36.0332
vt -357.229 272.113
f 82/244/33 74/194/33 83/246/33

usemtl _Tile_Ceramic_Natural_15
vt 0.103956 33.6915
f 83/247/34 74/228/34 82/245/34

usemtl FrontColor
v 12.3575 3.451 -37.6756
vt -357.229 336.776
f 83/246/33 74/194/33 84/248/33

usemtl _Tile_Ceramic_Natural_15
vt 0.103956 34.8564
f 84/249/34 74/228/34 83/247/34

usemtl Color_D03
vt -336.776 1.13687e-013
vn -1 0 -0
vt -339.505 117.126
vt -339.505 8.52651e-014
f 84/250/57 78/251/57 74/252/57

v 12.3575 5.783 -37.6756
vt -336.776 91.811
f 85/253/57 78/251/57 84/250/57

v 12.3575 5.783 -36.2344
vt -280.034 91.811
f 86/254/57 78/251/57 85/253/57

v 12.3575 6.426 -36.0332
vt -272.113 117.126
f 86/254/57 87/255/57 78/251/57

vt -272.113 5.68434e-014
f 87/255/57 86/254/57 83/256/57

usemtl _7
vt -7.48919 3.6243
vn 1 -0 0
vt -7.55487 4.1033
vt -7.48919 4.23537
f 83/257/58 86/258/58 87/259/58

usemtl Color_D03
v 12.3575 3.451 -36.2344
vt -280.034 1.13687e-013
f 88/260/57 83/256/57 86/254/57

usemtl FrontColor
vt -357.229 280.034
f 83/246/33 84/248/33 88/261/33

usemtl _Tile_Ceramic_Natural_15
vt 0.103956 33.8342
f 88/262/34 84/249/34 83/247/34

usemtl _7
vt -7.55487 3.6243
f 86/258/58 83/257/58 88/263/58

vt -8.04804 4.23537
f 78/264/58 87/259/58 86/258/58

vt -8.02541 4.1033
f 85/265/58 78/264/58 86/258/58

vt -8.02541 3.6243
f 84/266/58 78/264/58 85/265/58

vt -8.04804 3.6243
f 74/267/58 78/264/58 84/266/58

usemtl Color_D03
vt 357.229 5.21277e-014
vn 0 -1.73299e-017 1
v 13.4632 6.426 -36.0332
vt 400.76 117.126
f 83/268/59 89/269/59 87/223/59

v 13.4632 3.451 -36.0332
vt 400.76 5.21277e-014
f 89/269/59 83/268/59 90/270/59

usemtl _7
vt 8.67026 3.6243
vn -0 1.73299e-017 -1
vt 8.67026 4.23537
f 90/271/60 83/225/60 89/272/60

usemtl FrontColor
v 13.4632 3.451 -31.3928
vt -400.76 89.4187
vt -400.76 272.113
f 91/273/33 83/246/33 90/274/33

f 82/244/33 83/246/33 91/273/33

usemtl _Tile_Ceramic_Natural_15
vt -0.680228 30.4004
f 91/275/34 83/247/34 82/245/34

vt -0.680228 33.6915
f 90/276/34 83/247/34 91/275/34

usemtl Color_D03
vt -89.4187 -1.97034e-015
vn -1 -4.91651e-018 -1.52972e-033
vt -272.113 5.48731e-014
f 91/277/61 89/255/61 90/278/61

v 13.4632 6.426 -31.3928
vt -89.4187 117.126
f 89/255/61 91/277/61 92/279/61

usemtl _7
vt -5.97419 4.23537
vn 1 4.91651e-018 1.52972e-033
vt -5.97419 3.6243
f 92/280/62 91/281/62 89/259/62

usemtl Color_D03
vt -263.608 -2.22278e-013
vn -0.747326 -1.75451e-015 -0.664457
vt -333.113 117.126
vt -333.113 -4.2123e-013
f 82/282/63 92/283/63 91/284/63

v 12.2902 5.783 -30.0734
vt -263.608 91.811
f 93/285/63 92/283/63 82/282/63

v 11.7152 5.783 -29.4267
vt -229.54 91.811
f 94/286/63 92/283/63 93/285/63

v 11.4438 6.426 -29.1215
vt -213.462 117.126
f 94/286/63 95/287/63 92/283/63

vt -213.462 -2.507e-013
f 95/287/63 94/286/63 80/288/63

usemtl _7
vt -5.31289 3.6243
vn 0.747326 1.75451e-015 0.664457
vt -5.44622 4.1033
vt -5.31289 4.23537
f 80/289/64 94/290/64 95/291/64

usemtl Color_D03
vt -229.54 -1.93856e-013
f 81/292/63 80/288/63 94/286/63

usemtl _7
vt -5.44622 3.6243
f 94/290/64 80/289/64 81/293/64

vt -6.30511 4.23537
f 92/294/64 95/291/64 94/290/64

vt -5.72874 4.1033
f 93/295/64 92/294/64 94/290/64

vt -5.72874 3.6243
f 82/296/64 92/294/64 93/295/64

vt -6.30511 3.6243
f 91/297/64 92/294/64 82/296/64

usemtl Color_D03
vt -60.0096 2.84217e-013
vn 7.54143e-033 1.73299e-017 -1
vt -321.257 117.126
vt -321.257 1.7053e-013
f 79/298/65 95/299/65 80/300/65

v 4.80813 6.426 -29.1215
f 95/299/65 79/298/65 96/189/65

usemtl _7
vt 0.538684 3.6243
vn -7.54143e-033 -1.73299e-017 1
vt 0.538684 4.23537
f 80/301/66 95/302/66 79/191/66

vt 2.70508 4.23537
f 96/303/66 79/191/66 95/302/66

usemtl Color_D03
vt 7.13158 2.83922e-013
vn 1 4.91651e-018 -0
vt 0 117.126
vt 0 2.83922e-013
f 72/304/67 96/305/67 79/306/67

f 96/305/67 72/304/67 73/179/67

usemtl _7
vt 13.7823 3.6243
vn -1 -4.91651e-018 0
vt 13.7823 4.23537
f 79/307/68 96/308/68 72/183/68

f 73/184/68 72/183/68 96/308/68

f 73/303/50 70/192/50 72/191/50

f 90/257/62 89/259/62 91/281/62

f 87/227/60 89/272/60 83/225/60

vt 8.22994 4.23537
f 77/309/56 78/227/56 53/226/56

vt 5.38236 4.23537
f 76/310/56 77/309/56 53/226/56

vt 13.9006 4.23537
f 68/311/48 69/185/48 70/184/48

f 66/174/46 67/173/46 68/178/46

f 64/169/46 65/168/46 66/174/46

vt 13.2788 4.23537
f 62/312/46 63/170/46 64/169/46

vt 13.8795 4.23537
f 60/313/44 61/163/44 62/162/44

vt 14.447 4.23537
f 58/314/42 59/156/42 60/155/42

vt 14.9791 4.23537
f 56/315/40 57/149/40 58/148/40

vt 15.474 4.23537
f 54/316/38 51/142/38 56/141/38

g Mesh5 AUL017 Model

l 83 88

l 90 83

l 91 90

l 82 91

l 81 82

l 80 81

l 79 80

l 72 79

l 71 72

l 69 71

l 67 69

l 65 67

l 63 65

l 61 63

l 59 61

l 57 59

l 51 57

l 52 51

l 50 52

l 53 50

l 74 53

l 84 74

l 88 84

l 86 88

l 85 86

l 84 85

l 74 78

l 77 78

l 77 76

l 53 76

l 76 75

l 50 75

l 75 55

l 52 55

l 55 54

l 51 54

l 54 56

l 57 56

l 56 58

l 59 58

l 58 60

l 61 60

l 60 62

l 63 62

l 62 64

l 65 64

l 64 66

l 67 66

l 66 68

l 69 68

l 68 70

l 71 70

l 70 73

l 72 73

l 73 96

l 79 96

l 96 95

l 80 95

l 95 92

l 91 92

l 92 89

l 90 89

l 89 87

l 83 87

l 87 78

l 94 81

l 93 94

l 82 93

