# Alias OBJ Model File
# Exported from SketchUp, (c) 2000-2012 Trimble Navigation Limited
# File units = meters

mtllib COM013.mtl

g Mesh1 COM013 Model

usemtl _7
v 18.0553 6.426 -44.2503
vt -1.61981 -3.92782
vn -1 0 -0
v 18.0553 3.451 -41.5974
vt -0.753677 -4.5389
v 18.0553 6.426 -41.5974
vt -0.753677 -3.92782
f 1/1/1 2/2/1 3/3/1

v 18.0553 3.451 -44.2503
vt -1.61981 -4.5389
f 2/2/1 1/1/1 4/4/1

vt -9.30577 4.23537
vn 1 -0 0
vt -9.30577 3.6243
vt -10.1719 4.23537
f 3/5/2 2/6/2 1/7/2

vn 0 0 -1
v 17.9749 6.03988 -41.5974
vt -1.59356 -4.00713
f 2/4/3 5/8/3 3/1/3

v 17.9749 3.451 -41.5974
vt -1.59356 -4.5389
f 5/8/3 2/4/3 6/9/3

vt -1.59356 3.6243
vn -0 -0 1
vt -1.61981 3.6243
vt -1.59356 4.15606
f 6/10/4 2/11/4 5/12/4

usemtl FrontColor
vt -169.798 2.15531e-030
vn -9.64297e-018 -1 -7.17025e-017
vt -166.633 2.15312e-030
vt -169.798 104.447
f 2/13/5 6/14/5 4/15/5

usemtl _7
vn 9.64297e-018 1 7.17025e-017
vt -1.59356 3.07937
vt -1.61981 3.07937
f 4/11/6 6/16/6 2/17/6

usemtl FrontColor
v 16.1427 3.451 -41.5974
vt -94.499 2.10325e-030
f 7/18/5 4/15/5 6/14/5

v 16.0667 3.451 -41.5974
vt -91.506 2.10118e-030
f 8/19/5 4/15/5 7/18/5

v 16.0667 3.451 -42.2768
vt -91.506 26.7494
f 9/20/5 4/15/5 8/19/5

v 15.9178 3.451 -42.2768
vt -85.6449 26.7494
f 10/21/5 4/15/5 9/20/5

v 13.835 3.451 -41.5974
vt -3.64565 2.04043e-030
f 11/22/5 4/15/5 10/21/5

v 13.7424 3.451 -41.5974
vt 2.7407e-031 2.03791e-030
f 12/23/5 4/15/5 11/22/5

v 13.7424 3.451 -46.2626
vt 5.4814e-031 183.671
f 13/24/5 4/15/5 12/23/5

v 32.5885 3.451 -46.8063
vt -741.971 205.075
f 13/24/5 14/25/5 4/15/5

v 13.7424 3.451 -46.8063
vt 5.4814e-031 205.075
f 14/25/5 13/24/5 15/26/5

usemtl _7
vt -0.211756 4.1493
vt -0.211756 4.03763
vt -6.36457 4.1493
f 15/27/6 13/28/6 14/29/6

v 13.7424 6.426 -46.8063
vt 1.48884 -3.92782
vn 1 0 -0
vt 1.31134 -4.5389
vt 1.48884 -4.5389
f 16/30/7 13/31/7 15/32/7

v 13.7424 6.426 -41.5974
vt -0.211756 -3.92782
f 17/33/7 13/31/7 16/30/7

vt -0.211756 -4.5389
f 13/31/7 17/33/7 12/34/7

vt 17.8554 3.6243
vn -1 -0 0
vt 17.8554 4.23537
vt 19.3785 3.6243
f 12/35/8 17/36/8 13/37/8

vt -0.241987 -4.5389
f 17/33/3 11/38/3 12/34/3

v 13.835 6.03988 -41.5974
vt -0.241987 -4.00713
f 11/38/3 17/33/3 18/39/3

vt -0.211756 3.6243
vt -0.241987 3.6243
vt -0.211756 4.23537
f 12/40/4 11/41/4 17/42/4

vt -0.241987 3.07937
vt -0.211756 3.07937
f 11/43/6 4/11/6 12/44/6

vt -0.921968 3.21893
f 10/45/6 4/11/6 11/43/6

vt -0.970572 3.21893
f 9/46/6 4/11/6 10/45/6

vt -0.970572 3.07937
f 8/47/6 4/11/6 9/46/6

vt -0.995391 3.07937
f 7/48/6 4/11/6 8/47/6

f 6/16/6 4/11/6 7/48/6

v 16.0667 6.03988 -41.5974
vt -0.970572 -4.00713
vt -0.995391 -4.5389
vt -0.970572 -4.5389
f 19/49/3 7/50/3 8/51/3

v 16.1427 6.03988 -41.5974
vt -0.995391 -4.00713
f 7/50/3 19/49/3 20/52/3

vt -0.970572 3.6243
vt -0.995391 3.6243
vt -0.970572 4.15606
f 8/53/4 7/54/4 19/55/4

vt -0.995391 4.15606
f 20/56/4 19/55/4 7/54/4

v 16.0667 6.426 -41.5974
vt -0.970572 -3.92782
f 20/52/3 19/49/3 21/57/3

vt -0.970572 4.23537
f 21/58/4 19/55/4 20/56/4

vt -1.19239 -4.00713
vt -1.19239 -3.92782
f 19/59/7 9/51/7 21/60/7

vt -1.19239 -4.5389
f 9/51/7 19/59/7 8/61/7

vt 17.8554 4.15606
vt 18.0772 3.6243
f 8/35/8 19/62/8 9/63/8

f 21/36/8 9/63/8 19/62/8

v 16.0667 6.426 -42.2768
f 21/60/7 9/51/7 22/57/7

vt 18.0772 4.23537
f 22/64/8 9/63/8 21/36/8

vn 0 1.73299e-017 -1
v 15.9178 6.426 -42.2768
vt -0.921968 -3.92782
f 9/51/9 23/65/9 22/57/9

vt -0.921968 -4.5389
f 23/65/9 9/51/9 10/66/9

vt -0.921968 3.6243
vn -0 -1.73299e-017 1
vt -0.921968 4.23537
f 10/67/10 9/53/10 23/68/10

f 22/58/10 23/68/10 9/53/10

v 15.9178 3.451 -41.5974
vt -0.700149 -4.5389
f 24/69/1 23/65/1 10/66/1

v 15.9178 6.03988 -41.5974
vt -0.700149 -4.00713
f 25/70/1 23/65/1 24/69/1

v 15.9178 6.426 -41.5974
vt -0.700149 -3.92782
f 23/65/1 25/70/1 26/71/1

vt -9.30577 4.15606
vt -9.52759 4.23537
f 26/5/2 25/72/2 23/73/2

vt -0.921968 -4.00713
f 25/74/3 17/33/3 26/65/3

v 15.8253 6.03988 -41.5974
vt -0.891782 -4.00713
f 27/75/3 17/33/3 25/74/3

f 18/39/3 17/33/3 27/75/3

vt -0.241987 4.15606
f 18/76/4 17/42/4 11/41/4

vt -0.891782 4.15606
f 27/77/4 17/42/4 18/76/4

vt -0.921968 4.15606
f 25/78/4 17/42/4 27/77/4

f 26/68/4 17/42/4 25/78/4

f 24/66/3 27/75/3 25/74/3

v 15.8253 3.451 -41.5974
vt -0.891782 -4.5389
f 27/75/3 24/66/3 28/79/3

vt -0.891782 3.6243
f 28/80/4 24/67/4 27/77/4

usemtl FrontColor
vt -85.6449 2.09712e-030
vt -82.0047 2.09461e-030
f 24/81/5 28/82/5 10/21/5

usemtl _7
vt -0.891782 3.07937
vt -0.921968 3.07937
f 10/45/6 28/83/6 24/84/6

usemtl FrontColor
f 11/22/5 10/21/5 28/82/5

usemtl _7
f 28/83/6 10/45/6 11/43/6

vt -9.52759 3.6243
f 10/85/2 23/73/2 24/6/2

f 24/6/2 23/73/2 25/72/2

f 25/78/4 27/77/4 24/67/4

f 20/52/3 21/57/3 5/8/3

f 5/12/4 21/58/4 20/56/4

f 3/1/3 5/8/3 21/57/3

vt -1.61981 4.23537
f 3/86/4 5/12/4 2/11/4

f 21/58/4 5/12/4 3/86/4

f 12/44/6 4/11/6 13/28/6

f 4/11/6 14/29/6 13/28/6

usemtl FrontColor
v 27.4446 3.451 -44.2503
vt -539.456 104.447
f 4/15/5 14/25/5 29/87/5

usemtl _7
vt -4.68521 3.6243
f 29/88/6 14/29/6 4/11/6

usemtl FrontColor
v 27.4446 3.451 -42.3216
vt -539.456 28.514
f 29/87/5 14/25/5 30/89/5

usemtl _7
vt -4.68521 3.22813
f 30/90/6 14/29/6 29/88/6

usemtl FrontColor
v 29.9919 3.451 -42.6354
vt -639.745 40.8661
f 30/89/5 14/25/5 31/91/5

usemtl _7
vt -5.51686 3.29258
f 31/92/6 14/29/6 30/90/6

usemtl FrontColor
v 30.1241 3.451 -42.6354
vt -644.95 40.8661
f 31/91/5 14/25/5 32/93/5

usemtl _7
vt -5.56002 3.29258
f 32/94/6 14/29/6 31/92/6

usemtl FrontColor
v 30.1241 3.451 -41.5974
vt -644.95 2.48384e-030
f 32/93/5 14/25/5 33/95/5

usemtl _7
vt -5.56002 3.07937
f 33/96/6 14/29/6 32/94/6

usemtl FrontColor
v 30.2447 3.451 -41.5974
vt -649.694 2.48712e-030
f 33/95/5 14/25/5 34/97/5

usemtl _7
vt -5.59936 3.07937
f 34/98/6 14/29/6 33/96/6

usemtl FrontColor
v 32.4786 3.451 -41.5974
vt -737.646 2.54793e-030
f 34/97/5 14/25/5 35/99/5

usemtl _7
vt -6.3287 3.07937
f 35/100/6 14/29/6 34/98/6

usemtl FrontColor
v 32.5885 3.451 -41.5974
vt -741.971 2.55093e-030
f 35/99/5 14/25/5 36/101/5

usemtl _7
vt -6.36457 3.07937
f 36/102/6 14/29/6 35/100/6

usemtl FrontColor
v 32.5885 3.451 -46.2626
vt -741.971 183.671
f 36/101/5 14/25/5 37/103/5

usemtl _7
vt -6.36457 4.03763
f 37/104/6 14/29/6 36/102/6

vt -6.18708 -4.5389
v 32.5885 6.426 -46.8063
vt -6.36457 -3.92782
vt -6.36457 -4.5389
f 37/105/1 38/106/1 14/107/1

vt -4.66398 -4.5389
f 36/108/1 38/106/1 37/105/1

v 32.5885 6.426 -41.5974
vt -4.66398 -3.92782
f 38/106/1 36/108/1 39/109/1

vt -11.0064 4.23537
f 39/5/2 36/6/2 38/110/2

v 32.4786 6.03988 -41.5974
vt -6.3287 -4.00713
f 36/107/3 40/111/3 39/106/3

vt -6.3287 -4.5389
f 40/111/3 36/107/3 35/112/3

vt -6.3287 3.6243
vt -6.36457 3.6243
vt -6.3287 4.15606
f 35/113/4 36/114/4 40/115/4

vt -6.36457 4.23537
f 39/116/4 40/115/4 36/114/4

v 30.1241 6.426 -41.5974
vt -5.56002 -3.92782
f 39/106/3 40/111/3 41/117/3

vt -5.56002 4.23537
f 41/118/4 40/115/4 39/116/4

v 30.2447 6.03988 -41.5974
vt -5.59936 -4.00713
f 42/119/3 41/117/3 40/111/3

v 30.1241 6.03988 -41.5974
vt -5.56002 -4.00713
f 42/119/3 43/120/3 41/117/3

vt -5.59936 -4.5389
f 34/121/3 43/120/3 42/119/3

vt -5.56002 -4.5389
f 43/120/3 34/121/3 33/122/3

vt -5.56002 3.6243
vt -5.59936 3.6243
vt -5.56002 4.15606
f 33/123/4 34/124/4 43/125/4

vt -5.59936 4.15606
f 42/126/4 43/125/4 34/124/4

f 41/118/4 43/125/4 42/126/4

vt -5.8989 -4.00713
vt -5.8989 -3.92782
f 43/127/7 32/122/7 41/128/7

vt -5.8989 -4.5389
f 32/122/7 43/127/7 33/129/7

vt 18.1943 3.6243
f 33/35/8 43/62/8 32/130/8

f 41/36/8 32/130/8 43/62/8

v 30.1241 6.426 -42.6354
f 41/128/7 32/122/7 44/117/7

vt 18.1943 4.23537
f 44/131/8 32/130/8 41/36/8

v 29.9919 6.426 -42.6354
vt -5.51686 -3.92782
f 32/122/9 45/132/9 44/117/9

vt -5.51686 -4.5389
f 45/132/9 32/122/9 31/133/9

vt -5.51686 3.6243
vt -5.51686 4.23537
f 31/134/10 32/123/10 45/135/10

f 44/118/10 45/135/10 32/123/10

v 29.9919 3.451 -41.5974
vt -5.17798 -4.5389
f 46/136/1 45/132/1 31/133/1

v 29.9919 6.03988 -41.5974
vt -5.17798 -4.00713
f 47/137/1 45/132/1 46/136/1

v 29.9919 6.426 -41.5974
vt -5.17798 -3.92782
f 45/132/1 47/137/1 48/138/1

vt -9.64465 4.23537
f 48/5/2 47/72/2 45/139/2

vt -5.51686 -4.00713
v 27.1304 6.426 -41.5974
vt -4.58262 -3.92782
f 47/140/3 49/141/3 48/132/3

v 29.881 6.03988 -41.5974
vt -5.48063 -4.00713
f 50/142/3 49/141/3 47/140/3

v 27.2002 6.03988 -41.5974
vt -4.60543 -4.00713
f 51/143/3 49/141/3 50/142/3

v 27.1304 6.03988 -41.5974
vt -4.58262 -4.00713
f 49/141/3 51/143/3 52/144/3

vt -4.58262 4.15606
vt -4.60543 4.15606
vt -4.58262 4.23537
f 52/145/4 51/146/4 49/147/4

v 27.2002 3.451 -41.5974
vt -4.60543 -4.5389
f 53/148/3 52/144/3 51/143/3

v 27.1304 3.451 -41.5974
vt -4.58262 -4.5389
f 52/144/3 53/148/3 54/149/3

vt -4.58262 3.6243
vt -4.60543 3.6243
f 54/150/4 53/151/4 52/145/4

usemtl FrontColor
vt -527.085 2.40235e-030
vt -529.835 2.40425e-030
f 54/152/5 30/89/5 53/153/5

v 27.1304 3.451 -42.3216
vt -527.085 28.514
f 30/89/5 54/152/5 55/154/5

usemtl _7
vt -4.58262 3.22813
vt -4.58262 3.07937
f 55/155/6 54/156/6 30/90/6

vt -4.34617 -4.5389
f 55/157/7 52/144/7 54/149/7

f 52/144/7 55/157/7 49/141/7

vt 18.0919 3.6243
f 54/35/8 52/62/8 55/158/8

f 49/36/8 55/158/8 52/62/8

v 27.1304 6.426 -42.3216
vt -4.34617 -3.92782
f 49/141/7 55/157/7 56/159/7

vt 18.0919 4.23537
f 56/160/8 55/158/8 49/36/8

vt -5.41747 -4.5389
vn 0 -1.73299e-017 1
v 27.4446 6.426 -42.3216
vt -5.31488 -3.92782
vt -5.41747 -3.92782
f 55/161/11 57/162/11 56/163/11

vt -5.31488 -4.5389
f 57/162/11 55/161/11 30/164/11

vt 13.2349 3.6243
vn -0 1.73299e-017 -1
vt 13.1323 3.6243
vt 13.2349 4.23537
f 30/165/12 55/166/12 57/167/12

vt 13.1323 4.23537
f 56/168/12 57/167/12 55/166/12

vt -4.68521 -4.5389
vn 1 4.91651e-018 -0
f 29/169/13 57/162/13 30/164/13

v 27.4446 6.426 -44.2503
vt -4.68521 -3.92782
f 57/162/13 29/169/13 58/170/13

vn -1 -4.91651e-018 0
vt 18.7216 3.6243
f 30/158/14 57/160/14 29/171/14

vt 18.7216 4.23537
f 58/172/14 29/171/14 57/160/14

f 29/169/9 1/1/9 58/170/9

f 1/1/9 29/169/9 4/4/9

f 4/11/10 29/88/10 1/86/10

vt -4.68521 4.23537
f 58/173/10 1/86/10 29/88/10

vt -10.1719 3.6243
f 4/174/2 1/7/2 2/6/2

vt -4.60543 3.07937
f 53/175/6 30/90/6 54/156/6

usemtl FrontColor
v 29.881 3.451 -41.5974
vt -635.376 2.47722e-030
f 53/153/5 30/89/5 59/176/5

usemtl _7
vt -5.48063 3.07937
f 59/177/6 30/90/6 53/175/6

usemtl FrontColor
f 30/89/5 31/91/5 59/176/5

usemtl _7
f 59/177/6 31/92/6 30/90/6

usemtl FrontColor
vt -639.745 2.48024e-030
f 46/178/5 59/176/5 31/91/5

usemtl _7
vt -5.51686 3.07937
f 31/92/6 59/177/6 46/179/6

vt -5.48063 -4.5389
f 50/142/3 46/133/3 59/180/3

f 46/133/3 50/142/3 47/140/3

vt -5.48063 3.6243
vt -5.48063 4.15606
f 59/181/4 46/134/4 50/182/4

vt -5.51686 4.15606
f 47/183/4 50/182/4 46/134/4

f 47/183/4 49/147/4 50/182/4

f 48/135/4 49/147/4 47/183/4

f 50/182/4 49/147/4 51/146/4

f 46/6/2 45/139/2 47/72/2

vt -9.64465 3.6243
f 31/184/2 45/139/2 46/6/2

f 51/146/4 52/145/4 53/151/4

f 40/115/4 41/118/4 42/126/4

vt -10.8289 3.6243
f 37/185/2 38/110/2 36/6/2

vt -11.0064 3.6243
f 14/186/2 38/110/2 37/185/2

vt 19.556 4.23537
f 16/187/8 13/37/8 17/36/8

vt 19.556 3.6243
f 15/188/8 13/37/8 16/187/8

g Mesh2 COM013 Model

l 2 3

l 4 2

l 4 1

l 29 4

l 29 58

l 30 29

l 30 57

l 55 30

l 55 56

l 54 55

l 54 52

l 54 53

l 53 59

l 51 53

l 51 52

l 50 51

l 59 50

l 59 46

l 46 47

l 46 31

l 31 45

l 32 31

l 32 44

l 33 32

l 33 43

l 33 34

l 34 35

l 42 34

l 40 42

l 35 40

l 35 36

l 36 39

l 37 36

l 14 37

l 15 14

l 13 15

l 12 13

l 12 17

l 11 12

l 28 11

l 24 28

l 24 25

l 24 10

l 10 23

l 9 10

l 9 22

l 8 9

l 8 19

l 7 8

l 6 7

l 2 6

l 6 5

l 5 20

l 20 7

l 19 21

l 3 21

l 1 3

l 58 1

l 57 58

l 56 57

l 49 56

l 52 49

l 49 48

l 47 48

l 48 45

l 44 45

l 41 44

l 43 41

l 41 39

l 38 39

l 14 38

l 21 22

l 22 23

l 26 23

l 25 26

l 26 17

l 17 16

l 16 15

l 28 27

l 27 18

l 18 11

