# Alias OBJ Model File
# Exported from SketchUp, (c) 2000-2012 Trimble Navigation Limited
# File units = meters

mtllib COM018.mtl

g Mesh1 Group1 Model

usemtl FrontColor
v 11.3169 3.451 -29.0152
vt -106.991 230.673
vn -2.3489e-016 -1 -2.56141e-016
v 8.59935 3.451 -28.3993
vt -5.68434e-014 206.427
v 8.59935 3.451 -29.0152
vt -5.68434e-014 230.673
f 1/1/1 2/2/1 3/3/1

v 8.59935 3.451 -28.2963
vt -5.68434e-014 202.369
f 2/2/1 1/1/1 4/4/1

usemtl _Tile_Ceramic_Natural_15
vt 2.76931 28.7142
vn 2.3489e-016 1 2.56141e-016
vt 2.76931 28.2774
vt 0.841952 28.7142
f 3/5/2 2/6/2 1/7/2

usemtl Color_D03
vt 230.673 1.13687e-013
vn 1 2.04475e-016 1.04856e-018
v 8.59935 5.829 -28.3993
vt 206.427 93.622
vt 206.427 1.13687e-013
f 3/8/3 5/9/3 2/10/3

v 8.59935 6.426 -29.0152
vt 230.673 117.126
f 6/11/3 5/9/3 3/8/3

v 8.59935 5.829 -23.6963
vt 21.2696 93.622
f 6/11/3 7/12/3 5/9/3

v 8.59935 6.426 -23.1561
vt 5.96037e-032 117.126
f 8/13/3 7/12/3 6/11/3

v 8.59935 3.451 -23.6963
vt 21.2696 5.68434e-014
f 8/13/3 9/14/3 7/12/3

v 8.59935 3.451 -23.1561
vt 5.96037e-032 5.68434e-014
f 9/14/3 8/13/3 10/15/3

usemtl _7
vt 11.8348 3.6243
vn -1 -2.04475e-016 -1.04856e-018
vt 11.8348 4.23537
vt 12.0111 3.6243
f 10/16/4 8/17/4 9/18/4

usemtl Color_D03
v 9.12296 6.426 -23.1561
vt -20.6146 117.126
vn 0 0 -1
vt -5.68434e-014 5.68434e-014
vt -5.68434e-014 117.126
f 11/19/5 10/20/5 8/21/5

v 9.12296 3.451 -23.1561
vt -20.6146 2.84217e-014
f 10/20/5 11/19/5 12/22/5

usemtl _7
vt 1.29639 3.6243
vn -0 -0 1
vt 1.29639 4.23537
vt 1.46734 3.6243
f 12/23/6 11/24/6 10/25/6

usemtl Color_D03
v 9.12296 6.426 -23.2173
vt -2.40837 117.126
vn -1 0 -0
vt 0 2.84217e-014
vt 0 117.126
f 13/26/7 12/27/7 11/28/7

v 9.12296 3.451 -23.2173
vt -2.40837 0
f 12/27/7 13/26/7 14/29/7

usemtl _7
vt -3.28511 4.23537
vn 1 -0 0
vt -3.28511 3.6243
vt -3.30508 4.23537
f 11/30/8 12/31/8 13/32/8

vt -3.30508 3.6243
f 14/33/8 13/32/8 12/31/8

usemtl Color_D03
v 9.74296 3.451 -23.2173
vt -45.024 0
vt -20.6146 0
f 13/19/5 15/34/5 14/35/5

v 9.74296 6.426 -23.2173
vt -45.024 117.126
f 15/34/5 13/19/5 16/36/5

usemtl _7
vt 1.09397 3.6243
f 14/23/6 15/37/6 13/24/6

usemtl FrontColor
vt -20.6146 2.40837
vt -45.024 2.40837
f 14/38/1 1/1/1 15/39/1

vt -5.68434e-014 1.456e-029
f 10/40/1 1/1/1 14/38/1

vt -5.68434e-014 21.2696
f 9/41/1 1/1/1 10/40/1

v 8.59935 3.451 -23.7996
vt -5.68434e-014 25.3337
f 17/42/1 1/1/1 9/41/1

v 8.59935 3.451 -24.8437
vt -5.68434e-014 66.4405
f 18/43/1 1/1/1 17/42/1

v 8.59935 3.451 -24.9037
vt -5.68434e-014 68.8041
f 19/44/1 1/1/1 18/43/1

v 8.59935 3.451 -26.0045
vt -5.68434e-014 112.143
f 20/45/1 1/1/1 19/44/1

v 8.59935 3.451 -26.0847
vt -5.68434e-014 115.301
f 21/46/1 1/1/1 20/45/1

v 8.59935 3.451 -27.1848
vt -5.68434e-014 158.612
f 22/47/1 1/1/1 21/46/1

v 8.59935 3.451 -27.2647
vt -5.68434e-014 161.755
f 23/48/1 1/1/1 22/47/1

f 4/4/1 1/1/1 23/48/1

usemtl _Tile_Ceramic_Natural_15
vt 2.76931 28.2043
f 4/49/2 1/7/2 2/6/2

vt 2.76931 27.4727
f 23/50/2 1/7/2 4/49/2

vt 2.76931 27.4161
f 22/51/2 1/7/2 23/50/2

vt 2.76931 26.6359
f 21/52/2 1/7/2 22/51/2

vt 2.76931 26.579
f 20/53/2 1/7/2 21/52/2

vt 2.76931 25.7983
f 19/54/2 1/7/2 20/53/2

vt 2.76931 25.7557
f 18/55/2 1/7/2 19/54/2

vt 2.76931 25.0152
f 17/56/2 1/7/2 18/55/2

vt 2.76931 24.942
f 9/57/2 1/7/2 17/56/2

vt 2.76931 24.5588
f 10/58/2 1/7/2 9/57/2

vt 2.39796 24.6022
f 14/59/2 1/7/2 10/58/2

vt 1.95824 24.6022
f 15/60/2 1/7/2 14/59/2

usemtl FrontColor
v 9.74296 3.451 -23.1561
vt -45.024 9.98885e-030
f 15/39/1 1/1/1 24/61/1

usemtl _Tile_Ceramic_Natural_15
vt 1.95824 24.5588
f 24/62/2 1/7/2 15/60/2

usemtl FrontColor
v 11.3169 3.451 -23.1561
vt -106.991 2.09971e-029
f 24/61/1 1/1/1 25/63/1

usemtl _Tile_Ceramic_Natural_15
vt 0.841952 24.5588
f 25/64/2 1/7/2 24/62/2

usemtl FrontColor
v 11.3169 3.451 -28.4906
vt -106.991 210.02
f 25/63/1 1/1/1 26/65/1

usemtl _Tile_Ceramic_Natural_15
vt 0.841952 28.3422
f 26/66/2 1/7/2 25/64/2

usemtl Color_D03
vt -210.02 5.68434e-014
v 11.3169 6.426 -29.0152
vt -230.673 117.126
vt -230.673 8.52651e-014
f 26/67/7 27/68/7 1/69/7

v 11.3169 5.839 -28.4906
vt -210.02 94.0157
f 28/70/7 27/68/7 26/67/7

v 11.3169 5.839 -23.7876
vt -24.8629 94.0157
f 29/71/7 27/68/7 28/70/7

v 11.3169 6.426 -23.1561
f 29/71/7 30/28/7 27/68/7

vt 0 5.68434e-014
f 30/28/7 29/71/7 25/72/7

usemtl _7
vt -3.49128 4.1148
f 25/31/8 29/73/8 30/30/8

usemtl Color_D03
v 11.3169 3.451 -23.7876
vt -24.8629 5.68434e-014
f 31/74/7 25/72/7 29/71/7

usemtl FrontColor
v 11.3169 3.451 -23.8908
vt -106.991 28.9271
vt -106.991 24.8629
f 25/63/1 32/75/1 31/76/1

v 11.3169 3.451 -24.9349
vt -106.991 70.0338
f 25/63/1 33/77/1 32/75/1

v 11.3169 3.451 -24.995
vt -106.991 72.3974
f 25/63/1 34/78/1 33/77/1

v 11.3169 3.451 -26.0958
vt -106.991 115.736
f 25/63/1 35/79/1 34/78/1

v 11.3169 3.451 -26.176
vt -106.991 118.895
f 25/63/1 36/80/1 35/79/1

v 11.3169 3.451 -27.2761
vt -106.991 162.205
f 25/63/1 37/81/1 36/80/1

v 11.3169 3.451 -27.3559
vt -106.991 165.349
f 25/63/1 38/82/1 37/81/1

v 11.3169 3.451 -28.3875
vt -106.991 205.962
f 25/63/1 39/83/1 38/82/1

f 25/63/1 26/65/1 39/83/1

usemtl _Tile_Ceramic_Natural_15
vt 0.841952 28.2691
f 39/84/2 26/66/2 25/64/2

usemtl FrontColor
vt -205.962 5.68434e-014
f 39/85/7 28/70/7 26/67/7

v 11.3169 5.77159 -28.3875
vt -205.962 91.3617
f 40/86/7 28/70/7 39/85/7

v 11.3169 5.77159 -27.3559
vt -165.349 91.3617
f 41/87/7 28/70/7 40/86/7

v 11.3169 5.77159 -27.2761
vt -162.205 91.3617
f 42/88/7 28/70/7 41/87/7

v 11.3169 5.77159 -26.176
vt -118.895 91.3617
f 43/89/7 28/70/7 42/88/7

v 11.3169 5.77159 -26.0958
vt -115.736 91.3617
f 44/90/7 28/70/7 43/89/7

v 11.3169 5.77159 -24.995
vt -72.3974 91.3617
f 45/91/7 28/70/7 44/90/7

v 11.3169 5.77159 -24.9349
vt -70.0338 91.3617
f 46/92/7 28/70/7 45/91/7

v 11.3169 5.77159 -23.8908
vt -28.9271 91.3617
f 47/93/7 28/70/7 46/92/7

f 47/93/7 29/71/7 28/70/7

f 29/71/7 47/93/7 31/74/7

usemtl BackColor
f 31/74/8 47/93/8 29/71/8

usemtl FrontColor
vt -28.9271 5.68434e-014
f 32/94/7 31/74/7 47/93/7

usemtl _Tile_Ceramic_Natural_15
vt 0.841952 25.0067
vt 0.841952 25.0799
f 31/95/2 32/96/2 25/64/2

usemtl BackColor
f 47/93/8 31/74/8 32/94/8

usemtl Translucent_Glass_Blue
f 46/92/7 32/94/7 47/93/7

vt -70.0338 5.68434e-014
f 32/94/7 46/92/7 33/97/7

f 47/93/8 32/94/8 46/92/8

f 33/97/8 46/92/8 32/94/8

usemtl FrontColor
f 46/92/7 45/91/7 33/97/7

usemtl BackColor
f 45/91/8 28/70/8 46/92/8

f 44/90/8 28/70/8 45/91/8

f 43/89/8 28/70/8 44/90/8

f 42/88/8 28/70/8 43/89/8

f 41/87/8 28/70/8 42/88/8

f 40/86/8 28/70/8 41/87/8

f 39/85/8 28/70/8 40/86/8

f 26/67/8 28/70/8 39/85/8

usemtl _7
vt -5.02671 3.6243
vt -5.19797 4.23537
vt -5.02671 4.1148
f 26/98/8 27/99/8 28/100/8

vt -5.19797 3.6243
f 1/101/8 27/99/8 26/98/8

usemtl Color_D03
vt 106.991 117.126
vn 0 0 1
vt 5.68434e-014 1.13687e-013
vt 106.991 8.52651e-014
f 27/102/9 3/103/9 1/104/9

vt 5.68434e-014 117.126
f 3/103/9 27/102/9 6/105/9

usemtl _7
vt 7.96955 3.6243
vn -0 -0 -1
vt 7.08232 3.6243
vt 7.96955 4.23537
f 1/106/10 3/107/10 27/108/10

vt 7.08232 4.23537
f 6/109/10 27/108/10 3/107/10

vt 13.7476 3.6243
vt 13.5466 4.11275
vt 13.7476 4.23537
f 3/110/4 5/111/4 6/112/4

vt 13.5466 3.6243
f 2/113/4 5/111/4 3/110/4

usemtl Color_D03
vt -202.369 1.13687e-013
vn -1 -3.75531e-016 -1.25418e-016
vt -206.427 93.622
vt -206.427 1.13687e-013
f 4/114/11 5/115/11 2/116/11

v 8.59935 5.76159 -28.2963
vt -202.369 90.968
f 48/117/11 5/115/11 4/114/11

v 8.59935 5.76159 -27.2647
vt -161.755 90.968
f 49/118/11 5/115/11 48/117/11

v 8.59935 5.76159 -27.1848
vt -158.612 90.968
f 50/119/11 5/115/11 49/118/11

v 8.59935 5.76159 -26.0847
vt -115.301 90.968
f 51/120/11 5/115/11 50/119/11

v 8.59935 5.76159 -26.0045
vt -112.143 90.968
f 52/121/11 5/115/11 51/120/11

v 8.59935 5.76159 -24.9037
vt -68.8041 90.968
f 53/122/11 5/115/11 52/121/11

v 8.59935 5.76159 -24.8437
vt -66.4405 90.968
f 54/123/11 5/115/11 53/122/11

v 8.59935 5.76159 -23.7996
vt -25.3337 90.968
f 55/124/11 5/115/11 54/123/11

vt -21.2696 93.622
f 55/124/11 7/125/11 5/115/11

vt -21.2696 5.68434e-014
f 7/125/11 55/124/11 9/126/11

usemtl BackColor
vn 1 3.75531e-016 1.25418e-016
f 9/126/12 55/124/12 7/125/12

usemtl Color_D03
vt -25.3337 5.68434e-014
f 17/127/11 9/126/11 55/124/11

usemtl BackColor
f 55/124/12 9/126/12 17/127/12

usemtl Translucent_Glass_Blue
vn -1 -6.24873e-016 -2.10206e-031
f 54/123/13 17/127/13 55/124/13

vt -66.4405 8.52651e-014
f 17/127/13 54/123/13 18/128/13

vn 1 6.24873e-016 2.10206e-031
f 55/124/14 17/127/14 54/123/14

f 18/128/14 54/123/14 17/127/14

usemtl Color_D03
f 54/123/11 53/122/11 18/128/11

usemtl BackColor
f 53/122/12 5/115/12 54/123/12

f 52/121/12 5/115/12 53/122/12

f 51/120/12 5/115/12 52/121/12

f 50/119/12 5/115/12 51/120/12

f 49/118/12 5/115/12 50/119/12

f 48/117/12 5/115/12 49/118/12

f 4/114/12 5/115/12 48/117/12

f 2/116/12 5/115/12 4/114/12

usemtl Translucent_Glass_Blue
vt -161.755 8.52651e-014
f 23/129/7 48/117/7 4/114/7

f 48/117/7 23/129/7 49/118/7

f 49/118/8 23/129/8 48/117/8

usemtl Color_D03
vt -158.612 1.13687e-013
f 23/129/11 22/130/11 49/118/11

usemtl BackColor
f 49/118/12 22/130/12 23/129/12

usemtl Color_D03
f 50/119/11 49/118/11 22/130/11

usemtl BackColor
f 22/130/12 49/118/12 50/119/12

usemtl Translucent_Glass_Blue
vt -115.301 8.52651e-014
f 21/131/7 50/119/7 22/130/7

f 50/119/7 21/131/7 51/120/7

f 51/120/8 21/131/8 50/119/8

usemtl Color_D03
vt -112.143 8.52651e-014
f 21/131/11 20/132/11 51/120/11

usemtl BackColor
f 51/120/12 20/132/12 21/131/12

usemtl Color_D03
f 52/121/11 51/120/11 20/132/11

usemtl BackColor
f 20/132/12 51/120/12 52/121/12

usemtl Translucent_Glass_Blue
vt -68.8041 8.52651e-014
vn -1 -6.24873e-016 2.14995e-045
f 19/133/15 52/121/15 20/132/15

f 52/121/15 19/133/15 53/122/15

vn 1 6.24873e-016 -2.14995e-045
f 53/122/16 19/133/16 52/121/16

usemtl Color_D03
f 19/133/11 18/128/11 53/122/11

usemtl BackColor
f 53/122/12 18/128/12 19/133/12

f 18/128/12 53/122/12 54/123/12

usemtl Translucent_Glass_Blue
f 20/132/16 52/121/16 19/133/16

f 22/130/8 50/119/8 21/131/8

f 4/114/8 48/117/8 23/129/8

usemtl BackColor
f 54/123/12 5/115/12 55/124/12

f 5/115/12 7/125/12 55/124/12

usemtl _7
vt 12.0111 4.11275
f 5/111/4 7/134/4 6/112/4

f 6/112/4 7/134/4 8/17/4

f 7/134/4 9/18/4 8/17/4

f 28/100/8 27/99/8 29/73/8

f 27/99/8 30/30/8 29/73/8

usemtl BackColor
f 28/70/8 29/71/8 47/93/8

f 46/92/8 28/70/8 47/93/8

usemtl Translucent_Glass_Blue
vt -165.349 5.68434e-014
f 38/135/7 40/86/7 39/85/7

f 40/86/7 38/135/7 41/87/7

f 41/87/8 38/135/8 40/86/8

usemtl FrontColor
vt -162.205 5.68434e-014
f 38/135/7 37/136/7 41/87/7

usemtl _Tile_Ceramic_Natural_15
vt 0.841952 27.4808
vt 0.841952 27.5374
f 37/137/2 38/138/2 25/64/2

usemtl BackColor
f 41/87/8 37/136/8 38/135/8

usemtl FrontColor
f 42/88/7 41/87/7 37/136/7

usemtl BackColor
f 37/136/8 41/87/8 42/88/8

usemtl Translucent_Glass_Blue
vt -118.895 5.68434e-014
f 36/139/7 42/88/7 37/136/7

f 42/88/7 36/139/7 43/89/7

f 43/89/8 36/139/8 42/88/8

usemtl FrontColor
vt -115.736 5.68434e-014
f 36/139/7 35/140/7 43/89/7

usemtl _Tile_Ceramic_Natural_15
vt 0.841952 26.6437
vt 0.841952 26.7006
f 35/141/2 36/142/2 25/64/2

usemtl BackColor
f 43/89/8 35/140/8 36/139/8

usemtl FrontColor
f 44/90/7 43/89/7 35/140/7

usemtl BackColor
f 35/140/8 43/89/8 44/90/8

usemtl Translucent_Glass_Blue
vt -72.3974 5.68434e-014
f 34/143/7 44/90/7 35/140/7

f 44/90/7 34/143/7 45/91/7

f 45/91/8 34/143/8 44/90/8

usemtl FrontColor
f 34/143/7 33/97/7 45/91/7

usemtl _Tile_Ceramic_Natural_15
vt 0.841952 25.8204
vt 0.841952 25.863
f 33/144/2 34/145/2 25/64/2

usemtl BackColor
f 45/91/8 33/97/8 34/143/8

f 33/97/8 45/91/8 46/92/8

usemtl _Tile_Ceramic_Natural_15
f 34/145/2 35/141/2 25/64/2

usemtl Translucent_Glass_Blue
f 35/140/8 44/90/8 34/143/8

usemtl _Tile_Ceramic_Natural_15
f 32/96/2 33/144/2 25/64/2

f 36/142/2 37/137/2 25/64/2

usemtl Translucent_Glass_Blue
f 37/136/8 42/88/8 36/139/8

usemtl _Tile_Ceramic_Natural_15
f 38/138/2 39/84/2 25/64/2

usemtl Translucent_Glass_Blue
f 39/85/8 40/86/8 38/135/8

usemtl _7
vt -3.49128 3.6243
f 29/73/8 25/31/8 31/146/8

usemtl Color_D03
vt -106.991 5.68434e-014
v 9.74296 6.426 -23.1561
vt -106.991 117.126
f 25/147/5 56/36/5 30/148/5

vt -45.024 2.84217e-014
f 56/36/5 25/147/5 24/149/5

usemtl _7
vt 0.58011 3.6243
vt 1.09397 4.23537
f 24/37/6 25/150/6 56/151/6

vt 0.58011 4.23537
f 30/152/6 56/151/6 25/150/6

usemtl Color_D03
vt 2.40837 0
vn 1 0 -0
f 15/153/17 56/28/17 24/27/17

vt 2.40837 117.126
f 56/28/17 15/153/17 16/154/17

usemtl _7
vn -1 -0 0
vt 11.8547 3.6243
f 24/16/18 56/17/18 15/155/18

vt 11.8547 4.23537
f 16/156/18 15/155/18 56/17/18

f 16/151/6 13/24/6 15/37/6

usemtl FrontColor
vt -20.6146 8.52025e-030
f 12/157/1 10/40/1 14/38/1

usemtl _Tile_Ceramic_Natural_15
vt 2.39796 24.5588
f 14/59/2 10/58/2 12/158/2

usemtl _7
vt 1.46734 4.23537
f 8/159/6 10/25/6 11/24/6

g Mesh2 Group1 Model

l 15 14

l 15 24

l 15 16

l 16 13

l 16 56

l 24 56

l 25 24

l 25 31

l 25 30

l 30 56

l 30 27

l 1 27

l 3 1

l 2 3

l 4 2

l 23 4

l 22 23

l 21 22

l 20 21

l 19 20

l 18 19

l 17 18

l 9 17

l 10 9

l 12 10

l 12 14

l 12 11

l 11 13

l 11 8

l 10 8

l 8 6

l 3 6

l 6 27

l 14 13

l 9 7

l 7 5

l 5 2

l 55 17

l 54 55

l 54 18

l 19 53

l 52 53

l 52 20

l 21 51

l 50 51

l 50 22

l 23 49

l 48 49

l 4 48

l 26 1

l 26 39

l 28 26

l 29 28

l 31 29

l 32 31

l 33 32

l 34 33

l 35 34

l 36 35

l 37 36

l 38 37

l 39 38

l 39 40

l 40 41

l 38 41

l 42 37

l 42 43

l 36 43

l 44 35

l 44 45

l 34 45

l 46 33

l 46 47

l 47 32

