# Alias OBJ Model File
# Exported from SketchUp, (c) 2000-2012 Trimble Navigation Limited
# File units = meters

mtllib COM001.mtl

g Mesh1 COM001 Model

usemtl FrontColor
v 21.0764 3.451 -6.81788
vt -20.8841 93.6356
vn -2.01191e-016 -1 -2.81854e-016
v 20.546 3.451 -4.43954
vt 1.14364e-029 1.60216e-029
v 20.546 3.451 -6.81788
vt 1.14364e-029 93.6356
f 1/1/1 2/2/1 3/3/1

v 21.0764 3.451 -4.43954
vt -20.8841 1.72058e-029
f 2/2/1 1/1/1 4/4/1

usemtl _Tile_Ceramic_Natural_15
vt -5.70347 12.9714
vn 2.01191e-016 1 2.81854e-016
vt -5.70347 11.2847
vt -6.07968 12.9714
f 3/5/2 2/6/2 1/7/2

usemtl Color_D03
vt 93.6356 5.68434e-014
vn 1 4.91651e-018 -0
v 20.546 6.426 -4.43954
vt 0 117.126
vt 0 5.68434e-014
f 3/8/3 5/9/3 2/10/3

v 20.546 6.426 -6.81788
vt 93.6356 117.126
f 5/9/3 3/8/3 6/11/3

usemtl _7
vt 5.72424 3.6243
vn -1 -4.91651e-018 0
vt 5.72424 4.23537
vt 6.50071 3.6243
f 2/12/4 5/13/4 3/14/4

usemtl Color_D03
vn 0 0 -1
vt -20.8841 5.68434e-014
f 5/9/5 4/15/5 2/10/5

v 21.0764 6.146 -4.43954
vt -20.8841 106.102
f 4/15/5 5/9/5 7/16/5

usemtl _7
vt -2.43296 3.6243
vn -0 -0 1
vt -2.60615 3.6243
vt -2.43296 4.23537
f 2/17/6 4/18/6 5/19/6

usemtl _Tile_Ceramic_Natural_15
vt -6.07968 11.2847
f 4/20/2 1/7/2 2/6/2

usemtl FrontColor
v 21.1671 3.451 -6.81788
vt -24.4524 93.6356
f 4/4/1 1/1/1 8/21/1

usemtl _Tile_Ceramic_Natural_15
vt -6.14396 12.9714
f 8/22/2 1/7/2 4/20/2

usemtl FrontColor
v 21.1671 6.07 -6.81788
vt 24.4524 103.11
vn 0 0 1
vt 20.8841 5.68434e-014
vt 24.4524 5.68434e-014
f 9/23/7 1/24/7 8/25/7

v 21.0764 6.156 -6.81788
vt 20.8841 106.496
f 1/24/7 9/23/7 10/26/7

usemtl BackColor
vn -0 -0 -1
f 8/25/8 1/24/8 9/23/8

f 10/26/8 9/23/8 1/24/8

usemtl FrontColor
v 23.0052 6.156 -6.81788
vt 96.8181 106.496
f 10/26/7 9/23/7 11/27/7

usemtl BackColor
f 11/27/8 9/23/8 10/26/8

usemtl FrontColor
v 21.9521 6.07 -6.81788
vt 55.3576 103.11
f 12/28/7 11/27/7 9/23/7

v 22.0138 6.07 -6.81788
vt 57.7878 103.11
f 13/29/7 11/27/7 12/28/7

v 22.9171 6.07 -6.81788
vt 93.3501 103.11
f 14/30/7 11/27/7 13/29/7

v 22.9171 3.451 -6.81788
vt 93.3501 5.68434e-014
f 15/31/7 11/27/7 14/30/7

v 23.0052 3.451 -6.81788
vt 96.8181 5.68434e-014
f 11/27/7 15/31/7 16/32/7

usemtl BackColor
f 16/32/8 15/31/8 11/27/8

usemtl FrontColor
v 22.9171 3.451 -4.43954
vt -93.3501 1.33043e-029
vt -93.3501 93.6356
vt -96.8181 93.6356
f 17/33/1 15/34/1 16/35/1

v 22.0138 3.451 -4.43954
vt -57.7878 1.92985e-029
f 18/36/1 15/34/1 17/33/1

v 22.0138 3.451 -6.81788
vt -57.7878 93.6356
f 18/36/1 19/37/1 15/34/1

v 21.9521 3.451 -4.43954
vt -55.3576 1.91607e-029
f 20/38/1 19/37/1 18/36/1

v 21.9521 3.451 -6.81788
vt -55.3576 93.6356
f 20/38/1 21/39/1 19/37/1

v 21.1671 3.451 -4.43954
vt -24.4524 1.74082e-029
f 22/40/1 21/39/1 20/38/1

f 22/40/1 8/21/1 21/39/1

f 4/4/1 8/21/1 22/40/1

usemtl _Tile_Ceramic_Natural_15
vt -6.14396 11.2847
f 22/41/2 8/22/2 4/20/2

vt -6.70069 12.9714
f 21/42/2 8/22/2 22/41/2

usemtl Translucent_Glass_Blue
vt 55.3576 5.68434e-014
f 12/28/7 8/25/7 21/43/7

f 8/25/7 12/28/7 9/23/7

f 21/43/8 8/25/8 12/28/8

f 9/23/8 12/28/8 8/25/8

usemtl BackColor
f 9/23/8 11/27/8 12/28/8

f 12/28/8 11/27/8 13/29/8

f 13/29/8 11/27/8 14/30/8

f 14/30/8 11/27/8 15/31/8

usemtl Translucent_Glass_Blue
vt 57.7878 5.68434e-014
f 14/30/7 19/44/7 15/31/7

f 19/44/7 14/30/7 13/29/7

f 15/31/8 19/44/8 14/30/8

usemtl _Tile_Ceramic_Natural_15
vt -7.3851 12.9714
vt -6.74447 12.9714
vt -6.74447 11.2847
f 15/45/2 19/46/2 18/47/2

vt -6.70069 11.2847
f 18/47/2 19/46/2 20/48/2

f 19/46/2 21/42/2 20/48/2

usemtl FrontColor
f 13/29/7 21/43/7 19/44/7

f 21/43/7 13/29/7 12/28/7

usemtl BackColor
f 19/44/8 21/43/8 13/29/8

f 12/28/8 13/29/8 21/43/8

usemtl Translucent_Glass_Blue
f 13/29/8 14/30/8 19/44/8

usemtl _Tile_Ceramic_Natural_15
f 20/48/2 21/42/2 22/41/2

usemtl Translucent_Glass_Blue
v 21.9521 6.06 -4.43954
vt 55.3576 102.717
f 23/49/7 22/25/7 20/43/7

v 21.1671 6.06 -4.43954
vt 24.4524 102.717
f 22/25/7 23/49/7 24/50/7

f 20/43/8 22/25/8 23/49/8

f 24/50/8 23/49/8 22/25/8

usemtl Color_D03
v 23.0052 6.146 -4.43954
vt 96.8181 106.102
f 23/49/7 25/51/7 24/50/7

v 22.0138 6.06 -4.43954
vt 57.7878 102.717
f 26/52/7 25/51/7 23/49/7

v 22.9171 6.06 -4.43954
vt 93.3501 102.717
f 27/53/7 25/51/7 26/52/7

vt 93.3501 2.84217e-014
f 17/54/7 25/51/7 27/53/7

v 23.0052 3.451 -4.43954
vt 96.8181 2.84217e-014
f 25/51/7 17/54/7 28/55/7

usemtl BackColor
f 28/55/8 17/54/8 25/51/8

usemtl FrontColor
vt -96.8181 1.3501e-029
f 17/33/1 16/35/1 28/56/1

usemtl _Tile_Ceramic_Natural_15
vt -7.44757 12.9714
vt -7.3851 11.2847
f 16/57/2 15/45/2 17/58/2

f 17/58/2 15/45/2 18/47/2

usemtl Translucent_Glass_Blue
f 27/53/7 18/44/7 17/54/7

f 18/44/7 27/53/7 26/52/7

f 17/54/8 18/44/8 27/53/8

f 26/52/8 27/53/8 18/44/8

usemtl BackColor
f 26/52/8 25/51/8 27/53/8

f 23/49/8 25/51/8 26/52/8

f 24/50/8 25/51/8 23/49/8

usemtl Color_D03
vt 20.8841 106.102
f 7/59/7 24/50/7 25/51/7

f 4/24/7 24/50/7 7/59/7

f 24/50/7 4/24/7 22/25/7

usemtl BackColor
f 22/25/8 4/24/8 24/50/8

f 7/59/8 24/50/8 4/24/8

f 25/51/8 24/50/8 7/59/8

usemtl Color_D03
vt -96.8181 106.102
f 7/16/5 5/9/5 25/60/5

usemtl _7
vt -2.60615 4.17786
f 7/61/6 5/19/6 4/18/6

vt -3.23583 4.17786
f 25/62/6 5/19/6 7/61/6

usemtl Color_D03
v 23.365 6.146 -4.43954
vt -110.984 106.102
f 25/60/5 5/9/5 29/63/5

usemtl _7
vt -3.3533 4.17786
f 29/64/6 5/19/6 25/62/6

usemtl Color_D03
v 25.252 6.146 -4.43954
vt -185.275 106.102
f 29/63/5 5/9/5 30/65/5

usemtl _7
vt -3.96936 4.17786
f 30/66/6 5/19/6 29/64/6

usemtl Color_D03
v 25.8126 6.426 -4.43954
vt -207.347 117.126
f 30/65/5 5/9/5 31/67/5

usemtl _7
vt -4.15239 4.23537
f 31/68/6 5/19/6 30/66/6

usemtl Color_D03
v 25.8126 3.451 -4.43954
vt -207.347 0
f 32/69/5 30/65/5 31/67/5

v 25.252 3.451 -4.43954
vt -185.275 0
f 30/65/5 32/69/5 33/70/5

usemtl _7
vt -3.96936 3.6243
vt -4.15239 3.6243
f 33/71/6 32/72/6 30/66/6

usemtl FrontColor
vt -185.275 1.05063e-029
v 25.8126 3.451 -6.81788
vt -207.347 93.6356
vt -207.347 1.17579e-029
f 33/73/1 34/74/1 32/75/1

v 25.252 3.451 -6.81788
vt -185.275 93.6356
f 33/73/1 35/76/1 34/74/1

v 25.1562 3.451 -4.43954
vt -181.503 1.02924e-029
f 36/77/1 35/76/1 33/73/1

v 25.1562 3.451 -6.81788
vt -181.503 93.6356
f 36/77/1 37/78/1 35/76/1

v 24.3441 3.451 -4.43954
vt -149.533 8.4795e-030
f 38/79/1 37/78/1 36/77/1

v 24.3441 3.451 -6.81788
vt -149.533 93.6356
f 38/79/1 39/80/1 37/78/1

v 24.2816 3.451 -4.43954
vt -147.072 8.33991e-030
f 40/81/1 39/80/1 38/79/1

v 24.2816 3.451 -6.81788
vt -147.072 93.6356
f 40/81/1 41/82/1 39/80/1

v 23.4682 3.451 -4.43954
vt -115.047 1.45347e-029
f 42/83/1 41/82/1 40/81/1

v 23.4682 3.451 -6.81788
vt -115.047 93.6356
f 42/83/1 43/84/1 41/82/1

v 23.365 3.451 -4.43954
vt -110.984 1.43043e-029
f 44/85/1 43/84/1 42/83/1

v 23.365 3.451 -6.81788
vt -110.984 93.6356
f 44/85/1 45/86/1 43/84/1

f 28/56/1 45/86/1 44/85/1

f 28/56/1 16/35/1 45/86/1

usemtl _Tile_Ceramic_Natural_15
vt -7.44757 11.2847
f 28/87/2 16/57/2 17/58/2

vt -7.70275 12.9714
f 45/88/2 16/57/2 28/87/2

usemtl Color_D03
v 23.365 6.156 -6.81788
vt 110.984 106.496
vn 3.35305e-016 -2.21107e-017 1
vt 96.8181 5.47731e-014
vt 110.984 5.47731e-014
f 46/89/9 16/90/9 45/91/9

f 16/90/9 46/89/9 11/27/9

usemtl _7
vt 11.903 3.6243
vn -3.35305e-016 2.21107e-017 -1
vt 11.7855 3.6243
vt 11.903 4.17991
f 45/92/10 16/93/10 46/94/10

vt 11.7855 4.17991
f 11/95/10 46/94/10 16/93/10

usemtl Color_D03
v 25.8126 6.426 -6.81788
vt 207.347 117.126
f 46/89/9 47/96/9 11/27/9

v 25.252 6.156 -6.81788
vt 185.275 106.496
f 48/97/9 47/96/9 46/89/9

vt 207.347 5.47731e-014
f 48/97/9 34/98/9 47/96/9

vt 185.275 2.63514e-014
f 34/98/9 48/97/9 35/99/9

usemtl _7
vt 12.519 3.6243
vt 12.519 4.17991
vt 12.7021 3.6243
f 35/100/10 48/101/10 34/102/10

usemtl FrontColor
vt 181.503 5.68434e-014
vt 185.275 2.84217e-014
f 48/97/7 37/103/7 35/104/7

v 25.1562 5.98735 -6.81788
vt 181.503 99.8562
f 37/103/7 48/97/7 49/105/7

usemtl BackColor
f 35/104/8 37/103/8 48/97/8

usemtl _Tile_Ceramic_Natural_15
vt -9.04105 12.9714
vt -8.97311 12.9714
vt -8.97311 11.2847
f 35/106/2 37/107/2 36/108/2

vt -8.39719 11.2847
f 36/108/2 37/107/2 38/109/2

vt -8.39719 12.9714
f 37/107/2 39/110/2 38/109/2

usemtl Translucent_Glass_Blue
vt 149.533 5.68434e-014
f 49/105/7 39/111/7 37/103/7

v 24.3441 6.07 -6.81788
vt 149.533 103.11
f 39/111/7 49/105/7 50/112/7

f 37/103/8 39/111/8 49/105/8

f 50/112/8 49/105/8 39/111/8

v 25.1562 6.07 -6.81788
vt 181.503 103.11
f 50/112/7 49/105/7 51/113/7

f 51/113/8 49/105/8 50/112/8

usemtl FrontColor
f 49/105/7 48/97/7 51/113/7

usemtl BackColor
f 49/105/8 48/97/8 37/103/8

f 51/113/8 48/97/8 49/105/8

usemtl FrontColor
f 51/113/7 48/97/7 50/112/7

usemtl BackColor
f 50/112/8 48/97/8 51/113/8

usemtl FrontColor
v 24.2816 6.07 -6.81788
vt 147.072 103.11
f 50/112/7 48/97/7 52/114/7

usemtl BackColor
f 52/114/8 48/97/8 50/112/8

usemtl FrontColor
v 23.4682 6.07 -6.81788
vt 115.047 103.11
f 52/114/7 48/97/7 53/115/7

usemtl BackColor
f 53/115/8 48/97/8 52/114/8

usemtl FrontColor
f 46/89/7 53/115/7 48/97/7

vt 110.984 5.68434e-014
f 45/116/7 53/115/7 46/89/7

vt 115.047 5.68434e-014
f 53/115/7 45/116/7 43/117/7

usemtl BackColor
f 43/117/8 45/116/8 53/115/8

usemtl _Tile_Ceramic_Natural_15
vt -7.77594 12.9714
vt -7.70275 11.2847
f 43/118/2 45/88/2 44/119/2

f 44/119/2 45/88/2 28/87/2

usemtl Color_D03
vt -110.984 2.84217e-014
vt -96.8181 2.84217e-014
f 25/60/5 44/120/5 28/121/5

f 44/120/5 25/60/5 29/63/5

usemtl _7
vt -3.23583 3.6243
vt -3.3533 3.6243
f 28/122/6 44/123/6 25/62/6

f 29/64/6 25/62/6 44/123/6

usemtl Color_D03
vt 110.984 2.84217e-014
v 23.4682 6.06 -4.43954
vt 115.047 102.717
vt 110.984 106.102
f 44/124/7 54/125/7 29/126/7

vt 115.047 2.84217e-014
f 54/125/7 44/124/7 42/127/7

usemtl BackColor
f 42/127/8 44/124/8 54/125/8

usemtl _Tile_Ceramic_Natural_15
vt -7.77594 11.2847
f 42/128/2 43/118/2 44/119/2

vt -8.35285 12.9714
f 41/129/2 43/118/2 42/128/2

usemtl Translucent_Glass_Blue
vt 147.072 5.68434e-014
f 52/114/7 43/117/7 41/130/7

f 43/117/7 52/114/7 53/115/7

f 41/130/8 43/117/8 52/114/8

f 53/115/8 52/114/8 43/117/8

usemtl FrontColor
f 41/130/7 50/112/7 52/114/7

f 50/112/7 41/130/7 39/111/7

usemtl BackColor
f 39/111/8 41/130/8 50/112/8

usemtl _Tile_Ceramic_Natural_15
vt -8.35285 11.2847
f 39/110/2 41/129/2 40/131/2

f 40/131/2 41/129/2 42/128/2

usemtl Translucent_Glass_Blue
v 24.2816 6.06 -4.43954
vt 147.072 102.717
vt 147.072 0
f 55/132/7 42/127/7 40/133/7

f 42/127/7 55/132/7 54/125/7

f 40/133/8 42/127/8 55/132/8

f 54/125/8 55/132/8 42/127/8

usemtl Color_D03
vt 185.275 106.102
f 55/132/7 30/134/7 54/125/7

v 24.3441 6.06 -4.43954
vt 149.533 102.717
f 56/135/7 30/134/7 55/132/7

v 25.1562 6.06 -4.43954
vt 181.503 102.717
f 57/136/7 30/134/7 56/135/7

v 25.1562 5.97735 -4.43954
vt 181.503 99.4625
f 58/137/7 30/134/7 57/136/7

vt 181.503 0
f 36/138/7 30/134/7 58/137/7

vt 185.275 0
f 30/134/7 36/138/7 33/139/7

usemtl BackColor
f 33/139/8 36/138/8 30/134/8

usemtl _Tile_Ceramic_Natural_15
vt -9.04105 11.2847
f 33/140/2 35/106/2 36/108/2

vt -9.43866 12.9714
f 34/141/2 35/106/2 33/140/2

vt -9.43866 11.2847
f 32/142/2 34/141/2 33/140/2

usemtl Color_D03
vt -6.18862e-031 -1.01942e-015
vn -1 -4.91651e-018 -2.98467e-033
vt -93.6356 117.126
vt -93.6356 5.5824e-014
f 32/143/11 47/144/11 34/145/11

vt -6.18862e-031 117.126
f 47/144/11 32/143/11 31/146/11

usemtl _7
vt 2.82542 4.23537
vn 1 4.91651e-018 2.98467e-033
vt 2.82542 3.6243
vt 2.04895 4.23537
f 31/147/12 32/148/12 47/149/12

f 31/68/6 30/66/6 32/72/6

vt 2.04895 3.6243
f 34/150/12 47/149/12 32/148/12

vt 12.7021 4.23537
f 47/151/10 34/102/10 48/101/10

f 46/94/10 47/151/10 48/101/10

f 11/95/10 47/151/10 46/94/10

usemtl Color_D03
f 11/27/9 47/96/9 10/26/9

usemtl _7
vt 11.1558 4.17991
f 10/152/10 47/151/10 11/95/10

usemtl Color_D03
vt 3.13965e-014 117.126
f 6/153/9 10/26/9 47/96/9

vt 3.13965e-014 5.47731e-014
f 3/154/9 10/26/9 6/153/9

vt 20.8841 5.47731e-014
f 10/26/9 3/154/9 1/155/9

usemtl _7
vt 11.1558 3.6243
vt 10.9826 3.6243
f 1/156/10 3/157/10 10/152/10

vt 10.9826 4.23537
f 6/158/10 10/152/10 3/157/10

f 47/151/10 10/152/10 6/158/10

vt 6.50071 4.23537
f 6/159/4 3/14/4 5/13/4

usemtl BackColor
f 48/97/8 53/115/8 46/89/8

f 46/89/8 53/115/8 45/116/8

f 58/137/8 30/134/8 36/138/8

f 57/136/8 30/134/8 58/137/8

f 56/135/8 30/134/8 57/136/8

f 55/132/8 30/134/8 56/135/8

f 54/125/8 30/134/8 55/132/8

usemtl Color_D03
f 29/126/7 54/125/7 30/134/7

usemtl BackColor
f 29/126/8 54/125/8 44/124/8

f 30/134/8 54/125/8 29/126/8

usemtl Color_D03
f 40/133/7 56/135/7 55/132/7

vt 149.533 0
f 56/135/7 40/133/7 38/160/7

usemtl BackColor
f 38/160/8 40/133/8 56/135/8

usemtl _Tile_Ceramic_Natural_15
f 38/109/2 39/110/2 40/131/2

usemtl BackColor
f 55/132/8 56/135/8 40/133/8

usemtl Translucent_Glass_Blue
f 38/160/7 58/137/7 56/135/7

f 58/137/7 38/160/7 36/138/7

f 36/138/8 38/160/8 58/137/8

f 56/135/8 58/137/8 38/160/8

f 56/135/7 58/137/7 57/136/7

f 57/136/8 58/137/8 56/135/8

usemtl BackColor
f 52/114/8 50/112/8 41/130/8

usemtl FrontColor
f 20/43/7 26/52/7 23/49/7

f 26/52/7 20/43/7 18/44/7

usemtl BackColor
f 18/44/8 20/43/8 26/52/8

f 23/49/8 26/52/8 20/43/8

f 27/53/8 25/51/8 17/54/8

g Mesh2 COM001 Model

l 33 32

l 36 33

l 38 36

l 40 38

l 42 40

l 44 42

l 28 44

l 17 28

l 18 17

l 20 18

l 22 20

l 4 22

l 2 4

l 3 2

l 3 1

l 3 6

l 6 47

l 6 5

l 2 5

l 5 31

l 32 31

l 32 34

l 35 34

l 35 37

l 48 35

l 46 48

l 46 45

l 16 45

l 16 15

l 16 11

l 10 11

l 1 10

l 8 1

l 21 8

l 19 21

l 15 19

l 15 14

l 13 14

l 13 19

l 12 21

l 9 12

l 9 8

l 43 45

l 41 43

l 39 41

l 37 39

l 37 49

l 49 51

l 50 51

l 50 39

l 52 41

l 53 52

l 53 43

l 34 47

l 31 47

l 4 7

l 7 25

l 28 25

l 24 22

l 24 23

l 23 26

l 23 20

l 26 27

l 26 18

l 17 27

l 29 44

l 29 30

l 30 33

l 54 42

l 54 55

l 55 40

l 56 38

l 56 57

l 58 57

l 36 58

g Mesh3 Model

v -46.1606 5.65 -333.138
v -47.599 5.65 -333.51
l 59 60

g Mesh4 Model

v -34.4464 9.6 -45.4199
v -34.4276 9.6 -45.4925
l 61 62

