# Alias OBJ Model File
# Exported from SketchUp, (c) 2000-2012 Trimble Navigation Limited
# File units = meters

mtllib COM007.mtl

g Mesh1 COM007 Model

usemtl FrontColor
v 33.8849 3.451 -14.7016
vt -5.90551 48.7288
vn 4.04127e-016 -1 2.68435e-016
v 33.7349 3.451 -14.6583
vt -3.44579e-029 47.0239
v 33.7349 3.451 -14.7016
vt -3.44579e-029 48.7288
f 1/1/1 2/2/1 3/3/1

v 33.7349 3.451 -13.6094
vt 0 5.72832
f 2/2/1 1/1/1 4/4/1

usemtl _Tile_Ceramic_Natural_15
vt -15.0573 18.5627
vn -4.04127e-016 1 -2.68435e-016
vt -15.0573 18.532
vt -15.1637 18.5627
f 3/5/2 2/6/2 1/7/2

usemtl Color_D03
v 33.7349 6.426 -14.7016
vt 48.7288 117.126
vn 1 0 -0
vt 47.0239 8.52651e-014
vt 48.7288 8.52651e-014
f 5/8/3 2/9/3 3/10/3

v 33.7349 5.754 -14.6583
vt 47.0239 90.6693
f 5/8/3 6/11/3 2/9/3

v 33.7349 5.754 -13.6094
vt 5.72832 90.6693
f 5/8/3 7/12/3 6/11/3

v 33.7349 6.426 -13.569
vt 4.13846 117.126
f 7/12/3 5/8/3 8/13/3

usemtl _7
vt 8.70479 4.23537
vn -1 -0 0
vt 9.07456 4.23537
vt 8.71798 4.09734
f 8/14/4 5/15/4 7/16/4

vt 9.06042 4.09734
f 6/17/4 7/16/4 5/15/4

vt 9.06042 3.6243
f 2/18/4 6/17/4 5/15/4

vt 9.07456 3.6243
f 3/19/4 2/18/4 5/15/4

usemtl Color_D03
vt 5.90551 1.13687e-013
vn 0 0 1
vt 0 117.126
vt 0 8.52651e-014
f 1/20/5 5/21/5 3/22/5

v 33.8849 6.426 -14.7016
vt 5.90551 117.126
f 5/21/5 1/20/5 9/23/5

usemtl _7
vt 15.2885 3.6243
vn -0 -0 -1
vt 15.2885 4.23537
vt 15.3375 3.6243
f 3/24/6 5/25/6 1/26/6

vt 15.3375 4.23537
f 9/27/6 1/26/6 5/25/6

usemtl Color_D03
v 33.8849 3.451 -14.8264
vt 53.6437 1.13658e-013
vn 1 4.91651e-018 -0
vt 48.7288 1.13658e-013
f 10/28/7 9/8/7 1/29/7

v 33.8849 6.426 -14.8264
vt 53.6437 117.126
f 9/8/7 10/28/7 11/30/7

usemtl _7
vn -1 -4.91651e-018 0
vt 9.11532 3.6243
f 1/19/8 9/15/8 10/31/8

vt 9.11532 4.23537
f 11/32/8 10/31/8 9/15/8

usemtl Color_D03
v 38.6064 3.451 -14.8264
vt 191.789 1.69601e-013
vn 5.2995e-033 -1.73299e-017 1
vt 5.90551 1.12757e-013
f 12/33/9 11/23/9 10/34/9

v 38.6064 6.426 -14.8264
vt 191.789 117.126
f 11/23/9 12/33/9 13/35/9

usemtl _7
vn -5.2995e-033 1.73299e-017 -1
vt 16.8789 3.6243
f 10/26/10 11/27/10 12/36/10

vt 16.8789 4.23537
f 13/37/10 12/36/10 11/27/10

usemtl Color_D03
v 38.6064 3.451 -14.7442
vt -50.4081 1.7053e-013
vn -1 0 -0
vt -53.6437 117.126
vt -53.6437 1.7053e-013
f 14/38/11 13/39/11 12/40/11

v 38.6064 5.888 -14.7442
vt -50.4081 95.9449
f 15/41/11 13/39/11 14/38/11

v 38.6064 5.888 -13.6432
vt -7.06168 95.9449
f 16/42/11 13/39/11 15/41/11

v 38.6064 6.426 -13.569
vt -4.13846 117.126
f 16/42/11 17/43/11 13/39/11

v 38.6064 3.451 -13.569
vt -4.13846 1.7053e-013
f 17/43/11 16/42/11 18/44/11

usemtl _7
vt -0.155132 3.6243
vn 1 -0 0
vt -0.179373 4.12487
vt -0.155132 4.23537
f 18/45/12 16/46/12 17/47/12

usemtl Color_D03
v 38.6064 3.451 -13.6432
vt -7.06168 1.7053e-013
f 19/48/11 18/44/11 16/42/11

usemtl FrontColor
vt -191.789 4.13846
vt -191.789 50.4081
vt -191.789 7.06168
f 18/49/1 14/50/1 19/51/1

vt -191.789 53.6437
f 18/49/1 12/52/1 14/50/1

v 35.6325 3.451 -13.569
vt -74.7071 4.13846
f 20/53/1 12/52/1 18/49/1

v 34.1825 3.451 -13.4639
vt -17.6205 -5.14942e-029
f 21/54/1 12/52/1 20/53/1

v 34.1825 3.451 -13.569
vt -17.6205 4.13846
f 22/55/1 12/52/1 21/54/1

f 1/1/1 12/52/1 22/55/1

vt -5.90551 53.6437
f 12/52/1 1/1/1 10/56/1

usemtl _Tile_Ceramic_Natural_15
vt -15.1637 18.6512
vt -18.5123 18.6512
f 10/57/2 1/7/2 12/58/2

vt -15.3748 17.7594
f 22/59/2 12/58/2 1/7/2

vt -15.3748 17.6849
f 21/60/2 12/58/2 22/59/2

vt -16.4031 17.7594
f 20/61/2 12/58/2 21/60/2

vt -18.5123 17.7594
f 18/62/2 12/58/2 20/61/2

vt -18.5123 18.593
f 14/63/2 12/58/2 18/62/2

usemtl _7
vt -0.565656 3.6243
vt -0.565656 4.23537
vt -0.538825 3.6243
f 12/64/12 13/65/12 14/66/12

vt -0.538825 4.12487
f 14/66/12 13/65/12 15/67/12

f 15/67/12 13/65/12 16/46/12

f 13/65/12 17/47/12 16/46/12

usemtl Color_D03
v 38.7094 5.888 -14.7442
vt -195.844 50.4081
vn 0 -1 -0
f 23/68/13 16/51/13 15/50/13

v 38.7094 5.888 -13.6432
vt -195.844 7.06168
f 16/51/13 23/68/13 24/69/13

usemtl _7
vt -8.32927 5.94397
vn -0 1 0
vt -8.32927 5.71782
vt -8.3629 5.94397
f 15/70/14 16/71/14 23/72/14

vt -8.3629 5.71782
f 24/73/14 23/72/14 16/71/14

usemtl Color_D03
v 38.7094 3.451 -13.6432
vt -195.844 1.7053e-013
vn 0 0 -1
vt -191.789 95.9449
vt -195.844 95.9449
f 25/74/15 16/75/15 24/76/15

vt -191.789 1.7053e-013
f 16/75/15 25/74/15 19/77/15

usemtl _7
vt -8.32927 3.6243
vn -0 -0 1
vt -8.3629 3.6243
vt -8.32927 4.12487
f 19/78/16 25/79/16 16/80/16

usemtl FrontColor
v 38.7094 3.451 -14.7442
f 19/51/1 26/68/1 25/69/1

f 26/68/1 19/51/1 14/50/1

usemtl _Tile_Ceramic_Natural_15
vt -18.5123 17.8121
vt -18.5853 18.593
f 14/63/2 19/81/2 26/82/2

f 19/81/2 14/63/2 18/62/2

usemtl _7
vt -0.179373 3.6243
f 16/46/12 18/45/12 19/83/12

usemtl _Tile_Ceramic_Natural_15
vt -18.5853 17.8121
f 25/84/2 26/82/2 19/81/2

usemtl Color_D03
vt 195.844 95.9449
vt 191.789 1.7053e-013
vt 195.844 1.7053e-013
f 23/85/5 14/86/5 26/87/5

vt 191.789 95.9449
f 14/86/5 23/85/5 15/88/5

usemtl _7
vt 16.9126 3.6243
vt 16.9126 4.12487
f 26/89/6 14/36/6 23/90/6

vt 16.8789 4.12487
f 15/91/6 23/90/6 14/36/6

vt -8.3629 4.12487
f 24/92/16 16/80/16 25/79/16

usemtl Color_D03
v 35.6325 5.676 -13.569
vt -74.7071 87.5984
vn -2.76563e-016 -9.11924e-016 -1
vt -191.789 1.74304e-013
vt -74.7071 1.74304e-013
f 27/93/17 18/94/17 20/95/17

vt -191.789 117.126
f 18/94/17 27/93/17 17/96/17

usemtl _7
vt -7.35837 3.6243
vn 2.76563e-016 9.11924e-016 1
vt -7.35837 4.08132
f 20/97/18 18/78/18 27/98/18

vt -8.32927 4.23537
f 17/99/18 27/98/18 18/78/18

usemtl Color_D03
v 34.1825 5.676 -13.569
vt -17.6205 87.5984
f 17/96/17 27/93/17 28/100/17

usemtl _7
vt -6.88498 4.08132
f 28/101/18 27/98/18 17/99/18

usemtl Color_D03
vn -4.9787e-016 -1 -0
v 34.1825 5.676 -13.4639
vt -17.6205 0
f 27/53/19 29/102/19 28/55/19

v 35.6325 5.676 -13.4639
vt -74.7071 0
f 29/102/19 27/53/19 30/103/19

usemtl _7
vt -6.88498 5.70257
vn 4.9787e-016 1 0
vt -6.88498 5.68098
vt -7.35837 5.70257
f 28/104/20 29/105/20 27/106/20

usemtl Color_D03
vt 0 87.5984
vt 4.13846 1.98952e-013
vt 4.13846 87.5984
f 29/107/3 22/108/3 28/109/3

vt 0 1.98952e-013
f 22/108/3 29/107/3 21/110/3

usemtl _7
vt 8.67047 3.6243
vt 8.67047 4.08132
vt 8.70479 3.6243
f 21/111/4 29/112/4 22/113/4

vt 8.70479 4.08132
f 28/114/4 22/113/4 29/112/4

usemtl Color_D03
vt -17.6205 2.02726e-013
vt -1.14454e-015 117.126
f 22/115/17 8/116/17 28/100/17

v 33.7349 3.451 -13.569
vt -1.14454e-015 3.77396e-015
f 8/116/17 22/115/17 31/117/17

usemtl _7
vt -6.73886 3.6243
vt -6.88498 3.6243
vt -6.73886 4.23537
f 31/118/18 22/119/18 8/120/18

usemtl FrontColor
vt 0 4.13846
f 31/121/1 1/1/1 22/55/1

f 4/4/1 1/1/1 31/121/1

usemtl _Tile_Ceramic_Natural_15
vt -15.0573 17.7881
f 4/122/2 1/7/2 2/6/2

vt -15.0573 17.7594
f 31/123/2 1/7/2 4/122/2

f 22/59/2 1/7/2 31/123/2

usemtl Color_D03
vt 5.72832 0
vt 4.13846 0
f 4/124/3 8/13/3 31/125/3

f 8/13/3 4/124/3 7/12/3

usemtl _7
vt 8.71798 3.6243
f 31/113/4 8/14/4 4/126/4

f 7/16/4 4/126/4 8/14/4

f 28/101/18 8/120/18 22/119/18

usemtl Color_D03
f 17/96/17 28/100/17 8/116/17

usemtl _7
f 8/120/18 28/101/18 17/99/18

vt -7.35837 5.68098
f 30/127/20 27/106/20 29/105/20

usemtl Color_D03
vt -4.13846 87.5984
v 35.6325 3.451 -13.4639
vt 0 1.7053e-013
f 27/128/11 32/129/11 30/107/11

f 32/129/11 27/128/11 20/44/11

usemtl _7
vt -0.120814 4.08132
vt -0.120814 3.6243
vt -0.155132 4.08132
f 30/130/12 32/131/12 27/132/12

f 20/45/12 27/132/12 32/131/12

usemtl FrontColor
vt -74.7071 -3.76719e-029
f 32/133/1 21/54/1 20/53/1

usemtl _Tile_Ceramic_Natural_15
vt -16.4031 17.6849
f 20/61/2 21/60/2 32/134/2

g Mesh2 COM007 Model

l 20 18

l 32 20

l 21 32

l 21 22

l 29 21

l 29 28

l 30 29

l 32 30

l 30 27

l 27 28

l 20 27

l 28 22

l 31 22

l 4 31

l 2 4

l 3 2

l 3 1

l 3 5

l 5 9

l 5 8

l 31 8

l 8 17

l 18 17

l 18 19

l 19 25

l 19 16

l 16 15

l 16 24

l 24 23

l 25 24

l 25 26

l 14 26

l 14 12

l 15 14

l 15 23

l 23 26

l 12 10

l 12 13

l 13 11

l 17 13

l 10 11

l 1 10

l 1 9

l 9 11

l 2 6

l 6 7

l 7 4

g Mesh3 Model

v -46.1606 5.65 -333.138
v -47.599 5.65 -333.51
l 33 34

g Mesh4 Model

v -34.4464 9.6 -45.4199
v -34.4276 9.6 -45.4925
l 35 36

