# Alias OBJ Model File
# Exported from SketchUp, (c) 2000-2012 Trimble Navigation Limited
# File units = meters

mtllib COM004.mtl

g Mesh1 COM004 Model

usemtl FrontColor
v 34.1825 3.451 -13.4639
vt -52.2643 251.955
vn -8.91978e-017 -1 -3.80147e-017
v 32.855 3.451 -7.53219
vt -2.27374e-013 18.4252
v 32.855 3.451 -13.4639
vt 5.07031e-030 251.955
f 1/1/1 2/2/1 3/3/1

v 33.497 3.451 -7.53219
vt -25.2779 18.4252
f 2/2/1 1/1/1 4/4/1

usemtl _Tile_Ceramic_Natural_15
vt -14.4333 17.6849
vn 8.91978e-017 1 3.80147e-017
vt -14.4333 13.478
vt -15.3748 17.6849
f 3/5/2 2/6/2 1/7/2

usemtl Color_D03
vt 251.955 5.68434e-014
vn 1 4.91651e-018 -9.73637e-016
v 32.855 6.426 -7.53219
vt 18.4252 117.126
vt 18.4252 2.84217e-014
f 3/8/3 5/9/3 2/10/3

v 32.855 6.426 -13.4639
vt 251.955 117.126
f 5/9/3 3/8/3 6/11/3

usemtl _7
vt 6.73392 3.6243
vn -1 -4.91651e-018 9.73637e-016
vt 6.73392 4.23537
vt 8.67047 3.6243
f 2/12/4 5/13/4 3/14/4

usemtl Color_D03
v 33.497 6.426 -7.53219
vt -25.2779 117.126
vn 1.94852e-032 1.73299e-017 -1
vt -2.27374e-013 2.81024e-014
vt -2.27374e-013 117.126
f 7/15/5 2/16/5 5/17/5

vt -25.2779 -3.19306e-016
f 2/16/5 7/15/5 4/18/5

usemtl _7
vt -6.66119 3.6243
vn -1.94852e-032 -1.73299e-017 1
vt -6.66119 4.23537
vt -6.45158 3.6243
f 4/19/6 7/20/6 2/21/6

usemtl Color_D03
v 33.497 6.426 -7.06419
vt 0 117.126
vn 1 4.91651e-018 -0
vt 18.4252 -1.24279e-016
f 8/22/7 4/23/7 7/9/7

v 33.497 3.451 -7.06419
vt 0 -1.24279e-016
f 4/23/7 8/22/7 9/24/7

usemtl _7
vt 6.58113 3.6243
vn -1 -4.91651e-018 0
vt 6.58113 4.23537
f 9/25/8 8/26/8 4/12/8

usemtl Color_D03
vn -2.92693e-033 1.73299e-017 -1
v 37.7714 3.451 -7.06419
vt -193.558 2.84217e-014
vt -25.2779 1.28218e-048
f 8/15/9 10/27/9 9/28/9

v 37.7714 6.426 -7.06419
vt -193.558 117.126
f 10/27/9 8/15/9 11/29/9

usemtl _7
vn 2.92693e-033 -1.73299e-017 1
vt -8.05666 3.6243
f 9/19/10 10/30/10 8/20/10

usemtl FrontColor
vt -25.2779 8.57128e-032
vt -193.558 1.73676e-030
f 9/31/1 1/1/1 10/32/1

f 4/4/1 1/1/1 9/31/1

usemtl _Tile_Ceramic_Natural_15
vt -14.8886 13.478
f 4/33/2 1/7/2 2/6/2

vt -14.8886 13.1461
f 9/34/2 1/7/2 4/33/2

vt -17.9201 13.1461
f 10/35/2 1/7/2 9/34/2

usemtl FrontColor
v 35.6325 3.451 -13.4639
vt -109.351 251.955
f 10/32/1 1/1/1 12/36/1

usemtl _Tile_Ceramic_Natural_15
vt -16.4031 17.6849
f 12/37/2 1/7/2 10/35/2

usemtl FrontColor
v 37.7714 3.451 -13.4639
vt -193.558 251.955
f 10/32/1 12/36/1 13/38/1

usemtl _Tile_Ceramic_Natural_15
vt -17.9201 17.6849
f 13/39/2 12/37/2 10/35/2

usemtl Color_D03
v 37.7714 6.426 -13.4639
vt 193.558 117.126
vn 0 0 1
vt 109.351 0
vt 193.558 0
f 14/40/11 12/41/11 13/42/11

v 35.6325 5.676 -13.4639
vt 109.351 87.5984
f 12/41/11 14/40/11 15/43/11

usemtl _7
vt 16.6063 3.6243
vn -0 -0 -1
vt 15.908 3.6243
vt 16.6063 4.23537
f 13/44/12 12/45/12 14/46/12

vt 15.908 4.08132
f 15/47/12 14/46/12 12/45/12

usemtl Color_D03
v 34.1825 5.676 -13.4639
vt 52.2643 87.5984
f 15/43/11 14/40/11 16/48/11

usemtl _7
vt 15.4346 4.08132
f 16/49/12 14/46/12 15/47/12

usemtl Color_D03
f 6/22/11 16/48/11 14/40/11

vt 0 5.68434e-014
f 3/50/11 16/48/11 6/22/11

vt 52.2643 2.84217e-014
f 16/48/11 3/50/11 1/51/11

usemtl _7
vt 15.4346 3.6243
vt 15.0012 3.6243
f 1/52/12 3/53/12 16/49/12

vt 15.0012 4.23537
f 6/54/12 16/49/12 3/53/12

f 14/46/12 16/49/12 6/54/12

vt 8.67047 4.23537
f 6/55/4 3/14/4 5/13/4

usemtl Color_D03
vt 1.07348e-031 2.74701e-014
vn -1 -4.91651e-018 5.54605e-034
vt -251.955 117.126
vt -251.955 -9.51632e-016
f 10/56/13 14/57/13 13/58/13

vt 1.07348e-031 117.126
f 14/57/13 10/56/13 11/59/13

usemtl _7
vt 1.96853 4.23537
vn 1 4.91651e-018 -5.54605e-034
vt 1.96853 3.6243
vt -0.120814 4.23537
f 11/60/14 10/61/14 14/62/14

vt -8.05666 4.23537
f 11/63/10 8/20/10 10/30/10

vt -0.120814 3.6243
f 13/64/14 14/62/14 10/61/14

f 7/13/8 4/12/8 8/26/8

vt -6.45158 4.23537
f 5/65/6 2/21/6 7/20/6

g Mesh2 COM004 Model

l 3 1

l 2 3

l 4 2

l 9 4

l 9 10

l 9 8

l 8 11

l 8 7

l 7 5

l 4 7

l 2 5

l 5 6

l 3 6

l 6 14

l 11 14

l 10 11

l 10 13

l 12 13

l 1 12

l 16 1

l 15 16

l 12 15

l 13 14

