# Alias OBJ Model File
# Exported from SketchUp, (c) 2000-2012 Trimble Navigation Limited
# File units = meters

mtllib CUA021.mtl

g Mesh1 CUA021 Model

usemtl FrontColor
v 4.61455 3.451 -10.2872
vt -9.71146 126.89
vn -3.03129e-016 -1 -1.6746e-018
v 4.4032 3.451 -10.1831
vt -1.39062 122.79
v 4.36788 3.451 -10.2872
vt 8.61544e-030 126.89
f 1/1/1 2/2/1 3/3/1

v 4.42513 3.451 -10.1184
vt -2.25415 120.244
f 2/2/1 1/1/1 4/4/1

usemtl _Tile_Ceramic_Natural_15
vt 5.77035 15.4319
vn 3.03129e-016 1 1.6746e-018
vt 5.7453 15.3581
vt 5.59541 15.4319
f 3/5/2 2/6/2 1/7/2

usemtl Color_D03
vt 120.167 2.80051e-014
vn 0.947015 1.02222e-017 -0.32119
v 4.4032 6.426 -10.1831
vt 115.837 117.126
vt 115.837 2.80051e-014
f 3/8/3 5/9/3 2/10/3

v 4.36788 6.426 -10.2872
vt 120.167 117.126
f 5/9/3 3/8/3 6/11/3

usemtl _7
vt 6.96149 3.6243
vn -0.947015 -1.02222e-017 0.32119
vt 6.96149 4.23537
vt 6.99739 3.6243
f 2/12/4 5/13/4 3/14/4

usemtl Color_D03
v 4.42513 6.426 -10.1184
vt 113.149 117.126
f 7/15/3 2/10/3 5/9/3

vt 113.149 2.80051e-014
f 2/10/3 7/15/3 4/16/3

usemtl _7
vt 6.93919 3.6243
vt 6.93919 4.23537
f 4/17/4 7/18/4 2/12/4

usemtl Color_D03
v 4.42513 6.426 -7.29019
vt 8.89764 117.126
vn 1 4.91651e-018 -0
vt 120.244 2.84106e-014
vt 120.244 117.126
f 8/19/5 4/20/5 7/21/5

v 4.42513 3.451 -7.29019
vt 8.89764 2.84106e-014
f 4/20/5 8/19/5 9/22/5

usemtl _7
vt 6.65491 3.6243
vn -1 -4.91651e-018 0
vt 6.65491 4.23537
vt 7.57825 3.6243
f 9/23/6 8/24/6 4/25/6

usemtl Color_D03
vt -2.25415 117.126
vn 0 1.73299e-017 -1
v 4.81767 3.451 -7.29019
vt -17.7081 2.82675e-014
vt -2.25415 2.82675e-014
f 8/26/7 10/27/7 9/28/7

v 4.81767 6.426 -7.29019
vt -17.7081 117.126
f 10/27/7 8/26/7 11/29/7

usemtl _7
vt 2.83012 3.6243
vn -0 -1.73299e-017 1
vt 2.70197 3.6243
vt 2.83012 4.23537
f 9/30/8 10/31/8 8/32/8

usemtl FrontColor
vt -2.25415 8.89764
vt -17.7081 8.89764
f 9/33/1 1/1/1 10/34/1

f 4/4/1 1/1/1 9/33/1

usemtl _Tile_Ceramic_Natural_15
vt 5.72975 15.3122
f 4/35/2 1/7/2 2/6/2

vt 5.72975 13.3064
f 9/36/2 1/7/2 4/35/2

vt 5.45136 13.3064
f 10/37/2 1/7/2 9/36/2

usemtl FrontColor
v 5.51038 3.451 -10.2872
vt -44.9802 126.89
f 10/34/1 1/1/1 12/38/1

usemtl _Tile_Ceramic_Natural_15
vt 4.96007 15.4319
f 12/39/2 1/7/2 10/37/2

usemtl FrontColor
v 6.73853 3.451 -7.06419
vt -93.3328 4.73777e-032
f 13/40/1 10/34/1 12/38/1

v 4.81767 3.451 -7.06419
vt -17.7081 5.65841e-032
f 10/34/1 13/40/1 14/41/1

usemtl _Tile_Ceramic_Natural_15
vt 5.45136 13.1461
vt 4.08904 13.1461
f 14/42/2 13/43/2 10/37/2

usemtl Color_D03
vt -17.7081 2.84217e-014
vn 6.51301e-033 1.73299e-017 -1
v 6.73853 6.426 -7.06419
vt -93.3328 117.126
vt -93.3328 -1.05344e-047
f 14/44/9 15/45/9 13/46/9

v 4.81767 6.426 -7.06419
f 15/45/9 14/44/9 16/29/9

usemtl _7
vt 2.07485 3.6243
vn -6.51301e-033 -1.73299e-017 1
vt 2.07485 4.23537
f 13/47/10 15/48/10 14/31/10

usemtl Color_D03
v 6.73853 6.426 -10.2872
vt -126.89 117.126
vn -1 -4.91651e-018 -0
vt 0 -4.58872e-016
vt 0 117.126
f 17/49/11 13/50/11 15/51/11

v 6.73853 3.451 -10.2872
vt -126.89 -4.58872e-016
f 13/50/11 17/49/11 18/52/11

usemtl _7
vt 1.96853 4.23537
vn 1 4.91651e-018 0
vt 1.96853 3.6243
vt 0.916294 4.23537
f 15/53/12 13/54/12 17/55/12

vt 0.916294 3.6243
f 18/56/12 17/55/12 13/54/12

usemtl Color_D03
vt 93.3328 117.126
vn 0 0 1
vt 44.9802 2.84217e-014
vt 93.3328 0
f 17/57/13 12/58/13 18/59/13

v 5.51038 5.643 -10.2872
vt 44.9802 86.2992
f 12/58/13 17/57/13 19/60/13

usemtl _7
vt 6.47481 3.6243
vn -0 -0 -1
vt 6.07384 3.6243
vt 6.47481 4.23537
f 18/61/14 12/62/14 17/63/14

usemtl FrontColor
vt -93.3328 126.89
f 13/40/1 12/38/1 18/64/1

usemtl _Tile_Ceramic_Natural_15
f 12/39/2 10/37/2 13/43/2

vt 4.08904 15.4319
f 18/65/2 12/39/2 13/43/2

usemtl _7
vt 6.07384 4.07454
f 19/66/14 17/63/14 12/62/14

usemtl Color_D03
v 4.61455 5.643 -10.2872
vt 9.71146 86.2992
f 19/60/13 17/57/13 20/67/13

usemtl _7
vt 5.78138 4.07454
f 20/68/14 17/63/14 19/66/14

usemtl Color_D03
f 6/51/13 20/67/13 17/57/13

vt 0 2.84217e-014
f 3/69/13 20/67/13 6/51/13

vt 9.71146 2.84217e-014
f 20/67/13 3/69/13 1/70/13

usemtl _7
vt 5.78138 3.6243
vt 5.70084 3.6243
f 1/71/14 3/72/14 20/68/14

vt 5.70084 4.23537
f 6/73/14 20/68/14 3/72/14

f 17/63/14 20/68/14 6/73/14

vt 6.99739 4.23537
f 6/74/4 3/14/4 5/13/4

vt 2.70197 4.23537
f 16/75/10 14/31/10 15/48/10

usemtl Color_D03
vt 8.89764 2.83346e-014
vn 1 4.91651e-018 3.1943e-015
vt 5.6565e-014 117.126
vt 5.6565e-014 2.83346e-014
f 10/76/15 16/77/15 14/78/15

f 16/77/15 10/76/15 11/19/15

usemtl _7
vt 6.58113 3.6243
vn -1 -4.91651e-018 -3.1943e-015
vt 6.58113 4.23537
f 14/79/16 16/80/16 10/23/16

f 11/24/16 10/23/16 16/80/16

f 11/75/8 8/32/8 10/31/8

vt 7.57825 4.23537
f 7/81/6 4/25/6 8/24/6

f 5/13/4 2/12/4 7/18/4

g Mesh2 CUA021 Model

l 3 1

l 3 2

l 3 6

l 6 5

l 6 17

l 18 17

l 12 18

l 1 12

l 20 1

l 19 20

l 12 19

l 18 13

l 14 13

l 14 10

l 14 16

l 16 15

l 16 11

l 10 11

l 10 9

l 4 9

l 2 4

l 2 5

l 5 7

l 4 7

l 7 8

l 9 8

l 11 8

l 13 15

l 17 15

