# Alias OBJ Model File
# Exported from SketchUp, (c) 2000-2012 Trimble Navigation Limited
# File units = meters

mtllib CUA009.mtl

g Mesh1 CUA009 Model

usemtl FrontColor
v 37.7714 3.451 -27.4304
vt -89.0816 53.6174
vn -5.69283e-017 -1 5.57995e-016
v 35.5087 3.451 -26.0685
vt 1.618e-030 -1.58592e-029
v 35.5087 3.451 -27.4304
vt 0 53.6174
f 1/1/1 2/2/1 3/3/1

v 37.5724 3.451 -27.2735
vt -81.247 47.4403
f 2/2/1 1/1/1 4/4/1

usemtl _Tile_Ceramic_Natural_15
vt -16.3153 27.5902
vn 5.69283e-017 1 -5.57995e-016
vt -16.3153 26.6244
vt -17.9201 27.5902
f 3/5/2 2/6/2 1/7/2

usemtl Color_D03
vt 53.6174 -6.87012e-049
vn 1 4.91651e-018 -2.60616e-033
v 35.5087 6.426 -26.0685
vt 0 117.126
vt 0 2.84217e-014
f 3/8/3 5/9/3 2/10/3

v 35.5087 6.426 -27.4304
vt 53.6174 117.126
f 5/9/3 3/8/3 6/11/3

usemtl _7
vt 12.7856 3.6243
vn -1 -4.91651e-018 2.60616e-033
vt 12.7856 4.23537
vt 13.2302 3.6243
f 2/12/4 5/13/4 3/14/4

usemtl Color_D03
vn -6.1895e-016 9.07004e-016 -1
v 36.9248 3.451 -26.0685
vt -55.7505 2.84217e-014
f 5/9/5 7/15/5 2/10/5

v 36.9248 5.669 -26.0685
vt -55.7505 87.3228
f 7/15/5 5/9/5 8/16/5

usemtl _7
vt -7.31795 3.6243
vn 6.1895e-016 -9.07004e-016 1
vt -7.78026 3.6243
vt -7.31795 4.23537
f 2/17/6 7/18/6 5/19/6

usemtl FrontColor
vt -55.7505 2.27374e-013
f 2/2/1 4/4/1 7/20/1

usemtl _Tile_Ceramic_Natural_15
vt -17.7789 27.479
f 4/21/2 1/7/2 2/6/2

usemtl FrontColor
v 37.7714 3.451 -27.2735
vt -89.0816 47.4403
f 4/4/1 1/1/1 9/22/1

usemtl _Tile_Ceramic_Natural_15
vt -17.9201 27.479
f 9/23/2 1/7/2 4/21/2

usemtl Color_D03
vt -47.4403 -4.37971e-016
vn -1 -4.91651e-018 -0
v 37.7714 6.426 -27.4304
vt -53.6174 117.126
vt -53.6174 -4.37971e-016
f 9/24/7 10/25/7 1/26/7

v 37.7714 6.426 -27.2735
vt -47.4403 117.126
f 10/25/7 9/24/7 11/27/7

usemtl _7
vt -4.62935 4.23537
vn 1 4.91651e-018 0
vt -4.62935 3.6243
vt -4.68057 4.23537
f 11/28/8 9/29/8 10/30/8

usemtl Color_D03
vt -89.0816 -8.22135e-016
vn 0 1.73299e-017 -1
v 37.5724 6.426 -27.2735
vt -81.247 117.126
vt -89.0816 117.126
f 9/31/9 12/32/9 11/33/9

vt -81.247 -8.22135e-016
f 12/32/9 9/31/9 4/34/9

usemtl _7
vt -7.99169 3.6243
vn -0 -1.73299e-017 1
vt -8.05666 3.6243
vt -7.99169 4.23537
f 4/35/10 9/36/10 12/37/10

vt -8.05666 4.23537
f 11/38/10 12/37/10 9/36/10

usemtl Color_D03
v 37.5724 3.451 -26.7525
vt -26.9285 -3.99452e-016
vt -47.4403 -3.99452e-016
f 13/39/7 12/27/7 4/40/7

v 37.5724 6.426 -26.7525
vt -26.9285 117.126
f 12/27/7 13/39/7 14/41/7

usemtl _7
vt -4.45925 4.23537
vt -4.45925 3.6243
f 14/42/8 13/43/8 12/28/8

usemtl Color_D03
vt 81.247 -4.66668e-016
vn 0 -1.73299e-017 1
v 37.7714 6.426 -26.7525
vt 89.0816 117.126
vt 81.247 117.126
f 13/44/11 15/45/11 14/46/11

v 37.7714 3.451 -26.7525
vt 89.0816 -4.66668e-016
f 15/45/11 13/44/11 16/47/11

usemtl _7
vt 16.6063 3.6243
vn -0 1.73299e-017 -1
vt 16.5414 3.6243
vt 16.6063 4.23537
f 16/48/12 13/49/12 15/50/12

usemtl FrontColor
v 37.5787 3.451 -26.0685
vt -81.497 2.27374e-013
vt -81.247 26.9285
vt -89.0816 26.9285
f 17/51/1 13/52/1 16/53/1

f 7/20/1 13/52/1 17/51/1

f 13/52/1 7/20/1 4/4/1

usemtl _Tile_Ceramic_Natural_15
vt -17.7834 26.6244
vt -17.7789 27.1095
vt -17.3196 26.6244
f 17/54/2 13/55/2 7/56/2

vt -17.9201 27.1095
f 16/57/2 13/55/2 17/54/2

usemtl FrontColor
v 37.7714 3.451 -26.0685
vt -89.0816 -1.86889e-029
f 17/51/1 16/53/1 18/58/1

usemtl _Tile_Ceramic_Natural_15
vt -17.9201 26.6244
f 18/59/2 16/57/2 17/54/2

usemtl Color_D03
vt 4.62256e-031 2.79837e-014
vn -1 -4.91651e-018 5.18913e-033
v 37.7714 4.88698 -26.1163
vt -1.88032 56.5347
vt -26.9285 -4.37971e-016
f 18/60/13 19/61/13 16/62/13

v 37.7714 5.74298 -26.1163
vt -1.88032 90.2354
f 19/61/13 18/60/13 20/63/13

usemtl _7
vn 1 4.91651e-018 -5.18913e-033
vt -4.25154 3.91925
vt -4.23595 3.6243
f 16/43/14 19/64/14 18/65/14

usemtl Color_D03
v 37.7714 4.88698 -26.6913
vt -24.5181 56.5347
f 16/62/13 19/61/13 21/66/13

usemtl _7
vt -4.43926 3.91925
f 21/67/14 19/64/14 16/43/14

usemtl FrontColor
vn -1 0 -0
v 37.7714 4.97918 -26.1535
vt -3.34744 60.1647
f 19/61/15 22/68/15 21/66/15

v 37.7714 5.67218 -26.1535
vt -3.34744 87.4481
f 22/68/15 19/61/15 23/69/15

usemtl BackColor
vn 1 -0 0
f 21/66/16 22/68/16 19/61/16

usemtl FrontColor
v 37.7714 4.97918 -26.6495
vt -22.875 60.1647
f 21/66/15 22/68/15 24/70/15

usemtl BackColor
f 24/70/16 22/68/16 21/66/16

usemtl Translucent_Glass_Blue
v 37.7714 5.67218 -26.6495
vt -22.875 87.4481
f 22/68/15 25/71/15 24/70/15

f 25/71/15 22/68/15 23/69/15

f 23/69/16 22/68/16 25/71/16

usemtl BackColor
f 23/69/16 19/61/16 22/68/16

usemtl FrontColor
f 20/63/15 23/69/15 19/61/15

v 37.7714 5.74298 -26.6913
vt -24.5181 90.2354
f 23/69/15 20/63/15 26/72/15

usemtl BackColor
f 19/61/16 23/69/16 20/63/16

f 26/72/16 20/63/16 23/69/16

usemtl Color_D03
f 20/63/13 15/41/13 26/72/13

v 37.7714 6.426 -26.0685
vt 4.62256e-031 117.126
f 20/63/13 27/73/13 15/41/13

f 27/73/13 20/63/13 18/60/13

usemtl _7
vt -4.25154 4.09508
vt -4.23595 4.23537
f 18/65/14 20/74/14 27/75/14

f 20/74/14 18/65/14 19/64/14

f 15/42/14 27/75/14 20/74/14

vt -4.43926 4.09508
f 26/76/14 15/42/14 20/74/14

usemtl Color_D03
f 26/72/13 15/41/13 21/66/13

usemtl _7
f 21/67/14 15/42/14 26/76/14

usemtl Color_D03
f 16/62/13 21/66/13 15/41/13

usemtl _7
f 15/42/14 21/67/14 16/43/14

usemtl FrontColor
f 21/66/15 24/70/15 26/72/15

usemtl BackColor
f 26/72/16 24/70/16 21/66/16

usemtl FrontColor
f 25/71/15 26/72/15 24/70/15

f 23/69/15 26/72/15 25/71/15

usemtl BackColor
f 25/71/16 26/72/16 23/69/16

f 24/70/16 26/72/16 25/71/16

usemtl Translucent_Glass_Blue
f 24/70/16 25/71/16 22/68/16

usemtl Color_D03
vt -89.0816 2.84217e-014
v 37.5787 5.669 -26.0685
vt -81.497 87.3228
f 18/77/5 28/78/5 27/33/5

vt -81.497 2.84217e-014
f 28/78/5 18/77/5 17/79/5

usemtl _7
vt -7.99377 3.6243
vt -7.99377 4.07988
f 17/80/6 18/36/6 28/81/6

f 27/38/6 28/81/6 18/36/6

usemtl Color_D03
f 27/33/5 28/78/5 5/9/5

usemtl _7
f 5/19/6 28/81/6 27/38/6

usemtl Color_D03
f 8/16/5 5/9/5 28/78/5

usemtl _7
vt -7.78026 4.07988
f 8/82/6 5/19/6 7/18/6

f 28/81/6 5/19/6 8/82/6

usemtl _Tile_Ceramic_Natural_15
f 4/21/2 7/56/2 13/55/2

f 7/56/2 4/21/2 2/6/2

usemtl _7
f 4/29/8 12/28/8 13/43/8

vt 16.5414 4.23537
f 14/83/12 15/50/12 13/49/12

vt -4.68057 3.6243
f 1/84/8 10/30/8 9/29/8

usemtl Color_D03
vt 0 -9.29181e-016
vt 89.0816 -9.29181e-016
f 10/45/11 3/85/11 1/86/11

f 3/85/11 10/45/11 6/9/11

usemtl _7
vt 15.8676 3.6243
f 1/48/12 3/87/12 10/50/12

vt 15.8676 4.23537
f 6/88/12 10/50/12 3/87/12

vt 13.2302 4.23537
f 6/89/4 3/14/4 5/13/4

g Mesh2 CUA009 Model

l 9 1

l 4 9

l 13 4

l 16 13

l 18 16

l 18 17

l 18 27

l 27 5

l 27 15

l 16 15

l 15 14

l 13 14

l 14 12

l 4 12

l 12 11

l 9 11

l 11 10

l 1 10

l 1 3

l 3 2

l 3 6

l 6 5

l 10 6

l 2 5

l 7 2

l 17 7

l 17 28

l 8 28

l 8 7

g Mesh3 CUA009 Model

l 21 19

l 26 21

l 20 26

l 19 20

g Mesh4 CUA009 Model

l 23 25

l 22 23

l 24 22

l 25 24

