# Alias OBJ Model File
# Exported from SketchUp, (c) 2000-2012 Trimble Navigation Limited
# File units = meters

mtllib AUL020.mtl

g Mesh1 AUL020 Model

usemtl Color_C08
v 15.4935 4.43543 -80.3529
vt -236.339 151.575
vn 0.00031484 -3.39234e-016 -1
v 15.7035 0.835432 -80.3528
vt -244.606 9.84252
v 15.4935 0.835432 -80.3529
vt -236.339 9.84252
f 1/1/1 2/2/1 3/3/1

v 15.7035 4.43543 -80.3528
vt -244.606 151.575
f 2/2/1 1/1/1 4/4/1

usemtl _7
vt -5.05002 0.171601
vn -0.00031484 3.39234e-016 1
vt -5.11858 0.171601
vt -5.05002 0.911057
f 3/5/2 2/6/2 1/7/2

usemtl _Tile_Ceramic_Natural_7
v 15.7051 0.835432 -85.3448
vt 11.1701 60.7004
vn -1.39702e-014 1 -4.25678e-013
vt 11.0196 57.15
vt 11.1689 57.1499
f 5/8/3 3/9/3 2/10/3

v 14.6934 0.835432 -79.8631
vt 10.4505 56.8016
f 5/8/3 6/11/3 3/9/3

v 14.4007 0.835432 -79.8631
vt 10.2423 56.8016
f 5/8/3 7/12/3 6/11/3

v 13.5647 0.835432 -79.8631
vt 9.64774 56.8016
f 5/8/3 8/13/3 7/12/3

v 9.49447 0.835432 -85.3467
vt 6.75282 60.7018
f 9/14/3 8/13/3 5/8/3

v 9.49037 0.835432 -79.8631
vt 6.74991 56.8016
f 8/13/3 9/14/3 10/15/3

usemtl _7
vt 3.09839 16.4042
vn 1.39702e-014 -1 4.25678e-013
vt 3.09973 17.5306
vt 4.42858 16.4042
f 10/16/4 9/17/4 8/18/4

usemtl Color_C08
vt 215.9 9.84252
vn 1 1.08042e-013 0.000747516
v 9.49037 4.43543 -79.8631
vt 0.0099162 151.575
vt 0.0099162 9.84252
f 9/19/5 11/20/5 10/21/5

v 9.49447 4.43543 -85.3467
vt 215.9 151.575
f 11/20/5 9/19/5 12/22/5

vn -1 -1.08042e-013 -0.000747516
f 10/21/6 11/20/6 9/19/6

v 13.5647 3.41043 -79.8631
vt -160.408 111.22
vn 7.5697e-014 -1.13273e-013 -1
vt -1.52901e-011 9.84252
vt 7.50627e-016 151.575
f 13/23/7 10/24/7 11/25/7

vt -160.408 9.84252
f 10/24/7 13/23/7 8/26/7

usemtl _7
vt -4.42858 0.171601
vn -7.5697e-014 1.13273e-013 1
vt -4.42858 0.700517
vt -3.09839 0.171601
f 8/27/8 13/28/8 10/29/8

vt -3.09839 0.911057
f 11/30/8 10/29/8 13/28/8

usemtl Color_C08
v 14.6934 4.43543 -79.8631
vt -204.843 151.575
f 13/23/7 11/25/7 14/31/7

usemtl _7
vt -4.79705 0.911057
f 14/32/8 11/30/8 13/28/8

usemtl Color_C08
v 14.4007 3.41043 -79.8631
vt -193.321 111.22
f 14/31/7 15/33/7 13/23/7

vt -204.843 9.84252
f 6/34/7 15/33/7 14/31/7

vt -193.321 9.84252
f 15/33/7 6/34/7 7/35/7

usemtl _7
vt -4.70151 0.171601
vt -4.79705 0.171601
vt -4.70151 0.700517
f 7/36/8 6/37/8 15/38/8

vt 4.79705 16.4042
vt 4.70151 16.4042
vt 5.12736 17.5302
f 6/39/4 7/40/4 5/41/4

f 7/40/4 8/18/4 5/41/4

f 5/41/4 8/18/4 9/17/4

usemtl Color_C08
vt 244.606 9.84252
vn -0.00031484 -3.7283e-012 1
vt 0.0934073 151.575
vt 0.0934073 9.84252
f 5/42/9 12/43/9 9/44/9

v 15.7051 4.43543 -85.3448
vt 244.606 151.575
f 12/43/9 5/42/9 16/45/9

usemtl BackColor
vn 0.00031484 3.7283e-012 -1
f 9/44/10 12/43/10 5/42/10

usemtl Color_C08
f 12/22/6 9/19/6 11/20/6

usemtl BackColor
f 16/45/10 5/42/10 12/43/10

usemtl Color_C08
vt -19.3657 9.84252
vn -1 -4.61187e-014 -0.00031484
vt -215.9 151.575
vt -215.9 9.84252
f 2/46/11 16/47/11 5/48/11

vt -19.3657 151.575
f 16/47/11 2/46/11 4/49/11

usemtl _7
vt -26.235 0.911057
vn 1 4.61187e-014 0.00031484
vt -26.235 0.171601
vt -27.8647 0.911057
f 4/50/12 2/51/12 16/52/12

vt -5.11858 0.911057
f 4/53/2 1/7/2 2/6/2

vt -27.8647 0.171601
f 5/54/12 16/52/12 2/51/12

vt 5.12684 16.5048
vt 5.05828 16.5048
f 2/55/4 3/56/4 5/41/4

f 3/56/4 6/39/4 5/41/4

usemtl _Tile_Ceramic_Natural_7
v 15.4934 0.835432 -79.8629
vt 11.0195 56.8015
f 3/9/3 6/11/3 17/57/3

usemtl _7
vt 5.05823 16.4042
f 17/58/4 6/39/4 3/56/4

usemtl Color_C08
vn 0.00031484 1.5027e-021 -1
f 14/31/13 17/3/13 6/34/13

v 15.4934 4.43543 -79.8629
f 17/3/13 14/31/13 18/1/13

usemtl _7
vt -4.78884 0.171601
vn -0.00031484 -1.5027e-021 1
vt -4.78884 0.911057
f 6/59/14 17/5/14 14/60/14

f 18/7/14 14/60/14 17/5/14

usemtl Color_C08
vn -1 -2.04934e-016 -0.00031484
vt -0.0744087 9.84252
vt -0.0744087 151.575
f 1/49/15 17/61/15 18/62/15

f 17/61/15 1/49/15 3/46/15

usemtl _7
vt -26.075 0.911057
vn 1 2.04934e-016 0.00031484
vt -26.075 0.171601
f 18/63/16 17/64/16 1/50/16

f 3/51/16 1/50/16 17/64/16

f 14/32/8 15/38/8 6/37/8

f 13/28/8 15/38/8 14/32/8

g Mesh2 AUL020 Model

usemtl _Color_C03_2
v 12.5805 4.18543 -83.5535
vt -87.7361 141.732
vn -0.966007 -1.10151e-016 0.258515
v 12.598 0.585432 -83.5113
vt -85.9375 -6.4443e-015
vn -0.866183 -7.86111e-018 0.499727
v 12.598 4.18543 -83.5113
vt -85.9375 141.732
f 19/65/17 20/66/18 21/67/18

v 12.5805 0.585432 -83.5535
vt -87.7361 -6.4443e-015
f 20/66/18 19/65/17 22/68/17

usemtl _7
vt -23.6197 0.859706
vn 0.866183 7.86111e-018 -0.499727
vt -23.6197 0.12025
vt -23.6346 0.859706
vn 0.966007 1.10151e-016 -0.258515
f 21/69/19 20/70/19 19/71/20

usemtl _Color_C03_2
v 12.6258 0.585432 -83.475
vt -37.7357 1.1657e-014
vn -0.707329 9.49645e-017 0.706884
vt -39.5343 141.732
vt -39.5343 1.1657e-014
f 23/72/21 21/73/18 20/74/18

v 12.6258 4.18543 -83.475
vt -37.7357 141.732
f 21/73/18 23/72/21 24/75/21

usemtl _7
vt -19.1179 0.859706
vn 0.707329 -9.49645e-017 -0.706884
vt -19.1179 0.12025
vt -19.1329 0.859706
f 24/76/22 23/77/22 21/78/19

usemtl _Color_C03_2
vt 11.3003 3.06916e-014
v 12.662 4.18543 -83.4472
vt 13.0989 141.732
vn -0.500273 1.91318e-016 0.865868
vt 11.3003 141.732
f 23/79/21 25/80/23 24/81/21

v 12.662 0.585432 -83.4472
vt 13.0989 3.06916e-014
f 25/80/23 23/79/21 26/82/23

usemtl _7
vt -13.3129 0.12025
vn 0.500273 -1.91318e-016 -0.865868
vt -13.3278 0.12025
vt -13.3129 0.859706
f 26/83/24 23/84/22 25/85/24

vt -13.3278 0.859706
f 24/86/22 25/85/24 23/84/22

usemtl _Color_C03_2
vt 61.3036 4.54221e-014
v 12.7042 4.18543 -83.4297
vt 63.1022 141.732
vn -0.259123 2.74634e-016 0.965844
vt 61.3036 141.732
f 26/87/23 27/88/25 25/89/23

v 12.7042 0.585432 -83.4297
vt 63.1022 4.54221e-014
f 27/88/25 26/87/23 28/90/25

usemtl _7
vt -6.6 0.12025
vn 0.259123 -2.74634e-016 -0.965844
vt -6.61492 0.12025
vt -6.6 0.859706
f 28/91/26 26/92/24 27/93/26

vt -6.61492 0.859706
f 25/94/24 27/93/26 26/92/24

usemtl _Color_C03_2
v 12.7495 0.585432 -83.4237
vt 108.866 5.53305e-014
vt 107.068 141.732
vt 107.068 5.17778e-014
f 29/95/2 27/96/25 28/97/25

v 12.7495 4.18543 -83.4237
vt 108.866 141.732
f 27/96/25 29/95/2 30/98/2

usemtl _7
vt 0.548216 0.12025
vt 0.548216 0.859706
vt 0.563131 0.12025
f 28/99/26 27/100/26 29/101/1

vt 0.563131 0.859706
f 30/102/1 29/101/1 27/100/26

usemtl _Color_C03_2
vt 145.474 5.15066e-014
v 12.7948 4.18543 -83.4297
vt 147.273 141.732
vn 0.258515 3.80716e-016 0.966007
vt 145.474 141.732
f 29/103/2 31/104/27 30/105/2

v 12.7948 0.585432 -83.4297
vt 147.273 5.15066e-014
f 31/104/27 29/103/2 32/106/27

usemtl _7
vt 7.6884 0.12025
vn -0.258515 -3.80716e-016 -0.966007
vt 7.67348 0.12025
vt 7.6884 0.859706
f 32/107/28 29/108/1 31/109/28

vt 7.67348 0.859706
f 30/110/1 31/109/28 29/108/1

usemtl _Color_C03_2
vt 173.906 3.84547e-014
v 12.837 4.18543 -83.4471
vt 175.704 141.732
vn 0.499727 3.96253e-016 0.866183
vt 173.906 141.732
f 32/111/27 33/112/29 31/113/27

v 12.837 0.585432 -83.4471
vt 175.704 3.84547e-014
f 33/112/29 32/111/27 34/114/29

usemtl _7
vt 14.2902 0.12025
vn -0.499727 -3.96253e-016 -0.866183
vt 14.2753 0.12025
vt 14.2902 0.859706
f 34/115/30 32/116/28 33/117/30

vt 14.2753 0.859706
f 31/118/28 33/117/30 32/116/28

usemtl _Color_C03_2
vt 190.424 1.96327e-014
v 12.8732 4.18543 -83.4749
vt 192.223 141.732
vn 0.706884 3.84785e-016 0.707329
vt 190.424 141.732
f 34/119/29 35/120/31 33/121/29

v 12.8732 0.585432 -83.4749
vt 192.223 1.96327e-014
f 35/120/31 34/119/29 36/122/31

usemtl _7
vt 19.9187 0.12025
vn -0.706884 -3.84785e-016 -0.707329
vt 19.9038 0.12025
vt 19.9187 0.859706
f 36/123/32 34/124/30 35/125/32

vt 19.9038 0.859706
f 33/126/30 35/125/32 34/124/30

usemtl _Color_C03_2
v 12.9011 0.585432 -83.5112
vt 195.703 8.13277e-017
vn 0.865868 3.47095e-016 0.500273
vt 193.905 141.732
vt 193.905 8.13277e-017
f 37/127/33 35/128/31 36/129/31

v 12.9011 4.18543 -83.5112
vt 195.703 141.732
f 35/128/31 37/127/33 38/130/33

usemtl _7
vt 24.1753 0.12025
vt 24.1753 0.859706
vt 24.1903 0.12025
vn -0.865868 -3.47095e-016 -0.500273
f 36/131/32 35/132/32 37/133/34

vt 24.1903 0.859706
f 38/134/34 37/133/34 35/132/32

usemtl _Color_C03_2
v 12.9186 0.585432 -83.5534
vt 185.908 -1.84797e-014
vn 0.965844 2.85752e-016 0.259123
vt 184.109 141.732
vt 184.109 -1.4927e-014
f 39/135/35 38/136/33 37/137/33

v 12.9186 4.18543 -83.5534
vt 185.908 141.732
f 38/136/33 39/135/35 40/138/35

usemtl _7
vt 26.7989 0.12025
vt 26.7989 0.859706
vt 26.8138 0.12025
vn -0.965844 -2.85752e-016 -0.259123
f 37/139/34 38/140/34 39/141/36

vt 26.8138 0.859706
f 40/142/36 39/141/36 38/140/34

usemtl _Color_C03_2
v 12.9245 0.585432 -83.5987
vt 163.505 -2.48552e-014
vt 161.706 141.732
vt 161.706 -2.48552e-014
f 41/143/16 40/144/35 39/145/35

v 12.9245 4.18543 -83.5987
vt 163.505 141.732
f 40/144/35 41/143/16 42/146/16

usemtl _7
vt 27.5956 0.12025
vt 27.5956 0.859706
vt 27.6105 0.12025
f 39/147/36 40/148/36 41/149/15

vt 27.6105 0.859706
f 42/150/15 41/149/15 40/148/36

usemtl _Color_C03_2
v 12.9186 0.585432 -83.644
vt 130.02 -2.07918e-014
vt 128.221 141.732
vt 128.221 -2.07918e-014
f 43/151/20 42/152/16 41/153/16

v 12.9186 4.18543 -83.644
vt 130.02 141.732
f 42/152/16 43/151/20 44/154/20

usemtl _7
vt 26.5112 0.12025
vt 26.5112 0.859706
vt 26.5262 0.12025
f 41/155/15 42/156/15 43/157/17

vt 26.5262 0.859706
f 44/158/17 43/157/17 42/156/15

usemtl _Color_C03_2
v 12.9011 0.585432 -83.6862
vt 87.7361 -7.25737e-015
vt 85.9375 141.732
vt 85.9375 -7.25737e-015
f 45/159/19 44/160/20 43/161/20

v 12.9011 4.18543 -83.6862
vt 87.7361 141.732
f 44/160/20 45/159/19 46/162/19

usemtl _7
vt 23.6197 0.12025
vt 23.6197 0.859706
vt 23.6346 0.12025
f 43/163/17 44/164/17 45/165/18

vt 23.6346 0.859706
f 46/166/18 45/165/18 44/164/17

usemtl _Color_C03_2
v 12.8733 0.585432 -83.7224
vt 39.5343 1.22571e-014
vt 37.7357 141.732
vt 37.7357 1.22571e-014
f 47/167/22 46/168/19 45/169/19

v 12.8733 4.18543 -83.7224
vt 39.5343 141.732
f 46/168/19 47/167/22 48/170/22

usemtl _7
vt 19.1179 0.12025
vt 19.1179 0.859706
vt 19.1329 0.12025
f 45/171/18 46/172/18 47/173/21

vt 19.1329 0.859706
f 48/174/21 47/173/21 46/172/18

usemtl _Color_C03_2
vt -13.0989 3.2664e-014
v 12.8371 4.18543 -83.7503
vt -11.3003 141.732
vt -13.0989 141.732
f 47/175/22 49/176/24 48/177/22

v 12.8371 0.585432 -83.7503
vt -11.3003 2.91113e-014
f 49/176/24 47/175/22 50/178/24

usemtl _7
vt 13.3278 0.12025
vt 13.3129 0.12025
vt 13.3278 0.859706
f 50/179/23 47/180/21 49/181/23

vt 13.3129 0.859706
f 48/182/21 49/181/23 47/180/21

usemtl _Color_C03_2
vt -63.1022 4.50797e-014
v 12.7949 4.18543 -83.7677
vt -61.3036 141.732
vt -63.1022 141.732
f 50/183/24 51/184/26 49/185/24

v 12.7949 0.585432 -83.7677
vt -61.3036 4.50797e-014
f 51/184/26 50/183/24 52/186/26

usemtl _7
vt 6.61492 0.12025
vt 6.6 0.12025
vt 6.61492 0.859706
f 52/187/25 50/188/23 51/189/25

vt 6.6 0.859706
f 49/190/23 51/189/25 50/188/23

usemtl _Color_C03_2
vt -108.866 5.24545e-014
v 12.7496 4.18543 -83.7737
vt -107.068 141.732
vt -108.866 141.732
f 52/191/26 53/192/1 51/193/26

v 12.7496 0.585432 -83.7737
vt -107.068 5.24545e-014
f 53/192/1 52/191/26 54/194/1

usemtl _7
vt -0.548216 0.12025
vt -0.563131 0.12025
vt -0.548216 0.859706
f 54/195/2 52/196/25 53/197/2

vt -0.563131 0.859706
f 51/198/25 53/197/2 52/196/25

usemtl _Color_C03_2
vt -147.273 4.93615e-014
v 12.7043 4.18543 -83.7678
vt -145.474 141.732
vt -147.273 141.732
f 54/199/1 55/200/28 53/201/1

v 12.7043 0.585432 -83.7678
vt -145.474 4.93615e-014
f 55/200/28 54/199/1 56/202/28

usemtl _7
vt -7.67348 0.12025
vt -7.6884 0.12025
vt -7.67348 0.859706
f 56/203/27 54/204/2 55/205/27

vt -7.6884 0.859706
f 53/206/2 55/205/27 54/204/2

usemtl _Color_C03_2
vt -175.704 3.67024e-014
v 12.6621 4.18543 -83.7503
vt -173.906 141.732
vt -175.704 141.732
f 56/207/28 57/208/30 55/209/28

v 12.6621 0.585432 -83.7503
vt -173.906 3.67024e-014
f 57/208/30 56/207/28 58/210/30

usemtl _7
vt -14.2753 0.12025
vt -14.2902 0.12025
vt -14.2753 0.859706
f 58/211/29 56/212/27 57/213/29

vt -14.2902 0.859706
f 55/214/27 57/213/29 56/212/27

usemtl _Color_C03_2
vt -192.223 1.79085e-014
v 12.6258 4.18543 -83.7225
vt -190.424 141.732
vt -192.223 141.732
f 58/215/30 59/216/32 57/217/30

v 12.6258 0.585432 -83.7225
vt -190.424 1.79085e-014
f 59/216/32 58/215/30 60/218/32

usemtl _7
vt -19.9038 0.12025
vt -19.9187 0.12025
vt -19.9038 0.859706
f 60/219/31 58/220/29 59/221/31

vt -19.9187 0.859706
f 57/222/29 59/221/31 58/220/29

usemtl _Color_C03_2
v 12.598 0.585432 -83.6863
vt -193.905 -1.98161e-015
vt -195.703 141.732
vt -195.703 -1.98161e-015
f 61/223/34 59/224/32 60/225/32

v 12.598 4.18543 -83.6863
vt -193.905 141.732
f 59/224/32 61/223/34 62/226/34

usemtl _7
vt -24.1753 0.859706
vt -24.1753 0.12025
vt -24.1903 0.859706
f 62/227/33 61/228/33 59/229/31

usemtl _Color_C03_2
v 12.5805 0.585432 -83.6441
vt -184.109 -1.76722e-014
vt -185.908 141.732
vt -185.908 -1.76722e-014
f 63/230/36 62/231/34 61/232/34

v 12.5805 4.18543 -83.6441
vt -184.109 141.732
f 62/231/34 63/230/36 64/233/36

usemtl _7
vt -26.7989 0.859706
vt -26.7989 0.12025
vt -26.8138 0.859706
f 64/234/35 63/235/35 62/236/33

usemtl _Color_C03_2
v 12.5745 0.585432 -83.5988
vt -161.706 -2.50272e-014
vt -163.505 141.732
vt -163.505 -2.50272e-014
f 65/237/15 64/238/36 63/239/36

v 12.5745 4.18543 -83.5988
vt -161.706 141.732
f 64/238/36 65/237/15 66/240/15

usemtl _7
vt -27.5956 0.859706
vt -27.5956 0.12025
vt -27.6105 0.859706
f 66/241/16 65/242/16 64/243/35

usemtl _Color_C03_2
vt -128.221 -1.86209e-014
vt -130.02 141.732
vt -130.02 -2.21736e-014
f 22/244/17 66/245/15 65/246/15

vt -128.221 141.732
f 66/245/15 22/244/17 19/247/17

usemtl _7
vt -26.5112 0.859706
vt -26.5112 0.12025
vt -26.5262 0.859706
f 19/248/20 22/249/20 66/250/16

vt -23.6346 0.12025
f 22/251/20 19/71/20 20/70/19

vt -26.5262 0.12025
f 65/252/16 66/250/16 22/249/20

vt -27.6105 0.12025
f 63/253/35 64/243/35 65/242/16

vt -26.8138 0.12025
f 61/254/33 62/236/33 63/235/35

vt -24.1903 0.12025
f 60/255/31 59/229/31 61/228/33

vt -19.1329 0.12025
f 20/256/19 21/78/19 23/77/22

g Mesh3 AUL020 Model

l 2 4

l 2 3

l 5 2

l 5 16

l 5 9

l 9 12

l 10 9

l 10 11

l 8 10

l 7 8

l 15 7

l 13 15

l 8 13

l 6 7

l 17 6

l 17 18

l 3 17

l 3 1

l 4 1

l 4 16

l 16 12

l 11 12

l 14 11

l 6 14

l 18 14

l 18 1

g Mesh4 AUL020 Model

l 22 20

l 65 22

l 63 65

l 61 63

l 60 61

l 58 60

l 56 58

l 54 56

l 52 54

l 50 52

l 47 50

l 45 47

l 43 45

l 41 43

l 39 41

l 37 39

l 36 37

l 34 36

l 32 34

l 29 32

l 28 29

l 26 28

l 23 26

l 20 23

g Mesh5 AUL020 Model

l 19 21

l 66 19

l 64 66

l 62 64

l 59 62

l 57 59

l 55 57

l 53 55

l 51 53

l 49 51

l 48 49

l 46 48

l 44 46

l 42 44

l 40 42

l 38 40

l 35 38

l 33 35

l 31 33

l 30 31

l 27 30

l 25 27

l 24 25

l 21 24

g Mesh6 Model

v 138.951 3.33 -157.425
v 138.951 3.3 -157.425
l 67 68

