# Alias OBJ Model File
# Exported from SketchUp, (c) 2000-2012 Trimble Navigation Limited
# File units = meters

mtllib AUL023.mtl

g Mesh1 AUL023 Model

usemtl Color_C08
v 15.7073 4.43543 -92.4028
vt -272.106 151.575
vn -1 -4.61187e-014 -0.00031484
v 15.7051 0.835432 -85.4932
vt -0.0769829 9.84252
v 15.7051 4.43543 -85.4932
vt -0.0769829 151.575
f 1/1/1 2/2/1 3/3/1

v 15.7073 0.835432 -92.4028
vt -272.106 9.84252
f 2/2/1 1/1/1 4/4/1

usemtl _7
vt -27.9132 0.911057
vn 1 4.61187e-014 0.00031484
vt -27.9132 0.171601
vt -30.169 0.911057
f 3/5/2 2/6/2 1/7/2

usemtl Color_C08
vt -244.515 9.84252
vn 0.00031484 3.79249e-012 -1
v 9.49447 4.43543 -85.4952
vt 2.42373e-005 151.575
vt -244.515 151.575
f 2/8/3 5/9/3 3/10/3

v 9.49447 0.835432 -85.4952
vt 2.42372e-005 9.84252
f 5/9/3 2/8/3 6/11/3

vn -0.00031484 -3.79249e-012 1
f 6/11/4 2/8/4 5/9/4

usemtl _Tile_Ceramic_Natural_7
vt 11.1701 60.806
vn -2.67476e-013 1 -4.86324e-014
v 9.49447 0.835432 -92.8931
vt 6.75282 66.0691
vt 6.75282 60.8074
f 2/12/5 7/13/5 6/14/5

v 13.5647 0.835432 -92.8931
vt 9.64774 66.0691
f 7/13/5 2/12/5 8/15/5

usemtl _7
vt 3.09973 17.5611
vn 2.67476e-013 -1 4.86324e-014
vt 3.09973 19.0806
vt 5.12737 17.5607
f 6/16/6 7/17/6 2/18/6

usemtl Color_C08
vt 291.333 9.84252
vn 1 2.24595e-013 -1.05385e-027
vt 0.0769829 151.575
vt 0.0769829 9.84252
f 7/19/7 5/20/7 6/21/7

v 9.49447 4.43543 -92.8931
vt 291.333 151.575
f 5/20/7 7/19/7 9/22/7

vn -1 -2.24595e-013 1.05385e-027
f 6/21/8 5/20/8 7/19/8

f 9/22/8 7/19/8 5/20/8

vt 160.247 9.84252
vn -2.78513e-014 2.68399e-014 1
vt -8.11402e-012 151.575
vt 2.37183e-011 9.84252
f 8/23/9 9/24/9 7/25/9

v 13.5647 3.41043 -92.8931
vt 160.247 111.22
f 9/24/9 8/23/9 10/26/9

usemtl BackColor
vn 2.78513e-014 -2.68399e-014 -1
f 7/25/10 9/24/10 8/23/10

f 10/26/10 8/23/10 9/24/10

usemtl Color_C08
v 13.5647 0.835432 -93.0181
vt 296.254 9.84252
vn 1 0 -0
vt 291.333 111.22
f 11/27/11 10/28/11 8/19/11

v 13.5647 3.41043 -93.0181
vt 296.254 111.22
f 10/28/11 11/27/11 12/29/11

usemtl BackColor
vn -1 -0 0
f 8/19/12 10/28/12 11/27/12

f 12/29/12 11/27/12 10/28/12

usemtl _Tile_Ceramic_Natural_7
vt 9.64774 66.158
f 8/15/5 2/12/5 11/30/5

usemtl _7
vt 4.42858 19.0806
f 8/31/6 2/18/6 7/17/6

vt 4.42858 19.1063
f 11/32/6 2/18/6 8/31/6

usemtl _Tile_Ceramic_Natural_7
v 14.4007 0.835432 -92.8931
vt 10.2423 66.0691
f 11/30/5 2/12/5 13/33/5

usemtl _7
vt 4.70151 19.0806
f 13/34/6 2/18/6 11/32/6

usemtl _Tile_Ceramic_Natural_7
v 14.6975 0.835432 -92.8931
vt 10.4534 66.0691
f 13/33/5 2/12/5 14/35/5

usemtl _7
vt 4.79839 19.0806
f 14/36/6 2/18/6 13/34/6

usemtl _Tile_Ceramic_Natural_7
v 15.4973 0.835432 -92.4029
vt 11.0223 65.7204
f 14/35/5 2/12/5 15/37/5

usemtl _7
vt 5.05952 18.9799
f 15/38/6 2/18/6 14/36/6

usemtl _Tile_Ceramic_Natural_7
vt 11.1716 65.7203
f 15/37/5 2/12/5 4/39/5

usemtl _7
vt 5.12808 18.9799
f 4/40/6 2/18/6 15/38/6

vt -30.169 0.171601
f 4/41/2 1/7/2 2/6/2

usemtl Color_C08
vt 244.515 151.575
vn -0.00031484 3.39234e-016 1
vt 236.247 9.84252
vt 244.515 9.84252
f 1/42/13 15/43/13 4/44/13

v 15.4973 4.43543 -92.4029
vt 236.247 151.575
f 15/43/13 1/42/13 16/45/13

usemtl _7
vt 5.11858 0.171601
vn 0.00031484 -3.39234e-016 -1
vt 5.05002 0.171601
vt 5.11858 0.911057
f 4/46/14 15/47/14 1/48/14

vt 5.05002 0.911057
f 16/49/14 1/48/14 15/47/14

usemtl Color_C08
v 15.4975 4.43543 -92.8929
vt -291.398 151.575
vn -1 -2.04934e-016 -0.00031484
f 17/50/15 15/4/15 16/1/15

v 15.4975 0.835432 -92.8929
vt -291.398 9.84252
f 15/4/15 17/50/15 18/51/15

usemtl _7
vn 1 2.04934e-016 0.00031484
vt -30.329 0.911057
f 16/7/16 15/41/16 17/52/16

vt -30.329 0.171601
f 18/53/16 17/52/16 15/41/16

usemtl Color_C08
v 14.6975 4.43543 -92.8931
vt 204.751 151.575
vn -0.00031484 -1.28334e-019 1
f 19/54/17 18/43/17 17/45/17

vt 204.751 9.84252
f 18/43/17 19/54/17 14/55/17

usemtl _7
vt 4.78884 0.171601
vn 0.00031484 1.28334e-019 -1
vt 4.78884 0.911057
f 14/56/18 19/57/18 18/47/18

usemtl Color_C08
v 14.4007 3.41043 -92.8931
vt 193.16 111.22
vt 204.843 9.84252
vt 204.843 151.575
f 20/58/9 14/59/9 19/60/9

vt 193.16 9.84252
f 14/59/9 20/58/9 13/61/9

usemtl BackColor
f 13/61/10 20/58/10 14/59/10

usemtl Color_C08
v 14.4007 3.41043 -93.0181
vt -296.254 111.22
vn -1 0 -0
vt -291.333 9.84252
vt -291.333 111.22
f 21/62/19 13/63/19 20/64/19

v 14.4007 0.835432 -93.0181
vt -296.254 9.84252
f 13/63/19 21/62/19 22/65/19

usemtl BackColor
vn 1 -0 0
f 20/64/20 13/63/20 21/62/20

f 22/65/20 21/62/20 13/63/20

usemtl _Tile_Ceramic_Natural_7
vt 10.2423 66.158
f 22/66/5 11/30/5 13/33/5

usemtl _7
vt 4.70151 19.1063
f 13/34/6 11/32/6 22/67/6

usemtl BackColor
f 19/60/10 14/59/10 20/58/10

usemtl Color_C08
f 20/58/9 19/60/9 10/26/9

usemtl BackColor
f 10/26/10 19/60/10 20/58/10

usemtl Color_C08
f 9/24/9 10/26/9 19/60/9

usemtl BackColor
f 19/60/10 10/26/10 9/24/10

usemtl _7
f 17/49/18 18/47/18 19/57/18

usemtl _Tile_Ceramic_Natural_7
vt 11.0224 66.0689
f 18/68/5 14/35/5 15/37/5

usemtl _7
vt 5.05957 19.0806
f 15/38/6 14/36/6 18/69/6

usemtl Color_C08
f 3/10/4 5/9/4 2/8/4

g Mesh2 AUL023 Model

usemtl _Color_C03_2
v 12.5998 4.18543 -89.3013
vt -44.5754 141.732
vn -0.866183 -7.86111e-018 0.499727
v 12.6276 0.585432 -89.265
vt -42.7768 1.18219e-014
vn -0.707329 9.49645e-017 0.706884
v 12.6276 4.18543 -89.265
vt -42.7768 141.732
f 23/70/21 24/71/22 25/72/22

v 12.5998 0.585432 -89.3013
vt -44.5754 1.18219e-014
f 24/71/22 23/70/21 26/73/21

usemtl _7
vt -20.6176 0.859706
vn 0.707329 -9.49645e-017 -0.706884
vt -20.6176 0.12025
vt -20.6325 0.859706
vn 0.866183 7.86111e-018 -0.499727
f 25/74/23 24/75/23 23/76/24

usemtl _Color_C03_2
vt 7.40229 3.14033e-014
v 12.6638 4.18543 -89.2372
vt 9.20088 141.732
vn -0.500273 1.91318e-016 0.865868
vt 7.40229 141.732
f 24/77/22 27/78/25 25/79/22

v 12.6638 0.585432 -89.2372
vt 9.20088 3.14033e-014
f 27/78/25 24/77/22 28/80/25

usemtl _7
vt -14.4636 0.12025
vn 0.500273 -1.91318e-016 -0.865868
vt -14.4785 0.12025
vt -14.4636 0.859706
f 28/81/26 24/82/23 27/83/26

vt -14.4785 0.859706
f 25/84/23 27/83/26 24/82/23

usemtl _Color_C03_2
v 12.706 0.585432 -89.2197
vt 60.6128 5.03308e-014
vn -0.259123 2.74634e-016 0.965844
vt 58.8142 141.732
vt 58.8142 4.67781e-014
f 29/85/27 27/86/25 28/87/25

v 12.706 4.18543 -89.2197
vt 60.6128 141.732
f 27/86/25 29/85/27 30/88/27

usemtl _7
vt -7.33831 0.12025
vt -7.33831 0.859706
vt -7.32339 0.12025
vn 0.259123 -2.74634e-016 -0.965844
f 28/89/26 27/90/26 29/91/28

vt -7.32339 0.859706
f 30/92/28 29/91/28 27/90/26

usemtl _Color_C03_2
vt 106.157 5.72556e-014
v 12.7513 4.18543 -89.2137
vt 107.955 141.732
vt 106.157 141.732
f 29/93/27 31/94/13 30/95/27

v 12.7513 0.585432 -89.2137
vt 107.955 5.72556e-014
f 31/94/13 29/93/27 32/96/13

usemtl _7
vt 0.316397 0.12025
vt 0.301482 0.12025
vt 0.316397 0.859706
f 32/97/14 29/98/28 31/99/14

vt 0.301482 0.859706
f 30/100/28 31/99/14 29/98/28

usemtl _Color_C03_2
vt 146.204 5.3773e-014
v 12.7966 4.18543 -89.2197
vt 148.002 141.732
vn 0.258515 3.80716e-016 0.966007
vt 146.204 141.732
f 32/101/13 33/102/29 31/103/13

v 12.7966 0.585432 -89.2197
vt 148.002 5.3773e-014
f 33/102/29 32/101/13 34/104/29

usemtl _7
vt 7.93513 0.12025
vn -0.258515 -3.80716e-016 -0.966007
vt 7.92022 0.12025
vt 7.93513 0.859706
f 34/105/30 32/106/14 33/107/30

vt 7.92022 0.859706
f 31/108/14 33/107/30 32/106/14

usemtl _Color_C03_2
vt 176.226 4.07432e-014
v 12.8388 4.18543 -89.2371
vt 178.024 141.732
vn 0.499727 3.96253e-016 0.866183
vt 176.226 141.732
f 34/109/29 35/110/31 33/111/29

v 12.8388 0.585432 -89.2371
vt 178.024 4.07432e-014
f 35/110/31 34/109/29 36/112/31

usemtl _7
vt 15.0136 0.12025
vn -0.499727 -3.96253e-016 -0.866183
vt 14.9987 0.12025
vt 15.0136 0.859706
f 36/113/32 34/114/30 35/115/32

vt 14.9987 0.859706
f 33/116/30 35/115/32 34/114/30

usemtl _Color_C03_2
vt 194.177 2.16184e-014
v 12.8751 4.18543 -89.2649
vt 195.976 141.732
vn 0.706884 3.84785e-016 0.707329
vt 194.177 141.732
f 36/117/31 37/118/33 35/119/31

v 12.8751 0.585432 -89.2649
vt 195.976 2.16184e-014
f 37/118/33 36/117/31 38/120/33

usemtl _7
vt 21.0694 0.12025
vn -0.706884 -3.84785e-016 -0.707329
vt 21.0545 0.12025
vt 21.0694 0.859706
f 38/121/34 36/122/32 37/123/34

vt 21.0545 0.859706
f 35/124/32 37/123/34 36/122/32

usemtl _Color_C03_2
v 12.9029 0.585432 -89.3012
vt 200.633 1.52009e-015
vn 0.865868 3.47095e-016 0.500273
vt 198.834 141.732
vt 198.834 1.52009e-015
f 39/125/35 37/126/33 38/127/33

v 12.9029 4.18543 -89.3012
vt 200.633 141.732
f 37/126/33 39/125/35 40/128/35

usemtl _7
vt 25.675 0.12025
vt 25.675 0.859706
vt 25.6899 0.12025
vn -0.865868 -3.47095e-016 -0.500273
f 38/129/34 37/130/34 39/131/36

vt 25.6899 0.859706
f 40/132/36 39/131/36 37/130/34

usemtl _Color_C03_2
v 12.9204 0.585432 -89.3434
vt 191.678 -1.41325e-014
vn 0.965844 2.85752e-016 0.259123
vt 189.88 141.732
vt 189.88 -1.41325e-014
f 41/133/37 40/134/35 39/135/35

v 12.9204 4.18543 -89.3434
vt 191.678 141.732
f 40/134/35 41/133/37 42/136/37

usemtl _7
vt 28.5453 0.12025
vt 28.5453 0.859706
vt 28.5602 0.12025
vn -0.965844 -2.85752e-016 -0.259123
f 39/137/36 40/138/36 41/139/38

vt 28.5602 0.859706
f 42/140/38 41/139/38 40/138/36

usemtl _Color_C03_2
v 12.9264 0.585432 -89.3887
vt 169.723 -2.46297e-014
vt 167.924 141.732
vt 167.924 -2.1077e-014
f 43/141/16 42/142/37 41/143/37

v 12.9264 4.18543 -89.3887
vt 169.723 141.732
f 42/142/37 43/141/16 44/144/16

usemtl _7
vt 29.4697 0.12025
vt 29.4697 0.859706
vt 29.4847 0.12025
f 41/145/38 42/146/38 43/147/15

vt 29.4847 0.859706
f 44/148/15 43/147/15 42/146/38

usemtl _Color_C03_2
v 12.9204 0.585432 -89.434
vt 136.262 -2.09077e-014
vn 0.966007 1.10151e-016 -0.258515
vt 134.463 141.732
vt 134.463 -2.09077e-014
f 45/149/39 44/150/16 43/151/16

v 12.9204 4.18543 -89.434
vt 136.262 141.732
f 44/150/16 45/149/39 46/152/39

usemtl _7
vt 28.3854 0.12025
vt 28.3854 0.859706
vt 28.4003 0.12025
vn -0.966007 -1.10151e-016 0.258515
f 43/153/15 44/154/15 45/155/40

vt 28.4003 0.859706
f 46/156/40 45/155/40 44/154/15

usemtl _Color_C03_2
v 12.9029 0.585432 -89.4762
vt 93.5766 -7.39546e-015
vt 91.778 141.732
vt 91.778 -7.39546e-015
f 47/157/24 46/158/39 45/159/39

v 12.9029 4.18543 -89.4762
vt 93.5766 141.732
f 46/158/39 47/157/24 48/160/24

usemtl _7
vt 25.3661 0.12025
vt 25.3661 0.859706
vt 25.381 0.12025
f 45/161/40 46/162/40 47/163/21

vt 25.381 0.859706
f 48/164/21 47/163/21 46/162/40

usemtl _Color_C03_2
v 12.8751 0.585432 -89.5124
vt 44.5754 1.2422e-014
vt 42.7768 141.732
vt 42.7768 1.2422e-014
f 49/165/23 48/166/24 47/167/24

v 12.8751 4.18543 -89.5124
vt 44.5754 141.732
f 48/166/24 49/165/23 50/168/23

usemtl _7
vt 20.6176 0.12025
vt 20.6176 0.859706
vt 20.6325 0.12025
f 47/169/21 48/170/21 49/171/22

vt 20.6325 0.859706
f 50/172/22 49/171/22 48/170/21

usemtl _Color_C03_2
vt -9.20088 3.33758e-014
v 12.8389 4.18543 -89.5403
vt -7.40229 141.732
vt -9.20088 141.732
f 49/173/23 51/174/26 50/175/23

v 12.8389 0.585432 -89.5403
vt -7.40229 3.33758e-014
f 51/174/26 49/173/23 52/176/26

usemtl _7
vt 14.4785 0.12025
vt 14.4636 0.12025
vt 14.4785 0.859706
f 52/177/25 49/178/22 51/179/25

vt 14.4636 0.859706
f 50/180/22 51/179/25 49/178/22

usemtl _Color_C03_2
vt -60.6128 4.99884e-014
v 12.7967 4.18543 -89.5577
vt -58.8142 141.732
vt -60.6128 141.732
f 52/181/26 53/182/28 51/183/26

v 12.7967 0.585432 -89.5577
vt -58.8142 4.99884e-014
f 53/182/28 52/181/26 54/184/28

usemtl _7
vt 7.33831 0.12025
vt 7.32339 0.12025
vt 7.33831 0.859706
f 54/185/27 52/186/25 53/187/27

vt 7.32339 0.859706
f 51/188/25 53/187/27 52/186/25

usemtl _Color_C03_2
vt -107.955 5.79323e-014
v 12.7514 4.18543 -89.5637
vt -106.157 141.732
vt -107.955 141.732
f 54/189/28 55/190/14 53/191/28

v 12.7514 0.585432 -89.5637
vt -106.157 5.43795e-014
f 55/190/14 54/189/28 56/192/14

usemtl _7
vt -0.301482 0.12025
vt -0.316397 0.12025
vt -0.301482 0.859706
f 56/193/13 54/194/27 55/195/13

vt -0.316397 0.859706
f 53/196/27 55/195/13 54/194/27

usemtl _Color_C03_2
vt -148.002 5.16279e-014
v 12.7061 4.18543 -89.5578
vt -146.204 141.732
vt -148.002 141.732
f 56/197/14 57/198/30 55/199/14

v 12.7061 0.585432 -89.5578
vt -146.204 5.16279e-014
f 57/198/30 56/197/14 58/200/30

usemtl _7
vt -7.92022 0.12025
vt -7.93513 0.12025
vt -7.92022 0.859706
f 58/201/29 56/202/13 57/203/29

vt -7.93513 0.859706
f 55/204/13 57/203/29 56/202/13

usemtl _Color_C03_2
vt -178.024 3.89909e-014
v 12.6639 4.18543 -89.5403
vt -176.226 141.732
vt -178.024 141.732
f 58/205/30 59/206/32 57/207/30

v 12.6639 0.585432 -89.5403
vt -176.226 3.89909e-014
f 59/206/32 58/205/30 60/208/32

usemtl _7
vt -14.9987 0.12025
vt -15.0136 0.12025
vt -14.9987 0.859706
f 60/209/31 58/210/29 59/211/31

vt -15.0136 0.859706
f 57/212/29 59/211/31 58/210/29

usemtl _Color_C03_2
vt -195.976 1.98941e-014
v 12.6277 4.18543 -89.5125
vt -194.177 141.732
vt -195.976 141.732
f 60/213/32 61/214/34 59/215/32

v 12.6277 0.585432 -89.5125
vt -194.177 1.98941e-014
f 61/214/34 60/213/32 62/216/34

usemtl _7
vt -21.0545 0.12025
vt -21.0694 0.12025
vt -21.0545 0.859706
f 62/217/33 60/218/31 61/219/33

vt -21.0694 0.859706
f 59/220/31 61/219/33 60/218/31

usemtl _Color_C03_2
v 12.5998 0.585432 -89.4763
vt -198.834 -5.42856e-016
vt -200.633 141.732
vt -200.633 -5.42856e-016
f 63/221/36 61/222/34 62/223/34

v 12.5998 4.18543 -89.4763
vt -198.834 141.732
f 61/222/34 63/221/36 64/224/36

usemtl _7
vt -25.675 0.859706
vt -25.675 0.12025
vt -25.6899 0.859706
f 64/225/35 63/226/35 61/227/33

usemtl _Color_C03_2
v 12.5823 0.585432 -89.4341
vt -189.88 -1.68777e-014
vt -191.678 141.732
vt -191.678 -1.68777e-014
f 65/228/38 64/229/36 63/230/36

v 12.5823 4.18543 -89.4341
vt -189.88 141.732
f 64/229/36 65/228/38 66/231/38

usemtl _7
vt -28.5453 0.859706
vt -28.5453 0.12025
vt -28.5602 0.859706
f 66/232/37 65/233/37 64/234/35

usemtl _Color_C03_2
v 12.5764 0.585432 -89.3888
vt -167.924 -2.1249e-014
vt -169.723 141.732
vt -169.723 -2.48017e-014
f 67/235/15 66/236/38 65/237/38

v 12.5764 4.18543 -89.3888
vt -167.924 141.732
f 66/236/38 67/235/15 68/238/15

usemtl _7
vt -29.4697 0.859706
vt -29.4697 0.12025
vt -29.4847 0.859706
f 68/239/16 67/240/16 66/241/37

usemtl _Color_C03_2
v 12.5823 0.585432 -89.3435
vt -134.463 -1.87368e-014
vt -136.262 141.732
vt -136.262 -1.87368e-014
f 69/242/40 68/243/15 67/244/15

v 12.5823 4.18543 -89.3435
vt -134.463 141.732
f 68/243/15 69/242/40 70/245/40

usemtl _7
vt -28.3854 0.859706
vt -28.3854 0.12025
vt -28.4003 0.859706
f 70/246/39 69/247/39 68/248/16

usemtl _Color_C03_2
vt -91.778 -6.58238e-015
vt -93.5766 141.732
vt -93.5766 -6.58238e-015
f 26/249/21 70/250/40 69/251/40

vt -91.778 141.732
f 70/250/40 26/249/21 23/252/21

usemtl _7
vt -25.3661 0.859706
vt -25.3661 0.12025
vt -25.381 0.859706
f 23/253/24 26/254/24 70/255/39

vt -20.6325 0.12025
f 26/256/24 23/76/24 24/75/23

vt -25.381 0.12025
f 69/257/39 70/255/39 26/254/24

vt -28.4003 0.12025
f 67/258/16 68/248/16 69/247/39

vt -29.4847 0.12025
f 65/259/37 66/241/37 67/240/16

vt -28.5602 0.12025
f 63/260/35 64/234/35 65/233/37

vt -25.6899 0.12025
f 62/261/33 61/227/33 63/226/35

g Mesh3 AUL023 Model

l 38 39

l 36 38

l 34 36

l 32 34

l 29 32

l 28 29

l 24 28

l 26 24

l 69 26

l 67 69

l 65 67

l 63 65

l 62 63

l 60 62

l 58 60

l 56 58

l 54 56

l 52 54

l 49 52

l 47 49

l 45 47

l 43 45

l 41 43

l 39 41

g Mesh4 AUL023 Model

l 16 17

l 1 16

l 3 1

l 5 3

l 5 9

l 6 5

l 6 7

l 6 2

l 4 2

l 15 4

l 18 15

l 18 14

l 18 17

l 17 19

l 19 9

l 14 19

l 14 13

l 13 22

l 13 20

l 10 20

l 10 12

l 10 8

l 8 11

l 8 7

l 7 9

l 12 11

l 22 11

l 22 21

l 20 21

l 15 16

l 4 1

l 2 3

g Mesh5 AUL023 Model

l 68 70

l 66 68

l 64 66

l 61 64

l 59 61

l 57 59

l 55 57

l 53 55

l 51 53

l 50 51

l 48 50

l 46 48

l 44 46

l 42 44

l 40 42

l 37 40

l 35 37

l 33 35

l 31 33

l 30 31

l 27 30

l 25 27

l 23 25

l 70 23

g Mesh6 Model

v 138.951 3.33 -157.425
v 138.951 3.3 -157.425
l 71 72

