# Alias OBJ Model File
# Exported from SketchUp, (c) 2000-2012 Trimble Navigation Limited
# File units = meters

mtllib COM019.mtl

g Mesh1 COM019 Model

usemtl Color_C08
v 12.5728 4.43543 -78.0738
vt -126.885 141.732
vn 0.00031484 -3.39234e-016 -1
v 12.9228 0.835432 -78.0737
vt -140.665 1.08675e-014
v 12.5728 0.835432 -78.0738
vt -126.885 3.76206e-015
f 1/1/1 2/2/1 3/3/1

v 12.9228 4.43543 -78.0737
vt -140.665 141.732
f 2/2/1 1/1/1 4/4/1

usemtl _7
vt -4.09671 0.171601
vn -0.00031484 3.39234e-016 1
vt -4.21098 0.171601
vt -4.09671 0.911057
f 3/5/2 2/6/2 1/7/2

usemtl _Tile_Ceramic_Natural_7
v 13.5647 0.835432 -79.7381
vt 9.64774 56.7127
vn 4.96504e-014 1 2.19912e-013
vt 8.94225 55.529
vt 9.19118 55.5289
f 5/8/3 3/9/3 2/10/3

v 9.49037 0.835432 -79.7381
vt 6.74991 56.7127
f 6/11/3 3/9/3 5/8/3

v 12.5727 0.835432 -77.8381
vt 8.9422 55.3614
f 6/11/3 7/12/3 3/9/3

v 12.5727 0.835432 -77.7938
vt 8.94219 55.3299
f 6/11/3 8/13/3 7/12/3

v 9.49037 0.835432 -79.7361
vt 6.74991 56.7113
f 9/14/3 8/13/3 6/11/3

v 9.49037 0.835432 -77.8381
vt 6.74991 55.3614
f 10/15/3 8/13/3 9/14/3

v 9.49037 0.835432 -77.7948
vt 6.74991 55.3306
f 11/16/3 8/13/3 10/15/3

v 9.39137 0.835432 -77.7948
vt 6.67949 55.3306
f 8/13/3 11/16/3 12/17/3

usemtl _7
vt 3.06607 15.9794
vn -4.96504e-014 -1 -2.19912e-013
vt 3.09839 15.9794
vt 4.10471 15.9792
f 12/18/4 11/19/4 8/20/4

vt 3.09839 15.9883
f 10/21/4 8/20/4 11/19/4

vt 3.09839 16.3781
f 9/22/4 8/20/4 10/21/4

vt 3.09839 16.3785
f 6/23/4 8/20/4 9/22/4

vt 4.10471 15.9883
f 7/24/4 8/20/4 6/23/4

usemtl Color_C08
vt -0.0662264 4.52531e-014
vn -1 -3.7134e-016 -0.00031484
vt -11.0898 141.732
vt -1.8116 6.67462e-012
f 8/25/5 1/26/5 7/27/5

v 12.5727 4.43543 -77.7938
vt -0.0662264 141.732
f 1/26/5 8/25/5 13/28/5

usemtl _7
vt -25.3992 0.911057
vn 1 3.7134e-016 0.00031484
vt -25.3992 0.171601
vt -25.4906 0.911057
f 13/29/6 8/30/6 1/31/6

usemtl Color_C08
vt -126.885 9.92753e-014
vn 0.00031484 -1.04259e-013 -1
v 9.39137 4.43543 -77.7948
vt -1.63505 141.732
f 8/32/7 14/33/7 13/1/7

vt -1.63505 9.92753e-014
f 14/33/7 8/32/7 12/34/7

usemtl _7
vt -3.05807 0.171601
vn -0.00031484 1.04259e-013 1
vt -3.05807 0.911057
f 12/35/8 8/5/8 14/36/8

f 13/7/8 14/36/8 8/5/8

vt -25.4137 0.171601
f 7/37/6 1/31/6 8/30/6

usemtl Color_C08
vt -11.0898 -4.71175e-014
f 7/27/5 1/26/5 3/38/5

usemtl _7
vt -25.4906 0.171601
f 3/39/6 1/31/6 7/37/6

vt 4.10474 16.0367
f 3/40/4 7/24/4 6/23/4

vt 4.42858 16.3785
f 5/41/4 3/40/4 6/23/4

vt 4.219 16.0367
f 2/42/4 3/40/4 5/41/4

usemtl _Tile_Ceramic_Natural_7
v 14.6927 0.835432 -77.7931
vt 10.45 55.3294
f 2/10/3 15/43/3 5/8/3

v 12.9227 0.835432 -77.8381
vt 9.19113 55.3614
f 16/44/3 15/43/3 2/10/3

v 12.9227 0.835432 -77.7937
vt 9.19112 55.3298
f 15/43/3 16/44/3 17/45/3

usemtl _7
vt 4.21897 15.9792
vt 4.21898 15.9883
vt 4.79684 15.979
f 17/46/4 16/47/4 15/48/4

usemtl Color_C08
vt 1.81594 4.73734e-012
vn 1 9.25803e-015 0.00031484
v 12.9227 4.43543 -77.7937
vt 0.0662264 141.732
vt 0.0662264 -1.2028e-012
f 16/49/9 18/50/9 17/51/9

vt 11.0898 141.732
f 18/50/9 16/49/9 4/52/9

usemtl _7
vt 25.3992 0.171601
vn -1 -9.25803e-015 -0.00031484
vt 25.3992 0.911057
vt 25.4137 0.171601
f 17/53/10 18/54/10 16/55/10

usemtl Color_C08
vn 0.00031484 -4.49908e-016 -1
vt -210.35 4.57593e-012
vt -140.665 9.95058e-014
f 18/4/11 15/56/11 17/57/11

v 14.6927 4.43543 -77.7931
vt -210.35 141.732
f 15/56/11 18/4/11 19/58/11

usemtl _7
vn -0.00031484 4.49908e-016 1
vt -4.78884 0.171601
vt -4.21098 0.911057
f 17/6/12 15/59/12 18/60/12

vt -4.78884 0.911057
f 19/61/12 18/60/12 15/59/12

usemtl Color_C08
vn -1 -1.98205e-014 -0.00031484
v 14.6927 3.83543 -77.8381
vt -1.83788 118.11
vt -0.0662264 4.06659e-013
f 19/28/13 20/62/13 15/63/13

v 14.6933 4.43543 -79.7381
vt -76.641 141.732
f 20/62/13 19/28/13 21/64/13

usemtl _7
vn 1 1.98205e-014 0.00031484
vt -25.4139 0.787814
f 15/30/14 20/65/14 19/29/14

usemtl Color_C08
v 14.6927 0.835432 -77.8381
vt -1.83788 8.32985e-013
f 22/66/13 15/63/13 20/62/13

usemtl _7
vt -25.4139 0.171601
f 20/65/14 15/30/14 22/67/14

usemtl _Tile_Ceramic_Natural_7
v 14.4007 0.835432 -79.7381
vt 10.2423 56.7127
vt 10.45 55.3614
f 23/68/3 15/43/3 22/69/3

v 13.5647 0.835432 -79.8631
vt 9.64774 56.8016
f 24/70/3 15/43/3 23/68/3

f 5/8/3 15/43/3 24/70/3

usemtl _7
f 5/41/4 15/48/4 2/42/4

vt 4.42858 16.4042
f 24/71/4 15/48/4 5/41/4

vt 4.70151 16.3785
f 23/72/4 15/48/4 24/71/4

vt 4.79684 15.9883
f 22/73/4 15/48/4 23/72/4

usemtl _Tile_Ceramic_Natural_7
v 14.6933 0.835432 -79.7381
vt 10.4504 56.7127
f 23/68/3 22/69/3 25/74/3

usemtl _7
vt 4.79704 16.3785
f 25/75/4 22/73/4 23/72/4

usemtl Color_C08
v 14.6933 3.83543 -79.7381
vt 210.374 118.11
vn -2.70394e-014 1.66512e-013 1
vt 198.854 3.71152e-011
vt 210.374 3.70796e-011
f 26/76/15 23/77/15 25/78/15

v 14.4007 3.41043 -79.7381
vt 198.854 101.378
f 23/77/15 26/76/15 27/79/15

vn 2.70394e-014 -1.66512e-013 -1
f 25/78/16 23/77/16 26/76/16

f 27/79/16 26/76/16 23/77/16

v 13.5647 3.41043 -79.7381
vt 165.941 101.378
f 27/79/15 26/76/15 28/80/15

f 28/80/16 26/76/16 27/79/16

v 9.49037 4.43543 -79.7381
vt 5.53278 141.732
f 29/81/15 28/80/15 26/76/15

vt 5.53278 3.76907e-011
f 6/82/15 28/80/15 29/81/15

vt 165.941 3.72146e-011
f 28/80/15 6/82/15 5/83/15

f 5/83/16 6/82/16 28/80/16

f 29/81/16 28/80/16 6/82/16

f 26/76/16 28/80/16 29/81/16

vt 210.374 141.732
f 29/81/15 26/76/15 21/84/15

f 21/84/16 26/76/16 29/81/16

vt -76.641 118.11
f 20/62/13 21/64/13 26/85/13

usemtl _7
vt -26.0342 0.911057
f 21/86/14 19/29/14 20/65/14

vt -26.0342 0.787814
f 26/87/14 21/86/14 20/65/14

usemtl Color_C08
vt 76.5748 141.732
vn 1 9.61532e-014 -1.45868e-014
vt 76.497 2.44081e-011
vt 76.5748 2.44081e-011
f 29/88/17 9/89/17 6/90/17

v 9.49037 3.83543 -79.7338
vt 76.4033 118.11
f 29/88/17 30/91/17 9/89/17

v 9.49037 3.83543 -77.8381
vt 1.77165 118.11
f 29/88/17 31/92/17 30/91/17

v 9.49037 4.43543 -77.7948
vt 0.0657116 141.732
f 32/93/17 31/92/17 29/88/17

vt 1.77165 2.50049e-011
f 32/93/17 10/94/17 31/92/17

vt 0.0657116 2.50191e-011
f 10/94/17 32/93/17 11/95/17

vn -1 -9.61532e-014 1.45868e-014
f 11/95/18 32/93/18 10/94/18

f 31/92/18 10/94/18 32/93/18

vt -5.53278 2.55369e-011
vn 0 0 -1
v 9.34984 3.83543 -77.8381
vt -3.18323e-012 118.11
vt -5.53278 118.11
f 10/96/19 33/97/19 31/98/19

v 9.34984 0.835432 -77.8381
vt -9.54969e-012 2.51745e-011
f 33/97/19 10/96/19 34/99/19

vn -0 -0 1
f 34/99/20 10/96/20 33/97/20

usemtl _Tile_Ceramic_Natural_7
v 9.34984 0.835432 -79.7361
vt 6.64995 56.7113
vt 6.64995 55.3614
f 10/15/3 35/100/3 34/101/3

f 35/100/3 10/15/3 9/14/3

usemtl _7
vt 3.05251 15.9883
vt 3.05251 16.3781
f 34/102/4 35/103/4 10/21/4

f 9/22/4 10/21/4 35/103/4

usemtl Color_C08
vt 5.53278 -0.0606777
vn 5.10254e-017 -0.000793203 1
v 9.34984 3.83543 -79.7338
vt 3.89851e-015 118.05
vt 9.5536e-012 -0.0606777
f 9/104/21 36/105/21 35/106/21

vt 5.53278 118.05
f 36/105/21 9/104/21 30/107/21

vn -5.10254e-017 0.000793203 -1
f 35/106/22 36/105/22 9/104/22

f 30/107/22 9/104/22 36/105/22

f 9/89/18 30/91/18 29/88/18

f 30/91/18 31/92/18 29/88/18

f 29/88/18 31/92/18 32/93/18

f 6/90/18 9/89/18 29/88/18

f 31/98/20 33/97/20 10/96/20

vt 81.4961 2.41554e-011
vn 1 -3.36425e-015 5.87642e-028
vt 76.5748 101.378
vt 76.5748 2.50223e-011
f 24/108/23 28/109/23 5/110/23

v 13.5647 3.41043 -79.8631
vt 81.4961 101.378
f 28/109/23 24/108/23 37/111/23

vn -1 3.36425e-015 -5.87642e-028
f 5/110/24 28/109/24 24/108/24

f 37/111/24 24/108/24 28/109/24

vt -76.5748 101.378
vn -1 3.36425e-015 -5.89616e-028
v 14.4007 0.835432 -79.8631
vt -81.4961 2.41666e-011
vt -76.5748 2.50335e-011
f 27/112/25 38/113/25 23/114/25

v 14.4007 3.41043 -79.8631
vt -81.4961 101.378
f 38/113/25 27/112/25 39/115/25

vn 1 -3.36425e-015 5.89616e-028
f 23/114/26 38/113/26 27/112/26

usemtl _Tile_Ceramic_Natural_7
vt 10.2423 56.8016
f 38/116/3 24/70/3 23/68/3

usemtl _7
vt 4.70151 16.4042
f 23/72/4 24/71/4 38/117/4

usemtl Color_C08
f 39/115/26 27/112/26 38/113/26

usemtl _7
f 2/42/4 15/48/4 16/47/4

usemtl Color_C08
vt 11.0898 -1.29517e-012
f 4/52/9 16/49/9 2/118/9

usemtl _7
vt 25.4906 0.911057
f 4/119/10 16/55/10 18/54/10

vt 25.4906 0.171601
f 2/120/10 16/55/10 4/119/10

f 4/60/2 1/7/2 2/6/2

g Mesh2 COM019 Model

l 8 13

l 8 7

l 8 12

l 12 14

l 11 12

l 11 32

l 10 11

l 10 31

l 10 34

l 34 33

l 34 35

l 36 35

l 30 36

l 30 9

l 31 30

l 31 33

l 9 35

l 6 9

l 6 29

l 5 6

l 5 28

l 5 24

l 24 37

l 38 24

l 39 38

l 27 39

l 27 23

l 28 27

l 28 37

l 25 23

l 25 26

l 22 25

l 22 20

l 15 22

l 15 19

l 15 17

l 17 18

l 16 17

l 2 16

l 2 4

l 2 3

l 3 1

l 7 3

l 1 4

l 1 13

l 14 13

l 4 18

l 18 19

l 19 21

l 26 21

l 20 26

l 21 29

l 29 32

l 23 38

g Mesh3 Model

v 138.951 3.33 -157.425
v 138.951 3.3 -157.425
l 40 41

