# Alias OBJ Model File
# Exported from SketchUp, (c) 2000-2012 Trimble Navigation Limited
# File units = meters

mtllib COM028.mtl

g Mesh1 COM028 Model

usemtl Color_C08
v 11.5993 4.43543 -113.404
vt -23.6953 141.732
vn -1 -2.04934e-016 -0.00031484
v 11.5992 0.835432 -112.804
vt -0.0732552 1.79691e-013
v 11.5992 4.43543 -112.804
vt -0.0732552 141.732
f 1/1/1 2/2/1 3/3/1

v 11.5993 0.835432 -113.404
vt -23.6953 1.72585e-013
f 2/2/1 1/1/1 4/4/1

vn 1 2.04934e-016 0.00031484
f 3/3/2 2/2/2 1/1/2

vt -232.675 2.24431e-013
vn 0.00031484 4.01717e-014 -1
v 7.77915 0.835432 -112.805
vt -82.281 2.52853e-013
vt -232.675 141.732
f 2/5/3 5/6/3 3/7/3

v 8.00915 0.835432 -112.805
vt -91.3361 1.96009e-013
f 5/6/3 2/5/3 6/8/3

usemtl _7
vt -2.60321 0.171601
vn -0.00031484 -4.01717e-014 1
vt -3.77526 0.171601
vt -2.52812 0.171601
f 6/9/4 2/10/4 5/11/4

usemtl _Tile_Ceramic_Natural_7
vt 81.5363 6.22772
vn 6.689e-014 1 1.74451e-014
vt 81.1095 8.78107
vt 81.1095 6.22772
f 4/12/5 6/13/5 2/14/5

v 11.9189 0.835432 -116.625
vt 83.8274 6.00114
f 7/15/5 6/13/5 4/12/5

v 7.77934 0.835432 -113.405
vt 81.5363 8.94465
f 7/15/5 8/16/5 6/13/5

v 7.65846 0.835432 -116.625
vt 83.8265 9.03135
f 9/17/5 8/16/5 7/15/5

v 7.27934 0.835432 -113.405
vt 81.5363 9.30027
f 8/16/5 9/17/5 10/18/5

usemtl BackColor
vt 62.6034 23.6756
vn -6.689e-014 -1 -1.74451e-014
vt 77.5293 150.445
vt 82.2884 23.6694
f 10/19/6 9/20/6 8/21/6

usemtl _Tile_Ceramic_Natural_7
v 7.65846 0.835432 -117.492
vt 84.4432 9.03154
f 11/22/5 10/18/5 9/17/5

v 5.69067 0.835432 -117.492
vt 84.4427 10.4311
f 12/23/5 10/18/5 11/22/5

v 7.27922 0.835432 -113.005
vt 81.2518 9.30027
f 12/23/5 13/24/5 10/18/5

v 5.68922 0.835432 -113.006
vt 81.2518 10.4311
f 13/24/5 12/23/5 14/25/5

usemtl BackColor
vt 1.09139e-011 7.94727
vt 0.0570799 184.58
vt 62.5984 7.92756
f 14/26/6 12/27/6 13/28/6

usemtl _Tile_Ceramic_Natural_7
v 5.69067 0.835432 -117.611
vt 84.527 10.4311
f 15/29/5 14/25/5 12/23/5

usemtl Color_C08
vt 189.246 2.43787e-011
vn 1 2.00432e-015 0.00031484
v 5.68922 4.43543 -113.006
vt 7.94727 141.732
vt 7.94727 1.59801e-011
f 15/30/7 16/31/7 14/32/7

v 5.69067 4.43543 -117.611
vt 189.246 141.732
f 16/31/7 15/30/7 17/33/7

usemtl _7
vt 36.8945 0.171601
vn -1 -2.00432e-015 -0.00031484
vt 36.8945 0.911057
vt 38.3979 0.171601
f 14/34/8 16/35/8 15/36/8

usemtl Color_C08
vt 0.00250212 141.732
vn 0.00031484 9.48608e-015 -1
vt -62.5959 1.59474e-011
vt 0.00250212 1.59047e-011
f 16/37/9 13/38/9 14/39/9

v 7.27922 4.43543 -113.005
vt -62.5959 141.732
f 13/38/9 16/37/9 18/40/9

usemtl _7
vt -1.84578 0.171601
vn -0.00031484 -9.48608e-015 1
vt -2.36488 0.171601
vt -1.84578 0.911057
f 14/41/10 13/42/10 16/43/10

vt -2.36488 0.911057
f 18/44/10 16/43/10 13/42/10

usemtl Color_C08
v 7.27934 4.43543 -113.405
vn -1 5.33096e-016 -0.00031484
vt -7.94727 1.60561e-011
vt -7.94727 141.732
f 19/1/11 13/45/11 18/46/11

vt -23.6953 1.59922e-011
f 13/45/11 19/1/11 10/47/11

usemtl _7
vt -36.8945 0.911057
vn 1 -5.33096e-016 0.00031484
vt -36.8945 0.171601
vt -37.0251 0.911057
f 18/48/12 13/49/12 19/50/12

vt -37.0251 0.171601
f 10/51/12 19/50/12 13/49/12

usemtl Color_C08
vn 0.00031484 -9.62547e-013 -1
vt -82.281 3.88306e-011
vt -62.5959 3.87666e-011
f 19/40/13 8/52/13 10/53/13

v 7.77934 4.43543 -113.405
vt -82.281 141.732
f 8/52/13 19/40/13 20/54/13

usemtl _7
vn -0.00031484 9.62547e-013 1
f 10/42/14 8/11/14 19/44/14

vt -2.52812 0.911057
f 20/55/14 19/44/14 8/11/14

usemtl Color_C08
vt 23.6953 141.732
vn 1 -1.33724e-014 0.00031484
vt 0.0732552 1.35609e-012
vt 23.6953 1.7123e-011
f 20/56/15 5/57/15 8/58/15

v 7.77915 4.43543 -112.805
vt 0.0732552 141.732
f 21/59/15 5/57/15 20/56/15

v 7.77915 3.83543 -112.805
vt 0.0732552 118.11
f 5/57/15 21/59/15 22/60/15

usemtl _7
vt 36.8292 0.787814
vn -1 1.33724e-014 -0.00031484
vt 36.8292 0.911057
vt 36.8292 0.171601
f 22/61/16 21/62/16 5/63/16

usemtl Color_C08
vt -82.281 118.11
f 3/7/3 22/64/3 21/54/3

f 3/7/3 5/6/3 22/64/3

usemtl _7
vt -3.77526 0.911057
f 3/65/4 5/11/4 2/10/4

vt -2.52812 0.787814
f 22/66/4 5/11/4 3/65/4

f 21/55/4 22/66/4 3/65/4

vt 37.0251 0.911057
f 20/67/16 5/63/16 21/62/16

vt 37.0251 0.171601
f 8/68/16 5/63/16 20/67/16

usemtl _Tile_Ceramic_Natural_7
vt 81.1095 8.94465
f 6/13/5 8/16/5 5/69/5

usemtl BackColor
vt 82.281 0.0473499
vt 91.3361 0.044499
f 5/70/6 8/21/6 6/71/6

vt 245.264 150.445
f 6/71/6 8/21/6 7/72/6

f 7/72/6 8/21/6 9/20/6

usemtl Color_C08
vt 245.264 3.98841e-013
vn -2.23392e-028 -6.41699e-015 1
v 11.753 1.78114 -116.625
vt 238.732 37.2327
vt 77.5293 6.2324e-012
f 7/73/17 23/74/17 9/75/17

v 11.9189 4.43543 -116.625
vt 245.264 141.732
f 23/74/17 7/73/17 24/76/17

usemtl BackColor
vn 2.23392e-028 6.41699e-015 -1
f 9/75/18 23/74/18 7/73/18

usemtl Color_C08
v 7.949 1.78114 -116.625
vt 88.9679 37.2327
f 25/77/17 9/75/17 23/74/17

v 7.65846 4.43543 -116.625
vt 77.5293 141.732
f 9/75/17 25/77/17 26/78/17

usemtl BackColor
f 26/78/18 25/77/18 9/75/18

usemtl Color_C08
v 7.949 2.29085 -116.625
vt 88.9679 57.2998
f 26/78/17 25/77/17 27/79/17

usemtl BackColor
f 27/79/18 25/77/18 26/78/18

usemtl Color_C08
v 7.949 4.13214 -116.625
vt 88.9679 129.792
f 26/78/17 27/79/17 28/80/17

usemtl BackColor
f 28/80/18 27/79/18 26/78/18

usemtl Translucent_Glass_Blue
vn 0 -2.50923e-014 1
v 11.753 4.13214 -116.625
vt 238.732 129.792
f 27/79/19 29/81/19 28/80/19

v 11.753 2.29085 -116.625
vt 238.732 57.2998
f 29/81/19 27/79/19 30/82/19

vn -0 2.50923e-014 -1
f 30/82/20 27/79/20 29/81/20

f 28/80/20 29/81/20 27/79/20

usemtl Color_C08
f 29/81/17 24/76/17 28/80/17

f 30/82/17 24/76/17 29/81/17

f 23/74/17 24/76/17 30/82/17

usemtl BackColor
f 24/76/18 7/73/18 23/74/18

usemtl Color_C08
v 11.9189 0.835432 -114.373
vt -61.7858 1.72368e-011
vn -1 6.79607e-014 -1.81939e-015
vt -150.445 141.732
vt -150.445 1.80326e-011
f 31/83/21 24/84/21 7/85/21

v 11.9189 2.93543 -114.373
vt -61.7858 82.6772
f 32/86/21 24/84/21 31/83/21

v 11.9189 2.93543 -113.47
vt -26.1996 82.6772
f 33/87/21 24/84/21 32/86/21

v 11.9189 4.43543 -113.404
vt -23.6181 141.732
f 33/87/21 34/88/21 24/84/21

v 11.9189 0.835432 -113.404
vt -23.6181 1.68957e-011
f 34/88/21 33/87/21 35/89/21

usemtl BackColor
vn 1 -6.79607e-014 1.81939e-015
f 35/89/22 33/87/22 34/88/22

usemtl Color_C08
v 11.9189 0.835432 -113.47
vt -26.1996 1.6917e-011
f 36/90/21 35/89/21 33/87/21

usemtl _Tile_Ceramic_Natural_7
vt 81.5363 6.00042
vt 81.5829 6.00044
f 7/15/5 35/91/5 36/92/5

f 7/15/5 4/12/5 35/91/5

usemtl BackColor
vt 232.682 23.622
f 4/93/6 6/71/6 7/72/6

vt 232.675 5.45697e-012
f 2/94/6 6/71/6 4/93/6

usemtl Color_C08
f 4/4/2 1/1/2 2/2/2

vn 0.00031484 3.19694e-015 -1
vt -245.257 1.51621e-013
vt -232.675 1.44516e-013
f 1/7/23 35/95/23 4/96/23

vt -245.257 141.732
f 35/95/23 1/7/23 34/97/23

usemtl _7
vn -0.00031484 -3.19694e-015 1
vt -3.8796 0.171601
f 4/10/24 35/98/24 1/65/24

usemtl BackColor
vt 245.264 23.6181
f 35/99/6 4/93/6 7/72/6

vt 245.264 26.1996
f 36/100/6 35/99/6 7/72/6

f 33/87/22 35/89/22 36/90/22

usemtl Color_C08
v 12.0992 2.93543 -113.47
vt -252.361 82.6772
vn 3.96776e-028 1.10006e-014 -1
vt -245.264 -3.95196e-014
vt -245.264 82.6772
f 37/101/25 36/102/25 33/103/25

v 12.0992 0.835432 -113.47
vt -252.361 -2.8821e-013
f 36/102/25 37/101/25 38/104/25

usemtl BackColor
vn -3.96776e-028 -1.10006e-014 1
f 38/104/26 37/101/26 36/102/26

f 33/103/26 36/102/26 37/101/26

usemtl Color_C08
vt -245.264 26.1996
vn -3.60444e-014 -1 -8.78539e-015
v 12.0992 2.93543 -114.373
vt -252.361 61.7858
vt -252.361 26.1996
f 33/105/27 39/106/27 37/107/27

vt -245.264 61.7858
f 39/106/27 33/105/27 32/108/27

usemtl BackColor
vn 3.60444e-014 1 8.78539e-015
f 32/108/28 33/105/28 39/106/28

f 32/86/22 24/84/22 33/87/22

f 31/83/22 24/84/22 32/86/22

f 7/85/22 24/84/22 31/83/22

usemtl _Tile_Ceramic_Natural_7
vt 82.2258 6.00064
f 7/15/5 36/92/5 31/109/5

usemtl BackColor
vt 245.264 61.7858
f 31/110/6 36/100/6 7/72/6

usemtl _Tile_Ceramic_Natural_7
vt 81.5829 5.87223
f 38/111/5 31/109/5 36/92/5

v 12.0992 0.835432 -114.373
vt 82.2258 5.87243
f 31/109/5 38/111/5 40/112/5

usemtl BackColor
vt 252.361 26.1996
f 36/100/6 31/110/6 38/113/6

vt 252.361 61.7858
f 40/114/6 38/113/6 31/110/6

usemtl Color_C08
vt 252.361 82.6772
vn 8.54579e-014 -1.10006e-014 1
vt 245.264 -1.11244e-013
vt 252.361 -3.59933e-013
f 39/115/29 31/116/29 40/117/29

vt 245.264 82.6772
f 31/116/29 39/115/29 32/118/29

usemtl BackColor
vn -8.54579e-014 1.10006e-014 -1
f 40/117/30 31/116/30 39/115/30

f 32/118/30 39/115/30 31/116/30

f 24/84/22 34/88/22 33/87/22

f 37/107/28 39/106/28 33/105/28

usemtl _7
vt -3.8796 0.911057
f 34/119/24 1/65/24 35/98/24

usemtl BackColor
f 30/82/18 24/76/18 23/74/18

f 29/81/18 24/76/18 30/82/18

f 28/80/18 24/76/18 29/81/18

usemtl Color_C08
f 26/78/17 28/80/17 24/76/17

usemtl BackColor
f 24/76/18 28/80/18 26/78/18

f 23/74/18 9/75/18 25/77/18

usemtl Color_C08
v 7.65846 4.43543 -117.492
vt -184.58 141.732
vn -1 7.26234e-014 -2.01054e-027
vt -150.445 1.28282e-011
f 41/120/31 9/121/31 26/84/31

vt -184.58 1.18832e-011
f 9/121/31 41/120/31 11/122/31

usemtl BackColor
vn 1 -7.26234e-014 2.01054e-027
f 26/84/32 9/121/32 41/120/32

f 11/122/32 41/120/32 9/121/32

usemtl Color_C08
vn -1.22284e-027 -6.41699e-015 1
vt 0.0570799 1.98192e-011
vt 77.5293 5.06833e-012
f 41/78/33 12/123/33 11/124/33

v 5.69067 4.43543 -117.492
vt 0.0570799 141.732
f 12/123/33 41/78/33 42/125/33

usemtl BackColor
vn 1.22284e-027 6.41699e-015 -1
f 11/124/34 12/123/34 41/78/34

vt 77.5293 184.58
f 11/126/6 10/19/6 12/27/6

f 9/20/6 10/19/6 11/126/6

f 10/19/6 13/28/6 12/27/6

f 42/125/34 41/78/34 12/123/34

usemtl _7
vt 38.3979 0.911057
f 17/127/8 15/36/8 16/35/8

usemtl BackColor
vt 0.0570799 189.246
f 12/27/6 14/26/6 15/128/6

g Mesh2 COM028 Model

l 13 18

l 13 10

l 13 14

l 14 16

l 14 15

l 15 17

l 12 15

l 12 11

l 12 42

l 42 41

l 11 41

l 11 9

l 9 26

l 7 9

l 7 24

l 31 7

l 31 32

l 31 40

l 40 39

l 38 40

l 36 38

l 33 36

l 32 33

l 32 39

l 39 37

l 33 37

l 37 38

l 35 36

l 35 34

l 4 35

l 4 1

l 2 4

l 2 3

l 6 2

l 5 6

l 5 22

l 8 5

l 8 20

l 10 8

l 10 19

l 18 19

l 16 18

l 17 16

l 20 19

l 21 20

l 22 21

l 3 21

l 3 1

l 34 1

l 34 24

l 24 26

l 41 26

g Mesh3 COM028 Model

l 27 30

l 28 27

l 29 28

l 30 29

l 23 30

l 23 25

l 27 25

g Mesh4 Model

v 138.951 3.33 -157.425
v 138.951 3.3 -157.425
l 43 44

