# Alias OBJ Model File
# Exported from SketchUp, (c) 2000-2012 Trimble Navigation Limited
# File units = meters

mtllib COM006.mtl

g Mesh1 COM006 Model

usemtl Color_C08
v 15.6972 4.43543 -60.3578
vt -130.345 151.575
vn -1 -1.44905e-014 -0.00031484
v 15.6962 3.83543 -57.1678
vt -4.75414 127.953
v 15.6962 4.43543 -57.1678
vt -4.75414 151.575
f 1/1/1 2/2/1 3/3/1

v 15.6971 3.83543 -60.047
vt -118.11 127.953
f 2/2/1 1/1/1 4/4/1

usemtl _7
vt -18.6656 0.911057
vn 1 1.44905e-014 0.00031484
vt -18.6656 0.787814
vt -19.7071 0.911057
f 3/5/2 2/6/2 1/7/2

usemtl Color_C08
vt -116.481 127.953
vn 0.00031484 -1.15589e-015 -1
v 15.1362 4.43543 -57.168
vt -94.4338 151.575
vt -116.481 151.575
f 2/8/3 5/9/3 3/10/3

v 15.6962 2.83543 -57.1678
vt -116.481 88.5827
f 6/11/3 5/9/3 2/8/3

v 15.1362 0.835432 -57.168
vt -94.4338 9.84252
f 6/11/3 7/12/3 5/9/3

v 15.6962 0.835432 -57.1678
vt -116.481 9.84252
f 7/12/3 6/11/3 8/13/3

usemtl _7
vt -5.11858 0.171601
vn -0.00031484 1.15589e-015 1
vt -5.11858 0.58241
vt -4.93576 0.171601
f 8/14/4 6/15/4 7/16/4

usemtl Color_C08
vt -4.75414 88.5827
v 15.6972 0.835432 -60.3578
vt -130.345 9.84252
vt -4.75414 9.84252
f 6/17/1 9/18/1 8/19/1

v 15.6971 2.83543 -60.047
vt -118.11 88.5827
f 9/18/1 6/17/1 10/20/1

usemtl _7
vt -18.6656 0.171601
vt -19.7071 0.171601
vt -18.6656 0.58241
f 8/21/2 9/22/2 6/23/2

usemtl _Tile_Ceramic_Natural_7
v 15.4872 0.835432 -60.3579
vt 11.0151 42.9288
vn 1.49592e-013 1 4.32704e-013
vt 11.1637 40.6599
vt 11.1645 42.9287
f 11/24/5 8/25/5 9/26/5

vt 10.7655 40.66
f 8/25/5 11/24/5 7/27/5

usemtl _7
vt 4.94163 11.7425
vn -1.49592e-013 -1 -4.32704e-013
vt 5.05623 12.3978
vt 5.12446 11.7425
f 7/28/6 11/29/6 8/30/6

usemtl _Tile_Ceramic_Natural_7
v 15.4874 0.835432 -60.8479
vt 11.0152 43.2773
f 12/31/5 7/27/5 11/24/5

v 14.6874 0.835432 -60.8481
vt 10.4462 43.2775
f 13/32/5 7/27/5 12/31/5

v 15.1362 0.835432 -57.048
vt 10.7654 40.5747
f 13/32/5 14/33/5 7/27/5

v 13.388 0.835432 -62.9185
vt 9.52207 44.75
f 15/34/5 14/33/5 13/32/5

v 13.3862 0.835432 -57.1685
vt 9.52078 40.6604
f 16/35/5 14/33/5 15/34/5

v 13.3862 0.835432 -57.0485
vt 9.52076 40.5751
f 14/33/5 16/35/5 17/36/5

usemtl _7
vt 4.37029 11.718
vt 4.3703 11.7427
vt 4.94162 11.7179
f 17/37/6 16/38/6 14/39/6

usemtl Color_C08
vt 4.75414 9.84252
vn 1 5.21886e-015 0.00031484
v 13.3862 4.43543 -57.0485
vt 0.0297315 151.575
vt 0.0297315 9.84252
f 16/40/7 18/41/7 17/42/7

v 13.3862 4.43543 -57.1685
vt 4.75414 151.575
f 18/41/7 16/40/7 19/43/7

usemtl _7
vt 18.6264 0.171601
vn -1 -5.21886e-015 -0.00031484
vt 18.6264 0.911057
vt 18.6656 0.171601
f 17/44/8 18/45/8 16/46/8

vt 18.6656 0.911057
f 19/47/8 16/46/8 18/45/8

usemtl Color_C08
vt -25.5361 9.84252
vn 0.00031484 1.60545e-015 -1
v 12.9103 4.43543 -57.1687
vt -6.80051 151.575
vt -25.5361 151.575
f 16/48/9 20/49/9 19/50/9

v 12.9103 0.835432 -57.1687
vt -6.80051 9.84252
f 20/49/9 16/48/9 21/51/9

usemtl _7
vt -4.20906 0.171601
vn -0.00031484 -1.60545e-015 1
vt -4.36442 0.171601
vt -4.20906 0.911057
f 21/52/10 16/53/10 20/54/10

usemtl _Tile_Ceramic_Natural_7
v 12.9679 0.835432 -62.6387
vt 9.22329 44.551
vt 9.18232 40.6605
f 22/55/5 21/56/5 16/35/5

v 12.9103 0.835432 -57.1687
vt 9.18229 40.6605
f 22/55/5 23/57/5 21/56/5

v 12.9075 0.835432 -57.1767
vt 9.18033 40.6662
f 22/55/5 24/58/5 23/57/5

v 12.9044 0.835432 -57.1847
vt 9.17812 40.6719
f 22/55/5 25/59/5 24/58/5

v 12.901 0.835432 -57.1925
vt 9.17568 40.6774
f 22/55/5 26/60/5 25/59/5

v 12.8972 0.835432 -57.2001
vt 9.17301 40.6829
f 22/55/5 27/61/5 26/60/5

v 12.8932 0.835432 -57.2076
vt 9.1701 40.6882
f 22/55/5 28/62/5 27/61/5

v 12.8888 0.835432 -57.2149
vt 9.16697 40.6934
f 22/55/5 29/63/5 28/62/5

v 12.8841 0.835432 -57.222
vt 9.16363 40.6984
f 22/55/5 30/64/5 29/63/5

v 12.8791 0.835432 -57.2289
vt 9.16007 40.7033
f 22/55/5 31/65/5 30/64/5

v 12.8738 0.835432 -57.2356
vt 9.1563 40.7081
f 22/55/5 32/66/5 31/65/5

v 12.8682 0.835432 -57.242
vt 9.15234 40.7127
f 22/55/5 33/67/5 32/66/5

v 12.8623 0.835432 -57.2482
vt 9.14819 40.7171
f 22/55/5 34/68/5 33/67/5

v 12.8579 0.835432 -62.6387
vt 9.14505 44.551
f 35/69/5 34/68/5 22/55/5

v 12.8579 0.835432 -62.4887
vt 9.14502 44.4443
f 36/70/5 34/68/5 35/69/5

v 12.8576 0.835432 -61.4387
vt 9.14478 43.6975
f 37/71/5 34/68/5 36/70/5

v 12.8562 0.835432 -57.2541
vt 9.14385 40.7213
f 34/68/5 37/71/5 38/72/5

usemtl _7
vt 4.19727 11.7602
vt 4.1977 12.6198
vt 4.19927 11.759
f 38/73/6 37/74/6 34/75/6

usemtl Color_C08
vt 172.864 9.84252
vn 1 2.36628e-014 0.00031484
v 12.8562 4.43543 -57.2541
vt 8.11843 151.575
vt 8.11843 9.84252
f 37/76/11 39/77/11 38/78/11

v 12.8576 2.93543 -61.4387
vt 172.864 92.5197
f 39/77/11 37/76/11 40/79/11

usemtl _7
vt 18.6935 0.171601
vn -1 -2.36628e-014 -0.00031484
vt 18.6935 0.911057
vt 20.0597 0.171601
f 38/80/12 39/81/12 37/82/12

usemtl _Color_C04_1
v 12.865 4.43543 -57.2474
vt 0.803335 151.575
vn 0.707329 1.78812e-015 -0.706884
vt 1.23724 9.84252
vn 0.609011 2.32242e-016 -0.793162
vt 1.23724 151.575
f 41/83/13 38/84/14 39/85/14

v 12.865 0.585432 -57.2474
vt 0.803335 5.82401e-014
f 42/86/13 38/84/14 41/83/13

v 12.8562 0.585432 -57.2541
vt 1.23724 5.82401e-014
f 38/84/14 42/86/13 43/87/14

usemtl _7
vt 8.05463 0.12025
vn -0.609011 -2.32242e-016 0.793162
vt 8.05103 0.12025
vn -0.707329 -1.78812e-015 0.706884
vt 8.05463 0.171601
f 43/88/15 42/89/16 38/90/15

vt 8.05103 0.911057
f 41/91/16 38/90/15 42/89/16

vt 8.05463 0.911057
f 39/92/15 38/90/15 41/91/16

usemtl _Color_C04_1
vt 3.17876 151.575
v 12.8928 0.585432 -57.2112
vt 1.38017 3.13727e-014
vn 0.866183 3.00283e-015 -0.499727
vt 3.17876 3.13727e-014
f 41/93/13 44/94/17 42/95/13

v 12.8928 4.43543 -57.2112
vt 1.38017 151.575
f 44/94/17 41/93/13 45/96/17

usemtl _7
vt 12.2606 0.911057
vn -0.866183 -3.00283e-015 0.499727
vt 12.2755 0.911057
vt 12.2606 0.12025
f 45/97/18 41/98/16 44/99/18

vt 12.2755 0.12025
f 42/100/16 44/99/18 41/98/16

usemtl _Color_C04_1
vt 3.60025 151.575
v 12.9103 0.585432 -57.169
vt 1.80166 4.25477e-014
vn 0.924 2.64089e-015 -0.382393
vt 3.60025 3.8995e-014
f 45/101/17 46/102/19 44/103/17

v 12.9103 4.43543 -57.169
vt 1.80166 151.575
f 46/102/19 45/101/17 47/104/19

usemtl _7
vt 15.6341 0.911057
vn -0.924 -2.64089e-015 0.382393
vt 15.649 0.911057
vt 15.6341 0.12025
f 47/105/20 45/106/18 46/107/20

vt 15.649 0.12025
f 44/108/18 46/107/20 45/106/18

vt 20.0597 0.60295
f 40/109/12 37/82/12 39/81/12

usemtl Color_C08
v 12.8579 4.43543 -62.6387
vt 220.108 151.575
f 40/79/11 48/110/11 39/77/11

v 12.8579 2.93543 -62.4887
vt 214.203 92.5197
f 48/110/11 40/79/11 49/111/11

usemtl _7
vt 20.4514 0.911057
f 39/81/12 48/112/12 40/109/12

vt 20.4025 0.60295
f 49/113/12 40/109/12 48/112/12

usemtl Color_C08
vt 220.108 9.84252
f 49/111/11 35/114/11 48/110/11

vt 214.203 9.84252
f 35/114/11 49/111/11 36/115/11

usemtl _7
vt 20.4025 0.171601
vt 20.4514 0.171601
f 36/116/12 49/113/12 35/117/12

usemtl Color_C08
vt 4.66998 92.5197
vn -0.00031484 1.78039e-014 1
v 12.7879 0.835432 -62.4887
vt 1.91408 9.84252
vt 4.66998 9.84252
f 49/118/21 50/119/21 36/120/21

v 12.7379 0.835432 -62.4887
vt -0.0544245 9.84252
f 50/119/21 49/118/21 51/121/21

usemtl _7
vt 4.19139 0.171601
vn 0.00031484 -1.78039e-014 -1
vt 4.16854 0.171601
vt 4.19139 0.60295
f 36/122/22 50/123/22 49/124/22

usemtl _Tile_Ceramic_Natural_7
vt 9.09523 44.4443
f 50/125/5 37/71/5 36/70/5

vt 9.05967 44.4443
f 51/126/5 37/71/5 50/125/5

v 12.7376 0.835432 -61.4387
vt 9.05944 43.6975
f 37/71/5 51/126/5 52/127/5

usemtl _7
vt 4.15853 12.6198
vt 4.15863 12.8355
f 52/128/6 51/129/6 37/74/6

vt 4.17496 12.8354
f 50/130/6 37/74/6 51/129/6

vt 4.19781 12.8354
f 36/131/6 37/74/6 50/130/6

f 36/131/6 34/75/6 37/74/6

vt 4.19783 12.8663
f 35/132/6 34/75/6 36/131/6

vt 4.23374 12.8662
f 22/133/6 34/75/6 35/132/6

vt 4.20117 11.7577
f 33/134/6 34/75/6 22/133/6

vt 4.20299 11.7564
f 32/135/6 33/134/6 22/133/6

vt 4.20472 11.7551
f 31/136/6 32/135/6 22/133/6

vt 4.20635 11.7536
f 30/137/6 31/136/6 22/133/6

vt 4.20789 11.7522
f 29/138/6 30/137/6 22/133/6

vt 4.20933 11.7507
f 28/139/6 29/138/6 22/133/6

vt 4.21066 11.7491
f 27/140/6 28/139/6 22/133/6

vt 4.21189 11.7476
f 26/141/6 27/140/6 22/133/6

vt 4.21301 11.746
f 25/142/6 26/141/6 22/133/6

vt 4.21402 11.7443
f 24/143/6 25/142/6 22/133/6

vt 4.21492 11.7427
f 23/144/6 24/143/6 22/133/6

vt 4.21493 11.7427
f 21/145/6 23/144/6 22/133/6

f 16/38/6 21/145/6 22/133/6

usemtl _Tile_Ceramic_Natural_7
v 12.968 0.835432 -62.9187
vt 9.22335 44.7501
f 22/55/5 16/35/5 53/146/5

usemtl _7
vt 4.23377 12.9238
f 53/147/6 16/38/6 22/133/6

usemtl _Tile_Ceramic_Natural_7
f 53/146/5 16/35/5 15/34/5

usemtl _7
vt 4.37089 12.9237
f 15/148/6 16/38/6 53/147/6

f 15/148/6 14/39/6 16/38/6

vt 4.7951 12.4985
f 13/149/6 14/39/6 15/148/6

f 7/28/6 14/39/6 13/149/6

usemtl Color_C08
vt -0.0297315 9.84252
vn -1 -1.3233e-014 -0.00031484
f 14/150/23 5/3/23 7/19/23

v 15.1362 4.43543 -57.048
vt -0.0297315 151.575
f 5/3/23 14/150/23 54/151/23

usemtl _7
vt -18.6264 0.911057
vn 1 1.3233e-014 0.00031484
vt -18.6264 0.171601
f 54/152/24 14/153/24 5/5/24

f 7/21/24 5/5/24 14/153/24

vt -4.93576 0.911057
f 5/154/4 7/16/4 6/15/4

vt -5.11858 0.787814
f 2/155/4 5/154/4 6/15/4

vt -5.11858 0.911057
f 3/156/4 5/154/4 2/155/4

vt 5.05628 12.4984
f 12/157/6 7/28/6 13/149/6

f 11/29/6 7/28/6 12/157/6

usemtl Color_C08
vn -1 -3.20839e-014 -0.00031484
v 15.4874 4.43543 -60.8479
vt -149.636 151.575
vt -149.636 9.84252
f 11/18/25 55/158/25 12/159/25

v 15.4872 4.43543 -60.3579
f 55/158/25 11/18/25 56/1/25

usemtl _7
vn 1 3.20839e-014 0.00031484
vt -19.867 0.911057
f 56/7/26 11/22/26 55/160/26

usemtl Color_C08
vt 108.213 9.84252
vn -0.00031484 3.20092e-015 1
vt 116.481 151.575
vt 108.213 151.575
f 11/161/27 1/162/27 56/163/27

vt 116.481 9.84252
f 1/162/27 11/161/27 9/164/27

usemtl _7
vt 5.11858 0.171601
vn 0.00031484 -3.20092e-015 -1
vt 5.05002 0.171601
vt 5.11858 0.911057
f 9/165/28 11/166/28 1/167/28

vt 5.12479 12.3977
f 9/168/6 8/30/6 11/29/6

vt 5.05002 0.911057
f 56/169/28 1/167/28 11/166/28

usemtl Color_C08
f 10/20/1 1/1/1 9/18/1

f 4/4/1 1/1/1 10/20/1

usemtl _7
vt -19.6056 0.787814
f 4/170/2 1/7/2 2/6/2

vt -19.6056 0.58241
f 10/171/2 1/7/2 4/170/2

f 9/22/2 1/7/2 10/171/2

f 10/171/2 6/23/2 9/22/2

vt -19.867 0.171601
f 12/172/26 55/160/26 11/22/26

usemtl Color_C08
vn -0.00031484 -1.1256e-014 1
vt 76.7172 9.84252
f 55/163/29 13/173/29 12/161/29

v 14.6874 4.43543 -60.8481
vt 76.7172 151.575
f 13/173/29 55/163/29 57/174/29

usemtl _7
vn 0.00031484 1.1256e-014 -1
vt 4.78884 0.171601
f 12/166/30 13/175/30 55/169/30

vt 4.78884 0.911057
f 57/176/30 55/169/30 13/175/30

usemtl _Tile_Ceramic_Natural_1
v 14.6874 4.43543 -60.9731
vt -150.044 10.914
vn -1 -4.92847e-014 -0.00031484
vt -149.736 2.05569
vt -149.736 10.914
f 58/177/31 13/178/31 57/179/31

v 14.6874 3.83543 -60.9731
vt -150.044 9.43758
f 13/178/31 58/177/31 59/180/31

usemtl _7
vn 1 4.92847e-014 0.00031484
vt -19.9078 0.911057
f 57/160/32 13/172/32 58/181/32

vt -19.9078 0.787814
f 59/182/32 58/181/32 13/172/32

usemtl Color_C08
vt -154.557 151.575
vn -1 -3.36959e-013 -0.00031484
v 14.688 3.83543 -62.8731
vt -229.36 127.953
vt -154.557 127.953
f 58/183/33 60/184/33 59/185/33

v 14.688 4.43543 -62.8731
vt -229.36 151.575
f 60/184/33 58/183/33 61/186/33

usemtl _7
vn 1 3.36959e-013 0.00031484
vt -20.5282 0.787814
f 59/182/34 60/187/34 58/181/34

vt -20.5282 0.911057
f 61/188/34 58/181/34 60/187/34

usemtl Color_C08
vn -1 -5.24465e-014 -0.00031484
v 14.688 0.835432 -62.8731
vt -229.36 9.84252
f 61/186/35 62/189/35 60/184/35

v 14.688 0.835432 -62.9181
vt -231.132 9.84252
f 62/189/35 61/186/35 63/190/35

usemtl _7
vn 1 5.24465e-014 0.00031484
vt -20.5282 0.171601
f 60/187/36 62/191/36 61/188/36

vt -20.5428 0.171601
f 63/192/36 61/188/36 62/191/36

usemtl Color_C08
v 14.688 4.43543 -62.9181
vt -231.132 151.575
f 63/190/35 61/186/35 64/193/35

usemtl _7
vt -20.5428 0.911057
f 64/194/36 61/188/36 63/192/36

usemtl Color_C08
v 12.968 4.43543 -62.9187
vt 9.00069 151.575
vn -0.00031484 -1.42355e-014 1
f 65/195/37 63/173/37 64/174/37

vt 9.00069 9.84252
f 53/196/37 63/173/37 65/195/37

vt 25.5361 9.84252
f 63/173/37 53/196/37 15/197/37

usemtl _7
vt 4.36442 0.171601
vn 0.00031484 1.42355e-014 -1
vt 4.2273 0.171601
f 15/198/38 53/199/38 63/175/38

vt 4.2273 0.911057
f 65/200/38 63/175/38 53/199/38

f 64/176/38 63/175/38 65/200/38

usemtl Color_C08
v 12.9679 4.43543 -62.6387
vn 1 4.53175e-014 0.00031484
vt 231.132 9.84252
vt 231.132 151.575
f 66/110/39 53/201/39 65/202/39

f 53/201/39 66/110/39 22/114/39

usemtl _7
vn -1 -4.53175e-014 -0.00031484
vt 20.5428 0.171601
f 22/117/40 66/112/40 53/203/40

usemtl Color_C08
vt 4.66998 151.575
vn -0.00031484 -7.7027e-018 1
f 48/204/41 22/196/41 66/195/41

f 22/196/41 48/204/41 35/120/41

usemtl _7
vn 0.00031484 7.7027e-018 -1
vt 4.19139 0.911057
f 35/122/42 48/205/42 22/199/42

f 48/112/12 35/117/12 49/113/12

f 66/200/42 22/199/42 48/205/42

vt 20.5428 0.911057
f 65/206/40 53/203/40 66/112/40

usemtl _Tile_Ceramic_Natural_7
v 14.6874 0.835432 -60.9731
vt 10.4462 43.3664
vt 10.4467 44.7497
f 15/34/5 67/207/5 63/208/5

f 67/207/5 15/34/5 13/32/5

usemtl _7
vt 4.79531 12.9236
vt 4.79511 12.5241
f 63/209/6 67/210/6 15/148/6

usemtl _Tile_Ceramic_Natural_7
vt 10.4467 44.7177
f 63/208/5 67/207/5 62/211/5

usemtl _7
vt 4.7953 12.9144
f 62/212/6 67/210/6 63/209/6

f 13/149/6 15/148/6 67/210/6

usemtl _Tile_Ceramic_Natural_1
vt -150.044 2.05569
f 67/213/31 13/178/31 59/180/31

usemtl _7
vt -19.9078 0.171601
f 59/182/32 13/172/32 67/214/32

vt 4.15221 0.171601
f 51/215/22 49/124/22 50/123/22

usemtl Color_C08
v 12.7379 2.93543 -62.4887
vt -0.0544245 92.5197
f 51/121/21 49/118/21 68/216/21

usemtl _7
vt 4.15221 0.60295
f 68/217/22 49/124/22 51/215/22

vt -4.36442 0.911057
f 19/218/10 20/54/10 16/53/10

g Mesh2 COM006 Model

l 8 6

l 9 8

l 9 1

l 9 11

l 12 11

l 12 55

l 12 13

l 67 13

l 67 59

l 67 62

l 62 60

l 63 62

l 63 64

l 15 63

l 15 53

l 53 65

l 22 53

l 22 66

l 22 35

l 36 35

l 36 49

l 36 50

l 50 51

l 51 68

l 51 52

l 52 37

l 37 40

l 38 37

l 38 39

l 43 38

l 42 43

l 44 42

l 46 44

l 34 38

l 33 34

l 32 33

l 31 32

l 30 31

l 29 30

l 28 29

l 27 28

l 26 27

l 25 26

l 24 25

l 23 24

l 16 21

l 16 19

l 17 16

l 17 18

l 14 17

l 14 54

l 14 7

l 7 8

l 7 5

l 5 3

l 5 54

l 2 3

l 4 2

l 10 4

l 6 10

l 6 2

l 3 1

l 56 1

l 11 56

l 56 55

l 57 55

l 13 57

l 57 58

l 59 58

l 60 59

l 60 61

l 61 64

l 61 58

l 65 64

l 66 65

l 48 66

l 35 48

l 48 39

l 41 39

l 45 41

l 47 45

l 18 19

l 20 19

l 21 20

l 49 40

l 68 49

v 14.688 0.585432 -62.8731
l 69 62

v 14.808 0.585432 -62.8731
l 69 70

v 14.808 0.835432 -62.8731
l 70 71

g Mesh3 Model

v 138.951 3.33 -157.425
v 138.951 3.3 -157.425
l 72 73

