# Alias OBJ Model File
# Exported from SketchUp, (c) 2000-2012 Trimble Navigation Limited
# File units = meters

mtllib CUA033.mtl

g Mesh1 Group1 CUA033 Model

usemtl Color_000
v 15.4776 3.03543 -139.662
vt -72.8346 1.9685
vn 2.04761e-016 -1 5.51626e-016
v 15.5273 3.03543 -138.812
vt -39.3701 0
v 15.4773 3.03543 -138.812
vt -39.3701 1.9685
f 1/1/1 2/2/1 3/3/1

v 15.5276 3.03543 -139.662
vt -72.8346 0
f 2/2/1 1/1/1 4/4/1

vn -2.04761e-016 1 -5.51626e-016
f 3/3/2 2/2/2 1/1/2

vt 0 61.0236
vn 0.00031484 -3.39234e-016 -1
v 15.4773 1.63543 -138.812
vt 1.9685 5.90551
vt 1.9685 61.0236
f 2/5/3 5/6/3 3/7/3

v 15.5273 1.63543 -138.812
vt 0 5.90551
f 5/6/3 2/5/3 6/8/3

vn -0.00031484 3.39234e-016 1
f 6/8/4 2/5/4 5/6/4

usemtl Translucent_Glass_Blue
vt -72.8346 61.0236
vn -1 -2.04934e-016 -0.00031484
vt -39.3701 5.90551
vt -39.3701 61.0236
f 4/9/5 6/10/5 2/11/5

v 15.5276 1.63543 -139.662
vt -72.8346 5.90551
f 6/10/5 4/9/5 7/12/5

vn 1 2.04934e-016 0.00031484
f 7/12/6 4/9/6 6/10/6

usemtl Color_000
vt -1.9685 61.0236
f 1/13/4 7/8/4 4/5/4

v 15.4776 1.63543 -139.662
vt -1.9685 5.90551
f 7/8/4 1/13/4 8/14/4

f 4/5/3 7/8/3 1/13/3

f 8/14/3 1/13/3 7/8/3

v 15.4776 3.08543 -139.712
vt -74.8031 62.9921
f 9/15/5 8/12/5 1/9/5

v 15.4776 1.58543 -139.712
vt -74.8031 3.93701
f 8/12/5 9/15/5 10/16/5

f 10/16/6 9/15/6 8/12/6

v 15.5276 1.58543 -139.712
vt 0 3.93701
vt -1.9685 62.9921
vt -1.9685 3.93701
f 11/17/4 9/18/4 10/19/4

v 15.5276 3.08543 -139.712
vt 0 62.9921
f 9/18/4 11/17/4 12/20/4

f 12/20/3 11/17/3 9/18/3

v 15.5277 3.58543 -139.812
vt -78.7402 82.6772
f 13/21/5 11/16/5 12/15/5

v 15.5277 1.48543 -139.812
vt -78.7402 0
f 14/22/5 11/16/5 13/21/5

v 15.5271 1.58543 -137.912
vt -3.93701 3.93701
f 11/16/5 14/22/5 15/23/5

f 13/21/6 11/16/6 14/22/6

f 12/15/6 11/16/6 13/21/6

v 15.5276 3.13543 -139.712
vt -74.8031 64.9606
f 13/21/5 12/15/5 16/24/5

f 16/24/6 12/15/6 13/21/6

v 15.5271 3.13543 -137.912
vt -3.93701 64.9606
f 16/24/5 12/15/5 17/25/5

f 17/25/6 12/15/6 16/24/6

v 15.5273 3.08543 -138.762
vt -37.4016 62.9921
f 18/26/5 17/25/5 12/15/5

v 15.5271 3.08543 -137.912
vt -3.93701 62.9921
f 19/27/5 17/25/5 18/26/5

v 15.527 3.58543 -137.812
vt 0 82.6772
f 19/27/5 20/28/5 17/25/5

f 15/23/5 20/28/5 19/27/5

v 15.527 1.48543 -137.812
vt 0 0
f 15/23/5 21/29/5 20/28/5

f 21/29/5 15/23/5 14/22/5

f 14/22/6 15/23/6 21/29/6

f 15/23/6 14/22/6 11/16/6

v 15.5273 1.58543 -138.762
vt -37.4016 3.93701
f 11/16/5 15/23/5 22/30/5

f 22/30/6 15/23/6 11/16/6

vt 37.4016 0
vn -2.04827e-016 1 -3.39299e-016
v 15.4771 1.58543 -137.912
vt 3.93701 1.9685
vt 3.93701 0
f 22/31/7 23/32/7 15/33/7

v 15.4773 1.58543 -138.762
vt 37.4016 1.9685
f 23/32/7 22/31/7 24/34/7

vn 2.04827e-016 -1 3.39299e-016
f 15/33/8 23/32/8 22/31/8

v 15.4771 3.08543 -137.912
f 15/17/4 25/18/4 23/19/4

f 25/18/4 15/17/4 19/20/4

f 19/20/3 15/17/3 25/18/3

f 19/27/6 20/28/6 15/23/6

f 17/25/6 20/28/6 19/27/6

v 15.5271 3.48543 -137.912
vt -3.93701 78.7402
f 17/25/5 20/28/5 26/35/5

f 26/35/6 20/28/6 17/25/6

v 15.5273 3.48543 -138.762
vt -37.4016 78.7402
f 26/35/5 20/28/5 27/36/5

f 27/36/6 20/28/6 26/35/6

v 15.5274 3.48543 -138.862
vt -41.3386 78.7402
f 27/36/5 20/28/5 28/37/5

f 28/37/6 20/28/6 27/36/6

v 15.5276 3.48543 -139.712
vt -74.8031 78.7402
f 28/37/5 20/28/5 29/38/5

f 29/38/6 20/28/6 28/37/6

f 13/21/5 29/38/5 20/28/5

f 13/21/5 16/24/5 29/38/5

f 29/38/6 16/24/6 13/21/6

usemtl Translucent_Glass_Blue
f 16/24/5 28/37/5 29/38/5

v 15.5274 3.13543 -138.862
vt -41.3386 64.9606
f 28/37/5 16/24/5 30/39/5

f 30/39/6 16/24/6 28/37/6

usemtl Color_000
vt 74.8031 0
v 15.4774 3.13543 -138.862
vt 41.3386 1.9685
vt 41.3386 0
f 16/40/7 31/41/7 30/42/7

v 15.4776 3.13543 -139.712
vt 74.8031 1.9685
f 31/41/7 16/40/7 32/43/7

f 30/42/8 31/41/8 16/40/8

vt 1.9685 64.9606
vt 0 78.7402
vt 0 64.9606
f 31/44/3 28/45/3 30/46/3

v 15.4774 3.48543 -138.862
vt 1.9685 78.7402
f 28/45/3 31/44/3 33/47/3

f 30/46/4 28/45/4 31/44/4

f 30/39/5 27/36/5 28/37/5

v 15.5273 3.13543 -138.762
vt -37.4016 64.9606
f 27/36/5 30/39/5 34/48/5

f 34/48/6 30/39/6 27/36/6

f 16/24/5 34/48/5 30/39/5

f 16/24/5 17/25/5 34/48/5

f 34/48/6 17/25/6 16/24/6

usemtl Translucent_Glass_Blue
f 26/35/5 34/48/5 17/25/5

f 34/48/5 26/35/5 27/36/5

f 17/25/6 34/48/6 26/35/6

usemtl Color_000
v 15.4771 3.13543 -137.912
f 34/31/7 35/32/7 17/33/7

v 15.4773 3.13543 -138.762
f 35/32/7 34/31/7 36/34/7

f 17/33/8 35/32/8 34/31/8

f 35/44/3 26/45/3 17/46/3

v 15.4771 3.48543 -137.912
f 26/45/3 35/44/3 37/47/3

f 17/46/4 26/45/4 35/44/4

f 37/47/4 35/44/4 26/45/4

v 15.477 3.58543 -137.812
f 35/25/5 38/28/5 37/35/5

f 25/27/5 38/28/5 35/25/5

f 23/23/5 38/28/5 25/27/5

v 15.477 1.48543 -137.812
f 23/23/5 39/29/5 38/28/5

v 15.4777 1.48543 -139.812
f 39/29/5 23/23/5 40/22/5

f 40/22/6 23/23/6 39/29/6

f 10/16/5 40/22/5 23/23/5

v 15.4777 3.58543 -139.812
f 40/22/5 10/16/5 41/21/5

f 41/21/6 10/16/6 40/22/6

f 41/21/5 10/16/5 9/15/5

f 9/15/6 10/16/6 41/21/6

f 10/19/3 9/18/3 11/17/3

f 24/34/7 11/40/7 10/43/7

f 11/40/7 24/34/7 22/31/7

f 22/31/8 24/34/8 11/40/8

v 15.4773 1.63543 -138.762
f 22/17/4 42/14/4 24/19/4

v 15.5273 1.63543 -138.762
f 42/14/4 22/17/4 43/8/4

f 43/8/3 22/17/3 42/14/3

vt -37.4016 5.90551
v 15.5271 1.63543 -137.962
vt -5.90551 5.90551
f 43/49/5 22/30/5 44/50/5

f 44/50/6 22/30/6 43/49/6

f 15/23/5 44/50/5 22/30/5

f 44/50/5 15/23/5 19/27/5

f 22/30/6 44/50/6 15/23/6

f 19/27/6 15/23/6 44/50/6

v 15.5271 3.03543 -137.962
vt -5.90551 61.0236
f 44/50/5 19/27/5 45/51/5

f 45/51/6 19/27/6 44/50/6

v 15.5273 3.03543 -138.762
vt -37.4016 61.0236
f 45/51/5 19/27/5 46/52/5

f 46/52/6 19/27/6 45/51/6

f 46/52/5 19/27/5 18/26/5

f 18/26/6 19/27/6 46/52/6

f 18/26/6 17/25/6 19/27/6

f 12/15/6 17/25/6 18/26/6

v 15.4773 3.08543 -138.762
f 12/40/7 47/34/7 18/31/7

f 47/34/7 12/40/7 9/43/7

f 18/31/8 47/34/8 12/40/8

v 15.4773 3.03543 -138.762
vt 1.9685 62.9921
f 18/20/3 48/7/3 47/53/3

f 48/7/3 18/20/3 46/5/3

f 46/5/4 18/20/4 48/7/4

f 47/53/4 48/7/4 18/20/4

f 3/11/5 48/52/5 47/26/5

f 5/10/5 48/52/5 3/11/5

f 5/10/5 42/49/5 48/52/5

f 8/12/5 42/49/5 5/10/5

f 10/16/5 42/49/5 8/12/5

f 42/49/5 10/16/5 24/30/5

f 24/30/6 10/16/6 42/49/6

f 10/43/8 11/40/8 24/34/8

f 10/16/5 23/23/5 24/30/5

f 23/23/6 40/22/6 10/16/6

f 24/30/6 23/23/6 10/16/6

f 24/34/8 22/31/8 23/32/8

f 24/19/3 42/14/3 22/17/3

v 15.4771 1.63543 -137.962
f 42/49/5 24/30/5 49/50/5

f 49/50/6 24/30/6 42/49/6

f 23/23/5 49/50/5 24/30/5

f 49/50/5 23/23/5 25/27/5

f 24/30/6 49/50/6 23/23/6

f 25/27/6 23/23/6 49/50/6

f 23/19/3 25/18/3 15/17/3

f 25/27/6 38/28/6 23/23/6

f 35/25/6 38/28/6 25/27/6

f 37/35/6 38/28/6 35/25/6

v 15.4773 3.48543 -138.762
f 37/35/5 38/28/5 50/36/5

f 50/36/6 38/28/6 37/35/6

f 50/36/5 38/28/5 33/37/5

f 33/37/6 38/28/6 50/36/6

v 15.4776 3.48543 -139.712
f 33/37/5 38/28/5 51/38/5

f 51/38/6 38/28/6 33/37/6

f 41/21/5 51/38/5 38/28/5

f 41/21/5 32/24/5 51/38/5

f 41/21/5 9/15/5 32/24/5

f 32/24/6 9/15/6 41/21/6

f 32/24/5 9/15/5 35/25/5

f 35/25/6 9/15/6 32/24/6

f 47/26/5 35/25/5 9/15/5

f 25/27/5 35/25/5 47/26/5

f 47/26/6 35/25/6 25/27/6

f 9/15/6 35/25/6 47/26/6

f 9/15/5 3/11/5 47/26/5

f 9/15/5 1/9/5 3/11/5

f 1/9/6 8/12/6 9/15/6

f 3/11/6 1/9/6 9/15/6

f 47/26/6 3/11/6 9/15/6

f 47/26/6 48/52/6 3/11/6

f 48/52/5 25/27/5 47/26/5

v 15.4771 3.03543 -137.962
f 52/51/5 25/27/5 48/52/5

f 49/50/5 25/27/5 52/51/5

f 52/51/6 25/27/6 49/50/6

f 48/52/6 25/27/6 52/51/6

f 47/26/6 25/27/6 48/52/6

vt -37.4016 1.9685
vt -3.93701 0
vt -3.93701 1.9685
f 47/54/8 19/55/8 25/56/8

vt -37.4016 0
f 19/55/8 47/54/8 18/57/8

f 25/56/7 19/55/7 47/54/7

f 18/57/7 47/54/7 19/55/7

vn 2.04898e-016 -1 1.13702e-016
vt -5.90551 0
vt -5.90551 1.9685
f 48/54/9 45/58/9 52/59/9

f 45/58/9 48/54/9 46/57/9

vn -2.04898e-016 1 -1.13702e-016
f 52/59/10 45/58/10 48/54/10

f 45/5/3 49/6/3 52/7/3

f 49/6/3 45/5/3 44/8/3

f 44/8/4 45/5/4 49/6/4

usemtl Translucent_Glass_Blue
f 45/51/5 43/49/5 44/50/5

f 43/49/5 45/51/5 46/52/5

f 44/50/6 43/49/6 45/51/6

usemtl Color_000
vn -2.04836e-016 1 -3.11099e-016
vt 5.90551 1.9685
vt 5.90551 0
f 43/31/11 49/60/11 44/61/11

f 49/60/11 43/31/11 42/34/11

vn 2.04836e-016 -1 3.11099e-016
f 44/61/12 49/60/12 43/31/12

f 42/34/12 43/31/12 49/60/12

f 43/8/4 48/13/4 42/14/4

f 48/13/4 43/8/4 46/5/4

f 46/5/3 43/8/3 48/13/3

usemtl Translucent_Glass_Blue
f 46/52/6 45/51/6 43/49/6

usemtl Color_000
f 46/57/10 48/54/10 45/58/10

f 42/14/3 48/13/3 43/8/3

f 48/52/6 42/49/6 5/10/6

f 5/10/6 42/49/6 8/12/6

f 8/12/6 42/49/6 10/16/6

vt 39.3701 1.9685
vn -2.04794e-016 1 -4.45462e-016
vt 72.8346 0
vt 72.8346 1.9685
f 5/62/13 7/63/13 8/64/13

vt 39.3701 0
f 7/63/13 5/62/13 6/65/13

vn 2.04794e-016 -1 4.45462e-016
f 6/65/14 5/62/14 7/63/14

f 8/64/14 7/63/14 5/62/14

f 3/11/6 48/52/6 5/10/6

f 3/7/4 5/6/4 2/5/4

f 52/7/4 49/6/4 45/5/4

f 9/43/8 12/40/8 47/34/8

f 32/24/5 35/25/5 36/48/5

f 36/48/6 35/25/6 32/24/6

f 36/34/8 34/31/8 35/32/8

vt -1.9685 78.7402
vt -1.9685 64.9606
f 34/46/4 50/66/4 36/67/4

f 50/66/4 34/46/4 27/45/4

f 27/45/3 34/46/3 50/66/3

usemtl Translucent_Glass_Blue
f 27/36/6 26/35/6 34/48/6

usemtl Color_000
f 26/55/8 50/54/8 27/57/8

f 50/54/8 26/55/8 37/56/8

f 37/56/7 26/55/7 50/54/7

f 27/57/7 50/54/7 26/55/7

f 36/67/3 50/66/3 34/46/3

f 50/36/5 31/39/5 36/48/5

f 31/39/5 50/36/5 33/37/5

f 36/48/6 31/39/6 50/36/6

f 32/24/5 36/48/5 31/39/5

f 31/39/6 36/48/6 32/24/6

f 32/43/8 16/40/8 31/41/8

f 16/46/4 51/66/4 32/67/4

f 51/66/4 16/46/4 29/45/4

f 29/45/3 16/46/3 51/66/3

usemtl Translucent_Glass_Blue
f 29/38/6 28/37/6 16/24/6

usemtl Color_000
vt -41.3386 0
vt -74.8031 1.9685
vt -74.8031 0
f 28/68/8 51/69/8 29/70/8

vt -41.3386 1.9685
f 51/69/8 28/68/8 33/71/8

f 33/71/7 28/68/7 51/69/7

f 33/47/4 31/44/4 28/45/4

f 33/37/6 50/36/6 31/39/6

f 29/70/7 51/69/7 28/68/7

f 32/67/3 51/66/3 16/46/3

f 51/38/6 32/24/6 41/21/6

f 38/28/6 51/38/6 41/21/6

vt 0 1.9685
vt 78.7402 0
vt 78.7402 1.9685
f 38/72/7 13/73/7 41/74/7

f 13/73/7 38/72/7 20/29/7

f 20/29/8 38/72/8 13/73/8

vt -1.9685 82.6772
f 38/75/4 21/29/4 20/28/4

vt -1.9685 0
f 21/29/4 38/75/4 39/76/4

f 20/28/3 21/29/3 38/75/3

f 20/28/6 21/29/6 15/23/6

f 39/76/3 38/75/3 21/29/3

f 38/28/6 39/29/6 23/23/6

vt -78.7402 1.9685
f 40/77/8 21/29/8 39/72/8

f 21/29/8 40/77/8 14/22/8

f 39/72/7 21/29/7 40/77/7

f 14/22/7 40/77/7 21/29/7

vt 1.9685 0
f 40/78/3 13/28/3 14/29/3

vt 1.9685 82.6772
f 13/28/3 40/78/3 41/79/3

f 14/29/4 13/28/4 40/78/4

f 41/79/4 40/78/4 13/28/4

f 41/74/8 13/73/8 38/72/8

f 20/28/6 29/38/6 13/21/6

f 30/39/6 34/48/6 16/24/6

f 28/37/6 27/36/6 30/39/6

f 4/4/2 1/1/2 2/2/2

usemtl Translucent_Glass_Blue
f 2/11/6 6/10/6 4/9/6

g Mesh2 Group1 CUA033 Model

l 2 4

l 2 3

l 2 6

l 6 5

l 7 6

l 4 7

l 4 1

l 3 1

l 3 5

l 8 5

l 1 8

l 7 8

g Mesh3 Group1 CUA033 Model

l 30 16

l 28 30

l 28 29

l 28 33

l 33 31

l 33 51

l 51 32

l 29 51

l 29 16

l 16 32

l 31 32

l 30 31

g Mesh4 Group1 CUA033 Model

l 43 44

l 43 46

l 43 42

l 22 43

l 11 22

l 11 10

l 12 11

l 12 18

l 12 9

l 9 47

l 9 10

l 10 24

l 24 42

l 22 24

l 22 15

l 15 19

l 15 23

l 23 25

l 24 23

l 19 25

l 18 19

l 18 47

l 46 18

l 45 46

l 45 52

l 44 45

l 44 49

l 42 49

l 42 48

l 48 47

l 52 48

l 49 52

l 46 48

l 47 25

g Mesh5 Group1 CUA033 Model

l 41 40

l 13 41

l 20 13

l 21 20

l 14 21

l 14 40

l 13 14

l 40 39

l 21 39

l 39 38

l 20 38

l 38 41

g Mesh6 Group1 CUA033 Model

l 26 27

l 17 26

l 17 34

l 17 35

l 35 36

l 35 37

l 26 37

l 37 50

l 27 50

l 27 34

l 34 36

l 50 36

g Mesh7 CUA033 Model

usemtl _Tile_Ceramic_Natural_1
v 7.5072 0.835432 -138.364
vt 340.468 2.05569
v 7.50689 4.43543 -137.395
vt 338.083 10.914
v 7.50689 0.835432 -137.395
vt 338.083 2.05569
f 53/80/6 54/81/6 55/82/6

v 7.5072 4.43543 -138.364
vt 340.468 10.914
f 54/81/6 53/80/6 56/83/6

usemtl _7
vt 44.857 0.171601
vt 44.857 0.911057
vt 45.1734 0.171601
f 55/84/5 54/85/5 53/86/5

usemtl _Tile_Ceramic_Natural_1
vt -18.3652 10.914
v 7.98689 0.835432 -137.394
vt -19.5463 2.05569
vt -18.3652 2.05569
f 54/87/3 57/88/3 55/89/3

v 7.98689 4.43543 -137.394
vt -19.5463 10.914
f 57/88/3 54/87/3 58/90/3

usemtl _7
vt -2.43671 0.171601
vt -2.59342 0.171601
vt -2.43671 0.911057
f 55/91/4 57/92/4 54/93/4

usemtl _Tile_Ceramic_Natural_7
vt 5.68058 97.7201
vn -1.08754e-014 1 1.90139e-014
vt 5.3394 98.4095
vt 5.33918 97.7202
f 57/94/15 53/95/15 55/96/15

v 8.01823 0.835432 -141.644
vt 5.70287 100.743
f 59/97/15 53/95/15 57/94/15

v 7.46823 0.835432 -141.645
vt 5.31169 100.743
f 60/98/15 53/95/15 59/97/15

v 6.58833 0.835432 -141.965
vt 4.68587 100.971
f 61/99/15 53/95/15 60/98/15

v 6.58823 0.835432 -141.645
vt 4.6858 100.743
f 62/100/15 53/95/15 61/99/15

v 6.5872 0.835432 -138.364
vt 4.68506 98.4097
f 53/95/15 62/100/15 63/101/15

usemtl _7
vt 2.15057 28.4206
vn 1.08754e-014 -1 -1.90139e-014
vt 2.15091 29.0945
vt 2.45093 28.4205
f 63/102/16 62/103/16 53/104/16

usemtl _Tile_Ceramic_Natural_1
vt 348.541 2.05569
vn 1 -4.93033e-015 0.00031484
v 6.5872 4.43543 -138.364
f 62/105/17 64/83/17 63/80/17

v 6.58833 4.43543 -141.965
vt 349.328 10.914
f 64/83/17 62/105/17 65/106/17

usemtl _7
vn -1 4.93033e-015 -0.00031484
vt 45.1734 0.911057
vt 46.2445 0.171601
f 63/86/18 64/107/18 62/108/18

usemtl _Tile_Ceramic_Natural_1
vt -16.1015 2.05569
vt -16.1015 10.914
f 56/87/3 63/109/3 64/110/3

f 63/109/3 56/87/3 53/89/3

usemtl _7
vt -2.13635 0.171601
f 53/91/4 56/93/4 63/111/4

f 56/107/5 53/86/5 54/85/5

vt -2.13635 0.911057
f 64/112/4 63/111/4 56/93/4

vt 46.349 0.911057
f 65/113/18 62/108/18 64/107/18

usemtl _Tile_Ceramic_Natural_1
vt 349.328 2.05569
f 65/106/17 62/105/17 61/114/17

usemtl _7
vt 46.349 0.171601
f 61/115/18 62/108/18 65/113/18

vt 2.15094 29.1602
f 61/116/16 53/104/16 62/103/16

vt 2.43821 29.0944
f 60/117/16 53/104/16 61/116/16

vt 2.61777 29.0944
f 59/118/16 53/104/16 60/117/16

vt 2.60754 28.2214
f 57/119/16 53/104/16 59/118/16

vt 2.45083 28.2214
f 55/120/16 53/104/16 57/119/16

usemtl _Tile_Ceramic_Natural_7
v 8.10674 0.835432 -136.904
vt 5.76582 97.3715
f 57/94/15 66/121/15 59/97/15

v 7.98674 0.835432 -136.904
vt 5.68047 97.3715
f 66/121/15 57/94/15 67/122/15

usemtl _7
vt 2.60749 28.1207
vt 2.64667 28.1207
f 67/123/16 57/119/16 66/124/16

usemtl _Tile_Ceramic_Natural_1
vt 336.877 2.05569
f 58/81/6 67/125/6 57/82/6

v 7.98674 4.43543 -136.904
vt 336.877 10.914
f 67/125/6 58/81/6 68/126/6

usemtl _7
vt 44.697 0.911057
vt 44.697 0.171601
f 68/127/5 58/85/5 67/128/5

f 57/84/5 67/128/5 58/85/5

vt -2.59342 0.911057
f 58/129/4 54/93/4 57/92/4

usemtl _Tile_Ceramic_Natural_1
v 8.10674 4.43543 -136.904
vt -19.8416 10.914
f 69/130/3 67/88/3 68/90/3

vt -19.8416 2.05569
f 67/88/3 69/130/3 66/131/3

usemtl _7
vt -2.63259 0.171601
vt -2.63259 0.911057
f 66/132/4 69/133/4 67/92/4

f 68/129/4 67/92/4 69/133/4

f 59/118/16 66/124/16 57/119/16

usemtl _Tile_Ceramic_Natural_7
v 8.01833 0.835432 -141.964
vt 5.70294 100.97
f 59/97/15 66/121/15 70/134/15

usemtl _7
vt 2.6178 29.1601
f 70/135/16 66/124/16 59/118/16

usemtl _Tile_Ceramic_Natural_7
v 15.1783 0.835432 -141.962
vt 10.7954 100.969
f 70/134/15 66/121/15 71/136/15

usemtl _7
vt 4.95538 29.1596
f 71/137/16 66/124/16 70/135/16

usemtl _Tile_Ceramic_Natural_7
v 9.50674 0.835432 -136.904
vt 6.76155 97.3712
f 71/136/15 66/121/15 72/138/15

usemtl _7
vt 3.10373 28.1206
f 72/139/16 66/124/16 71/137/16

usemtl _Tile_Ceramic_Natural_7
v 15.1782 0.835432 -141.642
vt 10.7953 100.741
f 71/136/15 72/138/15 73/140/15

usemtl _7
vt 4.95535 29.0939
f 73/141/16 72/139/16 71/137/16

usemtl _Tile_Ceramic_Natural_7
v 15.1767 0.835432 -136.902
vt 10.7943 97.3699
f 73/140/15 72/138/15 74/142/15

usemtl _7
vt 4.95486 28.1203
f 74/143/16 72/139/16 73/141/16

usemtl Color_C08
v 9.50674 4.43543 -136.904
vt -114.943 141.732
vt -338.171 1.33511e-011
vt -114.943 1.3273e-011
f 75/144/3 74/145/3 72/146/3

v 15.1767 4.43543 -136.902
vt -338.171 141.732
f 74/145/3 75/144/3 76/147/3

usemtl _7
vt -3.08966 0.171601
vt -4.94079 0.171601
vt -3.08966 0.911057
f 72/148/4 74/149/4 75/150/4

vt -4.94079 0.911057
f 76/151/4 75/150/4 74/149/4

usemtl Color_C08
v 15.1768 4.43543 -137.142
vt -9.55529 141.732
vt -0.10647 1.32818e-011
vt -0.10647 141.732
f 77/152/5 74/153/5 76/154/5

v 15.1768 0.835432 -137.142
vt -9.55529 1.32747e-011
f 74/153/5 77/152/5 78/155/5

usemtl _7
vt -44.697 0.911057
vt -44.697 0.171601
vt -44.7754 0.911057
f 76/156/6 74/157/6 77/158/6

vt -44.7754 0.171601
f 78/159/6 77/158/6 74/157/6

usemtl Color_C08
v 15.4768 0.835432 -137.142
vt -349.982 1.41501e-011
vt -338.171 1.33472e-011
f 77/147/3 79/160/3 78/161/3

v 15.4768 4.43543 -137.142
vt -349.982 141.732
f 79/160/3 77/147/3 80/162/3

usemtl _7
vt -5.03873 0.171601
f 78/149/4 79/163/4 77/151/4

usemtl _Tile_Ceramic_Natural_7
vt 11.0077 97.5406
vt 10.7943 97.5406
f 79/164/15 73/140/15 78/165/15

v 15.4782 0.835432 -141.642
vt 11.0087 100.741
f 73/140/15 79/164/15 81/166/15

usemtl _7
vt 4.95489 28.1696
vt 5.05283 28.1696
f 78/167/16 73/141/16 79/168/16

usemtl _Tile_Ceramic_Natural_7
f 73/140/15 74/142/15 78/165/15

usemtl _7
f 78/167/16 74/143/16 73/141/16

vt 5.05329 29.0939
f 81/169/16 79/168/16 73/141/16

usemtl Color_C08
vt -9.55529 1.57028e-011
vn -1 4.44566e-015 -0.00031484
v 15.477 1.48543 -137.812
vt -35.9332 25.5906
vt -186.721 1.48146e-011
f 79/170/19 82/171/19 81/172/19

v 15.477 3.58543 -137.812
vt -35.9332 108.268
f 82/171/19 79/170/19 83/173/19

usemtl _7
vt -46.2445 0.171601
vn 1 -4.44566e-015 0.00031484
vt -44.9941 0.305114
f 81/174/20 82/175/20 79/159/20

usemtl Color_C08
v 15.477 1.48543 -137.852
vt -37.508 25.5906
f 81/172/19 82/171/19 84/176/19

usemtl _7
vt -45.0072 0.305114
f 84/177/20 82/175/20 81/174/20

usemtl Color_C08
v 15.4776 1.48543 -139.772
vt -113.099 25.5906
f 81/172/19 84/176/19 85/178/19

usemtl _7
vt -45.634 0.305114
f 85/179/20 84/177/20 81/174/20

usemtl Color_C08
v 15.4777 1.48543 -139.812
vt -114.673 25.5906
f 81/172/19 85/178/19 86/180/19

usemtl _7
vt -45.647 0.305114
f 86/181/20 85/179/20 81/174/20

usemtl Color_C08
v 15.4782 4.43543 -141.642
vt -186.721 141.732
f 81/172/19 86/180/19 87/182/19

usemtl _7
vt -46.2445 0.911057
f 87/183/20 86/181/20 81/174/20

usemtl Color_C08
v 15.4777 3.58543 -139.812
vt -114.673 108.268
f 88/184/19 87/182/19 86/180/19

f 83/173/19 87/182/19 88/184/19

f 83/173/19 80/152/19 87/182/19

f 80/152/19 83/173/19 79/170/19

usemtl _7
vt -44.9941 0.736463
f 79/159/20 83/185/20 80/158/20

f 83/185/20 79/159/20 82/175/20

f 87/183/20 80/158/20 83/185/20

vt -45.647 0.736463
f 88/186/20 87/183/20 83/185/20

f 86/181/20 87/183/20 88/186/20

vt -5.03873 0.911057
f 80/187/4 77/151/4 79/163/4

usemtl Color_C08
vt 349.982 141.732
vt 338.171 1.33221e-011
vt 349.982 1.33221e-011
f 87/188/4 73/189/4 81/190/4

v 15.1782 4.43543 -141.642
vt 338.171 141.732
f 73/189/4 87/188/4 89/191/4

usemtl _7
vt 5.03873 0.171601
vt 4.94079 0.171601
vt 5.03873 0.911057
f 81/192/3 73/193/3 87/194/3

vt 4.94079 0.911057
f 89/195/3 87/194/3 73/193/3

usemtl Color_C08
v 15.1783 4.43543 -141.962
vt -199.319 141.732
vt -186.721 1.31894e-011
f 90/196/5 73/197/5 89/182/5

vt -199.319 1.31894e-011
f 73/197/5 90/196/5 71/198/5

usemtl _7
vt -46.349 0.911057
f 89/183/6 73/174/6 90/199/6

vt -46.349 0.171601
f 71/200/6 90/199/6 73/174/6

usemtl Color_C08
vt 56.2811 1.40866e-011
vt 338.171 1.33263e-011
f 90/191/4 70/201/4 71/202/4

v 8.01833 4.43543 -141.964
vt 56.2811 141.732
f 70/201/4 90/191/4 91/203/4

usemtl _7
vt 2.60321 0.171601
f 71/193/3 70/204/3 90/195/3

vt 2.60321 0.911057
f 91/205/3 90/195/3 70/204/3

usemtl _Tile_Ceramic_Natural_1
v 8.01823 4.43543 -141.644
vt 348.541 10.914
f 92/206/6 70/114/6 91/106/6

f 70/114/6 92/206/6 59/105/6

usemtl _7
vt 46.2445 0.911057
f 59/108/5 92/207/5 70/115/5

usemtl _Tile_Ceramic_Natural_1
v 7.46823 4.43543 -141.645
vt 18.2668 10.914
vt 19.6202 2.05569
vt 19.6202 10.914
f 93/208/4 59/209/4 92/210/4

vt 18.2668 2.05569
f 59/209/4 93/208/4 60/211/4

usemtl _7
vt 2.42365 0.171601
vt 2.42365 0.911057
f 60/212/3 93/213/3 59/204/3

usemtl _Tile_Ceramic_Natural_1
v 7.46833 4.43543 -141.965
vt -349.328 10.914
vt -348.541 2.05569
vt -348.541 10.914
f 94/214/5 60/215/5 93/216/5

v 7.46833 0.835432 -141.965
vt -349.328 2.05569
f 60/215/5 94/214/5 95/217/5

usemtl _7
f 93/183/6 60/174/6 94/199/6

f 95/200/6 94/199/6 60/174/6

usemtl _Tile_Ceramic_Natural_1
vt 16.1015 10.914
f 65/218/4 95/211/4 94/208/4

vt 16.1015 2.05569
f 95/211/4 65/218/4 61/219/4

usemtl _7
vt 2.13635 0.171601
vt 2.13635 0.911057
f 61/220/3 65/221/3 95/212/3

f 94/213/3 95/212/3 65/221/3

usemtl _Tile_Ceramic_Natural_7
vt 5.31176 100.971
f 95/222/15 61/99/15 60/98/15

usemtl _7
vt 2.43824 29.1601
f 60/117/16 61/116/16 95/223/16

f 92/205/3 59/204/3 93/213/3

f 91/113/5 70/115/5 92/207/5

g Mesh8 CUA033 Model

l 63 64

l 53 63

l 53 56

l 55 53

l 55 54

l 57 55

l 57 58

l 57 67

l 67 66

l 67 68

l 68 69

l 68 58

l 58 54

l 54 56

l 64 56

l 64 65

l 61 65

l 61 95

l 62 61

l 62 63

l 95 94

l 60 95

l 60 93

l 60 59

l 59 92

l 70 59

l 70 91

l 70 71

l 71 90

l 71 73

l 73 89

l 73 81

l 81 87

l 81 79

l 79 80

l 78 79

l 78 77

l 78 74

l 74 76

l 72 74

l 72 75

l 66 72

l 66 69

l 75 76

l 77 76

l 77 80

l 80 87

l 89 87

l 90 89

l 91 90

l 91 92

l 92 93

l 93 94

l 94 65

g Mesh9 CUA033 Model

l 86 85

l 86 88

l 88 83

l 82 83

l 84 82

l 85 84

g Mesh10 Model

v 138.951 3.33 -157.425
v 138.951 3.3 -157.425
l 96 97

