# Alias OBJ Model File
# Exported from SketchUp, (c) 2000-2012 Trimble Navigation Limited
# File units = meters

mtllib CUA032.mtl

g Mesh1 Group1 CUA032 Model

usemtl _7
v 1.64809 2.53543 -141.207
vt -0.0163239 0.195134
vn -0.00031484 3.39234e-016 1
v 1.69809 2.08543 -141.207
vt 0 0.102702
v 1.69809 2.53543 -141.207
vt 0 0.195134
f 1/1/1 2/2/1 3/3/1

v 1.64809 2.08543 -141.207
vt -0.0163239 0.102702
f 2/2/1 1/1/1 4/4/1

vn 0.00031484 -3.39234e-016 -1
f 3/3/2 2/2/2 1/1/2

usemtl Translucent_Glass_Blue
vt -37.4016 37.4016
vn -1 -2.04934e-016 -0.00031484
vt -37.4016 19.685
v 1.69781 2.53543 -140.307
vt -1.9685 37.4016
f 3/5/3 2/6/3 5/7/3

vn 1 2.04934e-016 0.00031484
f 5/7/4 2/6/4 3/5/4

v 1.69781 1.63543 -140.307
vt -1.9685 1.9685
f 5/7/3 2/6/3 6/8/3

f 6/8/4 2/6/4 5/7/4

v 1.69809 1.63543 -141.207
vt -37.4016 1.9685
f 2/6/3 7/9/3 6/8/3

usemtl _7
v 1.64809 1.63543 -141.207
vt 0.0163239 0.0102702
vt 0 0.0102702
f 8/10/2 2/2/2 7/11/2

vt 0.0163239 0.102702
f 2/2/2 8/10/2 4/12/2

f 7/11/1 2/2/1 8/10/1

usemtl Translucent_Glass_Blue
f 6/8/4 7/9/4 2/6/4

usemtl _7
vt -0.310153 0.0102702
v 1.69811 1.58543 -141.257
vt -0.326477 0
vt -0.0163239 0.0102702
f 7/13/3 9/14/3 6/15/3

v 1.69811 2.58543 -141.257
vt -0.326477 0.205404
f 9/14/3 7/13/3 10/16/3

f 10/16/4 7/13/4 9/14/4

vt -0.310153 0.102702
f 10/16/3 7/13/3 2/17/3

f 2/17/4 7/13/4 10/16/4

vt -0.310153 0.195134
f 10/16/3 2/17/3 3/18/3

f 3/18/4 2/17/4 10/16/4

v 1.69779 2.58543 -140.257
vt 0 0.205404
f 10/16/3 3/18/3 11/19/3

f 11/19/4 3/18/4 10/16/4

f 5/1/3 11/19/3 3/18/3

f 6/15/3 11/19/3 5/1/3

v 1.69779 1.58543 -140.257
vt 0 0
f 6/15/3 12/20/3 11/19/3

f 12/20/3 6/15/3 9/14/3

f 9/14/4 6/15/4 12/20/4

f 6/15/4 9/14/4 7/13/4

vt -0.0163239 0
vn 2.04827e-016 -1 3.39299e-016
vt -0.310153 0
f 6/21/5 8/13/5 7/22/5

v 1.64781 1.63543 -140.307
f 8/13/5 6/21/5 13/15/5

vn -2.04827e-016 1 -3.39299e-016
f 13/15/6 6/21/6 8/13/6

v 1.64781 2.53543 -140.307
f 6/11/1 14/1/1 13/15/1

f 14/1/1 6/11/1 5/3/1

f 5/3/2 6/11/2 14/1/2

f 5/1/4 11/19/4 6/15/4

f 3/18/4 11/19/4 5/1/4

vt 0.310153 0
vt 0.0163239 0
f 3/23/6 14/10/6 5/24/6

vt 0.310153 0.0102702
f 14/10/6 3/23/6 1/25/6

f 5/24/5 14/10/5 3/23/5

f 1/25/5 3/23/5 14/10/5

usemtl Translucent_Glass_Blue
f 4/6/3 14/7/3 1/5/3

f 8/9/3 14/7/3 4/6/3

f 14/7/3 8/9/3 13/8/3

f 13/8/4 8/9/4 14/7/4

usemtl _7
v 1.64811 1.58543 -141.257
f 8/13/3 15/14/3 13/15/3

v 1.64811 2.58543 -141.257
f 15/14/3 8/13/3 16/16/3

f 16/16/4 8/13/4 15/14/4

f 16/16/3 8/13/3 4/17/3

f 4/17/4 8/13/4 16/16/4

usemtl Translucent_Glass_Blue
f 4/6/4 14/7/4 8/9/4

f 1/5/4 14/7/4 4/6/4

usemtl _7
v 1.64779 2.58543 -140.257
f 14/1/3 17/19/3 1/18/3

f 13/15/3 17/19/3 14/1/3

v 1.64779 1.58543 -140.257
f 13/15/3 18/20/3 17/19/3

f 18/20/3 13/15/3 15/14/3

f 15/14/4 13/15/4 18/20/4

f 13/15/4 15/14/4 8/13/4

f 17/19/4 18/20/4 13/15/4

vt -0.0163239 0.205404
f 12/20/1 17/26/1 18/21/1

f 17/26/1 12/20/1 11/19/1

f 11/19/2 12/20/2 17/26/2

f 11/19/4 12/20/4 6/15/4

f 18/21/2 17/26/2 12/20/2

vt -0.326477 0.0102702
f 15/27/5 12/20/5 18/11/5

f 12/20/5 15/27/5 9/14/5

f 18/11/6 12/20/6 15/27/6

f 9/14/6 15/27/6 12/20/6

f 15/24/2 10/19/2 9/20/2

vt 0.0163239 0.205404
f 10/19/2 15/24/2 16/28/2

f 9/20/1 10/19/1 15/24/1

f 16/28/1 15/24/1 10/19/1

vt 0.326477 0
vt 0.326477 0.0102702
f 17/11/6 10/29/6 16/30/6

f 10/29/6 17/11/6 11/20/6

f 11/20/5 17/11/5 10/29/5

f 16/30/5 10/29/5 17/11/5

f 16/16/3 1/18/3 17/19/3

f 16/16/3 4/17/3 1/18/3

f 1/18/4 4/17/4 16/16/4

f 4/4/2 1/1/2 2/2/2

f 4/12/1 8/10/1 2/2/1

f 17/19/4 1/18/4 16/16/4

f 1/18/4 17/19/4 14/1/4

f 14/1/4 17/19/4 13/15/4

f 13/15/2 14/1/2 6/11/2

f 7/22/6 8/13/6 6/21/6

g Mesh2 Group1 CUA032 Model

l 6 5

l 7 6

l 2 7

l 3 2

l 3 1

l 5 3

l 5 2

l 5 14

l 14 1

l 13 14

l 6 13

l 6 2

l 2 4

l 1 4

l 4 8

l 8 13

l 7 8

g Mesh3 Group1 CUA032 Model

l 12 11

l 12 18

l 9 12

l 9 15

l 10 9

l 10 16

l 11 10

l 11 17

l 18 17

l 15 18

l 16 15

l 17 16

g Mesh4 Group2 CUA032 Model

v 1.64762 2.53543 -139.707
v 1.69762 2.08543 -139.707
v 1.69762 2.53543 -139.707
f 19/1/1 20/2/1 21/3/1

v 1.64762 2.08543 -139.707
f 20/2/1 19/1/1 22/4/1

f 21/3/2 20/2/2 19/1/2

usemtl Translucent_Glass_Blue
v 1.69734 2.53543 -138.807
f 21/5/3 20/6/3 23/7/3

f 23/7/4 20/6/4 21/5/4

v 1.69734 1.63543 -138.807
f 23/7/3 20/6/3 24/8/3

f 24/8/4 20/6/4 23/7/4

v 1.69762 1.63543 -139.707
f 20/6/3 25/9/3 24/8/3

usemtl _7
v 1.64762 1.63543 -139.707
f 26/10/2 20/2/2 25/11/2

f 20/2/2 26/10/2 22/12/2

f 25/11/1 20/2/1 26/10/1

usemtl Translucent_Glass_Blue
f 24/8/4 25/9/4 20/6/4

usemtl _7
v 1.69764 1.58543 -139.757
f 25/13/3 27/14/3 24/15/3

v 1.69764 2.58543 -139.757
f 27/14/3 25/13/3 28/16/3

f 28/16/4 25/13/4 27/14/4

f 28/16/3 25/13/3 20/17/3

f 20/17/4 25/13/4 28/16/4

f 28/16/3 20/17/3 21/18/3

f 21/18/4 20/17/4 28/16/4

v 1.69732 2.58543 -138.757
f 28/16/3 21/18/3 29/19/3

f 29/19/4 21/18/4 28/16/4

f 23/1/3 29/19/3 21/18/3

f 24/15/3 29/19/3 23/1/3

v 1.69732 1.58543 -138.757
f 24/15/3 30/20/3 29/19/3

f 30/20/3 24/15/3 27/14/3

f 27/14/4 24/15/4 30/20/4

f 24/15/4 27/14/4 25/13/4

f 24/21/5 26/13/5 25/22/5

v 1.64734 1.63543 -138.807
f 26/13/5 24/21/5 31/15/5

f 31/15/6 24/21/6 26/13/6

v 1.64734 2.53543 -138.807
f 24/11/1 32/1/1 31/15/1

f 32/1/1 24/11/1 23/3/1

f 23/3/2 24/11/2 32/1/2

f 23/1/4 29/19/4 24/15/4

f 21/18/4 29/19/4 23/1/4

f 21/23/6 32/10/6 23/24/6

f 32/10/6 21/23/6 19/25/6

f 23/24/5 32/10/5 21/23/5

f 19/25/5 21/23/5 32/10/5

usemtl Translucent_Glass_Blue
f 22/6/3 32/7/3 19/5/3

f 26/9/3 32/7/3 22/6/3

f 32/7/3 26/9/3 31/8/3

f 31/8/4 26/9/4 32/7/4

usemtl _7
v 1.64764 1.58543 -139.757
f 26/13/3 33/14/3 31/15/3

v 1.64764 2.58543 -139.757
f 33/14/3 26/13/3 34/16/3

f 34/16/4 26/13/4 33/14/4

f 34/16/3 26/13/3 22/17/3

f 22/17/4 26/13/4 34/16/4

usemtl Translucent_Glass_Blue
f 22/6/4 32/7/4 26/9/4

f 19/5/4 32/7/4 22/6/4

usemtl _7
v 1.64732 2.58543 -138.757
f 32/1/3 35/19/3 19/18/3

f 31/15/3 35/19/3 32/1/3

v 1.64732 1.58543 -138.757
f 31/15/3 36/20/3 35/19/3

f 36/20/3 31/15/3 33/14/3

f 33/14/4 31/15/4 36/20/4

f 31/15/4 33/14/4 26/13/4

f 35/19/4 36/20/4 31/15/4

f 30/20/1 35/26/1 36/21/1

f 35/26/1 30/20/1 29/19/1

f 29/19/2 30/20/2 35/26/2

f 29/19/4 30/20/4 24/15/4

f 36/21/2 35/26/2 30/20/2

f 33/27/5 30/20/5 36/11/5

f 30/20/5 33/27/5 27/14/5

f 36/11/6 30/20/6 33/27/6

f 27/14/6 33/27/6 30/20/6

f 33/24/2 28/19/2 27/20/2

f 28/19/2 33/24/2 34/28/2

f 27/20/1 28/19/1 33/24/1

f 34/28/1 33/24/1 28/19/1

f 35/11/6 28/29/6 34/30/6

f 28/29/6 35/11/6 29/20/6

f 29/20/5 35/11/5 28/29/5

f 34/30/5 28/29/5 35/11/5

f 34/16/3 19/18/3 35/19/3

f 34/16/3 22/17/3 19/18/3

f 19/18/4 22/17/4 34/16/4

f 22/4/2 19/1/2 20/2/2

f 22/12/1 26/10/1 20/2/1

f 35/19/4 19/18/4 34/16/4

f 19/18/4 35/19/4 32/1/4

f 32/1/4 35/19/4 31/15/4

f 31/15/2 32/1/2 24/11/2

f 25/22/6 26/13/6 24/21/6

g Mesh5 Group2 CUA032 Model

l 24 23

l 25 24

l 20 25

l 21 20

l 21 19

l 23 21

l 23 20

l 23 32

l 32 19

l 31 32

l 24 31

l 24 20

l 20 22

l 19 22

l 22 26

l 26 31

l 25 26

g Mesh6 Group2 CUA032 Model

l 30 29

l 30 36

l 27 30

l 27 33

l 28 27

l 28 34

l 29 28

l 29 35

l 36 35

l 33 36

l 34 33

l 35 34

g Mesh7 CUA032 Model

usemtl _Tile_Ceramic_Natural_1
v 6.46833 0.835432 -141.965
vt 15.8062 2.05569
v 2.00833 4.43543 -141.966
vt 4.83178 10.914
v 2.00833 0.835432 -141.966
vt 4.83178 2.05569
f 37/31/1 38/32/1 39/33/1

v 6.46833 4.43543 -141.965
vt 15.8062 10.914
f 38/32/1 37/31/1 40/34/1

usemtl _7
vt 0.641083 0.171601
vt 0.641083 0.911057
vt 2.09717 0.171601
f 39/35/2 38/36/2 37/37/2

usemtl _Tile_Ceramic_Natural_1
v 2.00824 4.43543 -141.666
vt 348.59 10.914
vt 349.328 2.05569
vt 349.328 10.914
f 41/38/4 39/39/4 38/40/4

v 2.00824 0.835432 -141.666
vt 348.59 2.05569
f 39/39/4 41/38/4 42/41/4

usemtl _7
vt 46.251 0.171601
vt 46.251 0.911057
vt 46.349 0.171601
f 42/42/3 41/43/3 39/44/3

usemtl _Tile_Ceramic_Natural_1
v 1.69824 4.43543 -141.666
vt 4.06899 10.914
f 43/45/1 42/33/1 41/32/1

v 2.00824 0.585432 -141.666
vt 4.83178 1.44053
f 43/45/1 44/46/1 42/33/1

v 1.69824 0.585432 -141.666
vt 4.06899 1.44053
f 44/46/1 43/45/1 45/47/1

usemtl _7
vt 0.539875 0.12025
vt 0.539875 0.911057
vt 0.641083 0.12025
f 45/48/2 43/49/2 44/50/2

usemtl _Tile_Ceramic_Natural_1
v 1.69823 0.835432 -141.646
vt 348.541 2.05569
vn 1 3.97677e-014 0.00031484
vt 348.59 1.44053
f 46/51/7 45/52/7 43/38/7

v 1.69823 0.585432 -141.646
vt 348.541 1.44053
f 45/52/7 46/51/7 47/53/7

usemtl _7
vt 46.2445 0.12025
vn -1 -3.97677e-014 -0.00031484
vt 46.2445 0.171601
vt 46.251 0.12025
f 47/54/8 46/55/8 45/56/8

f 43/43/8 45/56/8 46/55/8

usemtl _Tile_Ceramic_Natural_1
v 1.69811 2.58543 -141.257
vt 347.583 6.36179
f 43/38/7 48/57/7 46/51/7

v 1.69779 2.58543 -140.257
vt 345.122 6.36179
f 43/38/7 49/58/7 48/57/7

v 1.69764 2.58543 -139.757
vt 343.892 6.36179
f 43/38/7 50/59/7 49/58/7

v 1.69732 2.58543 -138.757
vt 341.431 6.36179
f 43/38/7 51/60/7 50/59/7

v 1.69681 4.43543 -137.127
vt 337.421 10.914
f 52/61/7 51/60/7 43/38/7

v 1.69681 0.835432 -137.127
vt 337.421 2.05569
f 51/60/7 52/61/7 53/62/7

usemtl _7
vt 45.3013 0.531059
vt 44.7691 0.911057
f 43/43/8 51/63/8 52/64/8

vt 45.6277 0.531059
f 50/65/8 51/63/8 43/43/8

vt 45.791 0.531059
f 49/66/8 50/65/8 43/43/8

usemtl _Tile_Ceramic_Natural_1
v 1.69779 1.58543 -140.257
vt 345.122 3.90116
f 49/58/7 50/59/7 54/67/7

usemtl _7
vt 45.791 0.325655
f 54/68/8 50/65/8 49/66/8

usemtl _Tile_Ceramic_Natural_1
v 1.69764 1.58543 -139.757
vt 343.892 3.90116
f 55/69/7 54/67/7 50/59/7

f 55/69/7 46/51/7 54/67/7

v 1.69762 1.58543 -139.717
vt 343.794 3.90116
f 56/70/7 46/51/7 55/69/7

v 1.69734 1.58543 -138.797
vt 341.53 3.90116
f 57/71/7 46/51/7 56/70/7

v 1.69732 1.58543 -138.757
vt 341.431 3.90116
f 58/72/7 46/51/7 57/71/7

f 46/51/7 58/72/7 53/62/7

usemtl _7
vt 44.7691 0.171601
vt 45.3013 0.325655
f 53/73/8 58/74/8 46/55/8

usemtl _Tile_Ceramic_Natural_1
f 51/60/7 53/62/7 58/72/7

usemtl _7
f 53/73/8 52/64/8 51/63/8

usemtl _Tile_Ceramic_Natural_1
vt -4.06899 10.914
v 2.00681 0.835432 -137.127
vt -4.83178 2.05569
vt -4.06899 2.05569
f 52/75/2 59/76/2 53/77/2

v 2.00681 4.43543 -137.127
vt -4.83178 10.914
f 59/76/2 52/75/2 60/78/2

usemtl _7
vt -0.539875 0.171601
vt -0.641083 0.171601
vt -0.539875 0.911057
f 53/79/1 59/80/1 52/81/1

usemtl _Tile_Ceramic_Natural_7
vt 1.42732 97.5299
vn 5.36732e-015 1 9.69081e-015
vt 1.20785 100.744
vt 1.20683 97.53
f 59/82/9 46/83/9 53/84/9

v 2.00823 0.835432 -141.646
vt 1.42833 100.744
f 46/83/9 59/82/9 61/85/9

usemtl _7
vt 0.55397 28.1665
vn -5.36732e-015 -1 -9.69081e-015
vt 0.554434 29.0948
vt 0.655178 28.1665
f 53/86/10 46/87/10 59/88/10

vt 0.655642 29.0947
f 61/89/10 59/88/10 46/87/10

usemtl _Tile_Ceramic_Natural_7
v 6.33674 0.835432 -136.905
vt 4.50693 97.3719
f 59/82/9 62/90/9 61/85/9

v 2.00674 0.835432 -136.906
vt 1.42727 97.3729
f 62/90/9 59/82/9 63/91/9

usemtl _7
vt 0.655155 28.1211
vt 2.0688 28.1209
f 63/92/10 59/88/10 62/93/10

usemtl _Tile_Ceramic_Natural_1
vn 1 -4.39119e-014 0.00031484
v 2.00674 4.43543 -136.906
vt 336.877 10.914
vt 336.877 2.05569
f 59/62/11 64/94/11 63/95/11

f 64/94/11 59/62/11 60/61/11

usemtl _7
vt 44.697 0.171601
vn -1 4.39119e-014 -0.00031484
vt 44.697 0.911057
f 63/96/12 64/97/12 59/73/12

usemtl _Tile_Ceramic_Natural_1
vn 0.00031484 6.07776e-015 -1
vt -15.4863 2.05569
f 64/78/13 62/98/13 63/76/13

v 6.33674 4.43543 -136.905
vt -15.4863 10.914
f 62/98/13 64/78/13 65/99/13

usemtl _7
vn -0.00031484 -6.07776e-015 1
vt -2.05473 0.171601
vt -0.641083 0.911057
f 63/80/14 62/100/14 64/101/14

vt -2.05473 0.911057
f 65/102/14 64/101/14 62/100/14

f 60/64/12 59/73/12 64/97/12

f 60/101/1 52/81/1 59/80/1

f 61/89/10 62/93/10 59/88/10

usemtl _Tile_Ceramic_Natural_7
vt 1.42833 100.758
f 61/85/9 62/90/9 42/103/9

usemtl _7
vt 0.655644 29.0989
f 42/104/10 62/93/10 61/89/10

usemtl _Tile_Ceramic_Natural_7
vt 1.4284 100.972
f 42/103/9 62/90/9 39/105/9

usemtl _7
vt 0.655675 29.1605
f 39/106/10 62/93/10 42/104/10

usemtl _Tile_Ceramic_Natural_7
vt 4.60052 100.971
f 39/105/9 62/90/9 37/107/9

usemtl _7
vt 2.11176 29.1602
f 37/108/10 62/93/10 39/106/10

usemtl _Tile_Ceramic_Natural_7
v 6.46823 0.835432 -141.645
vt 4.60045 100.743
f 37/107/9 62/90/9 66/109/9

usemtl _7
vt 2.11173 29.0945
f 66/110/10 62/93/10 37/108/10

usemtl _Tile_Ceramic_Natural_7
v 6.46716 0.835432 -138.244
vt 4.59969 98.3244
f 66/109/9 62/90/9 67/111/9

usemtl _7
vt 2.11138 28.3959
f 67/112/10 62/93/10 66/110/10

usemtl _Tile_Ceramic_Natural_7
v 7.28674 0.835432 -136.905
vt 5.1826 97.3717
f 68/113/9 67/111/9 62/90/9

v 6.58716 0.835432 -138.244
vt 4.68504 98.3243
f 67/111/9 68/113/9 69/114/9

usemtl _7
vt 2.37896 28.1208
f 62/93/10 67/112/10 68/115/10

vt 2.15056 28.3959
f 69/116/10 68/115/10 67/112/10

usemtl _Tile_Ceramic_Natural_7
v 7.38716 0.835432 -138.244
vt 5.25403 98.3241
f 69/114/9 68/113/9 70/117/9

usemtl _7
vt 2.41174 28.3959
f 70/118/10 68/115/10 69/116/10

usemtl _Tile_Ceramic_Natural_7
v 7.38672 0.835432 -136.856
vt 5.25372 97.337
f 70/117/9 68/113/9 71/119/9

usemtl _7
vt 2.4116 28.1108
f 71/120/10 68/115/10 70/118/10

usemtl _Tile_Ceramic_Natural_7
v 7.3867 0.835432 -136.785
vt 5.2537 97.2863
f 71/119/9 68/113/9 72/121/9

usemtl _7
vt 2.41159 28.0961
f 72/122/10 68/115/10 71/120/10

usemtl _Tile_Ceramic_Natural_7
v 7.28672 0.835432 -136.855
vt 5.18259 97.3361
f 73/123/9 72/121/9 68/113/9

v 7.2867 0.835432 -136.785
vt 5.18258 97.2864
f 72/121/9 73/123/9 74/124/9

usemtl _7
vt 2.37894 28.0961
vt 2.37895 28.1105
f 74/125/10 73/126/10 72/122/10

f 68/115/10 72/122/10 73/126/10

usemtl _Tile_Ceramic_Natural_7
v 7.38674 0.835432 -136.905
vt 5.25373 97.3717
f 70/117/9 71/119/9 75/127/9

usemtl _7
vt 2.4116 28.1208
f 75/128/10 71/120/10 70/118/10

usemtl _Tile_Ceramic_Natural_1
vt -336.877 2.05569
vn -1 1.39931e-015 -0.00031484
v 7.38716 4.43543 -138.244
vt -340.172 10.914
vt -340.172 2.05569
f 75/129/15 76/130/15 70/131/15

v 7.38674 4.43543 -136.905
vt -336.877 10.914
f 76/130/15 75/129/15 77/132/15

usemtl _7
vt -44.697 0.911057
vn 1 -1.39931e-015 0.00031484
vt -44.697 0.171601
vt -45.1342 0.911057
f 77/133/16 75/134/16 76/135/16

usemtl _Tile_Ceramic_Natural_1
vt -18.07 2.05569
v 7.28674 4.43543 -136.905
vt -17.8239 10.914
vt -18.07 10.914
f 75/136/2 78/137/2 77/138/2

vt -17.8239 2.05569
f 75/136/2 68/139/2 78/137/2

v 7.38674 0.585432 -136.905
vt -18.07 1.44053
f 79/140/2 68/139/2 75/136/2

v 7.28674 0.585432 -136.905
vt -17.8239 1.44053
f 68/139/2 79/140/2 80/141/2

usemtl _7
vt -2.36488 0.12025
vt -2.39753 0.12025
vt -2.36488 0.171601
f 80/142/1 79/143/1 68/144/1

vt -2.39753 0.171601
f 75/145/1 68/144/1 79/143/1

vt -2.36488 0.911057
f 78/146/1 68/144/1 75/145/1

vt -2.39753 0.911057
f 77/147/1 78/146/1 75/145/1

vt -45.1342 0.171601
f 70/148/16 76/135/16 75/134/16

usemtl _Tile_Ceramic_Natural_1
vt 18.07 10.914
vt 16.1015 2.05569
vt 18.07 2.05569
f 76/149/1 69/150/1 70/151/1

v 6.46716 4.43543 -138.244
f 69/150/1 76/149/1 81/34/1

usemtl _7
vt 2.39753 0.171601
vt 2.13635 0.171601
vt 2.39753 0.911057
f 70/152/2 69/153/2 76/154/2

vt 2.09717 0.911057
f 81/155/2 76/154/2 69/153/2

usemtl _Tile_Ceramic_Natural_1
f 81/34/1 67/31/1 69/150/1

usemtl _7
f 69/153/2 67/37/2 81/155/2

usemtl _Tile_Ceramic_Natural_1
vt -349.328 10.914
f 40/156/3 67/131/3 81/130/3

vt -348.541 2.05569
f 67/131/3 40/156/3 66/157/3

usemtl _7
vt -46.349 0.911057
f 81/135/4 67/148/4 40/158/4

vt -46.2445 0.171601
f 66/159/4 40/158/4 67/148/4

usemtl _Tile_Ceramic_Natural_1
vt -349.328 2.05569
f 66/157/3 40/156/3 37/160/3

usemtl _7
vt -46.349 0.171601
f 37/161/4 40/158/4 66/159/4

f 40/155/2 37/37/2 38/36/2

f 58/74/8 53/73/8 51/63/8

vt 45.3143 0.325655
f 57/162/8 46/55/8 58/74/8

vt 45.6147 0.325655
f 56/163/8 46/55/8 57/162/8

vt 45.6277 0.325655
f 55/164/8 46/55/8 56/163/8

f 54/68/8 46/55/8 55/164/8

usemtl _Tile_Ceramic_Natural_1
v 1.69781 1.58543 -140.297
vt 345.221 3.90116
f 54/67/7 46/51/7 82/165/7

usemtl _7
vt 45.804 0.325655
f 82/166/8 46/55/8 54/68/8

usemtl _Tile_Ceramic_Natural_1
v 1.6981 1.58543 -141.217
vt 347.485 3.90116
f 82/165/7 46/51/7 83/167/7

usemtl _7
vt 46.1044 0.325655
f 83/168/8 46/55/8 82/166/8

usemtl _Tile_Ceramic_Natural_1
v 1.69811 1.58543 -141.257
vt 347.583 3.90116
f 83/167/7 46/51/7 84/169/7

usemtl _7
vt 46.1174 0.325655
f 84/170/8 46/55/8 83/168/8

usemtl _Tile_Ceramic_Natural_1
f 84/169/7 46/51/7 48/57/7

usemtl _7
vt 46.1174 0.531059
f 48/171/8 46/55/8 84/170/8

f 46/55/8 48/171/8 43/43/8

f 48/171/8 49/66/8 43/43/8

f 50/65/8 54/68/8 55/164/8

f 42/35/2 44/50/2 43/49/2

f 41/36/2 42/35/2 43/49/2

vt 46.349 0.911057
f 38/172/3 39/44/3 41/43/3

g Mesh8 CUA032 Model

l 37 40

l 39 37

l 39 38

l 42 39

l 42 41

l 44 42

l 44 45

l 45 43

l 47 45

l 47 46

l 46 53

l 61 46

l 61 42

l 53 52

l 59 53

l 59 60

l 59 63

l 62 63

l 62 65

l 62 68

l 80 68

l 80 79

l 79 75

l 70 75

l 70 76

l 69 70

l 67 69

l 67 81

l 66 67

l 37 66

l 81 76

l 40 81

l 40 38

l 41 38

l 41 43

l 52 43

l 60 52

l 64 60

l 63 64

l 64 65

l 77 76

l 75 77

l 75 71

l 71 72

l 74 72

l 74 73

l 73 68

l 68 78

l 78 77

g Mesh9 CUA032 Model

l 48 49

l 84 48

l 83 84

l 82 83

l 54 82

l 54 49

g Mesh10 CUA032 Model

l 58 51

l 58 57

l 57 56

l 56 55

l 55 50

l 50 51

g Mesh11 Model

v 15.3146 3.83543 -3.05291
vt -4.99987 0.627081
vn -7.21923e-015 -1 3.58683e-016
v 15.714 3.83543 -1.05279
vt -5.13025 0.216247
v 15.314 3.83543 -1.05291
vt -4.99966 0.216273
f 85/173/17 86/174/17 87/175/17

v 15.7146 3.83543 -3.05279
vt -5.13046 0.627055
f 86/174/17 85/173/17 88/176/17

vn 7.21923e-015 1 -3.58683e-016
f 87/175/18 86/174/18 85/173/18

vt -5.13015 0.787814
vn 0.00031484 4.88147e-016 -1
v 15.314 2.63043 -1.05291
vt -4.99955 0.540302
vt -4.99955 0.787814
f 86/177/19 89/178/19 87/179/19

v 15.314 2.43043 -1.05291
vt -4.99955 0.499221
f 86/177/19 90/180/19 89/178/19

v 15.364 1.73543 -1.0529
vt -5.01588 0.356465
f 86/177/19 91/181/19 90/180/19

v 15.714 1.63543 -1.05279
vt -5.13015 0.335925
f 91/181/19 86/177/19 92/182/19

vn -0.00031484 -4.88147e-016 1
f 92/182/20 86/177/20 91/181/20

f 90/180/20 91/181/20 86/177/20

v 15.314 1.73543 -1.05291
vt -4.99955 0.356465
f 90/180/19 91/181/19 93/183/19

f 93/183/20 91/181/20 90/180/20

f 89/178/20 90/180/20 86/177/20

f 87/179/20 89/178/20 86/177/20

f 88/176/18 85/173/18 86/174/18

g Mesh12 Model

v 15.3134 0.585432 0.837088
vt 4.99947 -0.171941
vn 5.05305e-012 1 5.0561e-012
v 15.0035 0.585432 0.52699
vt 4.89829 -0.108246
v 15.0034 0.585432 0.83699
vt 4.89826 -0.171921
f 94/184/21 95/185/21 96/186/21

v 15.3135 0.585432 0.527088
vt 4.9995 -0.108266
f 95/185/21 94/184/21 97/187/21

vn -5.05305e-012 -1 -5.0561e-012
f 96/186/22 95/185/22 94/184/22

v 15.0034 0.835432 0.83699
vt 0.271716 0.171601
vn -1 -7.28799e-017 -0.00031484
vt 0.170508 0.12025
vt 0.271716 0.12025
f 98/188/23 95/189/23 96/190/23

v 15.0035 0.835432 0.52699
vt 0.170508 0.171601
f 95/189/23 98/188/23 99/191/23

vn 1 7.28799e-017 0.00031484
f 96/190/24 95/189/24 98/188/24

f 99/191/24 98/188/24 95/189/24

v 15.3134 0.835432 0.837088
vn -1.09775e-013 1 1.04468e-013
f 100/184/25 99/185/25 98/186/25

v 15.3135 0.835432 0.527088
f 99/185/25 100/184/25 101/187/25

vn 1.09775e-013 -1 -1.04468e-013
f 98/186/26 99/185/26 100/184/26

f 101/187/26 100/184/26 99/185/26

vt -0.271716 0.171601
vn 1 -3.23402e-013 0.00031484
vt -0.170508 0.12025
vt -0.170508 0.171601
f 100/192/27 97/193/27 101/194/27

vt -0.271716 0.12025
f 97/193/27 100/192/27 94/195/27

vn -1 3.23402e-013 -0.00031484
f 94/195/28 100/192/28 97/193/28

vt 4.99955 0.171601
vn -0.00031484 2.77677e-013 1
vt 4.89835 0.12025
vt 4.99955 0.12025
f 100/196/29 96/197/29 94/198/29

vt 4.89835 0.171601
f 96/197/29 100/196/29 98/199/29

vn 0.00031484 -2.77677e-013 -1
f 94/198/30 96/197/30 100/196/30

f 98/199/30 100/196/30 96/197/30

vt -4.89835 0.12025
vn 0.00031484 -2.31734e-013 -1
v 14.4184 0.835432 0.836806
vt -4.70736 0.171601
vt -4.89835 0.171601
f 96/200/31 102/201/31 98/202/31

v 14.4184 0.585432 0.836806
vt -4.70736 0.12025
f 102/201/31 96/200/31 103/203/31

vn -0.00031484 2.31734e-013 1
f 103/203/32 96/200/32 102/201/32

f 98/202/32 102/201/32 96/200/32

f 101/194/28 97/193/28 100/192/28

vt -4.99955 0.12025
vn 0.00031484 -3.60946e-016 -1
vt -4.99955 0.171601
f 97/204/33 99/202/33 101/205/33

f 99/202/33 97/204/33 95/200/33

vn -0.00031484 3.60946e-016 1
f 95/200/34 97/204/34 99/202/34

f 97/187/22 94/184/22 95/185/22

f 101/205/34 99/202/34 97/204/34

g Mesh13 Model

v 138.951 3.33 -157.425
v 138.951 3.3 -157.425
l 104 105

g Mesh14 Model

v 15.7132 0.585432 1.23721
v 15.714 0.585432 -1.05279
l 106 107

v 15.7132 4.43543 1.23721
l 106 108

v 15.314 0.585432 -1.05291
l 107 109

l 109 97

l 95 97

l 96 95

l 96 94

l 96 98

l 103 96

l 103 102

v 12.6184 0.585432 0.836239
l 110 103

l 102 98

l 98 100

l 98 99

l 95 99

l 101 99

l 97 101

l 97 94

l 94 100

l 101 100

g Mesh15 Model

l 87 86

l 87 85

l 89 87

l 90 89

l 93 90

l 91 93

l 92 91

l 92 86

l 86 88

l 85 88

g Mesh16 Model

v 15.0035 4.43543 0.52699
v 15.3135 4.43543 0.527088
l 111 112

v 15.0034 4.43543 0.83699
l 113 111

