# Alias OBJ Model File
# Exported from SketchUp, (c) 2000-2012 Trimble Navigation Limited
# File units = meters

mtllib DES013.mtl

g Mesh1 DES013 Model

usemtl Color_D03
v 17.3215 4.031e-025 -8.79143
vt 1.46434e-028 3.00641e-015
vn 8.587e-016 -4.78296e-016 -1
v 19.1663 2.003 -8.79143
vt -72.6266 78.8583
v 19.1663 -7.63628e-017 -8.79143
vt -72.6266 2.98287e-029
f 1/1/1 2/2/1 3/3/1

v 17.3215 2.997 -8.79143
vt 1.46434e-028 117.992
f 2/2/1 1/1/1 4/4/1

usemtl BackColor
vn -8.587e-016 4.78296e-016 1
f 3/3/2 2/2/2 1/1/2

f 4/4/2 1/1/2 2/2/2

usemtl Color_D03
v 17.3215 4.031e-025 -9.49249
vt 27.6008 3.00641e-015
vn 1 0 -0
vt 1.7053e-013 117.992
vt 1.7053e-013 3.00641e-015
f 5/5/3 4/6/3 1/7/3

v 17.3215 2.997 -9.49249
vt 27.6008 117.992
f 4/6/3 5/5/3 6/8/3

usemtl BackColor
vn -1 -0 0
f 1/7/4 4/6/4 5/5/4

f 6/8/4 5/5/4 4/6/4

usemtl Color_D03
v 17.3265 0 -14.1135
vt 209.53 3.00641e-015
vn 0.999999 0 0.00108335
f 7/9/5 6/8/5 5/5/5

v 17.3265 2.997 -14.1135
vt 209.53 117.992
f 6/8/5 7/9/5 8/10/5

usemtl BackColor
vn -0.999999 -0 -0.00108335
f 5/5/6 6/8/6 7/9/6

f 8/10/6 7/9/6 6/8/6

usemtl Color_D03
vt 0.197092 3.00641e-015
vn 0 0 1
v 18.2268 0.999 -14.1135
vt 35.6383 39.3307
vt 0.197092 117.992
f 7/11/7 9/12/7 8/13/7

v 19.9905 0.999 -14.1135
vt 105.079 39.3307
f 7/11/7 10/14/7 9/12/7

v 19.3382 0 -14.1135
vt 79.3943 3.00641e-015
f 11/15/7 10/14/7 7/11/7

v 19.9905 0 -14.1135
vt 105.079 3.00641e-015
f 10/14/7 11/15/7 12/16/7

usemtl BackColor
vn -0 -0 -1
f 12/16/8 11/15/8 10/14/8

usemtl FrontColor
v 19.8755 -7.63625e-017 -8.79143
vt -100.551 4.25275e-033
vn -7.23073e-018 -1 -5.84914e-018
vt -79.3943 209.53
vt -105.079 209.53
f 13/17/9 11/18/9 12/19/9

vt -72.6266 3.07164e-033
f 3/20/9 11/18/9 13/17/9

vt -0.197092 209.53
f 3/20/9 7/21/9 11/18/9

vt 2.17385e-032 1.7053e-013
f 1/22/9 7/21/9 3/20/9

vt 2.17385e-032 27.6008
f 7/21/9 1/22/9 5/23/9

usemtl _Tile_Ceramic_Natural_14
vt -20.8249 -2.98553
vn 7.23073e-018 1 5.84914e-018
vt -20.8249 -3.48274
vt -20.8284 0.291774
f 5/24/10 1/25/10 7/26/10

vt -22.1332 -3.48274
f 3/27/10 7/26/10 1/25/10

vt -22.2551 0.291774
f 11/28/10 7/26/10 3/27/10

usemtl BackColor
f 7/11/8 10/14/8 11/15/8

f 9/12/8 10/14/8 7/11/8

usemtl Translucent_Glass_Blue
v 19.9905 1.998 -14.1135
vt 105.079 78.6614
f 14/29/7 9/12/7 10/14/7

v 18.2268 1.998 -14.1135
vt 35.6383 78.6614
f 9/12/7 14/29/7 15/30/7

f 10/14/8 9/12/8 14/29/8

f 15/30/8 14/29/8 9/12/8

usemtl Color_D03
v 19.9905 2.997 -14.1135
vt 105.079 117.992
f 16/31/7 15/30/7 14/29/7

f 8/13/7 15/30/7 16/31/7

f 8/13/7 9/12/7 15/30/7

usemtl BackColor
f 8/13/8 9/12/8 7/11/8

f 15/30/8 9/12/8 8/13/8

f 16/31/8 15/30/8 8/13/8

f 14/29/8 15/30/8 16/31/8

usemtl Color_D03
vt -209.53 3.00641e-015
vn -1 0 -0
vt -209.53 117.992
vt -209.53 78.6614
f 12/32/11 16/33/11 14/34/11

v 19.9905 2.997 -8.85708
vt -2.58497 117.992
f 12/32/11 17/35/11 16/33/11

v 19.9905 2.73064e-020 -8.79143
vt -1.13687e-013 3.00749e-015
f 18/36/11 17/35/11 12/32/11

v 19.9905 2.997 -8.79143
vt -1.13687e-013 117.992
f 17/35/11 18/36/11 19/37/11

usemtl BackColor
vn 1 -0 0
f 19/37/12 18/36/12 17/35/12

usemtl Color_D03
vt -105.079 3.00749e-015
v 19.8755 2.003 -8.79143
vt -100.551 78.8583
vt -105.079 117.992
f 18/38/1 20/39/1 19/40/1

vt -100.551 1.43617e-020
f 20/39/1 18/38/1 13/41/1

usemtl BackColor
f 13/41/2 18/38/2 20/39/2

usemtl FrontColor
vt -105.079 1.13687e-013
f 13/17/9 12/19/9 18/42/9

usemtl _Tile_Ceramic_Natural_14
vt -22.7178 0.291774
vt -22.6362 -3.48274
f 12/43/10 11/28/10 13/44/10

f 13/44/10 11/28/10 3/27/10

vt -22.7178 -3.48274
f 18/45/10 12/43/10 13/44/10

usemtl BackColor
f 12/32/12 17/35/12 18/36/12

f 16/33/12 17/35/12 12/32/12

f 14/34/12 16/33/12 12/32/12

usemtl Color_D03
vt -209.53 39.3307
f 12/32/11 14/34/11 10/46/11

usemtl BackColor
f 10/46/12 14/34/12 12/32/12

f 19/40/2 20/39/2 18/38/2

usemtl Color_D03
f 19/40/1 20/39/1 4/4/1

usemtl BackColor
f 4/4/2 20/39/2 19/40/2

usemtl Color_D03
f 2/2/1 4/4/1 20/39/1

usemtl BackColor
f 20/39/2 4/4/2 2/2/2

g Mesh2 DES013 Model

l 7 8

l 7 11

l 5 7

l 5 6

l 1 5

l 1 4

l 1 3

l 3 2

l 3 13

l 13 18

l 20 13

l 20 2

l 18 19

l 12 18

l 12 10

l 11 12

l 10 14

l 10 9

l 15 9

l 14 15

l 14 16

l 16 17

l 8 16

l 6 8

l 4 6

l 4 19

l 17 19

