# Alias OBJ Model File
# Exported from SketchUp, (c) 2000-2012 Trimble Navigation Limited
# File units = meters

mtllib DES009.mtl

g Mesh1 DES009 Model

usemtl FrontColor
v 32.1105 2.19294e-021 -5.87951
vt -103.113 185.119
vn -9.74311e-022 -1 1.55193e-022
v 29.4915 2.60224e-021 -5.74202
vt 9.98186e-041 179.706
v 29.4915 2.97156e-021 -5.87951
vt 1.13985e-040 185.119
f 1/1/1 2/2/1 3/3/1

v 29.4915 2.84443e-021 -5.04916
vt 1.09109e-040 152.428
f 2/2/1 1/1/1 4/4/1

usemtl _Tile_Ceramic_Natural_14
vt -29.456 -5.54793
vn 9.74311e-022 1 -1.55193e-022
vt -29.456 -5.64543
vt -31.3135 -5.54793
f 3/5/2 2/6/2 1/7/2

usemtl FrontColor
vt -179.706 1.0245e-019
vn -1 0 -0
v 29.4915 2.997 -5.87951
vt -185.119 117.992
vt -185.119 1.1699e-019
f 2/8/3 5/9/3 3/10/3

v 29.4915 2.003 -5.74202
vt -179.706 78.8583
f 6/11/3 5/9/3 2/8/3

v 29.4915 2.003 -5.04916
vt -152.428 78.8583
f 7/12/3 5/9/3 6/11/3

v 29.4915 0.999 -1.17749
vt -4.26326e-014 39.3307
f 8/13/3 5/9/3 7/12/3

v 29.4915 1.998 -1.17749
vt -2.84217e-014 78.6614
f 9/14/3 5/9/3 8/13/3

v 29.4915 2.997 -1.17749
vt 0 117.992
f 5/9/3 9/14/3 10/15/3

usemtl Color_D03
vn 1 -0 0
f 10/15/4 9/14/4 5/9/4

usemtl FrontColor
vt 9.82346e-031 78.6614
vn 3.45632e-017 -3.61317e-017 1
v 32.1105 2.997 -1.17749
vt 103.113 117.992
f 9/16/5 11/17/5 10/15/5

v 31.2199 1.998 -1.17749
vt 68.0462 78.6614
f 12/18/5 11/17/5 9/16/5

v 31.2199 0.999 -1.17749
vt 68.0462 39.3307
f 13/19/5 11/17/5 12/18/5

v 32.1105 0 -1.17749
vt 103.113 1.2877e-031
f 13/19/5 14/20/5 11/17/5

v 29.4915 5.59526e-021 -1.17749
vt 0 2.20286e-019
f 14/20/5 13/19/5 15/21/5

usemtl Color_D03
vn -3.45632e-017 3.61317e-017 -1
f 15/21/6 13/19/6 14/20/6

usemtl FrontColor
vt 1.47352e-030 39.3307
f 8/22/5 15/21/5 13/19/5

vt -152.428 1.11985e-019
f 8/13/3 4/23/3 15/21/3

f 4/23/3 8/13/3 7/12/3

usemtl Color_D03
f 15/21/4 4/23/4 8/13/4

usemtl FrontColor
vt 2.14627e-040 -3.41869e-041
f 4/4/1 1/1/1 15/24/1

usemtl _Tile_Ceramic_Natural_14
vt -29.456 -6.13683
f 4/25/2 1/7/2 2/6/2

vt -29.456 -8.88269
f 15/26/2 1/7/2 4/25/2

usemtl FrontColor
vt -103.113 -1.55913e-041
f 15/24/1 1/1/1 14/27/1

usemtl _Tile_Ceramic_Natural_14
vt -31.3135 -8.88269
f 14/28/2 1/7/2 15/26/2

usemtl Color_D03
vt -1.11952e-013 -1.4658e-028
vn -1 -1.42155e-030 -1.08573e-015
v 32.1105 0.999 -3.51034
vt -91.8445 39.3307
vt -185.119 8.63363e-020
f 14/29/7 16/30/7 1/31/7

v 32.1105 1.998 -3.51034
vt -91.8445 78.6614
f 16/30/7 14/29/7 17/32/7

usemtl BackColor
vn 1 1.42155e-030 1.08573e-015
f 1/31/8 16/30/8 14/29/8

usemtl Color_D03
v 32.1105 0.999 -5.87951
vt -185.119 39.3307
f 1/31/7 16/30/7 18/33/7

usemtl BackColor
f 18/33/8 16/30/8 1/31/8

usemtl Translucent_Glass_Blue
vt 185.119 39.3307
vn 1 -1.37329e-031 -7.31305e-015
vt 91.8445 78.6614
vt 91.8445 39.3307
f 18/34/9 17/35/9 16/36/9

v 32.1105 1.998 -5.87951
vt 185.119 78.6614
f 17/35/9 18/34/9 19/37/9

vn -1 1.37329e-031 7.31305e-015
f 16/36/10 17/35/10 18/34/10

usemtl BackColor
f 17/32/8 14/29/8 16/30/8

usemtl Color_D03
vt -1.11952e-013 117.992
f 11/38/7 17/32/7 14/29/7

v 32.1105 2.997 -5.87951
f 17/32/7 11/38/7 20/9/7

usemtl BackColor
f 14/29/8 17/32/8 11/38/8

f 20/9/8 11/38/8 17/32/8

usemtl Color_D03
vt -185.119 78.6614
f 17/32/7 20/9/7 19/39/7

usemtl BackColor
f 19/39/8 20/9/8 17/32/8

usemtl FrontColor
vt -103.113 78.6614
vn 0 0 -1
vt -103.113 117.992
f 19/40/11 5/15/11 20/41/11

vt -103.113 39.3307
f 18/42/11 5/15/11 19/40/11

vt 0 1.1699e-019
f 18/42/11 3/43/11 5/15/11

vt -103.113 8.63363e-020
f 3/43/11 18/42/11 1/44/11

usemtl Color_D03
vn -0 -0 1
f 1/44/12 18/42/12 3/43/12

f 5/15/12 3/43/12 18/42/12

f 3/10/4 5/9/4 2/8/4

f 2/8/4 5/9/4 6/11/4

f 6/11/4 5/9/4 7/12/4

f 7/12/4 5/9/4 8/13/4

f 8/13/4 5/9/4 9/14/4

usemtl Translucent_Glass_Blue
vt 2.22586e-029 39.3307
vn 5.22103e-016 -3.61317e-016 1
vt 1.48391e-029 78.6614
f 8/45/13 12/18/13 9/46/13

f 12/18/13 8/45/13 13/19/13

vn -5.22103e-016 3.61317e-016 -1
f 13/19/14 8/45/14 12/18/14

usemtl Color_D03
f 13/19/6 15/21/6 8/22/6

usemtl Translucent_Glass_Blue
f 9/46/14 12/18/14 8/45/14

usemtl Color_D03
f 9/16/6 11/17/6 12/18/6

f 10/15/6 11/17/6 9/16/6

f 12/18/6 11/17/6 13/19/6

f 11/17/6 14/20/6 13/19/6

f 7/12/4 8/13/4 4/23/4

f 19/40/12 5/15/12 18/42/12

f 20/41/12 5/15/12 19/40/12

usemtl FrontColor
v 29.6235 2.997 -5.87951
vt -5.19725 117.992
f 20/41/11 5/15/11 21/47/11

usemtl Color_D03
f 21/47/12 5/15/12 20/41/12

usemtl Translucent_Glass_Blue
f 19/37/10 18/34/10 17/35/10

g Mesh2 DES009 Model

l 15 14

l 4 15

l 4 2

l 7 4

l 6 7

l 2 6

l 3 2

l 3 1

l 3 5

l 21 5

l 21 20

l 19 20

l 18 19

l 1 18

l 14 1

l 14 11

l 11 20

l 10 11

l 9 10

l 8 9

l 15 8

l 8 13

l 12 13

l 9 12

l 5 10

l 16 18

l 17 16

l 17 19

