# Alias OBJ Model File
# Exported from SketchUp, (c) 2000-2012 Trimble Navigation Limited
# File units = meters

mtllib DES006.mtl

g Mesh1 DES006 Model

usemtl FrontColor
v 22.0366 2.98743e-021 -6.30055
vt -76.3808 201.695
vn 1.55414e-020 -1 1.59892e-020
v 20.0965 2.70667e-020 -1.17749
vt -1.47333e-038 -1.51578e-038
v 20.0965 3.33724e-020 -6.30055
vt -1.85916e-038 201.695
f 1/1/1 2/2/1 3/3/1

v 22.9295 1.5355e-019 -1.17749
vt -111.534 2.84217e-014
f 2/2/1 1/1/1 4/4/1

usemtl _Tile_Ceramic_Natural_14
vt -22.7929 -5.24932
vn -1.55414e-020 1 -1.59892e-020
vt -22.7929 -8.88269
vt -24.1689 -5.24932
f 3/5/2 2/6/2 1/7/2

usemtl Color_D03
vt 201.695 1.19626e-018
vn 1 1.11698e-031 -2.81828e-016
v 20.0965 0.999 -1.17749
vt 5.68434e-014 39.3307
vt 0 9.48003e-019
f 3/8/3 5/9/3 2/10/3

v 20.0965 1.998 -1.17749
vt 5.68434e-014 78.6614
f 5/9/3 3/8/3 6/11/3

usemtl BackColor
vn -1 -1.11698e-031 2.81828e-016
f 2/10/4 5/9/4 3/8/4

usemtl Color_D03
vt -1.13687e-013 39.3307
vn -2.22972e-016 -1.35494e-015 -1
vt -111.534 5.92767e-018
f 5/12/5 4/13/5 2/10/5

v 22.9295 0.999 -1.17749
vt -111.534 39.3307
f 4/13/5 5/12/5 7/14/5

usemtl BackColor
vn 2.22972e-016 1.35494e-015 1
f 2/10/6 4/13/6 5/12/6

usemtl _Tile_Ceramic_Natural_14
vt -24.8021 -8.88269
f 4/15/2 1/7/2 2/6/2

usemtl FrontColor
v 22.7584 2.98743e-021 -6.30055
vt -104.801 201.695
f 4/4/1 1/1/1 8/16/1

usemtl _Tile_Ceramic_Natural_14
vt -24.6808 -5.24932
f 8/17/2 1/7/2 4/15/2

usemtl FrontColor
v 22.9295 2.17266e-020 -6.30055
vt -111.534 201.695
f 4/4/1 8/16/1 9/18/1

usemtl _Tile_Ceramic_Natural_14
vt -24.8021 -5.24932
f 9/19/2 8/17/2 4/15/2

usemtl Color_D03
vt 111.534 -2.21955e-014
vn 7.0413e-017 -1.10048e-016 1
v 22.7584 2.003 -6.30055
vt 104.801 78.8583
vt 104.801 -2.21962e-014
f 9/20/7 10/21/7 8/22/7

v 22.9295 2.997 -6.30055
vt 111.534 117.992
f 10/21/7 9/20/7 11/23/7

usemtl BackColor
vn -7.0413e-017 1.10048e-016 -1
f 8/22/8 10/21/8 9/20/8

f 11/23/8 9/20/8 10/21/8

usemtl Color_D03
vt -201.695 7.37764e-019
vn -1 0 -0
v 22.9295 2.997 -6.09039
vt -193.421 117.992
vt -201.695 117.992
f 9/24/9 12/25/9 11/26/9

vt -7.81597e-014 39.3307
f 9/24/9 7/27/9 12/25/9

vt -2.84217e-014 5.92767e-018
f 7/27/9 9/24/9 4/28/9

usemtl BackColor
vn 1 -0 0
f 4/28/10 9/24/10 7/27/10

f 12/25/10 7/27/10 9/24/10

usemtl Color_D03
v 22.9295 1.998 -1.17749
vt -7.10543e-014 78.6614
f 13/29/9 12/25/9 7/27/9

v 22.9295 2.997 -1.17749
vt -2.84217e-014 117.992
f 12/25/9 13/29/9 14/30/9

usemtl BackColor
f 14/30/10 13/29/10 12/25/10

usemtl Color_D03
vt -1.13687e-013 78.6614
vn -1.91119e-016 1.26461e-015 -1
vt -111.534 117.992
vt -111.534 78.6614
f 6/31/11 14/32/11 13/33/11

v 20.0965 2.997 -1.17749
vt 0 117.992
f 14/32/11 6/31/11 15/34/11

usemtl BackColor
vn 1.91119e-016 -1.26461e-015 1
f 13/33/12 14/32/12 6/31/12

f 15/34/12 6/31/12 14/32/12

usemtl Color_D03
v 20.0965 2.997 -6.30055
vt 201.695 117.992
f 6/11/3 16/35/3 15/34/3

f 16/35/3 6/11/3 3/8/3

usemtl BackColor
f 15/34/4 16/35/4 6/11/4

f 3/8/4 6/11/4 16/35/4

f 6/11/4 3/8/4 5/9/4

usemtl Translucent_Glass_Blue
vn -1.59266e-016 9.03293e-017 -1
f 6/31/13 7/14/13 5/12/13

f 7/14/13 6/31/13 13/33/13

vn 1.59266e-016 -9.03293e-017 1
f 5/12/14 7/14/14 6/31/14

usemtl BackColor
f 7/14/6 5/12/6 4/13/6

usemtl Translucent_Glass_Blue
f 13/33/14 6/31/14 7/14/14

usemtl BackColor
f 7/27/10 12/25/10 13/29/10

usemtl Color_D03
vt 1.4202e-014 -2.2195e-014
v 22.0366 2.003 -6.30055
vt 76.3808 78.8583
vt 1.4202e-014 117.992
f 3/36/7 17/37/7 16/38/7

vt 76.3808 -2.21962e-014
f 17/37/7 3/36/7 1/39/7

usemtl BackColor
f 1/39/8 3/36/8 17/37/8

f 16/38/8 17/37/8 3/36/8

usemtl Color_D03
f 16/38/7 17/37/7 11/23/7

usemtl BackColor
f 11/23/8 17/37/8 16/38/8

usemtl Color_D03
f 10/21/7 11/23/7 17/37/7

usemtl BackColor
f 17/37/8 11/23/8 10/21/8

f 11/26/10 12/25/10 9/24/10

g Mesh2 DES006 Model

l 3 1

l 3 2

l 3 16

l 16 15

l 16 11

l 9 11

l 8 9

l 1 8

l 17 1

l 17 10

l 8 10

l 9 4

l 4 2

l 4 7

l 7 13

l 5 7

l 2 5

l 5 6

l 6 15

l 6 13

l 13 14

l 12 14

l 12 11

l 14 15

