# Alias OBJ Model File
# Exported from SketchUp, (c) 2000-2012 Trimble Navigation Limited
# File units = meters

mtllib LAB005.mtl

g Mesh1 LAB005 Model

usemtl FrontColor
v 15.0083 2.67531e-021 -6.30055
vt -32.2276 201.695
vn 1.4424e-020 -1 8.31594e-021
v 14.1897 -1.50019e-022 -1.17749
vt 0 3.55271e-014
v 14.1897 -1.50019e-022 -6.30055
vt 0 201.695
f 1/1/1 2/2/1 3/3/1

v 19.9905 1.32793e-019 -1.17749
vt -228.38 -1.61316e-038
f 2/2/1 1/1/1 4/4/1

usemtl _Tile_Ceramic_Natural_14
vt -18.6037 -5.24932
vn -1.4424e-020 1 -8.31594e-021
vt -18.6037 -8.88269
vt -19.1843 -5.24932
f 3/5/2 2/6/2 1/7/2

usemtl FrontColor
v 14.1897 0.999 -1.17749
vt -6.39488e-014 39.3307
vn -1 0 -0
vt -201.695 0
vt -3.55271e-014 0
f 5/8/3 3/9/3 2/10/3

v 14.1897 2.997 -6.30055
vt -201.695 117.992
f 3/9/3 5/8/3 6/11/3

usemtl Color_D03
vn 1 -0 0
f 2/10/4 3/9/4 5/8/4

f 6/11/4 5/8/4 3/9/4

usemtl FrontColor
v 14.1897 1.998 -1.17749
vt -6.39488e-014 78.6614
f 7/12/3 6/11/3 5/8/3

v 14.1897 2.997 -1.17749
vt -3.55271e-014 117.992
f 6/11/3 7/12/3 8/13/3

usemtl Color_D03
f 8/13/4 7/12/4 6/11/4

usemtl FrontColor
vt -6.9636e-030 78.6614
vn -1.08893e-016 -9.93622e-016 1
v 19.9905 2.997 -1.17749
vt 228.38 117.992
vt -3.86867e-030 117.992
f 7/14/5 9/15/5 8/16/5

v 19.9905 1.998 -1.17749
vt 228.38 78.6614
f 9/15/5 7/14/5 10/17/5

usemtl Color_D03
vn 1.08893e-016 9.93622e-016 -1
f 10/17/6 7/14/6 9/15/6

usemtl Translucent_Glass_Blue
vt -3.9792e-030 39.3307
vn -6.22247e-017 2.50351e-033 1
vt -3.9792e-030 78.6614
f 5/18/7 10/17/7 7/19/7

v 19.9905 0.999 -1.17749
vt 228.38 39.3307
f 10/17/7 5/18/7 11/20/7

vn 6.22247e-017 -2.50351e-033 -1
f 11/20/8 5/18/8 10/17/8

usemtl FrontColor
vt -6.9636e-030 39.3307
vn -1.08893e-016 9.93622e-016 1
vt 228.38 5.23399e-018
f 5/21/9 4/22/9 11/20/9

vt -3.86867e-030 3.53005e-029
f 4/22/9 5/21/9 2/23/9

usemtl Color_D03
vn 1.08893e-016 -9.93622e-016 -1
f 2/23/10 5/21/10 4/22/10

f 11/20/10 4/22/10 5/21/10

usemtl FrontColor
v 19.9905 4.00292e-020 -6.30055
vt 201.695 1.58186e-018
vn 1 0 -0
vt 4.9738e-014 39.3307
vt 0 5.23399e-018
f 12/24/11 11/25/11 4/26/11

vt 4.9738e-014 78.6614
f 11/25/11 12/24/11 10/27/11

usemtl Color_D03
vn -1 -0 0
f 4/26/12 11/25/12 12/24/12

f 10/27/12 12/24/12 11/25/12

usemtl FrontColor
v 19.9905 2.997 -6.30055
vt 201.695 117.992
f 13/28/11 10/27/11 12/24/11

vt 0 117.992
f 10/27/11 13/28/11 9/29/11

usemtl Color_D03
f 9/29/12 13/28/12 10/27/12

f 12/24/12 10/27/12 13/28/12

v 15.7302 2.003 -6.30055
vt 60.6482 78.8583
vn 1.30421e-016 2.27752e-017 1
vt 228.38 4.59523e-015
f 14/30/13 12/31/13 13/15/13

v 15.7302 2.67531e-021 -6.30055
vt 60.6482 4.59376e-015
f 12/31/13 14/30/13 15/32/13

usemtl BackColor
vn -1.30421e-016 -2.27752e-017 -1
f 15/32/14 14/30/14 12/31/14

f 13/15/14 12/31/14 14/30/14

usemtl Color_D03
v 15.0083 2.003 -6.30055
vt 32.2276 78.8583
f 14/30/13 13/15/13 16/33/13

usemtl BackColor
f 16/33/14 13/15/14 14/30/14

usemtl Color_D03
vt 2.63053e-014 117.992
f 6/34/13 16/33/13 13/15/13

vt 32.2276 4.59376e-015
f 6/34/13 1/35/13 16/33/13

vt 2.63053e-014 4.59365e-015
f 1/35/13 6/34/13 3/36/13

usemtl BackColor
f 3/36/14 6/34/14 1/35/14

f 16/33/14 1/35/14 6/34/14

f 13/15/14 16/33/14 6/34/14

usemtl FrontColor
vt -60.6482 201.695
vt -228.38 201.695
f 4/4/1 15/37/1 12/38/1

f 4/4/1 1/1/1 15/37/1

usemtl _Tile_Ceramic_Natural_14
vt -22.7178 -8.88269
f 4/39/2 1/7/2 2/6/2

vt -19.6962 -5.24932
f 15/40/2 1/7/2 4/39/2

vt -22.7178 -5.24932
f 12/41/2 15/40/2 4/39/2

usemtl Translucent_Glass_Blue
f 7/19/8 10/17/8 5/18/8

usemtl Color_D03
f 5/8/4 6/11/4 7/12/4

f 8/16/6 9/15/6 7/14/6

g Mesh2 LAB005 Model

l 3 1

l 3 2

l 3 6

l 6 13

l 6 8

l 7 8

l 7 10

l 5 7

l 2 5

l 4 2

l 4 12

l 4 11

l 11 10

l 5 11

l 10 9

l 9 13

l 9 8

l 12 13

l 15 12

l 1 15

l 16 1

l 16 14

l 15 14

