# Alias OBJ Model File
# Exported from SketchUp, (c) 2000-2012 Trimble Navigation Limited
# File units = meters

mtllib LAB001.mtl

g Mesh1 LAB01 Model

usemtl FrontColor
v 10.8358 -5.61684e-022 -14.1135
vt -147.658 209.53
vn -6.05273e-023 -1 3.14473e-023
v 7.08526 -1.12863e-022 -8.79143
vt 1.06952e-042 -5.55676e-043
v 7.08526 -1.16276e-022 -14.1135
vt 1.06139e-042 209.53
f 1/1/1 2/2/1 3/3/1

v 7.37641 -1.23106e-022 -8.79143
vt -11.4625 -5.64813e-043
f 2/2/1 1/1/1 4/4/1

usemtl _Tile_Ceramic_Natural_14
vt -13.5651 0.291774
vn 6.05273e-023 1 -3.14473e-023
vt -13.5651 -3.48274
vt -16.225 0.291774
f 3/5/2 2/6/2 1/7/2

usemtl FrontColor
vt 0 1.76701e-020
vn -1 0 -0
v 7.08526 2.997 -14.1135
vt -209.53 117.992
vt -209.53 1.75358e-020
f 2/8/3 5/9/3 3/10/3

v 7.08526 2.997 -8.79143
vt 0 117.992
f 5/9/3 2/8/3 6/11/3

usemtl Color_D03
vn 1 -0 0
f 6/11/4 2/8/4 5/9/4

usemtl FrontColor
vn 0 0 1
v 7.37641 2.003 -8.79143
vt 11.4625 78.8583
f 2/8/5 7/12/5 6/11/5

vt 11.4625 1.72669e-020
f 7/12/5 2/8/5 4/13/5

usemtl Color_D03
vn -0 -0 -1
f 4/13/6 2/8/6 7/12/6

usemtl _Tile_Ceramic_Natural_14
vt -13.7716 -3.48274
f 4/14/2 1/7/2 2/6/2

usemtl FrontColor
v 8.10333 -1.34494e-022 -8.79143
vt -40.0815 -6.05187e-043
f 4/4/1 1/1/1 8/15/1

usemtl _Tile_Ceramic_Natural_14
vt -14.2871 -3.48274
f 8/16/2 1/7/2 4/14/2

usemtl FrontColor
v 10.8358 -1.68235e-022 -8.79143
vt -147.658 -7.68176e-043
f 8/15/1 1/1/1 9/17/1

usemtl _Tile_Ceramic_Natural_14
vt -16.225 -3.48274
f 9/18/2 1/7/2 8/16/2

usemtl FrontColor
vt 209.53 0
vn 1 0 -2.7129e-016
v 10.8358 2.997 -8.79143
vt -4.00581e-014 117.992
vt -4.00581e-014 1.54901e-020
f 1/19/7 10/20/7 9/21/7

v 10.8358 2.997 -14.1135
vt 209.53 117.992
f 10/20/7 1/19/7 11/22/7

usemtl Color_D03
vn -1 -0 2.7129e-016
f 9/21/8 10/20/8 1/19/8

usemtl FrontColor
vt 147.658 117.992
vt 40.0815 1.68185e-020
vt 147.658 1.54901e-020
f 10/23/5 8/24/5 9/25/5

v 8.10333 2.003 -8.79143
vt 40.0815 78.8583
f 8/24/5 10/23/5 12/26/5

usemtl Color_D03
f 9/25/6 8/24/6 10/23/6

f 12/26/6 10/23/6 8/24/6

usemtl FrontColor
f 12/26/5 10/23/5 7/12/5

usemtl Color_D03
f 7/12/6 10/23/6 12/26/6

usemtl FrontColor
f 6/11/5 7/12/5 10/23/5

usemtl Color_D03
f 6/11/6 7/12/6 2/8/6

f 10/23/6 7/12/6 6/11/6

f 11/22/8 1/19/8 10/20/8

usemtl FrontColor
vt -147.658 0
vn 0 0 -1
v 9.19241 0.999 -14.1135
vt -82.9587 39.3307
vt -147.658 117.992
f 1/27/9 13/28/9 11/29/9

vt 0 1.75358e-020
f 13/28/9 1/27/9 3/30/9

usemtl Color_D03
vn -0 -0 1
f 11/29/10 13/28/10 1/27/10

usemtl FrontColor
v 9.19241 1.998 -14.1135
vt -82.9587 78.6614
f 11/29/9 13/28/9 14/31/9

usemtl Color_D03
f 14/31/10 13/28/10 11/29/10

usemtl Translucent_Glass_Blue
v 7.08526 1.998 -14.1135
vt 0 78.6614
f 13/28/9 15/32/9 14/31/9

v 7.08526 0.999 -14.1135
vt 0 39.3307
f 15/32/9 13/28/9 16/33/9

f 16/33/10 13/28/10 15/32/10

usemtl FrontColor
f 13/28/9 3/30/9 16/33/9

usemtl Color_D03
f 3/30/10 1/27/10 13/28/10

f 16/33/10 3/30/10 13/28/10

usemtl FrontColor
vt -209.53 78.6614
vt -209.53 39.3307
f 3/10/3 15/34/3 16/35/3

f 3/10/3 5/9/3 15/34/3

usemtl Color_D03
f 3/10/4 5/9/4 2/8/4

f 15/34/4 5/9/4 3/10/4

usemtl FrontColor
f 5/11/9 14/31/9 15/32/9

f 11/29/9 14/31/9 5/11/9

usemtl Color_D03
f 5/11/10 14/31/10 11/29/10

f 15/32/10 14/31/10 5/11/10

usemtl Translucent_Glass_Blue
f 14/31/10 15/32/10 13/28/10

usemtl Color_D03
f 16/35/4 15/34/4 3/10/4

g Mesh2 LAB01 Model

l 9 1

l 8 9

l 4 8

l 2 4

l 2 3

l 2 6

l 6 5

l 6 10

l 9 10

l 10 11

l 1 11

l 3 1

l 3 16

l 16 15

l 13 16

l 14 13

l 14 15

l 15 5

l 5 11

l 4 7

l 7 12

l 12 8

