# Alias OBJ Model File
# Exported from SketchUp, (c) 2000-2012 Trimble Navigation Limited
# File units = meters

mtllib LAB012.mtl

g Mesh1 LAB012 Model

usemtl FrontColor
v 20.0965 2.70667e-020 -14.1135
vt -1.13687e-013 209.53
vn -3.09449e-021 -1 -6.05763e-022
v 21.2876 1.12566e-022 -13.2398
vt -46.8935 175.134
v 20.0965 2.70667e-020 -8.79143
vt -1.13687e-013 6.45552e-040
f 1/1/1 2/2/1 3/3/1

v 21.2986 1.1266e-022 -13.2739
vt -47.328 176.474
f 2/2/1 1/1/1 4/4/1

usemtl _Tile_Ceramic_Natural_14
vt -22.7929 -3.48274
vn 3.09449e-021 1 6.05763e-022
vt -23.6377 -0.327838
vt -22.7929 0.291774
f 3/5/2 2/6/2 1/7/2

usemtl FrontColor
v 20.2248 1.3767e-020 -8.79143
vt -5.05321 3.3784e-040
f 3/3/1 2/2/1 5/8/1

usemtl _Tile_Ceramic_Natural_14
vt -22.884 -3.48274
f 5/9/2 2/6/2 3/5/2

usemtl FrontColor
v 20.9341 7.08991e-021 -8.79143
vt -32.9778 2.30945e-040
f 5/8/1 2/2/1 6/10/1

usemtl _Tile_Ceramic_Natural_14
vt -23.387 -3.48274
f 6/11/2 2/6/2 5/9/2

usemtl FrontColor
v 21.2857 1.12471e-022 -13.2041
vt -46.8204 173.728
f 6/10/1 2/2/1 7/12/1

usemtl _Tile_Ceramic_Natural_14
vt -23.6364 -0.353168
f 7/13/2 2/6/2 6/11/2

usemtl FrontColor
vt 177.331 3.74119e-021
vn 0.983337 1.97019e-023 0.181791
v 21.2857 2.997 -13.2041
vt 175.923 117.992
vn 0.996882 2.00336e-023 -0.0789102
vt 175.923 3.73746e-021
f 2/14/3 8/15/4 7/16/4

v 21.2876 2.997 -13.2398
vt 177.331 117.992
f 8/15/4 2/14/3 9/17/3

usemtl Color_D03
vn -0.996882 -2.00336e-023 0.0789102
vn -0.983337 -1.97019e-023 -0.181791
f 7/16/5 8/15/5 2/14/6

usemtl FrontColor
v 21.2932 2.997 -13.1691
vt 158.752 117.992
vn 0.94249 1.89999e-023 -0.334233
vt 160.16 2.87983e-021
vt 160.16 117.992
f 10/18/7 7/19/4 8/20/4

v 21.2932 1.12382e-022 -13.1691
vt 158.752 2.87633e-021
f 7/19/4 10/18/7 11/21/7

usemtl Color_D03
vn -0.94249 -1.89999e-023 0.334233
f 11/21/8 10/18/8 7/19/5

usemtl FrontColor
v 21.3094 2.997 -13.1373
vt 130.714 117.992
vn 0.82387 1.66715e-023 -0.566779
vt 132.122 2.32645e-021
vt 132.122 117.992
f 12/22/9 11/23/7 10/24/7

v 21.3094 1.12305e-022 -13.1373
vt 130.714 2.32343e-021
f 11/23/7 12/22/9 13/25/9

usemtl Color_D03
vn -0.82387 -1.66715e-023 0.566779
f 13/25/10 12/22/10 11/23/8

usemtl FrontColor
v 21.3334 2.997 -13.1107
vt 93.7202 117.992
vn 0.649104 1.32069e-023 -0.7607
vt 95.1283 2.22682e-021
vt 95.1283 117.992
f 14/26/11 13/27/9 12/28/9

v 21.3334 1.12246e-022 -13.1107
vt 93.7202 2.22447e-021
f 13/27/9 14/26/11 15/29/11

usemtl Color_D03
vn -0.649104 -1.32069e-023 0.7607
f 15/29/12 14/26/12 13/27/10

usemtl FrontColor
v 21.3634 2.997 -13.0912
vt 50.2915 117.992
vn 0.430103 8.84226e-024 -0.90278
vt 51.6996 2.60391e-021
vt 51.6996 117.992
f 16/30/13 15/31/11 14/32/11

v 21.3634 1.12207e-022 -13.0912
vt 50.2915 2.6024e-021
f 15/31/11 16/30/13 17/33/13

usemtl Color_D03
vn -0.430103 -8.84226e-024 0.90278
f 17/33/14 16/30/14 15/31/12

usemtl FrontColor
v 21.3974 2.997 -13.0802
vt 3.38756 117.992
vn 0.181791 3.87506e-024 -0.983337
vt 4.7956 3.35199e-021
vt 4.7956 117.992
f 18/34/15 17/35/13 16/36/13

v 21.3974 1.12193e-022 -13.0802
vt 3.38756 3.35142e-021
f 17/35/13 18/34/15 19/37/15

usemtl Color_D03
vn -0.181791 -3.87506e-024 0.983337
f 19/37/16 18/34/16 17/35/14

usemtl FrontColor
vt -42.3872 117.992
v 21.4331 1.12203e-022 -13.0784
vt -43.7952 4.26569e-021
vn -0.0789102 -1.35622e-024 -0.996882
vt -42.3872 4.26528e-021
f 18/38/15 20/39/17 19/40/15

v 21.4331 2.997 -13.0784
vt -43.7952 117.992
f 20/39/17 18/38/15 21/41/17

usemtl Color_D03
vn 0.0789102 1.35622e-024 0.996882
f 19/40/16 20/39/18 18/38/16

usemtl FrontColor
v 26.2395 6.58356e-021 -8.79143
vt -241.85 6.10407e-040
vt -51.2168 168.85
vt -52.6229 168.777
f 22/42/1 19/43/1 20/44/1

vt -49.8775 169.284
f 22/42/1 17/45/1 19/43/1

vt -48.6963 170.051
f 22/42/1 15/46/1 17/45/1

f 6/10/1 15/46/1 22/42/1

vt -47.7536 171.097
f 15/46/1 6/10/1 13/47/1

usemtl _Tile_Ceramic_Natural_14
vt -27.1497 -3.48274
vt -23.6701 -0.419413
f 22/48/2 15/49/2 6/11/2

vt -23.6914 -0.433218
f 17/50/2 15/49/2 22/48/2

vt -23.7156 -0.441045
f 19/51/2 17/50/2 22/48/2

vt -23.7409 -0.442361
f 20/52/2 19/51/2 22/48/2

usemtl FrontColor
v 21.4681 1.12238e-022 -13.0858
vt -54.0001 169.07
f 22/42/1 20/44/1 23/53/1

usemtl _Tile_Ceramic_Natural_14
vt -23.7657 -0.437077
f 23/54/2 20/52/2 22/48/2

usemtl FrontColor
vt -86.6334 117.992
vt -88.0415 5.09481e-021
vn -0.334233 -6.49507e-024 -0.94249
vt -86.6334 5.09346e-021
f 21/55/17 23/56/19 20/57/17

v 21.4681 2.997 -13.0858
vt -88.0415 117.992
f 23/56/19 21/55/17 24/58/19

usemtl Color_D03
vn 0.334233 6.49507e-024 0.94249
f 20/57/18 23/56/20 21/55/18

f 24/58/20 21/55/18 23/56/20

usemtl FrontColor
vt -124.928 117.992
v 21.4999 1.12294e-022 -13.1021
vt -126.336 5.61132e-021
vn -0.566779 -1.11913e-023 -0.82387
vt -124.928 5.6091e-021
f 24/59/19 25/60/21 23/61/19

v 21.4999 2.997 -13.1021
vt -126.336 117.992
f 25/60/21 24/59/19 26/62/21

usemtl Color_D03
vn 0.566779 1.11913e-023 0.82387
f 23/61/20 25/60/22 24/59/20

usemtl FrontColor
vt -55.2544 169.71
f 22/42/1 23/53/1 25/63/1

usemtl _Tile_Ceramic_Natural_14
vt -23.7883 -0.425551
f 25/64/2 23/54/2 22/48/2

usemtl FrontColor
v 21.5265 1.12368e-022 -13.126
vt -56.3003 170.653
f 22/42/1 25/63/1 27/65/1

usemtl _Tile_Ceramic_Natural_14
vt -23.8071 -0.40857
f 27/66/2 25/64/2 22/48/2

usemtl FrontColor
vt -154.66 117.992
vt -156.068 5.67195e-021
vn -0.7607 -1.51249e-023 -0.649104
vt -154.66 5.66903e-021
f 26/67/21 27/68/23 25/69/21

v 21.5265 2.997 -13.126
vt -156.068 117.992
f 27/68/23 26/67/21 28/70/23

usemtl Color_D03
vn 0.7607 1.51249e-023 0.649104
f 25/69/22 27/68/24 26/67/22

f 28/70/24 26/67/22 27/68/24

usemtl FrontColor
v 21.546 2.997 -13.156
vt -175.213 117.992
vn -0.90278 -1.80277e-023 -0.430103
vt -173.805 5.25296e-021
vt -173.805 117.992
f 29/71/25 27/72/23 28/73/23

v 21.546 1.12455e-022 -13.156
vt -175.213 5.25639e-021
f 27/72/23 29/71/25 30/74/25

usemtl Color_D03
vn 0.90278 1.80277e-023 0.430103
f 28/73/24 27/72/24 29/71/26

f 30/74/26 29/71/26 27/72/24

usemtl FrontColor
v 21.557 2.997 -13.19
vt -182.466 117.992
vt -181.058 4.46929e-021
vt -181.058 117.992
f 31/75/6 30/76/25 29/77/25

v 21.557 1.12549e-022 -13.19
vt -182.466 4.473e-021
f 30/76/25 31/75/6 32/78/6

usemtl Color_D03
f 29/77/26 30/76/26 31/75/3

f 32/78/3 31/75/3 30/76/26

usemtl FrontColor
v 21.5589 2.997 -13.2257
vt -177.331 117.992
vt -175.923 3.52622e-021
vt -175.923 117.992
f 33/79/5 32/80/6 31/81/6

v 21.5589 1.12644e-022 -13.2257
vt -177.331 3.52995e-021
f 32/80/6 33/79/5 34/82/5

usemtl Color_D03
f 31/81/3 32/80/3 33/79/4

f 34/82/4 33/79/4 32/80/3

usemtl FrontColor
v 21.5514 2.997 -13.2607
vt -160.16 117.992
vt -158.752 2.67611e-021
vt -158.752 117.992
f 35/83/8 34/84/5 33/85/5

v 21.5514 1.12733e-022 -13.2607
vt -160.16 2.67961e-021
f 34/84/5 35/83/8 36/86/8

usemtl Color_D03
f 33/85/4 34/84/4 35/83/7

f 36/86/7 35/83/7 34/84/4

usemtl FrontColor
v 21.5352 2.997 -13.2926
vt -132.122 117.992
vt -130.714 2.14786e-021
vt -130.714 117.992
f 37/87/10 36/88/8 35/89/8

v 21.5352 1.1281e-022 -13.2926
vt -132.122 2.15089e-021
f 36/88/8 37/87/10 38/90/10

usemtl Color_D03
f 35/89/7 36/88/7 37/87/9

f 38/90/9 37/87/9 36/88/7

usemtl FrontColor
v 21.5112 2.997 -13.3191
vt -95.1283 117.992
vt -93.7202 2.08553e-021
vt -93.7202 117.992
f 39/91/12 38/92/10 37/93/10

v 21.5112 1.1287e-022 -13.3191
vt -95.1283 2.08788e-021
f 38/92/10 39/91/12 40/94/12

usemtl Color_D03
f 37/93/9 38/92/9 39/91/11

f 40/94/11 39/91/11 38/92/9

usemtl FrontColor
vt -50.2915 117.992
v 21.4812 1.12908e-022 -13.3386
vt -51.6996 2.51106e-021
vt -50.2915 2.50955e-021
f 39/95/12 41/96/14 40/97/12

v 21.4812 2.997 -13.3386
vt -51.6996 117.992
f 41/96/14 39/95/12 42/98/14

usemtl Color_D03
f 40/97/11 41/96/13 39/95/11

usemtl FrontColor
vt -54.5172 179.023
v 26.2395 -1.67173e-024 -14.1135
vt -241.85 209.53
vt -55.6984 178.257
f 41/99/1 43/100/1 40/101/1

v 21.4472 1.12923e-022 -13.3496
vt -53.1778 179.457
f 44/102/1 43/100/1 41/99/1

v 21.4115 1.12912e-022 -13.3515
vt -51.7717 179.531
f 45/103/1 43/100/1 44/102/1

f 45/103/1 1/1/1 43/100/1

v 21.3765 1.12878e-022 -13.3441
vt -50.3946 179.237
f 46/104/1 1/1/1 45/103/1

v 21.3446 1.12822e-022 -13.3278
vt -49.1403 178.597
f 47/105/1 1/1/1 46/104/1

v 21.3181 1.12747e-022 -13.3039
vt -48.0943 177.655
f 48/106/1 1/1/1 47/105/1

f 4/4/1 1/1/1 48/106/1

usemtl _Tile_Ceramic_Natural_14
vt -23.6455 -0.303711
f 4/107/2 1/7/2 2/6/2

vt -23.6593 -0.282432
f 48/108/2 1/7/2 4/107/2

vt -23.6781 -0.265451
f 47/109/2 1/7/2 48/108/2

vt -23.7007 -0.253926
f 46/110/2 1/7/2 47/109/2

vt -23.7255 -0.248641
f 45/111/2 1/7/2 46/110/2

vt -27.1497 0.291774
f 43/112/2 1/7/2 45/111/2

usemtl Color_D03
v 26.2395 0.999 -14.1135
vt 241.85 39.3307
vn 0 0 1
vt 1.13687e-013 1.06568e-018
vt 241.85 0
f 49/113/27 1/114/27 43/115/27

v 20.0965 0.999 -14.1135
vt 0 39.3307
f 1/114/27 49/113/27 50/116/27

usemtl BackColor
vn -0 -0 -1
f 43/115/28 1/114/28 49/113/28

f 50/116/28 49/113/28 1/114/28

usemtl Translucent_Glass_Blue
v 20.0965 1.998 -14.1135
vt 0 78.6614
f 49/113/27 51/117/27 50/116/27

v 26.2395 1.998 -14.1135
vt 241.85 78.6614
f 51/117/27 49/113/27 52/118/27

f 50/116/28 51/117/28 49/113/28

usemtl Color_D03
v 20.0965 2.997 -14.1135
vt 209.53 117.992
vn 1 -1.63242e-018 -2.72243e-016
vt 209.53 39.3307
vt 209.53 78.6614
f 53/119/29 50/120/29 51/121/29

vt 209.53 1.06568e-018
f 53/119/29 1/122/29 50/120/29

v 20.0965 2.997 -8.85708
vt 2.58497 117.992
f 54/123/29 1/122/29 53/119/29

v 20.0965 2.997 -8.79143
vt -3.09504e-029 117.992
f 55/124/29 1/122/29 54/123/29

vt -3.09504e-029 1.06568e-018
f 1/122/29 55/124/29 3/125/29

usemtl BackColor
vn -1 1.63242e-018 2.72243e-016
f 3/125/30 55/124/30 1/122/30

usemtl Color_D03
v 20.2248 2.003 -8.79143
vt -5.05321 78.8583
vn 0 0 -1
vt -1.13687e-013 1.06568e-018
vt -1.13687e-013 117.992
f 56/126/31 3/127/31 55/128/31

vt -5.05321 5.42072e-019
f 3/127/31 56/126/31 5/129/31

usemtl BackColor
vn -0 -0 1
f 5/129/32 56/126/32 3/127/32

f 55/128/32 3/127/32 56/126/32

usemtl Color_D03
v 20.9341 2.003 -8.79143
vt -32.9778 78.8583
f 56/126/31 55/128/31 57/130/31

usemtl BackColor
f 57/130/32 55/128/32 56/126/32

usemtl Color_D03
v 26.2395 2.997 -8.79143
vt -241.85 117.992
f 58/131/31 57/130/31 55/128/31

vt -32.9778 2.79196e-019
f 58/131/31 6/132/31 57/130/31

vt -241.85 2.59261e-019
f 6/132/31 58/131/31 22/133/31

usemtl BackColor
f 22/133/32 58/131/32 6/132/32

usemtl Color_D03
v 26.2395 2.997 -14.1135
vt -209.53 117.992
vn -1 0 -0
vt 0 2.59261e-019
vt 0 117.992
f 59/134/33 22/135/33 58/136/33

v 26.2395 6.91081e-022 -13.0858
vt -169.07 2.72737e-020
f 22/135/33 59/134/33 60/137/33

usemtl BackColor
vn 1 -0 0
f 58/136/34 22/135/34 59/134/34

f 60/137/34 59/134/34 22/135/34

usemtl Color_D03
vt -209.53 0
f 60/137/33 59/134/33 43/138/33

usemtl BackColor
f 43/138/34 59/134/34 60/137/34

usemtl Color_D03
vt -209.53 78.6614
f 43/138/33 59/134/33 52/139/33

usemtl BackColor
f 52/139/34 59/134/34 43/138/34

usemtl Color_D03
vt 1.13687e-013 117.992
vt 241.85 117.992
f 53/140/27 52/118/27 59/141/27

f 52/118/27 53/140/27 51/117/27

usemtl BackColor
f 51/117/28 53/140/28 52/118/28

f 51/121/30 50/120/30 53/119/30

f 50/120/30 1/122/30 53/119/30

f 53/119/30 1/122/30 54/123/30

f 54/123/30 1/122/30 55/124/30

f 59/141/28 52/118/28 53/140/28

usemtl Translucent_Glass_Blue
f 52/118/28 49/113/28 51/117/28

usemtl Color_D03
vt -209.53 39.3307
f 43/138/33 52/139/33 49/142/33

usemtl BackColor
f 49/142/34 52/139/34 43/138/34

usemtl FrontColor
vt -241.85 169.07
f 22/42/1 43/100/1 60/143/1

vt -57.5742 174.579
f 22/42/1 34/144/1 43/100/1

vt -57.5012 173.173
f 22/42/1 32/145/1 34/144/1

vt -57.0667 171.834
f 22/42/1 30/146/1 32/145/1

f 22/42/1 27/65/1 30/146/1

usemtl _Tile_Ceramic_Natural_14
vt -23.8209 -0.387291
f 30/147/2 27/66/2 22/48/2

vt -23.8288 -0.363165
f 32/148/2 30/147/2 22/48/2

vt -23.8301 -0.337834
f 34/149/2 32/148/2 22/48/2

f 43/112/2 34/149/2 22/48/2

usemtl FrontColor
vt -57.2808 175.956
f 36/150/1 43/100/1 34/144/1

vt -56.641 177.211
f 38/151/1 43/100/1 36/150/1

f 40/101/1 43/100/1 38/151/1

usemtl _Tile_Ceramic_Natural_14
vt -23.7963 -0.271589
vt -23.775 -0.257784
f 40/152/2 43/112/2 41/153/2

vt -23.8133 -0.290431
f 38/154/2 43/112/2 40/152/2

vt -23.8248 -0.313026
f 36/155/2 43/112/2 38/154/2

f 34/149/2 43/112/2 36/155/2

vt -23.7509 -0.249957
f 41/153/2 43/112/2 44/156/2

f 44/156/2 43/112/2 45/111/2

usemtl FrontColor
vt 43.7952 4.28043e-021
v 21.4115 2.997 -13.3515
vt 42.3872 117.992
vt 42.3872 4.28002e-021
f 44/157/16 61/158/18 45/159/18

v 21.4472 2.997 -13.3496
vt 43.7952 117.992
f 61/158/18 44/157/16 62/160/16

usemtl Color_D03
f 45/159/17 61/158/17 44/157/15

usemtl FrontColor
v 21.3765 2.997 -13.3441
vt 86.6334 117.992
vt 88.0415 5.16373e-021
vt 88.0415 117.992
f 63/161/20 45/162/18 61/163/18

vt 86.6334 5.16237e-021
f 45/162/18 63/161/20 46/164/20

usemtl Color_D03
f 46/164/19 63/161/19 45/162/17

usemtl FrontColor
v 21.3446 2.997 -13.3278
vt 124.928 117.992
vt 126.336 5.72971e-021
vt 126.336 117.992
f 64/165/22 46/166/20 63/167/20

vt 124.928 5.72749e-021
f 46/166/20 64/165/22 47/168/22

usemtl Color_D03
f 47/168/21 64/165/21 46/166/19

usemtl FrontColor
v 21.3181 2.997 -13.3039
vt 154.66 117.992
vt 156.068 5.83174e-021
vt 156.068 117.992
f 65/169/24 47/170/22 64/171/22

vt 154.66 5.82882e-021
f 47/170/22 65/169/24 48/172/24

usemtl Color_D03
f 48/172/23 65/169/23 47/170/21

usemtl FrontColor
v 21.2986 2.997 -13.2739
vt 173.805 117.992
vt 175.213 5.4467e-021
vt 175.213 117.992
f 66/173/26 48/174/24 65/175/24

vt 173.805 5.44327e-021
f 48/174/24 66/173/26 4/176/26

usemtl Color_D03
f 4/176/25 66/173/25 48/174/23

usemtl FrontColor
vt 181.058 117.992
vt 182.466 4.68086e-021
vt 182.466 117.992
f 9/177/3 4/178/26 66/179/26

vt 181.058 4.67715e-021
f 4/178/26 9/177/3 2/180/3

usemtl Color_D03
f 2/180/6 9/177/6 4/178/25

f 9/17/6 2/14/6 8/15/5

f 66/179/25 4/178/25 9/177/6

f 65/175/23 48/174/23 66/173/25

f 64/171/21 47/170/21 65/169/23

f 63/167/19 46/166/19 64/165/21

f 61/163/17 45/162/17 63/161/19

f 62/160/15 44/157/15 61/158/17

usemtl FrontColor
vt -4.7956 3.31156e-021
vt -3.38756 117.992
vt -4.7956 117.992
f 44/181/16 42/182/14 62/183/16

vt -3.38756 3.31099e-021
f 42/182/14 44/181/16 41/184/14

usemtl Color_D03
f 41/184/13 44/181/15 42/182/13

f 62/183/15 42/182/13 44/181/15

f 42/98/13 39/95/11 41/96/13

usemtl _Tile_Ceramic_Natural_14
vt -27.1497 -0.437077
f 60/185/2 43/112/2 22/48/2

usemtl BackColor
f 57/130/32 6/132/32 58/131/32

f 55/128/32 57/130/32 58/131/32

usemtl Color_D03
f 26/62/22 24/59/20 25/60/22

f 21/41/18 18/38/16 20/39/18

usemtl _Tile_Ceramic_Natural_14
vt -23.6532 -0.400571
f 13/186/2 6/11/2 15/49/2

usemtl FrontColor
vt -47.1138 172.351
f 13/47/1 6/10/1 11/187/1

usemtl _Tile_Ceramic_Natural_14
vt -23.6416 -0.377976
f 11/188/2 6/11/2 13/186/2

usemtl FrontColor
f 11/187/1 6/10/1 7/12/1

usemtl _Tile_Ceramic_Natural_14
f 7/13/2 6/11/2 11/188/2

usemtl Color_D03
f 16/36/14 17/35/14 18/34/16

f 14/32/12 15/31/12 16/30/14

f 12/28/10 13/27/10 14/26/12

f 10/24/8 11/23/8 12/22/10

f 8/20/5 7/19/5 10/18/8

g Mesh2 LAB012 Model

l 38 40

l 36 38

l 34 36

l 32 34

l 30 32

l 27 30

l 25 27

l 23 25

l 20 23

l 19 20

l 17 19

l 15 17

l 13 15

l 11 13

l 7 11

l 2 7

l 4 2

l 48 4

l 47 48

l 46 47

l 45 46

l 44 45

l 41 44

l 40 41

g Mesh3 LAB012 Model

l 43 60

l 1 43

l 1 3

l 1 50

l 50 51

l 49 50

l 43 49

l 49 52

l 52 59

l 52 51

l 51 53

l 54 53

l 54 55

l 3 55

l 3 5

l 5 6

l 56 5

l 57 56

l 6 57

l 6 22

l 60 22

l 22 58

l 55 58

l 59 58

l 53 59

g Mesh4 LAB012 Model

l 29 31

l 28 29

l 26 28

l 24 26

l 21 24

l 18 21

l 16 18

l 14 16

l 12 14

l 10 12

l 8 10

l 9 8

l 66 9

l 65 66

l 64 65

l 63 64

l 61 63

l 62 61

l 42 62

l 39 42

l 37 39

l 35 37

l 33 35

l 31 33

