# Alias OBJ Model File
# Exported from SketchUp, (c) 2000-2012 Trimble Navigation Limited
# File units = meters

mtllib COM017.mtl

g Mesh1 COM017 Model

usemtl Color_D03
v 16.5392 4.06012 -58.4252
vt 149.054 2.34698e-011
vn 0.00610975 1.45295e-013 0.999981
v 14.6743 6.99012 -58.4138
vt 75.6339 115.354
v 14.6743 4.06012 -58.4138
vt 75.6339 2.31287e-011
f 1/1/1 2/2/1 3/3/1

v 16.5392 7.66012 -58.4252
vt 149.054 141.732
f 2/2/1 1/1/1 4/4/1

usemtl BackColor
vn -0.00610975 -1.45295e-013 -0.999981
f 3/3/2 2/2/2 1/1/2

usemtl Color_D03
v 14.6739 6.99012 -58.487
vt -155.024 115.354
vn -0.999981 0 0.00610975
vt -152.142 1.02318e-012
vt -152.142 115.354
f 5/5/3 3/6/3 2/7/3

v 14.6739 4.06012 -58.487
vt -155.024 1.02318e-012
f 3/6/3 5/5/3 6/8/3

usemtl BackColor
vn 0.999981 -0 -0.00610975
f 2/7/4 3/6/4 5/5/4

f 6/8/4 5/5/4 3/6/4

usemtl _7
v 14.6743 4.06012 -55.1464
vt -4.79084 11.3273
vn 2.05855e-014 -1 -1.53831e-014
vt -4.79069 12.0135
vt -4.79084 11.9984
f 7/9/5 6/10/5 3/11/5

v 12.8744 4.06012 -55.1312
vt -4.2032 11.3242
f 8/12/5 6/10/5 7/9/5

v 12.8744 4.06012 -58.4028
vt -4.2032 11.9962
f 9/13/5 6/10/5 8/12/5

v 12.874 4.06012 -58.476
vt -4.20305 12.0112
f 6/10/5 9/13/5 10/14/5

usemtl _Tile_Ceramic_Natural_14
vt -9.13046 41.4723
vn -2.05855e-014 1 1.53831e-014
vt -9.13078 41.4204
vt -10.407 41.4801
f 10/15/6 9/16/6 6/17/6

usemtl Color_D03
vt 155.024 6.82121e-013
vn 0.999981 0 -0.00610975
v 12.8744 6.99012 -58.4028
vt 152.142 115.354
vt 152.142 6.82121e-013
f 10/18/7 11/19/7 9/20/7

v 12.874 6.99012 -58.476
vt 155.024 115.354
f 11/19/7 10/18/7 12/21/7

usemtl BackColor
vn -0.999981 -0 0.00610975
f 9/20/8 11/19/8 10/18/8

usemtl Color_D03
v 12.7769 7.66012 -58.4022
vt 0.929569 141.732
vt 4.76892 2.27877e-011
vt 4.76892 115.354
f 13/22/1 9/23/1 11/24/1

v 12.7769 4.06012 -58.4022
vt 0.929569 2.21056e-011
f 9/23/1 13/22/1 14/25/1

usemtl BackColor
f 14/25/2 13/22/2 9/23/2

usemtl Color_D03
vt 152.14 141.732
vn 0.999965 -4.94148e-014 -0.00841171
v 12.7838 4.06012 -57.5777
vt 119.678 9.24345e-012
vt 152.14 6.32412e-014
f 13/26/9 15/27/9 14/28/9

v 12.7991 4.06012 -55.7566
vt 47.9775 5.23599e-012
f 13/26/9 16/29/9 15/27/9

v 12.8044 7.66012 -55.1306
vt 23.3343 141.732
f 17/30/9 16/29/9 13/26/9

v 12.8044 7.06012 -55.1306
vt 23.3343 118.11
f 18/31/9 16/29/9 17/30/9

v 12.8044 4.06012 -55.1306
vt 23.3343 1.48433e-012
f 16/29/9 18/31/9 19/32/9

usemtl _7
vt 17.9631 0.833966
vn -0.999965 4.94148e-014 0.00841171
vt 17.9631 1.45018
vt 18.1675 0.833966
f 19/33/10 18/34/10 16/35/10

usemtl Color_D03
v 12.8744 6.98612 -55.1312
vt -4.03571 115.197
vn -0.00841171 -2.92658e-014 -0.999965
vt -1.2798 2.10398e-012
vt -1.2798 118.11
f 20/36/11 19/37/11 18/38/11

vt -4.03571 2.04714e-012
f 19/37/11 20/36/11 8/39/11

usemtl _7
vt -4.35445 0.833966
vn 0.00841171 2.92658e-014 0.999965
vt -4.35445 1.43498
vt -4.3316 0.833966
f 8/40/12 20/41/12 19/42/12

vt -4.3316 1.45018
f 18/43/12 19/42/12 20/41/12

usemtl Color_D03
v 12.8744 6.99012 -55.1312
vt -4.03571 115.354
f 20/36/11 18/38/11 21/44/11

usemtl _7
vt -4.35445 1.4358
f 21/45/12 18/43/12 20/41/12

usemtl Color_D03
v 12.8744 7.06012 -55.1312
vt -4.03571 118.11
f 21/44/11 18/38/11 22/46/11

usemtl _7
vt -4.35445 1.45018
f 22/47/12 18/43/12 21/45/12

usemtl Color_D03
vt -1.2798 141.732
f 22/46/11 18/38/11 17/48/11

usemtl _7
vt -4.3316 1.57342
f 17/49/12 18/43/12 22/47/12

vt 17.9631 1.57342
f 17/50/10 16/35/10 18/34/10

vt 19.0312 1.57342
f 13/51/10 16/35/10 17/50/10

vt 18.762 0.833966
f 15/52/10 16/35/10 13/51/10

vt -4.17363 11.8267
vt -4.17863 11.4526
f 15/53/5 9/13/5 16/54/5

vt -4.17136 11.9961
f 9/13/5 15/53/5 14/55/5

usemtl _Tile_Ceramic_Natural_14
vt -9.06162 41.42
vt -9.06654 40.8352
f 14/56/6 15/57/6 9/16/6

usemtl _7
vt 19.0312 0.833966
f 14/58/10 15/52/10 13/51/10

usemtl _Tile_Ceramic_Natural_14
vt -9.0774 39.5437
f 16/59/6 9/16/6 15/57/6

usemtl _7
vt -4.18035 11.3241
f 16/54/5 9/13/5 19/60/5

usemtl _Tile_Ceramic_Natural_14
vt -9.08114 39.0998
f 19/61/6 9/16/6 16/59/6

usemtl _7
f 19/60/5 9/13/5 8/12/5

usemtl _Tile_Ceramic_Natural_14
vt -9.13078 39.1002
f 8/62/6 9/16/6 19/61/6

f 8/62/6 6/17/6 9/16/6

vt -10.4073 39.1109
f 7/63/6 6/17/6 8/62/6

vt -10.4073 41.4282
f 3/64/6 6/17/6 7/63/6

usemtl _7
vt -5.39966 12.0008
f 7/9/5 3/11/5 1/65/5

usemtl _Tile_Ceramic_Natural_14
vt -11.7299 41.4363
f 1/66/6 3/64/6 7/63/6

usemtl _7
v 14.8293 4.06012 -55.1477
vt -4.84144 11.3276
f 7/9/5 1/65/5 23/67/5

usemtl _Tile_Ceramic_Natural_14
vt -10.5173 39.1118
f 23/68/6 1/66/6 7/63/6

usemtl _7
v 14.8345 4.06012 -54.5377
vt -4.84311 11.2023
f 23/67/5 1/65/5 24/69/5

usemtl _Tile_Ceramic_Natural_14
vt -10.5209 38.6792
f 24/70/6 1/66/6 23/68/6

usemtl _7
v 16.5445 4.06012 -57.5545
vt -5.4014 11.8219
f 24/69/5 1/65/5 25/71/5

usemtl _Tile_Ceramic_Natural_14
vt -11.7337 40.8188
f 25/72/6 1/66/6 24/70/6

usemtl _7
v 16.5442 4.06012 -57.6007
vt -5.4013 11.8314
f 25/71/5 1/65/5 26/73/5

usemtl _Tile_Ceramic_Natural_14
vt -11.7335 40.8515
f 26/74/6 1/66/6 25/72/6

usemtl _7
vt 19.0411 1.57342
vn 0.999981 -6.45867e-014 -0.00610975
vt 18.772 0.833966
vt 19.0411 0.833966
f 4/75/13 26/76/13 1/77/13

v 16.5445 6.99012 -57.5545
vt 18.7569 1.4358
f 4/75/13 27/78/13 26/76/13

v 16.5555 6.99012 -55.7566
vt 18.1699 1.4358
f 4/75/13 28/79/13 27/78/13

v 16.5586 7.66012 -55.2372
vt 18.0003 1.57342
f 29/80/13 28/79/13 4/75/13

v 16.5555 4.06012 -55.7566
vt 18.1699 0.833966
f 29/80/13 30/81/13 28/79/13

v 16.5586 4.06012 -55.2372
vt 18.0003 0.833966
f 30/81/13 29/80/13 31/82/13

usemtl Color_D03
vt 26.6303 1.03943e-011
vn -0.999981 6.45867e-014 0.00610975
vt 26.6303 141.732
vt 47.0768 1.53681e-011
f 31/83/14 29/84/14 30/85/14

v 16.5644 4.06012 -54.5523
vt 0.681408 2.42015e-011
vn -0.999965 1.5868e-013 0.00841171
vt -26.2871 141.732
vt -26.2871 2.44289e-011
f 32/86/15 29/87/15 31/88/15

v 16.5644 7.66012 -54.5523
vt 0.681408 141.732
f 29/87/15 32/86/15 33/89/15

usemtl _7
vt -17.764 1.57342
vn 0.999965 -1.5868e-013 -0.00841171
vt -17.764 0.833966
vt -17.9876 1.57342
f 33/90/16 32/91/16 29/92/16

usemtl Color_D03
vt -81.0042 8.88413e-013
vn -0.00841171 1.07725e-014 -0.999965
vt -149.114 141.732
vt -149.114 5.47353e-013
f 24/93/17 33/94/17 32/95/17

v 14.8345 7.66012 -54.5377
vt -81.0042 141.732
f 33/94/17 24/93/17 34/96/17

usemtl _7
vt -5.55752 0.833966
vn 0.00841171 -1.07725e-014 0.999965
vt -5.55752 1.57342
vt -4.99272 0.833966
f 32/97/18 33/98/18 24/99/18

vt -4.99272 1.57342
f 34/100/18 24/99/18 33/98/18

usemtl Color_D03
vt 23.3343 1.07214e-011
vn 0.999965 -1.20075e-013 -0.00841171
vt -0.681408 141.732
vt -0.681408 1.06077e-011
f 23/101/19 34/102/19 24/103/19

v 14.8293 7.66012 -55.1477
f 34/102/19 23/101/19 35/30/19

usemtl _7
vt 17.764 0.833966
vn -0.999965 1.20075e-013 0.00841171
vt 17.764 1.57342
f 24/104/20 34/105/20 23/33/20

f 35/50/20 23/33/20 34/105/20

usemtl Color_D03
vt -74.9018 1.70608e-012
vt -81.0042 1.67766e-012
f 7/106/11 35/96/11 23/107/11

v 14.6743 6.98612 -55.1464
vt -74.9018 115.197
f 35/96/11 7/106/11 36/108/11

usemtl _7
vt -4.94211 0.833966
f 23/99/12 35/100/12 7/109/12

vt -4.94211 1.43498
f 36/110/12 7/109/12 35/100/12

usemtl Color_D03
v 14.6743 6.99012 -55.1464
vt -74.9018 115.354
f 35/96/11 36/108/11 37/111/11

usemtl _7
vt -4.94211 1.4358
f 37/112/12 36/110/12 35/100/12

usemtl Color_D03
v 14.6743 7.06012 -55.1464
vt -74.9018 118.11
f 35/96/11 37/111/11 38/113/11

usemtl _7
vt -4.94211 1.45018
f 38/114/12 37/112/12 35/100/12

usemtl Color_D03
f 35/96/11 38/113/11 22/46/11

usemtl _7
f 22/47/12 38/114/12 35/100/12

usemtl Color_D03
f 35/96/11 22/46/11 17/48/11

usemtl _7
f 17/49/12 22/47/12 35/100/12

vt -5.40602 11.346
vt -5.4079 11.2053
f 24/69/5 31/115/5 32/116/5

f 24/69/5 25/71/5 31/115/5

usemtl _Tile_Ceramic_Natural_14
vt -11.7437 39.1753
f 31/117/6 25/72/6 24/70/6

usemtl _7
vt -5.40498 11.4526
f 31/115/5 25/71/5 30/118/5

usemtl _Tile_Ceramic_Natural_14
vt -11.7415 39.5437
f 30/119/6 25/72/6 31/117/6

usemtl _7
v 16.6305 4.06012 -57.5551
vt -5.42948 11.8221
f 39/120/5 30/118/5 25/71/5

v 16.6456 4.06012 -55.7571
vt -5.43442 11.4527
f 30/118/5 39/120/5 40/121/5

usemtl _Tile_Ceramic_Natural_14
vt -11.7947 40.8192
f 25/72/6 30/119/6 39/122/6

vt -11.8054 39.5441
f 40/123/6 39/122/6 30/119/6

usemtl _7
vt -5.5161 0.833966
vn -0.00610975 1.23439e-016 -0.999981
v 16.6305 6.99012 -57.5551
vt -5.54418 1.4358
vt -5.54418 0.833966
f 25/124/21 41/125/21 39/126/21

vt -5.5161 1.4358
f 41/125/21 25/124/21 27/127/21

usemtl Color_D03
vt -152.44 6.63613e-012
vn 0.00610975 -1.23439e-016 0.999981
vt -152.44 115.354
vt -149.054 1.23205e-011
f 39/128/22 41/129/22 25/130/22

vt -149.054 115.354
f 27/131/22 25/130/22 41/129/22

usemtl _7
vt 18.7569 0.833966
f 26/76/13 27/78/13 25/132/13

usemtl Color_D03
vt 117.864 2.19619e-011
vt 117.864 115.354
vt 119.68 2.21324e-011
f 25/133/14 27/134/14 26/135/14

vt 152.142 141.732
f 26/135/14 27/134/14 4/136/14

vt 47.0768 115.354
f 27/134/14 28/137/14 4/136/14

f 4/136/14 28/137/14 29/84/14

f 28/137/14 30/85/14 29/84/14

vt 152.142 1.09911e-011
f 1/138/14 26/135/14 4/136/14

usemtl BackColor
f 4/4/2 1/1/2 2/2/2

usemtl Color_D03
f 2/2/1 4/4/1 13/22/1

usemtl BackColor
f 13/22/2 4/4/2 2/2/2

usemtl Color_D03
f 13/22/1 11/24/1 2/2/1

usemtl BackColor
f 11/24/2 9/23/2 13/22/2

f 2/2/2 11/24/2 13/22/2

usemtl _Tile_Ceramic_Natural_14
vt -11.7478 38.6895
f 32/139/6 31/117/6 24/70/6

usemtl _7
vt -17.9876 0.833966
f 31/140/16 29/92/16 32/91/16

usemtl BackColor
f 12/21/8 10/18/8 11/19/8

g Mesh2 COM017 Model

l 14 9

l 14 13

l 15 14

l 16 15

l 19 16

l 8 19

l 8 7

l 8 20

l 20 21

l 21 22

l 22 38

l 37 38

l 36 37

l 7 36

l 7 23

l 24 23

l 24 32

l 24 34

l 34 35

l 34 33

l 32 33

l 32 31

l 31 29

l 30 31

l 30 28

l 30 40

l 39 40

l 25 39

l 25 27

l 26 25

l 1 26

l 3 1

l 3 2

l 3 6

l 6 10

l 6 5

l 2 5

l 2 11

l 9 11

l 9 10

l 10 12

l 11 12

l 1 4

l 13 4

l 17 13

l 17 18

l 17 35

l 23 35

l 19 18

l 4 29

l 33 29

l 27 28

l 27 41

l 41 39

g Mesh3 Model

v 145.914 3.3 -184.316
v 145.914 3.33 -184.316
l 42 43

g Mesh4 Model

v 138.951 3.33 -157.425
v 138.951 3.3 -157.425
l 44 45

