# Alias OBJ Model File
# Exported from SketchUp, (c) 2000-2012 Trimble Navigation Limited
# File units = meters

mtllib COM026.mtl

g Mesh1 COM026 Model

usemtl _7
v 7.80651 4.06012 -30.4877
vt -2.54865 6.26231
vn -1.05335e-014 -1 3.70321e-016
v 5.9036 4.06012 -30.2317
vt -1.92739 6.20972
v 5.90158 4.06012 -30.4717
vt -1.92673 6.25902
f 1/1/1 2/2/1 3/3/1

v 5.91075 4.06012 -29.3818
vt -1.92973 6.03514
f 2/2/1 1/1/1 4/4/1

usemtl _Tile_Ceramic_Natural_14
vt -4.18552 21.6111
vn 1.05335e-014 1 -3.70321e-016
vt -4.18695 21.4409
vt -5.53653 21.6225
f 3/5/2 2/6/2 1/7/2

usemtl Color_D03
vt 74.3717 8.88224e-013
vn 0.999965 -4.5973e-014 -0.00841171
v 5.9036 7.06012 -30.2317
vt 64.9229 118.11
vt 64.9229 1.03033e-012
f 3/8/3 5/9/3 2/10/3

v 5.90158 7.66012 -30.4717
vt 74.3717 141.732
f 6/11/3 5/9/3 3/8/3

v 5.91075 7.06012 -29.3818
vt 31.4584 118.11
f 6/11/3 7/12/3 5/9/3

v 5.91748 7.66012 -28.5818
vt -0.0377122 141.732
f 8/13/3 7/12/3 6/11/3

vt 31.4584 1.45666e-012
f 8/13/3 4/14/3 7/12/3

v 5.91748 4.06012 -28.5818
vt -0.0377122 1.25771e-012
f 4/14/3 8/13/3 9/15/3

usemtl _7
vt 9.31472 0.833966
vn -0.999965 4.5973e-014 0.00841171
vt 9.31472 1.57342
vt 9.5759 0.833966
f 9/16/4 8/17/4 4/18/4

usemtl Color_D03
vt -4.48314 141.732
vn -0.00841171 -4.45127e-014 -0.999965
v 5.96748 4.06012 -28.5822
vt -6.45164 1.04992e-012
vt -4.48314 1.04992e-012
f 8/19/5 10/20/5 9/21/5

v 5.96748 7.06012 -28.5822
vt -6.45164 118.11
f 10/20/5 8/19/5 11/22/5

usemtl _7
vt -2.01035 0.833966
vn 0.00841171 4.45127e-014 0.999965
vt -2.02667 0.833966
vt -2.01035 1.57342
f 9/23/6 10/24/6 8/25/6

vt -1.93192 5.87082
vt -1.94825 5.87091
f 9/26/1 1/1/1 10/27/1

f 4/4/1 1/1/1 9/26/1

usemtl _Tile_Ceramic_Natural_14
vt -4.19202 20.8381
f 4/28/2 1/7/2 2/6/2

vt -4.19679 20.2708
f 9/29/2 1/7/2 4/28/2

vt -4.23225 20.2711
f 10/30/2 1/7/2 9/29/2

usemtl _7
v 6.81745 4.06012 -28.5894
vt -2.22574 5.87237
f 10/27/1 1/1/1 12/31/1

usemtl _Tile_Ceramic_Natural_14
vt -4.83507 20.2761
f 12/32/2 1/7/2 10/30/2

usemtl _7
v 7.80693 4.06012 -30.4377
vt -2.54879 6.25204
f 12/31/1 1/1/1 13/33/1

usemtl _Tile_Ceramic_Natural_14
vt -5.53683 21.587
f 13/34/2 1/7/2 12/32/2

usemtl _7
v 7.80651 7.66012 -30.4877
vt 9.93176 1.57342
vn 0.999965 1.23544e-014 -0.00841171
vt 9.91544 0.833966
vt 9.93176 0.833966
f 14/35/7 13/36/7 1/37/7

v 7.80695 7.06012 -30.4357
vt 9.91477 1.45018
f 14/35/7 15/38/7 13/36/7

v 7.82207 7.06012 -28.6378
vt 9.32778 1.45018
f 14/35/7 16/39/7 15/38/7

v 7.82241 7.66012 -28.5978
f 17/17/7 16/39/7 14/35/7

v 7.82207 4.06012 -28.6378
vt 9.32778 0.833966
f 17/17/7 18/40/7 16/39/7

v 7.82241 4.06012 -28.5978
f 18/40/7 17/17/7 19/16/7

usemtl Color_D03
vt -0.0377122 -8.68283e-013
vn -0.999965 -1.23544e-014 0.00841171
vt 1.53709 -9.81969e-013
f 19/41/8 17/13/8 18/42/8

vt -39.9162 2.25695e-013
vt -79.4831 141.732
vt -79.4831 1.12008e-013
f 12/43/5 17/44/5 19/45/5

v 6.81745 7.06012 -28.5894
vt -39.9162 118.11
f 17/44/5 12/43/5 20/46/5

usemtl _7
vt -2.63229 0.833966
vt -2.63229 1.57342
vt -2.30418 0.833966
f 19/47/6 17/48/6 12/49/6

vt -2.30418 1.45018
f 20/50/6 12/49/6 17/48/6

usemtl Color_D03
f 17/44/5 20/46/5 11/22/5

usemtl _7
vt -2.02667 1.45018
f 11/51/6 20/50/6 17/48/6

usemtl Color_D03
f 11/22/5 8/19/5 17/44/5

usemtl _7
f 11/51/6 8/25/6 10/24/6

f 17/48/6 8/25/6 11/51/6

vt -2.55384 5.87411
f 12/31/1 13/33/1 19/52/1

usemtl _Tile_Ceramic_Natural_14
vt -5.54781 20.2821
f 19/53/2 13/34/2 12/32/2

usemtl _7
vt -2.55373 5.88233
f 19/52/1 13/33/1 18/54/1

usemtl _Tile_Ceramic_Natural_14
vt -5.54757 20.3105
f 18/55/2 13/34/2 19/53/2

usemtl Color_D03
vt 1.53709 118.11
f 16/56/8 18/42/8 17/13/8

usemtl _7
v 7.82207 6.99012 -28.6378
vt 9.32778 1.4358
f 21/57/7 16/39/7 18/40/7

usemtl Color_D03
vt 1.53709 115.354
f 18/42/8 16/56/8 21/58/8

f 14/11/8 16/56/8 17/13/8

vt 72.3229 118.11
f 15/59/8 16/56/8 14/11/8

vt 72.4032 -6.69331e-013
f 13/60/8 15/59/8 14/11/8

vt 74.3717 -6.69331e-013
f 1/61/8 13/60/8 14/11/8

vt 79.4831 141.732
vn 0.00841171 -4.48499e-015 0.999965
vt 4.48314 3.48564e-013
vt 79.4831 -2.09179e-014
f 14/62/9 3/63/9 1/64/9

vt 4.48314 141.732
f 3/63/9 14/62/9 6/65/9

usemtl _7
vt 2.63229 0.833966
vn -0.00841171 4.48499e-015 -0.999965
vt 2.01035 0.833966
vt 2.63229 1.57342
f 1/66/10 3/67/10 14/68/10

vt 2.01035 1.57342
f 6/69/10 14/68/10 3/67/10

vt 9.85341 1.45018
f 3/37/4 5/70/4 6/35/4

vt 9.85341 0.833966
f 2/71/4 5/70/4 3/37/4

usemtl Color_D03
v 5.8036 7.06012 -30.2309
vt 0.546132 118.11
vt 4.48314 5.33051e-013
vt 4.48314 118.11
f 22/72/9 2/73/9 5/74/9

v 5.8036 4.06012 -30.2309
vt 0.546132 3.62521e-013
f 2/73/9 22/72/9 23/75/9

usemtl _7
vt 1.9777 0.833966
vt 1.9777 1.45018
f 23/76/10 22/77/10 2/67/10

vt 2.01035 1.45018
f 5/78/10 2/67/10 22/77/10

v 5.81075 4.06012 -29.3809
vt -1.89708 6.03496
vt -1.89474 6.20955
f 2/2/1 24/79/1 23/80/1

f 24/79/1 2/2/1 4/4/1

usemtl _Tile_Ceramic_Natural_14
vt -4.11603 21.4403
vt -4.1211 20.8375
f 23/81/2 24/82/2 2/6/2

f 4/28/2 2/6/2 24/82/2

usemtl Color_D03
vt -0.546132 3.39839e-012
vn -0.00841171 -6.7372e-014 -0.999965
vt -4.48314 118.11
vt -4.48314 3.36997e-012
f 24/83/11 7/84/11 4/85/11

v 5.81075 7.06012 -29.3809
vt -0.546132 118.11
f 7/84/11 24/83/11 25/86/11

usemtl _7
vn 0.00841171 6.7372e-014 0.999965
vt -2.01035 1.45018
vt -1.9777 0.833966
f 4/23/12 7/87/12 24/88/12

vt 9.5759 1.45018
f 7/89/4 4/18/4 8/17/4

f 6/35/4 7/89/4 8/17/4

f 5/70/4 7/89/4 6/35/4

vt -1.9777 1.45018
f 25/90/12 24/88/12 7/87/12

g Mesh2 COM026 Model

l 9 8

l 9 10

l 4 9

l 4 7

l 4 24

l 24 23

l 24 25

l 7 25

l 5 7

l 2 5

l 2 23

l 2 3

l 1 3

l 13 1

l 18 13

l 19 18

l 12 19

l 10 12

l 10 11

l 11 20

l 12 20

l 19 17

l 8 17

l 8 6

l 3 6

l 14 6

l 17 14

l 1 14

l 21 18

l 16 21

l 15 16

l 13 15

l 23 22

l 22 5

g Mesh3 Model

v 145.914 3.3 -184.316
v 145.914 3.33 -184.316
l 26 27

g Mesh4 Model

v 138.951 3.33 -157.425
v 138.951 3.3 -157.425
l 28 29

