# Alias OBJ Model File
# Exported from SketchUp, (c) 2000-2012 Trimble Navigation Limited
# File units = meters

mtllib COM019.mtl

g Mesh1 COM019 Model

usemtl Color_D03
v 12.6769 7.66012 -58.4003
vt 158.457 141.732
vn 0.0185707 4.11281e-012 0.999828
v 12.6334 4.06012 -58.3995
vt 156.745 6.25464e-010
v 12.6769 4.06012 -58.4003
vt 158.457 6.25009e-010
f 1/1/1 2/2/1 3/3/1

v 12.6334 6.99012 -58.3995
vt 156.745 115.354
f 2/2/1 1/1/1 4/4/1

usemtl BackColor
vn -0.0185707 -4.11281e-012 -0.999828
f 3/3/2 2/2/2 1/1/2

usemtl _7
v 12.6344 4.06012 -55.1292
vt -4.12485 11.3238
vn -1.11132e-013 -1 -4.81662e-014
vt -4.12452 11.9955
vt -4.13872 11.9957
f 5/5/3 2/6/3 3/7/3

v 12.6321 4.06012 -58.4727
vt -4.12408 12.0105
f 5/5/3 6/8/3 2/6/3

v 10.8355 4.06012 -58.3661
vt -3.53754 11.9887
f 5/5/3 7/9/3 6/8/3

v 10.8345 4.06012 -55.1141
vt -3.53721 11.3207
f 8/10/3 7/9/3 5/5/3

v 10.6795 4.06012 -55.1128
vt -3.48661 11.3204
f 9/11/3 7/9/3 8/10/3

v 8.95467 4.06012 -54.4882
vt -2.9235 11.1921
f 10/12/3 7/9/3 9/11/3

v 8.94891 4.06012 -55.1732
vt -2.92161 11.3328
f 11/13/3 7/9/3 10/12/3

v 8.83634 4.06012 -58.329
vt -2.88486 11.981
f 11/13/3 12/14/3 7/9/3

v 8.83634 4.06012 -57.5536
vt -2.88486 11.8217
f 11/13/3 13/15/3 12/14/3

v 8.83634 4.06012 -55.7566
vt -2.88486 11.4526
f 11/13/3 14/16/3 13/15/3

v 8.83634 4.06012 -55.1723
vt -2.88486 11.3326
f 14/16/3 11/13/3 15/17/3

usemtl _Tile_Ceramic_Natural_14
vt -6.26691 39.1293
vn 1.11132e-013 1 4.81662e-014
vt -6.34674 39.1299
vt -6.26691 39.5437
f 15/18/4 11/19/4 14/20/4

usemtl Color_D03
vt -4.64701 1.64636e-011
vn -0.00841171 -1.40143e-014 -0.999965
v 8.94891 7.66012 -55.1732
vt -9.07906 141.732
vt -9.07906 1.54972e-011
f 15/21/5 16/22/5 11/23/5

v 8.83634 7.66012 -55.1723
vt -4.64701 141.732
f 16/22/5 15/21/5 17/24/5

usemtl _7
vt -3.07303 0.833966
vn 0.00841171 1.40143e-014 0.999965
vt -3.07303 1.57342
vt -3.03628 0.833966
f 11/25/6 16/26/6 15/27/6

usemtl Color_D03
vt 26.8921 141.732
vn 0.999965 2.44785e-017 -0.00841171
vt -0.0763731 1.4978e-011
vt 26.8921 1.51201e-011
f 16/28/7 10/29/7 11/30/7

v 8.95467 7.66012 -54.4882
vt -0.0763731 141.732
f 10/29/7 16/28/7 18/31/7

usemtl _7
vt 17.764 1.57342
vn -0.999965 -2.44785e-017 0.00841171
vt 17.9876 1.57342
vt 17.764 0.833966
f 18/32/8 16/33/8 10/34/8

vt 17.9876 0.833966
f 11/35/8 10/34/8 16/33/8

usemtl _Tile_Ceramic_Natural_14
vt -6.35083 38.6441
vt -7.68474 41.3944
f 10/36/4 7/37/4 11/19/4

vt -7.5741 39.0871
f 9/38/4 7/37/4 10/36/4

vt -7.68402 39.088
f 8/39/4 7/37/4 9/38/4

vt -8.96057 39.0987
f 5/40/4 7/37/4 8/39/4

vt -8.95891 41.47
f 6/41/4 7/37/4 5/40/4

usemtl _7
v 10.8341 4.06012 -58.4393
vt -3.53709 12.0037
f 6/8/3 7/9/3 19/42/3

usemtl _Tile_Ceramic_Natural_14
vt -7.68377 41.4463
f 19/43/4 7/37/4 6/41/4

usemtl Color_D03
vt 153.984 1.86731e-011
vn 0.999828 -1.97489e-020 -0.0185707
v 10.8355 6.99012 -58.3661
vt 151.103 115.354
vt 151.103 2.26805e-011
f 19/44/9 20/45/9 7/46/9

v 10.8341 6.99012 -58.4393
vt 153.984 115.354
f 20/45/9 19/44/9 21/47/9

usemtl BackColor
vn -0.999828 1.97489e-020 0.0185707
f 7/46/10 20/45/10 19/44/10

usemtl Color_D03
vt 85.948 115.354
vt 7.22797 6.64913e-010
vt 85.948 6.44137e-010
f 20/48/1 12/49/1 7/50/1

v 8.83634 7.66012 -58.329
vt 7.22797 141.732
f 12/49/1 20/48/1 22/51/1

usemtl BackColor
f 7/50/2 12/49/2 20/48/2

usemtl _Tile_Ceramic_Natural_14
vt -6.26691 41.3681
f 7/37/4 12/52/4 11/19/4

vt -6.26691 40.8181
f 12/52/4 13/53/4 11/19/4

usemtl _7
vt -18.7899 0.833966
vn -1 -1.43729e-014 -6.81179e-014
vt -19.0431 1.57342
vt -19.0431 0.833966
f 13/54/11 22/55/11 12/56/11

v 8.83634 6.99012 -57.5536
vt -18.7899 1.4358
f 23/57/11 22/55/11 13/54/11

v 8.83634 6.99012 -55.7566
vt -18.2033 1.4358
f 24/58/11 22/55/11 23/57/11

vt -18.0125 1.57342
f 24/58/11 17/59/11 22/55/11

vt -18.0125 0.833966
f 17/59/11 24/58/11 15/60/11

usemtl Color_D03
vt -26.9303 1.60232e-011
vn 1 1.43729e-014 6.81179e-014
vt -49.9339 115.354
vt -26.9303 141.732
f 15/61/12 24/62/12 17/63/12

usemtl _7
vt -18.2033 0.833966
f 14/64/11 15/60/11 24/58/11

usemtl Color_D03
vt -49.9339 2.10822e-011
f 24/62/12 15/61/12 14/65/12

usemtl _7
v 8.72405 6.99012 -55.7566
vt 2.84821 1.4358
vn 0 0 1
vt 2.88486 0.833966
vt 2.88486 1.4358
f 25/66/13 14/67/13 24/68/13

v 8.72405 4.06012 -55.7566
vt 2.84821 0.833966
f 14/67/13 25/66/13 26/69/13

usemtl Color_D03
vt 9.89075e-012 2.10036e-011
vn -0 -0 -1
vt 0 115.354
vt 4.42063 2.11458e-011
f 26/70/14 25/71/14 14/72/14

vt 4.42063 115.354
f 24/73/14 14/72/14 25/71/14

usemtl _7
v 8.72405 4.06012 -57.5536
vt -2.84821 11.8217
vt -2.84821 11.4526
f 27/74/3 14/16/3 26/75/3

f 14/16/3 27/74/3 13/15/3

usemtl _Tile_Ceramic_Natural_14
vt -6.18727 39.5437
vt -6.18727 40.8181
f 26/76/4 14/20/4 27/77/4

f 13/53/4 27/77/4 14/20/4

usemtl _7
v 8.72405 6.99012 -57.5536
vt -2.84821 1.4358
vn 0 0 -1
vt -2.88486 0.833966
vt -2.84821 0.833966
f 28/78/15 13/79/15 27/80/15

vt -2.88486 1.4358
f 13/79/15 28/78/15 23/81/15

usemtl Color_D03
vt -1.02318e-011 3.65787e-011
vn -0 -0 1
vt -4.42063 3.67208e-011
vt -1.17097e-011 115.354
f 27/82/16 13/83/16 28/84/16

vt -4.42063 115.354
f 23/85/16 28/84/16 13/83/16

vt -120.682 3.66573e-011
vt -151.211 141.732
vt -120.682 115.354
f 13/86/12 22/87/12 23/88/12

vt -151.211 4.33933e-011
f 12/89/12 22/87/12 13/86/12

usemtl BackColor
f 22/51/2 20/48/2 12/49/2

usemtl Color_D03
f 22/51/1 20/48/1 1/1/1

usemtl BackColor
f 1/1/2 20/48/2 22/51/2

usemtl Color_D03
v 10.8945 6.99012 -58.3672
vt 88.2708 115.354
f 29/90/1 1/1/1 20/48/1

f 4/4/1 1/1/1 29/90/1

usemtl BackColor
f 4/4/2 1/1/2 2/2/2

f 29/90/2 1/1/2 4/4/2

f 20/48/2 1/1/2 29/90/2

usemtl Color_D03
v 12.6321 6.99012 -58.4727
vt -153.984 115.354
vn -0.999828 -3.50329e-010 0.0185707
vt -151.103 -5.49083e-008
vt -151.103 115.354
f 30/91/17 2/92/17 4/93/17

vt -153.984 -5.49123e-008
f 2/92/17 30/91/17 6/94/17

usemtl BackColor
vn 0.999828 3.50329e-010 -0.0185707
f 4/93/18 2/92/18 30/91/18

f 6/94/18 30/91/18 2/92/18

usemtl _Tile_Ceramic_Natural_14
vt -8.95987 41.4181
f 2/95/4 6/41/4 5/40/4

vt -8.9907 41.4187
f 3/96/4 2/95/4 5/40/4

usemtl _7
v 12.6991 4.06012 -55.7566
vt -4.14598 11.4526
f 5/5/3 3/7/3 31/97/3

usemtl _Tile_Ceramic_Natural_14
vt -9.00648 39.5437
f 31/98/4 3/96/4 5/40/4

usemtl _7
v 12.6838 4.06012 -57.5771
vt -4.14098 11.8266
f 31/97/3 3/7/3 32/99/3

usemtl _Tile_Ceramic_Natural_14
vt -8.99562 40.8348
f 32/100/4 3/96/4 31/98/4

usemtl Color_D03
vt -120.292 2.79782e-011
vn -0.999965 5.91195e-014 0.00841171
vt -152.705 141.732
vt -152.705 1.28294e-011
f 32/101/19 1/102/19 3/103/19

vt -48.6157 2.69834e-011
f 31/104/19 1/102/19 32/101/19

v 12.7044 7.06012 -55.1298
vt -23.9394 118.11
f 33/105/19 1/102/19 31/104/19

v 12.7044 7.66012 -55.1298
vt -23.9394 141.732
f 1/102/19 33/105/19 34/106/19

vn 0.999965 -5.91195e-014 -0.00841171
f 34/106/20 33/105/20 1/102/20

vt -156.914 118.11
vn -0.00841171 2.547e-014 -0.999965
v 12.6344 7.06012 -55.1292
vt -154.158 118.11
vt -156.914 141.732
f 33/107/21 35/108/21 34/109/21

v 12.6344 6.99012 -55.1292
vt -154.158 115.354
f 33/107/21 36/110/21 35/108/21

vt -154.158 1.38285e-011
f 33/107/21 5/111/21 36/110/21

v 12.7044 4.06012 -55.1298
vt -156.914 1.37717e-011
f 5/111/21 33/107/21 37/112/21

usemtl _7
vt -4.29895 0.833966
vn 0.00841171 -2.547e-014 0.999965
vt -4.29895 1.45018
vt -4.2761 0.833966
f 37/113/22 33/114/22 5/115/22

usemtl Color_D03
vt -23.9394 2.36581e-011
f 31/104/19 37/116/19 33/105/19

usemtl _7
vt -4.1477 11.3239
f 5/5/3 31/97/3 37/117/3

usemtl _Tile_Ceramic_Natural_14
vt -9.01022 39.0992
f 37/118/4 31/98/4 5/40/4

usemtl Color_D03
f 33/105/20 37/116/20 31/104/20

f 31/104/20 1/102/20 33/105/20

f 32/101/20 1/102/20 31/104/20

f 3/103/20 1/102/20 32/101/20

usemtl _7
vt -4.2761 1.4358
f 36/119/22 5/115/22 33/114/22

vt -4.2761 1.45018
f 35/120/22 36/119/22 33/114/22

vt -4.29895 1.57342
f 34/121/22 35/120/22 33/114/22

usemtl Color_D03
v 10.8345 7.06012 -55.1141
vt -83.2917 118.11
f 34/109/21 35/108/21 38/122/21

usemtl _7
vt -3.68844 1.45018
f 38/123/22 35/120/22 34/121/22

usemtl Color_D03
v 10.6795 7.66012 -55.1128
vt -77.1893 141.732
f 38/122/21 39/124/21 34/109/21

v 10.8345 6.99012 -55.1141
vt -83.2917 115.354
f 40/125/21 39/124/21 38/122/21

vt -77.1893 1.41696e-011
f 40/125/21 9/126/21 39/124/21

vt -83.2917 1.41127e-011
f 9/126/21 40/125/21 8/127/21

usemtl _7
vt -3.68844 0.833966
vt -3.68844 1.4358
vt -3.63784 0.833966
f 8/128/22 40/129/22 9/130/22

vt -3.63784 1.57342
f 39/131/22 9/130/22 40/129/22

usemtl Color_D03
vt -23.9394 1.47774e-011
v 10.6846 7.66012 -54.5028
vt 0.0763731 141.732
f 9/132/8 41/133/8 39/106/8

v 10.6846 4.06012 -54.5028
vt 0.0763731 1.46637e-011
f 41/133/8 9/132/8 42/134/8

usemtl _7
vt -17.764 0.833966
vt -17.9631 0.833966
vt -17.764 1.57342
f 42/135/7 9/136/7 41/137/7

vt -3.48828 11.1951
f 42/138/3 10/12/3 9/11/3

usemtl _Tile_Ceramic_Natural_14
vt -7.57774 38.6545
f 9/38/4 10/36/4 42/139/4

usemtl Color_D03
vt -9.07906 1.49793e-011
vn -0.00841171 1.43073e-014 -0.999965
vt -77.1893 1.46667e-011
f 10/140/23 41/124/23 42/141/23

f 41/124/23 10/140/23 18/22/23

usemtl _7
vn 0.00841171 -1.43073e-014 0.999965
f 42/130/24 41/131/24 10/25/24

f 18/26/24 10/25/24 41/131/24

vt -17.9631 1.57342
f 39/142/7 41/137/7 9/136/7

f 38/123/22 39/131/22 40/129/22

f 34/121/22 39/131/22 38/123/22

usemtl Color_D03
f 23/88/12 22/87/12 24/62/12

f 22/87/12 17/63/12 24/62/12

usemtl _Tile_Ceramic_Natural_14
f 13/53/4 14/20/4 11/19/4

usemtl _7
vt -3.03628 1.57342
f 17/143/6 15/27/6 16/26/6

usemtl BackColor
f 21/47/10 19/44/10 20/45/10

g Mesh2 COM019 Model

l 7 20

l 7 12

l 7 19

l 6 19

l 6 30

l 2 6

l 2 4

l 3 2

l 1 3

l 1 22

l 34 1

l 34 33

l 34 39

l 9 39

l 8 9

l 8 5

l 8 40

l 40 38

l 35 38

l 35 36

l 36 5

l 5 37

l 37 31

l 37 33

l 31 32

l 32 3

l 42 9

l 42 10

l 42 41

l 41 18

l 41 39

l 10 18

l 10 11

l 11 15

l 11 16

l 16 17

l 18 16

l 15 17

l 14 15

l 14 24

l 14 26

l 26 25

l 27 26

l 13 27

l 13 23

l 12 13

l 22 12

l 22 17

l 23 28

l 23 24

l 24 25

l 27 28

l 29 4

l 20 29

l 20 21

l 19 21

l 4 30

g Mesh3 Model

v 145.914 3.3 -184.316
v 145.914 3.33 -184.316
l 43 44

g Mesh4 Model

v 138.951 3.33 -157.425
v 138.951 3.3 -157.425
l 45 46

