# Alias OBJ Model File
# Exported from SketchUp, (c) 2000-2012 Trimble Navigation Limited
# File units = meters

mtllib COM025.mtl

g Mesh1 COM025 Model

usemtl Color_D03
v 5.12095 4.06012 -33.5146
vt -3.14949 3.91182e-007
vn 5.13917e-009 -3.04817e-009 -1
v 5.32921 6.16012 -33.5146
vt -11.3486 82.6772
v 5.32921 4.06012 -33.5146
vt -11.3486 3.91182e-007
f 1/1/1 2/2/1 3/3/1

v 5.12095 6.16012 -33.5146
vt -3.14961 82.6772
f 2/2/1 1/1/1 4/4/1

vn -5.13917e-009 3.04817e-009 1
f 3/3/2 2/2/2 1/1/2

f 4/4/2 1/1/2 2/2/2

v 5.12095 6.56012 -33.5146
vt -3.14961 98.4252
f 2/2/1 4/4/1 5/5/1

f 5/5/2 4/4/2 2/2/2

usemtl _7
v 5.12768 6.16012 -32.7153
vt -10.6663 1.26531
vn -0.999965 9.01055e-014 0.00841525
vt -10.9273 1.34748
vt -10.9273 1.26531
f 6/6/3 5/7/3 4/8/3

v 5.12768 6.56012 -32.7153
vt -10.6663 1.34748
f 5/7/3 6/6/3 7/9/3

usemtl Color_E04
vt -83.8236 98.4252
vn 0.999965 -9.01055e-014 -0.00841525
vt -83.8236 82.6772
vt -115.293 98.4252
f 7/10/4 6/11/4 5/12/4

usemtl _7
vt 10.6663 1.34748
vn 0.999965 2.93801e-007 -0.00841242
v 5.12793 6.16012 -32.6853
vt 10.6565 1.26531
vt 10.6663 1.26531
f 7/13/5 8/14/5 6/15/5

v 5.12768 7.61012 -32.7153
vt 10.6663 1.56315
f 8/14/5 7/13/5 9/16/5

vn -0.999965 -2.93801e-007 0.00841242
f 9/16/6 7/13/6 8/14/6

v 5.12768 6.61012 -32.7153
vt 10.6663 1.35775
f 7/13/5 10/17/5 9/16/5

vt 10.9273 1.34748
f 10/17/5 7/13/5 5/18/5

f 9/16/6 10/17/6 7/13/6

usemtl Translucent_Glass_Blue
v 5.12095 7.61012 -33.5146
vt -115.293 139.764
vn -0.999965 8.49321e-014 0.00841525
vt -83.8236 100.394
vt -83.8236 139.764
f 11/19/7 10/20/7 9/21/7

v 5.12095 6.61012 -33.5146
vt -115.293 100.394
f 10/20/7 11/19/7 12/22/7

vn 0.999965 -8.49321e-014 -0.00841525
f 9/21/8 10/20/8 11/19/8

f 12/22/8 11/19/8 10/20/8

usemtl Color_D03
v 7.4516 7.66012 -33.5146
vt -94.9074 141.732
vt -3.14961 100.394
vt -3.14961 139.764
f 13/23/1 12/24/1 11/25/1

f 13/23/1 5/5/1 12/24/1

v 6.03195 6.16012 -33.5146
vt -39.0157 82.6772
f 13/23/1 14/26/1 5/5/1

v 6.03195 4.06012 -33.5146
vt -39.0157 3.91182e-007
f 13/23/1 15/27/1 14/26/1

v 7.4516 4.06012 -33.5146
vt -94.9074 3.91182e-007
f 15/27/1 13/23/1 16/28/1

f 16/28/2 13/23/2 15/27/2

v 7.4516 7.66012 -36.525
vt -233.843 141.732
vn -1 0 -0
vt -115.324 3.96552e-008
vt -115.324 141.732
f 17/29/9 16/30/9 13/31/9

v 7.4516 4.06012 -36.525
vt -233.843 3.96557e-008
f 16/30/9 17/29/9 18/32/9

vn 1 -0 0
f 13/31/10 16/30/10 17/29/10

f 18/32/10 17/29/10 16/30/10

vt 96.871 3.96626e-008
vn 0.00841171 2.968e-014 0.999965
v 8.44892 7.66012 -36.5334
vt 136.137 141.732
vt 96.871 141.732
f 18/33/11 19/34/11 17/35/11

v 8.44892 4.06012 -36.5334
vt 136.137 3.96624e-008
f 19/34/11 18/33/11 20/36/11

usemtl _7
vt 2.85861 0.833966
vn -0.00841171 -2.968e-014 -0.999965
vt 2.533 0.833966
vt 2.85861 1.57342
f 20/37/12 18/38/12 19/39/12

vt -2.75838 7.50411
vn 4.16872e-011 -1 1.86349e-011
vt -2.43278 6.88404
vt -2.43278 7.50238
f 20/40/13 16/41/13 18/42/13

v 7.78843 4.06012 -32.6377
vt -2.54275 6.70391
f 16/41/13 20/40/13 21/43/13

usemtl _Tile_Ceramic_Natural_14
vt -5.28482 25.9042
vn -4.16872e-011 1 -1.86349e-011
vt -5.28482 23.7692
vt -5.99214 25.9102
f 18/44/14 16/45/14 20/46/14

vt -5.52371 23.1473
f 21/47/14 20/46/14 16/45/14

usemtl _7
v 8.4147 4.06012 -33.0829
vt -2.74721 6.79538
f 21/43/13 20/40/13 22/48/13

usemtl _Tile_Ceramic_Natural_14
vt -5.96788 23.4631
f 22/49/14 20/46/14 21/47/14

usemtl _7
v 8.73469 4.06012 -33.0856
vt -2.85168 6.79593
f 22/48/13 20/40/13 23/50/13

usemtl _Tile_Ceramic_Natural_14
vt -6.19482 23.465
f 23/51/14 20/46/14 22/49/14

usemtl _7
v 8.45949 4.06012 -36.5084
vt -2.76183 7.49899
f 23/50/13 20/40/13 24/52/13

usemtl _Tile_Ceramic_Natural_14
vt -5.99964 25.8925
f 24/53/14 20/46/14 23/51/14

usemtl _Color_C03_3
v 8.45949 7.66012 -36.5084
vt -162.135 141.732
vn -0.861789 1.96469e-015 0.507267
vt -163.2 3.96561e-008
vn -0.920628 2.77191e-015 0.390441
vt -162.135 3.9656e-008
f 25/54/15 20/55/16 24/56/15

vt -163.2 141.732
f 20/55/16 25/54/15 19/57/16

usemtl _7
vt -9.89479 0.833966
vn 0.861789 -1.96469e-015 -0.507267
vt -9.90363 0.833966
vn 0.920628 -2.77191e-015 -0.390441
vt -9.89479 1.57342
f 24/58/17 20/59/18 25/60/17

vt -9.90363 1.57342
f 19/61/18 25/60/17 20/59/18

usemtl _Color_C03_3
vt -100.976 3.96557e-008
v 8.49965 7.66012 -36.457
vt -98.4067 141.732
vn -0.701134 2.63784e-016 0.71303
vt -100.976 141.732
f 24/62/15 26/63/19 25/64/15

v 8.49965 4.06012 -36.457
vt -98.4067 3.96556e-008
f 26/63/19 24/62/15 27/65/19

usemtl _7
vt -7.67378 0.833966
vn 0.701134 -2.63784e-016 -0.71303
vt -7.69508 0.833966
vt -7.67378 1.57342
f 27/66/20 24/67/17 26/68/20

vt -2.77494 7.48842
f 23/50/13 24/52/13 27/69/13

usemtl _Tile_Ceramic_Natural_14
vt -6.02812 25.856
f 27/70/14 24/53/14 23/51/14

usemtl _7
v 8.55176 4.06012 -36.4177
vt -2.79196 7.48035
f 23/50/13 27/69/13 28/71/13

usemtl _Tile_Ceramic_Natural_14
vt -6.06508 25.8282
f 28/72/14 27/70/14 23/51/14

usemtl _Color_C03_3
v 8.55176 7.66012 -36.4177
vt -27.8849 141.732
vn -0.492698 -1.4551e-015 0.870201
vt -30.4543 3.96552e-008
vt -27.8849 3.96552e-008
f 29/73/21 27/74/19 28/75/21

vt -30.4543 141.732
f 27/74/19 29/73/21 26/76/19

usemtl _7
vt -4.92908 0.833966
vn 0.492698 1.4551e-015 -0.870201
vt -4.95038 0.833966
vt -4.92908 1.57342
f 28/77/22 27/78/20 29/79/22

vt -4.95038 1.57342
f 26/80/20 29/79/22 27/78/20

usemtl _Color_C03_3
v 8.61226 4.06012 -36.3932
vt 44.6248 3.96548e-008
vn -0.250685 -3.07482e-015 0.968069
vt 42.0554 141.732
vt 42.0554 3.96548e-008
f 30/81/23 29/82/21 28/83/21

v 8.61226 7.66012 -36.3932
vt 44.6248 141.732
f 29/82/21 30/81/23 31/84/23

usemtl _7
vt -1.86905 0.833966
vt -1.86905 1.57342
vt -1.84774 0.833966
vn 0.250685 3.07482e-015 -0.968069
f 28/85/22 29/86/22 30/87/24

vt -1.84774 1.57342
f 31/88/24 30/87/24 29/86/22

usemtl _Color_C03_3
vt 111.611 3.96545e-008
v 8.67704 7.66012 -36.3853
vt 114.181 141.732
vn 0.00841171 -4.48501e-015 0.999965
vt 111.611 141.732
f 30/89/23 32/90/25 31/91/23

v 8.67704 4.06012 -36.3853
vt 114.181 3.96544e-008
f 32/90/25 30/89/23 33/92/25

usemtl _7
vt 1.36024 0.833966
vn -0.00841171 4.48501e-015 -0.999965
vt 1.33893 0.833966
vt 1.36024 1.57342
f 33/93/26 30/94/24 32/95/26

vt -2.81171 7.47533
vt -2.83286 7.47369
f 23/50/13 30/96/13 33/97/13

f 23/50/13 28/71/13 30/96/13

usemtl _Tile_Ceramic_Natural_14
vt -6.10799 25.8108
f 30/98/14 28/72/14 23/51/14

vt -6.15393 25.8052
f 33/99/14 30/98/14 23/51/14

usemtl _7
v 8.70502 4.06012 -36.3892
vt -2.84199 7.4745
f 23/50/13 33/97/13 34/100/13

usemtl _Tile_Ceramic_Natural_14
vt -6.17378 25.8079
f 34/101/14 33/99/14 23/51/14

usemtl _Color_C03_3
v 8.7069 4.06012 -36.3895
vt 174.661 3.96543e-008
vn 0.138861 -5.08075e-015 0.990312
vt 173.474 3.96543e-008
vt 174.587 3.96543e-008
f 35/102/27 33/103/25 34/104/27

vt 173.474 141.732
f 33/103/25 35/102/27 32/105/25

usemtl _7
vt 4.46417 0.833966
vn -0.138861 5.08075e-015 -0.990312
vt 4.45494 0.833966
vt 4.46478 0.833966
f 34/106/28 33/107/26 35/108/28

vt 4.45494 1.57342
f 32/109/26 35/108/28 33/107/26

usemtl _Color_C03_3
v 8.7069 7.66012 -36.3895
vt 174.661 141.732
f 32/105/25 35/102/27 36/110/27

usemtl _7
vt 4.46478 1.57342
f 36/111/28 35/108/28 32/109/26

usemtl Color_D03
vt -227.286 3.96561e-008
vn -0.999965 4.85804e-015 0.00841171
v 8.73469 7.66012 -33.0856
vt -97.2094 141.732
vt -227.286 141.732
f 35/112/29 37/113/29 36/114/29

vt -97.2094 3.96554e-008
f 37/113/29 35/112/29 23/115/29

usemtl _7
vt -10.7773 0.833966
vn 0.999965 -4.85804e-015 -0.00841171
vt -11.856 0.833966
vt -10.7773 1.57342
f 23/116/30 35/117/30 37/118/30

vt -2.84261 7.47455
f 23/50/13 34/100/13 35/119/13

usemtl _Tile_Ceramic_Natural_14
vt -6.17511 25.8081
f 35/120/14 34/101/14 23/51/14

usemtl _7
vt -11.856 1.57342
f 36/121/30 37/118/30 35/117/30

usemtl Color_D03
vt -133.647 3.96544e-008
vn -0.00841171 4.48499e-015 -0.999965
vt -146.246 141.732
vt -146.246 3.96542e-008
f 22/122/31 37/123/31 23/124/31

v 8.4147 7.66012 -33.0829
vt -133.647 141.732
f 37/123/31 22/122/31 38/125/31

usemtl _7
vt -2.94244 0.833966
vn 0.00841171 -4.48499e-015 0.999965
vt -2.94244 1.57342
vt -2.83797 0.833966
f 23/126/32 37/127/32 22/128/32

vt -2.83797 1.57342
f 38/129/32 22/128/32 37/127/32

usemtl Color_D03
v 8.41841 7.66012 -32.643
vt -79.8866 141.732
f 22/115/29 39/130/29 38/113/29

v 8.41841 4.06012 -32.643
vt -79.8866 3.96554e-008
f 39/130/29 22/115/29 40/131/29

usemtl _7
vt -10.6337 0.833966
vt -10.6337 1.57342
f 40/132/30 22/116/30 39/133/30

vt -2.74842 6.705
f 40/134/13 21/43/13 22/48/13

usemtl _Tile_Ceramic_Natural_14
vt -5.9705 23.151
f 22/49/14 21/47/14 40/135/14

usemtl Color_D03
vt -108.844 3.96546e-008
f 21/136/31 39/125/31 40/122/31

v 7.78843 7.66012 -32.6377
vt -108.844 141.732
f 39/125/31 21/136/31 41/137/31

usemtl _7
vt -2.63229 0.833966
f 40/128/32 39/129/32 21/138/32

vt -2.63229 1.57342
f 41/139/32 21/138/32 39/129/32

usemtl Color_D03
v 7.78977 7.06012 -32.4777
vt -73.5874 118.11
vn -0.999965 5.97197e-016 0.00841171
vt -79.8866 3.9655e-008
f 42/140/33 41/130/33 21/141/33

v 7.80492 7.06012 -30.6777
vt -2.72125 118.11
f 43/142/33 41/130/33 42/140/33

v 7.8055 7.66012 -30.6077
vt 0.0346547 141.732
f 43/142/33 44/143/33 41/130/33

v 7.80492 4.06012 -30.6777
vt -2.72125 3.96547e-008
f 45/144/33 44/143/33 43/142/33

v 7.8055 4.06012 -30.6077
vt 0.0346547 3.96545e-008
f 44/143/33 45/144/33 46/145/33

usemtl _7
vt -9.97094 0.833966
vn 0.999965 -5.97197e-016 -0.00841171
vt -9.99379 0.833966
vt -9.97094 1.57342
f 46/146/34 45/147/34 44/148/34

vt -2.54832 6.28696
vt -2.54813 6.30134
f 46/149/13 16/41/13 45/150/13

vt -1.9693 6.88404
f 46/149/13 15/151/13 16/41/13

v 5.32921 4.06012 -33.6146
vt -1.73987 6.90458
f 46/149/13 47/152/13 15/151/13

vt -1.73987 6.88404
f 46/149/13 3/153/13 47/152/13

v 5.1456 4.06012 -30.5854
vt -1.67992 6.28236
f 48/154/13 3/153/13 46/149/13

v 5.14518 4.06012 -30.6354
vt -1.67978 6.29263
f 49/155/13 3/153/13 48/154/13

v 5.13693 4.06012 -31.6153
vt -1.67709 6.49392
f 50/156/13 3/153/13 49/155/13

v 5.13651 4.06012 -31.6653
vt -1.67696 6.50419
f 51/157/13 3/153/13 50/156/13

v 5.1281 4.06012 -32.6653
vt -1.67421 6.70959
f 52/158/13 3/153/13 51/157/13

v 5.12793 4.06012 -32.6853
vt -1.67415 6.7137
f 53/159/13 3/153/13 52/158/13

vt -1.67187 6.88404
f 53/159/13 1/160/13 3/153/13

v 5.09793 4.06012 -32.685
vt -1.66436 6.71364
f 54/161/13 1/160/13 53/159/13

v 5.12095 4.06012 -33.5153
vt -1.67187 6.88418
f 54/161/13 55/162/13 1/160/13

v 5.04843 4.06012 -32.6846
vt -1.6482 6.71356
f 56/163/13 55/162/13 54/161/13

v 5.04794 4.06012 -32.6846
vt -1.64804 6.71356
f 57/164/13 55/162/13 56/163/13

v 5.04095 4.06012 -33.5146
vt -1.64576 6.88404
f 55/162/13 57/164/13 58/165/13

usemtl _Tile_Ceramic_Natural_14
vt -3.57515 23.7692
vt -3.5801 23.1806
vt -3.63188 23.7697
f 58/166/14 57/167/14 55/168/14

vt -3.58045 23.1806
f 56/169/14 55/168/14 57/167/14

vt -3.61556 23.1809
f 54/170/14 55/168/14 56/169/14

vt -3.63188 23.7692
f 1/171/14 55/168/14 54/170/14

vt -3.63683 23.1811
f 53/172/14 1/171/14 54/170/14

vt -3.77958 23.7692
f 3/173/14 1/171/14 53/172/14

vt -3.63695 23.1669
f 52/174/14 3/173/14 53/172/14

vt -3.64292 22.4577
f 51/175/14 3/173/14 52/174/14

vt -3.64322 22.4222
f 50/176/14 3/173/14 51/175/14

vt -3.64906 21.7272
f 49/177/14 3/173/14 50/176/14

vt -3.64936 21.6917
f 48/178/14 3/173/14 49/177/14

vt -5.53582 21.7076
f 46/179/14 3/173/14 48/178/14

vt -3.77958 23.8401
f 47/180/14 3/173/14 46/179/14

vt -4.27798 23.7692
f 15/181/14 47/180/14 46/179/14

usemtl _7
v 6.03195 4.06012 -33.6146
vt -1.9693 6.90458
f 59/182/13 15/151/13 47/152/13

usemtl _Tile_Ceramic_Natural_14
vt -4.27798 23.8401
f 47/180/14 15/181/14 59/183/14

f 16/45/14 15/181/14 46/179/14

vt -5.5354 21.7573
f 45/184/14 16/45/14 46/179/14

usemtl _7
v 7.78977 4.06012 -32.4777
vt -2.54318 6.67105
f 45/150/13 16/41/13 60/185/13

usemtl _Tile_Ceramic_Natural_14
vt -5.52466 23.0338
f 60/186/14 16/45/14 45/184/14

usemtl _7
f 60/185/13 16/41/13 21/43/13

usemtl _Tile_Ceramic_Natural_14
f 21/47/14 16/45/14 60/186/14

usemtl Color_D03
vt -73.5874 3.96548e-008
f 21/141/33 60/187/33 42/140/33

usemtl _7
vt -10.5815 1.45018
vt -10.5815 0.833966
f 42/188/34 60/189/34 21/132/34

f 21/132/34 41/133/34 42/188/34

vt -9.99379 1.45018
f 42/188/34 41/133/34 43/190/34

f 41/133/34 44/148/34 43/190/34

f 43/190/34 44/148/34 45/147/34

usemtl Color_D03
vt -4.11968 3.9655e-008
vt -108.844 3.96545e-008
f 48/191/31 44/137/31 46/192/31

v 5.1456 7.66012 -30.5854
vt -4.11968 141.732
f 44/137/31 48/191/31 61/193/31

usemtl _7
vt -1.76386 0.833966
f 46/138/32 44/139/32 48/194/32

vt -1.76386 1.57342
f 61/195/32 48/194/32 44/139/32

vt 9.98726 0.833965
vt 9.97094 1.57342
vt 9.97094 0.833965
f 49/196/5 61/197/5 48/198/5

v 5.14518 4.11012 -30.6354
vt 9.98726 0.844236
f 61/197/5 49/196/5 62/199/5

f 48/198/6 61/197/6 49/196/6

f 62/199/6 49/196/6 61/197/6

vt 10.3072 0.833965
f 50/200/5 62/199/5 49/196/5

v 5.13677 4.11012 -31.6353
vt 10.3137 0.844236
f 62/199/5 50/200/5 63/201/5

f 49/196/6 62/199/6 50/200/6

f 63/201/6 50/200/6 62/199/6

vt 10.3235 0.833965
f 63/201/5 50/200/5 51/202/5

f 51/202/6 50/200/6 63/201/6

v 5.13677 5.11012 -31.6353
vt 10.3137 1.04964
f 63/201/5 51/202/5 64/203/5

f 64/203/6 51/202/6 63/201/6

v 5.13677 5.16012 -31.6353
vt 10.3137 1.05991
f 64/203/5 51/202/5 65/204/5

f 65/204/6 51/202/6 64/203/6

v 5.13677 6.56012 -31.6353
vt 10.3137 1.34748
f 65/204/5 51/202/5 66/205/5

f 66/205/6 51/202/6 65/204/6

v 5.13677 6.61012 -31.6353
vt 10.3137 1.35775
f 66/205/5 51/202/5 67/206/5

f 67/206/6 51/202/6 66/205/6

v 5.13635 7.61012 -31.6853
vt 10.3301 1.56315
f 68/207/5 67/206/5 51/202/5

v 5.13677 7.61012 -31.6353
vt 10.3137 1.56315
f 68/207/5 69/208/5 67/206/5

v 5.12095 7.66012 -33.5146
vt 10.9273 1.57342
f 70/209/5 69/208/5 68/207/5

v 5.14518 7.61012 -30.6354
vt 9.98726 1.56315
f 70/209/5 71/210/5 69/208/5

f 61/197/5 71/210/5 70/209/5

f 61/197/5 62/199/5 71/210/5

f 71/210/6 62/199/6 61/197/6

v 5.14518 5.11012 -30.6354
vt 9.98726 1.04964
f 72/211/5 71/210/5 62/199/5

v 5.14518 6.16012 -30.6354
vt 9.98726 1.26531
f 71/210/5 72/211/5 73/212/5

f 62/199/6 71/210/6 72/211/6

f 73/212/6 72/211/6 71/210/6

v 5.14518 5.16012 -30.6354
vt 9.98726 1.05991
f 73/212/5 72/211/5 74/213/5

f 74/213/6 72/211/6 73/212/6

f 74/213/5 72/211/5 64/203/5

f 64/203/6 72/211/6 74/213/6

usemtl FrontColor
vt 1.93385 41.3386
vt 41.3039 1.9685
vt 41.3039 41.3386
f 72/214/30 63/215/30 64/216/30

vt 1.93385 1.9685
f 63/215/30 72/214/30 62/217/30

usemtl BackColor
f 62/217/29 72/214/29 63/215/29

f 64/216/29 63/215/29 72/214/29

usemtl _7
f 74/213/5 64/203/5 65/204/5

f 65/204/6 64/203/6 74/213/6

usemtl FrontColor
vt 41.3039 98.4252
vn 0.999965 -3.92885e-015 -0.00841171
vt 1.93385 43.3071
vt 41.3039 43.3071
f 66/218/35 74/219/35 65/220/35

v 5.14518 6.56012 -30.6354
vt 1.93385 98.4252
f 75/221/35 74/219/35 66/218/35

vt 1.93385 82.6772
f 74/219/35 75/221/35 73/222/35

usemtl BackColor
vn -0.999965 3.92885e-015 0.00841171
f 73/222/36 75/221/36 74/219/36

usemtl _7
v 5.14518 6.61012 -30.6354
vt 9.98726 1.35775
vt 9.98726 1.34748
f 76/223/5 73/212/5 75/224/5

f 73/212/5 76/223/5 71/210/5

f 71/210/6 76/223/6 73/212/6

usemtl FrontColor
vt 1.93385 100.394
vn 0.999965 -2.87278e-015 -0.00841171
vt 41.3039 139.764
vt 1.93385 139.764
f 76/225/37 69/226/37 71/227/37

vt 41.3039 100.394
f 69/226/37 76/225/37 67/228/37

usemtl BackColor
vn -0.999965 2.87278e-015 0.00841171
f 71/227/38 69/226/38 76/225/38

usemtl _7
f 69/208/6 71/210/6 70/209/6

f 70/209/6 71/210/6 61/197/6

f 68/207/6 69/208/6 70/209/6

f 67/206/6 69/208/6 68/207/6

usemtl BackColor
f 67/228/38 76/225/38 69/226/38

usemtl _7
f 76/223/5 66/205/5 67/206/5

f 76/223/5 75/224/5 66/205/5

f 75/224/6 73/212/6 76/223/6

f 66/205/6 75/224/6 76/223/6

usemtl BackColor
f 66/218/36 74/219/36 75/221/36

f 65/220/36 74/219/36 66/218/36

usemtl _7
f 67/206/6 66/205/6 76/223/6

f 51/202/6 67/206/6 68/207/6

v 5.13635 4.11012 -31.6853
vt 10.3301 0.844236
f 68/207/5 51/202/5 77/229/5

f 77/229/6 51/202/6 68/207/6

vt 10.65 0.833965
f 52/230/5 77/229/5 51/202/5

v 5.1281 4.11012 -32.6653
vt 10.65 0.844236
f 77/229/5 52/230/5 78/231/5

f 51/202/6 77/229/6 52/230/6

f 78/231/6 52/230/6 77/229/6

vt 10.65 0.833966
vn 0.999965 -6.72544e-015 -0.00841171
v 5.1281 5.11012 -32.6653
vt 10.65 1.04964
f 52/232/39 79/233/39 78/231/39

vt 10.6565 0.833966
f 79/233/39 52/232/39 53/234/39

usemtl Color_D03
vt 81.8551 1.9685
vn -0.999965 6.72544e-015 0.00841171
vt 81.8551 41.3386
vt 81.8551 3.96554e-008
f 78/235/40 79/236/40 52/237/40

usemtl _7
vt -10.65 0.844236
vn -0.999965 6.8433e-015 0.00841171
v 5.13635 5.11012 -31.6853
vt -10.3301 1.04964
vt -10.65 1.04964
f 78/238/41 80/239/41 79/240/41

vt -10.3301 0.844236
f 80/239/41 78/238/41 77/241/41

usemtl Color_E04
vt -43.2724 1.9685
vn 0.999965 -6.8433e-015 -0.00841171
vt -81.8551 1.9685
vt -43.2724 41.3386
f 77/242/42 78/243/42 80/244/42

vt -81.8551 41.3386
f 79/245/42 80/244/42 78/243/42

usemtl _7
v 5.13635 5.16012 -31.6853
vt 10.3301 1.05991
vt 10.3301 1.04964
f 79/233/5 81/246/5 80/247/5

v 5.1281 5.16012 -32.6653
vt 10.65 1.05991
f 81/246/5 79/233/5 82/248/5

f 80/247/6 81/246/6 79/233/6

f 81/246/5 77/229/5 80/247/5

f 68/207/5 77/229/5 81/246/5

f 81/246/6 77/229/6 68/207/6

f 80/247/6 77/229/6 81/246/6

v 5.13635 6.56012 -31.6853
vt 10.3301 1.34748
f 83/249/5 68/207/5 81/246/5

v 5.13635 6.61012 -31.6853
vt 10.3301 1.35775
f 68/207/5 83/249/5 84/250/5

f 81/246/6 68/207/6 83/249/6

f 84/250/6 83/249/6 68/207/6

v 5.1281 6.56012 -32.6653
vt 10.65 1.34748
f 84/250/5 83/249/5 85/251/5

f 85/251/6 83/249/6 84/250/6

vt -10.65 1.34748
vn -0.999965 1.76669e-015 0.00841171
v 5.1281 6.16012 -32.6653
vt -10.65 1.26531
vt -10.3301 1.34748
f 85/252/43 86/253/43 83/254/43

usemtl Color_E04
vt -43.2724 98.4252
vn 0.999965 -1.76669e-015 -0.00841171
vt -81.8551 82.6772
vt -81.8551 98.4252
f 83/255/44 86/256/44 85/257/44

usemtl _7
vt -10.65 1.05991
f 82/258/43 83/254/43 86/253/43

vt -10.3301 1.05991
f 83/254/43 82/258/43 81/259/43

usemtl Color_E04
vt -43.2724 43.3071
vt -81.8551 43.3071
f 81/260/44 82/261/44 83/255/44

usemtl _7
f 82/248/6 79/233/6 81/246/6

f 79/233/39 53/234/39 82/248/39

usemtl Color_D03
vt 82.6425 3.96554e-008
f 53/262/40 52/237/40 79/236/40

vt 81.8551 43.3071
f 82/263/40 53/262/40 79/236/40

usemtl _7
f 8/14/39 82/248/39 53/234/39

vt 10.65 1.26531
f 82/248/39 8/14/39 86/264/39

usemtl Color_D03
vt 81.8551 82.6772
vt 82.6425 82.6772
f 86/265/40 8/266/40 82/263/40

usemtl _7
f 8/14/5 85/251/5 86/264/5

v 5.1281 6.61012 -32.6653
vt 10.65 1.35775
f 85/251/5 8/14/5 87/267/5

f 86/264/6 85/251/6 8/14/6

f 87/267/6 8/14/6 85/251/6

f 9/16/5 87/267/5 8/14/5

v 5.1281 7.61012 -32.6653
vt 10.65 1.56315
f 9/16/5 88/268/5 87/267/5

f 70/209/5 88/268/5 9/16/5

f 70/209/5 68/207/5 88/268/5

f 88/268/6 68/207/6 70/209/6

usemtl FrontColor
vt 43.2724 100.394
vn 0.999965 2.90251e-015 -0.00841171
vt 81.8551 139.764
vt 43.2724 139.764
f 84/269/45 88/270/45 68/271/45

vt 81.8551 100.394
f 88/270/45 84/269/45 87/272/45

usemtl BackColor
vn -0.999965 -2.90251e-015 0.00841171
f 68/271/46 88/270/46 84/269/46

f 87/272/46 84/269/46 88/270/46

usemtl _7
f 84/250/5 85/251/5 87/267/5

f 87/267/6 85/251/6 84/250/6

f 87/267/6 88/268/6 9/16/6

f 9/16/6 88/268/6 70/209/6

vt 10.9273 1.56315
f 70/209/5 9/16/5 11/273/5

f 11/273/6 9/16/6 70/209/6

usemtl Color_D03
vt -3.14949 141.732
f 13/23/1 11/25/1 70/274/1

f 11/25/2 12/24/2 13/23/2

f 12/24/2 5/5/2 13/23/2

usemtl _7
vt 10.9273 1.35775
f 10/17/5 5/18/5 12/275/5

f 5/18/6 7/13/6 10/17/6

f 12/275/6 5/18/6 10/17/6

usemtl Color_D03
f 5/5/2 14/26/2 13/23/2

f 2/2/1 5/5/1 14/26/1

f 14/26/2 5/5/2 2/2/2

f 14/26/2 15/27/2 13/23/2

f 70/274/2 11/25/2 13/23/2

usemtl _7
f 8/14/6 87/267/6 9/16/6

usemtl Color_D03
f 53/262/40 82/263/40 8/266/40

usemtl _7
v 5.09793 6.16012 -32.685
vt -1.75406 1.26531
vt -1.76386 1.26531
f 53/194/31 89/276/31 8/277/31

vt -1.75406 0.833966
f 89/276/31 53/194/31 54/278/31

f 54/278/32 53/194/32 89/276/32

f 8/277/32 89/276/32 53/194/32

usemtl Color_E04
f 86/256/44 83/255/44 82/261/44

usemtl _7
f 38/118/30 39/133/30 22/116/30

vt 1.33893 1.57342
f 31/279/24 32/95/26 30/94/24

vt -7.69508 1.57342
f 25/280/17 26/68/20 24/67/17

vt 2.533 1.57342
f 17/281/12 19/39/12 18/38/12

f 6/15/6 8/14/6 7/13/6

usemtl Color_E04
vt -115.293 82.6772
f 4/282/4 5/12/4 6/11/4

g Mesh2 COM025 Model

l 14 15

l 2 14

l 2 3

l 3 1

l 3 47

l 47 59

l 15 59

l 16 15

l 16 13

l 18 16

l 18 20

l 18 17

l 17 19

l 17 13

l 13 70

l 11 70

l 12 11

l 5 12

l 4 5

l 1 4

l 58 55

l 58 57

l 54 56

l 53 54

l 53 52

l 8 53

l 86 8

l 85 86

l 85 83

l 83 81

l 81 82

l 86 82

l 82 79

l 80 79

l 80 77

l 77 78

l 78 52

l 79 78

l 52 51

l 51 50

l 49 50

l 48 49

l 46 48

l 46 45

l 46 44

l 44 61

l 44 41

l 21 41

l 21 40

l 60 21

l 60 45

l 60 42

l 43 42

l 45 43

l 22 40

l 23 22

l 23 35

l 23 37

l 37 36

l 37 38

l 38 39

l 22 38

l 40 39

l 41 39

l 35 36

l 34 35

l 33 34

l 30 33

l 28 30

l 27 28

l 24 27

l 20 24

l 20 19

l 19 25

l 25 26

l 26 29

l 29 31

l 31 32

l 32 36

l 61 70

l 48 61

l 8 6

l 89 8

l 54 89

l 6 4

l 7 6

l 5 7

l 10 12

l 9 10

l 9 11

g Mesh3 COM025 Model

l 68 88

l 68 84

l 84 87

l 88 87

g Mesh4 COM025 Model

l 71 69

l 76 71

l 76 67

l 67 69

g Mesh5 COM025 Model

l 72 64

l 62 72

l 62 63

l 63 64

g Mesh6 COM025 Model

l 65 66

l 74 65

l 74 73

l 73 75

l 66 75

g Mesh7 Model

v 145.914 3.3 -184.316
v 145.914 3.33 -184.316
l 90 91

g Mesh8 Model

v 138.951 3.33 -157.425
v 138.951 3.3 -157.425
l 92 93

