# Alias OBJ Model File
# Exported from SketchUp, (c) 2000-2012 Trimble Navigation Limited
# File units = meters

mtllib DES031.mtl

g Mesh1 ventana2_1 DES031 Model

usemtl Color_000
v 0.871683 5.51273 -17.9558
vt 1.37598 21.7563
vn -0.999965 4.85804e-015 0.00841171
v 0.871506 5.63173 -17.9768
vt 0.549204 26.4413
v 0.871506 5.51273 -17.9768
vt 0.549204 21.7563
f 1/1/1 2/2/1 3/3/1

v 0.871683 5.63173 -17.9558
vt 1.37598 26.4413
f 2/2/1 1/1/1 4/4/1

vn 0.999965 -4.85804e-015 -0.00841171
f 3/3/2 2/2/2 1/1/2

v 0.871389 6.36012 -17.9908
vt -1.54815e-043 55.1181
f 5/5/1 3/3/1 2/2/1

v 0.871389 5.51012 -17.9908
vt -1.54815e-043 21.6535
f 3/3/1 5/5/1 6/6/1

f 6/6/2 5/5/2 3/3/2

v 0.921387 6.36012 -17.9912
vt -1.9685 55.1181
vn -0.00841171 4.48499e-015 -0.999965
vt -7.10543e-015 21.6535
vt -7.10543e-015 55.1181
f 7/7/3 6/8/3 5/9/3

v 0.921387 4.96012 -17.9912
vt -1.9685 2.84217e-014
f 6/8/3 7/7/3 8/10/3

vn 0.00841171 -4.48499e-015 0.999965
f 5/9/4 6/8/4 7/7/4

f 8/10/4 7/7/4 6/8/4

vt 9.09495e-013 2.84217e-014
v 0.921808 5.01012 -17.9412
vt 1.9685 1.9685
vt 9.09495e-013 55.1181
f 8/11/1 9/12/1 7/13/1

v 0.93064 5.01012 -16.8912
vt 43.3071 1.9685
f 9/12/1 8/11/1 10/14/1

usemtl M_0128_White
f 7/13/2 9/12/2 8/11/2

usemtl Color_000
v 0.921808 6.31012 -17.9412
vt 1.9685 53.1496
f 7/13/1 9/12/1 11/15/1

usemtl M_0128_White
f 11/15/2 9/12/2 7/13/2

v 0.871809 6.31012 -17.9408
vt 4.61853e-013 53.1496
f 12/16/4 9/12/4 11/15/4

v 0.871809 5.01012 -17.9408
vt 4.61853e-013 1.9685
f 9/12/4 12/16/4 13/17/4

usemtl Color_000
f 13/17/3 12/16/3 9/12/3

f 1/1/1 13/12/1 12/15/1

f 6/6/1 13/12/1 1/1/1

v 0.871389 4.96012 -17.9908
vt 0 0
f 14/18/1 13/12/1 6/6/1

v 0.880642 5.01012 -16.8908
f 13/12/1 14/18/1 15/14/1

f 6/6/2 13/12/2 14/18/2

f 1/1/2 13/12/2 6/6/2

f 12/15/2 13/12/2 1/1/2

f 1/1/1 12/15/1 4/4/1

f 4/4/2 12/15/2 1/1/2

f 5/5/1 4/4/1 12/15/1

f 5/5/1 2/2/1 4/4/1

f 2/2/2 3/3/2 5/5/2

f 4/4/2 2/2/2 5/5/2

f 4/4/2 1/1/2 2/2/2

f 12/15/2 4/4/2 5/5/2

v 0.881062 6.36012 -16.8408
vt 45.2756 55.1181
f 5/5/1 12/15/1 16/19/1

f 16/19/2 12/15/2 5/5/2

v 0.880642 6.31012 -16.8908
vt 43.3071 53.1496
f 17/20/1 16/19/1 12/15/1

v 0.881062 6.31012 -16.8408
vt 45.2756 53.1496
f 17/20/1 18/21/1 16/19/1

v 0.881062 5.01012 -16.8408
vt 45.2756 1.9685
f 17/20/1 19/22/1 18/21/1

f 15/14/1 19/22/1 17/20/1

f 14/18/1 19/22/1 15/14/1

v 0.881062 4.96012 -16.8408
vt 45.2756 0
f 19/22/1 14/18/1 20/23/1

f 20/23/2 14/18/2 19/22/2

vt -9.09495e-013 1.9685
vn -4.89559e-015 -1 -4.44397e-015
vt -45.2756 4.61853e-013
f 8/24/5 20/25/5 14/18/5

v 0.931061 4.96012 -16.8412
vt -45.2756 1.9685
f 20/25/5 8/24/5 21/26/5

vn 4.89559e-015 1 4.44397e-015
f 14/18/6 20/25/6 8/24/6

f 21/26/6 8/24/6 20/25/6

v 0.931061 5.01012 -16.8412
vt 45.2756 2.84217e-014
f 22/22/1 8/11/1 21/27/1

f 8/11/1 22/22/1 10/14/1

usemtl M_0128_White
f 21/27/2 8/11/2 22/22/2

f 10/14/2 22/22/2 8/11/2

usemtl Color_000
v 0.93064 6.31012 -16.8912
f 10/14/1 22/22/1 23/20/1

usemtl M_0128_White
f 23/20/2 22/22/2 10/14/2

usemtl Color_000
v 0.931061 6.31012 -16.8412
f 23/20/1 22/22/1 24/21/1

usemtl M_0128_White
f 24/21/2 22/22/2 23/20/2

f 24/15/4 19/17/4 22/12/4

vt 7.10543e-015 53.1496
f 19/17/4 24/15/4 18/28/4

usemtl Color_000
f 18/28/3 24/15/3 19/17/3

usemtl M_0128_White
v 0.889474 6.31012 -15.8408
vt -84.6457 7.10543e-015
vt -45.2756 7.10543e-015
f 24/26/5 25/29/5 18/30/5

v 0.938471 6.31012 -15.9602
vt -79.9606 1.9685
f 25/29/5 24/26/5 26/31/5

usemtl Color_000
f 18/30/6 25/29/6 24/26/6

vt 84.6457 53.1496
f 25/32/1 16/19/1 18/21/1

v 0.889895 6.36012 -15.7908
vt 86.6142 55.1181
f 16/19/1 25/32/1 27/33/1

f 18/21/2 16/19/2 25/32/2

vt -1.42109e-014 55.1181
vt -1.9685 53.1496
vt -7.10543e-015 53.1496
f 16/34/3 24/35/3 18/36/3

v 0.931061 6.36012 -16.8412
f 24/35/3 16/34/3 28/7/3

f 18/36/4 24/35/4 16/34/4

f 28/7/4 16/34/4 24/35/4

vt 86.6142 1.37135e-012
vt 45.2756 1.42109e-014
f 27/37/6 28/22/6 16/38/6

v 0.939893 6.36012 -15.7913
vt 86.6142 1.9685
f 28/22/6 27/37/6 29/39/6

f 16/38/5 28/22/5 27/37/5

v 0.880642 6.36012 -16.8908
vt 43.3071 4.61853e-013
f 28/22/6 30/40/6 16/38/6

v 0.93064 6.36012 -16.8912
f 30/40/6 28/22/6 31/14/6

f 31/14/5 28/22/5 30/40/5

vt 43.3071 55.1181
f 28/19/1 31/41/1 24/21/1

usemtl M_0128_White
f 24/21/2 31/41/2 28/19/2

usemtl Color_000
f 7/13/1 24/21/1 31/41/1

f 7/13/1 11/15/1 24/21/1

usemtl M_0128_White
f 24/21/2 11/15/2 7/13/2

usemtl Color_000
v 0.930413 6.31012 -16.9182
vt 42.2441 53.1496
f 32/42/1 24/21/1 11/15/1

f 23/20/1 24/21/1 32/42/1

usemtl M_0128_White
f 32/42/2 24/21/2 23/20/2

f 11/15/2 24/21/2 32/42/2

vt -43.3071 4.61853e-013
vt -1.9685 1.9685
vt -42.2441 1.9685
f 17/43/5 11/44/5 32/45/5

vt -1.9685 4.61853e-013
f 11/44/5 17/43/5 12/46/5

usemtl Color_000
f 12/46/6 17/43/6 11/44/6

f 12/15/2 16/19/2 17/20/2

f 16/19/2 18/21/2 17/20/2

f 18/21/2 19/22/2 17/20/2

f 17/20/2 19/22/2 15/14/2

f 15/14/2 19/22/2 14/18/2

f 15/14/2 14/18/2 13/12/2

usemtl M_0128_White
vn 4.89672e-015 1 4.57825e-015
vt 1.9685 4.61853e-013
f 15/40/7 9/12/7 13/47/7

f 9/12/7 15/40/7 10/14/7

usemtl Color_000
vn -4.89672e-015 -1 -4.57825e-015
f 13/47/8 9/12/8 15/40/8

f 10/14/8 15/40/8 9/12/8

usemtl M_0128_White
vt -4.61853e-013 1.9685
f 15/48/3 23/35/3 10/44/3

vt -4.61853e-013 53.1496
f 23/35/3 15/48/3 17/49/3

usemtl Color_000
f 17/49/4 15/48/4 23/35/4

f 10/44/4 23/35/4 15/48/4

usemtl Translucent_Glass_Blue
vn -0.999965 8.40825e-015 0.00841171
f 23/20/9 9/12/9 10/14/9

f 9/12/9 23/20/9 11/15/9

vn 0.999965 -8.40825e-015 -0.00841171
f 10/14/10 9/12/10 23/20/10

usemtl M_0128_White
f 10/14/2 8/11/2 9/12/2

usemtl Translucent_Glass_Blue
f 11/15/10 23/20/10 9/12/10

f 11/15/9 23/20/9 32/42/9

f 32/42/10 23/20/10 11/15/10

usemtl M_0128_White
vt -43.3071 1.9685
f 17/43/5 32/45/5 23/50/5

usemtl Color_000
f 32/45/6 11/44/6 17/43/6

f 23/50/6 32/45/6 17/43/6

f 11/15/3 9/12/3 12/16/3

usemtl M_0128_White
f 31/41/2 24/21/2 7/13/2

usemtl Color_000
vt 9.09495e-013 1.9685
f 7/51/6 30/40/6 31/14/6

vt 0 7.10543e-015
f 30/40/6 7/51/6 5/52/6

f 5/52/5 7/51/5 30/40/5

f 31/14/5 30/40/5 7/51/5

f 5/5/1 16/19/1 30/41/1

f 30/41/2 16/19/2 5/5/2

f 16/38/5 30/40/5 28/22/5

f 24/21/1 29/33/1 28/19/1

vt 79.9606 53.1496
f 26/53/1 29/33/1 24/21/1

v 0.939472 6.31012 -15.8413
f 33/32/1 29/33/1 26/53/1

v 0.939472 5.01012 -15.8413
vt 84.6457 1.9685
f 34/54/1 29/33/1 33/32/1

v 0.939893 4.96012 -15.7913
vt 86.6142 0
f 34/54/1 35/55/1 29/33/1

f 35/55/1 34/54/1 21/27/1

usemtl M_0128_White
f 21/27/2 34/54/2 35/55/2

usemtl Color_000
f 22/22/1 21/27/1 34/54/1

vt -4.61853e-013 0
f 20/56/3 22/44/3 21/10/3

f 22/44/3 20/56/3 19/48/3

f 19/48/4 20/56/4 22/44/4

v 0.889474 5.01012 -15.8408
f 20/23/1 36/54/1 19/22/1

v 0.889895 4.96012 -15.7908
f 37/55/1 36/54/1 20/23/1

v 0.889768 5.51273 -15.8059
vt 86.0216 21.7563
f 36/54/1 37/55/1 38/57/1

f 20/23/2 36/54/2 37/55/2

f 19/22/2 36/54/2 20/23/2

usemtl M_0128_White
vt 84.6457 7.10543e-015
vn 4.89488e-015 1 4.35937e-015
vt 45.2756 4.61853e-013
f 36/58/11 22/22/11 19/59/11

f 22/22/11 36/58/11 34/54/11

usemtl Color_000
vn -4.89488e-015 -1 -4.35937e-015
f 19/59/12 22/22/12 36/58/12

f 22/12/3 19/17/3 24/15/3

usemtl Translucent_Glass_Blue
vn -0.999965 1.40645e-014 0.00841171
f 22/22/13 26/53/13 24/21/13

f 22/22/13 33/32/13 26/53/13

f 33/32/13 22/22/13 34/54/13

vn 0.999965 -1.40645e-014 -0.00841171
f 34/54/14 22/22/14 33/32/14

usemtl Color_000
f 34/54/12 36/58/12 22/22/12

usemtl M_0128_White
vt -7.10543e-015 1.9685
f 36/60/3 33/35/3 34/44/3

f 33/35/3 36/60/3 25/36/3

usemtl Color_000
f 25/36/4 36/60/4 33/35/4

v 0.889591 5.51273 -15.8269
vt 85.1949 21.7563
f 36/54/1 39/61/1 25/32/1

f 39/61/1 36/54/1 38/57/1

f 25/32/2 39/61/2 36/54/2

v 0.889591 5.63173 -15.8269
vt 85.1949 26.4413
f 25/32/1 39/61/1 40/62/1

f 40/62/2 39/61/2 25/32/2

v 0.889768 5.63173 -15.8059
vt 86.0216 26.4413
f 39/61/1 41/63/1 40/62/1

f 41/63/1 39/61/1 38/57/1

f 38/57/2 39/61/2 41/63/2

f 38/57/2 36/54/2 39/61/2

f 38/57/2 37/55/2 36/54/2

f 38/57/1 37/55/1 27/33/1

f 27/33/2 37/55/2 38/57/2

vt 1.9685 0
vt 1.37135e-012 55.1181
vt 1.37135e-012 0
f 35/64/4 27/65/4 37/66/4

vt 1.9685 55.1181
f 27/65/4 35/64/4 29/67/4

f 37/66/3 27/65/3 35/64/3

f 29/67/3 35/64/3 27/65/3

usemtl M_0128_White
f 29/33/2 35/55/2 34/54/2

f 33/32/2 29/33/2 34/54/2

f 26/53/2 29/33/2 33/32/2

f 24/21/2 29/33/2 26/53/2

f 28/19/2 29/33/2 24/21/2

usemtl Color_000
f 29/39/5 27/37/5 28/22/5

f 26/31/6 24/26/6 25/29/6

usemtl Translucent_Glass_Blue
f 24/21/14 26/53/14 22/22/14

f 26/53/14 33/32/14 22/22/14

usemtl M_0128_White
vt -84.6457 1.9685
f 25/29/5 26/31/5 33/68/5

usemtl Color_000
f 33/68/6 26/31/6 25/29/6

f 34/44/4 33/35/4 36/60/4

vt -86.6142 1.9685
vt -86.6142 1.37135e-012
f 20/25/5 35/69/5 37/70/5

f 35/69/5 20/25/5 21/26/5

f 21/26/6 20/25/6 35/69/6

f 21/10/4 22/44/4 20/56/4

usemtl M_0128_White
f 34/54/2 21/27/2 22/22/2

usemtl Color_000
f 37/70/6 35/69/6 20/25/6

f 38/57/1 27/33/1 41/63/1

f 41/63/2 27/33/2 38/57/2

f 41/63/1 27/33/1 40/62/1

f 40/62/2 27/33/2 41/63/2

f 40/62/1 27/33/1 25/32/1

f 25/32/2 27/33/2 40/62/2

f 27/33/2 25/32/2 16/19/2

f 40/62/2 41/63/2 39/61/2

f 8/10/3 14/18/3 6/8/3

f 6/8/4 14/18/4 8/10/4

f 6/6/1 1/1/1 3/3/1

f 3/3/2 1/1/2 6/6/2

g Mesh2 ventana2_1 DES031 Model

l 3 1

l 2 3

l 4 2

l 1 4

g Mesh3 ventana2_1 DES031 Model

l 9 10

l 9 13

l 11 9

l 11 12

l 32 11

l 23 32

l 23 17

l 23 10

l 10 15

l 13 15

l 12 13

l 17 12

l 17 15

g Mesh4 ventana2_1 DES031 Model

l 6 5

l 14 6

l 8 14

l 8 7

l 21 8

l 22 21

l 22 19

l 24 22

l 24 18

l 28 24

l 31 28

l 7 31

l 7 5

l 5 30

l 31 30

l 30 16

l 28 16

l 28 29

l 29 27

l 29 35

l 35 37

l 35 21

l 21 20

l 19 20

l 19 36

l 18 19

l 25 18

l 36 25

l 34 36

l 34 33

l 22 34

l 33 25

l 33 26

l 26 24

l 16 18

l 16 27

l 27 37

l 37 20

l 20 14

g Mesh5 ventana2_1 DES031 Model

l 38 41

l 39 38

l 40 39

l 41 40

g Mesh6 DES031 Model

usemtl _Color_C03_3
v 8.85869 7.66012 -18.3451
vt 326.748 141.732
vn 0.138861 -5.08072e-015 0.990312
v 8.82882 4.06012 -18.3409
vt 325.561 3.57216e-014
v 8.85869 4.06012 -18.3451
vt 326.748 3.57216e-014
f 42/71/15 43/72/4 44/73/15

v 8.82882 7.66012 -18.3409
vt 325.561 141.732
f 43/72/4 42/71/15 45/74/4

usemtl _7
vt 3.69582 0.833966
vn -0.138861 5.08072e-015 -0.990312
vt 3.68597 0.833966
vt 3.69582 1.57342
f 44/75/16 43/76/3 42/77/16

v 8.8731 4.06012 -16.632
vt -2.89687 3.41628
vn -4.76284e-015 -1 -8.34039e-017
vt -2.88241 3.7673
vt -2.89216 3.76816
f 46/78/17 43/79/17 44/80/17

v 8.76405 4.06012 -18.3489
vt -2.86126 3.76894
f 46/78/17 47/81/17 43/79/17

v 8.70355 4.06012 -18.3733
vt -2.84151 3.77396
f 46/78/17 48/82/17 47/81/17

v 8.65144 4.06012 -18.4126
vt -2.8245 3.78203
f 46/78/17 49/83/17 48/82/17

v 8.61127 4.06012 -18.4641
vt -2.81139 3.7926
f 46/78/17 50/84/17 49/83/17

v 8.60494 4.06012 -18.479
vt -2.80932 3.79567
f 46/78/17 51/85/17 50/84/17

v 8.02313 4.06012 -16.6248
vt -2.61937 3.41481
f 52/86/17 51/85/17 46/78/17

v 1.21992 4.06012 -18.1669
vt -0.398276 3.73156
f 53/87/17 51/85/17 52/86/17

v 1.21782 4.06012 -18.4169
vt -0.397589 3.78291
f 51/85/17 53/87/17 54/88/17

usemtl _Tile_Ceramic_Natural_14
vt -0.8637 13.0616
vn 4.76284e-015 1 8.34039e-017
vt -0.865191 12.8843
vt -6.10279 13.1057
f 54/89/18 53/90/18 51/91/18

usemtl Color_D03
vt 113.136 1.86145e-012
v 1.21992 7.66012 -18.1669
vt 103.293 141.732
vt 103.293 1.9183e-012
f 54/92/2 55/93/2 53/94/2

v 1.21782 7.66012 -18.4169
vt 113.136 141.732
f 55/93/2 54/92/2 56/95/2

usemtl _7
vt 5.92752 0.833966
vt 5.92752 1.57342
vt 6.00914 0.833966
f 53/96/1 55/97/1 54/98/1

usemtl Color_D03
vt 14.5911 141.732
v 0.91993 4.06012 -18.1644
vt 2.78004 1.38414e-012
vt 14.5911 1.38414e-012
f 55/99/4 57/100/4 53/101/4

v 0.91993 7.66012 -18.1644
vt 2.78004 141.732
f 57/100/4 55/99/4 58/102/4

usemtl _7
vt 0.448152 0.833966
vt 0.350209 0.833966
vt 0.448152 1.57342
f 53/103/3 57/104/3 55/105/3

v 0.921387 4.06012 -17.9912
vt -0.300812 3.69546
vt -0.300336 3.73104
f 53/87/17 59/106/17 57/107/17

v 0.939893 4.06012 -15.7913
vt -0.306854 3.24359
f 59/106/17 53/87/17 60/108/17

usemtl _Tile_Ceramic_Natural_14
vt -0.652433 12.8825
vt -0.653466 12.7597
f 57/109/18 59/110/18 53/90/18

usemtl Color_D03
v 0.921387 4.96012 -17.9912
vt 96.474 35.4331
vn 0.999965 -8.52611e-014 -0.00841171
vt 96.474 1.94233e-012
vt 103.293 2.08444e-012
f 61/111/19 59/112/19 57/113/19

v 0.939893 4.96012 -15.7913
vt 9.8598 35.4331
f 62/114/19 59/112/19 61/111/19

vt 9.8598 1.60127e-012
f 62/114/19 60/115/19 59/112/19

v 0.939893 6.36012 -15.7913
vt 9.8598 90.5512
f 60/115/19 62/114/19 63/116/19

usemtl _7
vt 5.15272 1.3064
vn -0.999965 8.52611e-014 0.00841171
vt 5.15272 1.01883
vt 5.15272 0.833966
f 63/117/20 62/118/20 60/119/20

vt 5.87097 0.833966
f 59/120/20 60/119/20 62/118/20

usemtl _Tile_Ceramic_Natural_14
vt -0.666591 11.1995
f 60/121/18 53/90/18 59/110/18

usemtl _7
v 0.942004 4.06012 -15.5402
vt -0.307543 3.19203
f 60/108/17 53/87/17 64/122/17

usemtl _Tile_Ceramic_Natural_14
vt -0.668088 11.0214
f 64/123/18 53/90/18 60/121/18

usemtl _7
v 8.03175 4.06012 -15.5999
vt -2.62219 3.20428
f 64/122/17 53/87/17 65/124/17

usemtl _Tile_Ceramic_Natural_14
vt -5.69628 11.0637
f 65/125/18 53/90/18 64/123/18

usemtl _7
f 65/124/17 53/87/17 52/86/17

usemtl _Tile_Ceramic_Natural_14
vt -5.69016 11.7907
f 52/126/18 53/90/18 65/125/18

f 52/126/18 51/91/18 53/90/18

vt -6.29298 11.7957
f 46/127/18 51/91/18 52/126/18

vt -6.10729 13.0951
f 50/128/18 51/91/18 46/127/18

usemtl _Color_C03_3
v 8.61127 7.66012 -18.4641
vt 12.9996 141.732
vn -0.861789 1.96462e-015 0.507267
vt 12.3604 1.27163e-012
vn -0.920628 2.77177e-015 0.390441
vt 12.9996 1.27163e-012
f 66/129/21 51/130/22 50/131/21

v 8.60494 7.66012 -18.479
vt 12.3604 141.732
f 51/130/22 66/129/21 67/132/22

usemtl _7
vt -4.45196 0.833966
vn 0.861789 -1.96462e-015 -0.507267
vt -4.45726 0.833966
vn 0.920628 -2.77177e-015 -0.390441
vt -4.45196 1.57342
f 50/133/23 51/134/24 66/135/23

vt -4.45726 1.57342
f 67/136/24 66/135/23 51/134/24

usemtl _Color_C03_3
v 8.60494 7.06012 -18.479
vt 12.3604 118.11
f 51/130/22 67/132/22 68/137/22

usemtl _7
vt -4.45726 1.45018
f 68/138/24 67/136/24 51/134/24

usemtl Color_D03
vt 305.433 118.11
vt 305.433 141.732
f 56/99/4 68/139/4 67/140/4

vt 14.5911 1.28316e-012
f 54/141/4 68/139/4 56/99/4

vt 305.433 -1.3793e-013
f 68/139/4 54/141/4 51/142/4

usemtl _7
vt 2.85996 0.833966
vt 2.85996 1.45018
f 51/143/3 54/103/3 68/144/3

f 56/105/3 68/144/3 54/103/3

vt 2.85996 1.57342
f 67/145/3 68/144/3 56/105/3

vt 6.00914 1.57342
f 56/146/1 54/98/1 55/97/1

usemtl _Color_C03_3
vt 96.7966 7.19026e-013
v 8.65144 7.66012 -18.4126
vt 99.3661 141.732
vn -0.701134 2.63784e-016 0.71303
vt 96.7966 141.732
f 50/147/21 69/148/25 66/149/21

vt 99.3661 6.90604e-013
f 69/148/25 50/147/21 49/150/25

usemtl _7
vt -2.99991 0.833966
vn 0.701134 -2.63784e-016 -0.71303
vt -3.02121 0.833966
vt -2.99991 1.57342
f 49/151/26 50/152/23 69/153/26

usemtl _Tile_Ceramic_Natural_14
vt -6.13577 13.0586
f 49/154/18 50/128/18 46/127/18

vt -6.17273 13.0307
f 48/155/18 49/154/18 46/127/18

usemtl _Color_C03_3
vt 179.048 3.46547e-013
vn -0.492698 -1.4551e-015 0.870201
vt 176.479 141.732
vt 176.479 1.76017e-013
f 48/156/27 69/157/25 49/158/25

v 8.70355 7.66012 -18.3733
vt 179.048 141.732
f 69/157/25 48/156/27 70/159/27

usemtl _7
vt -1.364 0.833966
vt -1.364 1.57342
vt -1.34269 0.833966
vn 0.492698 1.4551e-015 -0.870201
f 49/160/26 69/161/26 48/162/28

vt -1.34269 1.57342
f 70/163/28 48/162/28 69/161/26

usemtl _Color_C03_3
vt 244.047 1.12712e-014
v 8.76405 7.66012 -18.3489
vt 246.616 141.732
vn -0.250685 -3.07482e-015 0.968069
vt 244.047 141.732
f 48/164/27 71/165/29 70/166/27

vt 246.616 -1.87681e-013
f 71/165/29 48/164/27 47/167/29

usemtl _7
vt 0.406753 0.833966
vn 0.250685 3.07482e-015 -0.968069
vt 0.385446 0.833966
vt 0.406753 1.57342
f 47/168/30 48/169/28 71/170/30

usemtl _Tile_Ceramic_Natural_14
vt -6.21564 13.0134
f 47/171/18 48/155/18 46/127/18

vt -6.26158 13.0077
f 43/172/18 47/171/18 46/127/18

usemtl _Color_C03_3
vt 297.466 -1.93683e-013
vt 294.896 141.732
vt 294.896 -2.50526e-013
f 43/173/4 71/174/29 47/175/29

vt 297.466 141.732
f 71/174/29 43/173/4 45/176/4

usemtl _7
vt 2.1079 0.833966
vt 2.1079 1.57342
vt 2.1292 0.833966
f 47/177/30 71/178/30 43/179/3

vt 2.1292 1.57342
f 45/180/3 43/179/3 71/178/30

vt 3.68597 1.57342
f 45/181/3 42/77/16 43/76/3

usemtl _Tile_Ceramic_Natural_14
vt -6.28276 13.0107
f 44/182/18 43/172/18 46/127/18

usemtl Color_D03
v 8.8731 7.66012 -16.632
vt -40.3309 141.732
vt -107.779 1.9016e-012
vt -40.3309 1.53212e-012
f 72/183/1 44/184/1 46/185/1

vt -107.779 141.732
f 44/184/1 72/183/1 42/186/1

usemtl _7
vt -5.4054 0.833966
vt -5.96472 0.833966
vt -5.4054 1.57342
f 46/187/2 44/188/2 72/189/2

vt -5.96472 1.57342
f 42/190/2 72/189/2 44/188/2

usemtl Color_D03
vt -281.914 -1.03537e-014
vt -315.378 141.732
vt -315.378 -1.80884e-013
f 52/191/3 72/192/3 46/193/3

v 8.02313 7.66012 -16.6248
vt -281.914 141.732
f 72/192/3 52/191/3 73/194/3

f 46/193/4 72/192/4 52/191/4

f 73/194/4 52/191/4 72/192/4

v 8.02452 7.06012 -16.4598
vt -33.8349 118.11
vn -0.999965 9.14541e-014 0.00841171
vt -40.3309 2.59527e-011
f 74/195/31 73/183/31 52/196/31

v 8.03167 7.06012 -15.6099
vt -0.370315 118.11
f 75/197/31 73/183/31 74/195/31

v 8.03175 7.66012 -15.5999
vt 0.0233857 141.732
f 75/197/31 76/198/31 73/183/31

v 8.03167 4.06012 -15.6099
vt -0.370315 2.64643e-011
f 77/199/31 76/198/31 75/197/31

vt 0.0233857 2.64643e-011
f 76/198/31 77/199/31 65/200/31

usemtl BackColor
vn 0.999965 -9.14541e-014 -0.00841171
f 65/200/32 77/199/32 76/198/32

usemtl _7
v 8.02452 4.06012 -16.4598
vt -2.61982 3.38092
vt -2.62216 3.20633
f 65/124/17 78/201/17 77/202/17

f 65/124/17 52/86/17 78/201/17

usemtl _Tile_Ceramic_Natural_14
vt -5.69115 11.6736
f 78/203/18 52/126/18 65/125/18

usemtl Color_D03
vt -33.8349 2.6038e-011
f 52/196/31 78/204/31 74/195/31

usemtl BackColor
f 74/195/32 78/204/32 52/196/32

f 52/196/32 73/183/32 74/195/32

f 74/195/32 73/183/32 75/197/32

f 73/183/32 76/198/32 75/197/32

f 75/197/32 76/198/32 77/199/32

usemtl _Tile_Ceramic_Natural_14
vt -5.69622 11.0708
f 77/205/18 78/203/18 65/125/18

usemtl Color_D03
vt -2.78004 2.15961e-012
vn -0.00841171 -1.88431e-014 -0.999965
vt -281.914 6.8168e-013
f 64/206/33 76/194/33 65/207/33

v 0.942004 7.66012 -15.5402
vt -2.78004 141.732
f 76/194/33 64/206/33 79/208/33

usemtl BackColor
vn 0.00841171 1.88431e-014 0.999965
f 65/207/34 76/194/34 64/206/34

f 79/208/34 64/206/34 76/194/34

usemtl Color_D03
vt -0.0233857 141.732
vt -0.0233857 2.39708e-012
f 60/115/19 79/209/19 64/210/19

f 79/209/19 60/115/19 63/116/19

usemtl _7
vt 5.07077 0.833966
vt 5.07077 1.57342
f 64/211/20 79/212/20 60/119/20

f 63/117/20 60/119/20 79/212/20

usemtl Color_D03
f 79/209/19 63/116/19 58/93/19

usemtl _7
f 58/97/20 63/117/20 79/212/20

usemtl Color_D03
v 0.921387 6.36012 -17.9912
vt 96.474 90.5512
f 58/93/19 63/116/19 80/213/19

usemtl _7
vt 5.87097 1.3064
f 80/214/20 63/117/20 58/97/20

usemtl Color_D03
f 58/93/19 80/213/19 61/111/19

usemtl _7
vt 5.87097 1.01883
f 61/215/20 80/214/20 58/97/20

usemtl Color_D03
f 58/93/19 61/111/19 57/113/19

usemtl _7
f 57/96/20 61/215/20 58/97/20

f 57/96/20 59/120/20 61/215/20

f 61/215/20 59/120/20 62/118/20

vt 0.350209 1.57342
f 58/216/3 55/105/3 57/104/3

vt 0.385446 1.57342
f 70/217/28 71/170/30 48/169/28

vt -3.02121 1.57342
f 66/218/23 69/153/26 50/152/23

g Mesh7 DES031 Model

l 43 44

l 47 43

l 48 47

l 49 48

l 50 49

l 51 50

l 51 54

l 51 68

l 68 67

l 67 56

l 67 66

l 66 69

l 69 70

l 70 71

l 71 45

l 45 42

l 44 42

l 44 46

l 46 52

l 46 72

l 72 73

l 42 72

l 76 73

l 65 76

l 64 65

l 64 79

l 64 60

l 59 60

l 59 57

l 53 57

l 54 53

l 54 56

l 56 55

l 53 55

l 55 58

l 57 58

l 79 58

l 79 76

l 65 77

l 77 75

l 78 77

l 74 78

l 75 74

l 52 78

l 52 73

g Mesh8 DES031 Model

l 63 80

l 62 63

l 61 62

l 61 80

g Mesh9 Model

v 145.914 3.3 -184.316
v 145.914 3.33 -184.316
l 81 82

g Mesh10 Model

v 138.951 3.33 -157.425
v 138.951 3.3 -157.425
l 83 84

