# Alias OBJ Model File
# Exported from SketchUp, (c) 2000-2012 Trimble Navigation Limited
# File units = meters

mtllib DES029.mtl

g Mesh1 ventana2_1 DES029 Model

usemtl Color_000
v 0.821606 5.51273 -23.9088
vt 1.37598 21.7563
vn -0.999965 4.85804e-015 0.00841171
v 0.82143 5.63173 -23.9298
vt 0.549204 26.4413
v 0.82143 5.51273 -23.9298
vt 0.549204 21.7563
f 1/1/1 2/2/1 3/3/1

v 0.821606 5.63173 -23.9088
vt 1.37598 26.4413
f 2/2/1 1/1/1 4/4/1

vn 0.999965 -4.85804e-015 -0.00841171
f 3/3/2 2/2/2 1/1/2

v 0.821312 6.36012 -23.9437
vt -1.54815e-043 55.1181
f 5/5/1 3/3/1 2/2/1

v 0.821312 5.51012 -23.9437
vt -1.54815e-043 21.6535
f 3/3/1 5/5/1 6/6/1

f 6/6/2 5/5/2 3/3/2

v 0.87131 6.36012 -23.9442
vt -1.9685 55.1181
vn -0.00841171 4.48499e-015 -0.999965
vt -7.10543e-015 21.6535
vt -7.10543e-015 55.1181
f 7/7/3 6/8/3 5/9/3

v 0.87131 4.96012 -23.9442
vt -1.9685 2.84217e-014
f 6/8/3 7/7/3 8/10/3

vn 0.00841171 -4.48499e-015 0.999965
f 5/9/4 6/8/4 7/7/4

f 8/10/4 7/7/4 6/8/4

vt 9.09495e-013 2.84217e-014
v 0.871731 5.01012 -23.8942
vt 1.9685 1.9685
vt 9.09495e-013 55.1181
f 8/11/1 9/12/1 7/13/1

v 0.880563 5.01012 -22.8442
vt 43.3071 1.9685
f 9/12/1 8/11/1 10/14/1

usemtl M_0128_White
f 7/13/2 9/12/2 8/11/2

usemtl Color_000
v 0.871731 6.31012 -23.8942
vt 1.9685 53.1496
f 7/13/1 9/12/1 11/15/1

usemtl M_0128_White
f 11/15/2 9/12/2 7/13/2

v 0.821733 6.31012 -23.8937
vt 4.61853e-013 53.1496
f 12/16/4 9/12/4 11/15/4

v 0.821733 5.01012 -23.8937
vt 4.61853e-013 1.9685
f 9/12/4 12/16/4 13/17/4

usemtl Color_000
f 13/17/3 12/16/3 9/12/3

f 1/1/1 13/12/1 12/15/1

f 6/6/1 13/12/1 1/1/1

v 0.821312 4.96012 -23.9437
vt 0 0
f 14/18/1 13/12/1 6/6/1

v 0.830565 5.01012 -22.8438
f 13/12/1 14/18/1 15/14/1

f 6/6/2 13/12/2 14/18/2

f 1/1/2 13/12/2 6/6/2

f 12/15/2 13/12/2 1/1/2

f 1/1/1 12/15/1 4/4/1

f 4/4/2 12/15/2 1/1/2

f 5/5/1 4/4/1 12/15/1

f 5/5/1 2/2/1 4/4/1

f 2/2/2 3/3/2 5/5/2

f 4/4/2 2/2/2 5/5/2

f 4/4/2 1/1/2 2/2/2

f 12/15/2 4/4/2 5/5/2

v 0.830986 6.36012 -22.7938
vt 45.2756 55.1181
f 5/5/1 12/15/1 16/19/1

f 16/19/2 12/15/2 5/5/2

v 0.830565 6.31012 -22.8438
vt 43.3071 53.1496
f 17/20/1 16/19/1 12/15/1

v 0.830986 6.31012 -22.7938
vt 45.2756 53.1496
f 17/20/1 18/21/1 16/19/1

v 0.830986 5.01012 -22.7938
vt 45.2756 1.9685
f 17/20/1 19/22/1 18/21/1

f 15/14/1 19/22/1 17/20/1

f 14/18/1 19/22/1 15/14/1

v 0.830986 4.96012 -22.7938
vt 45.2756 0
f 19/22/1 14/18/1 20/23/1

f 20/23/2 14/18/2 19/22/2

vt -9.09495e-013 1.9685
vn -4.89559e-015 -1 -4.44397e-015
vt -45.2756 4.61853e-013
f 8/24/5 20/25/5 14/18/5

v 0.880984 4.96012 -22.7942
vt -45.2756 1.9685
f 20/25/5 8/24/5 21/26/5

vn 4.89559e-015 1 4.44397e-015
f 14/18/6 20/25/6 8/24/6

f 21/26/6 8/24/6 20/25/6

v 0.880984 5.01012 -22.7942
vt 45.2756 2.84217e-014
f 22/22/1 8/11/1 21/27/1

f 8/11/1 22/22/1 10/14/1

usemtl M_0128_White
f 21/27/2 8/11/2 22/22/2

f 10/14/2 22/22/2 8/11/2

usemtl Color_000
v 0.880563 6.31012 -22.8442
f 10/14/1 22/22/1 23/20/1

usemtl M_0128_White
f 23/20/2 22/22/2 10/14/2

usemtl Color_000
v 0.880984 6.31012 -22.7942
f 23/20/1 22/22/1 24/21/1

usemtl M_0128_White
f 24/21/2 22/22/2 23/20/2

f 24/15/4 19/17/4 22/12/4

vt 7.10543e-015 53.1496
f 19/17/4 24/15/4 18/28/4

usemtl Color_000
f 18/28/3 24/15/3 19/17/3

usemtl M_0128_White
v 0.839397 6.31012 -21.7938
vt -84.6457 7.10543e-015
vt -45.2756 7.10543e-015
f 24/26/5 25/29/5 18/30/5

v 0.888395 6.31012 -21.9132
vt -79.9606 1.9685
f 25/29/5 24/26/5 26/31/5

usemtl Color_000
f 18/30/6 25/29/6 24/26/6

vt 84.6457 53.1496
f 25/32/1 16/19/1 18/21/1

v 0.839818 6.36012 -21.7438
vt 86.6142 55.1181
f 16/19/1 25/32/1 27/33/1

f 18/21/2 16/19/2 25/32/2

vt -1.42109e-014 55.1181
vt -1.9685 53.1496
vt -7.10543e-015 53.1496
f 16/34/3 24/35/3 18/36/3

v 0.880984 6.36012 -22.7942
f 24/35/3 16/34/3 28/7/3

f 18/36/4 24/35/4 16/34/4

f 28/7/4 16/34/4 24/35/4

vt 86.6142 1.37135e-012
vt 45.2756 1.42109e-014
f 27/37/6 28/22/6 16/38/6

v 0.889816 6.36012 -21.7442
vt 86.6142 1.9685
f 28/22/6 27/37/6 29/39/6

f 16/38/5 28/22/5 27/37/5

v 0.830565 6.36012 -22.8438
vt 43.3071 4.61853e-013
f 28/22/6 30/40/6 16/38/6

v 0.880563 6.36012 -22.8442
f 30/40/6 28/22/6 31/14/6

f 31/14/5 28/22/5 30/40/5

vt 43.3071 55.1181
f 28/19/1 31/41/1 24/21/1

usemtl M_0128_White
f 24/21/2 31/41/2 28/19/2

usemtl Color_000
f 7/13/1 24/21/1 31/41/1

f 7/13/1 11/15/1 24/21/1

usemtl M_0128_White
f 24/21/2 11/15/2 7/13/2

usemtl Color_000
v 0.880336 6.31012 -22.8712
vt 42.2441 53.1496
f 32/42/1 24/21/1 11/15/1

f 23/20/1 24/21/1 32/42/1

usemtl M_0128_White
f 32/42/2 24/21/2 23/20/2

f 11/15/2 24/21/2 32/42/2

vt -43.3071 4.61853e-013
vt -1.9685 1.9685
vt -42.2441 1.9685
f 17/43/5 11/44/5 32/45/5

vt -1.9685 4.61853e-013
f 11/44/5 17/43/5 12/46/5

usemtl Color_000
f 12/46/6 17/43/6 11/44/6

f 12/15/2 16/19/2 17/20/2

f 16/19/2 18/21/2 17/20/2

f 18/21/2 19/22/2 17/20/2

f 17/20/2 19/22/2 15/14/2

f 15/14/2 19/22/2 14/18/2

f 15/14/2 14/18/2 13/12/2

usemtl M_0128_White
vn 4.89672e-015 1 4.57825e-015
vt 1.9685 4.61853e-013
f 15/40/7 9/12/7 13/47/7

f 9/12/7 15/40/7 10/14/7

usemtl Color_000
vn -4.89672e-015 -1 -4.57825e-015
f 13/47/8 9/12/8 15/40/8

f 10/14/8 15/40/8 9/12/8

usemtl M_0128_White
vt -4.61853e-013 1.9685
f 15/48/3 23/35/3 10/44/3

vt -4.61853e-013 53.1496
f 23/35/3 15/48/3 17/49/3

usemtl Color_000
f 17/49/4 15/48/4 23/35/4

f 10/44/4 23/35/4 15/48/4

usemtl Translucent_Glass_Blue
vn -0.999965 8.40825e-015 0.00841171
f 23/20/9 9/12/9 10/14/9

f 9/12/9 23/20/9 11/15/9

vn 0.999965 -8.40825e-015 -0.00841171
f 10/14/10 9/12/10 23/20/10

usemtl M_0128_White
f 10/14/2 8/11/2 9/12/2

usemtl Translucent_Glass_Blue
f 11/15/10 23/20/10 9/12/10

f 11/15/9 23/20/9 32/42/9

f 32/42/10 23/20/10 11/15/10

usemtl M_0128_White
vt -43.3071 1.9685
f 17/43/5 32/45/5 23/50/5

usemtl Color_000
f 32/45/6 11/44/6 17/43/6

f 23/50/6 32/45/6 17/43/6

f 11/15/3 9/12/3 12/16/3

usemtl M_0128_White
f 31/41/2 24/21/2 7/13/2

usemtl Color_000
vt 9.09495e-013 1.9685
f 7/51/6 30/40/6 31/14/6

vt 0 7.10543e-015
f 30/40/6 7/51/6 5/52/6

f 5/52/5 7/51/5 30/40/5

f 31/14/5 30/40/5 7/51/5

f 5/5/1 16/19/1 30/41/1

f 30/41/2 16/19/2 5/5/2

f 16/38/5 30/40/5 28/22/5

f 24/21/1 29/33/1 28/19/1

vt 79.9606 53.1496
f 26/53/1 29/33/1 24/21/1

v 0.889396 6.31012 -21.7942
f 33/32/1 29/33/1 26/53/1

v 0.889396 5.01012 -21.7942
vt 84.6457 1.9685
f 34/54/1 29/33/1 33/32/1

v 0.889816 4.96012 -21.7442
vt 86.6142 0
f 34/54/1 35/55/1 29/33/1

f 35/55/1 34/54/1 21/27/1

usemtl M_0128_White
f 21/27/2 34/54/2 35/55/2

usemtl Color_000
f 22/22/1 21/27/1 34/54/1

vt -4.61853e-013 0
f 20/56/3 22/44/3 21/10/3

f 22/44/3 20/56/3 19/48/3

f 19/48/4 20/56/4 22/44/4

v 0.839397 5.01012 -21.7938
f 20/23/1 36/54/1 19/22/1

v 0.839818 4.96012 -21.7438
f 37/55/1 36/54/1 20/23/1

v 0.839691 5.51273 -21.7589
vt 86.0216 21.7563
f 36/54/1 37/55/1 38/57/1

f 20/23/2 36/54/2 37/55/2

f 19/22/2 36/54/2 20/23/2

usemtl M_0128_White
vt 84.6457 7.10543e-015
vn 4.89488e-015 1 4.35937e-015
vt 45.2756 4.61853e-013
f 36/58/11 22/22/11 19/59/11

f 22/22/11 36/58/11 34/54/11

usemtl Color_000
vn -4.89488e-015 -1 -4.35937e-015
f 19/59/12 22/22/12 36/58/12

f 22/12/3 19/17/3 24/15/3

usemtl Translucent_Glass_Blue
vn -0.999965 1.40645e-014 0.00841171
f 22/22/13 26/53/13 24/21/13

f 22/22/13 33/32/13 26/53/13

f 33/32/13 22/22/13 34/54/13

vn 0.999965 -1.40645e-014 -0.00841171
f 34/54/14 22/22/14 33/32/14

usemtl Color_000
f 34/54/12 36/58/12 22/22/12

usemtl M_0128_White
vt -7.10543e-015 1.9685
f 36/60/3 33/35/3 34/44/3

f 33/35/3 36/60/3 25/36/3

usemtl Color_000
f 25/36/4 36/60/4 33/35/4

v 0.839515 5.51273 -21.7799
vt 85.1949 21.7563
f 36/54/1 39/61/1 25/32/1

f 39/61/1 36/54/1 38/57/1

f 25/32/2 39/61/2 36/54/2

v 0.839515 5.63173 -21.7799
vt 85.1949 26.4413
f 25/32/1 39/61/1 40/62/1

f 40/62/2 39/61/2 25/32/2

v 0.839691 5.63173 -21.7589
vt 86.0216 26.4413
f 39/61/1 41/63/1 40/62/1

f 41/63/1 39/61/1 38/57/1

f 38/57/2 39/61/2 41/63/2

f 38/57/2 36/54/2 39/61/2

f 38/57/2 37/55/2 36/54/2

f 38/57/1 37/55/1 27/33/1

f 27/33/2 37/55/2 38/57/2

vt 1.9685 0
vt 1.37135e-012 55.1181
vt 1.37135e-012 0
f 35/64/4 27/65/4 37/66/4

vt 1.9685 55.1181
f 27/65/4 35/64/4 29/67/4

f 37/66/3 27/65/3 35/64/3

f 29/67/3 35/64/3 27/65/3

usemtl M_0128_White
f 29/33/2 35/55/2 34/54/2

f 33/32/2 29/33/2 34/54/2

f 26/53/2 29/33/2 33/32/2

f 24/21/2 29/33/2 26/53/2

f 28/19/2 29/33/2 24/21/2

usemtl Color_000
f 29/39/5 27/37/5 28/22/5

f 26/31/6 24/26/6 25/29/6

usemtl Translucent_Glass_Blue
f 24/21/14 26/53/14 22/22/14

f 26/53/14 33/32/14 22/22/14

usemtl M_0128_White
vt -84.6457 1.9685
f 25/29/5 26/31/5 33/68/5

usemtl Color_000
f 33/68/6 26/31/6 25/29/6

f 34/44/4 33/35/4 36/60/4

vt -86.6142 1.9685
vt -86.6142 1.37135e-012
f 20/25/5 35/69/5 37/70/5

f 35/69/5 20/25/5 21/26/5

f 21/26/6 20/25/6 35/69/6

f 21/10/4 22/44/4 20/56/4

usemtl M_0128_White
f 34/54/2 21/27/2 22/22/2

usemtl Color_000
f 37/70/6 35/69/6 20/25/6

f 38/57/1 27/33/1 41/63/1

f 41/63/2 27/33/2 38/57/2

f 41/63/1 27/33/1 40/62/1

f 40/62/2 27/33/2 41/63/2

f 40/62/1 27/33/1 25/32/1

f 25/32/2 27/33/2 40/62/2

f 27/33/2 25/32/2 16/19/2

f 40/62/2 41/63/2 39/61/2

f 8/10/3 14/18/3 6/8/3

f 6/8/4 14/18/4 8/10/4

f 6/6/1 1/1/1 3/3/1

f 3/3/2 1/1/2 6/6/2

g Mesh2 ventana2_1 DES029 Model

l 3 1

l 2 3

l 4 2

l 1 4

g Mesh3 ventana2_1 DES029 Model

l 9 10

l 9 13

l 11 9

l 11 12

l 32 11

l 23 32

l 23 17

l 23 10

l 10 15

l 13 15

l 12 13

l 17 12

l 17 15

g Mesh4 ventana2_1 DES029 Model

l 6 5

l 14 6

l 8 14

l 8 7

l 21 8

l 22 21

l 22 19

l 24 22

l 24 18

l 28 24

l 31 28

l 7 31

l 7 5

l 5 30

l 31 30

l 30 16

l 28 16

l 28 29

l 29 27

l 29 35

l 35 37

l 35 21

l 21 20

l 19 20

l 19 36

l 18 19

l 25 18

l 36 25

l 34 36

l 34 33

l 22 34

l 33 25

l 33 26

l 26 24

l 16 18

l 16 27

l 27 37

l 37 20

l 20 14

g Mesh5 ventana2_1 DES029 Model

l 38 41

l 39 38

l 40 39

l 41 40

g Mesh6 DES029 Model

usemtl Color_D03
v 0.891814 4.06012 -21.5068
vt -2.77556 5.67002e-013
vn -0.00841171 -6.13221e-014 -0.999965
v 7.98156 7.06012 -21.5664
vt -281.909 118.11
v 7.98156 4.06012 -21.5664
vt -281.909 4.53316e-013
f 42/71/15 43/72/15 44/73/15

v 0.891814 7.66012 -21.5068
vt -2.77556 141.732
f 43/72/15 42/71/15 45/74/15

usemtl _7
vt -2.66493 0.833966
vn 0.00841171 6.13221e-014 0.999965
vt -2.66493 1.45018
vt -0.350209 0.833966
f 44/75/16 43/76/16 42/77/16

vt -0.350209 1.57342
f 45/78/16 42/77/16 43/76/16

usemtl Color_D03
v 0.889816 4.06012 -21.7442
vt 9.32705 1.46712e-012
vn 0.999965 -7.8025e-014 -0.00841171
vt -0.023348 141.732
vt -0.023348 7.84997e-013
f 46/79/17 45/80/17 42/81/17

v 0.889816 6.36012 -21.7442
vt 9.32705 90.5512
f 45/80/17 46/79/17 47/82/17

usemtl _7
vt 7.01877 0.833966
vn -0.999965 7.8025e-014 0.00841171
vt 7.01877 1.57342
vt 7.09631 0.833966
f 42/83/18 45/84/18 46/85/18

vt 7.09631 1.3064
f 47/86/18 46/85/18 45/84/18

usemtl Color_D03
v 0.889816 4.96012 -21.7442
vt 9.32705 35.4331
f 46/79/17 48/87/17 47/82/17

v 0.87131 4.06012 -23.9442
vt 95.9412 1.92187e-012
f 48/87/17 46/79/17 49/88/17

usemtl _7
vt 7.09631 1.01883
f 47/86/18 48/89/18 46/85/18

vt 7.81456 0.833966
f 49/90/18 46/85/18 48/89/18

vt -0.284463 4.91823
vn -4.33153e-015 -1 -3.15999e-015
v 1.16899 4.06012 -24.2217
vt -0.381648 4.97524
vt -0.290505 4.46636
f 49/91/19 50/92/19 46/93/19

v 0.868997 4.06012 -24.2192
vt -0.283708 4.97472
f 50/92/19 49/91/19 51/94/19

usemtl _Tile_Ceramic_Natural_14
vt -0.61631 17.1767
vn 4.33153e-015 1 3.15999e-015
vt -0.617951 16.9817
vt -0.829069 17.1785
f 51/95/20 49/96/20 50/97/20

usemtl Color_D03
v 0.87131 4.96012 -23.9442
vt 95.9412 35.4331
vt 106.768 2.03555e-012
f 52/98/17 49/88/17 51/99/17

f 48/87/17 49/88/17 52/98/17

usemtl _7
vt 7.81456 1.01883
f 52/100/18 49/90/18 48/89/18

vt 7.90434 0.833966
f 51/101/18 49/90/18 52/100/18

usemtl Color_D03
v 0.868997 7.66012 -24.2192
vt 106.768 141.732
f 53/102/17 52/98/17 51/99/17

v 0.87131 6.36012 -23.9442
vt 95.9412 90.5512
f 53/102/17 54/103/17 52/98/17

f 53/102/17 47/82/17 54/103/17

f 45/80/17 47/82/17 53/102/17

usemtl _7
vt 7.90434 1.57342
f 53/104/18 47/86/18 45/84/18

vt 7.81456 1.3064
f 54/105/18 47/86/18 53/104/18

f 52/100/18 54/105/18 53/104/18

f 51/101/18 52/100/18 53/104/18

usemtl Color_D03
vt 2.77556 1.34014e-012
v 1.16899 7.66012 -24.2217
vt 14.5866 141.732
vt 2.77556 141.732
f 51/106/4 55/107/4 53/108/4

vt 14.5866 1.22645e-012
f 55/107/4 51/106/4 50/109/4

usemtl _7
vt 0.448152 0.833966
vt 0.350209 0.833966
vt 0.448152 1.57342
f 50/110/3 51/111/3 55/112/3

vt 0.350209 1.57342
f 53/113/3 55/112/3 51/111/3

usemtl Color_D03
v 1.1673 4.06012 -24.4217
vt 114.642 1.74774e-012
vt 106.768 1.77616e-012
f 56/114/2 55/102/2 50/115/2

v 1.1673 7.66012 -24.4217
vt 114.642 141.732
f 55/102/2 56/114/2 57/116/2

usemtl _7
vt 7.96964 0.833966
f 50/101/1 55/104/1 56/117/1

vt 7.96964 1.57342
f 57/118/1 56/117/1 55/104/1

usemtl Color_D03
vt 14.5866 5.69717e-012
vn 0.00841171 3.50682e-014 0.999965
v 8.55028 7.06012 -24.4838
vt 305.265 118.11
f 56/119/21 58/120/21 57/107/21

v 8.55028 4.06012 -24.4838
vt 305.265 4.21924e-012
f 58/120/21 56/119/21 59/121/21

usemtl _7
vt 2.85861 0.833966
vn -0.00841171 -3.50682e-014 -0.999965
vt 2.85861 1.45018
f 59/122/22 56/110/22 58/123/22

vt -2.79147 5.02907
vt -0.381098 5.01632
f 59/124/19 50/92/19 56/125/19

v 7.97296 4.06012 -22.5889
vt -2.60299 4.63985
f 50/92/19 59/124/19 60/126/19

usemtl _Tile_Ceramic_Natural_14
vt -0.827875 17.3203
vt -6.06403 17.3644
f 56/127/20 50/97/20 59/128/20

vt -5.65458 16.0205
f 60/129/20 59/128/20 50/97/20

usemtl _7
v 8.82293 4.06012 -22.596
vt -2.88049 4.64132
f 60/126/19 59/124/19 61/130/19

usemtl _Tile_Ceramic_Natural_14
vt -6.2574 16.0255
f 61/131/20 59/128/20 60/129/20

usemtl _7
v 8.56085 4.06012 -24.4589
vt -2.79492 5.02396
f 61/130/19 59/124/19 62/132/19

usemtl _Tile_Ceramic_Natural_14
vt -6.07152 17.3467
f 62/133/20 59/128/20 61/131/20

usemtl _Color_C03_3
v 8.56085 7.66012 -24.4589
vt 11.9699 141.732
vn -0.861789 5.24785e-014 0.507267
vt 10.9046 3.37456e-011
vn -0.920628 1.02935e-013 0.390441
vt 11.9699 3.38593e-011
f 63/134/23 59/135/24 62/136/23

vt 10.9046 118.11
f 59/135/24 63/134/23 58/137/24

usemtl _7
vt -6.2602 0.833966
vn 0.861789 -5.24785e-014 -0.507267
vt -6.26904 0.833966
vn 0.920628 -1.02935e-013 -0.390441
vt -6.2602 1.57342
f 62/138/25 59/139/26 63/140/25

vt -6.26904 1.45018
f 58/141/26 63/140/25 59/139/26

usemtl _Color_C03_3
v 8.55028 7.66012 -24.4838
vt 10.9046 141.732
f 58/137/24 63/134/23 64/142/24

usemtl _7
vt -6.26904 1.57342
f 64/143/26 63/140/25 58/141/26

usemtl Color_D03
vt 305.265 141.732
f 57/107/21 58/120/21 64/144/21

usemtl _7
f 57/112/22 58/123/22 56/110/22

vt 2.85861 1.57342
f 64/145/22 58/123/22 57/112/22

usemtl _Color_C03_3
vt 95.9111 6.6294e-013
v 8.60101 7.66012 -24.4074
vt 98.4806 141.732
vn -0.701134 2.63784e-016 0.71303
vt 95.9111 141.732
f 62/146/23 65/147/27 63/148/23

v 8.60101 4.06012 -24.4074
vt 98.4806 6.06097e-013
f 65/147/27 62/146/23 66/149/27

usemtl _7
vt -4.55268 0.833966
vn 0.701134 -2.63784e-016 -0.71303
vt -4.57399 0.833966
vt -4.55268 1.57342
f 66/150/28 62/151/25 65/152/28

vt -2.80803 5.01339
f 61/130/19 62/132/19 66/153/19

usemtl _Tile_Ceramic_Natural_14
vt -6.10001 17.3102
f 66/154/20 62/133/20 61/131/20

usemtl _7
v 8.65312 4.06012 -24.3681
vt -2.82505 5.00532
f 61/130/19 66/153/19 67/155/19

usemtl _Tile_Ceramic_Natural_14
vt -6.13696 17.2824
f 67/156/20 66/154/20 61/131/20

usemtl _Color_C03_3
v 8.65312 7.66012 -24.3681
vt 178.367 141.732
vn -0.492698 -1.4551e-015 0.870201
vt 175.798 9.02232e-014
vt 178.367 -5.18853e-014
f 68/157/29 66/158/27 67/159/29

vt 175.798 141.732
f 66/158/27 68/157/29 65/160/27

usemtl _7
vt -2.53418 0.833966
vn 0.492698 1.4551e-015 -0.870201
vt -2.55549 0.833966
vt -2.53418 1.57342
f 67/161/30 66/162/28 68/163/30

vt -2.55549 1.57342
f 65/164/28 68/163/30 66/162/28

usemtl _Color_C03_3
v 8.71362 4.06012 -24.3437
vt 246.186 -3.03712e-013
vn -0.250685 -3.07482e-015 0.968069
vt 243.617 141.732
vt 243.617 -3.88977e-013
f 69/165/31 68/166/29 67/167/29

v 8.71362 7.66012 -24.3437
vt 246.186 141.732
f 68/166/29 69/165/31 70/168/31

usemtl _7
vt -0.363554 0.833966
vt -0.363554 1.57342
vt -0.342247 0.833966
vn 0.250685 3.07482e-015 -0.968069
f 67/169/30 68/170/30 69/171/32

vt -0.342247 1.57342
f 70/172/32 69/171/32 68/170/30

usemtl _Color_C03_3
vt 294.746 -3.68417e-013
v 8.7784 7.66012 -24.3357
vt 297.316 141.732
vn 0.00841171 1.69346e-014 0.999965
vt 294.746 141.732
f 69/173/31 71/174/33 70/175/31

v 8.7784 4.06012 -24.3357
vt 297.316 -3.68417e-013
f 71/174/33 69/173/31 72/176/33

usemtl _7
vt 1.87373 0.833966
vn -0.00841171 -1.69346e-014 -0.999965
vt 1.85243 0.833966
vt 1.87373 1.57342
f 72/177/34 69/178/32 71/179/34

vt -2.8448 5.00029
vt -2.86595 4.99866
f 61/130/19 69/180/19 72/181/19

f 61/130/19 67/155/19 69/180/19

usemtl _Tile_Ceramic_Natural_14
vt -6.17987 17.265
f 69/182/20 67/156/20 61/131/20

vt -6.22581 17.2594
f 72/183/20 69/182/20 61/131/20

usemtl _7
v 8.80826 4.06012 -24.3399
vt -2.8757 4.99952
f 61/130/19 72/181/19 73/184/19

usemtl _Tile_Ceramic_Natural_14
vt -6.24699 17.2623
f 73/185/20 72/183/20 61/131/20

usemtl _Color_C03_3
vt 326.889 2.7534e-012
vn 0.138861 3.73919e-014 0.990312
vt 325.702 141.732
vt 325.702 2.69656e-012
f 73/186/35 71/187/33 72/188/33

v 8.80826 7.66012 -24.3399
vt 326.889 141.732
f 71/187/33 73/186/35 74/189/35

usemtl _7
vt 3.94144 0.833966
vt 3.94144 1.57342
vt 3.95129 0.833966
vn -0.138861 -3.73919e-014 -0.990312
f 72/190/34 71/191/34 73/192/36

vt 3.95129 1.57342
f 74/193/36 73/192/36 71/191/34

usemtl Color_D03
vt -108.891 3.26544e-011
vn -0.999965 1.02731e-013 0.00841171
v 8.82293 7.66012 -22.596
vt -40.2326 141.732
vt -108.891 141.732
f 73/194/37 75/195/37 74/196/37

vt -40.2326 3.23986e-011
f 75/195/37 73/194/37 61/197/37

usemtl _7
vt -7.35259 0.833966
vn 0.999965 -1.02731e-013 -0.00841171
vt -7.92195 0.833966
vt -7.35259 1.57342
f 61/198/38 73/199/38 75/200/38

vt -7.92195 1.57342
f 74/201/38 75/200/38 73/199/38

usemtl Color_D03
vt -281.909 -1.23599e-013
vt -315.374 141.732
vt -315.374 -1.80443e-013
f 60/202/3 75/203/3 61/204/3

v 7.97296 7.66012 -22.5889
vt -281.909 141.732
f 75/203/3 60/202/3 76/205/3

usemtl _7
vt -2.94244 0.833966
vt -2.94244 1.57342
f 61/206/4 75/207/4 60/75/4

vt -2.66493 1.57342
f 76/208/4 60/75/4 75/207/4

usemtl Color_D03
v 7.97433 7.06012 -22.4264
vt -33.8349 118.11
vn -0.999965 2.40095e-015 0.00841171
vt -40.2326 7.33693e-013
f 77/209/39 76/195/39 60/210/39

v 7.98148 7.06012 -21.5764
vt -0.370353 118.11
f 78/211/39 76/195/39 77/209/39

vt 0.023348 118.11
f 43/212/39 76/195/39 78/211/39

v 7.98156 7.66012 -21.5664
vt 0.023348 141.732
f 76/195/39 43/212/39 79/213/39

usemtl _7
vt -7.01877 1.57342
vn 0.999965 -2.40095e-015 -0.00841171
vt -7.01877 1.45018
f 79/214/40 43/215/40 76/200/40

usemtl Color_D03
f 43/72/15 45/74/15 79/205/15

usemtl _7
f 79/208/16 45/78/16 43/76/16

vt -7.02203 1.45018
f 78/216/40 76/200/40 43/215/40

vt -7.29954 1.45018
f 77/217/40 76/200/40 78/216/40

f 60/198/40 76/200/40 77/217/40

usemtl Color_D03
v 7.97433 4.06012 -22.4264
vt -33.8349 7.05272e-013
f 60/210/39 80/218/39 77/209/39

usemtl _7
vt -2.60344 4.60647
f 80/219/19 50/92/19 60/126/19

vt -2.6058 4.42983
f 44/220/19 50/92/19 80/219/19

vt -0.291157 4.41758
f 42/221/19 50/92/19 44/220/19

f 46/93/19 50/92/19 42/221/19

usemtl _Tile_Ceramic_Natural_14
vt -0.631075 15.4215
f 46/222/20 50/97/20 49/96/20

vt -0.632492 15.253
f 42/223/20 50/97/20 46/222/20

vt -5.66068 15.2953
f 44/224/20 50/97/20 42/223/20

vt -5.65555 15.9052
f 80/225/20 50/97/20 44/224/20

f 60/129/20 50/97/20 80/225/20

usemtl _7
vt -7.29954 0.833966
f 77/217/40 80/226/40 60/198/40

v 7.98148 4.06012 -21.5764
vt -2.60577 4.43188
f 44/220/19 80/219/19 81/227/19

usemtl _Tile_Ceramic_Natural_14
vt -5.66062 15.3024
f 81/228/20 80/225/20 44/224/20

usemtl _7
vt 1.85243 1.57342
f 70/229/32 71/179/34 69/178/32

vt -4.57399 1.57342
f 63/230/25 65/152/28 62/151/25

g Mesh7 DES029 Model

l 42 45

l 42 44

l 46 42

l 49 46

l 49 51

l 51 53

l 51 50

l 50 56

l 50 55

l 55 57

l 53 55

l 45 53

l 45 79

l 43 79

l 44 43

l 44 81

l 80 81

l 60 80

l 60 61

l 60 76

l 76 75

l 79 76

l 61 75

l 73 61

l 72 73

l 69 72

l 67 69

l 66 67

l 62 66

l 59 62

l 56 59

l 56 57

l 57 64

l 58 64

l 59 58

l 64 63

l 63 65

l 65 68

l 68 70

l 70 71

l 71 74

l 73 74

l 74 75

l 80 77

l 78 77

l 43 78

g Mesh8 DES029 Model

l 47 54

l 48 47

l 52 48

l 52 54

g Mesh9 Model

v 145.914 3.3 -184.316
v 145.914 3.33 -184.316
l 82 83

g Mesh10 Model

v 138.951 3.33 -157.425
v 138.951 3.3 -157.425
l 84 85

