# Alias OBJ Model File
# Exported from SketchUp, (c) 2000-2012 Trimble Navigation Limited
# File units = meters

mtllib DES030.mtl

g Mesh1 ventana2_1 DES030 Model

usemtl Color_000
v 0.843477 5.51273 -21.3089
vt 1.37598 21.7563
vn -0.999965 4.85804e-015 0.00841171
v 0.8433 5.63173 -21.3299
vt 0.549204 26.4413
v 0.8433 5.51273 -21.3299
vt 0.549204 21.7563
f 1/1/1 2/2/1 3/3/1

v 0.843477 5.63173 -21.3089
vt 1.37598 26.4413
f 2/2/1 1/1/1 4/4/1

vn 0.999965 -4.85804e-015 -0.00841171
f 3/3/2 2/2/2 1/1/2

v 0.843183 6.36012 -21.3438
vt -1.54815e-043 55.1181
f 5/5/1 3/3/1 2/2/1

v 0.843183 5.51012 -21.3438
vt -1.54815e-043 21.6535
f 3/3/1 5/5/1 6/6/1

f 6/6/2 5/5/2 3/3/2

v 0.893181 6.36012 -21.3443
vt -1.9685 55.1181
vn -0.00841171 4.48499e-015 -0.999965
vt -7.10543e-015 21.6535
vt -7.10543e-015 55.1181
f 7/7/3 6/8/3 5/9/3

v 0.893181 4.96012 -21.3443
vt -1.9685 2.84217e-014
f 6/8/3 7/7/3 8/10/3

vn 0.00841171 -4.48499e-015 0.999965
f 5/9/4 6/8/4 7/7/4

f 8/10/4 7/7/4 6/8/4

vt 9.09495e-013 2.84217e-014
v 0.893601 5.01012 -21.2943
vt 1.9685 1.9685
vt 9.09495e-013 55.1181
f 8/11/1 9/12/1 7/13/1

v 0.902434 5.01012 -20.2443
vt 43.3071 1.9685
f 9/12/1 8/11/1 10/14/1

usemtl M_0128_White
f 7/13/2 9/12/2 8/11/2

usemtl Color_000
v 0.893601 6.31012 -21.2943
vt 1.9685 53.1496
f 7/13/1 9/12/1 11/15/1

usemtl M_0128_White
f 11/15/2 9/12/2 7/13/2

v 0.843603 6.31012 -21.2938
vt 4.61853e-013 53.1496
f 12/16/4 9/12/4 11/15/4

v 0.843603 5.01012 -21.2938
vt 4.61853e-013 1.9685
f 9/12/4 12/16/4 13/17/4

usemtl Color_000
f 13/17/3 12/16/3 9/12/3

f 1/1/1 13/12/1 12/15/1

f 6/6/1 13/12/1 1/1/1

v 0.843183 4.96012 -21.3438
vt 0 0
f 14/18/1 13/12/1 6/6/1

v 0.852436 5.01012 -20.2439
f 13/12/1 14/18/1 15/14/1

f 6/6/2 13/12/2 14/18/2

f 1/1/2 13/12/2 6/6/2

f 12/15/2 13/12/2 1/1/2

f 1/1/1 12/15/1 4/4/1

f 4/4/2 12/15/2 1/1/2

f 5/5/1 4/4/1 12/15/1

f 5/5/1 2/2/1 4/4/1

f 2/2/2 3/3/2 5/5/2

f 4/4/2 2/2/2 5/5/2

f 4/4/2 1/1/2 2/2/2

f 12/15/2 4/4/2 5/5/2

v 0.852856 6.36012 -20.1939
vt 45.2756 55.1181
f 5/5/1 12/15/1 16/19/1

f 16/19/2 12/15/2 5/5/2

v 0.852436 6.31012 -20.2439
vt 43.3071 53.1496
f 17/20/1 16/19/1 12/15/1

v 0.852856 6.31012 -20.1939
vt 45.2756 53.1496
f 17/20/1 18/21/1 16/19/1

v 0.852856 5.01012 -20.1939
vt 45.2756 1.9685
f 17/20/1 19/22/1 18/21/1

f 15/14/1 19/22/1 17/20/1

f 14/18/1 19/22/1 15/14/1

v 0.852856 4.96012 -20.1939
vt 45.2756 0
f 19/22/1 14/18/1 20/23/1

f 20/23/2 14/18/2 19/22/2

vt -9.09495e-013 1.9685
vn -4.89559e-015 -1 -4.44397e-015
vt -45.2756 4.61853e-013
f 8/24/5 20/25/5 14/18/5

v 0.902854 4.96012 -20.1943
vt -45.2756 1.9685
f 20/25/5 8/24/5 21/26/5

vn 4.89559e-015 1 4.44397e-015
f 14/18/6 20/25/6 8/24/6

f 21/26/6 8/24/6 20/25/6

v 0.902854 5.01012 -20.1943
vt 45.2756 2.84217e-014
f 22/22/1 8/11/1 21/27/1

f 8/11/1 22/22/1 10/14/1

usemtl M_0128_White
f 21/27/2 8/11/2 22/22/2

f 10/14/2 22/22/2 8/11/2

usemtl Color_000
v 0.902434 6.31012 -20.2443
f 10/14/1 22/22/1 23/20/1

usemtl M_0128_White
f 23/20/2 22/22/2 10/14/2

usemtl Color_000
v 0.902854 6.31012 -20.1943
f 23/20/1 22/22/1 24/21/1

usemtl M_0128_White
f 24/21/2 22/22/2 23/20/2

f 24/15/4 19/17/4 22/12/4

vt 7.10543e-015 53.1496
f 19/17/4 24/15/4 18/28/4

usemtl Color_000
f 18/28/3 24/15/3 19/17/3

usemtl M_0128_White
v 0.861268 6.31012 -19.1939
vt -84.6457 7.10543e-015
vt -45.2756 7.10543e-015
f 24/26/5 25/29/5 18/30/5

v 0.910265 6.31012 -19.3133
vt -79.9606 1.9685
f 25/29/5 24/26/5 26/31/5

usemtl Color_000
f 18/30/6 25/29/6 24/26/6

vt 84.6457 53.1496
f 25/32/1 16/19/1 18/21/1

v 0.861688 6.36012 -19.1439
vt 86.6142 55.1181
f 16/19/1 25/32/1 27/33/1

f 18/21/2 16/19/2 25/32/2

vt -1.42109e-014 55.1181
vt -1.9685 53.1496
vt -7.10543e-015 53.1496
f 16/34/3 24/35/3 18/36/3

v 0.902854 6.36012 -20.1943
f 24/35/3 16/34/3 28/7/3

f 18/36/4 24/35/4 16/34/4

f 28/7/4 16/34/4 24/35/4

vt 86.6142 1.37135e-012
vt 45.2756 1.42109e-014
f 27/37/6 28/22/6 16/38/6

v 0.911687 6.36012 -19.1443
vt 86.6142 1.9685
f 28/22/6 27/37/6 29/39/6

f 16/38/5 28/22/5 27/37/5

v 0.852436 6.36012 -20.2439
vt 43.3071 4.61853e-013
f 28/22/6 30/40/6 16/38/6

v 0.902434 6.36012 -20.2443
f 30/40/6 28/22/6 31/14/6

f 31/14/5 28/22/5 30/40/5

vt 43.3071 55.1181
f 28/19/1 31/41/1 24/21/1

usemtl M_0128_White
f 24/21/2 31/41/2 28/19/2

usemtl Color_000
f 7/13/1 24/21/1 31/41/1

f 7/13/1 11/15/1 24/21/1

usemtl M_0128_White
f 24/21/2 11/15/2 7/13/2

usemtl Color_000
v 0.902207 6.31012 -20.2713
vt 42.2441 53.1496
f 32/42/1 24/21/1 11/15/1

f 23/20/1 24/21/1 32/42/1

usemtl M_0128_White
f 32/42/2 24/21/2 23/20/2

f 11/15/2 24/21/2 32/42/2

vt -43.3071 4.61853e-013
vt -1.9685 1.9685
vt -42.2441 1.9685
f 17/43/5 11/44/5 32/45/5

vt -1.9685 4.61853e-013
f 11/44/5 17/43/5 12/46/5

usemtl Color_000
f 12/46/6 17/43/6 11/44/6

f 12/15/2 16/19/2 17/20/2

f 16/19/2 18/21/2 17/20/2

f 18/21/2 19/22/2 17/20/2

f 17/20/2 19/22/2 15/14/2

f 15/14/2 19/22/2 14/18/2

f 15/14/2 14/18/2 13/12/2

usemtl M_0128_White
vn 4.89672e-015 1 4.57825e-015
vt 1.9685 4.61853e-013
f 15/40/7 9/12/7 13/47/7

f 9/12/7 15/40/7 10/14/7

usemtl Color_000
vn -4.89672e-015 -1 -4.57825e-015
f 13/47/8 9/12/8 15/40/8

f 10/14/8 15/40/8 9/12/8

usemtl M_0128_White
vt -4.61853e-013 1.9685
f 15/48/3 23/35/3 10/44/3

vt -4.61853e-013 53.1496
f 23/35/3 15/48/3 17/49/3

usemtl Color_000
f 17/49/4 15/48/4 23/35/4

f 10/44/4 23/35/4 15/48/4

usemtl Translucent_Glass_Blue
vn -0.999965 8.40825e-015 0.00841171
f 23/20/9 9/12/9 10/14/9

f 9/12/9 23/20/9 11/15/9

vn 0.999965 -8.40825e-015 -0.00841171
f 10/14/10 9/12/10 23/20/10

usemtl M_0128_White
f 10/14/2 8/11/2 9/12/2

usemtl Translucent_Glass_Blue
f 11/15/10 23/20/10 9/12/10

f 11/15/9 23/20/9 32/42/9

f 32/42/10 23/20/10 11/15/10

usemtl M_0128_White
vt -43.3071 1.9685
f 17/43/5 32/45/5 23/50/5

usemtl Color_000
f 32/45/6 11/44/6 17/43/6

f 23/50/6 32/45/6 17/43/6

f 11/15/3 9/12/3 12/16/3

usemtl M_0128_White
f 31/41/2 24/21/2 7/13/2

usemtl Color_000
vt 9.09495e-013 1.9685
f 7/51/6 30/40/6 31/14/6

vt 0 7.10543e-015
f 30/40/6 7/51/6 5/52/6

f 5/52/5 7/51/5 30/40/5

f 31/14/5 30/40/5 7/51/5

f 5/5/1 16/19/1 30/41/1

f 30/41/2 16/19/2 5/5/2

f 16/38/5 30/40/5 28/22/5

f 24/21/1 29/33/1 28/19/1

vt 79.9606 53.1496
f 26/53/1 29/33/1 24/21/1

v 0.911266 6.31012 -19.1943
f 33/32/1 29/33/1 26/53/1

v 0.911266 5.01012 -19.1943
vt 84.6457 1.9685
f 34/54/1 29/33/1 33/32/1

v 0.911687 4.96012 -19.1443
vt 86.6142 0
f 34/54/1 35/55/1 29/33/1

f 35/55/1 34/54/1 21/27/1

usemtl M_0128_White
f 21/27/2 34/54/2 35/55/2

usemtl Color_000
f 22/22/1 21/27/1 34/54/1

vt -4.61853e-013 0
f 20/56/3 22/44/3 21/10/3

f 22/44/3 20/56/3 19/48/3

f 19/48/4 20/56/4 22/44/4

v 0.861268 5.01012 -19.1939
f 20/23/1 36/54/1 19/22/1

v 0.861688 4.96012 -19.1439
f 37/55/1 36/54/1 20/23/1

v 0.861562 5.51273 -19.159
vt 86.0216 21.7563
f 36/54/1 37/55/1 38/57/1

f 20/23/2 36/54/2 37/55/2

f 19/22/2 36/54/2 20/23/2

usemtl M_0128_White
vt 84.6457 7.10543e-015
vn 4.89488e-015 1 4.35937e-015
vt 45.2756 4.61853e-013
f 36/58/11 22/22/11 19/59/11

f 22/22/11 36/58/11 34/54/11

usemtl Color_000
vn -4.89488e-015 -1 -4.35937e-015
f 19/59/12 22/22/12 36/58/12

f 22/12/3 19/17/3 24/15/3

usemtl Translucent_Glass_Blue
vn -0.999965 1.40645e-014 0.00841171
f 22/22/13 26/53/13 24/21/13

f 22/22/13 33/32/13 26/53/13

f 33/32/13 22/22/13 34/54/13

vn 0.999965 -1.40645e-014 -0.00841171
f 34/54/14 22/22/14 33/32/14

usemtl Color_000
f 34/54/12 36/58/12 22/22/12

usemtl M_0128_White
vt -7.10543e-015 1.9685
f 36/60/3 33/35/3 34/44/3

f 33/35/3 36/60/3 25/36/3

usemtl Color_000
f 25/36/4 36/60/4 33/35/4

v 0.861385 5.51273 -19.18
vt 85.1949 21.7563
f 36/54/1 39/61/1 25/32/1

f 39/61/1 36/54/1 38/57/1

f 25/32/2 39/61/2 36/54/2

v 0.861385 5.63173 -19.18
vt 85.1949 26.4413
f 25/32/1 39/61/1 40/62/1

f 40/62/2 39/61/2 25/32/2

v 0.861562 5.63173 -19.159
vt 86.0216 26.4413
f 39/61/1 41/63/1 40/62/1

f 41/63/1 39/61/1 38/57/1

f 38/57/2 39/61/2 41/63/2

f 38/57/2 36/54/2 39/61/2

f 38/57/2 37/55/2 36/54/2

f 38/57/1 37/55/1 27/33/1

f 27/33/2 37/55/2 38/57/2

vt 1.9685 0
vt 1.37135e-012 55.1181
vt 1.37135e-012 0
f 35/64/4 27/65/4 37/66/4

vt 1.9685 55.1181
f 27/65/4 35/64/4 29/67/4

f 37/66/3 27/65/3 35/64/3

f 29/67/3 35/64/3 27/65/3

usemtl M_0128_White
f 29/33/2 35/55/2 34/54/2

f 33/32/2 29/33/2 34/54/2

f 26/53/2 29/33/2 33/32/2

f 24/21/2 29/33/2 26/53/2

f 28/19/2 29/33/2 24/21/2

usemtl Color_000
f 29/39/5 27/37/5 28/22/5

f 26/31/6 24/26/6 25/29/6

usemtl Translucent_Glass_Blue
f 24/21/14 26/53/14 22/22/14

f 26/53/14 33/32/14 22/22/14

usemtl M_0128_White
vt -84.6457 1.9685
f 25/29/5 26/31/5 33/68/5

usemtl Color_000
f 33/68/6 26/31/6 25/29/6

f 34/44/4 33/35/4 36/60/4

vt -86.6142 1.9685
vt -86.6142 1.37135e-012
f 20/25/5 35/69/5 37/70/5

f 35/69/5 20/25/5 21/26/5

f 21/26/6 20/25/6 35/69/6

f 21/10/4 22/44/4 20/56/4

usemtl M_0128_White
f 34/54/2 21/27/2 22/22/2

usemtl Color_000
f 37/70/6 35/69/6 20/25/6

f 38/57/1 27/33/1 41/63/1

f 41/63/2 27/33/2 38/57/2

f 41/63/1 27/33/1 40/62/1

f 40/62/2 27/33/2 41/63/2

f 40/62/1 27/33/1 25/32/1

f 25/32/2 27/33/2 40/62/2

f 27/33/2 25/32/2 16/19/2

f 40/62/2 41/63/2 39/61/2

f 8/10/3 14/18/3 6/8/3

f 6/8/4 14/18/4 8/10/4

f 6/6/1 1/1/1 3/3/1

f 3/3/2 1/1/2 6/6/2

g Mesh2 ventana2_1 DES030 Model

l 3 1

l 2 3

l 4 2

l 1 4

g Mesh3 ventana2_1 DES030 Model

l 9 10

l 9 13

l 11 9

l 11 12

l 32 11

l 23 32

l 23 17

l 23 10

l 10 15

l 13 15

l 12 13

l 17 12

l 17 15

g Mesh4 ventana2_1 DES030 Model

l 6 5

l 14 6

l 8 14

l 8 7

l 21 8

l 22 21

l 22 19

l 24 22

l 24 18

l 28 24

l 31 28

l 7 31

l 7 5

l 5 30

l 31 30

l 30 16

l 28 16

l 28 29

l 29 27

l 29 35

l 35 37

l 35 21

l 21 20

l 19 20

l 19 36

l 18 19

l 25 18

l 36 25

l 34 36

l 34 33

l 22 34

l 33 25

l 33 26

l 26 24

l 16 18

l 16 27

l 27 37

l 37 20

l 20 14

g Mesh5 ventana2_1 DES030 Model

l 38 41

l 39 38

l 40 39

l 41 40

g Mesh6 DES030 Model

usemtl Color_D03
v 7.9824 7.66012 -21.4664
vt 282.039 141.732
vn 0.00841171 -1.06239e-014 0.999965
v 0.892655 4.06012 -21.4068
vt 2.90471 1.69051e-012
v 7.9824 4.06012 -21.4664
vt 282.039 1.55734e-013
f 42/71/15 43/72/15 44/73/15

v 0.892655 7.66012 -21.4068
vt 2.90471 141.732
f 43/72/15 42/71/15 45/74/15

usemtl _7
vt 2.66493 0.833966
vn -0.00841171 1.06239e-014 -0.999965
vt 0.350209 0.833966
vt 2.66493 1.57342
f 44/75/16 43/76/16 42/77/16

vt -2.60607 4.40929
vn -5.0242e-015 -1 -8.33747e-015
v 0.893181 4.06012 -21.3443
vt -0.291603 4.3842
vt -0.291432 4.39704
f 44/78/17 46/79/17 43/80/17

v 0.911687 4.06012 -19.1443
vt -0.297645 3.93233
f 46/79/17 44/78/17 47/81/17

usemtl _Tile_Ceramic_Natural_14
vt -0.633089 15.1821
vn 5.0242e-015 1 8.33747e-015
vt -0.633462 15.1378
vt -5.66128 15.2244
f 43/82/18 46/83/18 44/84/18

usemtl Color_D03
v 0.893181 4.96012 -21.3443
vt 111.294 35.4331
vn 0.999965 -4.31743e-014 -0.00841171
vt 111.294 2.31388e-012
vt 113.754 3.02442e-012
f 48/85/19 46/86/19 43/87/19

v 0.911687 4.96012 -19.1443
vt 24.6794 35.4331
f 49/88/19 46/86/19 48/85/19

vt 24.6794 1.85913e-012
f 49/88/19 47/89/19 46/86/19

v 0.911687 6.36012 -19.1443
vt 24.6794 90.5512
f 47/89/19 49/88/19 50/90/19

usemtl _7
vt 6.24747 1.3064
vn -0.999965 4.31743e-014 0.00841171
vt 6.24747 1.01883
vt 6.24747 0.833966
f 50/91/20 49/92/20 47/93/20

vt 6.96572 0.833966
f 46/94/20 47/93/20 49/92/20

usemtl _Tile_Ceramic_Natural_14
vt -0.646586 13.5775
f 47/95/18 44/84/18 46/83/18

usemtl _7
v 0.914883 4.06012 -18.7644
vt -0.298689 3.85428
f 47/81/17 44/78/17 51/96/17

usemtl _Tile_Ceramic_Natural_14
vt -0.648853 13.3081
f 51/97/18 44/84/18 47/95/18

usemtl _7
v 1.21487 4.06012 -18.7669
vt -0.396628 3.8548
f 51/96/17 44/78/17 52/98/17

usemtl _Tile_Ceramic_Natural_14
vt -0.861612 13.3098
f 52/99/18 44/84/18 51/97/18

usemtl _7
v 1.21698 4.06012 -18.5169
vt -0.397315 3.80345
f 52/98/17 44/78/17 53/100/17

usemtl _Tile_Ceramic_Natural_14
vt -0.863103 13.1325
f 53/101/18 44/84/18 52/99/18

usemtl _7
v 7.98249 4.06012 -21.4564
vt -2.6061 4.40724
f 53/100/17 44/78/17 54/102/17

usemtl _Tile_Ceramic_Natural_14
vt -5.66134 15.2173
f 54/103/18 44/84/18 53/101/18

usemtl Color_D03
v 7.98249 7.06012 -21.4564
vt -113.36 118.11
vn -0.999965 1.98695e-014 0.00841171
vt -113.754 6.96821e-012
vt -113.36 6.96821e-012
f 55/104/21 44/105/21 54/106/21

vt -113.754 141.732
f 44/105/21 55/104/21 42/107/21

usemtl _7
vt -6.98286 0.833966
vn 0.999965 -1.98695e-014 -0.00841171
vt -6.98612 0.833966
vt -6.98286 1.45018
f 54/108/22 44/109/22 55/110/22

vt -6.98612 1.57342
f 42/111/22 55/110/22 44/109/22

usemtl Color_D03
v 7.98964 7.06012 -20.6064
vt -79.8959 118.11
f 56/112/21 42/107/21 55/104/21

v 7.99084 7.66012 -20.4639
vt -74.2857 141.732
f 56/112/21 57/113/21 42/107/21

v 7.98964 4.06012 -20.6064
vt -79.8959 6.1724e-012
f 58/114/21 57/113/21 56/112/21

v 7.99084 4.06012 -20.4639
vt -74.2857 6.20082e-012
f 57/113/21 58/114/21 59/115/21

usemtl _7
vt -6.65883 0.833966
vt -6.70535 0.833966
vt -6.65883 1.57342
f 59/116/22 58/117/22 57/118/22

vt -2.60883 4.20338
vt -2.60844 4.23265
f 59/119/17 54/102/17 58/120/17

f 53/100/17 54/102/17 59/119/17

usemtl _Tile_Ceramic_Natural_14
vt -5.66726 14.5134
f 59/121/18 54/103/18 53/101/18

vt -5.66641 14.6145
f 58/122/18 54/103/18 59/121/18

usemtl _7
v 8.57813 4.06012 -18.5788
vt -2.80057 3.81617
f 53/100/17 59/119/17 60/123/17

usemtl _Tile_Ceramic_Natural_14
vt -6.08378 13.1765
f 60/124/18 59/121/18 53/101/18

usemtl _7
v 8.57673 4.06012 -18.5888
vt -2.80011 3.81822
f 60/123/17 59/119/17 61/125/17

usemtl _Tile_Ceramic_Natural_14
vt -6.08279 13.1835
f 61/126/18 59/121/18 60/124/18

usemtl _7
v 8.5847 4.06012 -18.6536
vt -2.80271 3.83152
f 59/119/17 62/127/17 61/125/17

v 8.84081 4.06012 -20.4711
vt -2.88632 4.20485
f 62/127/17 59/119/17 63/128/17

usemtl _Tile_Ceramic_Natural_14
vt -6.08844 13.2295
f 61/126/18 62/129/18 59/121/18

usemtl _Color_C03_3
v 8.57673 7.66012 -18.5888
vt -40.0107 141.732
vn -0.999965 4.85805e-015 0.00841171
vt -42.5801 1.63052e-012
vn -0.968069 5.85331e-015 -0.250685
vt -40.0107 1.74421e-012
f 64/130/23 62/131/24 61/132/23

v 8.5847 7.66012 -18.6536
vt -42.5801 141.732
f 62/131/24 64/130/23 65/133/24

usemtl _7
vt -6.36547 0.833966
vn 0.999965 -4.85805e-015 -0.00841171
vt -6.38678 0.833966
vn 0.968069 -5.85331e-015 0.250685
vt -6.36547 1.57342
f 61/134/25 62/135/26 64/136/25

vt -6.38678 1.57342
f 65/137/26 64/136/25 62/135/26

usemtl _Color_C03_3
vt -119.252 141.732
v 8.60917 4.06012 -18.7141
vt -121.821 1.96799e-012
vn -0.870201 6.44968e-015 -0.492698
vt -119.252 1.74062e-012
f 65/138/24 66/139/27 62/140/24

v 8.60917 7.66012 -18.7141
vt -121.821 141.732
f 66/139/27 65/138/24 67/141/27

usemtl _7
vt -6.69653 0.833966
vt -6.71784 0.833966
vn 0.870201 -6.44968e-015 0.492698
vt -6.69653 1.57342
f 62/142/26 66/143/28 65/144/26

vt -2.8107 3.84395
f 62/127/17 63/128/17 66/145/17

usemtl _Tile_Ceramic_Natural_14
vt -6.27008 14.5185
f 63/146/18 59/121/18 62/129/18

usemtl Color_D03
vt 315.503 2.92107e-013
vt 282.039 2.63685e-013
f 63/147/4 57/71/4 59/148/4

v 8.84081 7.66012 -20.4711
vt 315.503 141.732
f 57/71/4 63/147/4 68/149/4

usemtl _7
vt 2.94244 0.833966
f 59/75/3 57/77/3 63/150/3

vt 2.94244 1.57342
f 68/151/3 63/150/3 57/77/3

usemtl Color_D03
vt -74.2857 2.158e-012
v 8.85455 7.66012 -18.8372
vt -9.95745 141.732
f 63/152/1 69/153/1 68/113/1

v 8.85455 4.06012 -18.8372
vt -9.95745 1.81694e-012
f 69/153/1 63/152/1 70/154/1

usemtl _7
vt -6.12539 0.833966
vt -6.12539 1.57342
f 70/155/2 63/116/2 69/156/2

v 8.82462 4.06012 -18.8409
vt -2.88104 3.87
vt -2.89081 3.86924
f 71/157/17 63/128/17 70/158/17

v 8.75999 4.06012 -18.8318
vt -2.85994 3.86814
f 72/159/17 63/128/17 71/157/17

v 8.69991 4.06012 -18.8063
vt -2.84032 3.8629
f 73/160/17 63/128/17 72/159/17

v 8.64846 4.06012 -18.7662
vt -2.82353 3.85465
f 74/161/17 63/128/17 73/160/17

f 66/145/17 63/128/17 74/161/17

usemtl _Tile_Ceramic_Natural_14
vt -6.1058 13.2724
f 66/162/18 63/146/18 62/129/18

vt -6.13366 13.3093
f 74/163/18 63/146/18 66/162/18

vt -6.17015 13.3378
f 73/164/18 63/146/18 74/163/18

vt -6.21276 13.3559
f 72/165/18 63/146/18 73/164/18

vt -6.2586 13.3623
f 71/166/18 63/146/18 72/165/18

vt -6.27982 13.3597
f 70/167/18 63/146/18 71/166/18

usemtl _Color_C03_3
v 8.82462 7.66012 -18.8409
vt -310.317 141.732
vt -311.504 8.95738e-014
vn 0.122182 3.81252e-015 -0.992508
vt -310.317 -2.4113e-014
f 75/168/3 70/169/29 71/170/3

vt -311.504 141.732
f 70/169/29 75/168/3 69/171/29

usemtl _7
vt -2.1079 0.833966
vt -2.11774 0.833966
vn -0.122182 -3.81252e-015 0.992508
vt -2.1079 1.57342
f 71/172/4 70/173/30 75/174/4

vt -2.11774 1.57342
f 69/175/30 75/174/4 70/173/30

usemtl _Color_C03_3
vt -312.957 3.28042e-013
v 8.75999 7.66012 -18.8318
vt -310.387 141.732
vn -0.266935 5.58952e-015 -0.963715
vt -312.957 141.732
f 71/176/3 76/177/31 75/178/3

vt -310.387 1.57512e-013
f 76/177/31 71/176/3 72/179/31

usemtl _7
vt -3.68597 0.833966
vn 0.266935 -5.58952e-015 0.963715
vt -3.70728 0.833966
vt -3.68597 1.57342
f 72/180/32 71/181/4 76/182/32

vt -3.70728 1.57342
f 75/183/4 76/182/32 71/181/4

usemtl _Color_C03_3
vt -289.218 8.89348e-013
vn -0.507267 6.31314e-015 -0.861789
vt -291.787 141.732
vt -291.787 6.61974e-013
f 73/184/33 76/185/31 72/186/31

v 8.69991 7.66012 -18.8063
vt -289.218 141.732
f 76/185/31 73/184/33 77/187/33

usemtl _7
vt -5.03344 0.833966
vt -5.03344 1.57342
vt -5.01213 0.833966
vn 0.507267 -6.31314e-015 0.861789
f 72/188/32 76/189/32 73/190/34

vt -5.01213 1.57342
f 77/191/34 73/190/34 76/189/32

usemtl _Color_C03_3
vt -248.251 1.43757e-012
vn -0.71303 6.60652e-015 -0.701134
vt -250.821 141.732
vt -250.821 1.40915e-012
f 74/192/35 77/193/33 73/194/33

v 8.64846 7.66012 -18.7662
vt -248.251 141.732
f 77/193/33 74/192/35 78/195/35

usemtl _7
vt -6.0173 0.833966
vt -6.0173 1.57342
vt -5.99599 0.833966
vn 0.71303 -6.60652e-015 0.701134
f 73/196/34 77/197/34 74/198/36

vt -5.99599 1.57342
f 78/199/36 74/198/36 77/197/34

usemtl _Color_C03_3
vt -192.848 1.83243e-012
vt -190.279 141.732
vt -192.848 141.732
f 74/200/35 67/201/27 78/202/35

vt -190.279 1.80401e-012
f 67/201/27 74/200/35 66/203/27

usemtl _7
vt -6.57051 0.833966
vt -6.59182 0.833966
vt -6.57051 1.57342
f 66/204/28 74/205/36 67/206/28

vt -6.59182 1.57342
f 78/207/36 67/206/28 74/205/36

vt -6.71784 1.57342
f 67/208/28 65/144/26 66/143/28

f 68/118/2 69/156/2 63/116/2

usemtl _Color_C03_3
v 8.57813 7.06012 -18.5788
vt 39.8726 118.11
vn -0.990312 4.23109e-015 0.138861
vt 39.4755 141.732
vt 39.4755 1.39111e-012
f 79/209/37 64/210/23 61/211/23

v 8.57813 7.66012 -18.5788
vt 39.8726 141.732
f 64/210/23 79/209/37 80/212/37

usemtl _7
vt -5.6179 1.57342
vn 0.990312 -4.23109e-015 -0.138861
vt -5.6179 1.45018
vt -5.6212 1.57342
f 80/213/38 79/214/38 64/215/25

usemtl Color_D03
vt -304.535 118.11
v 1.21698 7.66012 -18.5169
vt -14.7157 141.732
vt -304.535 141.732
f 79/216/3 81/217/3 80/218/3

vt -14.7157 1.62059e-012
f 79/216/3 53/219/3 81/217/3

vt -304.535 1.14242e-013
f 53/219/3 79/216/3 60/220/3

usemtl _7
vt -2.85149 0.833966
vt -2.85149 1.45018
vt -0.448152 0.833966
f 60/221/4 79/222/4 53/223/4

usemtl _Color_C03_3
vt 39.8726 1.39111e-012
f 61/211/23 60/224/37 79/209/37

usemtl _7
vt -5.6179 0.833966
vt -5.6212 0.833966
f 79/214/38 60/225/38 61/226/25

f 61/226/25 64/215/25 79/214/38

vt -0.448152 1.57342
f 81/227/4 53/223/4 79/222/4

usemtl Color_D03
vt -0.123789 1.69153e-012
v 1.21487 7.66012 -18.7669
vt 9.71873 141.732
vt -0.123789 141.732
f 53/228/2 82/229/2 81/230/2

vt 9.71873 1.57784e-012
f 82/229/2 53/228/2 52/231/2

usemtl _7
vt 6.04179 1.57342
vt 6.12341 1.57342
vt 6.04179 0.833966
f 81/232/1 82/233/1 53/234/1

vt 6.12341 0.833966
f 52/235/1 53/234/1 82/233/1

usemtl Color_D03
vt -2.90471 1.74698e-012
vt -14.7157 1.46276e-012
f 51/236/3 82/217/3 52/237/3

v 0.914883 7.66012 -18.7644
vt -2.90471 141.732
f 82/217/3 51/236/3 83/238/3

usemtl _7
vt -0.350209 0.833966
f 52/223/4 82/227/4 51/239/4

vt -0.350209 1.57342
f 83/240/4 51/239/4 82/227/4

usemtl Color_D03
vt 9.71873 1.91598e-012
f 47/89/19 83/229/19 51/241/19

f 83/229/19 47/89/19 50/90/19

usemtl _7
f 51/235/20 83/233/20 47/93/20

f 50/91/20 47/93/20 83/233/20

usemtl Color_D03
vt 113.754 141.732
f 83/229/19 50/90/19 45/242/19

usemtl _7
vt 6.98612 1.57342
f 45/243/20 50/91/20 83/233/20

usemtl Color_D03
v 0.893181 6.36012 -21.3443
vt 111.294 90.5512
f 45/242/19 50/90/19 84/244/19

usemtl _7
vt 6.96572 1.3064
f 84/245/20 50/91/20 45/243/20

usemtl Color_D03
f 45/242/19 84/244/19 48/85/19

usemtl _7
vt 6.96572 1.01883
f 48/246/20 84/245/20 45/243/20

usemtl Color_D03
f 48/85/19 43/87/19 45/242/19

usemtl _7
vt 6.98612 0.833966
f 43/247/20 46/94/20 48/246/20

f 48/246/20 46/94/20 49/92/20

f 45/243/20 43/247/20 48/246/20

vt 0.350209 1.57342
f 45/248/16 42/77/16 43/76/16

vt -2.85149 1.57342
f 80/249/4 81/227/4 79/222/4

vt -6.70535 1.45018
f 56/250/22 57/118/22 58/117/22

f 42/111/22 57/118/22 56/250/22

f 55/110/22 42/111/22 56/250/22

g Mesh7 DES030 Model

l 43 45

l 44 43

l 44 42

l 54 44

l 58 54

l 58 59

l 58 56

l 55 56

l 54 55

l 63 59

l 63 70

l 63 68

l 68 57

l 69 68

l 70 69

l 70 71

l 71 72

l 72 73

l 73 74

l 74 66

l 66 62

l 62 61

l 61 60

l 53 60

l 53 52

l 53 81

l 81 82

l 81 80

l 79 80

l 60 79

l 64 80

l 65 64

l 67 65

l 78 67

l 77 78

l 76 77

l 75 76

l 69 75

l 82 83

l 52 82

l 52 51

l 51 47

l 51 83

l 45 83

l 45 42

l 42 57

l 59 57

l 46 47

l 43 46

g Mesh8 DES030 Model

l 84 50

l 48 84

l 48 49

l 49 50

g Mesh9 Model

v 145.914 3.3 -184.316
v 145.914 3.33 -184.316
l 85 86

g Mesh10 Model

v 138.951 3.33 -157.425
v 138.951 3.3 -157.425
l 87 88

