# Alias OBJ Model File
# Exported from SketchUp, (c) 2000-2012 Trimble Navigation Limited
# File units = meters

mtllib COM017.mtl

g Mesh1 COM017 Model

usemtl Color_D07
v 16.0241 5.89075 -66.8864
vt -157.867 82.6772
vn -0.999936 1.11245e-014 -0.0113292
v 16.0252 3.79075 -66.9864
vt -161.804 2.78633e-012
v 16.0241 3.79075 -66.8864
vt -157.867 2.90002e-012
f 1/1/1 2/2/1 3/3/1

v 16.0252 5.89075 -66.9864
vt -161.804 82.6772
f 2/2/1 1/1/1 4/4/1

vn 0.999936 -1.11245e-014 0.0113292
f 3/3/2 2/2/2 1/1/2

usemtl _Tile_Ceramic_Natural_15
vt -6.7245 51.8429
vn 3.19546e-015 1 4.26737e-015
v 14.9753 3.79075 -66.9983
vt -7.46914 51.8514
vt -6.72531 51.772
f 2/5/3 5/6/3 3/7/3

usemtl _7
vt 5.2315 13.7388
vn -3.19546e-015 -1 -4.26737e-015
vt 4.88909 13.7617
vt 5.23187 13.7593
f 3/8/4 5/9/4 2/10/4

usemtl _Tile_Ceramic_Natural_15
v 16.0688 3.79075 -63.7757
vt -6.69356 49.5658
f 5/6/3 6/11/3 3/7/3

v 14.9741 3.79075 -66.8983
vt -7.46994 51.7804
f 7/12/3 6/11/3 5/6/3

v 14.2689 3.79075 -63.7961
vt -7.97008 49.5803
f 7/12/3 8/13/3 6/11/3

v 14.149 3.79075 -63.7974
vt -8.05518 49.5812
f 7/12/3 9/14/3 8/13/3

v 12.3469 3.79075 -63.6228
vt -9.33326 49.4574
f 7/12/3 10/15/3 9/14/3

v 12.0843 3.79075 -66.9311
vt -9.51945 51.8037
f 11/16/3 10/15/3 7/12/3

v 12.073 3.79075 -65.9311
vt -9.52749 51.0945
f 12/17/3 10/15/3 11/16/3

v 12.0532 3.79075 -64.1812
vt -9.54155 49.8534
f 13/18/3 10/15/3 12/17/3

v 12.0469 3.79075 -63.6262
vt -9.54601 49.4598
f 10/15/3 13/18/3 14/19/3

usemtl _7
vt 3.93303 13.0691
vt 3.93509 13.1831
vt 4.03097 13.0684
f 14/20/4 13/21/4 10/22/4

usemtl _Color_D03_1
v 12.0532 5.89075 -64.1812
vt 49.599 82.6772
vn 0.999936 -2.84647e-016 0.0113292
vt 27.7466 1.10941e-012
vt 49.599 9.38877e-013
f 15/23/5 14/24/5 13/25/5

v 12.0469 7.39075 -63.6262
vt 27.7466 141.732
f 16/26/5 14/24/5 15/23/5

v 12.0469 6.79075 -63.6262
vt 27.7466 118.11
f 14/24/5 16/26/5 17/27/5

usemtl Color_D07
vn -0.999936 2.84647e-016 -0.0113292
f 17/27/6 16/26/6 14/24/6

usemtl _Color_D03_1
v 12.3469 7.39075 -63.6228
vt -15.1861 141.732
vn 0.0113292 4.79067e-017 -0.999936
vt -3.37505 118.11
vt -3.37505 141.732
f 18/28/7 17/29/7 16/30/7

vt -15.1861 1.78924e-012
f 10/31/7 17/29/7 18/28/7

vt -3.37505 1.10712e-012
f 17/29/7 10/31/7 14/32/7

usemtl Color_D07
vn -0.0113292 -4.79067e-017 0.999936
f 14/32/8 10/31/8 17/29/8

f 18/28/8 17/29/8 10/31/8

f 16/30/8 17/29/8 18/28/8

usemtl _Color_D03_1
v 12.3392 7.39075 -62.9429
vt 0.974968 141.732
vn 0.999936 -4.62436e-016 0.0113292
vt 27.7466 1.79759e-012
f 19/33/9 10/34/9 18/26/9

v 12.3392 3.79075 -62.9429
vt 0.974968 2.76393e-012
f 10/34/9 19/33/9 20/35/9

usemtl Color_D07
vn -0.999936 4.62436e-016 -0.0113292
f 20/35/10 19/33/10 10/34/10

usemtl _Color_D03_1
v 14.139 7.39075 -62.9225
vt -86.0522 141.732
vt -15.1861 2.75686e-012
f 21/36/7 20/37/7 19/28/7

v 14.139 3.79075 -62.9225
vt -86.0522 8.81026e-013
f 20/37/7 21/36/7 22/38/7

usemtl Color_D07
f 22/38/8 21/36/8 20/37/8

usemtl _Color_D03_1
vt -0.974968 141.732
vt -35.4238 2.73986e-012
vt -0.974968 9.20867e-013
f 21/39/10 9/40/10 22/41/10

v 14.149 7.39075 -63.7974
vt -35.4238 141.732
f 9/40/10 21/39/10 23/42/10

usemtl Color_D07
f 22/41/9 9/40/9 21/39/9

usemtl _Tile_Ceramic_Natural_15
vt -8.06221 48.9607
f 9/14/3 10/15/3 22/43/3

usemtl _7
vt 4.61931 13.1043
vt 4.88872 13.7412
f 9/44/4 10/22/4 7/45/4

vt 4.61608 12.9245
f 22/46/4 10/22/4 9/44/4

usemtl _Tile_Ceramic_Natural_15
vt -9.33872 48.9752
f 22/43/3 10/15/3 20/47/3

usemtl _7
vt 4.02846 12.9287
f 20/48/4 10/22/4 22/46/4

vt 3.94526 13.7479
f 7/45/4 10/22/4 11/49/4

vt 3.94156 13.5425
f 11/49/4 10/22/4 12/50/4

f 12/50/4 10/22/4 13/21/4

usemtl _Tile_Ceramic_Natural_15
v 11.973 3.79075 -65.9323
vt -9.59841 51.0953
f 24/51/3 13/18/3 12/17/3

v 11.9532 3.79075 -64.1824
vt -9.61247 49.8542
f 13/18/3 24/51/3 25/52/3

usemtl _7
vt 3.90244 13.1833
vt 3.90891 13.5428
f 25/53/4 24/54/4 13/21/4

f 12/50/4 13/21/4 24/54/4

usemtl Color_D07
v 12.073 5.89075 -65.9311
vt 3.37505 82.6772
vt -0.561955 9.3224e-013
vt 3.37505 9.3224e-013
f 26/55/8 24/56/8 12/57/8

v 11.973 5.89075 -65.9323
vt -0.561955 82.6772
f 24/56/8 26/55/8 27/58/8

f 12/57/7 24/56/7 26/55/7

f 27/58/7 26/55/7 24/56/7

usemtl _Color_D03_1
v 12.0843 7.39075 -66.9311
vt 157.867 141.732
vt 118.497 82.6772
vt 118.497 9.38877e-013
f 28/59/5 26/60/5 12/61/5

f 28/59/5 15/23/5 26/60/5

f 16/26/5 15/23/5 28/59/5

usemtl Color_D07
f 15/23/6 14/24/6 16/26/6

f 13/25/6 14/24/6 15/23/6

vt -3.37505 9.3554e-013
v 11.9532 5.89075 -64.1824
vt 0.561955 82.6772
vt -3.37505 82.6772
f 13/62/7 29/63/7 15/64/7

vt 0.561955 9.3554e-013
f 29/63/7 13/62/7 25/65/7

f 25/65/8 13/62/8 29/63/8

f 15/64/8 29/63/8 13/62/8

f 28/59/6 15/23/6 16/26/6

f 26/60/6 15/23/6 28/59/6

f 12/61/6 26/60/6 28/59/6

usemtl _Color_D03_1
vt 157.867 2.75787e-012
f 28/59/5 12/61/5 11/66/5

usemtl Color_D07
f 11/66/6 12/61/6 28/59/6

usemtl _Color_D03_1
vt 3.37505 2.71664e-012
vn -0.0113292 -2.55062e-016 0.999936
v 14.9741 5.89075 -66.8983
vt 117.155 82.6772
vt 3.37505 141.732
f 11/67/11 30/68/11 28/69/11

vt 117.155 2.6598e-012
f 30/68/11 11/67/11 7/70/11

usemtl Color_D07
vn 0.0113292 2.55062e-016 -0.999936
f 7/70/12 11/67/12 30/68/12

f 28/69/12 30/68/12 11/67/12

usemtl _Color_D03_1
v 16.2241 6.79075 -66.8842
vt 166.367 118.11
f 28/69/11 30/68/11 31/71/11

usemtl Color_D07
f 31/71/12 30/68/12 28/69/12

usemtl _Color_D03_1
vt 158.493 82.6772
f 1/72/11 31/71/11 30/68/11

v 16.2241 3.79075 -66.8842
vt 166.367 1.77872e-012
f 1/72/11 32/73/11 31/71/11

vt 158.493 1.0966e-012
f 32/73/11 1/72/11 3/74/11

usemtl Color_D07
f 3/74/12 1/72/12 32/73/12

f 31/71/12 32/73/12 1/72/12

usemtl _Color_D03_1
vt -157.867 1.89592e-012
v 16.1888 7.39075 -63.7743
vt -157.867 118.11
f 32/75/10 33/42/10 31/76/10

v 16.1888 3.79075 -63.7743
vt -35.4238 7.69341e-014
f 33/42/10 32/75/10 34/77/10

usemtl Color_D07
f 34/77/9 32/75/9 33/42/9

usemtl _Tile_Ceramic_Natural_15
vt -6.58347 51.7704
vt -6.60846 49.5648
f 32/78/3 6/11/3 34/79/3

f 3/7/3 6/11/3 32/78/3

usemtl _7
vt 5.24611 13.0998
f 3/8/4 6/80/4 5/9/4

vt 5.29679 13.7383
f 32/81/4 6/80/4 3/8/4

vt 5.28528 13.0995
f 34/82/4 6/80/4 32/81/4

usemtl _Color_D03_1
v 16.0688 6.72075 -63.7757
vt -161.643 115.354
vn 0.0113292 -4.69971e-015 -0.999936
vt -166.367 1.66482e-013
vt -161.643 1.66482e-013
f 35/83/13 34/84/13 6/85/13

vt -166.367 141.732
f 34/84/13 35/83/13 33/86/13

usemtl Color_D07
vn -0.0113292 4.69971e-015 0.999936
f 6/85/14 34/84/14 35/83/14

f 33/86/14 35/83/14 34/84/14

usemtl _Color_D03_1
f 35/83/13 23/36/13 33/86/13

v 14.2689 6.72075 -63.7961
vt -90.7766 115.354
f 36/87/13 23/36/13 35/83/13

vt -90.7766 2.86654e-012
f 8/88/13 23/36/13 36/87/13

vt -86.0522 2.86654e-012
f 23/36/13 8/88/13 9/89/13

usemtl Color_D07
f 9/89/14 8/88/14 23/36/14

usemtl _7
vt 4.65849 13.104
f 8/90/4 9/44/4 7/45/4

f 6/80/4 8/90/4 7/45/4

f 5/9/4 6/80/4 7/45/4

usemtl _Color_D03_1
vt 161.804 3.00763e-012
vn 0.999936 -2.62535e-015 0.0113292
vt 157.867 82.6772
vt 157.867 3.00763e-012
f 5/91/15 30/92/15 7/93/15

v 14.9753 5.89075 -66.9983
vt 161.804 82.6772
f 30/92/15 5/91/15 37/94/15

usemtl Color_D07
vn -0.999936 2.62535e-015 -0.0113292
f 7/93/16 30/92/16 5/91/16

f 37/94/16 5/91/16 30/92/16

f 36/87/14 23/36/14 8/88/14

f 35/83/14 23/36/14 36/87/14

f 33/86/14 23/36/14 35/83/14

f 23/42/9 21/39/9 9/40/9

f 31/76/9 33/42/9 32/75/9

usemtl _Color_D03_1
v 16.2241 7.39075 -66.8842
vt -157.867 141.732
f 31/76/10 33/42/10 38/95/10

usemtl Color_D07
f 38/95/9 33/42/9 31/76/9

usemtl _Color_D03_1
vt 166.367 141.732
f 28/69/11 31/71/11 38/96/11

usemtl Color_D07
f 38/96/12 31/71/12 28/69/12

f 30/68/12 31/71/12 1/72/12

f 19/28/8 20/37/8 21/36/8

f 18/26/10 10/34/10 19/33/10

f 4/4/2 1/1/2 2/2/2

g Mesh2 COM017 Model

l 3 2

l 3 1

l 32 3

l 34 32

l 34 33

l 34 6

l 6 35

l 8 6

l 8 36

l 8 9

l 9 23

l 22 9

l 22 21

l 20 22

l 20 10

l 20 19

l 19 21

l 19 18

l 16 18

l 17 16

l 14 17

l 14 10

l 13 14

l 25 13

l 24 25

l 24 12

l 24 27

l 27 26

l 26 15

l 12 26

l 11 12

l 7 11

l 5 7

l 5 37

l 5 2

l 2 4

l 4 1

l 1 30

l 30 37

l 7 30

l 11 28

l 28 16

l 38 28

l 31 38

l 32 31

l 33 38

l 23 33

l 21 23

l 15 29

l 13 15

l 25 29

l 10 18

l 35 36

g Mesh3 Model

v 21.5154 10.5 62.8597
v 21.5454 10.5 62.7436
l 39 40

g Mesh4 Model

v -222.959 3.3 -279.837
v -222.959 3.33 -279.837
l 41 42

g Mesh5 Model

v 35.416 5.65 -204.781
v 33.9777 5.65 -205.153
l 43 44

