# Alias OBJ Model File
# Exported from SketchUp, (c) 2000-2012 Trimble Navigation Limited
# File units = meters

mtllib DES009.mtl

g Mesh1 ventana2_1 DES009 Model

usemtl Color_000
v 28.0154 5.36236 -28.0981
vt 1.37598 26.4413
vn -0.999936 4.62436e-016 -0.0113292
v 28.0156 5.24336 -28.1191
vt 0.549204 21.7563
v 28.0154 5.24336 -28.0981
vt 1.37598 21.7563
f 1/1/1 2/2/1 3/3/1

v 28.0156 5.36236 -28.1191
vt 0.549204 26.4413
f 2/2/1 1/1/1 4/4/1

usemtl _Color_000_1
vn 0.999936 -4.62436e-016 0.0113292
f 3/3/2 2/2/2 1/1/2

usemtl Color_000
v 28.0158 5.24075 -28.133
vt 0 21.6535
f 2/2/1 5/5/1 3/3/1

v 28.0158 6.09075 -28.133
vt 0 55.1181
f 5/5/1 2/2/1 6/6/1

usemtl _Color_000_1
f 6/6/2 2/2/2 5/5/2

usemtl Color_000
f 6/6/1 2/2/1 4/4/1

usemtl _Color_000_1
f 4/4/2 2/2/2 6/6/2

f 4/4/2 1/1/2 2/2/2

usemtl Color_000
v 28.0152 6.04075 -28.083
vt 1.9685 53.1496
f 1/1/1 7/7/1 4/4/1

f 3/3/1 7/7/1 1/1/1

v 28.0152 4.74075 -28.083
vt 1.9685 1.9685
f 3/3/1 8/8/1 7/7/1

f 5/5/1 8/8/1 3/3/1

v 28.0158 4.69075 -28.133
vt 0 0
f 9/9/1 8/8/1 5/5/1

v 28.0033 4.74075 -27.0331
vt 43.3071 1.9685
f 8/8/1 9/9/1 10/10/1

usemtl _Color_000_1
f 5/5/2 8/8/2 9/9/2

f 3/3/2 8/8/2 5/5/2

f 7/7/2 8/8/2 3/3/2

usemtl M_0128_White
v 28.0652 4.74075 -28.0825
vn -0.0113292 -4.79067e-017 0.999936
vt 4.54747e-013 53.1496
vt 4.54747e-013 1.9685
f 11/8/3 7/11/3 8/12/3

v 28.0652 6.04075 -28.0825
f 7/11/3 11/8/3 12/7/3

usemtl _Color_000_1
vn 0.0113292 4.79067e-017 -0.999936
f 8/12/4 7/11/4 11/8/4

f 12/7/4 11/8/4 7/11/4

v 28.0658 6.09075 -28.1325
vt 9.09495e-013 55.1181
f 13/13/1 11/8/1 12/7/1

v 28.0658 4.69075 -28.1325
vt 9.09495e-013 0
f 14/14/1 11/8/1 13/13/1

v 28.0533 4.74075 -27.0325
f 11/8/1 14/14/1 15/10/1

usemtl M_0128_White
f 13/13/2 11/8/2 14/14/2

f 12/7/2 11/8/2 13/13/2

usemtl Translucent_Glass_Blue
vn -0.999936 4.01265e-015 -0.0113292
v 28.0533 6.04075 -27.0325
vt 43.3071 53.1496
f 11/8/5 16/15/5 12/7/5

f 16/15/5 11/8/5 15/10/5

vn 0.999936 -4.01265e-015 0.0113292
f 15/10/6 11/8/6 16/15/6

usemtl M_0128_White
vn 4.60342e-016 1 1.87418e-016
vt 43.3071 4.54747e-013
f 11/8/7 10/16/7 15/10/7

vt 1.9685 4.54747e-013
f 10/16/7 11/8/7 8/17/7

usemtl _Color_000_1
vn -4.60342e-016 -1 -1.87418e-016
f 8/17/8 11/8/8 10/16/8

f 15/10/8 10/16/8 11/8/8

usemtl M_0128_White
vt -4.54747e-013 1.9685
vt -1.9685 53.1496
vt -1.9685 1.9685
f 10/18/4 16/19/4 15/20/4

v 28.0033 6.04075 -27.0331
vt -4.54747e-013 53.1496
f 16/19/4 10/18/4 17/21/4

usemtl _Color_000_1
f 17/21/3 10/18/3 16/19/3

usemtl Color_000
v 28.0028 4.74075 -26.9831
vt 45.2756 1.9685
f 10/10/1 18/22/1 17/15/1

f 9/9/1 18/22/1 10/10/1

v 28.0028 4.69075 -26.9831
vt 45.2756 0
f 18/22/1 9/9/1 19/23/1

usemtl _Color_000_1
f 19/23/2 9/9/2 18/22/2

vt -9.09495e-013 1.9685
vn -4.61863e-016 -1 -5.31427e-017
vt -45.2756 4.54747e-013
f 14/24/9 19/25/9 9/9/9

v 28.0528 4.69075 -26.9825
vt -45.2756 1.9685
f 19/25/9 14/24/9 20/26/9

vn 4.61863e-016 1 5.31427e-017
f 9/9/10 19/25/10 14/24/10

f 20/26/10 14/24/10 19/25/10

v 28.0528 4.74075 -26.9825
f 21/22/1 14/14/1 20/23/1

f 14/14/1 21/22/1 15/10/1

usemtl M_0128_White
f 20/23/2 14/14/2 21/22/2

f 15/10/2 21/22/2 14/14/2

usemtl _Color_000_1
f 15/10/1 21/22/1 16/15/1

usemtl M_0128_White
f 16/15/2 21/22/2 15/10/2

usemtl _Color_000_1
v 28.0528 6.04075 -26.9825
vt 45.2756 53.1496
f 16/15/1 21/22/1 22/27/1

usemtl M_0128_White
f 22/27/2 21/22/2 16/15/2

f 22/7/3 18/12/3 21/8/3

v 28.0028 6.04075 -26.9831
vt 5.24223e-030 53.1496
f 18/12/3 22/7/3 23/28/3

usemtl _Color_000_1
f 23/28/4 22/7/4 18/12/4

usemtl M_0128_White
v 27.9914 6.04075 -25.9832
vt -84.6457 0
vt -45.2756 0
f 22/26/9 24/29/9 23/30/9

v 28.0428 6.04075 -26.1016
vt -79.9606 1.9685
f 24/29/9 22/26/9 25/31/9

usemtl _Color_000_1
f 23/30/10 24/29/10 22/26/10

usemtl Color_000
vt 84.6457 53.1496
v 27.9909 6.09075 -25.9332
vt 86.6142 55.1181
f 24/32/1 26/33/1 23/27/1

v 27.9913 5.36236 -25.9692
vt 85.1949 26.4413
f 27/34/1 26/33/1 24/32/1

v 27.991 5.36236 -25.9482
vt 86.0216 26.4413
f 28/35/1 26/33/1 27/34/1

v 27.991 5.24336 -25.9482
vt 86.0216 21.7563
f 29/36/1 26/33/1 28/35/1

v 27.9909 4.69075 -25.9332
vt 86.6142 0
f 29/36/1 30/37/1 26/33/1

v 27.9914 4.74075 -25.9832
vt 84.6457 1.9685
f 31/38/1 30/37/1 29/36/1

f 30/37/1 31/38/1 19/23/1

usemtl _Color_000_1
f 19/23/2 31/38/2 30/37/2

usemtl Color_000
f 18/22/1 19/23/1 31/38/1

usemtl _Color_000_1
vt -4.54747e-013 0
f 21/20/4 19/39/4 18/18/4

vt -1.9685 0
f 19/39/4 21/20/4 20/40/4

f 18/18/3 19/39/3 21/20/3

f 31/38/2 19/23/2 18/22/2

usemtl M_0128_White
vt 84.6457 1.94109e-031
vn 4.62822e-016 1 -3.14509e-017
vt 45.2756 4.54747e-013
f 31/41/11 21/22/11 18/42/11

v 28.0414 4.74075 -25.9826
f 21/22/11 31/41/11 32/38/11

usemtl _Color_000_1
vn -4.62822e-016 -1 3.14509e-017
f 18/42/12 21/22/12 31/41/12

f 21/8/4 18/12/4 22/7/4

usemtl Translucent_Glass_Blue
vn -0.999936 9.66885e-015 -0.0113292
vt 79.9606 53.1496
f 21/22/13 25/43/13 22/27/13

v 28.0414 6.04075 -25.9826
f 21/22/13 33/32/13 25/43/13

f 33/32/13 21/22/13 32/38/13

vn 0.999936 -9.66885e-015 0.0113292
f 32/38/14 21/22/14 33/32/14

usemtl _Color_000_1
f 32/38/12 31/41/12 21/22/12

usemtl M_0128_White
vt -9.80069e-030 1.9685
f 31/44/4 33/19/4 32/20/4

vt -9.80069e-030 53.1496
f 33/19/4 31/44/4 24/45/4

usemtl _Color_000_1
f 24/45/3 31/44/3 33/19/3

usemtl Color_000
v 27.9913 5.24336 -25.9692
vt 85.1949 21.7563
f 31/38/1 34/46/1 24/32/1

f 34/46/1 31/38/1 29/36/1

usemtl _Color_000_1
f 24/32/2 34/46/2 31/38/2

usemtl Color_000
f 24/32/1 34/46/1 27/34/1

usemtl _Color_000_1
f 27/34/2 34/46/2 24/32/2

usemtl Color_000
f 34/46/1 28/35/1 27/34/1

f 28/35/1 34/46/1 29/36/1

usemtl _Color_000_1
f 29/36/2 34/46/2 28/35/2

f 29/36/2 31/38/2 34/46/2

f 29/36/2 30/37/2 31/38/2

f 26/33/2 30/37/2 29/36/2

v 28.0409 4.69075 -25.9326
vt 1.9685 0
vt 1.36424e-012 55.1181
vt 1.36424e-012 0
f 35/47/3 26/48/3 30/49/3

v 28.0409 6.09075 -25.9326
vt 1.9685 55.1181
f 26/48/3 35/47/3 36/50/3

f 30/49/4 26/48/4 35/47/4

f 36/50/4 35/47/4 26/48/4

f 32/38/1 35/37/1 36/33/1

f 35/37/1 32/38/1 20/23/1

usemtl M_0128_White
f 20/23/2 32/38/2 35/37/2

usemtl _Color_000_1
f 21/22/1 20/23/1 32/38/1

f 20/40/3 21/20/3 19/39/3

usemtl M_0128_White
f 32/38/2 20/23/2 21/22/2

usemtl _Color_000_1
vt -86.6142 1.9685
f 35/51/9 19/25/9 20/26/9

vt -86.6142 1.36424e-012
f 19/25/9 35/51/9 30/52/9

f 20/26/10 19/25/10 35/51/10

f 30/52/10 35/51/10 19/25/10

usemtl M_0128_White
f 36/33/2 35/37/2 32/38/2

usemtl _Color_000_1
f 32/38/1 36/33/1 33/32/1

usemtl M_0128_White
f 33/32/2 36/33/2 32/38/2

usemtl _Color_000_1
f 33/32/1 36/33/1 25/43/1

usemtl M_0128_White
f 25/43/2 36/33/2 33/32/2

usemtl _Color_000_1
f 25/43/1 36/33/1 22/27/1

usemtl M_0128_White
f 22/27/2 36/33/2 25/43/2

usemtl _Color_000_1
v 28.0528 6.09075 -26.9825
vt 45.2756 55.1181
f 22/27/1 36/33/1 37/53/1

usemtl M_0128_White
f 37/53/2 36/33/2 22/27/2

usemtl _Color_000_1
vt 86.6142 1.36424e-012
vt 86.6142 1.9685
f 37/22/10 26/54/10 36/55/10

v 28.0028 6.09075 -26.9831
f 26/54/10 37/22/10 38/23/10

f 38/23/9 37/22/9 26/54/9

vt -1.9685 55.1181
vt -5.24223e-030 53.1496
vt -5.24223e-030 55.1181
f 37/56/4 23/57/4 38/58/4

f 23/57/4 37/56/4 22/19/4

f 38/58/3 23/57/3 37/56/3

usemtl Color_000
f 17/15/1 23/27/1 38/53/1

f 17/15/1 18/22/1 23/27/1

usemtl _Color_000_1
f 17/15/2 18/22/2 10/10/2

f 23/27/2 18/22/2 17/15/2

f 38/53/2 23/27/2 17/15/2

usemtl Color_000
f 23/27/1 26/33/1 38/53/1

usemtl _Color_000_1
f 23/27/2 26/33/2 24/32/2

f 38/53/2 26/33/2 23/27/2

f 24/32/2 26/33/2 27/34/2

f 27/34/2 26/33/2 28/35/2

f 28/35/2 26/33/2 29/36/2

f 27/34/2 28/35/2 34/46/2

usemtl Color_000
f 17/15/1 38/53/1 7/7/1

usemtl _Color_000_1
f 7/7/2 38/53/2 17/15/2

usemtl Color_000
f 6/6/1 7/7/1 38/53/1

f 6/6/1 4/4/1 7/7/1

usemtl _Color_000_1
f 7/7/2 4/4/2 6/6/2

f 4/4/2 7/7/2 1/1/2

f 1/1/2 7/7/2 3/3/2

f 38/53/2 7/7/2 6/6/2

usemtl Color_000
v 28.0033 6.09075 -27.0331
vt 43.3071 55.1181
f 6/6/1 38/53/1 39/59/1

usemtl _Color_000_1
f 39/59/2 38/53/2 6/6/2

f 37/22/10 39/16/10 38/23/10

v 28.0533 6.09075 -27.0325
f 39/16/10 37/22/10 40/10/10

f 40/10/9 37/22/9 39/16/9

f 13/13/1 37/53/1 40/59/1

f 13/13/1 12/7/1 37/53/1

usemtl M_0128_White
f 37/53/2 12/7/2 13/13/2

usemtl _Color_000_1
v 28.0536 6.04075 -27.0595
vt 42.2441 53.1496
f 41/60/1 37/53/1 12/7/1

f 16/15/1 37/53/1 41/60/1

f 16/15/1 22/27/1 37/53/1

usemtl M_0128_White
f 37/53/2 22/27/2 16/15/2

usemtl _Color_000_1
f 22/19/3 37/56/3 23/57/3

usemtl M_0128_White
f 41/60/2 37/53/2 16/15/2

f 12/7/2 37/53/2 41/60/2

vt -43.3071 4.54747e-013
vt -42.2441 1.9685
f 17/61/9 12/20/9 41/62/9

vt -1.9685 4.54747e-013
f 12/20/9 17/61/9 7/63/9

usemtl _Color_000_1
f 7/63/10 17/61/10 12/20/10

f 41/62/10 12/20/10 17/61/10

usemtl Translucent_Glass_Blue
f 12/7/5 16/15/5 41/60/5

f 12/7/6 16/15/6 11/8/6

f 41/60/6 16/15/6 12/7/6

usemtl M_0128_White
vt -43.3071 1.9685
f 17/61/9 41/62/9 16/64/9

usemtl _Color_000_1
f 16/64/10 41/62/10 17/61/10

usemtl M_0128_White
f 40/59/2 37/53/2 13/13/2

usemtl _Color_000_1
vt 9.09495e-013 1.9685
f 13/65/10 39/16/10 40/10/10

f 39/16/10 13/65/10 6/9/10

f 6/9/9 13/65/9 39/16/9

f 13/56/4 5/5/4 6/6/4

f 5/5/4 13/56/4 9/9/4

f 6/6/3 5/5/3 13/56/3

f 9/9/3 13/56/3 5/5/3

f 9/9/4 13/56/4 14/40/4

f 14/40/3 13/56/3 9/9/3

f 40/10/9 39/16/9 13/65/9

f 38/23/9 39/16/9 37/22/9

f 10/10/2 18/22/2 9/9/2

f 10/10/2 9/9/2 8/8/2

f 36/55/9 26/54/9 37/22/9

f 25/31/10 22/26/10 24/29/10

usemtl Translucent_Glass_Blue
f 22/27/14 25/43/14 21/22/14

f 25/43/14 33/32/14 21/22/14

usemtl M_0128_White
vt -84.6457 1.9685
f 24/29/9 25/31/9 33/66/9

usemtl _Color_000_1
f 33/66/10 25/31/10 24/29/10

f 32/20/3 33/19/3 31/44/3

f 15/20/3 16/19/3 10/18/3

usemtl M_0128_White
f 15/10/2 14/14/2 11/8/2

usemtl _Color_000_1
f 3/3/2 5/5/2 2/2/2

g Mesh2 ventana2_1 DES009 Model

l 2 3

l 4 2

l 1 4

l 3 1

g Mesh3 ventana2_1 DES009 Model

l 11 15

l 11 8

l 12 11

l 12 7

l 41 12

l 16 41

l 16 17

l 16 15

l 15 10

l 8 10

l 7 8

l 17 7

l 17 10

g Mesh4 ventana2_1 DES009 Model

l 5 6

l 9 5

l 14 9

l 14 13

l 20 14

l 21 20

l 21 18

l 22 21

l 22 23

l 37 22

l 40 37

l 13 40

l 13 6

l 6 39

l 40 39

l 39 38

l 37 38

l 37 36

l 36 26

l 36 35

l 35 30

l 35 20

l 20 19

l 18 19

l 18 31

l 23 18

l 24 23

l 31 24

l 32 31

l 32 33

l 21 32

l 33 24

l 33 25

l 25 22

l 38 23

l 38 26

l 26 30

l 30 19

l 19 9

g Mesh5 ventana2_1 DES009 Model

l 29 28

l 34 29

l 27 34

l 28 27

g Mesh6 DES009 Model

usemtl _Color_C03_4
v 20.1137 7.39075 -25.8139
vt 2.24276 141.732
vn 0.269746 -2.0312e-014 -0.962932
v 20.1737 3.79075 -25.7882
vt -0.32665 1.25079e-012
vn 0.509779 -3.42363e-014 -0.860305
v 20.1137 3.79075 -25.8139
vt 2.24276 1.25079e-012
f 42/67/15 43/68/16 44/69/15

v 20.1737 7.39075 -25.7882
vt -0.32665 141.732
f 43/68/16 42/67/15 45/70/16

usemtl Color_D07
vn -0.269746 2.0312e-014 0.962932
vn -0.509779 3.42363e-014 0.860305
f 44/69/17 43/68/18 42/67/17

usemtl _Tile_Ceramic_Natural_15
v 20.9716 3.79075 -27.3578
vt -3.21645 23.7375
vn 1.37368e-014 1 7.57787e-014
vt -3.82485 22.6425
vt -3.78229 22.6243
f 46/71/19 44/72/19 43/73/19

v 20.0491 3.79075 -25.8231
vt -3.87067 22.6491
f 46/71/19 47/74/19 44/72/19

v 20.0466 3.79075 -27.3683
vt -3.87244 23.7449
f 48/75/19 47/74/19 46/71/19

v 20.0291 3.79075 -25.8207
vt -3.88487 22.6474
f 47/74/19 48/75/19 49/76/19

usemtl BackColor
vt -1.17127e-026 13.7677
vn -1.37368e-014 -1 -7.57787e-014
vt 0.690295 74.6942
vt 0.788525 13.8624
f 49/77/20 48/78/20 47/79/20

usemtl _Color_D03_1
vt 74.6972 8.42054e-013
vn 0.999936 -6.79399e-014 0.0113292
v 20.0291 7.39075 -25.8207
vt 13.7668 141.732
vt 13.7668 8.42054e-013
f 48/80/21 50/81/21 49/82/21

v 20.0466 7.39075 -27.3683
vt 74.6972 141.732
f 50/81/21 48/80/21 51/83/21

usemtl Color_D07
vn -0.999936 6.79399e-014 -0.0113292
f 49/82/22 50/81/22 48/80/22

usemtl _Color_C03_4
vt -1.64228 141.732
vn -0.119286 4.12003e-015 -0.99286
vt -2.43648 7.96333e-013
vn 0.0113292 -3.60096e-015 -0.999936
vt -1.64228 7.96333e-013
f 50/84/23 47/85/24 49/86/23

v 20.0491 7.39075 -25.8231
vt -2.43648 141.732
f 47/85/24 50/84/23 52/87/24

usemtl Color_D07
vn 0.119286 -4.12003e-015 0.99286
vn -0.0113292 3.60096e-015 0.999936
f 49/86/25 47/85/26 50/84/25

f 52/87/26 50/84/25 47/85/26

usemtl _Color_C03_4
vt 1.18443 141.732
vt -1.38498 1.00843e-012
vt 1.18443 1.00843e-012
f 52/88/24 44/89/15 47/90/24

vt -1.38498 141.732
f 44/89/15 52/88/24 42/91/15

usemtl Color_D07
f 47/90/26 44/89/17 52/88/26

usemtl BackColor
vt 3.33199 13.4982
vt 37.1053 74.2816
f 44/92/20 47/79/20 46/93/20

f 46/93/20 47/79/20 48/78/20

usemtl _Color_D03_1
vt 36.2613 2.23243e-012
vn -0.0113292 5.91539e-015 0.999936
vt -0.155977 141.732
vt -0.155977 1.29451e-012
f 46/94/27 51/95/27 48/96/27

v 20.9716 7.39075 -27.3578
vt 36.2613 141.732
f 51/95/27 46/94/27 53/97/27

usemtl BackColor
vn 0.0113292 -5.91539e-015 -0.999936
f 48/96/28 51/95/28 46/94/28

usemtl Color_D07
f 51/83/22 48/80/22 50/81/22

usemtl BackColor
f 53/97/28 46/94/28 51/95/28

usemtl _Color_D03_1
v 20.9736 6.72075 -27.5393
vt 81.8455 115.354
vn 0.999936 -5.04146e-007 0.0113359
vt 74.6974 141.732
vt 74.6974 1.82808e-005
f 54/98/29 53/99/29 46/100/29

v 20.9826 7.39075 -28.3358
vt 113.203 141.732
f 53/99/29 54/98/29 55/101/29

usemtl BackColor
vn -0.999936 5.04146e-007 -0.0113359
f 55/101/30 54/98/30 53/99/30

usemtl _Color_D03_1
v 20.9824 6.72075 -28.3134
vt 112.322 115.354
f 55/101/29 54/98/29 56/102/29

usemtl BackColor
f 56/102/30 54/98/30 55/101/30

usemtl _Color_D03_1
v 20.9826 3.79075 -28.3358
vt 113.203 1.82806e-005
f 55/101/29 56/102/29 57/103/29

usemtl BackColor
f 57/103/30 56/102/30 55/101/30

usemtl _Color_D03_1
v 20.9824 3.79075 -28.3134
vt 112.322 1.82806e-005
f 57/103/29 56/102/29 58/104/29

usemtl BackColor
f 58/104/30 56/102/30 57/103/30

usemtl _Tile_Ceramic_Natural_15
vt -3.20877 24.4152
v 27.7356 3.79075 -25.471
vt 1.58075 22.3994
vt -3.20859 24.4311
f 58/105/19 59/106/19 57/107/19

v 20.9736 3.79075 -27.5393
vt -3.215 23.8663
f 60/108/19 59/106/19 58/105/19

v 20.9736 3.79075 -27.5359
vt -3.21503 23.8638
f 61/109/19 59/106/19 60/108/19

v 20.9729 3.79075 -27.4789
vt -3.21549 23.8234
f 62/110/19 59/106/19 61/109/19

v 20.9729 3.79075 -27.4785
vt -3.21549 23.8231
f 63/111/19 59/106/19 62/110/19

v 20.9729 3.79075 -27.4778
vt -3.21549 23.8226
f 64/112/19 59/106/19 63/111/19

f 46/71/19 59/106/19 64/112/19

v 20.2963 3.79075 -25.5703
vt -3.69538 22.4698
f 65/113/19 59/106/19 46/71/19

v 20.2941 3.79075 -25.5553
vt -3.6969 22.4592
f 59/106/19 65/113/19 66/114/19

usemtl BackColor
vt 10.4345 3.31936
vt 10.5189 3.909
vt 303.407 3.86907e-025
f 66/115/20 65/116/20 59/117/20

usemtl _Color_C03_4
v 20.2963 7.39075 -25.5703
vt 5.36058 141.732
vn 0.999936 -7.71625e-014 0.0113292
vt 4.76493 8.61131e-013
vn 0.989902 -8.73483e-014 0.14175
vt 5.36058 8.61131e-013
f 67/118/31 66/119/32 65/120/31

v 20.2941 7.39075 -25.5553
vt 4.76493 141.732
f 66/119/32 67/118/31 68/121/32

usemtl Color_D07
vn -0.989902 8.73483e-014 -0.14175
vn -0.999936 7.71625e-014 -0.0113292
f 68/121/33 67/118/34 66/119/33

f 65/120/34 66/119/33 67/118/34

usemtl _Color_C03_4
v 20.2885 3.79075 -25.6351
vt 5.19575 7.16317e-013
vn 0.968796 -6.04496e-014 -0.247859
vt 2.62633 141.732
vt 2.62633 7.16317e-013
f 69/122/35 67/123/31 65/124/31

v 20.2885 7.39075 -25.6351
vt 5.19575 141.732
f 67/123/31 69/122/35 70/125/35

usemtl Color_D07
vn -0.968796 6.04496e-014 0.247859
f 65/124/34 67/123/34 69/122/36

f 70/125/36 69/122/36 67/123/34

usemtl _Color_C03_4
v 20.2642 3.79075 -25.6957
vt 4.76438 6.44165e-013
vn 0.871634 -5.88172e-014 -0.490157
vt 2.19497 141.732
vt 2.19497 6.44165e-013
f 71/126/37 70/127/35 69/128/35

v 20.2642 7.39075 -25.6957
vt 4.76438 141.732
f 70/127/35 71/126/37 72/129/37

usemtl Color_D07
vn -0.871634 5.88172e-014 0.490157
f 69/128/36 70/127/36 71/126/38

f 72/129/38 71/126/38 70/127/36

usemtl _Color_C03_4
v 20.2251 3.79075 -25.7479
vt 4.09588 1.64608e-012
vn 0.715072 -5.10821e-014 -0.69905
vt 1.52647 141.732
vt 1.52647 7.93433e-013
f 73/130/39 72/131/37 71/132/37

v 20.2251 7.39075 -25.7479
vt 4.09588 141.732
f 72/131/37 73/130/39 74/133/39

usemtl Color_D07
vn -0.715072 5.10821e-014 0.69905
f 71/132/38 72/131/38 73/130/40

f 74/133/40 73/130/40 72/131/38

usemtl _Color_C03_4
vt 0.666391 1.37112e-012
vt 3.2358 141.732
vt 0.666391 141.732
f 73/134/39 45/135/16 74/136/39

vt 3.2358 1.37112e-012
f 45/135/16 73/134/39 43/137/16

usemtl Color_D07
f 43/137/18 73/134/40 45/135/18

usemtl _Tile_Ceramic_Natural_15
vt -3.74589 22.5958
f 46/71/19 43/73/19 73/138/19

usemtl BackColor
vt 5.69453 12.4881
f 43/139/20 44/92/20 46/93/20

vt 7.71513 10.9009
f 73/140/20 43/139/20 46/93/20

usemtl _Tile_Ceramic_Natural_15
vt -3.71813 22.5587
f 46/71/19 73/138/19 71/141/19

usemtl BackColor
vt 9.2561 8.84488
f 71/142/20 73/140/20 46/93/20

usemtl _Tile_Ceramic_Natural_15
vt -3.7009 22.5158
f 46/71/19 71/141/19 69/143/19

usemtl BackColor
vt 10.2124 6.46006
f 69/144/20 71/142/20 46/93/20

usemtl _Tile_Ceramic_Natural_15
f 46/71/19 69/143/19 65/113/19

usemtl BackColor
f 65/116/20 69/144/20 46/93/20

f 46/93/20 59/117/20 65/116/20

vt 37.1588 79.0057
f 64/145/20 59/117/20 46/93/20

vt 37.1588 79.0333
f 63/146/20 59/117/20 64/145/20

vt 37.1588 79.0493
f 62/147/20 59/117/20 63/146/20

vt 37.1843 81.2937
f 61/148/20 59/117/20 62/147/20

vt 37.1858 81.4292
f 60/149/20 59/117/20 61/148/20

vt 37.5315 111.904
f 58/150/20 59/117/20 60/149/20

vt 37.5415 112.785
f 57/151/20 59/117/20 58/150/20

usemtl _Tile_Ceramic_Natural_15
v 21.0536 3.79075 -28.3354
vt -3.15824 24.4309
f 57/107/19 59/106/19 75/152/19

usemtl BackColor
vt 40.3368 112.771
f 75/153/20 59/117/20 57/151/20

usemtl _Tile_Ceramic_Natural_15
v 27.7379 3.79075 -25.676
vt 1.5824 22.5448
f 75/152/19 59/106/19 76/154/19

usemtl BackColor
vt 303.498 8.07035
f 76/155/20 59/117/20 75/153/20

usemtl _Color_D03_1
vt -3.43737 9.29102e-013
vn -0.999936 -2.90539e-017 -0.0113292
v 27.7356 7.39075 -25.471
vt -3.43737 141.732
vt -11.5082 7.01728e-013
f 59/156/41 77/157/41 76/158/41

v 27.7356 6.79075 -25.471
vt -3.43737 118.11
f 77/157/41 59/156/41 78/159/41

usemtl Color_D07
vn 0.999936 2.90539e-017 0.0113292
f 78/159/42 59/156/42 77/157/42

vt 10.3962 141.732
vn -0.0113292 -2.17433e-014 0.999936
vt 303.387 8.63177e-013
vt 303.387 118.11
f 68/160/43 59/161/43 78/162/43

vt 10.3962 -7.47395e-014
f 59/161/43 68/160/43 66/163/43

usemtl _Color_D03_1
vn 0.0113292 2.17433e-014 -0.999936
f 66/163/44 68/160/44 59/161/44

f 78/162/44 59/161/44 68/160/44

usemtl Color_D07
vt 303.387 141.732
f 68/160/43 78/162/43 77/164/43

usemtl _Color_D03_1
f 77/164/44 78/162/44 68/160/44

usemtl Color_D07
f 76/158/42 77/157/42 59/156/42

usemtl _Color_D03_1
v 27.7379 7.39075 -25.676
vt -11.5082 141.732
f 76/158/41 77/157/41 79/165/41

usemtl Color_D07
f 79/165/42 77/157/42 76/158/42

usemtl _Color_D03_1
vt -303.387 141.732
vn 0.0113292 -2.94604e-016 -0.999936
v 27.9879 3.79075 -25.6732
vt -313.23 9.41307e-013
vt -303.387 7.13933e-013
f 79/166/45 80/167/45 76/168/45

v 27.9879 7.39075 -25.6732
vt -313.23 141.732
f 80/167/45 79/166/45 81/169/45

usemtl Color_D07
vn -0.0113292 2.94604e-016 0.999936
f 76/168/46 80/167/46 79/166/46

usemtl _Tile_Ceramic_Natural_15
v 27.9909 3.79075 -25.9332
vt 1.76178 22.7271
vt 1.7597 22.5428
f 82/170/19 76/154/19 80/171/19

v 28.0177 3.79075 -28.3003
vt 1.78081 24.4059
f 83/172/19 76/154/19 82/170/19

f 75/152/19 76/154/19 83/172/19

usemtl BackColor
vt 314.512 111.388
f 83/173/20 76/155/20 75/153/20

vt 313.456 18.1944
f 82/174/20 76/155/20 83/173/20

vt 313.34 7.95884
f 80/175/20 76/155/20 82/174/20

usemtl _Color_D03_1
v 27.9909 6.09075 -25.9332
vt -21.7445 90.5512
vn -0.999936 3.44699e-015 -0.0113292
vt -21.7445 1.79024e-012
vt -11.5082 2.01762e-012
f 84/176/47 82/177/47 80/178/47

v 27.9909 4.69075 -25.9332
vt -21.7445 35.4331
f 82/177/47 84/176/47 85/179/47

usemtl Color_D07
vn 0.999936 -3.44699e-015 0.0113292
f 80/178/48 82/177/48 84/176/48

f 85/179/48 84/176/48 82/177/48

usemtl _Color_D03_1
v 28.0158 4.69075 -28.133
vt -108.359 35.4331
f 82/177/47 85/179/47 86/180/47

usemtl Color_D07
f 86/180/48 85/179/48 82/177/48

usemtl _Color_D03_1
v 28.0158 3.79075 -28.133
vt -108.359 1.79024e-012
f 82/177/47 86/180/47 87/181/47

usemtl Color_D07
f 87/181/48 86/180/48 82/177/48

usemtl _Color_D03_1
v 28.0177 7.39075 -28.3003
vt -114.944 141.732
f 86/180/47 88/182/47 87/181/47

v 28.0158 6.09075 -28.133
vt -108.359 90.5512
f 89/183/47 88/182/47 86/180/47

f 84/176/47 88/182/47 89/183/47

f 84/176/47 81/165/47 88/182/47

f 81/165/47 84/176/47 80/178/47

usemtl Color_D07
f 80/178/48 84/176/48 81/165/48

f 88/182/48 81/165/48 84/176/48

f 89/183/48 88/182/48 84/176/48

f 86/180/48 88/182/48 89/183/48

f 87/181/48 88/182/48 86/180/48

usemtl _Color_D03_1
vt -114.944 1.90393e-012
f 87/181/47 88/182/47 83/184/47

usemtl Color_D07
f 83/184/48 88/182/48 87/181/48

usemtl _Color_D03_1
vt 313.946 141.732
vn -0.0050437 -6.55921e-017 0.999987
vt 39.7675 9.30506e-013
vt 313.946 8.16819e-013
f 88/185/49 75/186/49 83/187/49

vt 36.9722 9.30506e-013
f 75/186/49 88/185/49 57/188/49

usemtl BackColor
vn 0.0050437 6.55921e-017 -0.999987
f 83/187/50 75/186/50 88/185/50

f 57/188/50 88/185/50 75/186/50

usemtl _Color_D03_1
v 20.9826 4.01375 -28.3358
vt 36.9722 8.77953
f 57/188/49 88/185/49 90/189/49

usemtl BackColor
f 90/189/50 88/185/50 57/188/50

usemtl _Color_D03_1
vt 36.9722 141.732
f 90/189/49 88/185/49 55/190/49

usemtl BackColor
f 55/190/50 88/185/50 90/189/50

usemtl _Color_D03_1
vt 113.203 8.77955
f 55/101/29 57/103/29 90/191/29

usemtl BackColor
f 90/191/30 57/103/30 55/101/30

usemtl _Tile_Ceramic_Natural_15
vt 1.77946 24.2873
f 83/172/19 82/170/19 87/192/19

usemtl BackColor
vt 314.437 104.803
f 87/193/20 82/174/20 83/173/20

usemtl Color_D07
f 81/169/46 79/166/46 80/167/46

usemtl _Color_D03_1
vt 81.8455 1.82806e-005
vt 81.71 1.82805e-005
f 60/194/29 54/98/29 61/195/29

usemtl BackColor
f 61/195/30 54/98/30 60/194/30

usemtl _Color_D03_1
vt 79.4655 1.82805e-005
f 54/98/29 62/196/29 61/195/29

vt 79.4494 1.82806e-005
f 54/98/29 63/197/29 62/196/29

vt 79.4219 1.82808e-005
f 54/98/29 64/198/29 63/197/29

f 54/98/29 46/100/29 64/198/29

usemtl BackColor
f 46/100/30 53/99/30 54/98/30

f 64/198/30 46/100/30 54/98/30

f 63/197/30 64/198/30 54/98/30

f 62/196/30 63/197/30 54/98/30

f 61/195/30 62/196/30 54/98/30

usemtl Color_D07
f 74/136/40 45/135/18 73/134/40

f 45/70/18 42/67/17 43/68/18

f 42/91/17 52/88/26 44/89/17

g Mesh7 DES009 Model

l 45 42

l 74 45

l 72 74

l 70 72

l 67 70

l 68 67

l 77 68

l 78 77

l 59 78

l 76 59

l 76 79

l 80 76

l 80 81

l 82 80

l 82 87

l 83 87

l 83 75

l 88 83

l 88 81

l 55 88

l 90 55

l 90 57

l 75 57

l 58 57

l 58 56

l 60 58

l 60 54

l 61 60

l 62 61

l 46 64

l 46 53

l 46 48

l 48 49

l 48 51

l 51 50

l 51 53

l 55 53

l 49 50

l 47 49

l 44 47

l 43 44

l 73 43

l 71 73

l 69 71

l 65 69

l 66 65

l 59 66

l 66 68

l 52 50

l 42 52

l 54 56

l 81 79

l 79 77

g Mesh8 DES009 Model

l 85 84

l 85 86

l 86 89

l 89 84

g Mesh9 Model

v 21.5154 10.5 62.8597
v 21.5454 10.5 62.7436
l 91 92

g Mesh10 Model

v -222.959 3.3 -279.837
v -222.959 3.33 -279.837
l 93 94

g Mesh11 Model

v 35.416 5.65 -204.781
v 33.9777 5.65 -205.153
l 95 96

