# Alias OBJ Model File
# Exported from SketchUp, (c) 2000-2012 Trimble Navigation Limited
# File units = meters

mtllib DES008.mtl

g Mesh1 ventana2_1 DES008 Model

usemtl Color_000
v 27.978 5.36236 -24.7983
vt 1.37598 26.4413
vn -0.999936 4.62436e-016 -0.0113292
v 27.9783 5.24336 -24.8193
vt 0.549204 21.7563
v 27.978 5.24336 -24.7983
vt 1.37598 21.7563
f 1/1/1 2/2/1 3/3/1

v 27.9783 5.36236 -24.8193
vt 0.549204 26.4413
f 2/2/1 1/1/1 4/4/1

usemtl _Color_000_1
vn 0.999936 -4.62436e-016 0.0113292
f 3/3/2 2/2/2 1/1/2

usemtl Color_000
v 27.9784 5.24075 -24.8332
vt 0 21.6535
f 2/2/1 5/5/1 3/3/1

v 27.9784 6.09075 -24.8332
vt 0 55.1181
f 5/5/1 2/2/1 6/6/1

usemtl _Color_000_1
f 6/6/2 2/2/2 5/5/2

usemtl Color_000
f 6/6/1 2/2/1 4/4/1

usemtl _Color_000_1
f 4/4/2 2/2/2 6/6/2

f 4/4/2 1/1/2 2/2/2

usemtl Color_000
v 27.9778 6.04075 -24.7832
vt 1.9685 53.1496
f 1/1/1 7/7/1 4/4/1

f 3/3/1 7/7/1 1/1/1

v 27.9778 4.74075 -24.7832
vt 1.9685 1.9685
f 3/3/1 8/8/1 7/7/1

f 5/5/1 8/8/1 3/3/1

v 27.9784 4.69075 -24.8332
vt 0 0
f 9/9/1 8/8/1 5/5/1

v 27.9659 4.74075 -23.7333
vt 43.3071 1.9685
f 8/8/1 9/9/1 10/10/1

usemtl _Color_000_1
f 5/5/2 8/8/2 9/9/2

f 3/3/2 8/8/2 5/5/2

f 7/7/2 8/8/2 3/3/2

usemtl M_0128_White
v 28.0278 4.74075 -24.7827
vn -0.0113292 -4.79067e-017 0.999936
vt 4.54747e-013 53.1496
vt 4.54747e-013 1.9685
f 11/8/3 7/11/3 8/12/3

v 28.0278 6.04075 -24.7827
f 7/11/3 11/8/3 12/7/3

usemtl _Color_000_1
vn 0.0113292 4.79067e-017 -0.999936
f 8/12/4 7/11/4 11/8/4

f 12/7/4 11/8/4 7/11/4

v 28.0284 6.09075 -24.8327
vt 9.09495e-013 55.1181
f 13/13/1 11/8/1 12/7/1

v 28.0284 4.69075 -24.8327
vt 9.09495e-013 0
f 14/14/1 11/8/1 13/13/1

v 28.0159 4.74075 -23.7327
f 11/8/1 14/14/1 15/10/1

usemtl M_0128_White
f 13/13/2 11/8/2 14/14/2

f 12/7/2 11/8/2 13/13/2

usemtl Translucent_Glass_Blue
vn -0.999936 4.01265e-015 -0.0113292
v 28.0159 6.04075 -23.7327
vt 43.3071 53.1496
f 11/8/5 16/15/5 12/7/5

f 16/15/5 11/8/5 15/10/5

vn 0.999936 -4.01265e-015 0.0113292
f 15/10/6 11/8/6 16/15/6

usemtl M_0128_White
vn 4.60342e-016 1 1.87418e-016
vt 43.3071 4.54747e-013
f 11/8/7 10/16/7 15/10/7

vt 1.9685 4.54747e-013
f 10/16/7 11/8/7 8/17/7

usemtl _Color_000_1
vn -4.60342e-016 -1 -1.87418e-016
f 8/17/8 11/8/8 10/16/8

f 15/10/8 10/16/8 11/8/8

usemtl M_0128_White
vt -4.54747e-013 1.9685
vt -1.9685 53.1496
vt -1.9685 1.9685
f 10/18/4 16/19/4 15/20/4

v 27.9659 6.04075 -23.7333
vt -4.54747e-013 53.1496
f 16/19/4 10/18/4 17/21/4

usemtl _Color_000_1
f 17/21/3 10/18/3 16/19/3

usemtl Color_000
v 27.9654 4.74075 -23.6833
vt 45.2756 1.9685
f 10/10/1 18/22/1 17/15/1

f 9/9/1 18/22/1 10/10/1

v 27.9654 4.69075 -23.6833
vt 45.2756 0
f 18/22/1 9/9/1 19/23/1

usemtl _Color_000_1
f 19/23/2 9/9/2 18/22/2

vt -9.09495e-013 1.9685
vn -4.61863e-016 -1 -5.31427e-017
vt -45.2756 4.54747e-013
f 14/24/9 19/25/9 9/9/9

v 28.0154 4.69075 -23.6827
vt -45.2756 1.9685
f 19/25/9 14/24/9 20/26/9

vn 4.61863e-016 1 5.31427e-017
f 9/9/10 19/25/10 14/24/10

f 20/26/10 14/24/10 19/25/10

v 28.0154 4.74075 -23.6827
f 21/22/1 14/14/1 20/23/1

f 14/14/1 21/22/1 15/10/1

usemtl M_0128_White
f 20/23/2 14/14/2 21/22/2

f 15/10/2 21/22/2 14/14/2

usemtl _Color_000_1
f 15/10/1 21/22/1 16/15/1

usemtl M_0128_White
f 16/15/2 21/22/2 15/10/2

usemtl _Color_000_1
v 28.0154 6.04075 -23.6827
vt 45.2756 53.1496
f 16/15/1 21/22/1 22/27/1

usemtl M_0128_White
f 22/27/2 21/22/2 16/15/2

f 22/7/3 18/12/3 21/8/3

v 27.9654 6.04075 -23.6833
vt 5.24223e-030 53.1496
f 18/12/3 22/7/3 23/28/3

usemtl _Color_000_1
f 23/28/4 22/7/4 18/12/4

usemtl M_0128_White
v 27.9541 6.04075 -22.6834
vt -84.6457 0
vt -45.2756 0
f 22/26/9 24/29/9 23/30/9

v 28.0054 6.04075 -22.8018
vt -79.9606 1.9685
f 24/29/9 22/26/9 25/31/9

usemtl _Color_000_1
f 23/30/10 24/29/10 22/26/10

usemtl Color_000
vt 84.6457 53.1496
v 27.9535 6.09075 -22.6334
vt 86.6142 55.1181
f 24/32/1 26/33/1 23/27/1

v 27.9539 5.36236 -22.6694
vt 85.1949 26.4413
f 27/34/1 26/33/1 24/32/1

v 27.9537 5.36236 -22.6484
vt 86.0216 26.4413
f 28/35/1 26/33/1 27/34/1

v 27.9537 5.24336 -22.6484
vt 86.0216 21.7563
f 29/36/1 26/33/1 28/35/1

v 27.9535 4.69075 -22.6334
vt 86.6142 0
f 29/36/1 30/37/1 26/33/1

v 27.9541 4.74075 -22.6834
vt 84.6457 1.9685
f 31/38/1 30/37/1 29/36/1

f 30/37/1 31/38/1 19/23/1

usemtl _Color_000_1
f 19/23/2 31/38/2 30/37/2

usemtl Color_000
f 18/22/1 19/23/1 31/38/1

usemtl _Color_000_1
vt -4.54747e-013 0
f 21/20/4 19/39/4 18/18/4

vt -1.9685 0
f 19/39/4 21/20/4 20/40/4

f 18/18/3 19/39/3 21/20/3

f 31/38/2 19/23/2 18/22/2

usemtl M_0128_White
vt 84.6457 1.94109e-031
vn 4.62822e-016 1 -3.14509e-017
vt 45.2756 4.54747e-013
f 31/41/11 21/22/11 18/42/11

v 28.004 4.74075 -22.6828
f 21/22/11 31/41/11 32/38/11

usemtl _Color_000_1
vn -4.62822e-016 -1 3.14509e-017
f 18/42/12 21/22/12 31/41/12

f 21/8/4 18/12/4 22/7/4

usemtl Translucent_Glass_Blue
vn -0.999936 9.66885e-015 -0.0113292
vt 79.9606 53.1496
f 21/22/13 25/43/13 22/27/13

v 28.004 6.04075 -22.6828
f 21/22/13 33/32/13 25/43/13

f 33/32/13 21/22/13 32/38/13

vn 0.999936 -9.66885e-015 0.0113292
f 32/38/14 21/22/14 33/32/14

usemtl _Color_000_1
f 32/38/12 31/41/12 21/22/12

usemtl M_0128_White
vt -9.80069e-030 1.9685
f 31/44/4 33/19/4 32/20/4

vt -9.80069e-030 53.1496
f 33/19/4 31/44/4 24/45/4

usemtl _Color_000_1
f 24/45/3 31/44/3 33/19/3

usemtl Color_000
v 27.9539 5.24336 -22.6694
vt 85.1949 21.7563
f 31/38/1 34/46/1 24/32/1

f 34/46/1 31/38/1 29/36/1

usemtl _Color_000_1
f 24/32/2 34/46/2 31/38/2

usemtl Color_000
f 24/32/1 34/46/1 27/34/1

usemtl _Color_000_1
f 27/34/2 34/46/2 24/32/2

usemtl Color_000
f 34/46/1 28/35/1 27/34/1

f 28/35/1 34/46/1 29/36/1

usemtl _Color_000_1
f 29/36/2 34/46/2 28/35/2

f 29/36/2 31/38/2 34/46/2

f 29/36/2 30/37/2 31/38/2

f 26/33/2 30/37/2 29/36/2

v 28.0035 4.69075 -22.6328
vt 1.9685 0
vt 1.36424e-012 55.1181
vt 1.36424e-012 0
f 35/47/3 26/48/3 30/49/3

v 28.0035 6.09075 -22.6328
vt 1.9685 55.1181
f 26/48/3 35/47/3 36/50/3

f 30/49/4 26/48/4 35/47/4

f 36/50/4 35/47/4 26/48/4

f 32/38/1 35/37/1 36/33/1

f 35/37/1 32/38/1 20/23/1

usemtl M_0128_White
f 20/23/2 32/38/2 35/37/2

usemtl _Color_000_1
f 21/22/1 20/23/1 32/38/1

f 20/40/3 21/20/3 19/39/3

usemtl M_0128_White
f 32/38/2 20/23/2 21/22/2

usemtl _Color_000_1
vt -86.6142 1.9685
f 35/51/9 19/25/9 20/26/9

vt -86.6142 1.36424e-012
f 19/25/9 35/51/9 30/52/9

f 20/26/10 19/25/10 35/51/10

f 30/52/10 35/51/10 19/25/10

usemtl M_0128_White
f 36/33/2 35/37/2 32/38/2

usemtl _Color_000_1
f 32/38/1 36/33/1 33/32/1

usemtl M_0128_White
f 33/32/2 36/33/2 32/38/2

usemtl _Color_000_1
f 33/32/1 36/33/1 25/43/1

usemtl M_0128_White
f 25/43/2 36/33/2 33/32/2

usemtl _Color_000_1
f 25/43/1 36/33/1 22/27/1

usemtl M_0128_White
f 22/27/2 36/33/2 25/43/2

usemtl _Color_000_1
v 28.0154 6.09075 -23.6827
vt 45.2756 55.1181
f 22/27/1 36/33/1 37/53/1

usemtl M_0128_White
f 37/53/2 36/33/2 22/27/2

usemtl _Color_000_1
vt 86.6142 1.36424e-012
vt 86.6142 1.9685
f 37/22/10 26/54/10 36/55/10

v 27.9654 6.09075 -23.6833
f 26/54/10 37/22/10 38/23/10

f 38/23/9 37/22/9 26/54/9

vt -1.9685 55.1181
vt -5.24223e-030 53.1496
vt -5.24223e-030 55.1181
f 37/56/4 23/57/4 38/58/4

f 23/57/4 37/56/4 22/19/4

f 38/58/3 23/57/3 37/56/3

usemtl Color_000
f 17/15/1 23/27/1 38/53/1

f 17/15/1 18/22/1 23/27/1

usemtl _Color_000_1
f 17/15/2 18/22/2 10/10/2

f 23/27/2 18/22/2 17/15/2

f 38/53/2 23/27/2 17/15/2

usemtl Color_000
f 23/27/1 26/33/1 38/53/1

usemtl _Color_000_1
f 23/27/2 26/33/2 24/32/2

f 38/53/2 26/33/2 23/27/2

f 24/32/2 26/33/2 27/34/2

f 27/34/2 26/33/2 28/35/2

f 28/35/2 26/33/2 29/36/2

f 27/34/2 28/35/2 34/46/2

usemtl Color_000
f 17/15/1 38/53/1 7/7/1

usemtl _Color_000_1
f 7/7/2 38/53/2 17/15/2

usemtl Color_000
f 6/6/1 7/7/1 38/53/1

f 6/6/1 4/4/1 7/7/1

usemtl _Color_000_1
f 7/7/2 4/4/2 6/6/2

f 4/4/2 7/7/2 1/1/2

f 1/1/2 7/7/2 3/3/2

f 38/53/2 7/7/2 6/6/2

usemtl Color_000
v 27.9659 6.09075 -23.7333
vt 43.3071 55.1181
f 6/6/1 38/53/1 39/59/1

usemtl _Color_000_1
f 39/59/2 38/53/2 6/6/2

f 37/22/10 39/16/10 38/23/10

v 28.0159 6.09075 -23.7327
f 39/16/10 37/22/10 40/10/10

f 40/10/9 37/22/9 39/16/9

f 13/13/1 37/53/1 40/59/1

f 13/13/1 12/7/1 37/53/1

usemtl M_0128_White
f 37/53/2 12/7/2 13/13/2

usemtl _Color_000_1
v 28.0163 6.04075 -23.7597
vt 42.2441 53.1496
f 41/60/1 37/53/1 12/7/1

f 16/15/1 37/53/1 41/60/1

f 16/15/1 22/27/1 37/53/1

usemtl M_0128_White
f 37/53/2 22/27/2 16/15/2

usemtl _Color_000_1
f 22/19/3 37/56/3 23/57/3

usemtl M_0128_White
f 41/60/2 37/53/2 16/15/2

f 12/7/2 37/53/2 41/60/2

vt -43.3071 4.54747e-013
vt -42.2441 1.9685
f 17/61/9 12/20/9 41/62/9

vt -1.9685 4.54747e-013
f 12/20/9 17/61/9 7/63/9

usemtl _Color_000_1
f 7/63/10 17/61/10 12/20/10

f 41/62/10 12/20/10 17/61/10

usemtl Translucent_Glass_Blue
f 12/7/5 16/15/5 41/60/5

f 12/7/6 16/15/6 11/8/6

f 41/60/6 16/15/6 12/7/6

usemtl M_0128_White
vt -43.3071 1.9685
f 17/61/9 41/62/9 16/64/9

usemtl _Color_000_1
f 16/64/10 41/62/10 17/61/10

usemtl M_0128_White
f 40/59/2 37/53/2 13/13/2

usemtl _Color_000_1
vt 9.09495e-013 1.9685
f 13/65/10 39/16/10 40/10/10

f 39/16/10 13/65/10 6/9/10

f 6/9/9 13/65/9 39/16/9

f 13/56/4 5/5/4 6/6/4

f 5/5/4 13/56/4 9/9/4

f 6/6/3 5/5/3 13/56/3

f 9/9/3 13/56/3 5/5/3

f 9/9/4 13/56/4 14/40/4

f 14/40/3 13/56/3 9/9/3

f 40/10/9 39/16/9 13/65/9

f 38/23/9 39/16/9 37/22/9

f 10/10/2 18/22/2 9/9/2

f 10/10/2 9/9/2 8/8/2

f 36/55/9 26/54/9 37/22/9

f 25/31/10 22/26/10 24/29/10

usemtl Translucent_Glass_Blue
f 22/27/14 25/43/14 21/22/14

f 25/43/14 33/32/14 21/22/14

usemtl M_0128_White
vt -84.6457 1.9685
f 24/29/9 25/31/9 33/66/9

usemtl _Color_000_1
f 33/66/10 25/31/10 24/29/10

f 32/20/3 33/19/3 31/44/3

f 15/20/3 16/19/3 10/18/3

usemtl M_0128_White
f 15/10/2 14/14/2 11/8/2

usemtl _Color_000_1
f 3/3/2 5/5/2 2/2/2

g Mesh2 ventana2_1 DES008 Model

l 2 3

l 4 2

l 1 4

l 3 1

g Mesh3 ventana2_1 DES008 Model

l 11 15

l 11 8

l 12 11

l 12 7

l 41 12

l 16 41

l 16 17

l 16 15

l 15 10

l 8 10

l 7 8

l 17 7

l 17 10

g Mesh4 ventana2_1 DES008 Model

l 5 6

l 9 5

l 14 9

l 14 13

l 20 14

l 21 20

l 21 18

l 22 21

l 22 23

l 37 22

l 40 37

l 13 40

l 13 6

l 6 39

l 40 39

l 39 38

l 37 38

l 37 36

l 36 26

l 36 35

l 35 30

l 35 20

l 20 19

l 18 19

l 18 31

l 23 18

l 24 23

l 31 24

l 32 31

l 32 33

l 21 32

l 33 24

l 33 25

l 25 22

l 38 23

l 38 26

l 26 30

l 30 19

l 19 9

g Mesh5 ventana2_1 DES008 Model

l 29 28

l 34 29

l 27 34

l 28 27

g Mesh6 DES008 Model

usemtl _Color_D03_1
v 20.6147 3.79075 -25.4317
vt 116.367 9.19997e-013
v 20.6033 7.39075 -24.4218
vt 76.6031 141.732
v 20.6033 3.79075 -24.4218
vt 76.6031 1.05023e-014
f 42/67/2 43/68/2 44/69/2

v 20.6147 7.39075 -25.4317
vt 116.367 141.732
f 43/68/2 42/67/2 45/70/2

usemtl Color_D07
f 44/69/1 43/68/1 42/67/1

usemtl _Color_D03_1
vt 22.7109 141.732
v 20.0133 3.79075 -24.4284
vt -0.517448 2.69639e-012
vt 22.7109 -3.6698e-015
f 43/71/3 46/72/3 44/73/3

v 20.0133 7.39075 -24.4284
vt -0.517448 141.732
f 46/72/3 43/71/3 47/74/3

usemtl Color_D07
f 44/73/4 46/72/4 43/71/4

usemtl _Tile_Ceramic_Natural_15
vt -3.89606 21.66
vn -2.73494e-015 1 5.0614e-015
v 20.9244 3.79075 -23.6324
vt -3.24993 21.0954
vt -3.47765 21.6552
f 46/75/15 48/76/15 44/77/15

v 20.0044 3.79075 -23.6428
vt -3.90237 21.1028
f 48/76/15 46/75/15 49/78/15

usemtl _7
vt 6.53099 4.85634
vn 2.73494e-015 -1 -5.0614e-015
vt 6.53389 5.01771
vt 6.83133 4.85419
f 49/79/16 46/80/16 48/81/16

usemtl _Color_D03_1
vt 76.6031 2.69982e-012
v 20.0044 7.39075 -23.6428
vt 45.6708 141.732
vt 45.6708 2.81824e-014
f 46/82/2 50/83/2 49/84/2

f 50/83/2 46/82/2 47/68/2

usemtl Color_D07
f 49/84/1 50/83/1 46/82/1

vt 0.517448 141.732
vt -35.703 1.8168e-012
vt 0.517448 2.62338e-014
f 50/85/4 48/86/4 49/87/4

v 20.9244 7.39075 -23.6324
vt -35.703 141.732
f 48/86/4 50/85/4 51/88/4

f 49/87/3 48/86/3 50/85/3

f 51/88/3 50/85/3 48/86/3

usemtl _Color_D03_1
vn 0.999936 -6.57689e-014 0.0113292
v 20.9224 6.59075 -23.4624
vt 38.9779 110.236
vt 45.6708 4.16714e-012
f 51/83/17 52/89/17 48/90/17

v 20.9128 6.59075 -22.6125
vt 5.51329 110.236
f 51/83/17 53/91/17 52/89/17

v 20.9122 7.39075 -22.5625
vt 3.54479 141.732
f 54/92/17 53/91/17 51/83/17

v 20.9128 3.79075 -22.6125
vt 5.51329 2.34815e-012
f 54/92/17 55/93/17 53/91/17

v 20.9122 3.79075 -22.5625
vt 3.54479 2.34815e-012
f 55/93/17 54/92/17 56/94/17

usemtl Color_D07
vn -0.999936 6.57689e-014 -0.0113292
f 56/94/18 54/92/18 55/93/18

usemtl _Color_D03_1
v 27.9518 3.79075 -22.4827
vt -312.868 7.38795e-013
vt -35.703 -1.69819e-016
f 54/88/4 57/95/4 56/96/4

v 27.9518 7.39075 -22.4827
vt -312.868 141.732
f 57/95/4 54/88/4 58/97/4

usemtl Color_D07
f 56/96/3 57/95/3 54/88/3

usemtl _Tile_Ceramic_Natural_15
vt 1.73406 20.28
vt -3.25813 20.372
vt -3.25853 20.3366
f 57/98/15 55/99/15 56/100/15

v 20.9224 3.79075 -23.4624
vt -3.2513 20.9748
f 55/99/15 57/98/15 59/101/15

usemtl _7
vt 6.82737 4.63443
vt 6.82755 4.6447
vt 9.12562 4.61804
f 56/102/16 55/103/16 57/104/16

vt 6.8307 4.81928
f 59/105/16 57/104/16 55/103/16

usemtl _Tile_Ceramic_Natural_15
f 59/101/15 57/98/15 48/76/15

usemtl _7
f 48/81/16 57/104/16 59/105/16

usemtl _Tile_Ceramic_Natural_15
v 27.7319 3.79075 -25.141
vt 1.5781 22.1654
f 48/76/15 57/98/15 60/106/15

usemtl _7
vt 9.05383 5.16408
f 60/107/16 57/104/16 48/81/16

usemtl _Tile_Ceramic_Natural_15
v 27.9535 3.79075 -22.6334
vt 1.73527 20.3869
f 60/106/15 57/98/15 61/108/15

usemtl _7
vt 9.12618 4.64899
f 61/109/16 57/104/16 60/107/16

usemtl _Color_D03_1
v 27.9535 6.09075 -22.6334
vt -9.4771 90.5512
vt -9.4771 2.70264e-012
vt -3.54479 8.83646e-013
f 62/110/1 61/111/1 57/112/1

v 27.9535 4.69075 -22.6334
vt -9.4771 35.4331
f 61/111/1 62/110/1 63/113/1

usemtl Color_D07
f 57/112/2 61/111/2 62/110/2

f 63/113/2 62/110/2 61/111/2

usemtl _Color_D03_1
v 27.9784 4.69075 -24.8332
vt -96.0913 35.4331
f 61/111/1 63/113/1 64/114/1

usemtl Color_D07
f 64/114/2 63/113/2 61/111/2

usemtl _Color_D03_1
v 27.9784 3.79075 -24.8332
vt -96.0913 2.70264e-012
f 61/111/1 64/114/1 65/115/1

usemtl Color_D07
f 65/115/2 64/114/2 61/111/2

usemtl _Color_D03_1
v 27.9784 6.09075 -24.8332
vt -96.0913 90.5512
f 65/115/1 64/114/1 66/116/1

usemtl Color_D07
f 66/116/2 64/114/2 65/115/2

usemtl _Color_D03_1
v 27.9819 3.79075 -25.1382
vt -108.099 2.70264e-012
f 65/115/1 66/116/1 67/117/1

usemtl Color_D07
f 67/117/2 66/116/2 65/115/2

usemtl _Color_D03_1
v 27.9819 7.39075 -25.1382
vt -108.099 141.732
f 67/117/1 66/116/1 68/118/1

usemtl Color_D07
f 68/118/2 66/116/2 67/117/2

usemtl _Color_D03_1
f 62/110/1 68/118/1 66/116/1

vt -3.54479 141.732
f 62/110/1 58/119/1 68/118/1

f 58/119/1 62/110/1 57/112/1

usemtl Color_D07
f 57/112/2 62/110/2 58/119/2

f 68/118/2 58/119/2 62/110/2

f 66/116/2 68/118/2 62/110/2

f 58/97/3 54/88/3 57/95/3

usemtl _Color_D03_1
v 27.7319 7.39075 -25.141
vt 303.026 141.732
vt 312.868 2.55278e-012
vt 312.868 141.732
f 69/120/3 67/121/3 68/122/3

vt 303.026 1.35906e-012
f 67/121/3 69/120/3 60/123/3

usemtl Color_D07
f 60/123/4 69/120/4 67/121/4

usemtl _Color_D03_1
v 27.7343 7.39075 -25.351
vt -116.367 141.732
vt -108.099 1.50437e-012
f 70/124/1 60/125/1 69/118/1

v 27.7343 3.79075 -25.351
vt -116.367 1.10647e-012
f 60/125/1 70/124/1 71/126/1

usemtl Color_D07
f 69/118/2 60/125/2 70/124/2

f 71/126/2 70/124/2 60/125/2

usemtl _Color_D03_1
vt 303.026 9.60763e-013
f 45/71/3 71/127/3 70/120/3

vt 22.7109 9.0392e-013
f 71/127/3 45/71/3 42/128/3

usemtl Color_D07
f 42/128/4 45/71/4 71/127/4

f 45/70/1 42/67/1 43/68/1

f 70/120/4 71/127/4 45/71/4

usemtl _Tile_Ceramic_Natural_15
vt -3.46953 22.3715
vt 1.57979 22.3143
f 42/129/15 48/76/15 71/130/15

f 44/77/15 48/76/15 42/129/15

usemtl _7
vt 6.7265 5.01633
f 44/131/16 48/81/16 46/80/16

vt 6.73024 5.22378
f 42/132/16 48/81/16 44/131/16

vt 9.05461 5.20721
f 71/133/16 48/81/16 42/132/16

usemtl _Tile_Ceramic_Natural_15
f 71/130/15 48/76/15 60/106/15

usemtl _7
f 60/107/16 48/81/16 71/133/16

usemtl Color_D07
f 68/122/4 67/121/4 69/120/4

usemtl _Tile_Ceramic_Natural_15
vt 1.7554 22.1633
f 60/106/15 61/108/15 67/134/15

usemtl _7
vt 9.13544 5.1635
f 67/135/16 61/109/16 60/107/16

usemtl _Tile_Ceramic_Natural_15
vt 1.75295 21.947
f 67/134/15 61/108/15 65/136/15

usemtl _7
vt 9.13432 5.10085
f 65/137/16 61/109/16 67/135/16

usemtl _Color_D03_1
vt 38.9779 4.16714e-012
f 48/90/17 52/89/17 59/138/17

usemtl Color_D07
f 59/138/18 52/89/18 48/90/18

f 48/90/18 52/89/18 51/83/18

f 52/89/18 53/91/18 51/83/18

f 51/83/18 53/91/18 54/92/18

f 53/91/18 55/93/18 54/92/18

f 47/68/1 46/82/1 50/83/1

f 47/74/4 43/71/4 46/72/4

g Mesh7 DES008 Model

l 42 44

l 42 45

l 71 42

l 71 60

l 71 70

l 70 69

l 70 45

l 45 43

l 44 43

l 44 46

l 46 47

l 46 49

l 48 49

l 48 51

l 48 59

l 59 52

l 55 59

l 55 56

l 55 53

l 53 52

l 57 56

l 57 58

l 61 57

l 65 61

l 67 65

l 67 60

l 67 68

l 68 69

l 68 58

l 58 54

l 56 54

l 51 54

l 51 50

l 49 50

l 47 50

l 43 47

l 60 69

g Mesh8 DES008 Model

l 66 62

l 64 66

l 64 63

l 63 62

g Mesh9 Model

v 21.5154 10.5 62.8597
v 21.5454 10.5 62.7436
l 72 73

g Mesh10 Model

v -222.959 3.3 -279.837
v -222.959 3.33 -279.837
l 74 75

g Mesh11 Model

v 35.416 5.65 -204.781
v 33.9777 5.65 -205.153
l 76 77

