# Alias OBJ Model File
# Exported from SketchUp, (c) 2000-2012 Trimble Navigation Limited
# File units = meters

mtllib DES023.mtl

g Mesh1 ventana2_1 DES023 Model

usemtl Color_000
v 3.54013 5.36236 -22.475
vt 1.37598 26.4413
vn -0.999936 4.62436e-016 -0.0113292
v 3.54036 5.24336 -22.496
vt 0.549204 21.7563
v 3.54013 5.24336 -22.475
vt 1.37598 21.7563
f 1/1/1 2/2/1 3/3/1

v 3.54036 5.36236 -22.496
vt 0.549204 26.4413
f 2/2/1 1/1/1 4/4/1

usemtl _Color_000_1
vn 0.999936 -4.62436e-016 0.0113292
f 3/3/2 2/2/2 1/1/2

usemtl Color_000
v 3.54052 5.24075 -22.5099
vt 0 21.6535
f 2/2/1 5/5/1 3/3/1

v 3.54052 6.09075 -22.5099
vt 0 55.1181
f 5/5/1 2/2/1 6/6/1

usemtl _Color_000_1
f 6/6/2 2/2/2 5/5/2

usemtl Color_000
f 6/6/1 2/2/1 4/4/1

usemtl _Color_000_1
f 4/4/2 2/2/2 6/6/2

f 4/4/2 1/1/2 2/2/2

usemtl Color_000
v 3.53995 6.04075 -22.46
vt 1.9685 53.1496
f 1/1/1 7/7/1 4/4/1

f 3/3/1 7/7/1 1/1/1

v 3.53995 4.74075 -22.46
vt 1.9685 1.9685
f 3/3/1 8/8/1 7/7/1

f 5/5/1 8/8/1 3/3/1

v 3.54052 4.69075 -22.5099
vt 0 0
f 9/9/1 8/8/1 5/5/1

v 3.52806 4.74075 -21.41
vt 43.3071 1.9685
f 8/8/1 9/9/1 10/10/1

usemtl _Color_000_1
f 5/5/2 8/8/2 9/9/2

f 3/3/2 8/8/2 5/5/2

f 7/7/2 8/8/2 3/3/2

usemtl M_0128_White
v 3.58995 4.74075 -22.4594
vn -0.0113292 -4.79067e-017 0.999936
vt 4.54747e-013 53.1496
vt 4.54747e-013 1.9685
f 11/8/3 7/11/3 8/12/3

v 3.58995 6.04075 -22.4594
f 7/11/3 11/8/3 12/7/3

usemtl _Color_000_1
vn 0.0113292 4.79067e-017 -0.999936
f 8/12/4 7/11/4 11/8/4

f 12/7/4 11/8/4 7/11/4

v 3.59052 6.09075 -22.5094
vt 9.09495e-013 55.1181
f 13/13/1 11/8/1 12/7/1

v 3.59052 4.69075 -22.5094
vt 9.09495e-013 0
f 14/14/1 11/8/1 13/13/1

v 3.57806 4.74075 -21.4095
f 11/8/1 14/14/1 15/10/1

usemtl M_0128_White
f 13/13/2 11/8/2 14/14/2

f 12/7/2 11/8/2 13/13/2

usemtl Translucent_Glass_Blue
vn -0.999936 4.01265e-015 -0.0113292
v 3.57806 6.04075 -21.4095
vt 43.3071 53.1496
f 11/8/5 16/15/5 12/7/5

f 16/15/5 11/8/5 15/10/5

vn 0.999936 -4.01265e-015 0.0113292
f 15/10/6 11/8/6 16/15/6

usemtl M_0128_White
vn 4.60342e-016 1 1.87418e-016
vt 43.3071 4.54747e-013
f 11/8/7 10/16/7 15/10/7

vt 1.9685 4.54747e-013
f 10/16/7 11/8/7 8/17/7

usemtl _Color_000_1
vn -4.60342e-016 -1 -1.87418e-016
f 8/17/8 11/8/8 10/16/8

f 15/10/8 10/16/8 11/8/8

usemtl M_0128_White
vt -4.54747e-013 1.9685
vt -1.9685 53.1496
vt -1.9685 1.9685
f 10/18/4 16/19/4 15/20/4

v 3.52806 6.04075 -21.41
vt -4.54747e-013 53.1496
f 16/19/4 10/18/4 17/21/4

usemtl _Color_000_1
f 17/21/3 10/18/3 16/19/3

usemtl Color_000
v 3.52749 4.74075 -21.36
vt 45.2756 1.9685
f 10/10/1 18/22/1 17/15/1

f 9/9/1 18/22/1 10/10/1

v 3.52749 4.69075 -21.36
vt 45.2756 0
f 18/22/1 9/9/1 19/23/1

usemtl _Color_000_1
f 19/23/2 9/9/2 18/22/2

vt -9.09495e-013 1.9685
vn -4.61863e-016 -1 -5.31427e-017
vt -45.2756 4.54747e-013
f 14/24/9 19/25/9 9/9/9

v 3.57749 4.69075 -21.3595
vt -45.2756 1.9685
f 19/25/9 14/24/9 20/26/9

vn 4.61863e-016 1 5.31427e-017
f 9/9/10 19/25/10 14/24/10

f 20/26/10 14/24/10 19/25/10

v 3.57749 4.74075 -21.3595
f 21/22/1 14/14/1 20/23/1

f 14/14/1 21/22/1 15/10/1

usemtl M_0128_White
f 20/23/2 14/14/2 21/22/2

f 15/10/2 21/22/2 14/14/2

usemtl _Color_000_1
f 15/10/1 21/22/1 16/15/1

usemtl M_0128_White
f 16/15/2 21/22/2 15/10/2

usemtl _Color_000_1
v 3.57749 6.04075 -21.3595
vt 45.2756 53.1496
f 16/15/1 21/22/1 22/27/1

usemtl M_0128_White
f 22/27/2 21/22/2 16/15/2

f 22/7/3 18/12/3 21/8/3

v 3.52749 6.04075 -21.36
vt 5.24223e-030 53.1496
f 18/12/3 22/7/3 23/28/3

usemtl _Color_000_1
f 23/28/4 22/7/4 18/12/4

usemtl M_0128_White
v 3.51616 6.04075 -20.3601
vt -84.6457 0
vt -45.2756 0
f 22/26/9 24/29/9 23/30/9

v 3.56751 6.04075 -20.4785
vt -79.9606 1.9685
f 24/29/9 22/26/9 25/31/9

usemtl _Color_000_1
f 23/30/10 24/29/10 22/26/10

usemtl Color_000
vt 84.6457 53.1496
v 3.5156 6.09075 -20.3101
vt 86.6142 55.1181
f 24/32/1 26/33/1 23/27/1

v 3.51601 5.36236 -20.3461
vt 85.1949 26.4413
f 27/34/1 26/33/1 24/32/1

v 3.51577 5.36236 -20.3251
vt 86.0216 26.4413
f 28/35/1 26/33/1 27/34/1

v 3.51577 5.24336 -20.3251
vt 86.0216 21.7563
f 29/36/1 26/33/1 28/35/1

v 3.5156 4.69075 -20.3101
vt 86.6142 0
f 29/36/1 30/37/1 26/33/1

v 3.51616 4.74075 -20.3601
vt 84.6457 1.9685
f 31/38/1 30/37/1 29/36/1

f 30/37/1 31/38/1 19/23/1

usemtl _Color_000_1
f 19/23/2 31/38/2 30/37/2

usemtl Color_000
f 18/22/1 19/23/1 31/38/1

usemtl _Color_000_1
vt -4.54747e-013 0
f 21/20/4 19/39/4 18/18/4

vt -1.9685 0
f 19/39/4 21/20/4 20/40/4

f 18/18/3 19/39/3 21/20/3

f 31/38/2 19/23/2 18/22/2

usemtl M_0128_White
vt 84.6457 1.94109e-031
vn 4.62822e-016 1 -3.14509e-017
vt 45.2756 4.54747e-013
f 31/41/11 21/22/11 18/42/11

v 3.56616 4.74075 -20.3595
f 21/22/11 31/41/11 32/38/11

usemtl _Color_000_1
vn -4.62822e-016 -1 3.14509e-017
f 18/42/12 21/22/12 31/41/12

f 21/8/4 18/12/4 22/7/4

usemtl Translucent_Glass_Blue
vn -0.999936 9.66885e-015 -0.0113292
vt 79.9606 53.1496
f 21/22/13 25/43/13 22/27/13

v 3.56616 6.04075 -20.3595
f 21/22/13 33/32/13 25/43/13

f 33/32/13 21/22/13 32/38/13

vn 0.999936 -9.66885e-015 0.0113292
f 32/38/14 21/22/14 33/32/14

usemtl _Color_000_1
f 32/38/12 31/41/12 21/22/12

usemtl M_0128_White
vt -9.80069e-030 1.9685
f 31/44/4 33/19/4 32/20/4

vt -9.80069e-030 53.1496
f 33/19/4 31/44/4 24/45/4

usemtl _Color_000_1
f 24/45/3 31/44/3 33/19/3

usemtl Color_000
v 3.51601 5.24336 -20.3461
vt 85.1949 21.7563
f 31/38/1 34/46/1 24/32/1

f 34/46/1 31/38/1 29/36/1

usemtl _Color_000_1
f 24/32/2 34/46/2 31/38/2

usemtl Color_000
f 24/32/1 34/46/1 27/34/1

usemtl _Color_000_1
f 27/34/2 34/46/2 24/32/2

usemtl Color_000
f 34/46/1 28/35/1 27/34/1

f 28/35/1 34/46/1 29/36/1

usemtl _Color_000_1
f 29/36/2 34/46/2 28/35/2

f 29/36/2 31/38/2 34/46/2

f 29/36/2 30/37/2 31/38/2

f 26/33/2 30/37/2 29/36/2

v 3.56559 4.69075 -20.3095
vt 1.9685 0
vt 1.36424e-012 55.1181
vt 1.36424e-012 0
f 35/47/3 26/48/3 30/49/3

v 3.56559 6.09075 -20.3095
vt 1.9685 55.1181
f 26/48/3 35/47/3 36/50/3

f 30/49/4 26/48/4 35/47/4

f 36/50/4 35/47/4 26/48/4

f 32/38/1 35/37/1 36/33/1

f 35/37/1 32/38/1 20/23/1

usemtl M_0128_White
f 20/23/2 32/38/2 35/37/2

usemtl _Color_000_1
f 21/22/1 20/23/1 32/38/1

f 20/40/3 21/20/3 19/39/3

usemtl M_0128_White
f 32/38/2 20/23/2 21/22/2

usemtl _Color_000_1
vt -86.6142 1.9685
f 35/51/9 19/25/9 20/26/9

vt -86.6142 1.36424e-012
f 19/25/9 35/51/9 30/52/9

f 20/26/10 19/25/10 35/51/10

f 30/52/10 35/51/10 19/25/10

usemtl M_0128_White
f 36/33/2 35/37/2 32/38/2

usemtl _Color_000_1
f 32/38/1 36/33/1 33/32/1

usemtl M_0128_White
f 33/32/2 36/33/2 32/38/2

usemtl _Color_000_1
f 33/32/1 36/33/1 25/43/1

usemtl M_0128_White
f 25/43/2 36/33/2 33/32/2

usemtl _Color_000_1
f 25/43/1 36/33/1 22/27/1

usemtl M_0128_White
f 22/27/2 36/33/2 25/43/2

usemtl _Color_000_1
v 3.57749 6.09075 -21.3595
vt 45.2756 55.1181
f 22/27/1 36/33/1 37/53/1

usemtl M_0128_White
f 37/53/2 36/33/2 22/27/2

usemtl _Color_000_1
vt 86.6142 1.36424e-012
vt 86.6142 1.9685
f 37/22/10 26/54/10 36/55/10

v 3.52749 6.09075 -21.36
f 26/54/10 37/22/10 38/23/10

f 38/23/9 37/22/9 26/54/9

vt -1.9685 55.1181
vt -5.24223e-030 53.1496
vt -5.24223e-030 55.1181
f 37/56/4 23/57/4 38/58/4

f 23/57/4 37/56/4 22/19/4

f 38/58/3 23/57/3 37/56/3

usemtl Color_000
f 17/15/1 23/27/1 38/53/1

f 17/15/1 18/22/1 23/27/1

usemtl _Color_000_1
f 17/15/2 18/22/2 10/10/2

f 23/27/2 18/22/2 17/15/2

f 38/53/2 23/27/2 17/15/2

usemtl Color_000
f 23/27/1 26/33/1 38/53/1

usemtl _Color_000_1
f 23/27/2 26/33/2 24/32/2

f 38/53/2 26/33/2 23/27/2

f 24/32/2 26/33/2 27/34/2

f 27/34/2 26/33/2 28/35/2

f 28/35/2 26/33/2 29/36/2

f 27/34/2 28/35/2 34/46/2

usemtl Color_000
f 17/15/1 38/53/1 7/7/1

usemtl _Color_000_1
f 7/7/2 38/53/2 17/15/2

usemtl Color_000
f 6/6/1 7/7/1 38/53/1

f 6/6/1 4/4/1 7/7/1

usemtl _Color_000_1
f 7/7/2 4/4/2 6/6/2

f 4/4/2 7/7/2 1/1/2

f 1/1/2 7/7/2 3/3/2

f 38/53/2 7/7/2 6/6/2

usemtl Color_000
v 3.52806 6.09075 -21.41
vt 43.3071 55.1181
f 6/6/1 38/53/1 39/59/1

usemtl _Color_000_1
f 39/59/2 38/53/2 6/6/2

f 37/22/10 39/16/10 38/23/10

v 3.57806 6.09075 -21.4095
f 39/16/10 37/22/10 40/10/10

f 40/10/9 37/22/9 39/16/9

f 13/13/1 37/53/1 40/59/1

f 13/13/1 12/7/1 37/53/1

usemtl M_0128_White
f 37/53/2 12/7/2 13/13/2

usemtl _Color_000_1
v 3.57836 6.04075 -21.4364
vt 42.2441 53.1496
f 41/60/1 37/53/1 12/7/1

f 16/15/1 37/53/1 41/60/1

f 16/15/1 22/27/1 37/53/1

usemtl M_0128_White
f 37/53/2 22/27/2 16/15/2

usemtl _Color_000_1
f 22/19/3 37/56/3 23/57/3

usemtl M_0128_White
f 41/60/2 37/53/2 16/15/2

f 12/7/2 37/53/2 41/60/2

vt -43.3071 4.54747e-013
vt -42.2441 1.9685
f 17/61/9 12/20/9 41/62/9

vt -1.9685 4.54747e-013
f 12/20/9 17/61/9 7/63/9

usemtl _Color_000_1
f 7/63/10 17/61/10 12/20/10

f 41/62/10 12/20/10 17/61/10

usemtl Translucent_Glass_Blue
f 12/7/5 16/15/5 41/60/5

f 12/7/6 16/15/6 11/8/6

f 41/60/6 16/15/6 12/7/6

usemtl M_0128_White
vt -43.3071 1.9685
f 17/61/9 41/62/9 16/64/9

usemtl _Color_000_1
f 16/64/10 41/62/10 17/61/10

usemtl M_0128_White
f 40/59/2 37/53/2 13/13/2

usemtl _Color_000_1
vt 9.09495e-013 1.9685
f 13/65/10 39/16/10 40/10/10

f 39/16/10 13/65/10 6/9/10

f 6/9/9 13/65/9 39/16/9

f 13/56/4 5/5/4 6/6/4

f 5/5/4 13/56/4 9/9/4

f 6/6/3 5/5/3 13/56/3

f 9/9/3 13/56/3 5/5/3

f 9/9/4 13/56/4 14/40/4

f 14/40/3 13/56/3 9/9/3

f 40/10/9 39/16/9 13/65/9

f 38/23/9 39/16/9 37/22/9

f 10/10/2 18/22/2 9/9/2

f 10/10/2 9/9/2 8/8/2

f 36/55/9 26/54/9 37/22/9

f 25/31/10 22/26/10 24/29/10

usemtl Translucent_Glass_Blue
f 22/27/14 25/43/14 21/22/14

f 25/43/14 33/32/14 21/22/14

usemtl M_0128_White
vt -84.6457 1.9685
f 24/29/9 25/31/9 33/66/9

usemtl _Color_000_1
f 33/66/10 25/31/10 24/29/10

f 32/20/3 33/19/3 31/44/3

f 15/20/3 16/19/3 10/18/3

usemtl M_0128_White
f 15/10/2 14/14/2 11/8/2

usemtl _Color_000_1
f 3/3/2 5/5/2 2/2/2

g Mesh2 ventana2_1 DES023 Model

l 2 3

l 4 2

l 1 4

l 3 1

g Mesh3 ventana2_1 DES023 Model

l 11 15

l 11 8

l 12 11

l 12 7

l 41 12

l 16 41

l 16 17

l 16 15

l 15 10

l 8 10

l 7 8

l 17 7

l 17 10

g Mesh4 ventana2_1 DES023 Model

l 5 6

l 9 5

l 14 9

l 14 13

l 20 14

l 21 20

l 21 18

l 22 21

l 22 23

l 37 22

l 40 37

l 13 40

l 13 6

l 6 39

l 40 39

l 39 38

l 37 38

l 37 36

l 36 26

l 36 35

l 35 30

l 35 20

l 20 19

l 18 19

l 18 31

l 23 18

l 24 23

l 31 24

l 32 31

l 32 33

l 21 32

l 33 24

l 33 25

l 25 22

l 38 23

l 38 26

l 26 30

l 30 19

l 19 9

g Mesh5 ventana2_1 DES023 Model

l 29 28

l 34 29

l 27 34

l 28 27

g Mesh6 DES023 Model

usemtl _Color_D03_1
v 11.5396 7.39075 -21.4986
vt 315.065 141.732
v 10.6096 3.79075 -21.5091
vt 278.451 1.84378e-012
v 11.5396 3.79075 -21.4986
vt 315.065 2.23739e-013
f 42/67/3 43/68/3 44/69/3

v 10.6096 7.39075 -21.5091
vt 278.451 141.732
f 43/68/3 42/67/3 45/70/3

usemtl Color_D07
f 44/69/4 43/68/4 42/67/4

usemtl _Tile_Ceramic_Natural_15
vt -10.5653 19.5895
vn 4.58494e-015 1 -2.7154e-015
v 11.2581 3.79075 -19.737
vt -10.1054 18.3327
vt -9.9058 19.582
f 43/71/15 46/72/15 44/73/15

v 11.2489 3.79075 -19.6724
vt -10.112 18.2869
f 46/72/15 43/71/15 47/74/15

usemtl _7
vt 3.76741 4.4159
vn -4.58494e-015 -1 2.7154e-015
vt 3.67552 4.05407
vt 3.46381 4.41806
f 44/75/16 46/76/16 43/77/16

usemtl _Tile_Ceramic_Natural_15
v 11.2838 3.79075 -19.797
vt -10.0872 18.3753
f 44/73/15 46/72/15 48/78/15

usemtl _7
vt 3.6839 4.0664
f 48/79/16 46/76/16 44/75/16

usemtl _Color_C03_4
vt -122.535 1.24449e-013
vn -0.962932 4.59221e-016 -0.269746
v 11.2838 7.39075 -19.797
vt -125.105 141.732
vn -0.860305 4.24824e-016 -0.509779
vt -125.105 1.24449e-013
f 46/80/17 49/81/18 48/82/18

v 11.2581 7.39075 -19.737
vt -122.535 141.732
f 49/81/18 46/80/17 50/83/17

usemtl Color_D07
vn 0.962932 -4.59221e-016 0.269746
vn 0.860305 -4.24824e-016 0.509779
f 50/83/19 46/80/19 49/81/20

usemtl _Color_C03_4
vt -46.1169 1.40038e-013
v 11.2489 7.39075 -19.6724
vt -43.5475 141.732
vt -46.1169 141.732
f 46/84/17 51/85/1 50/86/17

vt -43.5475 1.40038e-013
f 51/85/1 46/84/17 47/87/1

usemtl Color_D07
f 47/87/2 46/84/19 51/85/2

usemtl _7
vt 3.6725 4.0408
f 47/88/16 43/77/16 46/76/16

usemtl _Tile_Ceramic_Natural_15
v 11.2501 3.79075 -19.6624
vt -10.1111 18.2798
f 43/71/15 52/89/15 47/74/15

v 3.86218 3.79075 -20.0061
vt -15.3508 18.5236
f 53/90/15 52/89/15 43/71/15

v 3.85923 3.79075 -19.7462
vt -15.3529 18.3392
f 52/89/15 53/90/15 54/91/15

usemtl _7
vt 1.25995 4.05595
vt 1.26091 4.10935
vt 3.67289 4.03875
f 54/92/16 53/93/16 52/94/16

usemtl _Color_D03_1
vt 13.686 2.81999e-012
v 3.85923 7.39075 -19.7462
vt 3.44983 141.732
vt 3.44983 1.001e-012
f 53/95/2 55/96/2 54/97/2

v 3.86218 7.39075 -20.0061
vt 13.686 141.732
f 55/96/2 53/95/2 56/98/2

usemtl Color_D07
f 54/97/1 55/96/1 53/95/1

usemtl _Color_D03_1
v 11.2501 7.39075 -19.6624
vt -304.487 141.732
vt -13.4906 9.94595e-013
vt -13.4906 141.732
f 57/99/4 54/100/4 55/101/4

vt -304.487 -1.6527e-016
f 54/100/4 57/99/4 52/102/4

usemtl Color_D07
f 52/102/3 57/99/3 54/100/3

usemtl _Color_C03_4
vt 36.3233 141.732
vn -0.99286 4.52226e-016 0.119286
vt 35.9262 1.36723e-013
vt 36.3233 1.36723e-013
f 57/103/21 47/104/1 52/105/21

vt 35.9262 141.732
f 47/104/1 57/103/21 51/106/1

usemtl Color_D07
vn 0.99286 -4.52226e-016 -0.119286
f 52/105/22 47/104/2 57/103/22

usemtl _7
f 47/88/16 52/94/16 43/77/16

f 43/77/16 52/94/16 53/93/16

usemtl _Tile_Ceramic_Natural_15
v 10.6116 3.79075 -21.6791
vt -10.564 19.7101
f 58/107/15 53/90/15 43/71/15

v 10.6212 3.79075 -22.529
vt -10.5571 20.3129
f 59/108/15 53/90/15 58/107/15

v 10.6218 3.79075 -22.579
vt -10.5567 20.3483
f 60/109/15 53/90/15 59/108/15

v 3.59221 3.79075 -22.6587
vt -15.5422 20.4048
f 61/110/15 53/90/15 60/109/15

v 3.59052 3.79075 -22.5094
vt -15.5434 20.2989
f 62/111/15 53/90/15 61/110/15

v 3.56559 3.79075 -20.3095
vt -15.5611 18.7387
f 63/112/15 53/90/15 62/111/15

v 3.56219 3.79075 -20.0095
vt -15.5635 18.526
f 53/90/15 63/112/15 64/113/15

usemtl _7
vt 1.16298 4.11005
vt 1.16409 4.17166
f 64/114/16 63/115/16 53/93/16

usemtl _Color_D03_1
vt 25.4971 1.56397e-012
v 3.56219 7.39075 -20.0095
vt 13.686 2.81453e-012
f 63/116/2 65/98/2 64/117/2

v 3.56559 4.69075 -20.3095
vt 25.4971 35.4331
f 65/98/2 63/116/2 66/118/2

usemtl Color_D07
f 64/117/1 65/98/1 63/116/1

usemtl _Color_D03_1
vt -1.67962 141.732
vt -13.4906 2.81309e-012
vt -1.67962 2.81309e-012
f 65/119/4 53/120/4 64/121/4

f 53/120/4 65/119/4 56/101/4

usemtl Color_D07
f 64/121/3 53/120/3 65/119/3

f 56/101/3 65/119/3 53/120/3

f 56/98/1 53/95/1 55/96/1

f 66/118/1 63/116/1 65/98/1

usemtl _Color_D03_1
vt 112.111 1.27975e-012
f 62/122/2 66/118/2 63/116/2

v 3.59052 4.69075 -22.5094
vt 112.111 35.4331
f 66/118/2 62/122/2 67/123/2

usemtl Color_D07
f 63/116/1 66/118/1 62/122/1

f 67/123/1 62/122/1 66/118/1

usemtl _Color_D03_1
vt 117.99 1.16607e-012
f 67/123/2 62/122/2 61/124/2

usemtl Color_D07
f 61/124/1 62/122/1 67/123/1

usemtl _7
vt 1.17277 4.65419
vt 1.17222 4.62352
f 61/125/16 53/93/16 62/126/16

vt 3.46776 4.63783
f 60/127/16 53/93/16 61/125/16

vt 3.46758 4.62756
f 59/128/16 53/93/16 60/127/16

vt 3.46443 4.45298
f 58/129/16 53/93/16 59/128/16

f 43/77/16 53/93/16 58/129/16

usemtl _Color_D03_1
vt -75.864 141.732
vn -0.999936 -1.92824e-014 -0.0113292
vt -82.5575 -4.31762e-012
vt -75.864 -3.52181e-012
f 45/130/23 58/131/23 43/132/23

v 10.6116 6.59075 -21.6791
vt -82.5575 110.236
f 58/131/23 45/130/23 68/133/23

usemtl Color_D07
vn 0.999936 1.92824e-014 0.0113292
f 43/132/24 58/131/24 45/130/24

f 68/133/24 45/130/24 58/131/24

usemtl _Color_D03_1
v 10.6218 7.39075 -22.579
vt -117.99 141.732
f 68/133/23 45/130/23 69/134/23

usemtl Color_D07
f 69/134/24 45/130/24 68/133/24

usemtl _Color_D03_1
v 10.6212 6.59075 -22.5291
vt -116.022 110.236
f 68/133/23 69/134/23 70/135/23

usemtl Color_D07
f 70/135/24 69/134/24 68/133/24

usemtl _Color_D03_1
vt -117.99 -5.3408e-012
f 60/136/23 70/135/23 69/134/23

vt -116.021 -5.3408e-012
f 70/135/23 60/136/23 59/137/23

usemtl Color_D07
f 59/137/24 60/136/24 70/135/24

f 69/134/24 70/135/24 60/136/24

usemtl _Color_D03_1
vt 1.67962 1.15964e-012
vt 278.451 2.27692e-014
f 69/70/3 61/138/3 60/139/3

v 3.59221 7.39075 -22.6587
vt 1.67962 141.732
f 61/138/3 69/70/3 71/140/3

usemtl Color_D07
f 60/139/4 61/138/4 69/70/4

f 71/140/4 69/70/4 61/138/4

usemtl _Color_D03_1
vt 117.99 141.732
v 3.59052 6.09075 -22.5094
vt 112.111 90.5512
f 71/141/2 72/142/2 61/124/2

v 3.56559 6.09075 -20.3095
vt 25.4971 90.5512
f 71/141/2 73/143/2 72/142/2

f 65/98/2 73/143/2 71/141/2

f 65/98/2 66/118/2 73/143/2

usemtl Color_D07
f 73/143/1 66/118/1 65/98/1

f 71/141/1 73/143/1 65/98/1

f 72/142/1 73/143/1 71/141/1

f 61/124/1 72/142/1 71/141/1

usemtl _Color_D03_1
f 67/123/2 61/124/2 72/142/2

usemtl Color_D07
f 72/142/1 61/124/1 67/123/1

f 45/70/4 42/67/4 43/68/4

usemtl _7
f 62/126/16 53/93/16 63/115/16

usemtl Color_D07
f 51/106/2 57/103/22 47/104/2

f 55/101/3 54/100/3 57/99/3

f 50/86/19 51/85/2 46/84/19

f 48/82/20 49/81/20 46/80/19

usemtl _Color_C03_4
v 11.3241 7.39075 -19.8484
vt -195.654 141.732
vn -0.69905 3.61302e-016 -0.715072
vt -193.085 9.40704e-014
vt -193.085 141.732
f 74/144/25 48/145/18 49/146/18

v 11.3241 3.79075 -19.8484
vt -195.654 9.40704e-014
f 48/145/18 74/144/25 75/147/25

usemtl Color_D07
vn 0.69905 -3.61302e-016 0.715072
f 49/146/20 48/145/20 74/144/26

f 75/147/26 74/144/26 48/145/20

usemtl _Color_C03_4
vt -250.389 141.732
v 11.3763 3.79075 -19.8875
vt -252.958 9.09757e-013
vn -0.490157 2.72895e-016 -0.871634
vt -250.389 5.71053e-014
f 74/148/25 76/149/27 75/150/25

v 11.3763 7.39075 -19.8875
vt -252.958 141.732
f 76/149/27 74/148/25 77/151/27

usemtl Color_D07
vn 0.490157 -2.72895e-016 0.871634
f 75/150/26 76/149/28 74/148/26

usemtl _Tile_Ceramic_Natural_15
vt -10.0586 18.4117
vt -10.0216 18.4394
f 44/73/15 75/152/15 76/153/15

f 44/73/15 48/78/15 75/152/15

usemtl _7
vt 3.69706 4.07694
f 75/154/16 48/79/16 44/75/16

vt 3.71411 4.08498
f 76/155/16 75/154/16 44/75/16

usemtl _Tile_Ceramic_Natural_15
v 11.4369 3.79075 -19.9118
vt -9.97863 18.4567
f 44/73/15 76/153/15 78/156/15

usemtl _7
vt 3.73388 4.08997
f 78/157/16 76/155/16 44/75/16

usemtl _Color_C03_4
vt -290.541 141.732
vt -293.111 8.76314e-013
vn -0.247859 1.65961e-016 -0.968796
vt -290.541 8.76314e-013
f 77/158/27 78/159/29 76/160/27

v 11.4369 7.39075 -19.9118
vt -293.111 141.732
f 78/159/29 77/158/27 79/161/29

usemtl Color_D07
vn 0.247859 -1.65961e-016 0.968796
f 76/160/28 78/159/30 77/158/28

f 79/161/30 77/158/28 78/159/30

usemtl _Color_C03_4
vt -310.806 141.732
v 11.5017 3.79075 -19.9196
vt -313.376 8.55612e-013
vt -310.806 8.55612e-013
f 79/162/29 80/163/4 78/164/29

v 11.5017 7.39075 -19.9196
vt -313.376 141.732
f 80/163/4 79/162/29 81/165/4

usemtl Color_D07
f 78/164/30 80/163/3 79/162/30

usemtl _Tile_Ceramic_Natural_15
vt -9.93267 18.4622
f 44/73/15 78/156/15 80/166/15

usemtl _7
vt 3.75504 4.09157
f 80/167/16 78/157/16 44/75/16

usemtl _Tile_Ceramic_Natural_15
v 11.5217 3.79075 -19.9167
vt -9.91851 18.4602
f 44/73/15 80/166/15 82/168/15

usemtl _7
vt 3.76156 4.09098
f 82/169/16 80/167/16 44/75/16

usemtl _Color_C03_4
vt -309.803 141.732
vt -310.597 8.53353e-013
vn 0.14175 -1.28631e-017 -0.989902
vt -309.803 8.53353e-013
f 81/170/4 82/171/31 80/172/4

v 11.5217 6.79075 -19.9167
vt -310.597 118.11
f 82/171/31 81/170/4 83/173/31

usemtl Color_D07
vn -0.14175 1.28631e-017 0.989902
f 80/172/3 82/171/32 81/170/3

f 83/173/32 81/170/3 82/171/32

usemtl _Color_C03_4
v 11.5217 7.39075 -19.9167
vt -310.597 141.732
f 83/173/31 81/170/4 84/174/31

usemtl Color_D07
f 84/174/32 81/170/3 83/173/32

usemtl _Color_D03_1
vt -13.5824 118.11
vt -13.5824 141.732
f 42/130/1 83/175/1 84/176/1

vt -75.864 3.73071e-013
f 44/177/1 83/175/1 42/130/1

vt -13.5824 9.98349e-013
f 83/175/1 44/177/1 82/178/1

usemtl Color_D07
f 82/178/2 44/177/2 83/175/2

f 42/130/2 83/175/2 44/177/2

f 84/176/2 83/175/2 42/130/2

f 81/165/3 79/162/30 80/163/3

f 77/151/28 74/148/26 76/149/28

g Mesh7 DES023 Model

l 43 44

l 43 45

l 58 43

l 58 68

l 59 58

l 59 70

l 60 59

l 61 60

l 61 71

l 61 62

l 63 62

l 63 64

l 64 53

l 64 65

l 65 56

l 71 65

l 71 69

l 60 69

l 69 45

l 45 42

l 44 42

l 44 82

l 82 83

l 82 80

l 80 78

l 78 76

l 76 75

l 75 48

l 48 46

l 46 47

l 47 52

l 52 57

l 54 52

l 53 54

l 53 56

l 56 55

l 54 55

l 55 57

l 51 57

l 50 51

l 49 50

l 74 49

l 77 74

l 79 77

l 81 79

l 84 81

l 83 84

l 42 84

l 68 70

g Mesh8 DES023 Model

l 72 73

l 67 72

l 66 67

l 66 73

g Mesh9 Model

v 21.5154 10.5 62.8597
v 21.5454 10.5 62.7436
l 85 86

g Mesh10 Model

v -222.959 3.3 -279.837
v -222.959 3.33 -279.837
l 87 88

g Mesh11 Model

v 35.416 5.65 -204.781
v 33.9777 5.65 -205.153
l 89 90

