# Alias OBJ Model File
# Exported from SketchUp, (c) 2000-2012 Trimble Navigation Limited
# File units = meters

mtllib DES025.mtl

g Mesh1 ventana2_1 DES025 Model

usemtl Color_000
v 3.47215 5.36236 -16.4754
vt 1.37598 26.4413
vn -0.999936 4.62436e-016 -0.0113292
v 3.47239 5.24336 -16.4964
vt 0.549204 21.7563
v 3.47215 5.24336 -16.4754
vt 1.37598 21.7563
f 1/1/1 2/2/1 3/3/1

v 3.47239 5.36236 -16.4964
vt 0.549204 26.4413
f 2/2/1 1/1/1 4/4/1

usemtl _Color_000_1
vn 0.999936 -4.62436e-016 0.0113292
f 3/3/2 2/2/2 1/1/2

usemtl Color_000
v 3.47255 5.24075 -16.5103
vt 0 21.6535
f 2/2/1 5/5/1 3/3/1

v 3.47255 6.09075 -16.5103
vt 0 55.1181
f 5/5/1 2/2/1 6/6/1

usemtl _Color_000_1
f 6/6/2 2/2/2 5/5/2

usemtl Color_000
f 6/6/1 2/2/1 4/4/1

usemtl _Color_000_1
f 4/4/2 2/2/2 6/6/2

f 4/4/2 1/1/2 2/2/2

usemtl Color_000
v 3.47198 6.04075 -16.4603
vt 1.9685 53.1496
f 1/1/1 7/7/1 4/4/1

f 3/3/1 7/7/1 1/1/1

v 3.47198 4.74075 -16.4603
vt 1.9685 1.9685
f 3/3/1 8/8/1 7/7/1

f 5/5/1 8/8/1 3/3/1

v 3.47255 4.69075 -16.5103
vt 0 0
f 9/9/1 8/8/1 5/5/1

v 3.46008 4.74075 -15.4104
vt 43.3071 1.9685
f 8/8/1 9/9/1 10/10/1

usemtl _Color_000_1
f 5/5/2 8/8/2 9/9/2

f 3/3/2 8/8/2 5/5/2

f 7/7/2 8/8/2 3/3/2

usemtl M_0128_White
v 3.52198 4.74075 -16.4598
vn -0.0113292 -4.79067e-017 0.999936
vt 4.54747e-013 53.1496
vt 4.54747e-013 1.9685
f 11/8/3 7/11/3 8/12/3

v 3.52198 6.04075 -16.4598
f 7/11/3 11/8/3 12/7/3

usemtl _Color_000_1
vn 0.0113292 4.79067e-017 -0.999936
f 8/12/4 7/11/4 11/8/4

f 12/7/4 11/8/4 7/11/4

v 3.52254 6.09075 -16.5098
vt 9.09495e-013 55.1181
f 13/13/1 11/8/1 12/7/1

v 3.52254 4.69075 -16.5098
vt 9.09495e-013 0
f 14/14/1 11/8/1 13/13/1

v 3.51008 4.74075 -15.4098
f 11/8/1 14/14/1 15/10/1

usemtl M_0128_White
f 13/13/2 11/8/2 14/14/2

f 12/7/2 11/8/2 13/13/2

usemtl Translucent_Glass_Blue
vn -0.999936 4.01265e-015 -0.0113292
v 3.51008 6.04075 -15.4098
vt 43.3071 53.1496
f 11/8/5 16/15/5 12/7/5

f 16/15/5 11/8/5 15/10/5

vn 0.999936 -4.01265e-015 0.0113292
f 15/10/6 11/8/6 16/15/6

usemtl M_0128_White
vn 4.60342e-016 1 1.87418e-016
vt 43.3071 4.54747e-013
f 11/8/7 10/16/7 15/10/7

vt 1.9685 4.54747e-013
f 10/16/7 11/8/7 8/17/7

usemtl _Color_000_1
vn -4.60342e-016 -1 -1.87418e-016
f 8/17/8 11/8/8 10/16/8

f 15/10/8 10/16/8 11/8/8

usemtl M_0128_White
vt -4.54747e-013 1.9685
vt -1.9685 53.1496
vt -1.9685 1.9685
f 10/18/4 16/19/4 15/20/4

v 3.46008 6.04075 -15.4104
vt -4.54747e-013 53.1496
f 16/19/4 10/18/4 17/21/4

usemtl _Color_000_1
f 17/21/3 10/18/3 16/19/3

usemtl Color_000
v 3.45952 4.74075 -15.3604
vt 45.2756 1.9685
f 10/10/1 18/22/1 17/15/1

f 9/9/1 18/22/1 10/10/1

v 3.45952 4.69075 -15.3604
vt 45.2756 0
f 18/22/1 9/9/1 19/23/1

usemtl _Color_000_1
f 19/23/2 9/9/2 18/22/2

vt -9.09495e-013 1.9685
vn -4.61863e-016 -1 -5.31427e-017
vt -45.2756 4.54747e-013
f 14/24/9 19/25/9 9/9/9

v 3.50951 4.69075 -15.3598
vt -45.2756 1.9685
f 19/25/9 14/24/9 20/26/9

vn 4.61863e-016 1 5.31427e-017
f 9/9/10 19/25/10 14/24/10

f 20/26/10 14/24/10 19/25/10

v 3.50951 4.74075 -15.3598
f 21/22/1 14/14/1 20/23/1

f 14/14/1 21/22/1 15/10/1

usemtl M_0128_White
f 20/23/2 14/14/2 21/22/2

f 15/10/2 21/22/2 14/14/2

usemtl _Color_000_1
f 15/10/1 21/22/1 16/15/1

usemtl M_0128_White
f 16/15/2 21/22/2 15/10/2

usemtl _Color_000_1
v 3.50951 6.04075 -15.3598
vt 45.2756 53.1496
f 16/15/1 21/22/1 22/27/1

usemtl M_0128_White
f 22/27/2 21/22/2 16/15/2

f 22/7/3 18/12/3 21/8/3

v 3.45952 6.04075 -15.3604
vt 5.24223e-030 53.1496
f 18/12/3 22/7/3 23/28/3

usemtl _Color_000_1
f 23/28/4 22/7/4 18/12/4

usemtl M_0128_White
v 3.44819 6.04075 -14.3605
vt -84.6457 0
vt -45.2756 0
f 22/26/9 24/29/9 23/30/9

v 3.49953 6.04075 -14.4789
vt -79.9606 1.9685
f 24/29/9 22/26/9 25/31/9

usemtl _Color_000_1
f 23/30/10 24/29/10 22/26/10

usemtl Color_000
vt 84.6457 53.1496
v 3.44762 6.09075 -14.3105
vt 86.6142 55.1181
f 24/32/1 26/33/1 23/27/1

v 3.44803 5.36236 -14.3465
vt 85.1949 26.4413
f 27/34/1 26/33/1 24/32/1

v 3.44779 5.36236 -14.3255
vt 86.0216 26.4413
f 28/35/1 26/33/1 27/34/1

v 3.44779 5.24336 -14.3255
vt 86.0216 21.7563
f 29/36/1 26/33/1 28/35/1

v 3.44762 4.69075 -14.3105
vt 86.6142 0
f 29/36/1 30/37/1 26/33/1

v 3.44819 4.74075 -14.3605
vt 84.6457 1.9685
f 31/38/1 30/37/1 29/36/1

f 30/37/1 31/38/1 19/23/1

usemtl _Color_000_1
f 19/23/2 31/38/2 30/37/2

usemtl Color_000
f 18/22/1 19/23/1 31/38/1

usemtl _Color_000_1
vt -4.54747e-013 0
f 21/20/4 19/39/4 18/18/4

vt -1.9685 0
f 19/39/4 21/20/4 20/40/4

f 18/18/3 19/39/3 21/20/3

f 31/38/2 19/23/2 18/22/2

usemtl M_0128_White
vt 84.6457 1.94109e-031
vn 4.62822e-016 1 -3.14509e-017
vt 45.2756 4.54747e-013
f 31/41/11 21/22/11 18/42/11

v 3.49818 4.74075 -14.3599
f 21/22/11 31/41/11 32/38/11

usemtl _Color_000_1
vn -4.62822e-016 -1 3.14509e-017
f 18/42/12 21/22/12 31/41/12

f 21/8/4 18/12/4 22/7/4

usemtl Translucent_Glass_Blue
vn -0.999936 9.66885e-015 -0.0113292
vt 79.9606 53.1496
f 21/22/13 25/43/13 22/27/13

v 3.49818 6.04075 -14.3599
f 21/22/13 33/32/13 25/43/13

f 33/32/13 21/22/13 32/38/13

vn 0.999936 -9.66885e-015 0.0113292
f 32/38/14 21/22/14 33/32/14

usemtl _Color_000_1
f 32/38/12 31/41/12 21/22/12

usemtl M_0128_White
vt -9.80069e-030 1.9685
f 31/44/4 33/19/4 32/20/4

vt -9.80069e-030 53.1496
f 33/19/4 31/44/4 24/45/4

usemtl _Color_000_1
f 24/45/3 31/44/3 33/19/3

usemtl Color_000
v 3.44803 5.24336 -14.3465
vt 85.1949 21.7563
f 31/38/1 34/46/1 24/32/1

f 34/46/1 31/38/1 29/36/1

usemtl _Color_000_1
f 24/32/2 34/46/2 31/38/2

usemtl Color_000
f 24/32/1 34/46/1 27/34/1

usemtl _Color_000_1
f 27/34/2 34/46/2 24/32/2

usemtl Color_000
f 34/46/1 28/35/1 27/34/1

f 28/35/1 34/46/1 29/36/1

usemtl _Color_000_1
f 29/36/2 34/46/2 28/35/2

f 29/36/2 31/38/2 34/46/2

f 29/36/2 30/37/2 31/38/2

f 26/33/2 30/37/2 29/36/2

v 3.49762 4.69075 -14.3099
vt 1.9685 0
vt 1.36424e-012 55.1181
vt 1.36424e-012 0
f 35/47/3 26/48/3 30/49/3

v 3.49762 6.09075 -14.3099
vt 1.9685 55.1181
f 26/48/3 35/47/3 36/50/3

f 30/49/4 26/48/4 35/47/4

f 36/50/4 35/47/4 26/48/4

f 32/38/1 35/37/1 36/33/1

f 35/37/1 32/38/1 20/23/1

usemtl M_0128_White
f 20/23/2 32/38/2 35/37/2

usemtl _Color_000_1
f 21/22/1 20/23/1 32/38/1

f 20/40/3 21/20/3 19/39/3

usemtl M_0128_White
f 32/38/2 20/23/2 21/22/2

usemtl _Color_000_1
vt -86.6142 1.9685
f 35/51/9 19/25/9 20/26/9

vt -86.6142 1.36424e-012
f 19/25/9 35/51/9 30/52/9

f 20/26/10 19/25/10 35/51/10

f 30/52/10 35/51/10 19/25/10

usemtl M_0128_White
f 36/33/2 35/37/2 32/38/2

usemtl _Color_000_1
f 32/38/1 36/33/1 33/32/1

usemtl M_0128_White
f 33/32/2 36/33/2 32/38/2

usemtl _Color_000_1
f 33/32/1 36/33/1 25/43/1

usemtl M_0128_White
f 25/43/2 36/33/2 33/32/2

usemtl _Color_000_1
f 25/43/1 36/33/1 22/27/1

usemtl M_0128_White
f 22/27/2 36/33/2 25/43/2

usemtl _Color_000_1
v 3.50951 6.09075 -15.3598
vt 45.2756 55.1181
f 22/27/1 36/33/1 37/53/1

usemtl M_0128_White
f 37/53/2 36/33/2 22/27/2

usemtl _Color_000_1
vt 86.6142 1.36424e-012
vt 86.6142 1.9685
f 37/22/10 26/54/10 36/55/10

v 3.45952 6.09075 -15.3604
f 26/54/10 37/22/10 38/23/10

f 38/23/9 37/22/9 26/54/9

vt -1.9685 55.1181
vt -5.24223e-030 53.1496
vt -5.24223e-030 55.1181
f 37/56/4 23/57/4 38/58/4

f 23/57/4 37/56/4 22/19/4

f 38/58/3 23/57/3 37/56/3

usemtl Color_000
f 17/15/1 23/27/1 38/53/1

f 17/15/1 18/22/1 23/27/1

usemtl _Color_000_1
f 17/15/2 18/22/2 10/10/2

f 23/27/2 18/22/2 17/15/2

f 38/53/2 23/27/2 17/15/2

usemtl Color_000
f 23/27/1 26/33/1 38/53/1

usemtl _Color_000_1
f 23/27/2 26/33/2 24/32/2

f 38/53/2 26/33/2 23/27/2

f 24/32/2 26/33/2 27/34/2

f 27/34/2 26/33/2 28/35/2

f 28/35/2 26/33/2 29/36/2

f 27/34/2 28/35/2 34/46/2

usemtl Color_000
f 17/15/1 38/53/1 7/7/1

usemtl _Color_000_1
f 7/7/2 38/53/2 17/15/2

usemtl Color_000
f 6/6/1 7/7/1 38/53/1

f 6/6/1 4/4/1 7/7/1

usemtl _Color_000_1
f 7/7/2 4/4/2 6/6/2

f 4/4/2 7/7/2 1/1/2

f 1/1/2 7/7/2 3/3/2

f 38/53/2 7/7/2 6/6/2

usemtl Color_000
v 3.46008 6.09075 -15.4104
vt 43.3071 55.1181
f 6/6/1 38/53/1 39/59/1

usemtl _Color_000_1
f 39/59/2 38/53/2 6/6/2

f 37/22/10 39/16/10 38/23/10

v 3.51008 6.09075 -15.4098
f 39/16/10 37/22/10 40/10/10

f 40/10/9 37/22/9 39/16/9

f 13/13/1 37/53/1 40/59/1

f 13/13/1 12/7/1 37/53/1

usemtl M_0128_White
f 37/53/2 12/7/2 13/13/2

usemtl _Color_000_1
v 3.51039 6.04075 -15.4368
vt 42.2441 53.1496
f 41/60/1 37/53/1 12/7/1

f 16/15/1 37/53/1 41/60/1

f 16/15/1 22/27/1 37/53/1

usemtl M_0128_White
f 37/53/2 22/27/2 16/15/2

usemtl _Color_000_1
f 22/19/3 37/56/3 23/57/3

usemtl M_0128_White
f 41/60/2 37/53/2 16/15/2

f 12/7/2 37/53/2 41/60/2

vt -43.3071 4.54747e-013
vt -42.2441 1.9685
f 17/61/9 12/20/9 41/62/9

vt -1.9685 4.54747e-013
f 12/20/9 17/61/9 7/63/9

usemtl _Color_000_1
f 7/63/10 17/61/10 12/20/10

f 41/62/10 12/20/10 17/61/10

usemtl Translucent_Glass_Blue
f 12/7/5 16/15/5 41/60/5

f 12/7/6 16/15/6 11/8/6

f 41/60/6 16/15/6 12/7/6

usemtl M_0128_White
vt -43.3071 1.9685
f 17/61/9 41/62/9 16/64/9

usemtl _Color_000_1
f 16/64/10 41/62/10 17/61/10

usemtl M_0128_White
f 40/59/2 37/53/2 13/13/2

usemtl _Color_000_1
vt 9.09495e-013 1.9685
f 13/65/10 39/16/10 40/10/10

f 39/16/10 13/65/10 6/9/10

f 6/9/9 13/65/9 39/16/9

f 13/56/4 5/5/4 6/6/4

f 5/5/4 13/56/4 9/9/4

f 6/6/3 5/5/3 13/56/3

f 9/9/3 13/56/3 5/5/3

f 9/9/4 13/56/4 14/40/4

f 14/40/3 13/56/3 9/9/3

f 40/10/9 39/16/9 13/65/9

f 38/23/9 39/16/9 37/22/9

f 10/10/2 18/22/2 9/9/2

f 10/10/2 9/9/2 8/8/2

f 36/55/9 26/54/9 37/22/9

f 25/31/10 22/26/10 24/29/10

usemtl Translucent_Glass_Blue
f 22/27/14 25/43/14 21/22/14

f 25/43/14 33/32/14 21/22/14

usemtl M_0128_White
vt -84.6457 1.9685
f 24/29/9 25/31/9 33/66/9

usemtl _Color_000_1
f 33/66/10 25/31/10 24/29/10

f 32/20/3 33/19/3 31/44/3

f 15/20/3 16/19/3 10/18/3

usemtl M_0128_White
f 15/10/2 14/14/2 11/8/2

usemtl _Color_000_1
f 3/3/2 5/5/2 2/2/2

g Mesh2 ventana2_1 DES025 Model

l 2 3

l 4 2

l 1 4

l 3 1

g Mesh3 ventana2_1 DES025 Model

l 11 15

l 11 8

l 12 11

l 12 7

l 41 12

l 16 41

l 16 17

l 16 15

l 15 10

l 8 10

l 7 8

l 17 7

l 17 10

g Mesh4 ventana2_1 DES025 Model

l 5 6

l 9 5

l 14 9

l 14 13

l 20 14

l 21 20

l 21 18

l 22 21

l 22 23

l 37 22

l 40 37

l 13 40

l 13 6

l 6 39

l 40 39

l 39 38

l 37 38

l 37 36

l 36 26

l 36 35

l 35 30

l 35 20

l 20 19

l 18 19

l 18 31

l 23 18

l 24 23

l 31 24

l 32 31

l 32 33

l 21 32

l 33 24

l 33 25

l 25 22

l 38 23

l 38 26

l 26 30

l 30 19

l 19 9

g Mesh5 ventana2_1 DES025 Model

l 29 28

l 34 29

l 27 34

l 28 27

g Mesh6 DES025 Model

usemtl _Color_D03_1
v 3.76932 3.79075 -14.0168
vt 12.5246 1.93847e-012
v 3.76671 7.39075 -13.7868
vt 3.46951 141.732
v 3.76671 3.79075 -13.7868
vt 3.46951 1.93847e-012
f 42/67/2 43/68/2 44/69/2

v 3.76932 7.39075 -14.0168
vt 12.5246 141.732
f 43/68/2 42/67/2 45/70/2

usemtl Color_D07
f 44/69/1 43/68/1 42/67/1

usemtl _Color_D03_1
vt -12.524 141.732
vn 0.0113292 -2.52905e-015 -0.999936
v 11.2262 3.79075 -13.7023
vt -306.225 2.68042e-012
vt -12.524 1.94145e-012
f 43/71/15 46/72/15 44/73/15

v 11.2262 7.39075 -13.7023
vt -306.225 141.732
f 46/72/15 43/71/15 47/74/15

usemtl Color_D07
vn -0.0113292 2.52905e-015 0.999936
f 44/73/16 46/72/16 43/71/16

usemtl _Tile_Ceramic_Natural_15
vt -10.128 14.0528
vn -1.19842e-015 1 -1.41936e-014
vt -15.4166 14.2758
vt -15.4185 14.1127
f 46/75/17 42/76/17 44/77/17

v 10.5417 3.79075 -15.5102
vt -10.6135 15.335
f 42/76/17 46/75/17 48/78/17

usemtl _7
vt 1.22975 2.83187
vn 1.19842e-015 -1 1.41936e-014
vt 1.2306 2.87911
vt 3.66511 2.81451
f 44/79/18 42/80/18 46/81/18

vt 3.44162 3.18586
f 48/82/18 46/81/18 42/80/18

usemtl _Tile_Ceramic_Natural_15
v 11.2297 3.79075 -14.0123
vt -10.1255 14.2726
f 48/78/17 46/75/17 49/83/17

usemtl _7
vt 3.66626 2.87818
f 49/84/18 46/81/18 48/82/18

usemtl _Color_D03_1
vt -3.46951 141.732
vt -15.6742 2.81325e-012
vt -3.46951 2.81325e-012
f 47/85/1 49/86/1 46/87/1

v 11.2297 7.39075 -14.0123
vt -15.6742 141.732
f 49/86/1 47/85/1 50/88/1

usemtl Color_D07
f 46/87/2 49/86/2 47/85/2

f 50/88/2 47/85/2 49/86/2

usemtl _Color_D03_1
v 11.4547 7.39075 -14.0097
vt -315.083 141.732
vn 0.0113292 -2.32255e-015 -0.999936
vt -306.225 2.70804e-012
f 51/89/19 49/90/19 50/74/19

v 11.4547 3.79075 -14.0097
vt -315.083 2.67962e-012
f 49/90/19 51/89/19 52/91/19

usemtl Color_D07
vn -0.0113292 2.32255e-015 0.999936
f 52/91/20 51/89/20 49/90/20

usemtl _Color_D03_1
v 11.4716 3.79075 -15.4996
vt -74.3357 9.98357e-013
vt -15.6742 2.78892e-012
f 51/88/1 53/92/1 52/93/1

v 11.4716 7.39075 -15.4996
vt -74.3357 141.732
f 53/92/1 51/88/1 54/94/1

usemtl Color_D07
f 52/93/2 53/92/2 51/88/2

usemtl _Tile_Ceramic_Natural_15
vt -9.95401 15.3275
vt -9.96598 14.2708
f 53/95/17 49/83/17 52/96/17

f 48/78/17 49/83/17 53/95/17

usemtl _7
vt 3.74522 3.18369
f 53/97/18 49/84/18 48/82/18

vt 3.73971 2.87766
f 52/98/18 49/84/18 53/97/18

usemtl _Color_D03_1
vt 315.083 8.4909e-013
v 10.5417 7.39075 -15.5102
vt 278.469 141.732
vt 278.469 6.21716e-013
f 53/99/3 55/100/3 48/101/3

vt 315.083 141.732
f 55/100/3 53/99/3 54/102/3

usemtl Color_D07
f 48/101/4 55/100/4 53/99/4

usemtl _Color_D03_1
vn -0.999936 -5.08637e-014 -0.0113292
v 10.543 3.79075 -15.6302
vt -79.0601 -1.38797e-011
vt -74.3357 -1.35387e-011
f 55/94/21 56/103/21 48/104/21

v 10.543 6.59075 -15.6302
vt -79.0601 110.236
f 56/103/21 55/94/21 57/105/21

usemtl Color_D07
vn 0.999936 5.08637e-014 0.0113292
f 48/104/22 56/103/22 55/94/22

usemtl _Tile_Ceramic_Natural_15
v 10.543 3.79075 -16.5802
vt -10.6126 16.0939
vt -10.6126 15.4201
f 58/106/17 48/78/17 56/107/17

f 58/106/17 42/76/17 48/78/17

v 3.52424 3.79075 -16.6598
vt -15.5904 16.1503
f 59/108/17 42/76/17 58/106/17

v 3.52254 3.79075 -16.5098
vt -15.5916 16.0439
f 60/109/17 42/76/17 59/108/17

v 3.49762 3.79075 -14.3099
vt -15.6093 14.4837
f 61/110/17 42/76/17 60/109/17

v 3.49433 3.79075 -14.0199
vt -15.6116 14.278
f 42/76/17 61/110/17 62/111/17

usemtl _7
vt 1.14082 2.87975
vt 1.14189 2.93932
f 62/112/18 61/113/18 42/80/18

usemtl _Color_D03_1
vt 23.942 3.70267e-013
v 3.49433 7.39075 -14.0199
vt 12.5246 7.68171e-013
f 61/114/2 63/70/2 62/115/2

v 3.49762 6.09075 -14.3099
vt 23.942 90.5512
f 63/70/2 61/114/2 64/116/2

usemtl Color_D07
f 62/115/1 63/70/1 61/114/1

usemtl _Color_D03_1
vt -1.69724 141.732
vn 0.0113292 -4.693e-015 -0.999936
vt -12.524 1.99145e-012
vt -1.69724 8.26164e-013
f 63/117/23 42/118/23 62/119/23

f 42/118/23 63/117/23 45/71/23

usemtl Color_D07
vn -0.0113292 4.693e-015 0.999936
f 62/119/24 42/118/24 63/117/24

f 45/71/24 63/117/24 42/118/24

f 45/70/1 42/67/1 43/68/1

f 64/116/1 61/114/1 63/70/1

usemtl _Color_D03_1
v 3.49762 4.69075 -14.3099
vt 23.942 35.4331
f 64/116/2 61/114/2 65/120/2

usemtl Color_D07
f 65/120/1 61/114/1 64/116/1

usemtl _Color_D03_1
vt 110.556 9.95545e-013
f 60/121/2 65/120/2 61/114/2

v 3.52254 4.69075 -16.5098
vt 110.556 35.4331
f 65/120/2 60/121/2 66/122/2

usemtl Color_D07
f 61/114/1 65/120/1 60/121/1

f 66/122/1 60/121/1 65/120/1

usemtl _Color_D03_1
vt 116.462 9.95545e-013
f 66/122/2 60/121/2 59/123/2

usemtl Color_D07
f 59/123/1 60/121/1 66/122/1

usemtl _7
vt 1.15059 3.42199
vt 1.15003 3.39118
f 59/124/18 42/80/18 60/125/18

vt 3.44206 3.40565
f 58/126/18 42/80/18 59/124/18

f 48/82/18 42/80/18 58/126/18

vt 3.44206 3.2105
f 56/127/18 48/82/18 58/126/18

usemtl _Color_D03_1
vt 278.045 1.48798e-012
vn -0.0113292 1.25325e-014 0.999936
v 10.6738 6.59075 -16.5788
vt 283.193 110.236
vt 1.69724 2.45431e-012
f 58/128/25 67/129/25 59/130/25

v 10.6738 3.79075 -16.5788
vt 283.193 1.45955e-012
f 67/129/25 58/128/25 68/131/25

usemtl Color_D07
vn 0.0113292 -1.25325e-014 -0.999936
f 68/131/26 58/128/26 67/129/26

f 59/130/26 67/129/26 58/128/26

usemtl _Color_D03_1
v 10.5538 6.59075 -16.5801
vt 278.469 110.236
f 59/130/25 67/129/25 69/132/25

usemtl Color_D07
f 69/132/26 67/129/26 59/130/26

usemtl _Color_D03_1
v 3.52424 7.39075 -16.6598
vt 1.69724 141.732
f 59/130/25 69/132/25 70/133/25

usemtl Color_D07
f 70/133/26 69/132/26 59/130/26

usemtl _Color_D03_1
v 10.5538 7.39075 -16.5801
f 70/133/25 69/132/25 71/100/25

usemtl Color_D07
f 71/100/26 69/132/26 70/133/26

usemtl _Color_D03_1
vt -116.462 141.732
vt -116.462 110.236
f 57/105/21 71/134/21 69/135/21

f 71/134/21 57/105/21 55/94/21

usemtl Color_D07
f 55/94/22 57/105/22 71/134/22

f 57/105/22 55/94/22 56/103/22

f 69/135/22 71/134/22 57/105/22

usemtl _Color_D03_1
vt 116.462 141.732
f 70/136/2 66/122/2 59/123/2

v 3.52254 6.09075 -16.5098
vt 110.556 90.5512
f 70/136/2 72/137/2 66/122/2

f 70/136/2 64/116/2 72/137/2

f 63/70/2 64/116/2 70/136/2

usemtl Color_D07
f 70/136/1 64/116/1 63/70/1

f 72/137/1 64/116/1 70/136/1

f 66/122/1 72/137/1 70/136/1

f 59/123/1 66/122/1 70/136/1

usemtl _7
f 60/125/18 42/80/18 61/113/18

usemtl Color_D07
f 54/102/4 53/99/4 55/100/4

f 54/94/2 51/88/2 53/92/2

f 50/74/20 49/90/20 51/89/20

f 47/74/16 43/71/16 46/72/16

g Mesh7 DES025 Model

l 42 45

l 42 44

l 62 42

l 61 62

l 61 60

l 59 60

l 59 70

l 59 58

l 58 68

l 56 58

l 56 57

l 56 48

l 48 55

l 48 53

l 53 54

l 53 52

l 52 51

l 49 52

l 49 50

l 49 46

l 46 47

l 44 46

l 44 43

l 45 43

l 63 45

l 70 63

l 70 71

l 69 71

l 69 67

l 57 69

l 68 67

l 71 55

l 55 54

l 54 51

l 50 51

l 50 47

l 43 47

l 62 63

g Mesh8 DES025 Model

l 65 66

l 65 64

l 72 64

l 66 72

g Mesh9 Model

v 21.5154 10.5 62.8597
v 21.5454 10.5 62.7436
l 73 74

g Mesh10 Model

v -222.959 3.3 -279.837
v -222.959 3.33 -279.837
l 75 76

g Mesh11 Model

v 35.416 5.65 -204.781
v 33.9777 5.65 -205.153
l 77 78

