# Alias OBJ Model File
# Exported from SketchUp, (c) 2000-2012 Trimble Navigation Limited
# File units = meters

mtllib DES010.mtl

g Mesh1 DES010 Model

usemtl M_0130_Gainsboro
v 25.8546 8.7524e-021 -5.89274
vt -7.55681 185.64
vn 1.8451e-021 -1 -8.63152e-021
v 25.6627 7.10335e-020 -1.17749
vt -5.16e-039 2.41389e-038
v 25.6627 1.42067e-019 -5.89274
vt -1.032e-038 185.64
f 1/1/1 2/2/1 3/3/1

v 28.4867 0 -1.17749
vt -111.18 -1.77066e-039
f 2/2/1 1/1/1 4/4/1

usemtl _Tile_Ceramic_Natural_14
vt 3.9013 -6.6768
vn -1.8451e-021 1 8.63152e-021
vt 3.9013 -10.0209
vt 3.76517 -6.6768
f 3/5/2 2/6/2 1/7/2

usemtl FrontColor
v 25.6627 0.998333 -1.17749
vt -2.84217e-014 39.3045
vn -1 0 -0
vt -185.64 5.59319e-018
vt 0 2.79659e-018
f 5/8/3 3/9/3 2/10/3

v 25.6627 2.995 -5.81297
vt -182.499 117.913
f 3/9/3 5/8/3 6/11/3

usemtl Color_D03
vn 1 -0 0
f 2/10/4 3/9/4 5/8/4

f 6/11/4 5/8/4 3/9/4

usemtl FrontColor
v 25.6627 1.99667 -1.17749
vt -2.84217e-014 78.6089
f 7/12/3 6/11/3 5/8/3

v 25.6627 2.995 -1.17749
vt 0 117.913
f 6/11/3 7/12/3 8/13/3

usemtl Color_D03
f 8/13/4 7/12/4 6/11/4

usemtl FrontColor
vt 0 78.6089
vn 0 -7.23117e-016 1
v 28.4867 2.995 -1.17749
vt 111.18 117.913
f 7/14/5 9/15/5 8/13/5

v 28.4867 1.99667 -1.17749
vt 111.18 78.6089
f 9/15/5 7/14/5 10/16/5

usemtl Color_D03
vn -0 7.23117e-016 -1
f 10/16/6 7/14/6 9/15/6

usemtl Translucent_Glass_Blue
vt 0 39.3045
vn 0 0 1
f 5/17/7 10/16/7 7/14/7

v 28.4867 0.998333 -1.17749
vt 111.18 39.3045
f 10/16/7 5/17/7 11/18/7

vn -0 -0 -1
f 11/18/8 5/17/8 10/16/8

usemtl FrontColor
vn 0 7.23117e-016 1
f 2/10/9 11/18/9 5/17/9

vt 111.18 0
f 11/18/9 2/10/9 4/19/9

usemtl Color_D03
vn -0 -7.23117e-016 -1
f 4/19/10 2/10/10 11/18/10

usemtl _Tile_Ceramic_Natural_14
vt 1.89848 -10.0209
f 4/20/2 1/7/2 2/6/2

usemtl M_0130_Gainsboro
v 26.5415 8.74487e-021 -5.89274
vt -34.5987 185.64
f 4/4/1 1/1/1 12/21/1

usemtl _Tile_Ceramic_Natural_14
vt 3.27803 -6.6768
f 12/22/2 1/7/2 4/20/2

usemtl M_0130_Gainsboro
v 28.4867 1.42067e-019 -5.89274
vt -111.18 185.64
f 4/4/1 12/21/1 13/23/1

usemtl _Tile_Ceramic_Natural_14
vt 1.89848 -6.6768
f 13/24/2 12/22/2 4/20/2

usemtl FrontColor
v 26.5415 2.008 -5.89274
vt -34.5987 79.0551
vn 0 0 -1
vt -111.18 5.59319e-018
vt -34.5987 3.44286e-019
f 14/25/11 13/26/11 12/27/11

v 28.4867 2.995 -5.89274
vt -111.18 117.913
f 13/26/11 14/25/11 15/28/11

usemtl Color_D03
vn -0 -0 1
f 12/27/12 13/26/12 14/25/12

f 15/28/12 14/25/12 13/26/12

usemtl FrontColor
v 25.6627 2.995 -5.89274
f 15/28/11 14/25/11 16/13/11

usemtl Color_D03
f 16/13/12 14/25/12 15/28/12

usemtl FrontColor
v 25.8546 2.008 -5.89274
vt -7.55681 79.0551
f 17/29/11 16/13/11 14/25/11

vt 0 5.59319e-018
f 17/29/11 3/30/11 16/13/11

vt -7.55681 3.44583e-019
f 3/30/11 17/29/11 1/31/11

usemtl Color_D03
f 1/31/12 17/29/12 3/30/12

f 16/13/12 3/30/12 17/29/12

usemtl FrontColor
vt -185.64 117.913
f 3/9/3 6/11/3 16/32/3

usemtl Color_D03
f 16/32/4 6/11/4 3/9/4

f 14/25/12 16/13/12 17/29/12

usemtl FrontColor
vt 185.64 117.913
vn 1 0 -0
vt 2.84217e-014 78.6089
vt 185.64 5.59319e-018
f 15/33/13 10/34/13 13/35/13

f 10/34/13 15/33/13 9/13/13

usemtl Color_D03
vn -1 -0 0
f 9/13/14 15/33/14 10/34/14

f 13/35/14 10/34/14 15/33/14

usemtl FrontColor
vt 2.84217e-014 39.3045
f 11/36/13 13/35/13 10/34/13

vt 0 0
f 13/35/13 11/36/13 4/37/13

usemtl Color_D03
f 4/37/14 11/36/14 13/35/14

f 10/34/14 13/35/14 11/36/14

f 5/17/10 11/18/10 2/10/10

usemtl Translucent_Glass_Blue
f 7/14/8 10/16/8 5/17/8

usemtl Color_D03
f 5/8/4 6/11/4 7/12/4

f 8/13/6 9/15/6 7/14/6

g Mesh2 DES010 Model

l 3 1

l 3 2

l 3 16

l 6 16

l 6 8

l 7 8

l 7 10

l 5 7

l 2 5

l 4 2

l 4 13

l 4 11

l 11 10

l 5 11

l 10 9

l 9 8

l 9 15

l 16 15

l 13 15

l 12 13

l 1 12

l 17 1

l 17 14

l 12 14

