# Alias OBJ Model File
# Exported from SketchUp, (c) 2000-2012 Trimble Navigation Limited
# File units = meters

mtllib LAB002.mtl

g Mesh1 LAB002 Model

usemtl M_0130_Gainsboro
v 10.8335 0 -14.1135
vt -186.703 207.559
vn -8.21009e-022 -1 2.01571e-021
v 6.09128 3.32082e-020 -8.84149
vt 1.07339e-039 -2.63536e-039
v 6.09128 1.234e-020 -14.1135
vt 3.98868e-040 207.559
f 1/1/1 2/2/1 3/3/1

v 6.2584 1.03657e-020 -8.84149
vt -6.57971 -8.335e-040
f 2/2/1 1/1/1 4/4/1

usemtl _Tile_Ceramic_Natural_14
vt 17.7817 -0.84648
vn 8.21009e-022 1 -2.01571e-021
vt 17.7817 -4.58549
vt 14.4184 -0.84648
f 3/5/2 2/6/2 1/7/2

usemtl FrontColor
vt 0 1.30741e-018
vn -1 0 -0
v 6.09128 2.995 -8.92725
vt -3.37647 117.913
vt -207.559 4.85827e-019
f 2/8/3 5/9/3 3/10/3

v 6.09128 2.995 -8.84149
vt 0 117.913
f 5/9/3 2/8/3 6/11/3

usemtl Color_D03
vn 1 -0 0
f 6/11/4 2/8/4 5/9/4

usemtl FrontColor
vn 0 0 1
v 6.2584 2.008 -8.84149
vt 6.57971 79.0551
f 2/8/5 7/12/5 6/11/5

vt 6.57971 4.08099e-019
f 7/12/5 2/8/5 4/13/5

usemtl Color_D03
vn -0 -0 -1
f 4/13/6 2/8/6 7/12/6

usemtl _Tile_Ceramic_Natural_14
vt 17.6632 -4.58549
f 4/14/2 1/7/2 2/6/2

usemtl M_0130_Gainsboro
v 7.03201 4.57634e-021 -8.84149
vt -37.0368 -4.24465e-040
f 4/4/1 1/1/1 8/15/1

usemtl _Tile_Ceramic_Natural_14
vt 17.1145 -4.58549
f 8/16/2 1/7/2 4/14/2

usemtl M_0130_Gainsboro
v 10.8335 2.2021e-020 -8.84149
vt -186.703 -2.05654e-039
f 8/15/1 1/1/1 9/17/1

usemtl _Tile_Ceramic_Natural_14
vt 14.4184 -4.58549
f 9/18/2 1/7/2 8/16/2

usemtl FrontColor
vt 207.559 0
vn 1 0 -0
v 10.8335 2.995 -8.84149
vt 0 8.66968e-019
f 1/19/7 10/11/7 9/20/7

v 10.8335 2.995 -14.1135
vt 207.559 117.913
f 10/11/7 1/19/7 11/21/7

usemtl Color_D03
vn -1 -0 0
f 9/20/8 10/11/8 1/19/8

usemtl FrontColor
v 7.03201 2.008 -8.84149
vt 37.0368 79.0551
vt 186.703 8.66968e-019
vt 186.703 117.913
f 12/22/5 9/23/5 10/24/5

vt 37.0368 1.80171e-019
f 9/23/5 12/22/5 8/25/5

usemtl Color_D03
f 8/25/6 12/22/6 9/23/6

f 10/24/6 9/23/6 12/22/6

usemtl FrontColor
f 12/22/5 10/24/5 7/12/5

usemtl Color_D03
f 7/12/6 10/24/6 12/22/6

usemtl FrontColor
f 6/11/5 7/12/5 10/24/5

usemtl Color_D03
f 6/11/6 7/12/6 2/8/6

f 10/24/6 7/12/6 6/11/6

f 11/21/8 1/19/8 10/11/8

usemtl FrontColor
vt -186.703 8.48441e-030
vn 2.50237e-016 -4.08771e-032 -1
v 9.79486 0.998333 -14.1135
vt -145.81 39.3045
vt -186.703 117.913
f 1/26/9 13/27/9 11/28/9

vt 5.1939e-014 4.85827e-019
f 13/27/9 1/26/9 3/29/9

usemtl Color_D03
vn -2.50237e-016 4.08771e-032 1
f 11/28/10 13/27/10 1/26/10

usemtl FrontColor
v 9.79486 1.99667 -14.1135
vt -145.81 78.6089
f 11/28/9 13/27/9 14/30/9

usemtl Color_D03
f 14/30/10 13/27/10 11/28/10

usemtl Translucent_Glass_Blue
vn 7.7969e-016 -1.01925e-046 -1
v 6.09128 1.99667 -14.1135
vt 1.61832e-013 78.6089
f 13/27/11 15/31/11 14/30/11

v 6.09128 0.998333 -14.1135
vt 1.61832e-013 39.3045
f 15/31/11 13/27/11 16/32/11

vn -7.7969e-016 1.01925e-046 1
f 16/32/12 13/27/12 15/31/12

usemtl FrontColor
vt 5.1939e-014 39.3045
f 13/27/9 3/29/9 16/33/9

usemtl Color_D03
f 3/29/10 1/26/10 13/27/10

f 16/33/10 3/29/10 13/27/10

usemtl FrontColor
vt -207.559 78.6089
vt -207.559 39.3045
f 3/10/3 15/34/3 16/35/3

v 6.09128 2.995 -14.1135
vt -207.559 117.913
f 3/10/3 17/36/3 15/34/3

f 3/10/3 5/9/3 17/36/3

usemtl Color_D03
f 3/10/4 5/9/4 2/8/4

f 17/36/4 5/9/4 3/10/4

f 15/34/4 17/36/4 3/10/4

usemtl FrontColor
vt 5.1939e-014 117.913
vt 5.1939e-014 78.6089
f 17/37/9 14/30/9 15/38/9

f 11/28/9 14/30/9 17/37/9

usemtl Color_D03
f 17/37/10 14/30/10 11/28/10

f 15/38/10 14/30/10 17/37/10

usemtl Translucent_Glass_Blue
f 14/30/12 15/31/12 13/27/12

usemtl Color_D03
f 16/35/4 15/34/4 3/10/4

g Mesh2 LAB002 Model

l 2 4

l 2 3

l 2 6

l 5 6

l 5 17

l 15 17

l 16 15

l 3 16

l 3 1

l 9 1

l 8 9

l 4 8

l 4 7

l 7 12

l 12 8

l 9 10

l 10 11

l 6 10

l 1 11

l 17 11

l 13 16

l 14 13

l 14 15

