# Alias OBJ Model File
# Exported from SketchUp, (c) 2000-2012 Trimble Navigation Limited
# File units = meters

mtllib LAB006.mtl

g Mesh1 LAB006 Model

usemtl M_0130_Gainsboro
v 11.5406 6.16845e-022 -5.89274
vt -22.2481 185.64
vn -8.31871e-021 -1 1.47437e-020
v 10.9755 1.26237e-019 -1.17749
vt -5.68434e-014 -7.29223e-038
v 10.9755 2.53973e-020 -5.89274
vt 8.11827e-039 185.64
f 1/1/1 2/2/1 3/3/1

v 14.0564 4.17177e-020 -1.17749
vt -121.292 2.84217e-014
f 2/2/1 1/1/1 4/4/1

usemtl _Tile_Ceramic_Natural_14
vt 14.3177 -6.6768
vn 8.31871e-021 1 -1.47437e-020
vt 14.3177 -10.0209
vt 13.9169 -6.6768
f 3/5/2 2/6/2 1/7/2

usemtl FrontColor
v 10.9755 0.998333 -1.17749
vt -2.84217e-014 39.3045
vn -1 -1.16643e-018 1.53863e-016
vt -185.64 9.75904e-019
vt 8.74609e-030 4.94598e-018
f 5/8/3 3/9/3 2/10/3

v 10.9755 2.995 -5.80991
vt -182.379 117.913
f 3/9/3 5/8/3 6/11/3

usemtl Color_D03
vn 1 1.16643e-018 -1.53863e-016
f 2/10/4 3/9/4 5/8/4

f 6/11/4 5/8/4 3/9/4

usemtl FrontColor
v 10.9755 1.99667 -1.17749
vt -2.84217e-014 78.6089
f 7/12/3 6/11/3 5/8/3

v 10.9755 2.995 -1.17749
vt 8.74609e-030 117.913
f 6/11/3 7/12/3 8/13/3

usemtl Color_D03
f 8/13/4 7/12/4 6/11/4

usemtl FrontColor
vt 5.82741e-030 78.6089
vn 2.05034e-016 -6.32727e-016 1
v 14.0564 2.995 -1.17749
vt 121.292 117.913
vt 5.68434e-014 117.913
f 7/14/5 9/15/5 8/16/5

v 14.0564 1.99667 -1.17749
vt 121.292 78.6089
f 9/15/5 7/14/5 10/17/5

usemtl Color_D03
vn -2.05034e-016 6.32727e-016 -1
f 10/17/6 7/14/6 9/15/6

usemtl Translucent_Glass_Blue
vt 4.99492e-030 39.3045
vn 1.75743e-016 0 1
vt 4.99492e-030 78.6089
f 5/18/7 10/17/7 7/19/7

v 14.0564 0.998333 -1.17749
vt 121.292 39.3045
f 10/17/7 5/18/7 11/20/7

vn -1.75743e-016 -0 -1
f 11/20/8 5/18/8 10/17/8

usemtl FrontColor
vt 5.68434e-014 4.94598e-018
vn 2.05034e-016 6.32727e-016 1
vt 5.82741e-030 39.3045
f 2/21/9 11/20/9 5/22/9

vt 121.292 1.61844e-018
f 11/20/9 2/21/9 4/23/9

usemtl Color_D03
vn -2.05034e-016 -6.32727e-016 -1
f 4/23/10 2/21/10 11/20/10

usemtl _Tile_Ceramic_Natural_14
vt 12.1327 -10.0209
f 4/24/2 1/7/2 2/6/2

usemtl M_0130_Gainsboro
v 12.2275 6.09311e-022 -5.89274
vt -49.2899 185.64
f 4/4/1 1/1/1 12/25/1

usemtl _Tile_Ceramic_Natural_14
vt 13.4298 -6.6768
f 12/26/2 1/7/2 4/24/2

usemtl M_0130_Gainsboro
v 14.0564 4.17177e-020 -5.89274
vt -121.292 185.64
f 4/4/1 12/25/1 13/27/1

usemtl _Tile_Ceramic_Natural_14
vt 12.1327 -6.6768
f 13/28/2 12/26/2 4/24/2

usemtl FrontColor
v 12.2275 2.008 -5.89274
vt -49.2899 79.0551
vn 3.30119e-016 6.39703e-017 -1
vt -121.292 -1.18738e-014
vt -49.2899 -1.18754e-014
f 14/29/11 13/30/11 12/31/11

v 14.0564 2.995 -5.89274
vt -121.292 117.913
f 13/30/11 14/29/11 15/32/11

usemtl Color_D03
vn -3.30119e-016 -6.39703e-017 1
f 12/31/12 13/30/12 14/29/12

f 15/32/12 14/29/12 13/30/12

usemtl FrontColor
v 10.9755 2.995 -5.89274
vt 6.12831e-014 117.913
f 15/32/11 14/29/11 16/33/11

usemtl Color_D03
f 16/33/12 14/29/12 15/32/12

usemtl FrontColor
v 11.5406 2.008 -5.89274
vt -22.2481 79.0551
f 17/34/11 16/33/11 14/29/11

vt 6.12831e-014 -1.18745e-014
f 17/34/11 3/35/11 16/33/11

vt -22.2481 -1.18754e-014
f 3/35/11 17/34/11 1/36/11

usemtl Color_D03
f 1/36/12 17/34/12 3/35/12

f 16/33/12 3/35/12 17/34/12

usemtl FrontColor
vt -185.64 117.913
f 3/9/3 6/11/3 16/37/3

usemtl Color_D03
f 16/37/4 6/11/4 3/9/4

f 14/29/12 16/33/12 17/34/12

usemtl FrontColor
v 14.0564 2.995 -5.53356
vt 171.499 117.913
vn 1 0 -0
vt 185.64 1.61844e-018
vt 185.64 117.913
f 18/38/13 13/39/13 15/40/13

vt 4.9738e-014 78.6089
f 10/41/13 13/39/13 18/38/13

vt 4.9738e-014 39.3045
f 11/42/13 13/39/13 10/41/13

vt 2.84217e-014 1.61844e-018
f 13/39/13 11/42/13 4/43/13

usemtl Color_D03
vn -1 -0 0
f 4/43/14 11/42/14 13/39/14

f 10/41/14 13/39/14 11/42/14

f 18/38/14 13/39/14 10/41/14

f 15/40/14 13/39/14 18/38/14

usemtl FrontColor
vt 2.84217e-014 117.913
f 18/38/13 9/44/13 10/41/13

usemtl Color_D03
f 10/41/14 9/44/14 18/38/14

f 5/22/10 11/20/10 2/21/10

usemtl Translucent_Glass_Blue
f 7/19/8 10/17/8 5/18/8

usemtl Color_D03
f 5/8/4 6/11/4 7/12/4

f 8/16/6 9/15/6 7/14/6

g Mesh2 LAB006 Model

l 3 1

l 3 2

l 3 16

l 16 15

l 6 16

l 6 8

l 7 8

l 7 10

l 5 7

l 2 5

l 4 2

l 13 4

l 12 13

l 1 12

l 17 1

l 17 14

l 12 14

l 13 15

l 18 15

l 18 9

l 10 9

l 11 10

l 4 11

l 5 11

l 9 8

