# Alias OBJ Model File
# Exported from SketchUp, (c) 2000-2012 Trimble Navigation Limited
# File units = meters

mtllib LAB008.mtl

g Mesh1 LAB008 Model

usemtl M_0130_Gainsboro
v 17.9242 3.15281e-021 -5.89274
vt -8.69911 185.64
vn 6.79034e-020 -1 3.99561e-020
v 17.7033 1.30552e-019 -1.17749
vt -3.40603e-037 -2.0042e-037
v 17.7033 4.53204e-020 -5.89274
vt -1.12749e-037 185.64
f 1/1/1 2/2/1 3/3/1

v 21.5493 4.70508e-019 -1.17749
vt -151.417 7.10543e-015
f 2/2/1 1/1/1 4/4/1

usemtl _Tile_Ceramic_Natural_14
vt 9.54627 -6.6768
vn -6.79034e-020 1 -3.99561e-020
vt 9.54627 -10.0209
vt 9.38956 -6.6768
f 3/5/2 2/6/2 1/7/2

usemtl FrontColor
v 17.7033 0.998333 -1.17749
vt -3.55271e-014 39.3045
vn -1 0 -0
vt -185.64 1.66044e-018
vt 0 5.016e-018
f 5/8/3 3/9/3 2/10/3

v 17.7033 2.995 -5.89274
vt -185.64 117.913
f 3/9/3 5/8/3 6/11/3

usemtl Color_D03
vn 1 -0 0
f 2/10/4 3/9/4 5/8/4

f 6/11/4 5/8/4 3/9/4

usemtl FrontColor
v 17.7033 1.99667 -1.17749
vt -3.55271e-014 78.6089
f 7/12/3 6/11/3 5/8/3

v 17.7033 2.995 -1.17749
vt 0 117.913
f 6/11/3 7/12/3 8/13/3

usemtl Color_D03
f 8/13/4 7/12/4 6/11/4

usemtl FrontColor
vt 2.50073e-030 78.6089
vn 7.03892e-017 -9.94285e-016 1
v 21.5493 2.995 -1.17749
vt 151.417 117.913
f 7/14/5 9/15/5 8/13/5

v 21.5493 1.99667 -1.17749
vt 151.417 78.6089
f 9/15/5 7/14/5 10/16/5

usemtl Color_D03
vn -7.03892e-017 9.94285e-016 -1
f 10/16/6 7/14/6 9/15/6

usemtl Translucent_Glass_Blue
vt 3.3343e-030 39.3045
vn 9.38522e-017 0 1
vt 3.3343e-030 78.6089
f 5/17/7 10/16/7 7/18/7

v 21.5493 0.998333 -1.17749
vt 151.417 39.3045
f 10/16/7 5/17/7 11/19/7

vn -9.38522e-017 -0 -1
f 11/19/8 5/17/8 10/16/8

usemtl FrontColor
vt 2.50073e-030 39.3045
vn 7.03892e-017 9.94285e-016 1
vt 151.417 1.84001e-017
f 5/20/9 4/21/9 11/19/9

f 4/21/9 5/20/9 2/10/9

usemtl Color_D03
vn -7.03892e-017 -9.94285e-016 -1
f 2/10/10 5/20/10 4/21/10

f 11/19/10 4/21/10 5/20/10

usemtl FrontColor
v 21.5493 2.12379e-019 -5.89274
vt 185.64 8.23753e-018
vn 1 0 -0
vt 4.9738e-014 39.3045
vt 7.10543e-015 1.84001e-017
f 12/22/11 11/23/11 4/24/11

vt 4.9738e-014 78.6089
f 11/23/11 12/22/11 10/25/11

usemtl Color_D03
vn -1 -0 0
f 4/24/12 11/23/12 12/22/12

f 10/25/12 12/22/12 11/23/12

usemtl FrontColor
v 21.5493 2.995 -5.89274
vt 185.64 117.913
f 13/26/11 10/25/11 12/22/11

vt 7.10543e-015 117.913
f 10/25/11 13/26/11 9/27/11

usemtl Color_D03
f 9/27/12 13/26/12 10/25/12

f 12/22/12 10/25/12 13/26/12

usemtl FrontColor
vt -151.417 -6.69004e-015
vn -9.72854e-017 3.60821e-017 -1
v 18.6111 2.008 -5.89274
vt -35.741 79.0551
vt -151.417 117.913
f 12/28/13 14/29/13 13/30/13

v 18.6111 3.14528e-021 -5.89274
vt -35.741 -6.69828e-015
f 14/29/13 12/28/13 15/31/13

usemtl Color_D03
vn 9.72854e-017 -3.60821e-017 1
f 15/31/14 12/28/14 14/29/14

usemtl M_0130_Gainsboro
vt -35.741 185.64
vt -151.417 185.64
f 4/4/1 15/32/1 12/33/1

f 4/4/1 1/1/1 15/32/1

usemtl _Tile_Ceramic_Natural_14
vt 6.81861 -10.0209
f 4/34/2 1/7/2 2/6/2

vt 8.90242 -6.6768
f 15/35/2 1/7/2 4/34/2

vt 6.81861 -6.6768
f 12/36/2 15/35/2 4/34/2

usemtl Color_D03
f 13/30/14 14/29/14 12/28/14

usemtl FrontColor
vt -1.806e-014 117.913
f 13/30/13 14/29/13 6/37/13

usemtl Color_D03
f 6/37/14 14/29/14 13/30/14

usemtl FrontColor
v 17.9242 2.008 -5.89274
vt -8.69911 79.0551
f 16/38/13 6/37/13 14/29/13

vt -1.806e-014 -6.69662e-015
f 16/38/13 3/39/13 6/37/13

vt -8.69911 -6.69828e-015
f 3/39/13 16/38/13 1/40/13

usemtl Color_D03
f 1/40/14 16/38/14 3/39/14

f 6/37/14 3/39/14 16/38/14

f 14/29/14 6/37/14 16/38/14

usemtl Translucent_Glass_Blue
f 7/18/8 10/16/8 5/17/8

usemtl Color_D03
f 5/8/4 6/11/4 7/12/4

f 8/13/6 9/15/6 7/14/6

g Mesh2 LAB008 Model

l 3 1

l 3 2

l 3 6

l 6 13

l 6 8

l 7 8

l 5 7

l 2 5

l 4 2

l 4 12

l 4 11

l 11 10

l 5 11

l 10 9

l 7 10

l 9 13

l 9 8

l 12 13

l 15 12

l 1 15

l 16 1

l 16 14

l 15 14

