# Alias OBJ Model File
# Exported from SketchUp, (c) 2000-2012 Trimble Navigation Limited
# File units = meters

mtllib LAB009.mtl

g Mesh1 LAB009 Model

usemtl M_0130_Gainsboro
v 24.6516 1.13484e-020 -5.89274
vt -116.547 185.64
vn -4.51766e-020 -1 -4.26252e-021
v 21.6913 2.09865e-019 -1.17749
vt 3.73267e-037 3.52186e-038
v 21.6913 2.09865e-019 -5.89274
vt 3.73267e-037 185.64
f 1/1/1 2/2/1 3/3/1

v 25.5207 0 -1.17749
vt -150.764 2.84217e-014
f 2/2/1 1/1/1 4/4/1

usemtl _Tile_Ceramic_Natural_14
vt 6.7179 -6.6768
vn 4.51766e-020 1 4.26252e-021
vt 6.7179 -10.0209
vt 4.61839 -6.6768
f 3/5/2 2/6/2 1/7/2

usemtl FrontColor
v 21.6913 0.998333 -1.17749
vt -4.26326e-014 39.3045
vn -1 0 -0
vt -185.64 8.26238e-018
vt 0 8.26238e-018
f 5/8/3 3/9/3 2/10/3

v 21.6913 2.995 -5.89274
vt -185.64 117.913
f 3/9/3 5/8/3 6/11/3

usemtl Color_D03
vn 1 -0 0
f 2/10/4 3/9/4 5/8/4

f 6/11/4 5/8/4 3/9/4

usemtl FrontColor
v 21.6913 1.99667 -1.17749
vt -4.26326e-014 78.6089
f 7/12/3 6/11/3 5/8/3

v 21.6913 2.995 -1.17749
vt 0 117.913
f 6/11/3 7/12/3 8/13/3

usemtl Color_D03
f 8/13/4 7/12/4 6/11/4

usemtl FrontColor
vt 6.02775e-030 78.6089
vn 1.41388e-016 -9.03896e-016 1
v 25.5207 2.995 -1.17749
vt 150.764 117.913
f 7/14/5 9/15/5 8/13/5

v 25.5207 1.99667 -1.17749
vt 150.764 78.6089
f 9/15/5 7/14/5 10/16/5

usemtl Color_D03
vn -1.41388e-016 9.03896e-016 -1
f 10/16/6 7/14/6 9/15/6

usemtl Translucent_Glass_Blue
vt 4.0185e-030 39.3045
vn 9.42589e-017 0 1
vt 4.0185e-030 78.6089
f 5/17/7 10/16/7 7/18/7

v 25.5207 0.998333 -1.17749
vt 150.764 39.3045
f 10/16/7 5/17/7 11/19/7

vn -9.42589e-017 -0 -1
f 11/19/8 5/17/8 10/16/8

usemtl FrontColor
vn 1.41388e-016 9.03896e-016 1
vt 6.02775e-030 39.3045
f 2/10/9 11/19/9 5/20/9

vt 150.764 6.42257e-030
f 11/19/9 2/10/9 4/21/9

usemtl Color_D03
vn -1.41388e-016 -9.03896e-016 -1
f 4/21/10 2/10/10 11/19/10

usemtl _Tile_Ceramic_Natural_14
vt 4.00201 -10.0209
f 4/22/2 1/7/2 2/6/2

usemtl M_0130_Gainsboro
v 25.3385 1.13408e-020 -5.89274
vt -143.589 185.64
f 4/4/1 1/1/1 12/23/1

usemtl _Tile_Ceramic_Natural_14
vt 4.13126 -6.6768
f 12/24/2 1/7/2 4/22/2

usemtl M_0130_Gainsboro
v 25.5207 1.42067e-019 -5.89274
vt -150.764 185.64
f 4/4/1 12/23/1 13/25/1

usemtl _Tile_Ceramic_Natural_14
vt 4.00201 -6.6768
f 13/26/2 12/24/2 4/22/2

usemtl FrontColor
v 25.3385 2.008 -5.89274
vt -143.589 79.0551
vn -1.02521e-016 4.24023e-017 -1
vt -150.764 -7.86596e-015
vt -143.589 -7.87111e-015
f 14/27/11 13/28/11 12/29/11

v 25.5207 2.995 -5.89274
vt -150.764 117.913
f 13/28/11 14/27/11 15/30/11

usemtl Color_D03
vn 1.02521e-016 -4.24023e-017 1
f 12/29/12 13/28/12 14/27/12

f 15/30/12 14/27/12 13/28/12

usemtl FrontColor
vt -1.9032e-014 117.913
f 15/30/11 14/27/11 6/31/11

usemtl Color_D03
f 6/31/12 14/27/12 15/30/12

usemtl FrontColor
v 24.6516 2.008 -5.89274
vt -116.547 79.0551
f 16/32/11 6/31/11 14/27/11

vt -1.9032e-014 -7.8633e-015
f 16/32/11 3/33/11 6/31/11

vt -116.547 -7.87111e-015
f 3/33/11 16/32/11 1/34/11

usemtl Color_D03
f 1/34/12 16/32/12 3/33/12

f 6/31/12 3/33/12 16/32/12

f 14/27/12 6/31/12 16/32/12

usemtl FrontColor
v 25.5207 2.995 -5.81297
vt 182.499 117.913
vn 1 0 -0
vt 185.64 5.59319e-018
vt 185.64 117.913
f 17/35/13 13/36/13 15/37/13

vt 5.68434e-014 78.6089
f 10/38/13 13/36/13 17/35/13

vt 5.68434e-014 39.3045
f 11/39/13 13/36/13 10/38/13

vt 2.84217e-014 0
f 13/36/13 11/39/13 4/40/13

usemtl Color_D03
vn -1 -0 0
f 4/40/14 11/39/14 13/36/14

f 10/38/14 13/36/14 11/39/14

f 17/35/14 13/36/14 10/38/14

f 15/37/14 13/36/14 17/35/14

usemtl FrontColor
vt 2.84217e-014 117.913
f 17/35/13 9/41/13 10/38/13

usemtl Color_D03
f 10/38/14 9/41/14 17/35/14

f 5/20/10 11/19/10 2/10/10

usemtl Translucent_Glass_Blue
f 7/18/8 10/16/8 5/17/8

usemtl Color_D03
f 5/8/4 6/11/4 7/12/4

f 8/13/6 9/15/6 7/14/6

g Mesh2 LAB009 Model

l 3 1

l 3 2

l 3 6

l 6 8

l 6 15

l 13 15

l 12 13

l 1 12

l 16 1

l 16 14

l 12 14

l 13 4

l 4 2

l 4 11

l 11 10

l 5 11

l 2 5

l 5 7

l 7 8

l 7 10

l 10 9

l 9 8

l 17 9

l 17 15

