# Alias OBJ Model File
# Exported from SketchUp, (c) 2000-2012 Trimble Navigation Limited
# File units = meters

mtllib LAB005.mtl

g Mesh1 LAB005 Model

usemtl M_0130_Gainsboro
v 8.53909 2.71271e-021 -5.89274
vt -10.2186 185.64
vn 4.56174e-021 -1 1.10071e-020
v 8.27954 5.29062e-020 -1.17749
vt -9.01591e-039 1.42109e-014
v 8.27954 1.53325e-020 -5.89274
vt -2.26781e-039 185.64
f 1/1/1 2/2/1 3/3/1

v 10.8335 7.20123e-020 -1.17749
vt -100.551 -2.49854e-038
f 2/2/1 1/1/1 4/4/1

usemtl _Tile_Ceramic_Natural_14
vt 16.2298 -6.6768
vn -4.56174e-021 1 -1.10071e-020
vt 16.2298 -10.0209
vt 16.0457 -6.6768
f 3/5/2 2/6/2 1/7/2

usemtl FrontColor
v 8.27954 0.998333 -1.17749
vt -4.26326e-014 39.3045
vn -1 0 -0
vt -185.64 4.97137e-019
vt -1.42109e-014 1.97642e-018
f 5/8/3 3/9/3 2/10/3

v 8.27954 2.995 -5.89274
vt -185.64 117.913
f 3/9/3 5/8/3 6/11/3

usemtl Color_D03
vn 1 -0 0
f 2/10/4 3/9/4 5/8/4

f 6/11/4 5/8/4 3/9/4

usemtl FrontColor
v 8.27954 1.99667 -1.17749
vt -4.26326e-014 78.6089
f 7/12/3 6/11/3 5/8/3

v 8.27954 2.995 -1.17749
vt -1.42109e-014 117.913
f 6/11/3 7/12/3 8/13/3

usemtl Color_D03
f 8/13/4 7/12/4 6/11/4

usemtl FrontColor
vt -3.01262e-030 78.6089
vn -7.06648e-017 -9.03896e-016 1
v 10.8335 2.995 -1.17749
vt 100.551 117.913
vt -1.00421e-030 117.913
f 7/14/5 9/15/5 8/16/5

v 10.8335 1.99667 -1.17749
vt 100.551 78.6089
f 9/15/5 7/14/5 10/17/5

usemtl Color_D03
vn 7.06648e-017 9.03896e-016 -1
f 10/17/6 7/14/6 9/15/6

usemtl Translucent_Glass_Blue
vt 0 39.3045
vn 0 0 1
vt 0 78.6089
f 5/18/7 10/17/7 7/19/7

v 10.8335 0.998333 -1.17749
vt 100.551 39.3045
f 10/17/7 5/18/7 11/20/7

vn -0 -0 -1
f 11/20/8 5/18/8 10/17/8

usemtl FrontColor
vt -3.01262e-030 39.3045
vn -7.06648e-017 9.03896e-016 1
vt 100.551 2.72863e-018
f 5/21/9 4/22/9 11/20/9

vt -1.00421e-030 1.97642e-018
f 4/22/9 5/21/9 2/23/9

usemtl Color_D03
vn 7.06648e-017 -9.03896e-016 -1
f 2/23/10 5/21/10 4/22/10

f 11/20/10 4/22/10 5/21/10

usemtl FrontColor
v 10.8335 1.53325e-020 -5.89274
vt 185.64 4.97137e-019
vn 1 0 -0
vt 4.26326e-014 39.3045
vt 0 2.72863e-018
f 12/24/11 11/25/11 4/26/11

vt 4.26326e-014 78.6089
f 11/25/11 12/24/11 10/27/11

usemtl Color_D03
vn -1 -0 0
f 4/26/12 11/25/12 12/24/12

f 10/27/12 12/24/12 11/25/12

usemtl FrontColor
v 10.8335 2.995 -5.80991
vt 182.379 117.913
f 10/27/11 12/24/11 13/28/11

usemtl Color_D03
f 13/28/12 12/24/12 10/27/12

usemtl FrontColor
v 10.8335 2.995 -5.89274
vt 185.64 117.913
f 13/28/11 12/24/11 14/29/11

usemtl Color_D03
f 14/29/12 12/24/12 13/28/12

usemtl FrontColor
vt -100.551 8.71523e-015
vn -1.19182e-016 -4.69443e-017 -1
v 9.22596 2.008 -5.89274
vt -37.2605 79.0551
vt -100.551 117.913
f 12/30/13 15/31/13 14/32/13

v 9.22596 2.70518e-021 -5.89274
vt -37.2605 8.71474e-015
f 15/31/13 12/30/13 16/33/13

usemtl Color_D03
vn 1.19182e-016 4.69443e-017 1
f 16/33/14 12/30/14 15/31/14

usemtl M_0130_Gainsboro
vt -37.2605 185.64
vt -100.551 185.64
f 4/4/1 16/34/1 12/35/1

f 4/4/1 1/1/1 16/34/1

usemtl _Tile_Ceramic_Natural_14
vt 14.4184 -10.0209
f 4/36/2 1/7/2 2/6/2

vt 15.5586 -6.6768
f 16/37/2 1/7/2 4/36/2

vt 14.4184 -6.6768
f 12/38/2 16/37/2 4/36/2

usemtl Color_D03
f 14/32/14 15/31/14 12/30/14

usemtl FrontColor
vt -2.21249e-014 117.913
f 14/32/13 15/31/13 6/39/13

usemtl Color_D03
f 6/39/14 15/31/14 14/32/14

usemtl FrontColor
v 8.53909 2.008 -5.89274
vt -10.2186 79.0551
f 17/40/13 6/39/13 15/31/13

vt -2.21249e-014 8.71523e-015
f 17/40/13 3/41/13 6/39/13

vt -10.2186 8.71474e-015
f 3/41/13 17/40/13 1/42/13

usemtl Color_D03
f 1/42/14 17/40/14 3/41/14

f 6/39/14 3/41/14 17/40/14

f 15/31/14 6/39/14 17/40/14

usemtl FrontColor
vt 0 117.913
f 13/28/11 9/43/11 10/27/11

usemtl Color_D03
f 10/27/12 9/43/12 13/28/12

usemtl Translucent_Glass_Blue
f 7/19/8 10/17/8 5/18/8

usemtl Color_D03
f 5/8/4 6/11/4 7/12/4

f 8/16/6 9/15/6 7/14/6

g Mesh2 LAB005 Model

l 4 2

l 12 4

l 12 16

l 12 14

l 14 6

l 13 14

l 13 9

l 10 9

l 11 10

l 4 11

l 5 11

l 2 5

l 2 3

l 1 3

l 16 1

l 16 15

l 17 15

l 17 1

l 3 6

l 8 6

l 7 8

l 5 7

l 7 10

l 9 8

