# Alias OBJ Model File
# Exported from SketchUp, (c) 2000-2012 Trimble Navigation Limited
# File units = meters

mtllib LAB007.mtl

g Mesh1 LAB007 Model

usemtl M_0130_Gainsboro
v 14.3181 1.85421e-021 -5.89274
vt -4.71241 185.64
vn 2.69969e-022 -1 1.13048e-020
v 14.1984 8.37296e-020 -1.17749
vt -8.70309e-040 3.55271e-014
v 14.1984 4.17177e-020 -5.89274
vt -4.23777e-040 185.64
f 1/1/1 2/2/1 3/3/1

v 17.5883 6.41204e-020 -1.17749
vt -133.462 -2.73088e-038
f 2/2/1 1/1/1 4/4/1

usemtl _Tile_Ceramic_Natural_14
vt 12.032 -6.6768
vn -2.69969e-022 1 -1.13048e-020
vt 12.032 -10.0209
vt 11.9471 -6.6768
f 3/5/2 2/6/2 1/7/2

usemtl FrontColor
v 14.1984 0.998333 -1.17749
vt -5.68434e-014 39.3045
vn -1 0 -0
vt -185.64 1.56973e-018
vt -3.55271e-014 3.22374e-018
f 5/8/3 3/9/3 2/10/3

v 14.1984 2.995 -5.53356
vt -171.499 117.913
f 3/9/3 5/8/3 6/11/3

usemtl Color_D03
vn 1 -0 0
f 2/10/4 3/9/4 5/8/4

f 6/11/4 5/8/4 3/9/4

usemtl FrontColor
v 14.1984 1.99667 -1.17749
vt -5.68434e-014 78.6089
f 7/12/3 6/11/3 5/8/3

v 14.1984 2.995 -1.17749
vt -3.55271e-014 117.913
f 6/11/3 7/12/3 8/13/3

usemtl Color_D03
f 8/13/4 7/12/4 6/11/4

usemtl FrontColor
vt -1.05921e-029 78.6089
vn -1.86338e-016 -8.13506e-016 1
v 17.5883 2.995 -1.17749
vt 133.462 117.913
vt -6.62006e-030 117.913
f 7/14/5 9/15/5 8/16/5

v 17.5883 1.99667 -1.17749
vt 133.462 78.6089
f 9/15/5 7/14/5 10/17/5

usemtl Color_D03
vn 1.86338e-016 8.13506e-016 -1
f 10/17/6 7/14/6 9/15/6

usemtl Translucent_Glass_Blue
vt -6.05263e-030 39.3045
vn -1.06479e-016 0 1
vt -6.05263e-030 78.6089
f 5/18/7 10/17/7 7/19/7

v 17.5883 0.998333 -1.17749
vt 133.462 39.3045
f 10/17/7 5/18/7 11/20/7

vn 1.06479e-016 -0 -1
f 11/20/8 5/18/8 10/17/8

usemtl FrontColor
vt -6.62006e-030 3.22374e-018
vn -1.86338e-016 8.13506e-016 1
vt -1.05921e-029 39.3045
f 2/21/9 11/20/9 5/22/9

vt 133.462 2.45172e-018
f 11/20/9 2/21/9 4/23/9

usemtl Color_D03
vn 1.86338e-016 -8.13506e-016 -1
f 4/23/10 2/21/10 11/20/10

usemtl _Tile_Ceramic_Natural_14
vt 9.62783 -10.0209
f 4/24/2 1/7/2 2/6/2

usemtl M_0130_Gainsboro
v 15.0049 1.84668e-021 -5.89274
vt -31.7543 185.64
f 4/4/1 1/1/1 12/25/1

usemtl _Tile_Ceramic_Natural_14
vt 11.46 -6.6768
f 12/26/2 1/7/2 4/24/2

usemtl M_0130_Gainsboro
v 17.5883 3.63973e-020 -5.89274
vt -133.462 185.64
f 4/4/1 12/25/1 13/27/1

usemtl _Tile_Ceramic_Natural_14
vt 9.62783 -6.6768
f 13/28/2 12/26/2 4/24/2

usemtl FrontColor
v 15.0049 2.008 -5.89274
vt -31.7543 79.0551
vn 0 0 -1
vt -133.462 1.36026e-018
vt -31.7543 0
f 14/29/11 13/30/11 12/31/11

v 17.5883 2.995 -5.89274
vt -133.462 117.913
f 13/30/11 14/29/11 15/32/11

usemtl Color_D03
vn -0 -0 1
f 12/31/12 13/30/12 14/29/12

f 15/32/12 14/29/12 13/30/12

usemtl FrontColor
v 14.1984 2.995 -5.89274
vt 0 117.913
f 15/32/11 14/29/11 16/33/11

usemtl Color_D03
f 16/33/12 14/29/12 15/32/12

usemtl FrontColor
v 14.3181 2.008 -5.89274
vt -4.71241 79.0551
f 17/34/11 16/33/11 14/29/11

vt 0 1.56973e-018
f 17/34/11 3/35/11 16/33/11

vt -4.71241 2.966e-022
f 3/35/11 17/34/11 1/36/11

usemtl Color_D03
f 1/36/12 17/34/12 3/35/12

f 16/33/12 3/35/12 17/34/12

usemtl FrontColor
vt -185.64 117.913
f 3/9/3 6/11/3 16/37/3

usemtl Color_D03
f 16/37/4 6/11/4 3/9/4

f 14/29/12 16/33/12 17/34/12

usemtl FrontColor
vt 185.64 117.913
vn 1 0 -0
vt 4.26326e-014 78.6089
vt 185.64 1.36026e-018
f 15/38/13 10/39/13 13/40/13

f 10/39/13 15/38/13 9/33/13

usemtl Color_D03
vn -1 -0 0
f 9/33/14 15/38/14 10/39/14

f 13/40/14 10/39/14 15/38/14

usemtl FrontColor
vt 4.26326e-014 39.3045
f 11/41/13 13/40/13 10/39/13

vt 0 2.45172e-018
f 13/40/13 11/41/13 4/42/13

usemtl Color_D03
f 4/42/14 11/41/14 13/40/14

f 10/39/14 13/40/14 11/41/14

f 5/22/10 11/20/10 2/21/10

usemtl Translucent_Glass_Blue
f 7/19/8 10/17/8 5/18/8

usemtl Color_D03
f 5/8/4 6/11/4 7/12/4

f 8/16/6 9/15/6 7/14/6

g Mesh2 LAB007 Model

l 2 3

l 4 2

l 13 4

l 12 13

l 1 12

l 3 1

l 3 16

l 6 16

l 8 6

l 7 8

l 5 7

l 2 5

l 5 11

l 11 10

l 4 11

l 10 9

l 7 10

l 15 9

l 13 15

l 16 15

l 9 8

l 17 1

l 17 14

l 12 14

