# Alias OBJ Model File
# Exported from SketchUp, (c) 2000-2012 Trimble Navigation Limited
# File units = meters

mtllib LAB013.mtl

g Mesh1 LAB013 Model

usemtl FrontColor
v 21.6913 2.995 -14.1135
vt 0 117.913
vn 0 0 -1
v 26.4263 1.99667 -14.1135
vt -186.418 78.6089
v 21.6913 1.99667 -14.1135
vt 0 78.6089
f 1/1/1 2/2/1 3/3/1

v 26.4263 2.995 -14.1135
vt -186.418 117.913
f 2/2/1 1/1/1 4/4/1

usemtl Color_D03
vn -0 -0 1
f 3/3/2 2/2/2 1/1/2

usemtl Translucent_Glass_Blue
v 26.4263 0.998333 -14.1135
vt -186.418 39.3045
f 5/5/1 3/3/1 2/2/1

v 21.6913 0.998333 -14.1135
vt 0 39.3045
f 3/3/1 5/5/1 6/6/1

f 6/6/2 5/5/2 3/3/2

usemtl FrontColor
v 21.6913 1.92876e-019 -14.1135
vt 0 7.59352e-018
f 5/5/1 7/7/1 6/6/1

v 26.4263 2.74492e-020 -14.1135
vt -186.418 1.08068e-018
f 7/7/1 5/5/1 8/8/1

usemtl Color_D03
f 8/8/2 5/5/2 7/7/2

usemtl FrontColor
vt 246.919 117.913
vn 1 0 -0
vt 246.919 1.08068e-018
vt 246.919 39.3045
f 4/9/3 8/10/3 5/11/3

v 26.4263 2.995 -7.84174
f 9/1/3 8/10/3 4/9/3

v 26.4263 0 -7.84174
vt 0 0
f 8/10/3 9/1/3 10/12/3

usemtl Color_D03
vn -1 -0 0
f 10/12/4 9/1/4 8/10/4

usemtl FrontColor
vt 186.418 117.913
vn 0 0 1
v 25.6467 6.43646e-020 -7.84174
vt 155.727 2.53404e-018
vt 186.418 0
f 9/13/5 11/14/5 10/15/5

v 23.2363 2.008 -7.84174
vt 60.8283 79.0551
f 11/14/5 9/13/5 12/16/5

usemtl Color_D03
vn -0 -0 -1
f 10/15/6 11/14/6 9/13/6

usemtl M_0130_Gainsboro
vt -155.727 6.07576e-038
vn -2.42562e-020 -1 -9.62667e-021
vt -186.418 246.919
vt -186.418 4.35299e-038
f 11/17/7 8/18/7 10/19/7

v 23.2363 5.41448e-021 -7.84174
vt -60.8283 1.62559e-038
f 13/20/7 8/18/7 11/17/7

v 22.5796 4.84606e-021 -7.84174
vt -34.975 1.00036e-038
f 14/21/7 8/18/7 13/20/7

v 21.6913 1.8439e-019 -7.84174
vt 1.76087e-037 6.98842e-038
f 15/22/7 8/18/7 14/21/7

vt 1.8419e-037 246.919
f 8/18/7 15/22/7 7/23/7

usemtl _Tile_Ceramic_Natural_14
vt 6.7179 -0.84648
vn 2.42562e-020 1 9.62667e-021
vt 6.7179 -5.29453
vt 3.35973 -0.84648
f 7/24/8 15/25/8 8/26/8

usemtl FrontColor
vt 0 7.25944e-018
vn -1 0 -0
vt -246.919 117.913
vt -246.919 7.59352e-018
f 15/27/9 1/28/9 7/29/9

v 21.6913 2.995 -7.84174
f 1/28/9 15/27/9 16/1/9

usemtl Color_D03
vn 1 -0 0
f 16/1/10 15/27/10 1/28/10

usemtl FrontColor
v 22.5796 2.008 -7.84174
vt 34.975 79.0551
f 15/27/5 17/30/5 16/1/5

vt 34.975 1.9079e-019
f 17/30/5 15/27/5 14/31/5

usemtl Color_D03
f 14/31/6 15/27/6 17/30/6

usemtl _Tile_Ceramic_Natural_14
vt 6.08785 -5.29453
f 14/32/8 8/26/8 15/25/8

vt 5.62213 -5.29453
f 13/33/8 8/26/8 14/32/8

vt 3.91261 -5.29453
f 11/34/8 8/26/8 13/33/8

vt 3.35973 -5.29453
f 10/35/8 8/26/8 11/34/8

usemtl M_0130_Gainsboro
v 26.5413 5.15473e-020 -14.1135
vt -190.946 246.919
f 10/19/7 8/18/7 18/36/7

usemtl _Tile_Ceramic_Natural_14
vt 3.27817 -0.84648
f 18/37/8 8/26/8 10/35/8

usemtl M_0130_Gainsboro
v 26.5413 0 -7.84174
vt -190.946 4.45871e-038
f 10/19/7 18/36/7 19/38/7

usemtl _Tile_Ceramic_Natural_14
vt 3.27817 -5.29453
f 19/39/8 18/37/8 10/35/8

usemtl FrontColor
vt 60.8283 2.13169e-019
f 12/16/5 13/40/5 11/14/5

usemtl Color_D03
f 11/14/6 13/40/6 12/16/6

f 12/16/6 9/13/6 11/14/6

usemtl FrontColor
f 12/16/5 9/13/5 17/30/5

usemtl Color_D03
f 17/30/6 9/13/6 12/16/6

usemtl FrontColor
f 16/1/5 17/30/5 9/13/5

usemtl Color_D03
f 16/1/6 17/30/6 15/27/6

f 9/13/6 17/30/6 16/1/6

usemtl FrontColor
v 25.8405 2.995 -7.84174
vt 163.356 117.913
f 16/1/5 9/13/5 20/41/5

usemtl Color_D03
f 20/41/6 9/13/6 16/1/6

f 7/29/10 1/28/10 15/27/10

usemtl FrontColor
vt -246.919 78.6089
f 7/29/9 1/28/9 3/42/9

usemtl Color_D03
f 3/42/10 1/28/10 7/29/10

usemtl FrontColor
vt -246.919 39.3045
f 7/29/9 3/42/9 6/43/9

usemtl Color_D03
f 6/43/10 3/42/10 7/29/10

f 6/6/2 7/7/2 5/5/2

f 4/9/4 8/10/4 9/1/4

f 5/11/4 8/10/4 4/9/4

usemtl FrontColor
vt 246.919 78.6089
f 4/9/3 5/11/3 2/44/3

usemtl Color_D03
f 2/44/4 5/11/4 4/9/4

usemtl Translucent_Glass_Blue
f 2/2/2 3/3/2 5/5/2

usemtl Color_D03
f 4/4/2 1/1/2 2/2/2

usemtl FrontColor
v 26.4037 2.995 -14.1135
vt -185.526 117.913
f 4/4/1 1/1/1 21/45/1

usemtl Color_D03
f 21/45/2 1/1/2 4/4/2

g Mesh2 LAB013 Model

l 2 4

l 2 3

l 5 2

l 5 6

l 8 5

l 7 8

l 15 7

l 15 16

l 14 15

l 14 17

l 13 14

l 12 13

l 12 17

l 11 13

l 11 10

l 9 10

l 9 20

l 4 9

l 21 4

l 21 1

l 3 1

l 6 3

l 7 6

l 16 1

l 20 16

l 10 8

l 10 19

l 19 18

l 8 18

